<?xml version="1.0" encoding="utf-8"?>
<!-- Generator: Adobe Illustrator 20.1.0, SVG Export Plug-In . SVG Version: 6.00 Build 0)  -->
<svg version="1.1" id="Layer_1" xmlns="http://www.w3.org/2000/svg" xmlns:xlink="http://www.w3.org/1999/xlink" x="0px" y="0px"
	 viewBox="0 0 50 50" style="enable-background:new 0 0 50 50;" xml:space="preserve">
<g>
	<path d="M21.6,42.1c-0.4,0-0.7-0.3-0.7-0.7v-3.5c0-0.4,0.3-0.7,0.7-0.7s0.7,0.3,0.7,0.7v3.5C22.3,41.7,22,42.1,21.6,42.1z"/>
	<path d="M24.3,42.1c-0.4,0-0.7-0.3-0.7-0.7v-3.5c0-0.4,0.3-0.7,0.7-0.7s0.7,0.3,0.7,0.7v3.5C25,41.7,24.7,42.1,24.3,42.1z"/>
	<path d="M33.2,45.4H12.8c-0.3,0-0.6-0.2-0.6-0.5c-0.1-0.3,0-0.6,0.2-0.8c3.1-2.3,6.7-3.5,10.6-3.5c3.9,0,7.5,1.2,10.6,3.5
		c0.2,0.2,0.3,0.5,0.2,0.8C33.7,45.2,33.5,45.4,33.2,45.4z M15.1,44h15.8c-2.4-1.3-5.1-2-7.9-2C20.2,42,17.5,42.7,15.1,44z"/>
	<path d="M23,33.2c-7.5,0-13.6-6.1-13.6-13.6C9.4,12.1,15.5,6,23,6c7.5,0,13.6,6.1,13.6,13.6C36.6,27.1,30.5,33.2,23,33.2z M23,7.3
		c-6.7,0-12.2,5.5-12.2,12.2c0,6.7,5.5,12.2,12.2,12.2c6.7,0,12.2-5.5,12.2-12.2C35.2,12.8,29.7,7.3,23,7.3z"/>
	<path d="M23,38.6c-4.9,0-9.8-1.9-13.5-5.6c-0.3-0.3-0.3-0.7,0-1c0.3-0.3,0.7-0.3,1,0c6.9,6.9,18.1,6.9,25,0c6.9-6.9,6.9-18.1,0-25
		c-0.3-0.3-0.3-0.7,0-1c0.3-0.3,0.7-0.3,1,0c7.4,7.4,7.4,19.5,0,26.9C32.7,36.7,27.9,38.6,23,38.6z"/>
	<path d="M8.7,34.5c-0.2,0-0.3-0.1-0.5-0.2c-0.3-0.3-0.3-0.7,0-1l2.7-2.7c0.3-0.3,0.7-0.3,1,0c0.3,0.3,0.3,0.7,0,1l-2.7,2.7
		C9.1,34.5,8.9,34.5,8.7,34.5z"/>
	<path d="M34.5,8.7c-0.2,0-0.3-0.1-0.5-0.2c-0.3-0.3-0.3-0.7,0-1l2.7-2.7c0.3-0.3,0.7-0.3,1,0c0.3,0.3,0.3,0.7,0,1L35,8.5
		C34.9,8.6,34.7,8.7,34.5,8.7z"/>
</g>
</svg>
