<?xml version="1.0" encoding="utf-8"?>
<!-- Generator: Adobe Illustrator 20.1.0, SVG Export Plug-In . SVG Version: 6.00 Build 0)  -->
<svg version="1.1" id="Layer_1" xmlns="http://www.w3.org/2000/svg" xmlns:xlink="http://www.w3.org/1999/xlink" x="0px" y="0px"
	 viewBox="0 0 44.1 29.2" style="enable-background:new 0 0 44.1 29.2;" xml:space="preserve">
<title>mail</title>
<path d="M40.6,29.2H3.5c-1.9,0-3.4-1.5-3.5-3.4V3.5C0.1,1.6,1.6,0.1,3.5,0h37.2c1.9,0.1,3.4,1.6,3.5,3.5v22.3
	C44,27.7,42.5,29.2,40.6,29.2z M3.5,1C2.1,1.1,1.1,2.1,1,3.5v22.3c0.1,1.3,1.1,2.4,2.5,2.4h37.2c1.3,0,2.4-1.1,2.5-2.4V3.5
	C43,2.1,42,1.1,40.6,1L3.5,1z"/>
<path d="M22,18.8c-0.1,0-0.2,0-0.3-0.1L6.2,8.3C6,8.2,5.9,7.9,6.1,7.6c0.2-0.2,0.4-0.2,0.6-0.1L22,17.7L37.4,7.5
	c0.2-0.2,0.5-0.1,0.7,0.1c0.2,0.2,0.1,0.5-0.1,0.7c0,0-0.1,0-0.1,0.1L22.3,18.7C22.2,18.8,22.1,18.8,22,18.8z"/>
<path d="M6.4,22.5c-0.3,0-0.5-0.2-0.5-0.5c0-0.2,0.1-0.3,0.2-0.4l6.7-4.5c0.2-0.2,0.5-0.1,0.7,0.1c0.2,0.2,0.1,0.5-0.1,0.7
	c0,0-0.1,0-0.1,0.1l-6.7,4.5C6.6,22.5,6.5,22.5,6.4,22.5z"/>
<path d="M37.7,22.5c-0.1,0-0.2,0-0.3-0.1L30.7,18c-0.2-0.1-0.3-0.4-0.2-0.7c0.1-0.2,0.4-0.3,0.7-0.2c0,0,0.1,0,0.1,0.1l6.7,4.5
	c0.2,0.1,0.3,0.5,0.1,0.7C38,22.5,37.8,22.6,37.7,22.5L37.7,22.5z"/>
</svg>
