<?xml version="1.0" encoding="utf-8"?>
<!-- Generator: Adobe Illustrator 20.1.0, SVG Export Plug-In . SVG Version: 6.00 Build 0)  -->
<svg version="1.1" id="Layer_1" xmlns="http://www.w3.org/2000/svg" xmlns:xlink="http://www.w3.org/1999/xlink" x="0px" y="0px"
	 viewBox="0 0 50 50" style="enable-background:new 0 0 50 50;" xml:space="preserve">
<style type="text/css">
	.st0{fill:#010101;}
</style>
<g>
	<path class="st0" d="M26,46.9c-0.2,0-0.4-0.1-0.6-0.3c-0.6-0.8-14.8-20-14.8-28.2c0-8.5,6.9-15.3,15.3-15.3
		c8.5,0,15.3,6.9,15.3,15.3c0,8.2-14.2,27.4-14.8,28.2C26.5,46.8,26.3,46.9,26,46.9z M26,4.5c-7.7,0-13.9,6.2-13.9,13.9
		c0,6.8,11.2,22.8,13.9,26.5c2.7-3.8,13.9-19.7,13.9-26.5C39.9,10.7,33.7,4.5,26,4.5z"/>
	<path class="st0" d="M26,25c-3.6,0-6.6-3-6.6-6.6s3-6.6,6.6-6.6c3.6,0,6.6,3,6.6,6.6S29.6,25,26,25z M26,13.3
		c-2.8,0-5.1,2.3-5.1,5.1s2.3,5.1,5.1,5.1c2.8,0,5.1-2.3,5.1-5.1S28.8,13.3,26,13.3z"/>
</g>
</svg>
