<svg id="Layer_1" data-name="Layer 1" xmlns="http://www.w3.org/2000/svg" viewBox="0 0 44.09 29.23"><defs><style>.cls-1{fill:#fff;}</style></defs><title>mail</title><path class="cls-1" d="M43.95,39.41H6.8A3.55,3.55,0,0,1,3.33,36V13.65A3.61,3.61,0,0,1,6.8,10.18H43.95a3.61,3.61,0,0,1,3.47,3.47V36A3.55,3.55,0,0,1,43.95,39.41ZM6.8,11.18a2.6,2.6,0,0,0-2.47,2.47V36A2.55,2.55,0,0,0,6.8,38.41H43.95A2.55,2.55,0,0,0,46.42,36V13.65a2.6,2.6,0,0,0-2.47-2.47Z" transform="translate(-3.33 -10.18)"/><path class="cls-1" d="M25.38,29a.5.5,0,0,1-.28-.08L9.5,18.52a.5.5,0,0,1,.55-.83L25.38,27.91,40.7,17.69a.5.5,0,1,1,.55.83l-15.6,10.4A.5.5,0,0,1,25.38,29Z" transform="translate(-3.33 -10.18)"/><path class="cls-1" d="M9.78,32.72a.5.5,0,0,1-.28-.92l6.69-4.46a.5.5,0,1,1,.55.83l-6.69,4.46A.5.5,0,0,1,9.78,32.72Z" transform="translate(-3.33 -10.18)"/><path class="cls-1" d="M41,32.72a.5.5,0,0,1-.28-.08L34,28.18a.5.5,0,1,1,.55-.83l6.69,4.46a.5.5,0,0,1-.28.92Z" transform="translate(-3.33 -10.18)"/></svg>