<svg id="Layer_1" data-name="Layer 1" xmlns="http://www.w3.org/2000/svg" viewBox="0 0 46.35 38.66"><title>radio</title><path d="M10.26,5.74a27.07,27.07,0,0,0,0,38.25.7.7,0,1,0,1-1,25.66,25.66,0,0,1,0-36.25.7.7,0,1,0-1-1Zm0,0" transform="translate(-2.35 -5.53)"/><path d="M14.4,39.85a.7.7,0,0,0,1,0,.7.7,0,0,0,.21-.5.69.69,0,0,0-.21-.49,19.81,19.81,0,0,1,0-28,.7.7,0,0,0-1-1,21.22,21.22,0,0,0,0,30Zm0,0" transform="translate(-2.35 -5.53)"/><path d="M14.05,24.86a15.24,15.24,0,0,0,4.49,10.85.7.7,0,0,0,1-1,13.95,13.95,0,0,1,0-19.7.7.7,0,1,0-1-1,15.23,15.23,0,0,0-4.49,10.84Zm0,0" transform="translate(-2.35 -5.53)"/><path d="M40.79,44a27.07,27.07,0,0,0,0-38.25.7.7,0,0,0-1,1A25.66,25.66,0,0,1,39.8,43a.7.7,0,0,0,1,1Zm0,0" transform="translate(-2.35 -5.53)"/><path d="M36.66,9.88a.7.7,0,0,0-1,0,.7.7,0,0,0-.21.5.69.69,0,0,0,.21.49,19.81,19.81,0,0,1,0,28,.7.7,0,0,0,1,1,21.22,21.22,0,0,0,0-30Zm0,0" transform="translate(-2.35 -5.53)"/><path d="M37,24.87A15.24,15.24,0,0,0,32.52,14a.7.7,0,0,0-1,1,13.95,13.95,0,0,1,0,19.7.7.7,0,0,0,1,1A15.23,15.23,0,0,0,37,24.87Zm0,0" transform="translate(-2.35 -5.53)"/><path d="M21.15,24.86a4.61,4.61,0,1,0,4.61-4.61,4.62,4.62,0,0,0-4.61,4.61Zm7.82,0a3.2,3.2,0,1,1-3.2-3.2,3.21,3.21,0,0,1,3.2,3.2Zm0,0" transform="translate(-2.35 -5.53)"/></svg>