<?xml version="1.0" encoding="utf-8"?>
<!-- Generator: Adobe Illustrator 21.0.0, SVG Export Plug-In . SVG Version: 6.00 Build 0)  -->
<svg version="1.1" id="Layer_1" xmlns="http://www.w3.org/2000/svg" xmlns:xlink="http://www.w3.org/1999/xlink" x="0px" y="0px"
	 viewBox="0 0 46.6 46.6" style="enable-background:new 0 0 46.6 46.6;" xml:space="preserve">
<style type="text/css">
	.st0{fill:#FFFFFF;}
</style>
<title>box</title>
<path class="st0" d="M42.6,40.2c-0.4,0-0.8-0.4-0.8-0.8V7.2c0-0.4,0.4-0.8,0.8-0.8s0.8,0.4,0.8,0.8l0,0v32.1
	C43.4,39.8,43.1,40.2,42.6,40.2C42.6,40.2,42.6,40.2,42.6,40.2z"/>
<path class="st0" d="M39.4,4.8H7.2C6.8,4.8,6.4,4.5,6.4,4c0-0.4,0.4-0.8,0.8-0.8h32.1c0.4,0,0.8,0.4,0.8,0.8
	C40.2,4.5,39.8,4.8,39.4,4.8z"/>
<path class="st0" d="M4,40.2c-0.4,0-0.8-0.4-0.8-0.8V7.2c-0.1-0.4,0.2-0.9,0.6-1c0.4-0.1,0.9,0.2,1,0.6c0,0.1,0,0.2,0,0.4v32.1
	C4.8,39.8,4.5,40.2,4,40.2z"/>
<path class="st0" d="M39.4,43.4H7.2c-0.4,0-0.8-0.4-0.8-0.8s0.4-0.8,0.8-0.8h32.1c0.4,0,0.8,0.4,0.8,0.8S39.8,43.4,39.4,43.4z"/>
<path class="st0" d="M8,8H0V0h8V8z M1.6,6.4h4.8V1.6H1.6V6.4z"/>
<path class="st0" d="M46.6,8h-8V0h8V8z M40.2,6.4H45V1.6h-4.8V6.4z"/>
<path class="st0" d="M8,46.6H0v-8h8V46.6z M1.6,45h4.8v-4.8H1.6V45z"/>
<path class="st0" d="M46.6,46.6h-8v-8h8V46.6z M40.2,45H45v-4.8h-4.8V45z"/>
</svg>
