<?xml version="1.0" encoding="utf-8"?>
<!-- Generator: Adobe Illustrator 21.0.0, SVG Export Plug-In . SVG Version: 6.00 Build 0)  -->
<svg version="1.1" id="Layer_1" xmlns="http://www.w3.org/2000/svg" xmlns:xlink="http://www.w3.org/1999/xlink" x="0px" y="0px"
	 viewBox="0 0 26.9 45.4" style="enable-background:new 0 0 26.9 45.4;" xml:space="preserve">
<style type="text/css">
	.st0{stroke:#000000;stroke-miterlimit:10;}
</style>
<title>phone</title>
<path class="st0" d="M22.7,45.4H4.2c-2.3,0-4.2-1.9-4.2-4.2v-37C0,1.9,1.9,0,4.2,0h18.5c2.3,0,4.2,1.9,4.2,4.2v37
	C26.9,43.6,25,45.4,22.7,45.4z M4.2,0.8c-1.9,0-3.5,1.6-3.5,3.5v37c0,1.9,1.6,3.5,3.5,3.5h18.5c1.9,0,3.5-1.6,3.5-3.5l0,0v-37
	c0-1.9-1.6-3.5-3.5-3.5C22.7,0.8,4.2,0.8,4.2,0.8z"/>
<path class="st0" d="M26.6,8.4H0.4C0.2,8.4,0,8.3,0,8.1c0-0.2,0.2-0.4,0.4-0.4h26.2c0.2,0,0.4,0.2,0.4,0.4
	C26.9,8.3,26.8,8.4,26.6,8.4z"/>
<path class="st0" d="M26.6,37.8H0.4c-0.2,0-0.4-0.2-0.4-0.4C0,37.2,0.2,37,0.4,37h26.2c0.2,0,0.4,0.2,0.4,0.4
	C26.9,37.6,26.8,37.8,26.6,37.8z"/>
<path class="st0" d="M18.9,5.4H8.1C7.9,5.4,7.7,5.2,7.7,5s0.2-0.4,0.4-0.4h10.8c0.2,0,0.4,0.2,0.4,0.4C19.2,5.2,19.1,5.4,18.9,5.4z"
	/>
<path class="st0" d="M13.5,43.1c-1.1,0-1.9-0.9-1.9-1.9s0.9-1.9,1.9-1.9c1.1,0,1.9,0.9,1.9,1.9l0,0C15.4,42.3,14.5,43.1,13.5,43.1z
	 M13.5,40c-0.6,0-1.2,0.5-1.2,1.2c0,0.6,0.5,1.2,1.2,1.2s1.2-0.5,1.2-1.2l0,0C14.6,40.6,14.1,40,13.5,40L13.5,40L13.5,40z"/>
</svg>
