<?xml version="1.0" encoding="utf-8"?>
<!-- Generator: Adobe Illustrator 21.0.0, SVG Export Plug-In . SVG Version: 6.00 Build 0)  -->
<svg version="1.1" id="Layer_1" xmlns="http://www.w3.org/2000/svg" xmlns:xlink="http://www.w3.org/1999/xlink" x="0px" y="0px"
	 viewBox="0 0 46.3 38.7" style="enable-background:new 0 0 46.3 38.7;" xml:space="preserve">
<title>radio</title>
<path d="M7.9,0.2c-10.5,10.6-10.5,27.7,0,38.3c0.3,0.3,0.7,0.3,1,0s0.3-0.7,0-1c-10-10-10-26.2,0-36.3c0.3-0.3,0.3-0.7,0-1
	S8.2-0.1,7.9,0.2L7.9,0.2z"/>
<path d="M12,34.3c0.3,0.3,0.7,0.3,1,0l0,0c0.1-0.1,0.2-0.3,0.2-0.5s-0.1-0.4-0.2-0.5c-7.7-7.7-7.7-20.3,0-28c0.3-0.3,0.3-0.7,0-1
	s-0.7-0.3-1,0C3.8,12.6,3.8,26,12,34.3L12,34.3z"/>
<path d="M11.7,19.3c0,4.1,1.6,8,4.5,10.8c0.3,0.3,0.7,0.3,1,0s0.3-0.7,0-1l0,0c-5.4-5.4-5.4-14.3,0-19.7c0.3-0.3,0.3-0.7,0-1
	s-0.7-0.3-1,0C13.3,11.3,11.7,15.3,11.7,19.3L11.7,19.3z"/>
<path d="M38.4,38.5C49,27.9,49,10.8,38.4,0.2c-0.3-0.3-0.7-0.3-1,0s-0.3,0.7,0,1l0,0c10,10,10,26.2,0,36.3c-0.3,0.3-0.3,0.7,0,1
	S38.2,38.7,38.4,38.5L38.4,38.5z"/>
<path d="M34.3,4.3c-0.3-0.3-0.7-0.3-1,0l0,0c-0.1,0.1-0.2,0.3-0.2,0.5s0.1,0.4,0.2,0.5c7.7,7.7,7.7,20.3,0,28c-0.3,0.3-0.3,0.7,0,1
	s0.7,0.3,1,0l0,0C42.6,26.1,42.6,12.6,34.3,4.3L34.3,4.3z"/>
<path d="M34.7,19.3c0-4.1-1.6-8-4.5-10.9c-0.3-0.3-0.7-0.3-1,0s-0.3,0.7,0,1l0,0c5.4,5.4,5.4,14.3,0,19.7c-0.3,0.3-0.3,0.7,0,1
	s0.7,0.3,1,0C33,27.3,34.7,23.4,34.7,19.3z"/>
<path d="M18.8,19.3c0,2.5,2.1,4.6,4.6,4.6s4.6-2.1,4.6-4.6s-2.1-4.6-4.6-4.6C20.9,14.7,18.8,16.8,18.8,19.3z M26.6,19.3
	c0,1.8-1.4,3.2-3.2,3.2s-3.2-1.4-3.2-3.2c0-1.8,1.4-3.2,3.2-3.2C25.2,16.1,26.6,17.6,26.6,19.3z"/>
</svg>
