<?xml version="1.0" encoding="utf-8"?>
<!-- Generator: Adobe Illustrator 21.0.0, SVG Export Plug-In . SVG Version: 6.00 Build 0)  -->
<svg version="1.1" id="Layer_1" xmlns="http://www.w3.org/2000/svg" xmlns:xlink="http://www.w3.org/1999/xlink" x="0px" y="0px"
	 viewBox="0 0 41.5 39.4" style="enable-background:new 0 0 41.5 39.4;" xml:space="preserve">
<style type="text/css">
	.st0{fill:#FFFFFF;}
</style>
<title>remote</title>
<path class="st0" d="M38.7,28.5h-2.1c-0.4,0-0.7-0.3-0.7-0.7c0-0.4,0.3-0.7,0.7-0.7h2.1c0.8,0,1.4-0.6,1.4-1.3c0,0,0,0,0,0V2.7
	c0-0.7-0.6-1.3-1.4-1.3h-36C2,1.4,1.4,2,1.4,2.7v23.1c0,0.7,0.6,1.3,1.4,1.3h11.8c0.4,0,0.7,0.3,0.7,0.7c0,0.4-0.3,0.7-0.7,0.7H2.7
	c-1.5,0-2.7-1.2-2.8-2.7c0,0,0,0,0,0V2.7C0,1.2,1.2,0,2.7,0h36c1.5,0,2.7,1.2,2.7,2.7v23.1C41.4,27.3,40.2,28.5,38.7,28.5z"/>
<path class="st0" d="M38.7,25.8h-2.1c-0.4,0-0.7-0.3-0.7-0.7c0-0.4,0.3-0.7,0.7-0.7h0.7V4.1H4.1v20.4h10.4c0.4,0,0.7,0.3,0.7,0.7
	c0,0.4-0.3,0.7-0.7,0.7H2.7V2.7h36V25.8z"/>
<path class="st0" d="M31.8,39.4H19.4v-19h12.4V39.4z M20.7,38h9.7V21.7h-9.7V38z"/>
<path class="st0" d="M22.8,26.5c-0.8,0-1.4-0.6-1.3-1.4s0.6-1.4,1.4-1.3c0.7,0,1.3,0.6,1.3,1.4C24.2,25.9,23.6,26.5,22.8,26.5
	C22.8,26.5,22.8,26.5,22.8,26.5z M22.8,25.1L22.8,25.1z"/>
<path class="st0" d="M25.6,26.5c-0.8,0-1.4-0.6-1.3-1.4s0.6-1.4,1.4-1.3c0.7,0,1.3,0.6,1.3,1.4C26.9,25.9,26.3,26.5,25.6,26.5
	C25.6,26.5,25.6,26.5,25.6,26.5z M25.6,25.1L25.6,25.1z"/>
<path class="st0" d="M22.8,30.6c-0.8,0-1.4-0.6-1.3-1.4s0.6-1.4,1.4-1.3c0.7,0,1.3,0.6,1.3,1.4C24.2,30,23.6,30.6,22.8,30.6
	C22.8,30.6,22.8,30.6,22.8,30.6z M22.8,29.2L22.8,29.2z"/>
<path class="st0" d="M25.6,30.6c-0.8,0-1.4-0.6-1.3-1.4s0.6-1.4,1.4-1.3c0.7,0,1.3,0.6,1.3,1.4C26.9,30,26.3,30.6,25.6,30.6
	C25.6,30.6,25.6,30.6,25.6,30.6z M25.6,29.2L25.6,29.2z"/>
<path class="st0" d="M22.8,34.6c-0.8,0-1.4-0.6-1.3-1.4s0.6-1.4,1.4-1.3c0.7,0,1.3,0.6,1.3,1.4C24.2,34,23.6,34.6,22.8,34.6
	C22.8,34.6,22.8,34.6,22.8,34.6z M22.8,33.3L22.8,33.3z"/>
<path class="st0" d="M25.6,34.6c-0.8,0-1.4-0.6-1.3-1.4s0.6-1.4,1.4-1.3c0.7,0,1.3,0.6,1.3,1.4C26.9,34,26.3,34.6,25.6,34.6
	C25.6,34.6,25.6,34.6,25.6,34.6z M25.6,33.3L25.6,33.3z"/>
<path class="st0" d="M28.3,26.5c-0.8,0-1.3-0.6-1.3-1.4c0-0.8,0.6-1.3,1.4-1.3c0.7,0,1.3,0.6,1.3,1.4C29.7,25.9,29.1,26.5,28.3,26.5
	C28.3,26.5,28.3,26.5,28.3,26.5z M28.3,25.1L28.3,25.1z"/>
<path class="st0" d="M28.3,30.6c-0.8,0-1.3-0.6-1.3-1.4c0-0.8,0.6-1.3,1.4-1.3c0.7,0,1.3,0.6,1.3,1.3C29.7,29.9,29.1,30.6,28.3,30.6
	C28.4,30.6,28.3,30.6,28.3,30.6z M28.3,29.2L28.3,29.2z"/>
<path class="st0" d="M28.3,34.6c-0.8,0-1.3-0.6-1.3-1.4s0.6-1.3,1.4-1.3c0.7,0,1.3,0.6,1.3,1.4C29.7,34,29.1,34.6,28.3,34.6
	C28.3,34.6,28.3,34.6,28.3,34.6z M28.3,33.3L28.3,33.3z"/>
<path class="st0" d="M29.8,14.9c-0.1,0-0.3,0-0.4-0.1c-2.4-1.5-5.4-1.5-7.8,0c-0.3,0.2-0.7,0.1-0.9-0.2c-0.2-0.3-0.1-0.7,0.2-0.9
	c2.8-1.8,6.5-1.8,9.3,0c0.3,0.2,0.4,0.6,0.2,0.9C30.3,14.8,30.1,14.9,29.8,14.9L29.8,14.9z"/>
<path class="st0" d="M31.9,11.5c-0.1,0-0.3,0-0.4-0.1c-3.6-2.5-8.3-2.5-11.9,0c-0.3,0.2-0.7,0.1-1-0.2c-0.2-0.3-0.1-0.7,0.2-1l0,0
	c4.1-2.8,9.4-2.8,13.5,0c0.3,0.2,0.4,0.7,0.2,1C32.3,11.4,32.1,11.5,31.9,11.5z"/>
<path class="st0" d="M27.7,18.3c-0.1,0-0.2,0-0.4-0.1c-1.1-0.7-2.5-0.7-3.6,0c-0.3,0.2-0.7,0.1-0.9-0.2s-0.1-0.7,0.2-0.9
	c1.5-0.9,3.5-0.9,5,0c0.3,0.2,0.4,0.6,0.2,0.9C28.2,18.1,28,18.3,27.7,18.3z"/>
</svg>
