<?xml version="1.0" encoding="utf-8"?>
<!-- Generator: Adobe Illustrator 21.0.0, SVG Export Plug-In . SVG Version: 6.00 Build 0)  -->
<svg version="1.1" id="Layer_1" xmlns="http://www.w3.org/2000/svg" xmlns:xlink="http://www.w3.org/1999/xlink" x="0px" y="0px"
	 viewBox="0 0 44.8 34.3" style="enable-background:new 0 0 44.8 34.3;" xml:space="preserve">
<title>window</title>
<path d="M40.3,34.3H4.5c-2.5,0-4.5-2-4.5-4.5V4.5C0,2,2,0,4.5,0h35.8c2.5,0,4.5,2,4.5,4.5v25.4C44.8,32.3,42.8,34.3,40.3,34.3z
	 M4.5,1.5c-1.7,0-3,1.3-3,3v25.4c0,1.7,1.3,3,3,3h35.8c1.7,0,3-1.3,3-3V4.5c0-1.7-1.3-3-3-3H4.5z"/>
<path d="M44,8.9H0.8C0.3,8.9,0,8.5,0.1,8.1c0-0.3,0.3-0.6,0.7-0.7H44c0.4,0,0.7,0.4,0.7,0.8C44.6,8.6,44.4,8.9,44,8.9z"/>
<path d="M6,6C5.1,6,4.5,5.3,4.5,4.5S5.1,3,6,3c0.8,0,1.5,0.7,1.5,1.5l0,0C7.5,5.3,6.8,6,6,6z M6,4.5L6,4.5z"/>
<path d="M10.4,6C9.6,6,9,5.3,9,4.5S9.6,3,10.4,3c0.8,0,1.5,0.7,1.5,1.5l0,0C11.9,5.3,11.3,6,10.4,6z M10.4,4.5L10.4,4.5z"/>
<path d="M14.9,6c-0.8,0-1.5-0.7-1.5-1.5S14.1,3,14.9,3c0.8,0,1.5,0.7,1.5,1.5l0,0C16.4,5.3,15.8,6,14.9,6z M14.9,4.5L14.9,4.5z"/>
</svg>
