<?xml version="1.0" encoding="utf-8"?>
<!-- Generator: Adobe Illustrator 21.0.0, SVG Export Plug-In . SVG Version: 6.00 Build 0)  -->
<svg version="1.1" xmlns="http://www.w3.org/2000/svg" xmlns:xlink="http://www.w3.org/1999/xlink" x="0px" y="0px"
	 viewBox="0 0 100 50" style="enable-background:new 0 0 100 50;" xml:space="preserve">
<style type="text/css">
	.st0{fill-rule:evenodd;clip-rule:evenodd;fill:#9E005D;}
	.st1{fill:#1A1A1A;}
	.st2{stroke:#000000;stroke-width:0.25;stroke-miterlimit:10;}
</style>
<g id="Layer_1">
	<path class="st0" d="M25.4,19c0.7-1,1.7-1.7,2.9-2c0.6-0.1,1-0.7,0.8-1.3c-0.1-0.6-0.7-0.9-1.3-0.8c-1.6,0.4-3,1.3-3.9,2.6
		c-4.2-3.6-9.1-4.4-11.7-1.8c-0.8,0.8-1.3,1.9-1.4,3.2l0,0.3c-2.4,2.4-4,5.4-4.6,8.3c-0.1,0.7-0.2,1.4-0.2,2c0,1.7,0.4,3.2,1.2,4.5
		c-0.6,0.8-0.7,1.8-0.1,2.3c0.6,0.6,1.6,0.5,2.3-0.1c3.9,2.4,10.2,1.1,14.8-3.5l0.3,0c1.3-0.1,2.4-0.6,3.2-1.4c1-1,1.5-2.3,1.5-4
		C29.1,24.5,27.7,21.5,25.4,19z M9.7,33.6c-0.3-0.3-0.6-0.7-0.9-1.1c0.1-0.1,0.2-0.2,0.3-0.3c0.3-0.2,0.6-0.3,1-0.2
		c0.3,0.1,0.6,0.3,0.8,0.6c0.2,0.3,0.3,0.6,0.2,1c-0.1,0.3-0.3,0.6-0.5,0.8C10.3,34.1,9.9,33.9,9.7,33.6z M22.8,30.9
		c-3.8,3.8-8.7,5.2-11.9,3.5c0.3-0.2,0.5-0.5,0.5-0.9c0-0.1,0-0.3,0-0.4l2.9-0.6c0,0,0,0,0,0c0.3,0.4,0.7,0.6,1.1,0.6
		c0.3,0,0.5-0.1,0.7-0.2c0.3-0.2,0.5-0.5,0.6-0.9c0.1-0.4,0-0.7-0.2-1c-0.2-0.3-0.5-0.5-0.9-0.6c-0.4-0.1-0.7,0-1,0.2
		c-0.5,0.3-0.7,1-0.5,1.5l-2.8,0.6c0-0.2-0.1-0.3-0.2-0.5c-0.2-0.3-0.5-0.5-0.8-0.6l1.5-3.5c0,0,0,0,0.1,0c0.1,0,0.3,0,0.4,0
		c0.4,0,0.7-0.1,1.1-0.3c0.4-0.3,0.7-0.7,0.8-1.2c0.1-0.5,0-1-0.3-1.5c-0.6-0.9-1.8-1.1-2.7-0.6c-0.4,0.3-0.7,0.7-0.8,1.2
		c-0.1,0.5,0,1,0.3,1.5c0.2,0.3,0.5,0.6,0.9,0.7l-1.5,3.5c-0.4-0.1-0.8,0-1.2,0.2c-0.1,0.1-0.2,0.1-0.3,0.2
		c-0.6-1.2-0.7-2.7-0.4-4.3c0.5-2.5,1.9-5.1,4-7.3c0,0,0.1-0.1,0.1-0.1c2,1,4.1,2.5,6,4.4c1.9,1.9,3.4,4,4.4,6
		C22.8,30.9,22.8,30.9,22.8,30.9z M14.9,31c0.2-0.2,0.5-0.2,0.8-0.1c0.3,0.1,0.5,0.2,0.7,0.4c0.2,0.2,0.2,0.5,0.1,0.8
		c-0.1,0.3-0.2,0.5-0.4,0.7c-0.5,0.3-1.1,0.2-1.4-0.3C14.3,31.9,14.4,31.3,14.9,31z M11.1,27.3c-0.2-0.4-0.3-0.8-0.2-1.2
		c0.1-0.4,0.3-0.8,0.7-1c0.3-0.2,0.6-0.3,0.9-0.3c0.1,0,0.2,0,0.3,0c0.4,0.1,0.8,0.3,1,0.7c0.2,0.4,0.3,0.8,0.2,1.2
		c-0.1,0.4-0.3,0.8-0.7,1c-0.4,0.2-0.8,0.3-1.2,0.2C11.7,27.9,11.3,27.6,11.1,27.3z M26.1,29.6c-0.3,0.3-0.7,0.5-1.1,0.7
		c-1.1-2.4-2.8-4.8-5-7c-2.2-2.2-4.6-3.9-7-5c0.1-0.4,0.4-0.8,0.7-1.1c1.9-1.9,6.3-0.6,9.7,2.8c2.2,2.2,3.6,5,3.6,7.2
		C26.9,27.9,26.8,28.8,26.1,29.6z"/>
	<g>
		<path class="st1" d="M51.4,20.9c0,4.2-2.8,6.6-7.9,6.6h-4.1v7.1h-5.3V14.1h9.4C48.6,14.1,51.4,16.5,51.4,20.9z M46,20.9
			c0-1.8-1-2.7-3.4-2.7h-3.2v5.4h3.2C45,23.6,46,22.7,46,20.9z"/>
		<path class="st1" d="M63.2,27.1H60v7.5h-5.2V14.1h9.8c4.9,0,7.7,2.3,7.7,6.5c0,3-1.4,5-4,5.9l5.2,8h-5.9L63.2,27.1z M60,23.3h3.6
			c2.3,0,3.3-0.8,3.3-2.6c0-1.8-1-2.6-3.3-2.6H60V23.3z"/>
	</g>
	<g>
		<path class="st2" d="M37.7,39.8v2.4h-0.1v-2.3c0-0.8-0.5-1.2-1.2-1.2c-0.8,0-1.5,0.7-1.5,1.4v2.2h-0.1v-3.6h0.1v1
			c0.2-0.6,0.7-1,1.5-1C37.2,38.5,37.7,38.9,37.7,39.8z"/>
		<path class="st2" d="M41.8,40.4h-3c0,1.1,0.6,1.7,1.5,1.7c0.6,0,1.1-0.3,1.4-0.8l0.1,0c-0.3,0.5-0.8,0.9-1.4,0.9
			c-1,0-1.6-0.7-1.6-1.9c0-1.2,0.6-1.9,1.6-1.9C41.2,38.5,41.8,39.2,41.8,40.4L41.8,40.4z M38.8,40.3h2.9c0-1.1-0.5-1.7-1.4-1.7
			C39.3,38.6,38.8,39.2,38.8,40.3z"/>
		<path class="st2" d="M44.4,41.9c-0.1,0.2-0.4,0.3-0.7,0.3c-0.6,0-0.9-0.3-0.9-1v-2.6h-0.7v-0.1h0.7v-0.9l0.1,0v1h1.4v0.1H43v2.6
			c0,0.6,0.2,0.9,0.7,0.9C44,42.1,44.2,42,44.4,41.9L44.4,41.9z"/>
		<path class="st2" d="M49.8,38.5l-1.2,3.6h-0.1l-1.3-3.4l-1.3,3.4h-0.1l-1.2-3.6h0.1l1.1,3.4l1.3-3.4h0.1l1.3,3.4l1.1-3.4H49.8z"/>
		<path class="st2" d="M53.6,40.3c0,1.2-0.6,1.9-1.7,1.9c-1,0-1.7-0.7-1.7-1.9s0.6-1.9,1.7-1.9C53,38.5,53.6,39.2,53.6,40.3z
			 M50.4,40.3c0,1.1,0.6,1.8,1.6,1.8c1,0,1.6-0.7,1.6-1.8s-0.6-1.8-1.6-1.8C51,38.6,50.4,39.2,50.4,40.3z"/>
		<path class="st2" d="M56.4,38.6L56.4,38.6c-0.2,0-0.3-0.1-0.5-0.1c-0.7,0-1.2,0.7-1.2,1.5v2.1h-0.1v-3.6h0.1v0.9
			c0.2-0.6,0.6-1,1.2-1C56.1,38.5,56.3,38.5,56.4,38.6z"/>
		<path class="st2" d="M58.1,40.1l-0.9,0.9v1.2h-0.1v-5.2h0.1v3.9l2.4-2.3h0.2L58.1,40.1l1.7,2h-0.1L58.1,40.1z"/>
		<path class="st2" d="M65.2,39.4l-0.1,0c-0.2-0.6-0.6-0.9-1.3-0.9c-1,0-1.5,0.7-1.5,1.8s0.5,1.8,1.5,1.8c0.7,0,1.3-0.4,1.4-1l0.1,0
			c-0.1,0.6-0.7,1.1-1.5,1.1c-1,0-1.6-0.7-1.6-1.9s0.6-1.9,1.6-1.9C64.5,38.5,65.1,38.8,65.2,39.4z"/>
		<path class="st2" d="M68,38.6L68,38.6c-0.2,0-0.3-0.1-0.5-0.1c-0.7,0-1.2,0.7-1.2,1.5v2.1h-0.1v-3.6h0.1v0.9c0.2-0.6,0.6-1,1.2-1
			C67.7,38.5,67.9,38.5,68,38.6z"/>
		<path class="st2" d="M71.4,38.5v3.6h-0.1v-1c-0.2,0.6-0.7,1-1.5,1c-0.8,0-1.3-0.5-1.3-1.3v-2.4h0.1v2.4c0,0.8,0.4,1.2,1.2,1.2
			c1,0,1.5-0.8,1.5-1.4v-2.2H71.4z"/>
		<path class="st2" d="M75.6,39.8v2.4h-0.1v-2.3c0-0.8-0.5-1.2-1.2-1.2c-0.8,0-1.5,0.7-1.5,1.4v2.2h-0.1v-3.6h0.1v1
			c0.2-0.6,0.7-1,1.5-1C75.1,38.5,75.6,38.9,75.6,39.8z"/>
		<path class="st2" d="M79.6,39.4l-0.1,0c-0.2-0.6-0.6-0.9-1.3-0.9c-1,0-1.5,0.7-1.5,1.8s0.5,1.8,1.5,1.8c0.7,0,1.3-0.4,1.4-1l0.1,0
			c-0.1,0.6-0.7,1.1-1.5,1.1c-1,0-1.6-0.7-1.6-1.9s0.6-1.9,1.6-1.9C78.9,38.5,79.4,38.8,79.6,39.4z"/>
		<path class="st2" d="M83.4,39.7v2.4h-0.1v-2.3c0-0.8-0.5-1.2-1.2-1.2c-0.8,0-1.5,0.7-1.5,1.4v2.2h-0.1v-5.2h0.1v2.6
			c0.2-0.6,0.7-1,1.5-1C82.9,38.5,83.4,38.9,83.4,39.7z"/>
	</g>
</g>
<g id="Layer_2">
</g>
</svg>
