<?xml version="1.0" encoding="utf-8"?>
<!-- Generator: Adobe Illustrator 21.0.0, SVG Export Plug-In . SVG Version: 6.00 Build 0)  -->
<svg version="1.1" id="Layer_1" xmlns="http://www.w3.org/2000/svg" xmlns:xlink="http://www.w3.org/1999/xlink" x="0px" y="0px"
	 viewBox="0 0 100 50" style="enable-background:new 0 0 100 50;" xml:space="preserve">
<style type="text/css">
	.st0{fill:#1A1A1A;}
	.st1{fill-rule:evenodd;clip-rule:evenodd;fill:#00A99D;}
	.st2{stroke:#000000;stroke-width:0.25;stroke-miterlimit:10;}
	.st3{fill:#00A99D;}
</style>
<g>
	<path class="st0" d="M40.6,17.9l-2.3,2.6c-1-1.6-2.4-2.3-4.3-2.3c-1.7,0-2.5,0.7-2.5,1.6c0,0.8,0.7,1.3,3.1,1.7
		c4.3,0.7,5.9,2.1,5.9,4.8c0,3-2.8,4.8-6.6,4.8c-3.7,0-5.6-0.9-7.1-2.6l2.1-2.8c1.2,1.8,2.8,2.4,4.8,2.4c1.7,0,2.6-0.5,2.6-1.4
		c0-0.7-0.7-1.1-3-1.6c-4.4-0.8-6-2.2-6-4.8c0-2.9,2.4-5.1,6.7-5.1C36.9,15.1,38.9,15.9,40.6,17.9z"/>
	<path class="st0" d="M51.8,27.3h-5.4l-1.1,3.5h-4.1l5.5-15.5h4.8l5.4,15.5h-4.2L51.8,27.3z M51,24.6l-1.1-3.7l-0.7-2.4h0l-0.6,2.4
		l-1.2,3.7H51z"/>
	<path class="st0" d="M62.9,30.8h-4V15.3h4V30.8z"/>
	<path class="st0" d="M79.1,17.9l-2.3,2.6c-1-1.6-2.4-2.3-4.3-2.3c-1.7,0-2.5,0.7-2.5,1.6c0,0.8,0.7,1.3,3.1,1.7
		c4.3,0.7,5.9,2.1,5.9,4.8c0,3-2.8,4.8-6.6,4.8c-3.7,0-5.6-0.9-7.1-2.6l2.1-2.8c1.2,1.8,2.8,2.4,4.8,2.4c1.7,0,2.6-0.5,2.6-1.4
		c0-0.7-0.7-1.1-3-1.6c-4.4-0.8-6-2.2-6-4.8c0-2.9,2.4-5.1,6.7-5.1C75.3,15.1,77.3,15.9,79.1,17.9z"/>
	<path class="st0" d="M94.6,20.5c0,3.2-2.1,5-6,5h-3.1v5.4h-4V15.3h7.1C92.5,15.3,94.6,17.1,94.6,20.5z M90.5,20.4
		c0-1.4-0.8-2-2.6-2h-2.4v4.1H88C89.8,22.5,90.5,21.8,90.5,20.4z"/>
</g>
<g>
	<path class="st1" d="M20.2,19.4C17,16.7,13.3,16,11.3,18c-0.6,0.6-1,1.4-1.1,2.4l0,0.2c-1.8,1.8-3,4.1-3.4,6.3
		c-0.1,0.5-0.1,1-0.1,1.5c0,1.3,0.3,2.4,0.9,3.4c-0.5,0.6-0.5,1.3-0.1,1.8c0.4,0.4,1.2,0.4,1.8-0.1c3,1.8,7.7,0.8,11.2-2.7l0.2,0
		c1-0.1,1.8-0.5,2.4-1.1c0.7-0.7,1.1-1.8,1.1-3c0-2-1-4.3-2.8-6.2c0.5-0.8,1.3-1.3,2.2-1.5c0.4-0.1,0.7-0.5,0.6-1
		c-0.1-0.4-0.5-0.7-1-0.6C22,17.7,20.9,18.4,20.2,19.4L20.2,19.4z M11.4,21.7C11.5,21.6,11.5,21.6,11.4,21.7
		c1.6,0.7,3.2,1.8,4.6,3.3c1.4,1.4,2.6,3,3.4,4.6c0,0-0.1,0.1-0.1,0.1c-3.3,3.3-7.7,4.2-9.9,2c-1-1-1.4-2.6-1.1-4.4
		C8.7,25.2,9.8,23.3,11.4,21.7L11.4,21.7z M12.5,19.1c1.4-1.4,4.8-0.5,7.3,2.1c1.7,1.7,2.7,3.8,2.7,5.5c0,0.5-0.1,1.3-0.7,1.8
		c-0.2,0.2-0.5,0.4-0.8,0.5c-0.8-1.8-2.2-3.6-3.8-5.3c-1.6-1.6-3.5-3-5.3-3.8C12.1,19.6,12.2,19.4,12.5,19.1L12.5,19.1z M12.5,19.1"
		/>
</g>
<g>
	<path class="st2" d="M28.4,33.2c0-0.1,0-0.1,0.1-0.1c0.1,0,0.1,0,0.1,0.1s0,0.1-0.1,0.1C28.4,33.3,28.4,33.2,28.4,33.2z M28.5,36.5
		L28.5,36.5l-0.1-2.7h0.1V36.5z"/>
	<path class="st2" d="M31.7,34.7v1.8h-0.1L31.7,34.7c-0.1-0.6-0.4-0.9-1-0.9c-0.6,0-1.1,0.5-1.1,1.1v1.6h-0.1v-2.7h0.1v0.7
		c0.1-0.4,0.6-0.8,1.1-0.8C31.3,33.8,31.7,34.1,31.7,34.7z"/>
	<path class="st2" d="M33.8,36.4c-0.1,0.1-0.3,0.2-0.5,0.2c-0.4,0-0.7-0.3-0.7-0.7v-2h-0.5v-0.1h0.5v-0.7l0.1,0v0.7h1v0.1h-1v2
		c0,0.4,0.2,0.7,0.6,0.7C33.4,36.5,33.6,36.4,33.8,36.4L33.8,36.4z"/>
	<path class="st2" d="M36.4,35.2h-2.3c0,0.8,0.4,1.3,1.2,1.3c0.5,0,0.8-0.2,1-0.6l0.1,0c-0.2,0.4-0.6,0.6-1.1,0.6
		c-0.8,0-1.2-0.5-1.2-1.4s0.5-1.4,1.2-1.4C36,33.8,36.4,34.3,36.4,35.2L36.4,35.2z M34.2,35.1h2.2c0-0.8-0.4-1.3-1.1-1.3
		C34.6,33.8,34.2,34.3,34.2,35.1z"/>
	<path class="st2" d="M38.5,33.9L38.5,33.9c-0.1,0-0.2-0.1-0.4-0.1c-0.5,0-0.9,0.5-0.9,1.1v1.6h-0.1v-2.7h0.1v0.7
		c0.1-0.4,0.4-0.8,0.9-0.8C38.3,33.8,38.4,33.8,38.5,33.9z"/>
	<path class="st2" d="M41.2,34.7v1.8h-0.1L41.2,34.7c-0.1-0.6-0.4-0.9-1-0.9c-0.6,0-1.1,0.5-1.1,1.1v1.6H39v-2.7h0.1v0.7
		c0.1-0.4,0.6-0.8,1.1-0.8C40.8,33.8,41.2,34.1,41.2,34.7z"/>
	<path class="st2" d="M44.3,35.2H42c0,0.8,0.4,1.3,1.2,1.3c0.5,0,0.8-0.2,1-0.6l0.1,0c-0.2,0.4-0.6,0.6-1.1,0.6
		c-0.8,0-1.2-0.5-1.2-1.4s0.5-1.4,1.2-1.4C43.8,33.8,44.3,34.3,44.3,35.2L44.3,35.2z M42,35.1h2.2c0-0.8-0.4-1.3-1.1-1.3
		C42.4,33.8,42,34.3,42,35.1z"/>
	<path class="st2" d="M46.3,36.4c-0.1,0.1-0.3,0.2-0.5,0.2c-0.4,0-0.7-0.3-0.7-0.7v-2h-0.5v-0.1h0.5v-0.7l0.1,0v0.7h1v0.1h-1v2
		c0,0.4,0.2,0.7,0.6,0.7C45.9,36.5,46.1,36.4,46.3,36.4L46.3,36.4z"/>
	<path class="st2" d="M50.3,34.5L50.3,34.5c-0.2-0.4-0.6-0.7-1.1-0.7c-0.7,0-1.2,0.5-1.2,1.3c0,0.8,0.4,1.3,1.1,1.3
		c0.5,0,1-0.3,1-0.7l0.1,0c-0.1,0.5-0.6,0.8-1.1,0.8c-0.8,0-1.2-0.5-1.2-1.4c0-0.9,0.5-1.4,1.2-1.4C49.8,33.8,50.2,34,50.3,34.5z"/>
	<path class="st2" d="M52.4,33.9L52.4,33.9c-0.1,0-0.2-0.1-0.4-0.1c-0.5,0-0.9,0.5-0.9,1.1v1.6H51v-2.7h0.1v0.7
		c0.1-0.4,0.5-0.8,0.9-0.8C52.2,33.8,52.3,33.8,52.4,33.9z"/>
	<path class="st2" d="M55,33.8v2.7h-0.1v-0.7c-0.1,0.4-0.6,0.8-1.1,0.8c-0.6,0-0.9-0.3-0.9-1v-1.8h0.1v1.8c0,0.6,0.3,0.9,0.9,0.9
		c0.8,0,1.1-0.6,1.1-1L55,33.8L55,33.8z"/>
	<path class="st2" d="M58.2,34.7v1.8h-0.1L58.2,34.7c-0.1-0.6-0.5-0.9-1-0.9c-0.6,0-1.1,0.5-1.1,1.1v1.6h-0.1v-2.7H56v0.7
		c0.1-0.4,0.6-0.8,1.1-0.8C57.8,33.8,58.2,34.1,58.2,34.7z"/>
	<path class="st2" d="M61.2,34.5L61.2,34.5c-0.2-0.4-0.6-0.7-1.1-0.7c-0.7,0-1.2,0.5-1.2,1.3c0,0.8,0.4,1.3,1.1,1.3
		c0.5,0,1-0.3,1-0.7l0.1,0c-0.1,0.5-0.6,0.8-1.1,0.8c-0.8,0-1.2-0.5-1.2-1.4c0-0.9,0.5-1.4,1.2-1.4C60.7,33.8,61.1,34,61.2,34.5z"/>
	<path class="st2" d="M64.1,34.7v1.8H64L64.1,34.7c-0.1-0.6-0.5-0.9-1-0.9c-0.6,0-1.1,0.5-1.1,1.1v1.6h-0.1v-4H62v2
		c0.1-0.4,0.6-0.8,1.1-0.8C63.7,33.8,64.1,34.1,64.1,34.7z"/>
	<path class="st2" d="M69,35.2c0,0.9-0.5,1.4-1.2,1.4c-0.6,0-1-0.3-1.1-0.9v1.9h-0.1v-3.8h0.1v0.8c0.1-0.6,0.5-0.9,1.1-0.9
		C68.5,33.8,69,34.3,69,35.2z M68.9,35.2c0-0.8-0.4-1.3-1.2-1.3c-0.7,0-1.1,0.5-1.1,1.3v0c0,0.8,0.4,1.3,1.1,1.3
		C68.4,36.5,68.9,36,68.9,35.2z"/>
	<path class="st2" d="M71,33.9L71,33.9c-0.1,0-0.2-0.1-0.4-0.1c-0.5,0-0.9,0.5-0.9,1.1v1.6h-0.1v-2.7h0.1v0.7
		c0.1-0.4,0.5-0.8,0.9-0.8C70.9,33.8,71,33.8,71,33.9z"/>
	<path class="st2" d="M73.7,35.2c0,0.9-0.5,1.4-1.3,1.4s-1.3-0.5-1.3-1.4c0-0.9,0.5-1.4,1.3-1.4S73.7,34.3,73.7,35.2z M71.3,35.2
		c0,0.8,0.4,1.3,1.2,1.3s1.2-0.5,1.2-1.3c0-0.8-0.4-1.3-1.2-1.3S71.3,34.3,71.3,35.2z"/>
	<path class="st2" d="M76.4,33.8l-1.1,2.7h-0.1L74,33.8h0.1l1.1,2.6L76.4,33.8L76.4,33.8z"/>
	<path class="st2" d="M76.9,33.2c0-0.1,0-0.1,0.1-0.1s0.1,0,0.1,0.1s0,0.1-0.1,0.1S76.9,33.2,76.9,33.2z M77.1,36.5L77.1,36.5
		L77,33.8h0.1V36.5z"/>
	<path class="st2" d="M80.2,32.6v4h-0.1v-0.8c-0.1,0.6-0.5,0.9-1.1,0.9c-0.8,0-1.2-0.5-1.2-1.4s0.5-1.4,1.2-1.4c0.6,0,1,0.3,1.1,0.9
		L80.2,32.6L80.2,32.6z M80.1,35.2L80.1,35.2c0-0.9-0.4-1.4-1.1-1.4c-0.7,0-1.2,0.5-1.2,1.3c0,0.8,0.4,1.3,1.2,1.3
		C79.7,36.5,80.1,36,80.1,35.2z"/>
	<path class="st2" d="M83.3,35.2h-2.3c0,0.8,0.4,1.3,1.2,1.3c0.5,0,0.8-0.2,1-0.6l0.1,0c-0.2,0.4-0.6,0.6-1.1,0.6
		c-0.8,0-1.2-0.5-1.2-1.4s0.5-1.4,1.2-1.4C82.9,33.8,83.3,34.3,83.3,35.2L83.3,35.2z M81.1,35.1h2.2c0-0.8-0.4-1.3-1.1-1.3
		C81.5,33.8,81.1,34.3,81.1,35.1z"/>
	<path class="st2" d="M85.4,33.9L85.4,33.9c-0.1,0-0.2-0.1-0.4-0.1c-0.5,0-0.9,0.5-0.9,1.1v1.6H84v-2.7h0.1v0.7
		c0.1-0.4,0.5-0.8,0.9-0.8C85.2,33.8,85.3,33.8,85.4,33.9z"/>
</g>
<g>
	<polygon class="st3" points="10.5,29.3 10,29.3 10.2,24.9 14.9,24.4 16,28.6 15.6,28.7 14.5,24.9 10.7,25.4 	"/>
	<path class="st3" d="M10.3,31.8L10,29.1l6-0.7l0.3,2.7L10.3,31.8z M10.5,29.5l0.2,1.8l5-0.6L15.6,29L10.5,29.5z"/>
	<path class="st3" d="M14.8,30.5c-0.3,0-0.5-0.2-0.6-0.5c0-0.3,0.2-0.6,0.5-0.6h0c0.3,0,0.6,0.2,0.6,0.5c0,0.1,0,0.3-0.1,0.4
		C15.1,30.4,15,30.5,14.8,30.5C14.8,30.5,14.8,30.5,14.8,30.5z M14.8,29.9C14.8,29.9,14.7,29.9,14.8,29.9c0,0.1,0,0.1,0,0.1l0.3-0.1
		L14.8,29.9C14.8,29.9,14.8,29.9,14.8,29.9z"/>
	<path class="st3" d="M12.1,27.9c-0.3,0-0.5-0.2-0.5-0.5c0-0.1,0-0.3,0.1-0.4c0.1-0.1,0.1-0.2,0.2-0.2c0.1-0.4,0.5-0.7,0.8-0.8
		c0.5-0.1,0.9,0.2,1,0.6c0.1,0,0.1,0.1,0.2,0.1c0.1,0.1,0.2,0.2,0.2,0.4c0,0.3-0.2,0.6-0.5,0.6L12.1,27.9
		C12.2,27.9,12.1,27.9,12.1,27.9z M12.8,26.6C12.8,26.6,12.8,26.6,12.8,26.6c-0.3,0-0.5,0.3-0.5,0.5l0,0.2l-0.2,0
		c0,0-0.1,0.1-0.1,0.1l0.1,0.3l0-0.2l1.4-0.2l0.1-0.1c0,0,0-0.1-0.1-0.1l-0.2,0l0-0.3C13.2,26.7,13,26.6,12.8,26.6z"/>
</g>
</svg>
