<?xml version="1.0" encoding="utf-8"?>
<!-- Generator: Adobe Illustrator 21.0.0, SVG Export Plug-In . SVG Version: 6.00 Build 0)  -->
<svg version="1.1" id="Layer_1" xmlns="http://www.w3.org/2000/svg" xmlns:xlink="http://www.w3.org/1999/xlink" x="0px" y="0px"
	 viewBox="0 0 100 50" style="enable-background:new 0 0 100 50;" xml:space="preserve">
<style type="text/css">
	.st0{fill-rule:evenodd;clip-rule:evenodd;fill:#006837;}
	.st1{fill:#1A1A1A;}
	.st2{fill:#1A1A1A;stroke:#1A1A1A;stroke-width:0.25;stroke-miterlimit:10;}
	.st3{fill:#006837;}
</style>
<g>
	<path class="st0" d="M24.2,17.4C20,13.8,15,13,12.4,15.6c-0.8,0.8-1.3,1.9-1.5,3.2l0,0.3c-2.4,2.5-4.1,5.5-4.6,8.4
		c-0.1,0.7-0.2,1.4-0.2,2c0,1.7,0.4,3.2,1.2,4.5c-0.6,0.8-0.7,1.8-0.1,2.3c0.6,0.6,1.6,0.5,2.4-0.1c4,2.5,10.3,1.1,15-3.6l0.3,0
		c1.3-0.1,2.4-0.7,3.2-1.5c1-1,1.5-2.4,1.5-4c0-2.7-1.4-5.7-3.7-8.3c0.7-1,1.7-1.7,2.9-2c0.6-0.1,1-0.7,0.8-1.3
		c-0.1-0.6-0.7-1-1.3-0.8C26.6,15.2,25.2,16.1,24.2,17.4L24.2,17.4z M12.5,20.5c0,0,0.1-0.1,0.1-0.1c2.1,1,4.2,2.6,6.1,4.5
		c1.9,1.9,3.5,4,4.5,6.1c0,0-0.1,0.1-0.1,0.1c-4.4,4.4-10.3,5.6-13.2,2.7c-1.4-1.4-1.9-3.4-1.4-5.9C8.9,25.3,10.4,22.7,12.5,20.5
		L12.5,20.5z M13.9,17.1c1.9-1.9,6.4-0.6,9.8,2.8c2.3,2.3,3.7,5.1,3.7,7.3c0,0.7-0.2,1.7-0.9,2.4c-0.3,0.3-0.7,0.5-1.1,0.7
		c-1.1-2.4-2.9-4.8-5.1-7c-2.2-2.2-4.7-4-7-5.1C13.4,17.8,13.6,17.4,13.9,17.1L13.9,17.1z M13.9,17.1"/>
</g>
<g>
	<path class="st1" d="M51.6,15.5l-3,3.5c-1.4-2.1-3.1-3-5.8-3c-2.2,0-3.4,0.9-3.4,2.1c0,1.1,1,1.7,4.1,2.3c5.7,1,7.9,2.8,7.9,6.4
		c0,4.1-3.8,6.4-8.8,6.4c-4.9,0-7.5-1.3-9.5-3.5l2.8-3.8c1.7,2.4,3.7,3.1,6.4,3.1c2.3,0,3.5-0.7,3.5-1.9c0-0.9-1-1.5-4.1-2.1
		c-5.8-1.1-8-2.9-8-6.4c0-3.9,3.2-6.8,8.9-6.8C46.5,11.7,49.2,12.8,51.6,15.5z"/>
	<path class="st1" d="M64.1,33.1c-6.3,0-10.2-4-10.2-10.7S57.8,11.7,64,11.7c4.3,0,7.8,1.8,8.9,5.7l-4.7,1.9
		c-0.6-2.6-1.8-3.4-3.9-3.4c-3,0-4.8,2.2-4.8,6.4c0,4.2,1.7,6.4,4.7,6.4c2.3,0,3.6-1.1,4.1-3.4l4.9,1.4
		C71.9,31.2,68.5,33.1,64.1,33.1z"/>
	<path class="st1" d="M84.7,25.2h-3.2v7.6h-5.3V12.1H86c5,0,7.8,2.3,7.8,6.6c0,3-1.4,5.1-4.1,6l5.3,8.1h-6L84.7,25.2z M81.5,21.4
		h3.7c2.3,0,3.3-0.8,3.3-2.6c0-1.8-1-2.6-3.3-2.6h-3.7V21.4z"/>
</g>
<g>
	<path class="st2" d="M34.9,39.6l0.1-0.1c0.1,0.5,0.7,0.8,1.4,0.8c0.8,0,1.3-0.3,1.3-0.9c0-0.4-0.3-0.7-1.2-0.8
		c-1-0.2-1.4-0.4-1.4-1c0-0.6,0.6-1,1.3-1c0.7,0,1.2,0.3,1.3,0.9l-0.1,0.1c-0.1-0.6-0.6-0.9-1.2-0.9c-0.7,0-1.2,0.4-1.2,0.9
		c0,0.5,0.3,0.7,1.3,0.9c1,0.2,1.3,0.4,1.3,0.9c0,0.6-0.5,1-1.4,1C35.7,40.4,35.1,40.1,34.9,39.6z"/>
	<path class="st2" d="M41.9,40.3l0,0.1c-0.1,0-0.1,0.1-0.3,0.1c-0.2,0-0.5-0.1-0.5-0.7v-0.1c-0.2,0.5-0.9,0.8-1.5,0.8
		c-0.7,0-1.1-0.3-1.1-0.9c0-0.6,0.4-0.9,1.3-1l1.3-0.2v-0.4c0-0.7-0.4-1.1-1.1-1.1c-0.7,0-1.1,0.2-1.3,0.9l-0.1-0.1
		c0.2-0.6,0.7-0.9,1.4-0.9c0.8,0,1.3,0.4,1.3,1.2v2c0,0.4,0.2,0.5,0.4,0.5C41.7,40.3,41.8,40.3,41.9,40.3z M41.1,39.3v-0.9l-1.2,0.2
		c-0.9,0.2-1.3,0.5-1.3,1c0,0.5,0.4,0.8,1,0.8C40.2,40.3,41.1,40,41.1,39.3z"/>
	<path class="st2" d="M42.7,36.1v0.6h1.3v0.1h-1.3v3.5h-0.1v-3.5h-0.7v-0.1h0.7v-0.6c0-0.7,0.4-1.1,1-1.1c0.3,0,0.4,0.1,0.6,0.2
		l-0.1,0.1c-0.1-0.2-0.3-0.2-0.5-0.2C43,35.1,42.7,35.5,42.7,36.1z"/>
	<path class="st2" d="M47.4,38.6h-3c0,1.1,0.6,1.7,1.5,1.7c0.6,0,1.1-0.3,1.4-0.8l0.1,0.1c-0.3,0.5-0.8,0.9-1.5,0.9
		c-1,0-1.7-0.7-1.7-1.9c0-1.2,0.6-1.9,1.6-1.9C46.8,36.7,47.4,37.4,47.4,38.6L47.4,38.6z M44.4,38.5h2.9c0-1.1-0.5-1.8-1.4-1.8
		C45,36.8,44.4,37.4,44.4,38.5z"/>
	<path class="st2" d="M53.3,37.7l-0.1,0.1c-0.2-0.6-0.6-0.9-1.3-0.9c-1,0-1.5,0.7-1.5,1.8c0,1.1,0.5,1.8,1.5,1.8
		c0.7,0,1.3-0.4,1.4-1l0.1,0c-0.1,0.7-0.7,1.1-1.5,1.1c-1,0-1.6-0.7-1.6-1.9c0-1.2,0.6-1.9,1.7-1.9C52.5,36.7,53.1,37,53.3,37.7z"/>
	<path class="st2" d="M56,36.8L56,36.8c-0.2,0-0.3-0.1-0.5-0.1c-0.7,0-1.2,0.7-1.2,1.5v2.1h-0.1v-3.6h0.1v0.9c0.2-0.6,0.6-1,1.2-1
		C55.8,36.7,55.9,36.7,56,36.8z"/>
	<path class="st2" d="M59.5,36.7v3.6h-0.1v-1c-0.2,0.6-0.7,1-1.5,1c-0.8,0-1.3-0.5-1.3-1.3v-2.4h0.1v2.4c0,0.8,0.4,1.2,1.2,1.2
		c1,0,1.5-0.9,1.5-1.4v-2.2H59.5z"/>
	<path class="st2" d="M63.7,38v2.4h-0.1V38c0-0.8-0.5-1.2-1.3-1.2c-0.8,0-1.5,0.7-1.5,1.4v2.2h-0.1v-3.6h0.1v1c0.2-0.6,0.7-1,1.5-1
		C63.2,36.7,63.7,37.1,63.7,38z"/>
	<path class="st2" d="M67.8,37.7l-0.1,0.1c-0.2-0.6-0.6-0.9-1.3-0.9c-1,0-1.5,0.7-1.5,1.8c0,1.1,0.5,1.8,1.5,1.8
		c0.7,0,1.3-0.4,1.4-1l0.1,0c-0.1,0.7-0.7,1.1-1.5,1.1c-1,0-1.6-0.7-1.6-1.9c0-1.2,0.6-1.9,1.7-1.9C67,36.7,67.6,37,67.8,37.7z"/>
	<path class="st2" d="M71.7,38v2.4h-0.1V38c0-0.8-0.5-1.2-1.3-1.2c-0.8,0-1.5,0.7-1.5,1.4v2.2h-0.1v-5.3h0.1v2.6
		c0.2-0.6,0.7-1,1.5-1C71.1,36.7,71.7,37.1,71.7,38z"/>
</g>
<g>
	<path class="st3" d="M16.8,30.2c-0.7,0-1.3-0.4-1.7-1c-0.5-0.9-0.1-2.1,0.8-2.6h0c0.9-0.5,2.1-0.1,2.6,0.8c0.5,0.9,0.1,2.1-0.8,2.6
		C17.4,30.1,17.1,30.2,16.8,30.2z M16.4,27.5c-0.4,0.2-0.6,0.8-0.4,1.2c0.2,0.4,0.8,0.6,1.2,0.4c0.4-0.2,0.6-0.8,0.4-1.2
		C17.3,27.4,16.8,27.3,16.4,27.5L16.4,27.5z"/>
	<rect x="11.3" y="29.5" transform="matrix(0.8812 -0.4728 0.4728 0.8812 -12.5869 9.9558)" class="st3" width="4.4" height="1"/>
	<rect x="12" y="30.7" transform="matrix(0.8812 -0.4727 0.4727 0.8812 -13.2859 9.5989)" class="st3" width="1" height="1.2"/>
	<rect x="12.7" y="30.2" transform="matrix(0.8811 -0.4729 0.4729 0.8811 -12.9038 9.8631)" class="st3" width="1" height="0.7"/>
</g>
</svg>
