<?xml version="1.0" encoding="utf-8"?>
<!-- Generator: Adobe Illustrator 21.0.0, SVG Export Plug-In . SVG Version: 6.00 Build 0)  -->
<svg version="1.1" xmlns="http://www.w3.org/2000/svg" xmlns:xlink="http://www.w3.org/1999/xlink" x="0px" y="0px"
	 viewBox="0 0 100 50" style="enable-background:new 0 0 100 50;" xml:space="preserve">
<style type="text/css">
	.st0{fill:#1A1A1A;}
	.st1{stroke:#000000;stroke-width:0.25;stroke-miterlimit:10;}
	.st2{fill:#66BB6A;}
</style>
<g id="Layer_1">
	<g>
		<path class="st0" d="M50.9,15.6l-3.1,3.5c-1.4-2.1-3.1-3.1-5.8-3.1c-2.2,0-3.4,0.9-3.4,2.1c0,1.1,1,1.7,4.2,2.3
			c5.7,1,7.9,2.8,7.9,6.5c0,4.1-3.8,6.4-8.8,6.4c-4.9,0-7.5-1.3-9.5-3.5l2.8-3.8c1.7,2.4,3.7,3.1,6.5,3.1c2.3,0,3.5-0.7,3.5-1.9
			c0-0.9-1-1.5-4.1-2.1C35.3,24,33,22.2,33,18.6c0-3.9,3.2-6.8,8.9-6.8C45.9,11.9,48.5,12.9,50.9,15.6z"/>
		<path class="st0" d="M73.6,22.6c0,6.7-3.8,10.7-10.2,10.7c-6.3,0-10.2-4-10.2-10.7c0-6.7,3.9-10.7,10.2-10.7
			C69.7,11.9,73.6,15.9,73.6,22.6z M58.8,22.6c0,4.2,1.6,6.5,4.7,6.5c3,0,4.6-2.2,4.6-6.5s-1.6-6.5-4.6-6.5
			C60.4,16.1,58.8,18.3,58.8,22.6z"/>
	</g>
	<g>
		<path class="st1" d="M37.8,38.7c0,1.2-0.6,1.9-1.7,1.9c-0.7,0-1.3-0.4-1.5-1.1v2.6h-0.1v-5.1h0.1V38c0.2-0.7,0.7-1.2,1.5-1.2
			C37.2,36.8,37.8,37.5,37.8,38.7z M37.7,38.7c0-1.1-0.6-1.8-1.6-1.8c-0.9,0-1.5,0.7-1.5,1.8v0.1c0,1.1,0.6,1.8,1.5,1.8
			C37.1,40.5,37.7,39.9,37.7,38.7z"/>
		<path class="st1" d="M41.9,40.4l0,0.1c-0.1,0-0.1,0.1-0.3,0.1c-0.2,0-0.5-0.1-0.5-0.7v-0.1c-0.2,0.5-0.9,0.8-1.5,0.8
			c-0.7,0-1.1-0.3-1.1-0.9c0-0.6,0.4-0.9,1.3-1.1l1.3-0.2V38c0-0.7-0.4-1.1-1.2-1.1c-0.7,0-1.1,0.2-1.3,0.9l-0.1-0.1
			c0.2-0.6,0.7-0.9,1.4-0.9c0.8,0,1.3,0.4,1.3,1.2v2c0,0.4,0.2,0.5,0.4,0.5C41.8,40.5,41.9,40.5,41.9,40.4z M41.2,39.4v-0.9L40,38.8
			c-0.9,0.2-1.3,0.5-1.3,1c0,0.5,0.4,0.8,1.1,0.8C40.3,40.5,41.2,40.2,41.2,39.4z"/>
		<path class="st1" d="M45.5,41.1c0,0.6-0.7,1-1.7,1c-1,0-1.7-0.4-1.7-1c0-0.4,0.3-0.7,0.8-0.8c-0.4-0.1-0.6-0.3-0.6-0.6
			c0-0.4,0.3-0.6,0.8-0.7c-0.5-0.2-0.8-0.5-0.8-1c0-0.7,0.6-1.1,1.4-1.1c0.3,0,0.6,0.1,0.9,0.2c0-0.5,0.3-0.8,0.8-0.8l0,0.1
			c-0.5,0-0.7,0.3-0.8,0.8c0.3,0.2,0.4,0.5,0.4,0.9c0,0.7-0.6,1.1-1.4,1.1c-0.2,0-0.3,0-0.4,0c-0.5,0-0.9,0.3-0.9,0.6
			s0.3,0.6,0.9,0.6h0.9C45.1,40.3,45.5,40.6,45.5,41.1z M45.4,41.1c0-0.4-0.4-0.7-1.1-0.7h-0.9c-0.6,0-1.1,0.3-1.1,0.7
			c0,0.5,0.6,0.9,1.6,0.9C44.7,42,45.4,41.6,45.4,41.1z M43.8,39c0.8,0,1.3-0.4,1.3-1s-0.5-1-1.3-1c-0.8,0-1.3,0.4-1.3,1
			S43,39,43.8,39z"/>
		<path class="st1" d="M49.1,38.8h-3c0,1.1,0.6,1.7,1.5,1.7c0.6,0,1.1-0.3,1.4-0.8l0.1,0.1c-0.3,0.5-0.8,0.9-1.5,0.9
			c-1,0-1.7-0.7-1.7-1.9c0-1.2,0.6-1.9,1.6-1.9C48.5,36.8,49.1,37.6,49.1,38.8L49.1,38.8z M46,38.7H49c0-1.1-0.5-1.8-1.4-1.8
			C46.6,36.9,46,37.6,46,38.7z"/>
		<path class="st1" d="M54.9,37.8l-0.1,0.1c-0.2-0.6-0.6-0.9-1.3-0.9c-1,0-1.6,0.7-1.6,1.8c0,1.1,0.6,1.8,1.5,1.8
			c0.7,0,1.3-0.4,1.4-1l0.1,0c-0.1,0.7-0.7,1.1-1.5,1.1c-1.1,0-1.6-0.7-1.6-1.9c0-1.2,0.6-1.9,1.7-1.9
			C54.2,36.8,54.7,37.2,54.9,37.8z"/>
		<path class="st1" d="M57.7,37L57.7,37c-0.2,0-0.3-0.1-0.5-0.1c-0.7,0-1.2,0.7-1.2,1.5v2.1h-0.1v-3.6H56v0.9c0.2-0.6,0.6-1,1.2-1
			C57.4,36.8,57.6,36.9,57.7,37z"/>
		<path class="st1" d="M61.2,36.9v3.6h-0.1v-1c-0.2,0.6-0.7,1-1.5,1c-0.8,0-1.3-0.5-1.3-1.3v-2.4h0.1v2.4c0,0.8,0.4,1.2,1.2,1.2
			c1,0,1.5-0.9,1.5-1.4v-2.2H61.2z"/>
		<path class="st1" d="M65.4,38.2v2.4h-0.1v-2.4c0-0.8-0.5-1.2-1.3-1.2c-0.8,0-1.5,0.7-1.5,1.4v2.2h-0.1v-3.6h0.1v1
			c0.2-0.6,0.7-1,1.5-1C64.9,36.8,65.4,37.3,65.4,38.2z"/>
		<path class="st1" d="M69.4,37.8l-0.1,0.1c-0.2-0.6-0.6-0.9-1.3-0.9c-1,0-1.6,0.7-1.6,1.8c0,1.1,0.6,1.8,1.5,1.8
			c0.7,0,1.3-0.4,1.4-1l0.1,0c-0.1,0.7-0.7,1.1-1.5,1.1c-1.1,0-1.6-0.7-1.6-1.9c0-1.2,0.6-1.9,1.7-1.9
			C68.7,36.8,69.3,37.2,69.4,37.8z"/>
		<path class="st1" d="M73.4,38.2v2.4h-0.1v-2.4c0-0.8-0.5-1.2-1.3-1.2c-0.8,0-1.5,0.7-1.5,1.4v2.2h-0.1v-5.3h0.1v2.6
			c0.2-0.6,0.7-1,1.5-1C72.9,36.8,73.4,37.3,73.4,38.2z"/>
	</g>
	<g>
		<path class="st2" d="M25.1,19.1c0.7-1,1.7-1.7,2.9-2c0.6-0.1,1-0.7,0.8-1.3c-0.1-0.6-0.7-1-1.3-0.8c-1.6,0.4-3,1.3-4,2.6
			c-4.2-3.6-9.3-4.5-11.9-1.9c-0.8,0.8-1.3,1.9-1.5,3.2l0,0.3c-2.4,2.5-4.1,5.5-4.6,8.5c-0.1,0.7-0.2,1.4-0.2,2
			c0,1.7,0.4,3.3,1.2,4.5C5.9,35,5.9,36,6.5,36.6c0.6,0.6,1.6,0.5,2.4-0.1c4,2.5,10.3,1.1,15-3.6l0.3,0c1.3-0.1,2.4-0.7,3.2-1.5
			c1-1,1.5-2.4,1.5-4C28.8,24.7,27.4,21.7,25.1,19.1z M10.5,28.8h2.2v-2.2h4.8v8c-2.6,1.1-5.1,1.2-7,0.3V28.8z M10.7,28.5l1.7-1.7
			v1.7H10.7z M22.4,31.2c-1.4,1.4-3,2.5-4.6,3.2v-8.2h-5.3l-2.3,2.3v6.1c-0.4-0.2-0.7-0.5-1-0.8c-1.4-1.4-1.9-3.5-1.4-5.9
			c0.5-2.6,1.9-5.2,4.1-7.4c0,0,0.1-0.1,0.1-0.1c2.1,1,4.2,2.6,6.1,4.5c1.9,1.9,3.5,4.1,4.5,6.1C22.5,31.2,22.4,31.2,22.4,31.2z
			 M25.8,29.9c-0.3,0.3-0.7,0.5-1.1,0.7c-1.1-2.4-2.9-4.9-5.1-7.1c-2.2-2.2-4.7-4-7.1-5.1c0.1-0.4,0.4-0.8,0.7-1.1
			c1.9-1.9,6.4-0.6,9.8,2.8c2.3,2.3,3.7,5.1,3.7,7.3C26.6,28.1,26.5,29.1,25.8,29.9z"/>
		<rect x="14" y="28.3" class="st2" width="2.2" height="0.3"/>
		<rect x="11.7" y="29.9" class="st2" width="4.5" height="0.3"/>
		<rect x="11.7" y="31.5" class="st2" width="4.5" height="0.3"/>
		<rect x="11.7" y="33.1" class="st2" width="4.5" height="0.3"/>
		<rect x="11.7" y="34.7" class="st2" width="4.5" height="0.3"/>
	</g>
</g>
<g id="Layer_2">
</g>
</svg>
