<?xml version="1.0" encoding="utf-8"?>
<!-- Generator: Adobe Illustrator 21.0.0, SVG Export Plug-In . SVG Version: 6.00 Build 0)  -->
<svg version="1.1" xmlns="http://www.w3.org/2000/svg" xmlns:xlink="http://www.w3.org/1999/xlink" x="0px" y="0px"
	 viewBox="0 0 100 50" style="enable-background:new 0 0 100 50;" xml:space="preserve">
<style type="text/css">
	.st0{fill-rule:evenodd;clip-rule:evenodd;fill:#D32F2F;}
	.st1{fill:#1A1A1A;}
	.st2{stroke:#000000;stroke-width:0.25;stroke-miterlimit:10;}
	.st3{fill:#D32F2F;}
</style>
<g id="Layer_1">
	<g>
		<path class="st0" d="M22,17.3c-4-3.4-8.8-4.3-11.3-1.8c-0.8,0.8-1.3,1.8-1.4,3.1l0,0.3c-2.3,2.4-3.9,5.2-4.4,8.1
			c-0.1,0.7-0.2,1.3-0.2,2c0,1.6,0.4,3.1,1.2,4.3c-0.6,0.7-0.6,1.7-0.1,2.2C6.3,36,7.3,35.9,8,35.3c3.8,2.4,9.8,1,14.3-3.4l0.3,0
			c1.2-0.1,2.3-0.6,3.1-1.4c0.9-0.9,1.4-2.3,1.4-3.8c0-2.5-1.3-5.4-3.6-7.9c0.6-1,1.6-1.7,2.8-1.9c0.6-0.1,0.9-0.7,0.8-1.3
			c-0.1-0.6-0.7-0.9-1.3-0.8C24.3,15.2,22.9,16.1,22,17.3L22,17.3z M10.8,20.2c0,0,0.1-0.1,0.1-0.1c2,1,4,2.4,5.8,4.3
			c1.8,1.8,3.3,3.9,4.3,5.8c0,0-0.1,0.1-0.1,0.1c-4.2,4.2-9.9,5.3-12.7,2.5c-1.3-1.3-1.8-3.3-1.4-5.6C7.3,24.8,8.7,22.3,10.8,20.2
			L10.8,20.2z M12.2,17c1.8-1.8,6.1-0.6,9.3,2.7c2.2,2.2,3.5,4.8,3.5,7c0,0.7-0.1,1.6-0.8,2.3c-0.3,0.3-0.6,0.5-1.1,0.6
			c-1.1-2.3-2.8-4.6-4.8-6.7c-2.1-2.1-4.5-3.8-6.7-4.8C11.7,17.7,11.9,17.3,12.2,17L12.2,17z M12.2,17"/>
	</g>
	<g>
		<path class="st1" d="M48.1,17.4l-2.9,3.4c-1.3-2-3-2.9-5.5-2.9c-2.1,0-3.2,0.8-3.2,2c0,1,0.9,1.6,4,2.2c5.4,0.9,7.6,2.7,7.6,6.2
			c0,3.9-3.6,6.1-8.4,6.1c-4.7,0-7.1-1.2-9.1-3.4l2.7-3.6c1.6,2.3,3.5,3,6.2,3c2.2,0,3.3-0.7,3.3-1.8c0-0.9-0.9-1.4-3.9-2
			c-5.6-1-7.7-2.8-7.7-6.2c0-3.7,3.1-6.5,8.5-6.5C43.3,13.9,45.8,14.9,48.1,17.4z"/>
		<path class="st1" d="M69.8,24.1c0,6.4-3.7,10.2-9.7,10.2c-6,0-9.7-3.8-9.7-10.2s3.7-10.2,9.7-10.2C66.1,13.9,69.8,17.7,69.8,24.1z
			 M55.6,24.1c0,4.1,1.6,6.2,4.4,6.2c2.9,0,4.4-2.1,4.4-6.2c0-4.1-1.6-6.2-4.4-6.2C57.2,17.9,55.6,20,55.6,24.1z"/>
		<path class="st1" d="M72.9,30.7c6.8-4.2,9.5-7.3,9.5-10.1c0-1.5-0.9-2.7-2.7-2.7c-1.9,0-3,1.4-3,4.1l-4.4-1.4
			c0.1-4.4,3.3-6.8,7.8-6.8c5.3,0,7.5,3.3,7.5,6.4c0,3.9-3,6.8-8.4,9.9v0c1-0.1,2.7-0.1,4-0.1h4.7V34H72.9V30.7z"/>
	</g>
	<g>
		<path class="st2" d="M33.6,39.2l-0.9,0.8v1.1h-0.1v-5h0.1v3.8l2.4-2.2h0.2L33.6,39.2l1.6,2h-0.1L33.6,39.2z"/>
		<path class="st2" d="M38.5,39.6h-2.9c0,1,0.6,1.6,1.5,1.6c0.6,0,1.1-0.3,1.3-0.8l0.1,0c-0.2,0.5-0.8,0.8-1.4,0.8
			c-1,0-1.6-0.7-1.6-1.8c0-1.1,0.6-1.8,1.5-1.8C38,37.7,38.5,38.4,38.5,39.6L38.5,39.6z M35.6,39.5h2.8c0-1-0.5-1.7-1.4-1.7
			C36.2,37.8,35.6,38.4,35.6,39.5z"/>
		<path class="st2" d="M41.2,37.9L41.2,37.9c-0.2,0-0.2-0.1-0.5-0.1c-0.6,0-1.1,0.7-1.1,1.4v2h-0.1v-3.5h0.1v0.9
			c0.2-0.5,0.6-1,1.1-1C40.9,37.7,41.1,37.8,41.2,37.9z"/>
		<path class="st2" d="M44.7,38.9v2.3h-0.1V39c0-0.7-0.5-1.2-1.2-1.2c-0.8,0-1.4,0.6-1.4,1.3v2.1h-0.1v-3.5h0.1v0.9
			c0.2-0.6,0.7-1,1.4-1C44.2,37.7,44.7,38.1,44.7,38.9z"/>
		<path class="st2" d="M48.6,39.6h-2.9c0,1,0.6,1.6,1.5,1.6c0.6,0,1.1-0.3,1.3-0.8l0.1,0c-0.2,0.5-0.8,0.8-1.4,0.8
			c-1,0-1.6-0.7-1.6-1.8c0-1.1,0.6-1.8,1.5-1.8C48,37.7,48.6,38.4,48.6,39.6L48.6,39.6z M45.7,39.5h2.8c0-1-0.5-1.7-1.4-1.7
			C46.2,37.8,45.7,38.4,45.7,39.5z"/>
		<path class="st2" d="M49.6,40.5c0,0.5,0.2,0.7,0.5,0.7c0.2,0,0.3,0,0.4-0.1v0.1c-0.1,0-0.2,0.1-0.4,0.1c-0.4,0-0.6-0.2-0.6-0.8
			v-4.3h0.1V40.5z"/>
		<path class="st2" d="M55.6,38.6L55.6,38.6c-0.2-0.5-0.7-0.9-1.4-0.9c-0.9,0-1.5,0.6-1.5,1.7c0,1.1,0.5,1.7,1.5,1.7
			c0.6,0,1.2-0.4,1.3-1l0.1,0c-0.1,0.6-0.7,1-1.4,1c-1,0-1.6-0.7-1.6-1.8c0-1.1,0.6-1.8,1.6-1.8C54.9,37.7,55.4,38,55.6,38.6z"/>
		<path class="st2" d="M58.2,37.9L58.2,37.9c-0.2,0-0.2-0.1-0.5-0.1c-0.6,0-1.1,0.7-1.1,1.4v2h-0.1v-3.5h0.1v0.9
			c0.2-0.5,0.6-1,1.1-1C58,37.7,58.1,37.8,58.2,37.9z"/>
		<path class="st2" d="M61.6,37.8v3.5h-0.1v-0.9c-0.2,0.6-0.7,1-1.4,1c-0.8,0-1.2-0.4-1.2-1.2v-2.3h0.1V40c0,0.7,0.4,1.1,1.1,1.1
			c1,0,1.4-0.8,1.4-1.3v-2.1H61.6z"/>
		<path class="st2" d="M65.6,38.9v2.3h-0.1V39c0-0.7-0.5-1.2-1.2-1.2c-0.8,0-1.4,0.6-1.4,1.3v2.1h-0.1v-3.5h0.1v0.9
			c0.2-0.6,0.7-1,1.4-1C65.1,37.7,65.6,38.1,65.6,38.9z"/>
		<path class="st2" d="M69.4,38.6L69.4,38.6c-0.2-0.5-0.7-0.9-1.4-0.9c-0.9,0-1.5,0.6-1.5,1.7c0,1.1,0.5,1.7,1.5,1.7
			c0.6,0,1.2-0.4,1.3-1l0.1,0c-0.1,0.6-0.7,1-1.4,1c-1,0-1.6-0.7-1.6-1.8c0-1.1,0.6-1.8,1.6-1.8C68.8,37.7,69.3,38,69.4,38.6z"/>
		<path class="st2" d="M73.2,38.9v2.3h-0.1v-2.3c0-0.7-0.5-1.2-1.2-1.2c-0.8,0-1.4,0.6-1.4,1.3v2.1h-0.1v-5h0.1v2.5
			c0.2-0.6,0.7-1,1.4-1C72.7,37.7,73.2,38.1,73.2,38.9z"/>
	</g>
	<g>
		<path class="st3" d="M11.7,30.2c-0.3-0.3-0.5-0.5-0.6-0.5c0,0-0.1,0-0.1,0c0,0-0.3,0.1-0.6,0.5c-0.2,0.3-0.5,0.8-0.5,1.6
			c0,0.5,0.1,0.8,0.4,1c0.2,0.2,0.6,0.2,0.8,0.2c0.3,0,0.6,0,0.8-0.2c0.2-0.2,0.4-0.5,0.4-1C12.2,31.1,11.9,30.5,11.7,30.2
			L11.7,30.2z M11.7,32.5c-0.1,0.1-0.3,0.1-0.6,0.1c-0.3,0-0.5,0-0.6-0.1c-0.2-0.1-0.2-0.4-0.2-0.7c0-0.5,0.2-1,0.5-1.4
			c0.1-0.2,0.3-0.3,0.4-0.4c0.1,0.1,0.2,0.2,0.4,0.4c0.3,0.4,0.5,0.8,0.5,1.4C11.9,32.2,11.8,32.4,11.7,32.5L11.7,32.5z M11.7,32.5"
			/>
		<path class="st3" d="M12.4,27.5c0,0-0.1-0.3-0.5-0.6c-0.3-0.2-0.8-0.5-1.6-0.5c-0.5,0-0.8,0.1-1,0.4c-0.2,0.2-0.2,0.6-0.2,0.8
			c0,0.3,0,0.6,0.2,0.8c0.2,0.2,0.5,0.4,1,0.4c0.8,0,1.3-0.3,1.6-0.5c0.3-0.3,0.5-0.5,0.5-0.6C12.4,27.6,12.4,27.5,12.4,27.5
			L12.4,27.5z M11.7,28c-0.4,0.3-0.8,0.5-1.4,0.5c-0.3,0-0.6-0.1-0.7-0.2c-0.1-0.1-0.1-0.3-0.1-0.6c0-0.3,0-0.5,0.1-0.6
			c0.1-0.2,0.4-0.2,0.7-0.2c0.5,0,1,0.2,1.4,0.5c0.2,0.1,0.3,0.3,0.4,0.4C12,27.7,11.9,27.8,11.7,28L11.7,28z M11.7,28"/>
		<path class="st3" d="M16,26.6c0-0.4-0.2-1-0.7-1.5c-0.3-0.3-0.6-0.5-0.9-0.4c-0.3,0-0.6,0.2-0.7,0.4c-0.2,0.2-0.4,0.4-0.4,0.7
			c0,0.3,0.1,0.6,0.4,0.9c0.6,0.6,1.1,0.7,1.5,0.7c0.1,0,0.1,0,0.2,0c0.3,0,0.5-0.1,0.5-0.1c0,0,0.1-0.1,0.1-0.1
			C15.9,27.3,16,27,16,26.6L16,26.6z M15.6,27.1c-0.1,0-0.3,0-0.5,0c-0.5,0-0.9-0.3-1.3-0.7c-0.2-0.2-0.4-0.5-0.3-0.7
			c0-0.2,0.1-0.3,0.3-0.5c0.2-0.2,0.4-0.3,0.5-0.3c0,0,0,0,0.1,0c0.2,0,0.4,0.1,0.6,0.3c0.4,0.4,0.6,0.8,0.7,1.3
			C15.7,26.8,15.7,27,15.6,27.1L15.6,27.1z M15.6,27.1"/>
		<path class="st3" d="M15.3,29.4c-0.6-0.6-1.1-0.7-1.5-0.7c-0.4,0-0.7,0.1-0.7,0.1c0,0-0.1,0.1-0.1,0.1c0,0-0.1,0.3-0.1,0.7
			c0,0.4,0.2,1,0.7,1.5c0.3,0.3,0.6,0.4,0.8,0.4c0,0,0.1,0,0.1,0c0.3,0,0.6-0.2,0.7-0.4c0.2-0.2,0.4-0.4,0.4-0.7
			C15.8,30,15.6,29.7,15.3,29.4L15.3,29.4z M15.4,30.3c0,0.2-0.1,0.3-0.3,0.5c-0.2,0.2-0.4,0.3-0.5,0.3c-0.2,0-0.4-0.1-0.7-0.3
			c-0.4-0.4-0.6-0.8-0.7-1.3c0-0.2,0-0.4,0-0.5c0.3-0.1,1.1-0.1,1.8,0.6C15.3,29.8,15.4,30.1,15.4,30.3L15.4,30.3z M15.4,30.3"/>
		<path class="st3" d="M14.3,30.5C14.2,30.5,14.2,30.4,14.3,30.5c-0.1-0.1-0.2-0.1-0.3,0c-0.1,0.1-0.1,0.2,0,0.2c0,0,0,0,0,0
			c0,0,0.1,0,0.1,0c0,0,0.1,0,0.1-0.1C14.3,30.6,14.3,30.5,14.3,30.5L14.3,30.5z M14.3,30.5"/>
		<path class="st3" d="M15,30.4c-0.1-0.1-0.2-0.1-0.2,0c-0.1,0.1-0.1,0.1-0.2,0.1c-0.1,0-0.1,0.1-0.1,0.2c0,0.1,0.1,0.1,0.2,0.1
			c0,0,0,0,0,0c0.1,0,0.3-0.1,0.3-0.2C15,30.6,15,30.5,15,30.4L15,30.4z M15,30.4"/>
	</g>
</g>
<g id="Layer_2">
</g>
</svg>
