<?xml version="1.0" encoding="utf-8"?>
<!-- Generator: Adobe Illustrator 21.0.0, SVG Export Plug-In . SVG Version: 6.00 Build 0)  -->
<svg version="1.1" id="Layer_1" xmlns="http://www.w3.org/2000/svg" xmlns:xlink="http://www.w3.org/1999/xlink" x="0px" y="0px"
	 viewBox="0 0 100 50" style="enable-background:new 0 0 100 50;" xml:space="preserve">
<style type="text/css">
	.st0{fill:#1A1A1A;}
	.st1{stroke:#000000;stroke-width:0.25;stroke-miterlimit:10;}
	.st2{fill-rule:evenodd;clip-rule:evenodd;fill:#754C24;}
</style>
<g>
	<path class="st0" d="M51.7,15.8l-2.9,3.4c-1.3-2-3-2.9-5.6-2.9c-2.2,0-3.3,0.8-3.3,2c0,1,0.9,1.6,4,2.2c5.5,0.9,7.6,2.7,7.6,6.2
		c0,3.9-3.6,6.1-8.5,6.1c-4.7,0-7.2-1.2-9.2-3.4l2.7-3.7c1.6,2.3,3.5,3,6.2,3c2.2,0,3.3-0.7,3.3-1.8c0-0.9-0.9-1.4-3.9-2
		c-5.6-1-7.8-2.8-7.8-6.2c0-3.8,3.1-6.5,8.6-6.5C46.8,12.2,49.4,13.2,51.7,15.8z"/>
	<path class="st0" d="M73.5,22.5c0,6.5-3.7,10.3-9.8,10.3s-9.8-3.8-9.8-10.3c0-6.5,3.7-10.3,9.8-10.3S73.5,16.1,73.5,22.5z
		 M59.2,22.5c0,4.1,1.6,6.2,4.5,6.2c2.9,0,4.5-2.1,4.5-6.2c0-4.1-1.6-6.2-4.5-6.2C60.8,16.3,59.2,18.4,59.2,22.5z"/>
	<path class="st0" d="M87.8,28h-6.9l-1.4,4.5h-5.2l7-20h6.2l7,20h-5.4L87.8,28z M86.7,24.4l-1.5-4.8l-0.9-3.1h-0.1l-0.8,3.1L82,24.4
		H86.7z"/>
</g>
<g>
	<path class="st1" d="M39.1,38.1c0,1.1-0.6,1.8-1.6,1.8c-0.7,0-1.2-0.4-1.4-1.1v2.5H36v-5h0.1v1c0.2-0.7,0.7-1.1,1.4-1.1
		C38.5,36.3,39.1,36.9,39.1,38.1z M39,38.1c0-1.1-0.6-1.7-1.5-1.7c-0.8,0-1.4,0.6-1.4,1.7v0c0,1.1,0.6,1.7,1.4,1.7
		C38.4,39.8,39,39.2,39,38.1z"/>
	<path class="st1" d="M43.1,39.7L43.1,39.7c-0.1,0.1-0.1,0.2-0.3,0.2c-0.2,0-0.5-0.1-0.5-0.6v-0.1c-0.2,0.5-0.9,0.7-1.4,0.7
		c-0.7,0-1.1-0.3-1.1-0.8c0-0.6,0.4-0.8,1.3-1l1.2-0.2v-0.4c0-0.6-0.4-1-1.1-1c-0.6,0-1,0.2-1.2,0.8l-0.1-0.1
		c0.2-0.6,0.6-0.9,1.3-0.9c0.8,0,1.2,0.4,1.2,1.1v1.9c0,0.3,0.2,0.5,0.4,0.5C42.9,39.8,43,39.8,43.1,39.7z M42.3,38.8v-0.8l-1.2,0.2
		c-0.9,0.2-1.2,0.5-1.2,0.9c0,0.5,0.4,0.7,1,0.7C41.5,39.8,42.3,39.5,42.3,38.8z"/>
	<path class="st1" d="M46.8,38.1c0,1.1-0.6,1.8-1.6,1.8c-0.7,0-1.2-0.4-1.4-1.1v2.5h-0.1v-5h0.1v1c0.2-0.7,0.7-1.1,1.4-1.1
		C46.2,36.3,46.8,36.9,46.8,38.1z M46.7,38.1c0-1.1-0.6-1.7-1.5-1.7c-0.8,0-1.4,0.6-1.4,1.7v0c0,1.1,0.6,1.7,1.4,1.7
		C46.1,39.8,46.7,39.2,46.7,38.1z"/>
	<path class="st1" d="M50.5,38.1h-2.9c0,1,0.6,1.6,1.5,1.6c0.6,0,1.1-0.3,1.3-0.8l0.1,0c-0.2,0.5-0.8,0.8-1.4,0.8
		c-1,0-1.6-0.7-1.6-1.8s0.6-1.8,1.6-1.8C50,36.3,50.5,37,50.5,38.1L50.5,38.1z M47.6,38h2.8c0-1.1-0.5-1.7-1.4-1.7
		C48.2,36.4,47.6,37,47.6,38z"/>
	<path class="st1" d="M53.2,36.4L53.2,36.4c-0.2,0-0.3-0.1-0.5-0.1c-0.6,0-1.1,0.7-1.1,1.4v2h-0.1v-3.5h0.1v0.9c0.2-0.5,0.6-1,1.1-1
		C53,36.3,53.1,36.3,53.2,36.4z"/>
	<path class="st1" d="M58.4,37.2L58.4,37.2c-0.3-0.5-0.7-0.9-1.4-0.9c-0.9,0-1.5,0.6-1.5,1.7c0,1.1,0.5,1.7,1.5,1.7
		c0.6,0,1.2-0.4,1.3-1l0.1,0c-0.1,0.6-0.7,1-1.4,1c-1,0-1.6-0.7-1.6-1.8s0.6-1.8,1.6-1.8C57.7,36.3,58.2,36.6,58.4,37.2z"/>
	<path class="st1" d="M61.1,36.4L61.1,36.4c-0.2,0-0.3-0.1-0.5-0.1c-0.6,0-1.1,0.7-1.1,1.4v2h-0.1v-3.5h0.1v0.9c0.2-0.5,0.6-1,1.1-1
		C60.8,36.3,61,36.3,61.1,36.4z"/>
	<path class="st1" d="M64.4,36.3v3.5h-0.1v-0.9c-0.2,0.6-0.7,1-1.5,1c-0.8,0-1.2-0.4-1.2-1.2v-2.3h0.1v2.3c0,0.7,0.4,1.2,1.1,1.2
		c1,0,1.4-0.8,1.4-1.3v-2.1H64.4z"/>
	<path class="st1" d="M68.5,37.5v2.3h-0.1v-2.3c0-0.7-0.5-1.2-1.2-1.2c-0.8,0-1.4,0.6-1.4,1.4v2.1h-0.1v-3.5h0.1v0.9
		c0.2-0.6,0.7-1,1.5-1C68,36.3,68.5,36.7,68.5,37.5z"/>
	<path class="st1" d="M72.4,37.2L72.4,37.2c-0.3-0.5-0.7-0.9-1.4-0.9c-0.9,0-1.5,0.6-1.5,1.7c0,1.1,0.5,1.7,1.5,1.7
		c0.6,0,1.2-0.4,1.3-1l0.1,0c-0.1,0.6-0.7,1-1.4,1c-1,0-1.6-0.7-1.6-1.8s0.6-1.8,1.6-1.8C71.7,36.3,72.2,36.6,72.4,37.2z"/>
	<path class="st1" d="M76.1,37.5v2.3H76v-2.3c0-0.7-0.5-1.2-1.2-1.2c-0.8,0-1.4,0.6-1.4,1.4v2.1h-0.1v-5.1h0.1v2.5
		c0.2-0.6,0.7-1,1.5-1C75.6,36.3,76.1,36.7,76.1,37.5z"/>
</g>
<path class="st2" d="M26.8,19.2c0.6-1,1.6-1.7,2.8-1.9c0.6-0.1,0.9-0.7,0.8-1.3c-0.1-0.6-0.7-0.9-1.3-0.8c-1.5,0.4-2.9,1.3-3.8,2.5
	c-4.1-3.5-8.9-4.3-11.4-1.8c-0.8,0.8-1.3,1.9-1.4,3.1l0,0.3c-2.3,2.4-3.9,5.3-4.4,8.1c-0.1,0.7-0.2,1.3-0.2,2c0,1.6,0.4,3.1,1.2,4.4
	c-0.6,0.7-0.6,1.7-0.1,2.3c0.6,0.6,1.5,0.5,2.3-0.1c3.8,2.4,9.9,1,14.4-3.4l0.3,0c1.2-0.1,2.3-0.6,3.1-1.4c1-1,1.5-2.3,1.5-3.9
	C30.5,24.6,29.1,21.7,26.8,19.2z M11.9,29.7H14v-2.1h4.5v6.9c-2.5,0.8-4.9,0.6-6.5-0.6L11.9,29.7z M12.1,29.4l1.6-1.6v1.6H12.1z
	 M24.2,30.9c-1.2,1.2-2.5,2.1-3.9,2.8v-7.9h-5l-0.9,0.9l0.2,0.2l0.8-0.8h4.6v7.7c-0.4,0.2-0.9,0.4-1.3,0.5v-7.1h-5l-2.2,2.2l0.1,4.1
	c-0.1-0.1-0.1-0.1-0.2-0.2c-1.3-1.3-1.8-3.3-1.4-5.7c0.4-2.5,1.8-5,3.9-7.1c0,0,0.1-0.1,0.1-0.1c2,1,4,2.5,5.9,4.3
	c1.8,1.9,3.3,3.9,4.3,5.9C24.3,30.8,24.3,30.8,24.2,30.9z M27.5,29.5c-0.3,0.3-0.6,0.5-1.1,0.6c-1.1-2.3-2.8-4.7-4.9-6.8
	c-2.1-2.1-4.5-3.8-6.8-4.9c0.1-0.4,0.4-0.8,0.6-1.1c1.8-1.8,6.1-0.6,9.4,2.7c2.2,2.2,3.5,4.9,3.5,7.1C28.3,27.9,28.2,28.8,27.5,29.5
	z"/>
</svg>
