<?xml version="1.0" encoding="utf-8"?>
<!-- Generator: Adobe Illustrator 21.0.0, SVG Export Plug-In . SVG Version: 6.00 Build 0)  -->
<svg version="1.1" id="Layer_1" xmlns="http://www.w3.org/2000/svg" xmlns:xlink="http://www.w3.org/1999/xlink" x="0px" y="0px"
	 viewBox="0 0 100 50" style="enable-background:new 0 0 100 50;" xml:space="preserve">
<style type="text/css">
	.st0{fill:#1A1A1A;}
	.st1{stroke:#000000;stroke-width:0.25;stroke-miterlimit:10;}
	.st2{fill:none;stroke:#A67C52;stroke-miterlimit:10;}
	.st3{fill-rule:evenodd;clip-rule:evenodd;fill:#A67C52;}
</style>
<g>
	<path class="st0" d="M41.5,16.9l-2.6,3c-1.2-1.8-2.7-2.6-4.9-2.6c-1.9,0-2.9,0.7-2.9,1.8c0,0.9,0.8,1.4,3.5,1.9
		c4.8,0.8,6.7,2.4,6.7,5.5c0,3.5-3.2,5.4-7.5,5.4c-4.2,0-6.4-1.1-8.1-3l2.4-3.2c1.4,2,3.1,2.7,5.5,2.7c2,0,2.9-0.6,2.9-1.6
		c0-0.8-0.8-1.3-3.5-1.8c-4.9-0.9-6.8-2.5-6.8-5.5c0-3.3,2.8-5.8,7.6-5.8C37.2,13.7,39.4,14.6,41.5,16.9z"/>
	<path class="st0" d="M51.5,25.2h-2.8v6.4h-4.5V14h8.4c4.3,0,6.7,2,6.7,5.6c0,2.6-1.2,4.3-3.5,5.1l4.5,6.9h-5.1L51.5,25.2z
		 M48.7,21.9h3.1c2,0,2.8-0.7,2.8-2.2c0-1.6-0.9-2.2-2.8-2.2h-3.1V21.9z"/>
	<path class="st0" d="M76.7,28.1v3.6H62.6V14h13.7v3.6h-9.1v3.6h7.3v3.3h-7.3v3.6H76.7z"/>
	<path class="st0" d="M95.6,22.8c0,5.6-3,8.8-8.6,8.8h-7.5V14H87C92.5,14,95.6,17.2,95.6,22.8z M90.8,22.8c0-3.5-1.3-5.3-4.3-5.3
		h-2.4v10.7h2.4C89.5,28.2,90.8,26.3,90.8,22.8z"/>
</g>
<g>
	<path class="st1" d="M27.5,34.3c0-0.1,0.1-0.1,0.1-0.1s0.1,0.1,0.1,0.1s-0.1,0.1-0.1,0.1S27.5,34.4,27.5,34.3z M27.7,38.1
		L27.7,38.1L27.6,35h0.1V38.1z"/>
	<path class="st1" d="M31.3,36.1v2h-0.1L31.3,36.1c-0.1-0.6-0.5-1-1.2-1c-0.7,0-1.3,0.6-1.3,1.2v1.9h-0.1V35h0.1v0.8
		c0.1-0.5,0.6-0.9,1.3-0.9C30.9,35,31.3,35.4,31.3,36.1z"/>
	<path class="st1" d="M32,37.4L32,37.4c0.2,0.4,0.6,0.7,1.3,0.7c0.7,0,1.1-0.3,1.1-0.7c0-0.4-0.3-0.6-1-0.7
		c-0.9-0.1-1.2-0.4-1.2-0.8c0-0.5,0.5-0.8,1.1-0.8c0.6,0,1,0.2,1.1,0.8l-0.1,0c-0.1-0.5-0.5-0.7-1.1-0.7c-0.6,0-1,0.3-1,0.7
		c0,0.4,0.3,0.6,1.1,0.8c0.8,0.1,1.1,0.4,1.1,0.8c0,0.5-0.5,0.8-1.2,0.8C32.6,38.2,32.1,37.9,32,37.4z"/>
	<path class="st1" d="M38,36.6c0,1-0.5,1.6-1.4,1.6c-0.6,0-1.1-0.4-1.3-1v2.2h-0.1V35h0.1v0.9c0.2-0.6,0.6-1,1.3-1
		C37.5,35,38,35.6,38,36.6z M37.9,36.6c0-1-0.5-1.5-1.3-1.5c-0.7,0-1.2,0.6-1.2,1.5v0c0,0.9,0.5,1.5,1.2,1.5
		C37.4,38.1,37.9,37.5,37.9,36.6z"/>
	<path class="st1" d="M41.3,36.6h-2.6c0,0.9,0.5,1.4,1.3,1.4c0.5,0,1-0.3,1.2-0.7l0.1,0c-0.2,0.5-0.7,0.7-1.2,0.7
		c-0.9,0-1.4-0.6-1.4-1.6S39.2,35,40,35C40.8,35,41.3,35.6,41.3,36.6L41.3,36.6z M38.7,36.5h2.5c0-0.9-0.4-1.5-1.2-1.5
		C39.2,35,38.7,35.6,38.7,36.5z"/>
	<path class="st1" d="M44.6,35.8L44.6,35.8c-0.2-0.5-0.6-0.8-1.2-0.8c-0.8,0-1.3,0.6-1.3,1.5s0.5,1.5,1.3,1.5c0.6,0,1.1-0.3,1.2-0.9
		l0.1,0c-0.1,0.6-0.6,0.9-1.3,0.9c-0.9,0-1.4-0.6-1.4-1.6s0.5-1.6,1.4-1.6C44,35,44.4,35.3,44.6,35.8z"/>
	<path class="st1" d="M46.9,37.9c-0.1,0.1-0.3,0.2-0.6,0.2c-0.5,0-0.7-0.3-0.7-0.8v-2.2h-0.6V35h0.6v-0.8l0.1,0V35h1.2v0.1h-1.2v2.2
		c0,0.5,0.2,0.8,0.6,0.8C46.5,38.1,46.7,38,46.9,37.9L46.9,37.9z"/>
	<path class="st1" d="M51.5,35.8L51.5,35.8c-0.2-0.5-0.6-0.8-1.2-0.8c-0.8,0-1.3,0.6-1.3,1.5s0.5,1.5,1.3,1.5c0.6,0,1.1-0.3,1.2-0.9
		l0.1,0c-0.1,0.6-0.6,0.9-1.3,0.9c-0.9,0-1.4-0.6-1.4-1.6s0.5-1.6,1.4-1.6C50.9,35,51.3,35.3,51.5,35.8z"/>
	<path class="st1" d="M53.8,35.1L53.8,35.1c-0.1,0-0.2-0.1-0.5-0.1c-0.6,0-1,0.6-1,1.3v1.8h-0.1V35h0.1v0.8c0.1-0.5,0.5-0.9,1-0.9
		C53.6,35,53.7,35,53.8,35.1z"/>
	<path class="st1" d="M56.8,35v3.1h-0.1v-0.8c-0.1,0.5-0.6,0.9-1.3,0.9c-0.7,0-1.1-0.4-1.1-1.1V35h0.1v2c0,0.6,0.4,1,1,1
		c0.9,0,1.3-0.7,1.3-1.2L56.8,35L56.8,35z"/>
	<path class="st1" d="M60.4,36.1v2h-0.1L60.4,36.1c-0.1-0.6-0.5-1-1.2-1c-0.7,0-1.3,0.6-1.3,1.2v1.9h-0.1V35H58v0.8
		c0.1-0.5,0.6-0.9,1.3-0.9C60,35,60.4,35.4,60.4,36.1z"/>
	<path class="st1" d="M63.8,35.8L63.8,35.8c-0.2-0.5-0.6-0.8-1.2-0.8c-0.8,0-1.3,0.6-1.3,1.5s0.5,1.5,1.3,1.5c0.6,0,1.1-0.3,1.2-0.9
		l0.1,0c-0.1,0.6-0.6,0.9-1.3,0.9c-0.9,0-1.4-0.6-1.4-1.6s0.5-1.6,1.4-1.6C63.2,35,63.7,35.3,63.8,35.8z"/>
	<path class="st1" d="M67.2,36.1v2h-0.1L67.2,36.1c-0.1-0.6-0.5-1-1.2-1c-0.7,0-1.3,0.6-1.3,1.2v1.9h-0.1v-4.5h0.1v2.2
		c0.1-0.5,0.6-0.9,1.3-0.9C66.7,34.9,67.2,35.4,67.2,36.1z"/>
	<path class="st1" d="M71.2,33.8L71.2,33.8c-0.2-0.1-0.3-0.1-0.5-0.1c-0.5,0-0.7,0.3-0.7,0.9V35h1.1v0.1H70v3h-0.1v-3h-0.6V35h0.6
		v-0.5c0-0.6,0.3-0.9,0.8-0.9C71,33.6,71.1,33.6,71.2,33.8z M72.6,38L72.6,38c-0.1,0.1-0.2,0.2-0.4,0.2c-0.4,0-0.5-0.2-0.5-0.7v-3.8
		h0.1v3.8c0,0.4,0.1,0.6,0.5,0.6C72.4,38.1,72.5,38,72.6,38z"/>
	<path class="st1" d="M75.8,36.6c0,1-0.5,1.6-1.4,1.6s-1.4-0.6-1.4-1.6s0.5-1.6,1.4-1.6S75.8,35.6,75.8,36.6z M73,36.6
		c0,0.9,0.5,1.5,1.3,1.5s1.3-0.6,1.3-1.5S75.2,35,74.4,35S73,35.6,73,36.6z"/>
	<path class="st1" d="M80.7,35l-1,3.1h-0.1l-1.1-2.9l-1.1,2.9h-0.1l-1-3.1h0.1l1,2.9l1.1-2.9h0.1l1.1,2.9l1-2.9H80.7z"/>
</g>
<polyline class="st2" points="4.4,28.5 6.9,28.5 8.5,31.7 10.1,25.8 11.7,28.7 16.6,28.7 "/>
<g>
	<path class="st3" d="M18.2,18.6c-3.6-3.1-7.9-3.8-10.1-1.6c-0.7,0.7-1.1,1.6-1.2,2.7l0,0.2c-2.1,2.1-3.5,4.6-3.9,7.2
		c-0.1,0.6-0.2,1.2-0.2,1.7c0,1.5,0.4,2.8,1,3.8c-0.5,0.7-0.6,1.5-0.1,2c0.5,0.5,1.4,0.4,2-0.1c3.4,2.1,8.8,0.9,12.8-3l0.2,0
		c1.1-0.1,2-0.6,2.7-1.2c0.8-0.8,1.3-2,1.3-3.4c0-2.3-1.2-4.9-3.2-7c0.6-0.9,1.5-1.5,2.5-1.7c0.5-0.1,0.8-0.6,0.7-1.1
		c-0.1-0.5-0.6-0.8-1.1-0.7C20.2,16.7,19,17.5,18.2,18.6L18.2,18.6z M8.2,21.2C8.3,21.2,8.3,21.1,8.2,21.2c1.8,0.8,3.7,2.1,5.3,3.7
		c1.6,1.6,3,3.4,3.8,5.2c0,0-0.1,0.1-0.1,0.1c-3.7,3.7-8.8,4.7-11.3,2.3c-1.2-1.2-1.6-2.9-1.2-5C5.1,25.3,6.4,23,8.2,21.2L8.2,21.2z
		 M9.4,18.3c1.6-1.6,5.4-0.5,8.3,2.4c1.9,1.9,3.1,4.3,3.1,6.2c0,0.6-0.1,1.5-0.7,2.1c-0.3,0.3-0.6,0.4-1,0.6c-0.9-2-2.5-4.1-4.3-6
		c-1.9-1.9-4-3.4-6-4.3C9,18.9,9.2,18.6,9.4,18.3L9.4,18.3z M9.4,18.3"/>
</g>
</svg>
