<?xml version="1.0" encoding="utf-8"?>
<!-- Generator: Adobe Illustrator 20.1.0, SVG Export Plug-In . SVG Version: 6.00 Build 0)  -->
<svg version="1.1" id="Layer_1" xmlns="http://www.w3.org/2000/svg" xmlns:xlink="http://www.w3.org/1999/xlink" x="0px" y="0px"
	 viewBox="0 0 117 50" style="enable-background:new 0 0 117 50;" xml:space="preserve">
<style type="text/css">
	.st0{fill:#1A1A1A;}
	.st1{fill:#EF6C00;}
</style>
<g>
	<g>
		<path class="st0" d="M60.1,24.1c0,7.5-3.8,11.2-11.3,11.2c-7.4,0-11.3-3.7-11.3-11.2V8.4h6.6v15.8c0,3.8,1.5,5.7,4.7,5.7
			c3.2,0,4.8-1.8,4.8-5.7V8.4h6.6V24.1z"/>
		<path class="st0" d="M86.1,12.8l-3.7,4.5c-1.7-2.6-3.8-3.9-7.1-3.9c-2.7,0-4.1,1.1-4.1,2.6c0,1.4,1.2,2.2,5.1,2.9
			c6.9,1.2,9.7,3.6,9.7,8.2c0,5.2-4.6,8.1-10.7,8.1c-6,0-9.1-1.6-11.6-4.5L67,26c2,3,4.5,4,7.9,4c2.8,0,4.2-0.9,4.2-2.4
			c0-1.2-1.2-1.9-4.9-2.6c-7.1-1.4-9.8-3.7-9.8-8.2c0-5,4-8.6,10.9-8.6C80,8,83.2,9.4,86.1,12.8z"/>
		<path class="st0" d="M113.8,21.7c0,8.5-4.7,13.6-12.4,13.6c-7.7,0-12.4-5.1-12.4-13.6C89,13.1,93.7,8,101.4,8
			C109.1,8,113.8,13.1,113.8,21.7z M95.7,21.7c0,5.4,2,8.2,5.7,8.2c3.6,0,5.6-2.8,5.6-8.2c0-5.4-2-8.2-5.6-8.2
			C97.7,13.4,95.7,16.3,95.7,21.7z"/>
	</g>
	<g>
		<path d="M39,45.2c0,0.8-0.5,1.4-1.2,1.4c-0.2,0-0.5-0.1-0.6-0.2l0-0.1c0.1,0.1,0.4,0.2,0.6,0.2c0.6,0,1-0.5,1-1.3V40H39V45.2z
			 M39.2,38.9c0,0.1-0.1,0.2-0.2,0.2s-0.2-0.1-0.2-0.2s0.1-0.2,0.2-0.2S39.2,38.8,39.2,38.9z"/>
		<path d="M44,40v4.6h-0.1v-1.2c-0.2,0.8-0.9,1.3-1.8,1.3c-1,0-1.5-0.6-1.5-1.6V40h0.1V43c0,1,0.5,1.5,1.4,1.5
			c1.3,0,1.8-1.1,1.8-1.8V40H44z"/>
		<path d="M45.1,43.6l0.1-0.1c0.1,0.7,0.8,1.1,1.7,1.1c0.9,0,1.5-0.4,1.5-1.1c0-0.6-0.4-0.9-1.5-1.1c-1.2-0.2-1.7-0.6-1.7-1.2
			c0-0.7,0.7-1.3,1.6-1.3c0.9,0,1.5,0.4,1.6,1.2l-0.1,0.1c-0.2-0.8-0.7-1.1-1.5-1.1c-0.9,0-1.5,0.5-1.5,1.1c0,0.6,0.4,0.9,1.6,1.1
			c1.2,0.2,1.6,0.6,1.6,1.2c0,0.8-0.7,1.2-1.7,1.2C46,44.7,45.3,44.3,45.1,43.6z"/>
		<path d="M51.9,44.3c-0.2,0.2-0.5,0.4-0.8,0.4c-0.7,0-1.1-0.4-1.1-1.3v-3.3h-0.9V40H50v-1.2l0.1,0V40h1.7v0.1h-1.7v3.3
			c0,0.7,0.3,1.1,0.9,1.1c0.3,0,0.6-0.1,0.8-0.3L51.9,44.3z"/>
		<path d="M58.5,41.2l-0.1,0.1c-0.2-0.8-0.8-1.2-1.6-1.2c-1.2,0-1.9,0.9-1.9,2.3c0,1.4,0.7,2.3,1.9,2.3c0.8,0,1.6-0.5,1.7-1.3l0.1,0
			c-0.1,0.8-0.9,1.4-1.8,1.4c-1.3,0-2-0.9-2-2.4c0-1.5,0.8-2.4,2-2.4C57.6,39.9,58.3,40.3,58.5,41.2z"/>
		<path d="M61.9,40.1l-0.1,0.1c-0.1-0.1-0.2-0.2-0.6-0.2c-0.8,0-1.4,0.9-1.4,1.9v2.7h-0.1V40h0.1v1.2c0.2-0.7,0.7-1.3,1.4-1.3
			C61.6,39.9,61.8,40,61.9,40.1z"/>
		<path d="M66.2,40v4.6H66v-1.2c-0.2,0.8-0.9,1.3-1.8,1.3c-1,0-1.5-0.6-1.5-1.6V40h0.1V43c0,1,0.5,1.5,1.4,1.5
			c1.3,0,1.8-1.1,1.8-1.8V40H66.2z"/>
		<path d="M71.3,41.6v3h-0.1v-3c0-1-0.6-1.6-1.5-1.6c-1,0-1.8,0.8-1.8,1.8v2.8h-0.1V40h0.1v1.2c0.2-0.8,0.9-1.3,1.8-1.3
			C70.7,39.9,71.3,40.5,71.3,41.6z"/>
		<path d="M76.2,41.2l-0.1,0.1c-0.2-0.8-0.8-1.2-1.6-1.2c-1.2,0-1.9,0.9-1.9,2.3c0,1.4,0.7,2.3,1.9,2.3c0.8,0,1.6-0.5,1.7-1.3l0.1,0
			c-0.2,0.8-0.9,1.4-1.8,1.4c-1.3,0-2-0.9-2-2.4c0-1.5,0.8-2.4,2-2.4C75.3,39.9,76,40.3,76.2,41.2z"/>
		<path d="M81,41.5v3h-0.1v-3c0-1-0.6-1.6-1.5-1.6c-1,0-1.8,0.8-1.8,1.8v2.8h-0.1v-6.7h0.1v3.3c0.2-0.8,0.9-1.3,1.8-1.3
			C80.4,39.9,81,40.5,81,41.5z"/>
		<path d="M84.8,38.9c0-0.1,0.1-0.2,0.2-0.2c0.1,0,0.2,0.1,0.2,0.2s-0.1,0.2-0.2,0.2C84.9,39.1,84.8,39,84.8,38.9z M85.1,44.6h-0.1
			V40h0.1V44.6z"/>
		<path d="M88.7,44.3c-0.2,0.2-0.5,0.4-0.8,0.4c-0.7,0-1.1-0.4-1.1-1.3v-3.3h-0.9V40h0.9v-1.2l0.1,0V40h1.7v0.1h-1.7v3.3
			c0,0.7,0.3,1.1,0.9,1.1c0.3,0,0.6-0.1,0.8-0.3L88.7,44.3z"/>
	</g>
	<g>
		<path class="st1" d="M27.3,17.3c0.8-1.3,2.1-2.2,3.5-2.6c0.7-0.2,1.2-0.9,1-1.7c-0.2-0.8-0.9-1.2-1.6-1.1c-2,0.5-3.7,1.7-4.9,3.3
			c-5.1-4.6-11.3-5.7-14.5-2.4c-1,1-1.6,2.5-1.8,4.1l0,0.3c-3,3.2-5,7-5.6,10.8c-0.2,0.9-0.2,1.8-0.2,2.6c0,2.2,0.5,4.1,1.5,5.8
			c-0.7,1-0.8,2.3-0.1,3c0.7,0.7,1.9,0.7,2.9-0.1c4.8,3.2,12.6,1.4,18.3-4.5l0.3,0C27.7,34.6,29,34,30,33c1.2-1.3,1.9-3,1.9-5.1
			C31.9,24.4,30.2,20.6,27.3,17.3z M16.2,30.1v-1h0.2L16.2,30.1z M24,32.7c-2.3,2.4-5,4.1-7.5,4.9v-6.1l2.1-4.5h-3h-0.9h-3.7
			c-2.2,0-3.4,3-3.4,5.3v3.1l1,1.2v-4.3c0-1.8,0.7-3.3,2.4-3.3h3.6v3.5c0,0.2-2,1.6-2,3.3v2.4c-1.8-0.1-3.4-0.8-4.6-2
			c-1.7-1.7-2.3-4.4-1.7-7.5c0.6-3.3,2.3-6.6,5-9.4c0,0,0.1-0.1,0.1-0.1c2.5,1.3,5.1,3.3,7.5,5.7c2.3,2.5,4.2,5.2,5.5,7.8
			C24.1,32.7,24.1,32.7,24,32.7z M28.1,31c-0.4,0.4-0.8,0.7-1.4,0.9c-1.4-3-3.5-6.2-6.2-9c-2.7-2.8-5.7-5.1-8.6-6.5
			c0.2-0.6,0.4-1,0.8-1.4c2.3-2.4,7.8-0.8,11.9,3.6c2.8,2.9,4.5,6.5,4.5,9.4C29.2,28.8,29,30,28.1,31z"/>
		<ellipse class="st1" cx="12.7" cy="30.6" rx="0.7" ry="0.8"/>
	</g>
</g>
</svg>
