<?xml version="1.0" encoding="utf-8"?>
<!-- Generator: Adobe Illustrator 21.0.0, SVG Export Plug-In . SVG Version: 6.00 Build 0)  -->
<svg version="1.1" id="Layer_1" xmlns="http://www.w3.org/2000/svg" xmlns:xlink="http://www.w3.org/1999/xlink" x="0px" y="0px"
	 viewBox="0 0 400 200" style="enable-background:new 0 0 400 200;" xml:space="preserve">
<style type="text/css">
	.st0{fill:#146791;}
	.st1{fill:#545454;}
	.st2{fill:#063551;}
</style>
<g>
	<g>
		<path class="st0" d="M25.6,134.7c0.1,1,0.2,1.6,2.2,1.6c1,0,1.8-0.1,1.8-1.1c0-0.6-0.3-0.9-1.1-1.2l-2.4-0.6
			c-1.2-0.3-2.2-0.9-2.2-2.7c0-1.4,0.6-2.9,3.7-2.9c2.9,0,3.8,1.3,3.8,3.1h-2c-0.1-0.8-0.1-1.4-1.9-1.4c-1,0-1.5,0.2-1.5,1
			c0,0.7,0.4,0.9,1,1.1l2.2,0.6c1.4,0.4,2.6,0.9,2.6,2.9c0,2.7-2.4,3-3.8,3c-3.2,0-4.1-1.3-4.2-3.3h1.8V134.7z"/>
		<path class="st0" d="M33.1,128h7.2v1.7h-5.2v2.1h4.8v1.7h-4.8v2.6h5.4v1.7h-7.4V128z"/>
		<path class="st0" d="M50.1,134.5c-0.1,1.9-1.2,3.4-4.2,3.4c-2.9,0-4.4-1.5-4.4-5s1.4-5.1,4.4-5.1c2.4,0,3.9,1,4.2,3.3h-2
			c-0.2-0.9-0.5-1.5-2.2-1.5s-2.4,1-2.4,3.6c0,2,0.5,3.2,2.4,3.2c1.3,0,2-0.4,2.2-1.7h2V134.5z"/>
		<path class="st0" d="M53.7,128v5.1c0,2.5,0.1,3.1,1.9,3.1c1.7,0,1.9-0.5,1.9-3V128h2v6.5c0,3-1.5,3.5-3.8,3.5c-2.4,0-4-0.6-4-3.6
			V128H53.7z"/>
		<path class="st0" d="M61.6,128h4.2c2,0,3.8,0.1,3.8,2.9c0,1.9-0.8,2.6-1.9,2.9l2.5,4h-2.4l-2.4-3.8h-1.8v3.8h-2
			C61.6,137.8,61.6,128,61.6,128z M63.6,129.7v2.6h1.8c1.6,0,2.2-0.2,2.2-1.4c0-1-0.3-1.2-2-1.2L63.6,129.7L63.6,129.7z"/>
		<path class="st0" d="M71.3,128h2v9.8h-2V128z"/>
		<path class="st0" d="M77.3,129.7h-2.9V128h7.9v1.7h-2.9v8h-2L77.3,129.7L77.3,129.7z"/>
		<path class="st0" d="M88.5,137.7c-0.2-0.7-0.4-1.4-0.6-2.1h-4c-0.2,0.7-0.4,1.4-0.6,2.1h-2.1c1-3.3,2.2-6.5,3.6-9.8h2.3
			c1.4,3.2,2.6,6.5,3.6,9.8H88.5z M84.5,134h2.9c-0.4-1.3-0.9-2.5-1.4-3.8C85.4,131.5,84.9,132.7,84.5,134z"/>
		<path class="st0" d="M92.7,129.7h-2.9V128h7.9v1.7h-2.9v8h-2L92.7,129.7L92.7,129.7z"/>
		<path class="st0" d="M98.9,128h7.2v1.7h-5.2v2.1h4.8v1.7h-4.8v2.6h5.4v1.7h-7.4V128z"/>
		<path class="st0" d="M114.4,137.7c-0.2-0.7-0.4-1.4-0.6-2.1h-4c-0.2,0.7-0.4,1.4-0.6,2.1h-2.1c1-3.3,2.2-6.5,3.6-9.8h2.3
			c1.4,3.2,2.6,6.5,3.6,9.8H114.4z M110.4,134h2.9c-0.4-1.3-0.9-2.5-1.4-3.8C111.3,131.5,110.8,132.7,110.4,134z"/>
		<path class="st0" d="M121.6,128h4.2c2,0,3.8,0.1,3.8,2.9c0,1.9-0.8,2.6-1.9,2.9l2.5,4h-2.5l-2.4-3.8h-1.8v3.8h-2V128H121.6z
			 M123.6,129.7v2.6h1.8c1.6,0,2.2-0.2,2.2-1.4c0-1-0.3-1.2-2-1.2L123.6,129.7L123.6,129.7z"/>
		<path class="st0" d="M131.4,128h7.2v1.7h-5.2v2.1h4.8v1.7h-4.8v2.6h5.4v1.7h-7.4V128z"/>
		<path class="st0" d="M142.6,129.7h-2.9V128h7.9v1.7h-2.9v8h-2v-8H142.6z M142.7,138.4h1.8l-1.3,2.1h-1L142.7,138.4z"/>
		<path class="st0" d="M148.8,128h7.2v1.7h-5.2v2.1h4.8v1.7h-4.8v2.6h5.4v1.7h-7.4V128z"/>
		<path class="st0" d="M157.9,128h2v8h4.9v1.7h-6.9V128z"/>
		<path class="st0" d="M166.2,128h7.2v1.7h-5.2v2.1h4.8v1.7h-4.8v2.6h5.4v1.7h-7.4V128z"/>
		<path class="st0" d="M175.2,128h2v8h4.9v1.7h-6.9V128z"/>
		<path class="st0" d="M187.4,127.8c2.3,0,4.7,0.7,4.7,5.1c0,4.3-2.3,5.1-4.7,5.1c-2.5,0-4.7-0.9-4.7-5.1
			C182.7,128.4,185.2,127.8,187.4,127.8z M187.5,136.2c1.4,0,2.6-0.3,2.6-3.4c0-2.5-0.8-3.3-2.7-3.3c-1.8,0-2.6,0.7-2.6,3.4
			C184.8,135.7,185.6,136.2,187.5,136.2z"/>
		<path class="st0" d="M193.7,128h4.2c2,0,3.8,0.1,3.8,2.9c0,1.9-0.8,2.6-1.9,2.9l2.5,4h-2.5l-2.4-3.8h-1.8v3.8h-2L193.7,128
			L193.7,128z M195.7,129.7v2.6h1.8c1.6,0,2.2-0.2,2.2-1.4c0-1-0.3-1.2-2-1.2L195.7,129.7L195.7,129.7z"/>
		<path class="st0" d="M207.2,128h2v9.8h-2V128z"/>
		<path class="st0" d="M211.1,128h2.1l3.8,6.4V128h2v9.8h-2l-3.8-6.5v6.5h-2V128H211.1z"/>
		<path class="st0" d="M220.9,128h6.9v1.7H223v2.3h4.2v1.7H223v4.1h-2V128H220.9z"/>
		<path class="st0" d="M233.2,127.8c2.3,0,4.7,0.7,4.7,5.1c0,4.3-2.3,5.1-4.7,5.1c-2.5,0-4.7-0.9-4.7-5.1
			C228.5,128.4,231,127.8,233.2,127.8z M233.3,136.2c1.4,0,2.6-0.3,2.6-3.4c0-2.5-0.8-3.3-2.7-3.3c-1.8,0-2.6,0.7-2.6,3.4
			C230.6,135.7,231.5,136.2,233.3,136.2z"/>
		<path class="st0" d="M239.6,128h4.2c2,0,3.8,0.1,3.8,2.9c0,1.9-0.8,2.6-1.9,2.9l2.5,4h-2.5l-2.4-3.8h-1.8v3.8h-2L239.6,128
			L239.6,128z M241.6,129.7v2.6h1.8c1.6,0,2.2-0.2,2.2-1.4c0-1-0.3-1.2-2-1.2L241.6,129.7L241.6,129.7z"/>
		<path class="st0" d="M249.3,128h3l1.8,5.3l1.7-5.3h3v9.8h-2v-7.2l-1.7,5.1h-2l-1.7-5.1v7.2h-2L249.3,128L249.3,128z"/>
		<path class="st0" d="M267.1,137.7c-0.2-0.7-0.4-1.4-0.6-2.1h-4c-0.2,0.7-0.4,1.4-0.6,2.1h-2.1c1-3.3,2.2-6.5,3.6-9.8h2.3
			c1.4,3.2,2.6,6.5,3.6,9.8H267.1z M263.1,134h2.9c-0.4-1.3-0.9-2.5-1.4-3.8C264,131.5,263.5,132.7,263.1,134z"/>
		<path class="st0" d="M271.3,129.7h-2.9V128h7.9v1.7h-2.9v8h-2v-8H271.3z"/>
		<path class="st0" d="M277.4,128h2v9.8h-2V128z"/>
		<path class="st0" d="M289.5,134.5c-0.1,1.9-1.2,3.4-4.2,3.4c-2.9,0-4.4-1.5-4.4-5s1.4-5.1,4.4-5.1c2.4,0,3.9,1,4.2,3.3h-2
			c-0.2-0.9-0.5-1.5-2.2-1.5s-2.4,1-2.4,3.6c0,2,0.5,3.2,2.4,3.2c1.3,0,2-0.4,2.2-1.7h2V134.5z"/>
		<path class="st0" d="M291.1,128h7.2v1.7h-5.2v2.1h4.8v1.7h-4.8v2.6h5.4v1.7h-7.4V128z"/>
		<path class="st0" d="M312.2,134.5c-0.1,1.9-1.2,3.4-4.2,3.4c-2.9,0-4.4-1.5-4.4-5s1.4-5.1,4.4-5.1c2.4,0,3.9,1,4.2,3.3h-2
			c-0.2-0.9-0.5-1.5-2.2-1.5s-2.4,1-2.4,3.6c0,2,0.5,3.2,2.4,3.2c1.3,0,2-0.4,2.2-1.7h2V134.5z"/>
		<path class="st0" d="M318,127.8c2.3,0,4.7,0.7,4.7,5.1c0,4.3-2.3,5.1-4.7,5.1c-2.5,0-4.7-0.9-4.7-5.1
			C313.3,128.4,315.8,127.8,318,127.8z M318.1,136.2c1.4,0,2.6-0.3,2.6-3.4c0-2.5-0.8-3.3-2.7-3.3c-1.8,0-2.6,0.7-2.6,3.4
			C315.4,135.7,316.3,136.2,318.1,136.2z"/>
		<path class="st0" d="M324.3,128h3l1.8,5.3l1.7-5.3h3v9.8h-2v-7.2l-1.7,5.1h-2l-1.7-5.1v7.2h-2L324.3,128L324.3,128z"/>
		<path class="st0" d="M335.7,128h3.7c2,0,3.8,0.2,3.8,3.1c0,2.8-1.6,3.1-3.6,3.1h-1.9v3.6h-2V128z M337.7,129.7v2.8h1.3
			c1.6,0,2.2-0.2,2.2-1.5c0-1.1-0.4-1.3-2-1.3H337.7z"/>
		<path class="st0" d="M344.8,128h2v8h4.9v1.7h-6.9V128z"/>
		<path class="st0" d="M353.1,128h7.2v1.7h-5.2v2.1h4.8v1.7h-4.8v2.6h5.4v1.7h-7.4V128z"/>
		<path class="st0" d="M364.5,132.7l-3-4.7h2.4l1.8,3.1l1.8-3.1h2.3l-3,4.7l3.2,5h-2.5l-2-3.3l-2,3.3h-2.4L364.5,132.7z"/>
		<path class="st0" d="M371.2,128h7.2v1.7h-5.2v2.1h4.8v1.7h-4.8v2.6h5.4v1.7h-7.4V128z"/>
	</g>
	<g>
		<path class="st1" d="M25.1,147h7.4l4.5,13.1l4.3-13.1h7.3v24.2h-5v-17.8L39.2,166h-4.9L30,153.4v17.8h-5V147H25.1z"/>
		<path class="st1" d="M69.4,171.2c-0.4-1.7-0.9-3.4-1.5-5.1h-9.8c-0.5,1.7-1,3.4-1.4,5.1h-5.3c2.4-8.1,5.3-16.2,8.9-24.2h5.6
			c3.6,8,6.6,16.1,9,24.2H69.4z M59.4,161.9h7.2c-1-3.1-2.2-6.3-3.6-9.4C61.6,155.7,60.4,158.8,59.4,161.9z"/>
		<path class="st1" d="M81.7,163.6c0.2,2.5,0.6,3.9,5.4,3.9c2.5,0,4.4-0.4,4.4-2.8c0-1.5-0.7-2.3-2.8-2.9l-5.9-1.6
			c-2.9-0.8-5.5-2.2-5.5-6.6c0-3.5,1.6-7.1,9.1-7.1c7.1,0,9.4,3.3,9.5,7.6h-5c-0.2-2-0.3-3.4-4.7-3.4c-2.5,0-3.8,0.5-3.8,2.4
			c0,1.8,1,2.3,2.5,2.6l5.4,1.5c3.4,0.9,6.4,2.3,6.4,7.1c0,6.8-5.8,7.5-9.5,7.5c-7.9,0-10.1-3.1-10.4-8.1L81.7,163.6L81.7,163.6z"/>
		<path class="st1" d="M105,151.2h-7.3V147h19.6v4.3H110v20h-5V151.2z"/>
		<path class="st1" d="M120.4,147h17.9v4.2h-12.9v5.3h11.9v4.2h-11.9v6.5h13.4v4.2h-18.4V147z"/>
		<path class="st1" d="M142.9,147h10.5c5,0,9.4,0.1,9.4,7.3c0,4.7-2,6.5-4.7,7.1l6.3,9.8h-6.1l-5.9-9.5h-4.5v9.5h-5V147z
			 M147.9,151.1v6.4h4.5c4,0,5.4-0.4,5.4-3.4c0-2.4-0.8-2.9-5.1-2.9h-4.8V151.1z"/>
		<path class="st1" d="M166.9,149.2c0-1.7,0.4-2.4,2.5-2.4c2.2,0,2.6,0.8,2.6,2.9c0,5.5-1.1,6.7-4.5,6.7v-2.1c1.4,0,1.8-0.5,1.9-2.7
			C167.3,151.6,166.9,150.9,166.9,149.2z"/>
		<path class="st1" d="M180.5,163.6c0.2,2.5,0.6,3.9,5.4,3.9c2.5,0,4.4-0.4,4.4-2.8c0-1.5-0.7-2.3-2.8-2.9l-5.9-1.6
			c-2.9-0.8-5.5-2.2-5.5-6.6c0-3.5,1.6-7.1,9.1-7.1c7.1,0,9.4,3.3,9.5,7.6h-5c-0.2-2-0.3-3.4-4.7-3.4c-2.5,0-3.8,0.5-3.8,2.4
			c0,1.8,1,2.3,2.5,2.6l5.4,1.5c3.4,0.9,6.4,2.3,6.4,7.1c0,6.8-5.8,7.5-9.5,7.5c-7.9,0-10.1-3.1-10.4-8.1L180.5,163.6L180.5,163.6z"
			/>
		<path class="st1" d="M208.6,147h9.2c5,0,9.4,0.5,9.4,7.6c0,6.9-4.1,7.8-8.9,7.8h-4.7v8.9h-5V147z M213.7,151.1v7.1h3.1
			c4,0,5.4-0.4,5.4-3.8c0-2.7-0.9-3.2-5.1-3.2h-3.4V151.1z"/>
		<path class="st1" d="M231.2,147h10.5c5,0,9.4,0.1,9.4,7.3c0,4.7-2,6.5-4.7,7.1l6.3,9.8h-6.1l-5.9-9.5h-4.5v9.5h-5V147z
			 M236.2,151.1v6.4h4.5c4,0,5.4-0.4,5.4-3.4c0-2.4-0.8-2.9-5.1-2.9h-4.8V151.1z"/>
		<path class="st1" d="M265.5,146.4c5.8,0,11.8,1.9,11.8,12.6c0,10.6-5.8,12.7-11.7,12.7c-6.2,0-11.7-2.3-11.7-12.7
			C253.8,148.1,260,146.4,265.5,146.4z M265.7,167.5c3.4,0,6.4-0.7,6.4-8.6c0-6.2-1.9-8.2-6.7-8.2c-4.5,0-6.5,1.8-6.5,8.5
			C258.9,166.3,261.1,167.5,265.7,167.5z"/>
		<path class="st1" d="M303.4,161c0,8-4.4,10.7-11.4,10.7c-6,0-11.9-2.3-11.9-12.7c0-11,6.5-12.6,11.9-12.6c6.5,0,10.5,2.4,11,8.1
			h-5c-0.3-2.4-1.6-3.8-5.8-3.8c-4.6,0-7,1.8-7,8.4c0,7,2.6,8.4,6.9,8.4c4.9,0,6.3-1.6,6.3-5.1h-5.6v-4.2h10.6V161z"/>
		<path class="st1" d="M307.5,147H318c5,0,9.4,0.1,9.4,7.3c0,4.7-2,6.5-4.7,7.1l6.3,9.8h-6l-5.9-9.5h-4.5v9.5h-5V147H307.5z
			 M312.5,151.1v6.4h4.5c4,0,5.4-0.4,5.4-3.4c0-2.4-0.8-2.9-5.1-2.9h-4.8V151.1z"/>
		<path class="st1" d="M347.8,171.2c-0.4-1.7-0.9-3.4-1.5-5.1h-9.8c-0.5,1.7-1,3.4-1.4,5.1h-5.3c2.4-8.1,5.3-16.2,8.9-24.2h5.6
			c3.6,8,6.6,16.1,9,24.2H347.8z M337.9,161.9h7.2c-1-3.1-2.2-6.3-3.6-9.4C340.1,155.7,338.9,158.8,337.9,161.9z"/>
		<path class="st1" d="M356.1,147h7.4l4.5,13.1l4.3-13.1h7.3v24.2h-5v-17.8l-4.3,12.6h-4.9l-4.3-12.6v17.8h-5V147z"/>
	</g>
	<g>
		<g>
			<path class="st2" d="M122.7,93.4c0.7,9,2,13.7,19,13.7c9,0,15.5-1.3,15.5-10c0-5.3-2.4-8.1-9.9-10.1l-20.8-5.6
				c-10.4-2.7-19.6-7.8-19.6-23.4c0-12.3,5.6-25.2,32.1-25.2c25.2,0,33.1,11.7,33.4,27h-17.7c-0.8-7.2-1.2-11.9-16.5-11.9
				c-9,0-13.5,1.7-13.5,8.5c0,6.2,3.7,8,8.7,9.3l19.1,5.1c12.2,3.2,22.4,8,22.4,25.1c0,24.1-20.7,26.4-33.4,26.4
				c-27.9,0-35.6-11-36.7-28.8L122.7,93.4L122.7,93.4z"/>
			<path class="st2" d="M188.8,34.6h37.1c17.8,0,33.3,0.5,33.3,25.7c0,16.7-6.9,22.9-16.7,25.2l22.3,34.7h-21.5l-21-33.7h-15.9v33.7
				h-17.7V34.6H188.8z M206.5,49.3v22.6h15.9c14.2,0,19-1.4,19-12.2c0-8.6-3-10.4-17.9-10.4C223.5,49.3,206.5,49.3,206.5,49.3z"/>
			<path class="st2" d="M273.8,34.6h17.7v85.6h-17.7V34.6z"/>
			<path class="st2" d="M380.3,92.1c-1.2,16.7-10.5,30.1-36.9,30.1c-25.8,0-38.8-12.8-38.8-44.3c0-30.8,12.3-45.1,38.9-45.1
				c21,0,33.9,9,36.8,28.5h-17.7c-2-7.6-4.5-13.5-19.1-13.5s-21,8.7-21,31.6c0,17.8,4.8,27.7,21.3,27.7c11.8,0,17.4-3.7,18.9-15
				C362.7,92.1,380.3,92.1,380.3,92.1z"/>
		</g>
		<path class="st2" d="M75.7,39.7c3.2-4.8,4.6-10.6,4-16.4c-0.2-2.2-2.2-3.7-4.3-3.4c-2.2,0.2-3.7,2.2-3.4,4.3
			c0.5,4.3-0.7,8.6-3.3,12.1c-11.4-4.8-23.3-5.9-32.2-2.7c-5.5,1.9-9.5,5.3-11.6,9.8c-1.7,3.7-2.1,8-1.1,12.5l0.2,0.9
			c-9.9,21.3-7.1,44.1,5.9,54.5c-1.2,3.3-0.2,6.8,2.5,8c2.6,1.2,5.9-0.2,7.8-3.1c5.2,1.2,10.9,0.8,16.6-1.3c2.2-0.8,4.4-1.8,6.6-3.1
			c9.3-5.3,17.4-14.4,22.8-25.5l0.9-0.4c4.1-2,7.3-5,9-8.7C101.7,65.4,92.8,49.6,75.7,39.7z M89,73.9c-0.6,1.4-1.6,2.6-3,3.6
			c-2.6-2.7-8.5-7.5-12.7-10.6c0,0.1,0,0.1-0.1,0.2L70.5,73c0.6,0.7,1.1,1.5,1.4,2.3c0.1,0.2,0.1,0.4,0.2,0.6c2.7,2,5.2,4.1,7.5,6.3
			c-0.1,0.2-0.1,0.3-0.2,0.5c-4.7,9.9-11.7,17.9-19.8,22.5c-7.6,4.4-15.2,5.1-21.4,2.2c-13.3-6.3-16.3-27.6-6.9-47.6
			c0.1-0.2,0.2-0.3,0.2-0.5c3.2,0.4,6.5,1,9.9,1.9c0.8-0.3,1.7-0.5,2.6-0.5l2.7-5.9c0-0.1,0.1-0.2,0.1-0.2
			c-5.4-1.7-10.8-2.8-15.9-3.2c0-1.7,0.3-3.2,0.9-4.5c1.6-3.3,4.7-5,7.1-5.8c7.6-2.7,18.7-1.3,28.9,3.5C83.5,51.8,93.1,65.3,89,73.9
			z"/>
	</g>
	<g>
		<path class="st2" d="M53.3,75.5c-0.7-0.3-1.6,0-1.9,0.7l-1.4,3c-1,0.1-1.9,0.7-2.4,1.7c-0.7,1.5,0,3.2,1.4,3.9
			c1.5,0.7,3.2,0,3.9-1.4c0.5-1,0.3-2.1-0.3-2.9l1.4-3C54.3,76.7,54,75.9,53.3,75.5z"/>
		<path class="st2" d="M64.9,50.3C59,47.6,52.1,50.2,49.4,56l-3.7,8c-2.2-1-4.8,0-5.8,2.1L32.6,82c-1,2.2-0.1,4.8,2.1,5.8l21.2,9.8
			c2.2,1,4.8,0,5.8-2.1L69,79.6c1-2.2,0-4.8-2.1-5.8l3.7-8C73.3,60,70.7,53,64.9,50.3z M66.4,78.4l-7.3,15.9
			c-0.3,0.7-1.2,1.1-1.9,0.7L36,85.2c-0.7-0.3-1-1.2-0.7-1.9l7.3-15.9c0.3-0.7,1.2-1.1,1.9-0.7l21.2,9.8
			C66.4,76.8,66.8,77.7,66.4,78.4z M68,64.6l-3.7,8l-15.9-7.4l3.7-8c2-4.4,7.2-6.3,11.6-4.3C68.1,55,70,60.2,68,64.6z"/>
	</g>
</g>
</svg>
