<svg id="Layer_1" data-name="Layer 1" xmlns="http://www.w3.org/2000/svg" viewBox="0 0 46.61 46.61"><title>box</title><path d="M44.81,42.26a.8.8,0,0,1-.8-.8V9.31a.8.8,0,0,1,1.61,0V41.45A.8.8,0,0,1,44.81,42.26Z" transform="translate(-2.22 -2.08)"/><path d="M41.6,6.9H9.46a.8.8,0,0,1,0-1.61H41.6a.8.8,0,1,1,0,1.61Z" transform="translate(-2.22 -2.08)"/><path d="M6.24,42.26a.8.8,0,0,1-.8-.8V9.31A.8.8,0,1,1,7,9.31V41.45A.8.8,0,0,1,6.24,42.26Z" transform="translate(-2.22 -2.08)"/><path d="M41.6,45.47H9.46a.8.8,0,0,1,0-1.61H41.6a.8.8,0,0,1,0,1.61Z" transform="translate(-2.22 -2.08)"/><path d="M10.26,10.12h-8v-8h8ZM3.83,8.51H8.65V3.69H3.83Z" transform="translate(-2.22 -2.08)"/><path d="M48.83,10.12h-8v-8h8ZM42.4,8.51h4.82V3.69H42.4Z" transform="translate(-2.22 -2.08)"/><path d="M10.26,48.69h-8v-8h8ZM3.83,47.08H8.65V42.26H3.83Z" transform="translate(-2.22 -2.08)"/><path d="M48.83,48.69h-8v-8h8ZM42.4,47.08h4.82V42.26H42.4Z" transform="translate(-2.22 -2.08)"/></svg>