<?xml version="1.0" encoding="utf-8"?>
<!-- Generator: Adobe Illustrator 20.1.0, SVG Export Plug-In . SVG Version: 6.00 Build 0)  -->
<svg version="1.1" id="Layer_1" xmlns="http://www.w3.org/2000/svg" xmlns:xlink="http://www.w3.org/1999/xlink" x="0px" y="0px"
	 viewBox="0 0 50 50" style="enable-background:new 0 0 50 50;" xml:space="preserve">
<g>
	<path d="M43.3,48.4H6.7c-2.6,0-4-2.1-4-4.2c0-2.1,1.4-4.2,4-4.2h36.6c2.6,0,4,2.1,4,4.2S45.9,48.4,43.3,48.4z M6.7,41.7
		c-1.8,0-2.2,1.5-2.2,2.4c0,0.9,0.5,2.5,2.2,2.5h36.6c1.8,0,2.2-1.5,2.2-2.5s-0.5-2.4-2.2-2.4H6.7z"/>
	<path d="M37.7,35.2L36,34.6c0.5-1.3,0.7-2.6,0.7-4c0-6.4-5.1-11.5-11.7-11.5s-11.7,5-11.7,11.5c0,1.3,0.2,2.6,0.7,3.9l-1.7,0.6
		c-0.5-1.4-0.8-2.9-0.8-4.5c0-7.4,5.9-13.2,13.5-13.2s13.5,5.8,13.5,13.2C38.5,32.2,38.2,33.8,37.7,35.2z"/>
	<path d="M25,13.4c-3.2,0-5.9-2.6-5.9-5.9s2.6-5.9,5.9-5.9s5.9,2.6,5.9,5.9S28.2,13.4,25,13.4z M25,3.4c-2.3,0-4.1,1.8-4.1,4.1
		s1.8,4.1,4.1,4.1c2.3,0,4.1-1.8,4.1-4.1S27.3,3.4,25,3.4z"/>
	<rect x="20" y="6.6" width="10" height="1.8"/>
	<rect x="24.1" y="12.5" width="1.8" height="5.8"/>
	<path d="M42.7,41.7H7.2L7,41.5C3,38.8,0.8,35,0.8,30.8c0-7.7,5.3-13.4,12.5-13.4c2.5,0,4.5,0.9,5.9,1.6l-0.8,1.6
		c-1.9-1-3.5-1.4-5.1-1.4c-6.2,0-10.8,4.9-10.8,11.6c0,4.4,2.8,7.4,5.2,9.1h34.4c2.4-1.6,5.2-4.5,5.2-9.1c0-6.7-4.5-11.6-10.8-11.6
		c-1.7,0-3.2,0.4-5.1,1.4l-0.8-1.6c1.5-0.8,3.5-1.6,5.9-1.6c7.3,0,12.5,5.6,12.5,13.4c0,4.4-2.2,8.1-6.2,10.7L42.7,41.7z"/>
</g>
</svg>
