<?xml version="1.0" encoding="utf-8"?>
<!-- Generator: Adobe Illustrator 20.1.0, SVG Export Plug-In . SVG Version: 6.00 Build 0)  -->
<svg version="1.1" id="Layer_1" xmlns="http://www.w3.org/2000/svg" xmlns:xlink="http://www.w3.org/1999/xlink" x="0px" y="0px"
	 viewBox="0 0 50 50" style="enable-background:new 0 0 50 50;" xml:space="preserve">
<g>
	<rect x="9.1" y="7.3" width="29.7" height="2"/>
	<path d="M9.1,12c-1.9,0-3.5-1.6-3.5-3.5S7.2,5,9.1,5H40V3H9.1C6.1,3,4,5.3,4,8.3v34.9C4,45.8,5.8,48,8.4,48H23v-2H8.4
		C6.9,46,6,44.7,6,43.2V12.5C7,13.3,7.8,14,9.1,14H39v5h2v-7H9.1z"/>
	<polygon points="39.7,35.1 37,37.9 37,30 35,30 35,37.9 32.2,35.1 30.8,36.5 35.9,41.7 41.1,36.5 	"/>
	<path d="M35.9,47.9c-7.1,0-12.9-5.8-12.9-12.9c0-7.1,5.8-12.9,12.9-12.9S48.7,28,48.7,35.1C48.7,42.2,43,47.9,35.9,47.9z
		 M35.9,24.2c-6,0-10.9,4.9-10.9,10.9c0,6,4.9,10.9,10.9,10.9s10.9-4.9,10.9-10.9C46.8,29.1,41.9,24.2,35.9,24.2z"/>
</g>
</svg>
