<?xml version="1.0" encoding="utf-8"?>
<!-- Generator: Adobe Illustrator 20.1.0, SVG Export Plug-In . SVG Version: 6.00 Build 0)  -->
<svg version="1.1" id="Layer_1" xmlns="http://www.w3.org/2000/svg" xmlns:xlink="http://www.w3.org/1999/xlink" x="0px" y="0px"
	 viewBox="0 0 50 50" style="enable-background:new 0 0 50 50;" xml:space="preserve">
<g>
	<path d="M39.7,46.5H4.5c-0.2,0-0.4-0.2-0.4-0.4V8c0-0.2,0.2-0.4,0.4-0.4h29.6c0.2,0,0.4,0.2,0.4,0.4s-0.2,0.4-0.4,0.4H5v37.3h34.3
		V23c0-0.2,0.2-0.4,0.4-0.4s0.4,0.2,0.4,0.4v23.1C40.1,46.3,40,46.5,39.7,46.5z"/>
	<path d="M46.4,4.2C45.6,3.3,44.1,3,43.1,4L25.5,21.6c0,0-0.1,0.1-0.1,0.1l-2.2,5.1c-0.1,0.2,0,0.3,0.1,0.5c0.1,0.1,0.2,0.1,0.3,0.1
		c0.1,0,0.1,0,0.2,0l5.1-2.2c0,0,0.1-0.1,0.1-0.1L46.6,7.6C47.7,6.5,47.3,5.1,46.4,4.2z M28.5,24.5l-4.1,1.7l1.7-4.1l15-15l2.3,2.3
		L28.5,24.5z M46,7l-1.9,1.9l-2.3-2.3l1.9-1.9c0.7-0.7,1.6-0.4,2.2,0.2C46.4,5.4,46.7,6.3,46,7z"/>
</g>
</svg>
