<?xml version="1.0" encoding="utf-8"?>
<!-- Generator: Adobe Illustrator 21.0.0, SVG Export Plug-In . SVG Version: 6.00 Build 0)  -->
<svg version="1.1" id="Layer_1" xmlns="http://www.w3.org/2000/svg" xmlns:xlink="http://www.w3.org/1999/xlink" x="0px" y="0px"
	 viewBox="0 0 250 250" style="enable-background:new 0 0 250 250;" xml:space="preserve">
<style type="text/css">
	.st0{stroke:#000000;stroke-width:0.5;stroke-miterlimit:10;}
	.st1{fill:#CCCCCC;}
</style>
<g>
	<path class="st0" d="M76.2,182l-0.2,0.3c-0.5-0.6-1-0.8-1.8-0.8c-1.9,0-3.1,1.4-3.1,3.6v2.2H76v0.4h-4.9v12.8h-0.4v-12.8h-2.6v-0.4
		h2.6v-2.2c0-2.5,1.3-4,3.5-4C75.2,181.2,75.8,181.5,76.2,182z M79.2,184.2c0,0.3-0.2,0.6-0.6,0.6c-0.3,0-0.6-0.2-0.6-0.6
		s0.2-0.6,0.6-0.6C79,183.7,79.2,183.9,79.2,184.2z M78.4,187.4h0.4v13.2h-0.4V187.4z"/>
	<path class="st0" d="M94.1,191.9v8.7h-0.4V192c0-2.8-1.8-4.5-4.6-4.5c-3.1,0-5.4,2.4-5.4,5.1v7.9h-0.4v-13.2h0.4v3.5
		c0.6-2.2,2.7-3.8,5.5-3.8C92.3,187.1,94.1,188.9,94.1,191.9z"/>
	<path class="st0" d="M109.8,200.3l0,0.4c-0.2,0.2-0.5,0.2-0.9,0.2c-0.8,0-1.9-0.4-1.9-2.4v-0.4c-0.7,1.9-3.2,2.8-5.4,2.8
		c-2.6,0-4.1-1.2-4.1-3.1c0-2.1,1.4-3.2,4.9-3.8l4.7-0.9v-1.6c0-2.5-1.5-3.9-4.2-3.9c-2.4,0-3.9,0.9-4.7,3.1l-0.3-0.3
		c0.8-2.2,2.4-3.2,5.1-3.2c3,0,4.6,1.5,4.6,4.3v7.2c0,1.3,0.6,1.9,1.5,1.9C109.2,200.5,109.6,200.4,109.8,200.3z M106.9,196.6v-3.2
		l-4.4,0.8c-3.5,0.6-4.7,1.7-4.7,3.5c0,1.7,1.4,2.7,3.8,2.7C103.7,200.5,106.9,199.4,106.9,196.6z"/>
	<path class="st0" d="M112.4,197.8c0,1.9,0.6,2.7,1.9,2.7c0.8,0,1.1-0.1,1.5-0.3v0.4c-0.3,0.2-0.8,0.3-1.5,0.3
		c-1.6,0-2.3-0.9-2.3-3.1v-16.4h0.4V197.8z"/>
	<path class="st0" d="M135.6,194.3h-11.1c0.1,3.9,2.1,6.2,5.6,6.2c2.2,0,4.1-1.1,5-3l0.3,0.2c-0.9,2-2.9,3.1-5.3,3.1
		c-3.8,0-6-2.6-6-6.9c0-4.3,2.2-6.9,5.9-6.9c3.5,0,5.6,2.6,5.6,7V194.3z M124.5,193.9h10.7c-0.1-4-1.9-6.4-5.2-6.4
		C126.6,187.5,124.5,189.9,124.5,193.9z"/>
	<path class="st0" d="M147.9,200.6l-5.4-6.5l-5.1,6.5h-0.6l5.4-6.9l-5.2-6.3h0.6l4.9,5.9l4.6-5.9h0.6l-4.9,6.3l5.7,6.9H147.9z"/>
	<path class="st0" d="M162.3,200.3l0,0.4c-0.2,0.2-0.5,0.2-0.9,0.2c-0.8,0-1.9-0.4-1.9-2.4v-0.4c-0.7,1.9-3.2,2.8-5.4,2.8
		c-2.6,0-4.1-1.2-4.1-3.1c0-2.1,1.4-3.2,4.9-3.8l4.7-0.9v-1.6c0-2.5-1.5-3.9-4.2-3.9c-2.4,0-3.9,0.9-4.7,3.1l-0.3-0.3
		c0.8-2.2,2.4-3.2,5.1-3.2c3,0,4.6,1.5,4.6,4.3v7.2c0,1.3,0.6,1.9,1.5,1.9C161.7,200.5,162,200.4,162.3,200.3z M159.4,196.6v-3.2
		l-4.4,0.8c-3.5,0.6-4.7,1.7-4.7,3.5c0,1.7,1.4,2.7,3.8,2.7C156.2,200.5,159.4,199.4,159.4,196.6z"/>
	<path class="st0" d="M185.7,191.9v8.7h-0.4v-8.6c0-2.8-1.8-4.5-4.6-4.5c-3.1,0-5.4,2.4-5.4,5.1v8h-0.4V192c0-2.8-1.8-4.5-4.6-4.5
		c-3.1,0-5.4,2.4-5.4,5.1v7.9h-0.4v-13.2h0.4v3.5c0.6-2.2,2.7-3.8,5.5-3.8c2.7,0,4.5,1.4,4.9,3.9c0.5-2.3,2.7-4,5.5-4
		C183.9,187.1,185.7,188.8,185.7,191.9z"/>
</g>
<path class="st1" d="M125.1,244.6c-66.1,0-119.9-53.8-119.9-119.9S58.9,4.7,125.1,4.7S245,58.5,245,124.7S191.2,244.6,125.1,244.6z
	 M125.1,6.1C59.7,6.1,6.5,59.3,6.5,124.7c0,65.4,53.2,118.6,118.6,118.6c65.4,0,118.6-53.2,118.6-118.6
	C243.6,59.3,190.4,6.1,125.1,6.1z"/>
<g>
	<path d="M176.1,166.7l-8.9-17.9V52.5H185v96.4L176.1,166.7z M169.9,148.2l6.2,12.4l6.2-12.4v-93h-12.4V148.2z"/>
	<polygon points="162.3,80.3 159.6,80.3 159.6,60 168.5,60 168.5,62.8 162.3,62.8 	"/>
	<path d="M145.3,165H64.9V52.5h56.8L145.3,76V165z M67.6,162.3h74.9V77.1l-21.9-21.9h-53V162.3z"/>
	<polygon points="143.9,77.9 119.8,77.9 119.8,53.8 122.6,53.8 122.6,75.2 143.9,75.2 	"/>
</g>
<g>
	<path d="M104.5,153.4c-2.6,0-4.8-2-5.5-4.9c-3.9-1.1-7.6-3.2-10.8-6.5c-1.3-1.3-2.6-2.8-3.7-4.5c-4.7-6.8-7.4-15.8-7.6-25.3
		l-0.2-0.2c-2.4-3-3.6-6.4-3.6-9.8c0-10.3,10.9-18.8,26.1-20.4c-0.3-4.3,0.7-8.5,3-12.1c0.6-1,1.6-1.7,2.7-1.9
		c1.1-0.3,2.3-0.1,3.3,0.5c1,0.6,1.7,1.6,1.9,2.7c0.3,1.1,0.1,2.3-0.5,3.3c-1.4,2.2-1.9,4.8-1.7,7.4c9.4,0.6,17.7,3.9,22.8,9
		c3.4,3.4,5.2,7.4,5.2,11.5c0,3.4-1.3,6.8-3.6,9.8l-0.2,0.2c-0.3,17.7-9.5,32.6-22.1,36.1C109.4,151.3,107.1,153.4,104.5,153.4
		C104.6,153.4,104.5,153.4,104.5,153.4z M106,70.5c-0.1,0-0.2,0-0.4,0c-0.4,0.1-0.8,0.4-1,0.7c-2.1,3.4-3,7.6-2.4,11.7l0.2,1.4
		l-1.4,0.1c-14.5,1.1-25,8.6-25,17.8c0,2.8,1.1,5.6,3,8.1l0.7,0.9l0,0.5c0.1,9.1,2.6,17.7,7.1,24.2c1,1.5,2.2,2.9,3.4,4.1
		c3.1,3.1,6.6,5.1,10.3,5.9l0.9,0.2l0.1,1c0.2,2,1.5,3.5,3,3.5c0,0,0,0,0,0c1.5,0,2.7-1.5,3-3.5l0.1-1l0.9-0.2
		c11.9-2.8,20.7-17.1,20.8-34.2l0-0.5l0.8-0.9c2-2.5,3-5.3,3-8.1c0-3.4-1.5-6.7-4.4-9.6c-4.8-4.8-12.9-7.8-22.1-8.3l-1.1,0l-0.2-1
		c-0.7-3.6,0-7.3,1.9-10.4c0.2-0.4,0.3-0.8,0.2-1.2c-0.1-0.4-0.3-0.8-0.7-1C106.6,70.6,106.3,70.5,106,70.5z M104.6,143.2
		c-5.7,0-11-3.2-15.1-9.1c-4.2-6-6.5-14.1-6.5-22.7c0-0.2,0-0.3,0-0.5L83,110l0.9-0.3c6-2.1,13.2-3.2,20.7-3.2
		c7.5,0,14.6,1.1,20.7,3.2l0.9,0.3l0,1.4C126.2,129,116.5,143.2,104.6,143.2z M85.7,112c0.1,7.8,2.2,15.1,6,20.6
		c3.6,5.1,8.1,7.9,12.9,7.9c10.3,0,18.7-12.7,18.9-28.5c-5.6-1.8-12.1-2.7-18.9-2.7C97.7,109.3,91.2,110.2,85.7,112z M128.4,107.4
		l-1.1-0.4c-6.5-2.4-14.6-3.7-22.7-3.7c-8.1,0-16.2,1.3-22.7,3.7l-1.1,0.4l-0.5-1.1c-0.7-1.3-1-2.7-1-4c0-4,2.8-7.8,7.8-10.6
		c4.8-2.7,11-4.1,17.5-4.1c0,0,0,0,0,0c9,0,17.4,2.8,22,7.4c1.6,1.6,3.4,4.1,3.4,7.3c0,1.3-0.3,2.7-1,4L128.4,107.4z M104.6,100.6
		c8.1,0,15.8,1.2,22.4,3.4c0.2-0.6,0.3-1.1,0.3-1.7c0-2.3-1.4-4.2-2.6-5.4c-4.1-4.1-11.8-6.6-20.1-6.6c0,0,0,0,0,0
		c-6,0-11.9,1.4-16.2,3.8c-4.1,2.3-6.4,5.3-6.4,8.2c0,0.6,0.1,1.1,0.3,1.7C88.8,101.8,96.5,100.6,104.6,100.6z"/>
</g>
</svg>
