<?xml version="1.0" encoding="utf-8"?>
<!-- Generator: Adobe Illustrator 21.0.0, SVG Export Plug-In . SVG Version: 6.00 Build 0)  -->
<svg version="1.1" id="Layer_1" xmlns="http://www.w3.org/2000/svg" xmlns:xlink="http://www.w3.org/1999/xlink" x="0px" y="0px"
	 viewBox="0 0 200 200" style="enable-background:new 0 0 200 200;" xml:space="preserve">
<style type="text/css">
	.st0{stroke:#000000;stroke-width:0.5;stroke-miterlimit:10;}
	.st1{fill:#CCCCCC;}
</style>
<g>
	<path d="M102,116.5c-1.8,0-3.2-1.4-3.7-3.4c-2.8-0.7-5.3-2.2-7.6-4.5c-0.9-0.9-1.8-2-2.6-3.1c-3.3-4.7-5.2-11-5.3-17.6l-0.2-0.2
		c-1.6-2.1-2.5-4.4-2.5-6.7c0-7.2,7.6-13,18.3-14.1c-0.2-3,0.5-6,2-8.5c0.4-0.6,1-1.1,1.8-1.3c0.7-0.2,1.5,0,2.1,0.4
		c1.3,0.8,1.7,2.6,0.9,3.9c-1,1.6-1.4,3.5-1.2,5.4c6.6,0.4,12.4,2.7,16,6.3c2.3,2.3,3.5,5.1,3.5,7.9c0,2.3-0.9,4.7-2.5,6.7l-0.2,0.2
		c-0.2,12.3-6.6,22.8-15.4,25.2C105.3,115.1,103.8,116.5,102,116.5C102,116.5,102,116.5,102,116.5z M103,58.5c-0.1,0-0.2,0-0.3,0
		c-0.3,0.1-0.6,0.3-0.8,0.6c-1.5,2.4-2.1,5.4-1.7,8.3l0.1,0.8l-0.8,0.1C89.2,69.1,81.8,74.4,81.8,81c0,2,0.8,4,2.2,5.8l0.5,0.6
		l0,0.3c0,6.4,1.8,12.5,5,17c0.7,1.1,1.5,2,2.4,2.9c2.2,2.2,4.7,3.6,7.3,4.2l0.5,0.1l0.1,0.5c0.2,1.5,1.2,2.6,2.3,2.6c0,0,0,0,0,0
		c1.1,0,2.1-1.1,2.3-2.6l0.1-0.5l0.5-0.1c8.4-2,14.6-12.1,14.7-24.1l0-0.3l0.5-0.6c1.4-1.8,2.2-3.8,2.2-5.8c0-2.5-1.1-4.8-3.1-6.9
		c-3.4-3.4-9.1-5.5-15.6-5.8l-0.6,0l-0.1-0.6c-0.5-2.5,0-5,1.3-7.1c0.4-0.6,0.2-1.4-0.4-1.8C103.5,58.6,103.3,58.5,103,58.5z
		 M102,109.4c-3.9,0-7.6-2.2-10.4-6.3c-2.9-4.2-4.5-9.8-4.5-15.8c0-0.1,0-0.2,0-0.3l0-0.5l0.5-0.2c4.2-1.5,9.2-2.2,14.4-2.2
		c5.2,0,10.2,0.8,14.4,2.2l0.5,0.2l0,0.8C117,99.5,110.3,109.4,102,109.4z M88.6,87.6c0,5.6,1.5,10.8,4.3,14.6
		c2.5,3.6,5.8,5.6,9.2,5.6c7.3,0,13.3-9.1,13.4-20.3c-4-1.3-8.6-2-13.4-2C97.2,85.7,92.6,86.3,88.6,87.6z M118.6,84.3l-0.6-0.2
		c-4.6-1.7-10.2-2.6-16-2.6c-5.7,0-11.4,0.9-16,2.6l-0.6,0.2l-0.3-0.6c-0.5-0.9-0.7-1.8-0.7-2.7c0-2.7,1.9-5.3,5.4-7.2
		c3.3-1.8,7.7-2.9,12.2-2.9c0,0,0,0,0,0c6.2,0,12.1,2,15.2,5.1c1.1,1.1,2.3,2.8,2.3,5c0,0.9-0.2,1.8-0.7,2.7L118.6,84.3z M102,80
		c5.7,0,11.1,0.8,15.8,2.4c0.2-0.5,0.3-1,0.3-1.4c0-1.7-1-3-1.9-3.9c-2.9-2.9-8.3-4.7-14.2-4.7c0,0,0,0,0,0c-4.2,0-8.4,1-11.4,2.7
		C87.6,76.7,86,78.8,86,81c0,0.5,0.1,1,0.3,1.4C90.9,80.8,96.3,80,102,80z"/>
</g>
<g>
	<polygon points="134.3,125.2 67.5,125.2 67.5,53 123.1,53 123.1,54.5 69,54.5 69,123.7 132.8,123.7 132.8,81.6 134.3,81.6 	"/>
	<g>
		<path d="M126.7,88.4l-1.5-7.6l0-0.1l5.4-28.4c0.3-1.7,1.9-2.3,3.3-2c1.4,0.3,2.7,1.4,2.3,3.1l-5.5,28.6L126.7,88.4z M126.2,80.8
			l1,5.1l2.8-4.4l5.4-28.3c0.2-1.1-0.6-1.8-1.6-2c-0.9-0.2-2,0.1-2.2,1.3L126.2,80.8z"/>
		<rect x="132.3" y="54" transform="matrix(0.1875 -0.9823 0.9823 0.1875 52.5162 176.2537)" width="0.9" height="4.8"/>
	</g>
</g>
<g>
	<path class="st0" d="M46.9,142.7l-0.1,0.2c-0.3-0.4-0.7-0.6-1.4-0.6c-1.4,0-2.3,1-2.3,2.7v1.6h3.6v0.3h-3.6v9.4h-0.3v-9.4h-1.9
		v-0.3h1.9V145c0-1.8,1-2.9,2.6-2.9C46.2,142.1,46.6,142.3,46.9,142.7z M49.1,144.3c0,0.3-0.2,0.4-0.4,0.4c-0.3,0-0.4-0.2-0.4-0.4
		c0-0.3,0.2-0.4,0.4-0.4C48.9,143.9,49.1,144.1,49.1,144.3z M48.5,146.6h0.3v9.7h-0.3V146.6z"/>
	<path class="st0" d="M60,149.9v6.4h-0.3V150c0-2.1-1.3-3.3-3.3-3.3c-2.3,0-4,1.8-4,3.8v5.8h-0.3v-9.7h0.3v2.6c0.4-1.6,2-2.8,4-2.8
		C58.7,146.4,60,147.7,60,149.9z"/>
	<path class="st0" d="M71.5,156l0,0.3c-0.2,0.1-0.4,0.2-0.7,0.2c-0.6,0-1.4-0.3-1.4-1.8v-0.3c-0.5,1.4-2.4,2-4,2c-1.9,0-3-0.9-3-2.3
		c0-1.5,1-2.3,3.6-2.8l3.4-0.6v-1.2c0-1.8-1.1-2.9-3.1-2.9c-1.8,0-2.9,0.7-3.5,2.3l-0.3-0.2c0.6-1.6,1.8-2.4,3.7-2.4
		c2.2,0,3.4,1.1,3.4,3.1v5.3c0,0.9,0.4,1.4,1.1,1.4C71.1,156.2,71.3,156.2,71.5,156z M69.4,153.4V151l-3.2,0.6
		c-2.5,0.5-3.5,1.3-3.5,2.6c0,1.3,1,2,2.8,2C67.1,156.2,69.4,155.4,69.4,153.4z"/>
	<path class="st0" d="M73.4,154.2c0,1.4,0.5,2,1.4,2c0.6,0,0.8-0.1,1.1-0.2v0.3c-0.3,0.1-0.6,0.2-1.1,0.2c-1.1,0-1.7-0.7-1.7-2.3
		v-12h0.3V154.2z"/>
	<path class="st0" d="M90.6,149.9v6.4h-0.3V150c0-2.1-1.3-3.3-3.3-3.3c-2.3,0-4,1.8-4,3.8v5.8h-0.3v-14.1H83v7c0.4-1.6,2-2.8,4-2.8
		C89.2,146.4,90.6,147.7,90.6,149.9z"/>
	<path class="st0" d="M102.1,156l0,0.3c-0.2,0.1-0.4,0.2-0.7,0.2c-0.6,0-1.4-0.3-1.4-1.8v-0.3c-0.5,1.4-2.4,2-4,2
		c-1.9,0-3-0.9-3-2.3c0-1.5,1-2.3,3.6-2.8l3.4-0.6v-1.2c0-1.8-1.1-2.9-3.1-2.9c-1.8,0-2.9,0.7-3.5,2.3l-0.3-0.2
		c0.6-1.6,1.8-2.4,3.7-2.4c2.2,0,3.4,1.1,3.4,3.1v5.3c0,0.9,0.4,1.4,1.1,1.4C101.6,156.2,101.9,156.2,102.1,156z M100,153.4V151
		l-3.2,0.6c-2.5,0.5-3.5,1.3-3.5,2.6c0,1.3,1,2,2.8,2C97.6,156.2,100,155.4,100,153.4z"/>
	<path class="st0" d="M111.6,149.9v6.4h-0.3V150c0-2.1-1.3-3.3-3.3-3.3c-2.3,0-4,1.8-4,3.8v5.8h-0.3v-9.7h0.3v2.6
		c0.4-1.6,2-2.8,4-2.8C110.3,146.4,111.6,147.7,111.6,149.9z"/>
	<path class="st0" d="M122.8,142.2v14.1h-0.3v-2.9c-0.5,2-1.9,3.1-3.9,3.1c-2.8,0-4.4-1.9-4.4-5c0-3.1,1.6-5,4.4-5
		c2,0,3.4,1.1,3.9,3.1v-7.3H122.8z M122.5,151.5v-0.1c0-2.9-1.5-4.7-3.9-4.7c-2.6,0-4.2,1.8-4.2,4.8s1.5,4.8,4.2,4.8
		C121,156.2,122.5,154.5,122.5,151.5z"/>
	<path class="st0" d="M125.2,154.1l0.3-0.1c0.3,1.4,1.7,2.2,3.7,2.2c2,0,3.3-0.9,3.3-2.3c0-1.2-0.8-1.8-3.3-2.2
		c-2.7-0.5-3.6-1.2-3.6-2.6c0-1.5,1.5-2.6,3.6-2.6c2,0,3.2,0.7,3.6,2.4l-0.3,0.2c-0.3-1.6-1.5-2.3-3.3-2.3c-1.9,0-3.3,1-3.3,2.3
		c0,1.3,0.9,2,3.4,2.4c2.6,0.4,3.5,1.2,3.5,2.5c0,1.6-1.4,2.6-3.7,2.6C127.1,156.5,125.5,155.7,125.2,154.1z"/>
	<path class="st0" d="M140,151.2h-5.4v-0.3h5.4V151.2z"/>
	<path class="st0" d="M151.3,151.5c0,3.1-1.7,5-4.5,5s-4.5-1.9-4.5-5c0-3.1,1.7-5,4.5-5S151.3,148.3,151.3,151.5z M142.6,151.5
		c0,3,1.6,4.8,4.2,4.8c2.6,0,4.2-1.8,4.2-4.8c0-3-1.6-4.8-4.2-4.8C144.2,146.7,142.6,148.5,142.6,151.5z"/>
	<path class="st0" d="M161.9,149.9v6.4h-0.3V150c0-2.1-1.3-3.3-3.3-3.3c-2.3,0-4,1.8-4,3.8v5.8H154v-9.7h0.3v2.6
		c0.4-1.6,2-2.8,4-2.8C160.5,146.4,161.9,147.7,161.9,149.9z"/>
</g>
<path class="st1" d="M100.1,188.5c-48.4,0-87.9-39.4-87.9-87.9s39.4-87.9,87.9-87.9s87.9,39.4,87.9,87.9S148.5,188.5,100.1,188.5z
	 M100.1,13.8c-47.9,0-86.9,39-86.9,86.9c0,47.9,39,86.9,86.9,86.9c47.9,0,86.9-39,86.9-86.9C186.9,52.8,148,13.8,100.1,13.8z"/>
</svg>
