<?xml version="1.0" encoding="utf-8"?>
<!-- Generator: Adobe Illustrator 20.1.0, SVG Export Plug-In . SVG Version: 6.00 Build 0)  -->
<svg version="1.1" id="Layer_1" xmlns="http://www.w3.org/2000/svg" xmlns:xlink="http://www.w3.org/1999/xlink" x="0px" y="0px"
	 viewBox="0 0 206 50" style="enable-background:new 0 0 206 50;" xml:space="preserve">
<style type="text/css">
	.st0{fill-rule:evenodd;clip-rule:evenodd;}
</style>
<g>
	<g>
		<g>
			<g>
				<path class="st0" d="M20.5,10.8c0.1-0.6,0-1.3-0.4-1.9c-0.1-0.2-0.4-0.3-0.6-0.1c-0.2,0.1-0.3,0.4-0.1,0.6
					c0.3,0.4,0.3,0.9,0.2,1.4c-1.4,0.1-2.6,0.5-3.4,1.3c-0.5,0.5-0.7,1-0.7,1.6c0,0.5,0.2,0.9,0.5,1.3l0.1,0.1
					c0,2.6,1.4,4.8,3.2,5.2c0,0.4,0.3,0.7,0.6,0.7c0.3,0,0.6-0.3,0.6-0.7c0.6-0.1,1.1-0.4,1.6-0.9c0.2-0.2,0.4-0.4,0.5-0.6
					c0.7-1,1.1-2.3,1.1-3.7l0.1-0.1c0.3-0.4,0.5-0.9,0.5-1.3C24.3,12.1,22.7,11,20.5,10.8L20.5,10.8z M22.9,14.9
					c0,1.2-0.3,2.4-0.9,3.2c-0.6,0.8-1.3,1.3-2.1,1.3c-1.6,0-3-2-3-4.5c0,0,0,0,0-0.1c0.9-0.3,1.9-0.5,3-0.5
					C21,14.4,22,14.6,22.9,14.9C22.9,14.9,22.9,14.9,22.9,14.9L22.9,14.9z M23.4,13.6c0,0.2,0,0.3-0.1,0.5c-1-0.4-2.2-0.6-3.4-0.6
					c-1.2,0-2.4,0.2-3.4,0.6c-0.1-0.2-0.1-0.3-0.1-0.5c0-0.4,0.2-0.7,0.4-0.9c0.6-0.6,1.8-1,3.1-1C21.8,11.6,23.4,12.5,23.4,13.6
					L23.4,13.6z M23.4,13.6"/>
			</g>
			<g>
				<g>
					<path class="st0" d="M16.1,23.8c0.6,0.1,1.3-0.1,1.8-0.5c0.2-0.1,0.3-0.4,0.1-0.6c-0.1-0.2-0.4-0.3-0.6-0.1
						c-0.4,0.3-0.9,0.4-1.4,0.3c-0.1-1.4-0.6-2.6-1.4-3.3c-0.5-0.4-1-0.7-1.6-0.6c-0.5,0-0.9,0.2-1.3,0.5l-0.1,0.1
						c-2.6,0.1-4.7,1.6-5.1,3.4c-0.4,0.1-0.7,0.3-0.7,0.7c0,0.3,0.3,0.6,0.7,0.6c0.2,0.6,0.5,1.1,1,1.6c0.2,0.2,0.4,0.3,0.6,0.5
						c1,0.6,2.3,1,3.7,0.9l0.1,0.1c0.4,0.3,0.9,0.5,1.3,0.4C14.9,27.7,16,26,16.1,23.8L16.1,23.8z M12,26.3c-1.2,0-2.4-0.2-3.3-0.8
						c-0.8-0.5-1.3-1.2-1.3-2c-0.1-1.6,1.9-3.1,4.4-3.1c0,0,0,0,0.1,0c0.3,0.8,0.5,1.9,0.6,3C12.5,24.4,12.3,25.5,12,26.3
						C12.1,26.3,12,26.3,12,26.3L12,26.3z M13.4,26.8c-0.2,0-0.3,0-0.5-0.1c0.3-1,0.5-2.2,0.4-3.4c0-1.2-0.3-2.4-0.7-3.4
						c0.2-0.1,0.3-0.1,0.5-0.1c0.4,0,0.7,0.2,0.9,0.4c0.7,0.6,1.1,1.8,1.2,3C15.3,25.1,14.4,26.8,13.4,26.8L13.4,26.8z M13.4,26.8"
						/>
				</g>
				<g>
					<path class="st0" d="M23.7,23.8c0.1,2.2,1.2,3.9,2.7,4c0.5,0,0.9-0.1,1.3-0.4l0.1-0.1c1.4,0,2.7-0.3,3.7-0.9
						c0.2-0.2,0.5-0.3,0.6-0.5c0.5-0.5,0.8-1,1-1.6c0.4,0,0.7-0.3,0.7-0.6c0-0.3-0.3-0.6-0.7-0.7c-0.3-1.8-2.5-3.3-5.1-3.4L28,19.4
						c-0.4-0.3-0.8-0.5-1.3-0.5c-0.6,0-1.1,0.2-1.6,0.6c-0.8,0.7-1.3,1.9-1.4,3.3c-0.5,0.1-1,0-1.4-0.3c-0.2-0.1-0.5-0.1-0.6,0.1
						c-0.1,0.2-0.1,0.5,0.1,0.6C22.5,23.7,23.1,23.8,23.7,23.8L23.7,23.8z M27.8,26.3C27.8,26.3,27.8,26.3,27.8,26.3
						c-0.3-0.9-0.4-1.9-0.4-3c0-1.1,0.2-2.1,0.6-3c0,0,0,0,0.1,0c2.5,0.1,4.4,1.5,4.4,3.1c0,0.8-0.5,1.5-1.3,2
						C30.2,26.1,29,26.4,27.8,26.3L27.8,26.3z M26.4,26.8c-1.1,0-1.9-1.7-1.8-3.6c0-1.3,0.5-2.4,1.2-3c0.2-0.2,0.5-0.4,0.9-0.4
						c0.2,0,0.3,0.1,0.5,0.1c-0.4,1-0.6,2.1-0.7,3.4c0,1.2,0.1,2.4,0.4,3.4C26.8,26.8,26.6,26.8,26.4,26.8L26.4,26.8z M26.4,26.8"/>
				</g>
			</g>
			<g>
				<g>
					<path class="st0" d="M17.6,29.6c0.4-0.5,0.6-1.1,0.6-1.8c0-0.2-0.2-0.4-0.5-0.4c-0.2,0-0.4,0.2-0.4,0.5c0,0.5-0.2,1-0.5,1.3
						c-1.2-0.6-2.5-0.9-3.6-0.6c-0.6,0.2-1.1,0.5-1.4,1c-0.2,0.4-0.3,0.9-0.2,1.4l0,0.1c-1.3,2.3-1.2,4.9,0.2,6.1
						c-0.2,0.4-0.1,0.8,0.2,0.9c0.3,0.2,0.7,0,0.9-0.3c0.6,0.2,1.2,0.2,1.9,0c0.3-0.1,0.5-0.2,0.8-0.3c1.1-0.5,2.1-1.5,2.8-2.6
						l0.1,0c0.5-0.2,0.9-0.5,1.1-0.9C20.3,32.7,19.4,30.9,17.6,29.6L17.6,29.6z M17.6,34.4c-0.6,1.1-1.5,1.9-2.4,2.3
						c-0.9,0.4-1.7,0.4-2.4,0.1c-1.4-0.8-1.6-3.2-0.4-5.4c0,0,0,0,0-0.1c0.9,0.2,1.9,0.5,2.8,1.1C16.3,33,17.1,33.7,17.6,34.4
						C17.7,34.4,17.7,34.4,17.6,34.4L17.6,34.4z M18.8,33.5c-0.1,0.1-0.2,0.3-0.4,0.4c-0.7-0.8-1.6-1.6-2.7-2.2
						c-1.1-0.6-2.2-1-3.2-1.2c0-0.2,0.1-0.4,0.1-0.5c0.2-0.4,0.6-0.5,0.8-0.6c0.9-0.2,2.1,0,3.2,0.6C18.4,31,19.3,32.6,18.8,33.5
						L18.8,33.5z M18.8,33.5"/>
				</g>
				<g>
					<path class="st0" d="M22.8,29c-2,1-3,2.8-2.4,4.1c0.2,0.4,0.5,0.8,1,1l0.1,0c0.6,1.3,1.4,2.3,2.4,3c0.2,0.2,0.5,0.3,0.7,0.4
						c0.6,0.3,1.3,0.3,1.9,0.2c0.2,0.3,0.6,0.5,0.9,0.4c0.3-0.1,0.4-0.5,0.3-0.9c1.5-1.1,1.9-3.6,0.9-6.1l0-0.1
						c0.1-0.5,0.1-1-0.1-1.4c-0.2-0.5-0.7-0.9-1.3-1.2c-1-0.4-2.3-0.3-3.6,0.2c-0.3-0.4-0.4-0.9-0.3-1.4c0-0.2-0.1-0.5-0.4-0.5
						c-0.2,0-0.5,0.1-0.5,0.4C22.3,27.8,22.4,28.5,22.8,29L22.8,29z M22.2,33.8C22.2,33.8,22.2,33.7,22.2,33.8
						c0.7-0.7,1.5-1.2,2.5-1.6c1-0.4,2-0.7,2.9-0.7c0,0,0,0,0,0.1c1,2.3,0.5,4.6-1,5.3c-0.7,0.3-1.5,0.2-2.4-0.3
						C23.4,35.8,22.7,34.9,22.2,33.8L22.2,33.8z M21.1,32.8c-0.4-1,0.7-2.4,2.5-3.2c1.2-0.5,2.4-0.6,3.2-0.3
						c0.3,0.1,0.6,0.3,0.8,0.7c0.1,0.2,0.1,0.3,0.1,0.5c-1,0.1-2.2,0.3-3.4,0.8c-1.1,0.5-2.2,1.1-2.9,1.8
						C21.3,33.1,21.2,32.9,21.1,32.8L21.1,32.8z M21.1,32.8"/>
				</g>
			</g>
		</g>
		<g>
			<path d="M46.7,14.2c-0.4-0.3-0.9-0.5-1.3-0.7c-0.4-0.2-0.8-0.3-1.3-0.5c-0.5-0.1-0.9-0.2-1.4-0.2c-0.4,0-0.7,0.1-0.9,0.2
				c-0.2,0.1-0.3,0.3-0.3,0.6c0,0.2,0.1,0.4,0.2,0.5s0.3,0.2,0.6,0.3c0.2,0.1,0.5,0.2,0.9,0.3c0.3,0.1,0.7,0.2,1.2,0.4
				c0.7,0.2,1.3,0.4,1.9,0.7c0.6,0.3,1,0.6,1.4,0.9c0.4,0.3,0.7,0.8,0.9,1.3c0.2,0.5,0.3,1.1,0.3,1.8c0,0.9-0.2,1.7-0.5,2.3
				c-0.3,0.6-0.8,1.1-1.3,1.5s-1.2,0.6-1.8,0.8s-1.4,0.2-2.1,0.2c-0.6,0-1.1,0-1.7-0.1c-0.6-0.1-1.2-0.2-1.7-0.4
				c-0.6-0.2-1.1-0.3-1.7-0.6c-0.5-0.2-1-0.5-1.5-0.7l1.8-3.6c0.5,0.3,1,0.6,1.5,0.8c0.5,0.2,1,0.4,1.5,0.6s1.2,0.3,1.7,0.3
				c0.5,0,0.8-0.1,0.9-0.2c0.2-0.1,0.3-0.3,0.3-0.5c0-0.2-0.1-0.4-0.3-0.5c-0.2-0.1-0.4-0.3-0.7-0.4c-0.3-0.1-0.7-0.2-1.1-0.3
				c-0.4-0.1-0.8-0.2-1.3-0.4c-0.7-0.2-1.2-0.5-1.7-0.7c-0.5-0.3-0.9-0.6-1.2-0.9c-0.3-0.3-0.5-0.7-0.7-1.1
				c-0.1-0.4-0.2-0.9-0.2-1.5c0-0.8,0.2-1.6,0.5-2.2c0.3-0.6,0.7-1.2,1.2-1.6s1.1-0.7,1.8-1c0.7-0.2,1.4-0.3,2.1-0.3
				c0.6,0,1.1,0.1,1.6,0.2c0.5,0.1,1,0.2,1.5,0.4c0.5,0.2,0.9,0.3,1.4,0.5s0.8,0.4,1.1,0.5L46.7,14.2z"/>
			<path d="M53.3,9.3l2.7,6.5l2.8-6.5h4.5l-5.2,10.1v5H54v-5l-5.1-10H53.3z"/>
			<path d="M72.8,14.2c-0.4-0.3-0.9-0.5-1.3-0.7c-0.4-0.2-0.8-0.3-1.3-0.5c-0.5-0.1-0.9-0.2-1.4-0.2c-0.4,0-0.7,0.1-0.9,0.2
				c-0.2,0.1-0.3,0.3-0.3,0.6c0,0.2,0.1,0.4,0.2,0.5s0.3,0.2,0.6,0.3c0.2,0.1,0.5,0.2,0.9,0.3c0.3,0.1,0.7,0.2,1.2,0.4
				c0.7,0.2,1.3,0.4,1.9,0.7c0.6,0.3,1,0.6,1.4,0.9c0.4,0.3,0.7,0.8,0.9,1.3c0.2,0.5,0.3,1.1,0.3,1.8c0,0.9-0.2,1.7-0.5,2.3
				c-0.3,0.6-0.8,1.1-1.3,1.5s-1.2,0.6-1.8,0.8s-1.4,0.2-2.1,0.2c-0.6,0-1.1,0-1.7-0.1c-0.6-0.1-1.2-0.2-1.7-0.4
				c-0.6-0.2-1.1-0.3-1.7-0.6c-0.5-0.2-1-0.5-1.5-0.7l1.8-3.6c0.5,0.3,1,0.6,1.5,0.8c0.5,0.2,1,0.4,1.5,0.6s1.2,0.3,1.7,0.3
				c0.5,0,0.8-0.1,0.9-0.2c0.2-0.1,0.3-0.3,0.3-0.5c0-0.2-0.1-0.4-0.3-0.5c-0.2-0.1-0.4-0.3-0.7-0.4c-0.3-0.1-0.7-0.2-1.1-0.3
				c-0.4-0.1-0.8-0.2-1.3-0.4c-0.7-0.2-1.2-0.5-1.7-0.7c-0.5-0.3-0.9-0.6-1.2-0.9c-0.3-0.3-0.5-0.7-0.7-1.1
				c-0.1-0.4-0.2-0.9-0.2-1.5c0-0.8,0.2-1.6,0.5-2.2c0.3-0.6,0.7-1.2,1.2-1.6s1.1-0.7,1.8-1c0.7-0.2,1.4-0.3,2.1-0.3
				c0.6,0,1.1,0.1,1.6,0.2c0.5,0.1,1,0.2,1.5,0.4c0.5,0.2,0.9,0.3,1.4,0.5s0.8,0.4,1.1,0.5L72.8,14.2z"/>
			<path d="M88.4,12.9h-4.3v11.4H80V12.9h-4.3V9.3h12.8V12.9z"/>
			<path d="M100.6,20.7v3.6H89.9v-15h10.5v3.6H94V15h5.5v3.3H94v2.4H100.6z"/>
			<path d="M113.9,24.3v-7.9l-2.5,5.6h-2.2l-2.5-5.6v7.9h-4.1v-15h4.5l3.2,7.1l3.3-7.1h4.5v15H113.9z"/>
			<path d="M129.7,14.2c-0.4-0.3-0.9-0.5-1.3-0.7c-0.4-0.2-0.8-0.3-1.3-0.5c-0.5-0.1-0.9-0.2-1.4-0.2c-0.4,0-0.7,0.1-0.9,0.2
				c-0.2,0.1-0.3,0.3-0.3,0.6c0,0.2,0.1,0.4,0.2,0.5s0.3,0.2,0.5,0.3c0.2,0.1,0.5,0.2,0.9,0.3s0.7,0.2,1.2,0.4
				c0.7,0.2,1.3,0.4,1.9,0.7c0.6,0.3,1,0.6,1.4,0.9c0.4,0.3,0.7,0.8,0.9,1.3c0.2,0.5,0.3,1.1,0.3,1.8c0,0.9-0.2,1.7-0.5,2.3
				c-0.3,0.6-0.8,1.1-1.3,1.5s-1.2,0.6-1.8,0.8s-1.4,0.2-2.1,0.2c-0.6,0-1.1,0-1.7-0.1c-0.6-0.1-1.2-0.2-1.7-0.4
				c-0.6-0.2-1.1-0.3-1.7-0.6c-0.5-0.2-1-0.5-1.5-0.7l1.8-3.6c0.5,0.3,1,0.6,1.5,0.8c0.5,0.2,1,0.4,1.5,0.6s1.2,0.3,1.7,0.3
				c0.5,0,0.8-0.1,0.9-0.2c0.2-0.1,0.3-0.3,0.3-0.5c0-0.2-0.1-0.4-0.3-0.5c-0.2-0.1-0.4-0.3-0.7-0.4c-0.3-0.1-0.7-0.2-1.1-0.3
				c-0.4-0.1-0.8-0.2-1.3-0.4c-0.7-0.2-1.2-0.5-1.7-0.7c-0.5-0.3-0.9-0.6-1.2-0.9c-0.3-0.3-0.5-0.7-0.7-1.1
				c-0.1-0.4-0.2-0.9-0.2-1.5c0-0.8,0.2-1.6,0.5-2.2s0.7-1.2,1.2-1.6s1.1-0.7,1.8-1c0.7-0.2,1.4-0.3,2.1-0.3c0.6,0,1.1,0.1,1.6,0.2
				c0.5,0.1,1,0.2,1.5,0.4c0.5,0.2,0.9,0.3,1.4,0.5c0.4,0.2,0.8,0.4,1.1,0.5L129.7,14.2z"/>
			<path d="M37.6,38.7V28.4h1v9.4h6v0.9H37.6z"/>
			<path d="M49.3,28.4h0.9l4.3,10.3h-1.1L52,35.5h-4.6l-1.3,3.2H45L49.3,28.4z M51.8,34.7l-2.1-5.1l-2.1,5.1H51.8z"/>
			<path d="M63.7,36c0,0.4-0.1,0.7-0.2,1.1c-0.2,0.3-0.4,0.6-0.6,0.8c-0.3,0.2-0.6,0.4-0.9,0.6c-0.3,0.1-0.7,0.2-1.1,0.2h-4.9V28.4
				h5c0.4,0,0.7,0.1,1,0.2c0.3,0.2,0.5,0.4,0.7,0.6c0.2,0.2,0.4,0.5,0.5,0.8s0.2,0.6,0.2,1c0,0.5-0.1,1-0.4,1.4
				c-0.3,0.4-0.6,0.8-1.1,1c0.6,0.2,1.1,0.5,1.4,1C63.5,34.9,63.7,35.4,63.7,36z M56.9,29.3v3.8h3.5c0.3,0,0.5-0.1,0.7-0.2
				c0.2-0.1,0.4-0.2,0.6-0.4c0.2-0.2,0.3-0.4,0.4-0.6c0.1-0.2,0.1-0.5,0.1-0.7c0-0.3,0-0.5-0.1-0.7c-0.1-0.2-0.2-0.4-0.3-0.6
				c-0.2-0.2-0.3-0.3-0.5-0.4c-0.2-0.1-0.4-0.2-0.7-0.2H56.9z M62.7,35.9c0-0.3,0-0.5-0.1-0.7c-0.1-0.2-0.2-0.4-0.4-0.6
				c-0.2-0.2-0.3-0.3-0.6-0.4c-0.2-0.1-0.5-0.2-0.7-0.2h-4v3.9h3.8c0.3,0,0.5-0.1,0.7-0.2s0.4-0.2,0.6-0.4c0.2-0.2,0.3-0.4,0.4-0.6
				C62.6,36.4,62.7,36.1,62.7,35.9z"/>
			<path d="M69.8,38.8c-0.7,0-1.4-0.1-2-0.4c-0.6-0.3-1.1-0.7-1.5-1.2c-0.4-0.5-0.8-1-1-1.7s-0.3-1.3-0.3-1.9c0-0.7,0.1-1.3,0.4-2
				c0.2-0.6,0.6-1.2,1-1.7c0.4-0.5,0.9-0.9,1.5-1.2c0.6-0.3,1.2-0.4,1.9-0.4c0.7,0,1.4,0.2,2,0.5c0.6,0.3,1.1,0.7,1.5,1.2
				c0.4,0.5,0.7,1.1,1,1.7c0.2,0.6,0.3,1.3,0.3,1.9c0,0.7-0.1,1.3-0.4,2c-0.2,0.6-0.6,1.2-1,1.7c-0.4,0.5-0.9,0.9-1.5,1.1
				C71.1,38.6,70.4,38.8,69.8,38.8z M65.9,33.5c0,0.6,0.1,1.1,0.3,1.6c0.2,0.5,0.4,1,0.8,1.4c0.3,0.4,0.7,0.7,1.2,1s1,0.4,1.6,0.4
				c0.6,0,1.1-0.1,1.6-0.4c0.5-0.3,0.9-0.6,1.2-1c0.3-0.4,0.6-0.9,0.8-1.4s0.3-1,0.3-1.6c0-0.6-0.1-1.1-0.3-1.6
				c-0.2-0.5-0.5-1-0.8-1.4c-0.3-0.4-0.7-0.7-1.2-1s-1-0.4-1.5-0.4c-0.6,0-1.1,0.1-1.6,0.4c-0.5,0.2-0.9,0.6-1.2,1
				c-0.3,0.4-0.6,0.9-0.8,1.4C66,32.5,65.9,33,65.9,33.5z"/>
			<path d="M76.5,38.7V28.4h4.4c0.4,0,0.9,0.1,1.2,0.3c0.4,0.2,0.7,0.4,1,0.7c0.3,0.3,0.5,0.7,0.6,1c0.1,0.4,0.2,0.8,0.2,1.2
				c0,0.4-0.1,0.7-0.2,1.1c-0.1,0.3-0.3,0.7-0.5,0.9c-0.2,0.3-0.4,0.5-0.7,0.7c-0.3,0.2-0.6,0.3-0.9,0.4l2.5,4H83l-2.4-3.8h-3.1v3.8
				H76.5z M77.5,34h3.4c0.3,0,0.6-0.1,0.8-0.2c0.2-0.1,0.5-0.3,0.6-0.5s0.3-0.5,0.4-0.8c0.1-0.3,0.1-0.6,0.1-0.9s-0.1-0.6-0.2-0.9
				c-0.1-0.3-0.3-0.5-0.5-0.7s-0.4-0.4-0.7-0.5c-0.3-0.1-0.5-0.2-0.8-0.2h-3.3V34z"/>
			<path d="M89,28.4h0.9l4.3,10.3h-1.1l-1.3-3.2h-4.6l-1.3,3.2h-1.1L89,28.4z M91.5,34.7l-2.1-5.1l-2.1,5.1H91.5z"/>
			<path d="M102,29.3h-3.7v9.4h-1v-9.4h-3.7v-0.9h8.4V29.3z"/>
			<path d="M107.2,38.8c-0.7,0-1.4-0.1-2-0.4c-0.6-0.3-1.1-0.7-1.5-1.2c-0.4-0.5-0.8-1-1-1.7s-0.3-1.3-0.3-1.9c0-0.7,0.1-1.3,0.4-2
				c0.2-0.6,0.6-1.2,1-1.7c0.4-0.5,0.9-0.9,1.5-1.2c0.6-0.3,1.2-0.4,1.9-0.4c0.7,0,1.4,0.2,2,0.5c0.6,0.3,1.1,0.7,1.5,1.2
				c0.4,0.5,0.7,1.1,1,1.7c0.2,0.6,0.3,1.3,0.3,1.9c0,0.7-0.1,1.3-0.4,2c-0.2,0.6-0.6,1.2-1,1.7c-0.4,0.5-0.9,0.9-1.5,1.1
				C108.5,38.6,107.9,38.8,107.2,38.8z M103.4,33.5c0,0.6,0.1,1.1,0.3,1.6c0.2,0.5,0.4,1,0.8,1.4c0.3,0.4,0.7,0.7,1.2,1
				s1,0.4,1.6,0.4c0.6,0,1.1-0.1,1.6-0.4c0.5-0.3,0.9-0.6,1.2-1c0.3-0.4,0.6-0.9,0.8-1.4c0.2-0.5,0.3-1,0.3-1.6
				c0-0.6-0.1-1.1-0.3-1.6c-0.2-0.5-0.5-1-0.8-1.4c-0.3-0.4-0.7-0.7-1.2-1s-1-0.4-1.5-0.4c-0.6,0-1.1,0.1-1.6,0.4
				c-0.5,0.2-0.9,0.6-1.2,1c-0.3,0.4-0.6,0.9-0.8,1.4C103.4,32.5,103.4,33,103.4,33.5z"/>
			<path d="M113.9,38.7V28.4h4.4c0.4,0,0.9,0.1,1.2,0.3c0.4,0.2,0.7,0.4,1,0.7c0.3,0.3,0.5,0.7,0.6,1s0.2,0.8,0.2,1.2
				c0,0.4-0.1,0.7-0.2,1.1s-0.3,0.7-0.5,0.9c-0.2,0.3-0.4,0.5-0.7,0.7c-0.3,0.2-0.6,0.3-0.9,0.4l2.5,4h-1.1l-2.4-3.8h-3.1v3.8H113.9
				z M114.9,34h3.4c0.3,0,0.6-0.1,0.8-0.2c0.2-0.1,0.5-0.3,0.6-0.5c0.2-0.2,0.3-0.5,0.4-0.8c0.1-0.3,0.1-0.6,0.1-0.9
				s-0.1-0.6-0.2-0.9c-0.1-0.3-0.3-0.5-0.4-0.7c-0.2-0.2-0.4-0.4-0.7-0.5c-0.3-0.1-0.5-0.2-0.8-0.2h-3.3V34z"/>
			<path d="M123.1,28.4l3.4,5.5l3.4-5.5h1.1l-4,6.5v3.8h-1v-3.9l-4-6.4H123.1z"/>
		</g>
	</g>
</g>
<rect x="146.2" y="5.7" width="1" height="38.3"/>
<g>
	<g>
		<ellipse transform="matrix(0.4138 -0.9104 0.9104 0.4138 94.0415 181.0895)" class="st0" cx="187.6" cy="17.5" rx="0" ry="0"/>
		<path class="st0" d="M162.8,17.4c0.2,0.2,0.2,0.2,0.3-0.1c0.1-0.2,0.2-0.4,0.3-0.6c-0.5,0-0.9-0.1-1.4-0.1
			C162.4,16.9,162.6,17.1,162.8,17.4z"/>
		<path class="st0" d="M161.6,23.5C161.6,23.5,161.6,23.5,161.6,23.5c-0.5,0.1-0.9,0.2-1.3,0.4c0.5,0.1,0.8,0.3,1.3,0.5
			C161.6,24.1,161.6,23.8,161.6,23.5z"/>
		<path class="st0" d="M162.4,31.7c0-0.1-0.1-0.2-0.2-0.3c-0.1-0.1-0.3-0.2-0.5-0.1c-0.2,0.1-0.3,0.2-0.3,0.4c0,0.1,0,0.1,0,0.2
			c0.1,0.3,0.2,0.6,0.3,0.8c0,0.1,0,0.1,0.1,0c0.2-0.1,0.5-0.2,0.7-0.3c0.1,0,0.1,0,0-0.1C162.6,32.2,162.5,32,162.4,31.7z"/>
		<path class="st0" d="M184.2,42.8c0-0.2-0.1-0.3-0.3-0.3c-0.2,0-0.3,0.1-0.3,0.3c0,0.2,0.1,0.3,0.3,0.3
			C184.1,43.1,184.2,43,184.2,42.8z"/>
		<path class="st0" d="M179.2,42.8c-0.2,0-0.3,0.1-0.3,0.3c0,0.2,0.1,0.3,0.3,0.3c0.2,0,0.3-0.1,0.3-0.3
			C179.6,42.9,179.4,42.8,179.2,42.8z"/>
		<path class="st0" d="M184.2,43.6c-0.1,0-0.3,0-0.4,0.1c-0.1,0.1-0.1,0.3,0,0.5c0.1,0.2,0.2,0.3,0.4,0.2c0.2,0,0.3-0.2,0.3-0.4
			c0,0,0-0.1,0-0.1C184.5,43.8,184.4,43.6,184.2,43.6z"/>
		<path class="st0" d="M179.2,43.9c-0.2,0-0.3,0.1-0.4,0.2c0,0.1,0,0.2,0,0.3c0,0.2,0.1,0.3,0.3,0.3c0.1,0,0.3,0,0.4-0.2
			c0-0.1,0.1-0.2,0.1-0.2C179.5,44.1,179.4,43.9,179.2,43.9z"/>
		<path class="st0" d="M198.4,33.3c-0.2-0.1-0.4-0.2-0.6-0.3c-0.1,0-0.1,0-0.1,0c-0.1,0.2-0.2,0.4-0.3,0.6c-0.1,0.1-0.1,0.2-0.1,0.3
			c0,0.2,0.2,0.4,0.4,0.4c0.1,0,0.3-0.1,0.3-0.2C198.2,33.9,198.3,33.7,198.4,33.3C198.5,33.4,198.4,33.3,198.4,33.3z"/>
		<path class="st0" d="M199.5,22.8c0,0.2,0,0.5,0.1,0.7c0,0,0,0.1,0,0.1c0.1,0.1,0.2,0.2,0.4,0.2c0.2,0,0.3-0.1,0.3-0.3
			c0-0.1,0-0.1,0-0.2c0,0,0,0,0,0c0-0.2,0-0.4-0.1-0.6c0-0.1,0-0.1-0.1-0.1C199.9,22.7,199.7,22.7,199.5,22.8
			C199.5,22.7,199.5,22.7,199.5,22.8z"/>
		<path class="st0" d="M198.4,16.4c0-0.1,0-0.2-0.1-0.2c-0.1-0.2-0.2-0.4-0.3-0.6c0-0.1-0.1,0-0.1,0c-0.2,0.1-0.4,0.2-0.7,0.4
			c-0.3,0.2-0.6,0.3-0.9,0.5c0,0-0.1,0-0.1,0.1c0.1,0.2,0.2,0.4,0.4,0.6c0.2,0.2,0.4,0.3,0.7,0.3c0.3-0.1,0.6-0.2,0.8-0.4
			C198.3,16.8,198.4,16.6,198.4,16.4z"/>
		<path class="st0" d="M199.2,22.8C199.2,22.8,199.1,22.7,199.2,22.8c-0.3,0-0.6,0-0.8,0c0,0-0.1,0-0.1,0.1c0,0.3,0,0.6,0.1,0.9
			c0.1,0.2,0.2,0.3,0.5,0.3c0.2,0,0.3-0.2,0.4-0.4c0-0.1,0-0.1,0-0.2c0,0,0,0,0,0C199.2,23.2,199.2,23,199.2,22.8z"/>
		<path class="st0" d="M202.2,23.4c-0.2-3.2-1.1-6.2-2.7-9.1c-0.4-0.7-0.8-1.4-1.3-2.1c0,0,0,0,0-0.1c0-0.1-0.1-0.1-0.1-0.2
			c0,0,0,0,0-0.1c0,0,0,0,0,0c0,0-0.1,0-0.1-0.1c0,0-0.1-0.1-0.1-0.1c0,0,0,0,0-0.1c0,0-0.1-0.1-0.1-0.1c0,0-0.1,0-0.1-0.1
			c0,0,0,0-0.1-0.1c0,0,0,0,0-0.1c0,0,0,0-0.1-0.1c0,0,0,0,0-0.1c0,0,0,0-0.1-0.1c0,0,0,0,0-0.1c0,0-0.1-0.1-0.1-0.1c0,0,0,0,0-0.1
			c0,0,0,0,0,0c0,0-0.1,0-0.1-0.1c0,0,0,0,0,0c-0.1,0-0.1-0.1-0.1-0.1c0,0,0,0-0.1-0.1c-0.1,0-0.1-0.1-0.1-0.1c0,0-0.1-0.1-0.1-0.1
			c0,0-0.1,0-0.1-0.1c0-0.1-0.1-0.1-0.1-0.2c0,0-0.1,0-0.1-0.1c0,0-0.1-0.1-0.1-0.1c0,0,0,0-0.1-0.1c0,0,0,0,0,0
			c-0.1,0-0.1-0.1-0.2-0.2l0,0c-0.1-0.1-0.2-0.2-0.3-0.3c-0.1-0.1-0.3-0.3-0.4-0.4c0,0,0,0,0,0l0,0c0,0-0.1,0-0.1-0.1
			c0,0-0.1-0.1-0.1-0.1c-0.1,0-0.1-0.1-0.1-0.1c0,0-0.1-0.1-0.1-0.1c-0.1,0-0.1-0.1-0.1-0.1c0,0,0,0-0.1-0.1c0,0-0.1,0-0.1-0.1
			c0,0-0.1-0.1-0.1-0.1c0,0-0.1,0-0.1-0.1c0,0,0,0,0,0c-0.1,0-0.1,0-0.1-0.1c0,0,0,0-0.1-0.1c0,0-0.1,0-0.1-0.1
			c-0.1,0-0.1-0.1-0.2-0.1c0,0,0,0-0.1,0c0,0,0,0,0,0c0,0,0,0-0.1,0c0,0,0,0,0,0c-0.1,0-0.1,0-0.1-0.1c0,0-0.1,0-0.1-0.1
			c0,0-0.1,0-0.1-0.1c0,0,0,0,0,0c0,0,0,0-0.1,0c0,0,0,0-0.1-0.1c0,0,0,0-0.1,0c0,0,0,0,0,0c0,0,0,0-0.1,0c0,0,0,0,0,0
			c0,0,0,0-0.1,0c0,0,0,0,0,0c0,0-0.1,0-0.1-0.1c0,0,0,0,0,0c0,0,0,0-0.1,0c0,0,0,0,0,0c0,0,0,0-0.1,0c0,0-0.1-0.1-0.1-0.1
			c0,0,0,0-0.1,0c0,0,0,0,0,0c-0.1,0-0.1,0-0.1-0.1c0,0,0,0,0,0c0,0,0,0-0.1,0c0,0,0,0,0,0c0,0,0,0-0.1,0c0,0,0,0,0,0c0,0,0,0-0.1,0
			c0,0,0,0,0,0c0,0,0,0-0.1,0c0,0,0,0,0,0c0,0-0.1,0-0.1-0.1c0,0,0,0-0.1,0c-0.1,0-0.2-0.1-0.2-0.2c0,0,0,0,0,0c0,0,0,0-0.1,0
			c0,0-0.1-0.1-0.1-0.1c0,0-0.1,0-0.1-0.1c0,0,0,0-0.1,0c0,0,0,0-0.1,0c-0.1,0-0.1-0.1-0.2-0.1c0,0,0,0-0.1,0c0,0,0,0,0,0
			c0,0,0,0-0.1,0c0,0,0,0-0.1,0c-0.1,0-0.2-0.1-0.2-0.1c0,0,0,0,0,0c-0.1,0-0.2-0.1-0.3-0.2c0,0,0,0-0.1,0c0,0,0,0-0.1,0
			c0,0-0.1,0-0.1-0.1c-0.1,0-0.2-0.1-0.2-0.1c0,0-0.1,0-0.1-0.1c0,0-0.1,0-0.1-0.1c0,0,0,0,0,0c0,0-0.1,0-0.1-0.1c0,0,0,0,0,0
			c0,0,0,0-0.1,0c0,0-0.1,0-0.1,0c0,0,0,0-0.1,0c0,0,0,0,0,0c0,0,0,0-0.1,0c0,0,0,0-0.1,0c-0.1,0-0.1,0-0.2-0.1c0,0,0,0-0.1,0
			c0,0-0.1,0-0.1-0.1c0,0,0,0,0,0c0,0-0.1,0-0.1,0c0,0-0.1,0-0.1,0c-0.1,0-0.1,0-0.2-0.1c0,0,0,0-0.1,0c-0.1,0-0.2-0.1-0.3-0.1
			c0,0,0,0-0.1,0c-0.1,0-0.2-0.1-0.3-0.1c0,0-0.1,0-0.1,0c-0.1,0-0.2,0-0.2-0.1c-0.1,0-0.1,0-0.2,0c0,0-0.1,0-0.1,0c0,0-0.1,0-0.1,0
			c0,0-0.1,0-0.1,0c0,0,0,0,0,0c-0.3-0.1-0.5-0.1-0.8-0.2c0,0,0,0,0,0c0,0,0,0-0.1,0c0,0,0,0,0,0c0,0,0,0,0,0c0,0,0,0,0,0
			c-0.1,0-0.2,0-0.3-0.1c0,0,0,0,0,0c0,0-0.1,0-0.1,0c0,0-0.1,0-0.1,0c-0.1,0-0.1,0-0.1,0c0,0,0,0,0,0c-0.1,0-0.1,0-0.2,0
			c0,0,0,0,0,0c0,0-0.1,0-0.1,0c0,0,0,0,0,0c0,0,0,0,0,0c0,0,0,0-0.1,0c-0.1,0-0.1,0-0.2,0c0,0,0,0-0.1,0c-0.1,0-0.1,0-0.2,0
			c0,0-0.1,0-0.1,0c-0.1,0-0.1,0-0.2,0c0,0-0.1,0-0.1,0c-0.1,0-0.1,0-0.2,0c0,0-0.1,0-0.1,0c-0.1,0-0.2,0-0.3,0c0,0,0,0,0,0
			c-0.1,0-0.2,0-0.3,0c0,0-0.1,0-0.1,0c0,0-0.1,0-0.1,0c0,0,0,0-0.1,0c0,0-0.1,0-0.1,0c0,0-0.1,0-0.1,0c-0.1,0-0.1,0-0.1,0
			c0,0-0.1,0-0.1,0c-0.1,0-0.1,0-0.2,0c0,0-0.1,0-0.1,0c-0.2,0-0.3,0-0.5,0c-0.7,0-1.3,0-2,0c-0.2,0-0.4,0.1-0.5,0c0,0-0.1,0-0.1,0
			c-0.1,0-0.3,0-0.4,0c0,0-0.1,0-0.1,0c0,0-0.1,0-0.1,0c0,0,0,0,0,0c0,0-0.1,0-0.1,0c0,0-0.1,0-0.1,0c-0.1,0-0.2,0.1-0.3,0
			c0,0-0.1,0-0.1,0c0,0-0.1,0-0.1,0c0,0,0,0,0,0c0,0-0.1,0-0.1,0c0,0,0,0-0.1,0c-0.1,0-0.1,0.1-0.2,0c0,0,0,0-0.1,0c0,0,0,0-0.1,0
			c0,0,0,0,0,0c0,0-0.1,0-0.1,0c0,0-0.1,0-0.1,0c-0.1,0-0.1,0-0.2,0c0,0,0,0-0.1,0c-0.1,0-0.1,0.1-0.2,0c0,0,0,0-0.1,0
			c0,0-0.1,0-0.1,0c0,0,0,0-0.1,0c-0.1,0-0.1,0.1-0.2,0c0,0,0,0,0,0c0,0-0.1,0-0.1,0c0,0,0,0,0,0c-0.1,0-0.1,0.1-0.2,0c0,0,0,0,0,0
			c0,0-0.1,0.1-0.1,0c0,0,0,0,0,0c-0.1,0.1-0.2,0.1-0.3,0.1c0,0,0,0,0,0c-0.1,0.1-0.2,0.1-0.3,0.1c0,0,0,0,0,0
			c-0.1,0.1-0.3,0.1-0.4,0.1c0,0,0,0,0,0c-0.2,0.1-0.4,0.1-0.5,0.2c0,0-0.1,0.1-0.1,0c0,0,0,0,0,0c-0.1,0-0.1,0.1-0.2,0.1
			c0,0-0.1,0-0.1,0c0,0-0.1,0.1-0.2,0.1c0,0,0,0,0,0c0,0-0.1,0.1-0.1,0c0,0,0,0-0.1,0c0,0-0.1,0.1-0.2,0.1c0,0,0,0-0.1,0
			c0,0-0.1,0.1-0.2,0.1c0,0,0,0-0.1,0c-0.1,0.1-0.2,0.1-0.3,0.1c0,0-0.1,0-0.1,0c0,0.1-0.1,0.1-0.2,0.1c0,0-0.1,0-0.1,0.1
			c0,0-0.1,0.1-0.1,0.1c0,0,0,0,0,0c0,0.1-0.1,0.1-0.1,0.1c0,0-0.1,0-0.1,0.1c-0.1,0.1-0.2,0.1-0.3,0.1c0,0,0,0,0,0
			c0,0-0.1,0.1-0.1,0.1c0,0-0.1,0-0.1,0.1c0,0-0.1,0.1-0.1,0.1c0,0,0,0,0,0c0,0,0,0-0.1,0c0,0,0,0,0,0c0,0-0.1,0.1-0.1,0.1
			c0,0,0,0-0.1,0c0,0-0.1,0.1-0.1,0.1c-0.1,0-0.1,0.1-0.2,0.1c0,0-0.1,0.1-0.1,0.1c0,0,0,0,0,0c0,0-0.1,0.1-0.1,0.1c0,0,0,0-0.1,0
			c0,0-0.1,0.1-0.1,0.1c0,0,0,0,0,0c0,0-0.1,0.1-0.1,0.1c0,0-0.1,0.1-0.1,0.1c0,0,0,0-0.1,0c0,0,0,0,0,0c0,0-0.1,0.1-0.1,0.1
			c0,0-0.1,0-0.1,0.1c0,0,0,0.1-0.1,0.1c0,0,0,0,0,0c0,0-0.1,0.1-0.1,0.1c0,0,0,0,0,0c-0.1,0.1-0.2,0.1-0.3,0.2c0,0,0,0,0,0
			c0,0,0,0-0.1,0c0,0-0.1,0-0.1,0.1c0,0,0,0-0.1,0c0,0,0,0,0,0c0,0,0,0-0.1,0c-0.1,0-0.1,0.1-0.2,0.1c0,0,0,0-0.1,0c0,0,0,0,0,0
			c0,0,0,0-0.1,0c0,0,0,0,0,0c0,0,0,0-0.1,0c0,0,0,0,0,0c0,0,0,0-0.1,0c0,0,0,0,0,0c0,0,0,0.1-0.1,0.1c0,0,0,0,0,0c0,0,0,0-0.1,0
			c0,0,0,0,0,0c0,0,0,0.1-0.1,0.1c0,0-0.1,0-0.1,0.1c0,0-0.1,0.1-0.1,0.1c0,0,0,0-0.1,0.1c0,0,0,0-0.1,0c-0.1,0-0.1,0.1-0.2,0.1
			c0,0,0,0.1-0.1,0.1c0,0,0,0-0.1,0.1c0,0,0,0.1-0.1,0.1c0,0,0,0-0.1,0.1c0,0,0,0-0.1,0c0,0-0.1,0.1-0.1,0.1c0,0,0,0.1-0.1,0.1
			c0,0,0,0-0.1,0.1c0,0,0,0.1-0.1,0.1c0,0,0,0-0.1,0.1c-0.1,0.1-0.3,0.3-0.4,0.4c-0.1,0.1-0.2,0.2-0.3,0.2c0,0,0,0.1-0.1,0.1l0,0
			c-0.1,0.2-0.3,0.3-0.5,0.5c-0.1,0.1-0.2,0.2-0.3,0.3c-0.1,0.1-0.2,0.3-0.4,0.4c-0.1,0.1-0.1,0.1-0.2,0.2c0,0,0,0,0,0c0,0,0,0,0,0
			c0,0.1-0.1,0.1-0.1,0.1c0,0,0,0,0,0c0,0,0,0.1-0.1,0.1c0,0,0,0.1-0.1,0.1c0,0,0,0.1-0.1,0.1c0,0,0,0,0,0c0,0.1,0,0.1-0.1,0.1
			c0,0,0,0,0,0c0,0,0,0,0,0.1c0,0,0,0-0.1,0.1c0,0,0,0.1-0.1,0.1c0,0,0,0,0,0c0,0,0,0.1-0.1,0.1c0,0,0,0,0,0c0,0,0,0,0,0.1
			c-0.1,0.1-0.2,0.3-0.3,0.4c0,0,0,0,0,0.1c0,0,0,0.1-0.1,0.1c0,0,0,0.1,0,0.1l0,0l0,0c0,0,0,0,0,0c0.6,0.4,1.1,0.8,1.7,1.2
			c0.9,0.6,1.8,1.3,2.7,1.9c0.2-0.2,0.3-0.4,0.4-0.6c0.4-0.6,0.9-1.1,1.4-1.6c0.6-0.5,1.1-1,1.8-1.5c0.7-0.5,1.4-1,2.2-1.4
			c0.7-0.4,1.5-0.7,2.2-1c0.6-0.2,1.2-0.4,1.8-0.5c0.6-0.1,1.1-0.2,1.7-0.3c0.9-0.1,1.8-0.1,2.7-0.1c0.4,0,0.9,0.1,1.3,0.1
			c0.3,0,0.7,0.1,1,0.2c0.4,0.1,0.7,0.2,1.1,0.2c0.3,0.1,0.7,0.2,1,0.3c0.6,0.2,1.2,0.5,1.8,0.7c1.3,0.6,2.5,1.4,3.6,2.3
			c1,0.8,1.9,1.8,2.6,2.9c0,0,0,0,0,0.1c0,0,0,0,0,0c0.1,0.3,0.3,0.5,0.5,0.8c0.6,0.9,1.1,1.9,1.5,2.9c0.3,0.8,0.6,1.7,0.7,2.5
			c0.2,0.8,0.3,1.6,0.3,2.4c0.1,0.9,0,1.8-0.1,2.7c-0.1,0.6-0.2,1.2-0.3,1.7c0,0,0,0.1,0,0.1c0,0,0,0.1,0,0.1c-0.6,0-1.1,0-1.7,0
			c-0.7,0-1.4,0-2.1,0c-0.1,0-0.1,0-0.1-0.1c0-0.2,0-0.4,0-0.5c0-0.1,0-0.1,0.1-0.1c0.1,0,0.3,0,0.4,0c0.1,0,0.1,0,0.1-0.1
			c0-0.2,0-0.4,0-0.6c0-0.1,0-0.1-0.1-0.1c-0.1,0-0.2,0-0.4,0c-0.1,0-0.1,0-0.1-0.1c0-0.6,0-1.1,0-1.7c0-0.8,0-1.7,0-2.5
			c0-0.1,0-0.2,0.1-0.1c0.1,0,0.2,0,0.3,0c0.1,0,0.1,0,0.1-0.1c0-0.2,0-0.3,0-0.5c0-0.1,0-0.1-0.1-0.1c-0.3,0-0.6,0-1,0
			c-0.1,0-0.1,0-0.1-0.1c0-0.5,0-0.9,0-1.4c0-0.1,0-0.1,0.1-0.1c0.3,0,0.6,0,0.9,0c0.1,0,0.1,0,0.1-0.1c0-0.1,0-0.3,0-0.4
			c0-0.2,0-0.2,0.2-0.2c0.1,0,0.1,0,0.1-0.1c0-0.3,0-0.6,0-0.9c0-0.1,0-0.1-0.1-0.1c-0.8,0-1.7,0-2.5,0c-0.1,0-0.1,0-0.2-0.1
			c-0.2-0.2-0.5-0.5-0.7-0.7c-1.1-1-2.3-1.8-3.7-2.3c-1.1-0.4-2.3-0.7-3.5-0.8c-0.2,0-0.4-0.1-0.5-0.3c-0.4-0.7-1.3-0.9-2-0.5
			c-0.3,0.2-0.5,0.4-0.7,0.7c0,0.1-0.1,0.1-0.2,0.1c-0.3,0-0.6,0.1-0.8,0.1c-1,0.1-1.9,0.4-2.8,0.7c-1.7,0.6-3.2,1.6-4.4,3
			c-0.1,0.1-0.1,0.1-0.2,0.1c-1,0-2,0-3,0c-0.1,0-0.1,0-0.1,0.1c0,0.3,0,0.6,0,0.9c0,0.1,0,0.1,0.1,0.1c0,0,0.1,0,0.1,0
			c0.1,0,0.1,0,0.1,0.1c0,0.2,0,0.3,0,0.5c0,0.1,0,0.1,0.1,0.1c0.3,0,0.6,0,0.8,0c0.1,0,0.1,0,0.1,0.1c0,0.4,0,0.9,0,1.3
			c0,0.1,0,0.2-0.2,0.1c-0.3,0-0.7,0-1,0c-0.1,0-0.1,0-0.1,0.1c0,0.1,0,0.2,0,0.3c0,0.3,0,0.3,0.3,0.3c0.1,0,0.1,0,0.1,0.2
			c0,0.8,0,1.6,0,2.5c0,0.6,0,1.2,0,1.8c0,0.1,0,0.1-0.1,0.1c-0.1,0-0.1,0-0.2,0c-0.1,0-0.1,0-0.1,0.1c0,0.2,0,0.4,0,0.6
			c0,0.1,0,0.1,0.1,0.1c0.1,0,0.2,0,0.2,0c0.1,0,0.1,0,0.1,0.1c0,0.3,0,0.7,0,1c0,0.4,0,0.8,0,1.1c0,0.1,0,0.1-0.1,0.1
			c-0.1,0-0.1,0-0.2,0c-0.1,0-0.2,0-0.1,0.1c0,0.1,0,0.2,0,0.2c0,0.1,0,0.2,0,0.3c0.1,0.1,0.2,0,0.3,0c0,0,0,0,0,0
			c0.1,0,0.1,0,0.1,0.1c0,0.2,0,0.3,0,0.5c0,0.1,0,0.3,0,0.3c0.1,0.1,0.2,0,0.3,0c0.1,0,0.1,0,0.1,0.1c0,1,0,2,0,2.9
			c0,0.1,0,0.1-0.1,0.1c-0.4,0-0.8,0-1.2,0c0,0,0,0,0-0.1c-0.1,0-0.1-0.1-0.1-0.1c0,0-0.1,0-0.1-0.1c-0.6-0.8-1.1-1.6-1.6-2.5
			c-0.6-1.2-1.1-2.6-1.4-3.9c-0.1-0.5-0.2-1.1-0.3-1.6c-0.1-0.7-0.1-1.5-0.1-2.2c0-0.6,0.1-1.2,0.1-1.8c0.1-1.2,0.4-2.3,0.8-3.4
			c0.5-1.4,1.2-2.7,2-3.9c0,0,0-0.1,0.1-0.1c-0.9-0.6-1.8-1.3-2.7-1.9c-0.6-0.4-1.1-0.8-1.7-1.2c0,0,0,0,0,0l0,0l0,0c0,0,0,0,0,0
			c-0.8,1.1-1.4,2.2-2,3.3c-0.9,1.9-1.5,3.8-1.8,5.9c-0.2,0.9-0.2,1.9-0.3,2.9c0,0.4,0,0.8,0,1.2c0,0.5,0,0.9,0.1,1.4
			c0.1,1,0.2,1.9,0.4,2.8c0.6,2.5,1.6,4.9,3,7.1c1.2,1.8,2.6,3.4,4.2,4.8c1.3,1.1,2.6,2,4.1,2.8c0.1,0.1,0.3,0.1,0.4,0.2
			c0.6,0.3,1.2,0.5,1.8,0.8c0.6,0.2,1.1,0.4,1.7,0.6c0.5,0.2,1,0.3,1.6,0.4c0.8,0.2,1.5,0.3,2.3,0.4c0.5,0.1,1,0.1,1.5,0.1
			c0.8,0,1.6,0,2.3,0c0.4,0,0.7-0.1,1.1-0.1c0.5-0.1,1-0.1,1.5-0.2c0.8-0.2,1.7-0.4,2.5-0.6c1.1-0.3,2.1-0.8,3.2-1.3
			c0.4-0.2,0.7-0.4,1.1-0.6c2-1.1,3.7-2.6,5.3-4.2c1.8-2,3.2-4.2,4.2-6.7c0.8-2.1,1.3-4.4,1.5-6.7c0,0,0-0.1,0-0.1
			c0-0.7,0-1.5,0-2.2C202.2,23.7,202.3,23.5,202.2,23.4z M168.4,10.4c-0.1,0.2-0.3,0.4-0.5,0.5c-0.1,0.1-0.2,0.1-0.2,0.2
			c0,0.1,0.1,0.2,0.2,0.2c0.1,0.1,0.2,0.3,0.4,0.4c0,0.1,0.1,0.1,0,0.1c-0.2,0.1-0.3,0.3-0.5,0.4c-0.1,0.1-0.1,0.1-0.1,0
			c-0.5-0.6-1-1.2-1.5-1.8c-0.1-0.2-0.1-0.2,0-0.3c0.3-0.3,0.6-0.5,0.9-0.8c0.2-0.1,0.4-0.2,0.6-0.2C168.1,9.2,168.7,9.9,168.4,10.4
			z M171.3,9.7c-0.3,0.3-0.7,0.5-1.1,0.6c-0.3,0-0.6-0.1-0.8-0.3c-0.3-0.2-0.4-0.5-0.5-0.9c-0.1-0.4,0-0.8,0.3-1.1
			c0.2-0.3,0.6-0.5,0.9-0.6c0.4-0.1,0.8,0,1.1,0.3c0.2,0.2,0.4,0.5,0.5,0.8C171.7,9,171.6,9.4,171.3,9.7z M174.3,8.2
			c-0.4,0.2-0.9,0.4-1.3,0.6c-0.1,0.1-0.3,0.1-0.4,0.2c-0.1,0-0.1,0-0.1-0.1c-0.3-0.7-0.6-1.4-0.9-2.1c-0.1-0.2-0.1-0.2,0.1-0.3
			c0.1-0.1,0.3-0.1,0.4-0.2c0.1,0,0.1,0,0.1,0.1c0.2,0.5,0.5,1.1,0.7,1.6c0,0.1,0.1,0.1,0.2,0.1c0.3-0.2,0.6-0.3,1-0.4
			c0.1,0,0.1,0,0.1,0.1c0.1,0.1,0.1,0.3,0.2,0.4C174.3,8.1,174.3,8.2,174.3,8.2C174.4,8.2,174.3,8.2,174.3,8.2z M175.5,7.9
			c-0.2,0-0.4,0.1-0.6,0.2c-0.1,0-0.1,0-0.2-0.1c-0.2-0.7-0.4-1.5-0.6-2.2c-0.1-0.2-0.1-0.2,0.2-0.3c0.2,0,0.3-0.1,0.5-0.1
			c0.1,0,0.1,0.1,0.1,0.1c0.1,0.4,0.2,0.8,0.3,1.2c0.1,0.4,0.2,0.8,0.3,1.2C175.6,7.9,175.5,7.9,175.5,7.9z M178,5.3
			c-0.2,0-0.4,0.1-0.6,0.1c-0.1,0-0.1,0-0.1,0.1c0.1,0.6,0.2,1.2,0.3,1.8c0,0.1,0,0.1-0.1,0.1c-0.2,0-0.4,0.1-0.7,0.1
			c-0.1,0-0.1,0-0.1-0.1c-0.1-0.4-0.1-0.8-0.2-1.3c0-0.2-0.1-0.4-0.1-0.5c0-0.1,0-0.1-0.1-0.1c-0.2,0-0.4,0.1-0.6,0.1
			c-0.1,0-0.1,0-0.1-0.1c0-0.2-0.1-0.3-0.1-0.5c0-0.1,0-0.1,0.1-0.1c0.4-0.1,0.8-0.1,1.2-0.2c0.3-0.1,0.7-0.1,1-0.2
			c0.1,0,0.2,0,0.2,0.1C178,4.9,178,5,178,5.3C178.1,5.3,178.1,5.3,178,5.3z M181,7.2c-0.7,0-1.4,0-2.1,0c-0.1,0-0.1,0-0.1-0.1
			c0-0.4,0-0.8,0-1.2c0,0,0,0,0,0c0-0.4,0-0.8,0-1.3c0-0.1,0-0.1,0.1-0.1c0.7,0,1.4,0,2,0c0.1,0,0.1,0,0.1,0.1c0,0.1,0,0.3,0,0.4
			c0,0.1,0,0.1-0.1,0.1c-0.4,0-0.8,0-1.2,0c-0.1,0-0.1,0-0.1,0.1c0,0.1,0,0.2,0,0.3c0.1,0.1,0.2,0,0.3,0c0.3,0,0.6,0,0.9,0
			c0.1,0,0.1,0,0.1,0.1c0,0.1,0,0.2,0,0.3c0,0.1,0,0.1-0.1,0.1c-0.4,0-0.7,0-1.1,0c-0.1,0-0.1,0-0.1,0.1c0,0.1,0,0.2,0,0.3
			c0,0.1,0,0.1,0.1,0.1c0.4,0,0.8,0,1.2,0c0.1,0,0.1,0,0.1,0.1C181.1,6.8,181.1,7,181,7.2C181.1,7.1,181.1,7.2,181,7.2z M184.4,4.9
			c-0.1,0.4-0.1,0.8-0.2,1.2c-0.1,0.4-0.1,0.8-0.2,1.3c0,0.1,0,0.1-0.1,0.1c-0.2,0-0.4-0.1-0.6-0.1c-0.1,0-0.1-0.1-0.1-0.1
			c0-0.3,0.1-0.6,0.1-0.9c0-0.1,0-0.1-0.1-0.1c-0.2,0-0.4-0.1-0.7-0.1c-0.1,0-0.1,0-0.1,0.1c0,0.3-0.1,0.6-0.1,0.9
			c0,0.1,0,0.1-0.1,0.1c-0.2,0-0.4-0.1-0.6-0.1c-0.1,0-0.1,0-0.1-0.1c0.1-0.6,0.1-1.2,0.2-1.8c0-0.2,0.1-0.5,0.1-0.7
			c0-0.1,0-0.1,0.1-0.1c0.2,0,0.4,0.1,0.6,0.1c0.1,0,0.1,0,0.1,0.1c0,0.2-0.1,0.5-0.1,0.7c0,0.1,0,0.1,0.1,0.1
			c0.2,0,0.4,0.1,0.7,0.1c0.1,0,0.1,0,0.1-0.1c0-0.3,0.1-0.5,0.1-0.8c0-0.1,0-0.1,0.1-0.1C183.9,4.8,184.1,4.8,184.4,4.9
			C184.4,4.8,184.4,4.8,184.4,4.9z M187.1,8.4c0,0.1,0,0.1-0.1,0.1c-0.2-0.1-0.4-0.1-0.6-0.2c-0.1,0-0.1-0.1-0.1-0.1
			c-0.2-0.5-0.3-1.1-0.5-1.6c-0.1,0,0,0.1-0.1,0.1c-0.1,0.4-0.3,0.8-0.4,1.2c0,0.1,0,0.1-0.1,0.1c-0.2-0.1-0.4-0.1-0.6-0.2
			c-0.1,0-0.1-0.1-0.1-0.1c0.3-0.8,0.5-1.6,0.8-2.4c0-0.1,0-0.1,0.1-0.1c0.2,0.1,0.4,0.1,0.5,0.2c0.1,0,0.1,0.1,0.1,0.1
			c0.1,0.5,0.3,1,0.4,1.5c0,0,0,0,0,0.1c0.1-0.3,0.2-0.5,0.2-0.8c0.1-0.2,0.1-0.3,0.2-0.5c0-0.1,0.1-0.1,0.1-0.1
			c0.2,0.1,0.4,0.1,0.6,0.2c0.1,0,0.1,0,0.1,0.1C187.6,6.8,187.3,7.6,187.1,8.4z M188.3,9c-0.2-0.1-0.4-0.2-0.6-0.3
			c-0.1,0-0.1-0.1,0-0.1c0.3-0.8,0.7-1.5,1-2.3c0,0,0-0.1,0.1,0c0.2,0.1,0.4,0.2,0.6,0.3c0,0,0.1,0,0.1,0c0,0,0,0,0,0.1
			c-0.3,0.8-0.7,1.5-1,2.3C188.4,9,188.3,9,188.3,9z M190.2,10.2c-0.2-0.1-0.4-0.2-0.5-0.4c-0.4-0.3-0.5-0.7-0.3-1.2
			c0.1-0.4,0.3-0.8,0.7-1c0.3-0.2,0.6-0.3,1-0.2c0.3,0.1,0.6,0.3,0.8,0.5c0.2,0.2,0.3,0.5,0.3,0.7c0,0.4,0,0.4-0.3,0.3
			c-0.1,0-0.2-0.1-0.3-0.1c0,0-0.1,0-0.1-0.1c0.1-0.3-0.1-0.5-0.3-0.5c-0.2-0.1-0.4,0-0.6,0.1c-0.2,0.2-0.3,0.4-0.4,0.6
			c-0.1,0.2,0,0.4,0.1,0.5c0.2,0.2,0.4,0.2,0.6,0.1c0,0,0,0,0,0c0.1,0,0.1-0.1,0.2-0.1c0.1,0,0.1,0.1,0.2,0.2
			c0.1,0.1,0.2,0.2,0.3,0.3c0,0.1,0,0.1,0,0.1C191.1,10.3,190.6,10.4,190.2,10.2z M194.3,10c-0.3,0.9-0.6,1.7-0.9,2.6c0,0,0,0,0,0
			c-0.2-0.2-0.4-0.3-0.6-0.5c0,0,0-0.1,0-0.1c0-0.1,0.1-0.2,0.1-0.3c0-0.1,0-0.1,0-0.1c-0.2-0.2-0.4-0.3-0.6-0.5c0,0-0.1,0-0.1,0
			c0,0,0,0,0,0c-0.1,0.1-0.2,0.2-0.3,0.2c-0.1,0-0.2-0.1-0.3-0.2c-0.1-0.1-0.2-0.2-0.3-0.2c-0.1,0-0.1-0.1,0-0.1
			c0.3-0.2,0.7-0.4,1-0.6c0.4-0.2,0.9-0.5,1.3-0.7c0.1,0,0.1,0,0.2,0c0.2,0.2,0.4,0.3,0.6,0.5C194.3,9.9,194.3,9.9,194.3,10z
			 M168.4,27.7c-0.2,0-0.2,0-0.2-0.2c0,0,0,0,0,0c0-0.2,0.1-0.2,0.3-0.2c0,0,0,0,0,0.1C168.4,27.4,168.4,27.5,168.4,27.7
			C168.4,27.7,168.4,27.7,168.4,27.7z M168.4,30.6c0,0.2,0,0.2-0.2,0.2c-0.1,0-0.1,0-0.1-0.1c0-0.1,0-0.1,0-0.2c0-0.1,0-0.1,0.1-0.1
			c0,0,0.1,0,0.1,0C168.4,30.3,168.4,30.4,168.4,30.6C168.4,30.6,168.4,30.6,168.4,30.6z M200.5,22.4c0,0.3,0.1,0.7,0.1,1
			c0,0.1,0,0.3-0.1,0.4c-0.2,0.4-0.7,0.5-1,0.2c0,0,0,0,0-0.1c-0.2,0.6-0.9,0.6-1.2,0.3c-0.2-0.2-0.2-0.4-0.2-0.6
			c0-0.3,0-0.6-0.1-0.9c0-0.1,0-0.1,0.1-0.1c0.5,0,1-0.1,1.5-0.1C199.8,22.3,200.1,22.3,200.5,22.4
			C200.5,22.3,200.5,22.3,200.5,22.4z M199.7,18.6c0.1,0.2,0,0.3-0.1,0.4c-0.4,0.5-0.9,1-1.3,1.5c0,0,0,0,0,0.1c0,0,0,0,0,0
			c0,0,0,0,0,0c0.3-0.1,0.6-0.2,0.9-0.3c0.3-0.1,0.5-0.2,0.8-0.2c0.1,0,0.1,0,0.1,0.1c0.1,0.2,0.1,0.2-0.2,0.3
			c-0.7,0.2-1.4,0.4-2.1,0.6c-0.1,0-0.1,0-0.1-0.1c-0.1-0.2,0-0.3,0.1-0.4c0.4-0.5,0.9-1,1.3-1.5c0,0,0.1-0.1,0.1-0.1
			c-0.2,0-0.3,0.1-0.5,0.1c-0.4,0.1-0.8,0.2-1.3,0.4c-0.1,0-0.1,0-0.1-0.1c-0.1-0.2-0.1-0.2,0.2-0.3c0.7-0.2,1.4-0.4,2.1-0.6
			C199.6,18.6,199.7,18.6,199.7,18.6z M199.3,17.7c0,0.1,0,0.1,0.1,0.2c0,0.1-0.1,0.1-0.1,0.1c-0.5,0.2-0.9,0.4-1.4,0.6
			c-0.3,0.1-0.5,0.2-0.8,0.3c-0.1,0-0.1,0-0.1,0c-0.1-0.2-0.1-0.2,0.1-0.3c0.7-0.3,1.3-0.5,2-0.8C199.2,17.5,199.3,17.5,199.3,17.7z
			 M196.4,17.2c-0.2-0.3-0.3-0.6-0.5-0.9c0-0.1,0-0.1,0.1-0.1c0.5-0.3,1-0.6,1.6-0.8c0.2-0.1,0.3-0.2,0.5-0.3c0.1,0,0.1,0,0.1,0
			c0.1,0.3,0.3,0.5,0.4,0.8c0.3,0.5,0.2,1-0.3,1.3c-0.3,0.2-0.7,0.4-0.9,0.4C196.8,17.7,196.5,17.5,196.4,17.2z M195,28.7
			c0.4,0,0.9,0,1.3,0c-0.1,0.3-0.2,0.7-0.3,1c0,0.2-0.1,0.5-0.2,0.7c-0.2,0.7-0.5,1.3-0.8,1.9c0,0,0,0.1-0.1,0.1
			c0,0.1,0,0.1-0.1,0.2c0-0.1,0-0.3,0-0.4c0-1.1,0-2.2,0-3.3C194.9,28.8,194.9,28.7,195,28.7z M169.1,32c0-0.1,0-0.1,0.1-0.1
			c7.5,0,15.1,0,22.6,0c0.1,0,0.1,0,0.1,0.1c0,1,0,2,0,3c0,0.1,0,0.1-0.1,0.1c-3.8,0-7.5,0-11.3,0c-3.8,0-7.5,0-11.3,0
			c-0.1,0-0.1,0-0.1-0.1C169.1,34,169.1,33,169.1,32z M192,24.3c0,0.1,0,0.1-0.1,0.1c-0.3,0-0.3,0-0.3-0.3c0-0.2,0-0.4,0-0.6
			c0-0.3,0-0.6,0-0.8c0-0.1,0-0.1,0.1-0.1c0.3,0,0.3,0,0.3,0.3C192,23.4,192,23.9,192,24.3z M191.9,30.1
			C191.9,30.2,191.9,30.2,191.9,30.1c-0.3,0.1-0.3,0.1-0.3-0.2c0-0.7,0-1.3,0-2c0-0.1,0-0.1,0.1-0.1c0.3,0,0.3,0,0.3,0.3
			c0,0,0,0.1,0,0.1c0,0.1,0,0.2,0,0.2c0,0,0,0,0,0C191.9,29,192,29.6,191.9,30.1z M191.9,27.1c-0.3,0-0.3,0-0.3-0.3
			c0-0.2,0-0.5,0-0.7c0-0.1,0-0.1,0.1-0.1c0.3,0,0.3,0,0.3,0.3c0,0.1,0,0.2,0,0.3C192,26.7,192,26.9,191.9,27.1
			C192,27.1,192,27.1,191.9,27.1z M192,27.4c0,0.2,0,0.2-0.2,0.2c-0.2,0-0.2,0-0.2-0.2c0-0.2,0-0.2,0.2-0.2
			C192,27.3,192,27.3,192,27.4z M191.6,25.6c0-0.2,0-0.2,0.2-0.2c0.2,0,0.2,0,0.2,0.2c0,0.2,0,0.2-0.2,0.2
			C191.6,25.8,191.6,25.8,191.6,25.6z M191.9,25.3c0,0-0.1,0-0.1,0c0,0-0.1,0-0.1,0c0,0-0.1,0-0.1-0.1c0,0,0-0.1,0.1-0.1
			c0.1,0,0.2,0,0.3,0C192,25.2,192,25.2,191.9,25.3C192,25.3,192,25.3,191.9,25.3z M191.6,24.9C191.6,24.9,191.6,24.8,191.6,24.9
			c0-0.3,0-0.3,0.2-0.3c0,0,0,0,0,0c0.2,0,0.2,0,0.2,0.2c0,0.3,0,0.3-0.3,0.3C191.6,25,191.6,25,191.6,24.9z M191.6,30.6
			C191.6,30.6,191.6,30.6,191.6,30.6c0-0.3,0-0.3,0.2-0.3c0.1,0,0.1,0,0.1,0.1c0,0,0,0.1,0,0.1c0,0.2,0,0.2-0.2,0.2
			C191.6,30.8,191.6,30.8,191.6,30.6z M191.8,30.9c0.2,0,0.2,0,0.1,0.2c0,0.2,0,0.1-0.2,0.1c-0.2,0-0.2,0-0.2-0.2
			C191.6,30.9,191.6,30.9,191.8,30.9z M193.4,34.9c0,0.1-0.1,0.1-0.1,0.1c0,0,0,0,0,0.1c-0.4,0-0.7,0-1.1,0c-0.1,0-0.1,0-0.1-0.1
			c0-1.1,0-2.3,0-3.4c0-0.1,0-0.1,0.1-0.1c0.8,0,1.7,0,2.5,0c0.1,0,0.1,0,0.1,0.1c0,0.4,0,0.8,0,1.2c0,0-0.1,0.1-0.1,0.1
			c0,0.1-0.1,0.2-0.2,0.3C194.2,33.8,193.8,34.4,193.4,34.9z M194.7,28.7c0.1,0,0.1,0,0.1,0.1c0,0.8,0,1.6,0,2.4
			c0,0.1,0,0.1-0.1,0.1c-0.4,0-0.8,0-1.3,0c-0.4,0-0.8,0-1.2,0c-0.1,0-0.1,0-0.1-0.1c0-0.8,0-1.6,0-2.4c0-0.1,0-0.1,0.1-0.1
			C193,28.7,193.9,28.7,194.7,28.7z M192.4,28.6c-0.1,0-0.1,0-0.2,0c0,0,0-0.1,0-0.1c0-1,0-1.9,0-2.9c0-1,0-1.9,0-2.9
			c0,0,0-0.1,0-0.1c0.1,0,0.1,0,0.2,0c0,0,0,0,0,0.1c0,0,0,0.1,0,0.1c0,1.9,0,3.8,0,5.7C192.4,28.5,192.4,28.6,192.4,28.6z
			 M192.8,27.3c0.2,0,0.2,0,0.2,0.2c0,0.2,0,0.2-0.2,0.2c-0.2,0-0.2,0-0.2-0.2C192.5,27.3,192.5,27.3,192.8,27.3z M180.8,14.7
			c0,0,0.1-0.1,0.1,0c0.7,0.5,1.3,1.1,1.8,1.8c0.1,0.1,0.1,0.2,0.2,0.3c0,0.1,0,0.1-0.1,0.1c-0.9,0-1.7-0.1-2.6-0.1
			c-0.5,0-0.9,0-1.4,0c0.2-0.4,0.4-0.7,0.6-0.9C179.8,15.5,180.3,15.1,180.8,14.7z M180.5,14.8C180.5,14.8,180.5,14.8,180.5,14.8
			C180.5,14.8,180.5,14.8,180.5,14.8C180.5,14.8,180.5,14.8,180.5,14.8C180.5,14.8,180.5,14.8,180.5,14.8z M187.6,17.5
			C187.6,17.5,187.6,17.5,187.6,17.5C187.6,17.5,187.6,17.5,187.6,17.5L187.6,17.5L187.6,17.5c-0.1,0-0.2,0-0.3-0.1
			c-0.7-0.1-1.3-0.2-2-0.3c0,0-0.1,0-0.1-0.1c-0.5-0.8-1.3-1.3-2.1-1.7c-0.3-0.2-0.6-0.3-0.9-0.4c0.1,0,0.3,0,0.4,0.1
			c1.3,0.3,2.5,0.8,3.6,1.5c0.3,0.2,0.7,0.4,1,0.7C187.4,17.3,187.5,17.4,187.6,17.5C187.6,17.5,187.6,17.5,187.6,17.5L187.6,17.5
			C187.6,17.5,187.6,17.5,187.6,17.5C187.6,17.5,187.6,17.5,187.6,17.5z M182.7,15.3c0.3,0.1,0.5,0.3,0.8,0.4c0.5,0.3,1,0.6,1.3,1.1
			c0.1,0.1,0.1,0.2,0.2,0.3c0,0,0,0,0,0.1c-0.3,0-0.6-0.1-0.9-0.1c-0.3,0-0.7-0.1-1-0.1c-0.1,0-0.1,0-0.2-0.1
			c-0.1-0.3-0.4-0.6-0.6-0.9c-0.3-0.4-0.7-0.8-1.2-1.1c0,0,0,0,0,0c0,0,0,0,0,0C181.8,14.9,182.2,15.1,182.7,15.3z M180.4,14.8
			c-0.6,0.5-1.1,1-1.5,1.7c0,0-0.1,0.1-0.1,0.1c0,0.2-0.1,0.2-0.3,0.2c-0.6,0-1.1,0.1-1.7,0.2c0,0,0,0-0.1,0c0.3-0.4,0.6-0.7,1-1
			C178.5,15.5,179.4,15.1,180.4,14.8C180.4,14.8,180.4,14.8,180.4,14.8C180.4,14.8,180.4,14.8,180.4,14.8z M179.3,15
			c-0.8,0.3-1.5,0.7-2.1,1.3c-0.2,0.2-0.4,0.5-0.6,0.7c0,0.1-0.1,0.1-0.1,0.1c-0.7,0.1-1.5,0.2-2.2,0.4c0,0-0.1,0-0.1,0
			c1.5-1.4,3.4-2.1,5.3-2.6C179.4,15,179.3,15,179.3,15z M176,18.4C176,18.4,176,18.4,176,18.4c-1.4,0-2.9,0-4.4,0
			c0.4-0.2,0.7-0.3,1.1-0.4c0.4-0.1,0.8-0.2,1.2-0.3c0.1,0,0.1,0,0.2,0C174.6,18,175.3,18.2,176,18.4z M175.4,18.1
			c-0.4-0.1-0.8-0.3-1.1-0.4c0,0-0.1,0-0.1-0.1c0.3-0.1,0.5-0.1,0.8-0.2c0.5-0.1,1-0.2,1.5-0.2c0.1,0,0.1,0,0.2,0
			c0.3,0.2,0.7,0.4,1,0.6c0.3,0.2,0.6,0.4,0.9,0.6c0,0,0,0,0,0c-0.2,0-0.4,0-0.7,0c-0.1,0-0.2,0-0.2,0
			C176.9,18.5,176.1,18.4,175.4,18.1z M176.9,17.3C176.9,17.3,176.9,17.3,176.9,17.3c0.6-0.1,1.2-0.2,1.8-0.2c0.1,0,0.1,0,0.1,0.1
			c0.4,0.4,0.8,0.9,1.2,1.3c0,0-0.1,0-0.1,0c-0.3,0-0.7,0-1,0c-0.1,0-0.1,0-0.1,0C178.2,18,177.5,17.6,176.9,17.3z M179,17
			c1.3-0.1,2.5-0.1,3.8,0c-0.3,0.3-0.5,0.6-0.8,0.8c-0.2,0.2-0.3,0.3-0.5,0.5c0,0-0.1,0.1-0.2,0.1c-0.4,0-0.7,0-1.1,0
			c0,0-0.1,0-0.1,0C179.8,18,179.4,17.5,179,17z M182.9,17.1c0,0,0.1-0.1,0.1,0c0.6,0,1.2,0.1,1.8,0.2c0,0,0,0,0,0
			c-0.3,0.2-0.7,0.4-1,0.6c-0.3,0.2-0.6,0.4-0.9,0.6c-0.1,0-0.1,0.1-0.2,0.1c-0.3,0-0.7,0-1,0c0,0-0.1,0-0.1,0
			C182.1,18,182.5,17.5,182.9,17.1z M184.2,17.8c0.3-0.2,0.6-0.3,0.9-0.5c0.1,0,0.1-0.1,0.2,0c0.7,0.1,1.5,0.2,2.2,0.4
			c0,0,0.1,0,0.1,0c-0.8,0.3-1.5,0.5-2.3,0.7c0,0-0.1,0-0.1,0c-0.6,0-1.3,0-1.9,0c0,0,0,0,0,0C183.5,18.2,183.8,18,184.2,17.8z
			 M185.8,18.4c0.6-0.2,1.2-0.4,1.8-0.6c0.1,0,0.2,0,0.3,0c0.7,0.2,1.5,0.4,2.2,0.6c0,0,0,0,0.1,0C188.7,18.4,187.2,18.4,185.8,18.4
			C185.8,18.4,185.8,18.4,185.8,18.4z M182.3,14.7c1.1,0.1,2.2,0.3,3.2,0.6c1.8,0.6,3.3,1.6,4.6,2.9c0,0,0,0,0.1,0.1
			c-0.7-0.2-1.4-0.4-2.1-0.6c-0.1,0-0.2-0.1-0.3-0.2c-0.9-0.9-2-1.5-3.2-2c-0.9-0.4-1.8-0.6-2.7-0.8c0,0,0,0,0,0
			C182,14.6,182.1,14.7,182.3,14.7z M182.1,14.5c-0.2,0-0.4,0-0.6,0c0,0-0.1,0-0.1,0c-0.1-0.3-0.2-0.5-0.4-0.7
			C181.4,13.7,181.9,14.1,182.1,14.5z M181,13.9c0.1,0.2,0.2,0.3,0.3,0.5c0,0-0.1,0-0.1,0c-0.1,0,0,0,0-0.1c0,0,0,0,0,0
			c-0.1,0-0.3,0.1-0.5,0c0,0-0.1,0,0,0c0,0,0,0,0,0c-0.1,0-0.1,0-0.2,0c0.1-0.2,0.2-0.4,0.3-0.5C180.9,13.8,180.9,13.8,181,13.9z
			 M180.7,13.7c-0.1,0.1-0.1,0.2-0.2,0.2c-0.1,0.1-0.2,0.3-0.2,0.4c0,0,0,0.1-0.1,0.1c-0.2,0-0.4,0-0.6,0
			C179.9,14.1,180.2,13.8,180.7,13.7z M179.9,14.7c-0.4,0.1-0.7,0.2-1.1,0.3c-1.3,0.4-2.5,0.8-3.6,1.5c-0.5,0.3-0.9,0.6-1.3,1
			c-0.1,0.1-0.1,0.1-0.2,0.1c-0.7,0.2-1.4,0.4-2,0.6c0,0-0.1,0-0.1,0C173.8,15.9,176.7,14.9,179.9,14.7z M168.1,19.4
			C168.1,19.4,168,19.4,168.1,19.4c-0.1-0.3-0.1-0.5-0.1-0.8c0-0.1,0-0.1,0.1-0.1c0,0,0.1,0,0.1,0c4.1,0,8.3,0,12.4,0
			c4.1,0,8.3,0,12.4,0c0.1,0,0.1,0,0.1,0.1c0,0.2,0,0.4,0,0.6c0,0.1,0,0.1-0.1,0.1c-0.2,0-0.4,0-0.6,0c-8,0-16,0-24.1,0
			C168.4,19.4,168.2,19.4,168.1,19.4z M168.5,20.2c-0.1,0-0.1,0-0.1-0.1c0-0.1,0-0.2,0-0.4c0-0.1,0-0.1,0.1-0.1c0.1,0,0.2,0,0.2,0
			c4,0,8,0,11.9,0c4,0,8.1,0,12.1,0c0.2,0,0.2,0,0.2,0.2c0,0.1,0,0.2,0,0.3c0,0.1,0,0.1-0.1,0.1c-0.3,0-0.6,0-1,0
			c-7.5,0-14.9,0-22.4,0C169.1,20.1,168.8,20.1,168.5,20.2z M169.5,20.4c0-0.1,0-0.1,0.1-0.1c0.2,0,0.2,0,0.2,0.2c0,0.2,0,0.5,0,0.7
			c0,0.1,0,0.1,0.1,0.1c0.4,0,0.8,0,1.2,0c0.1,0,0.1,0,0.1-0.1c0-0.3,0-0.6,0-0.9c0-0.1,0-0.1,0.1-0.1c0.2,0,0.2,0,0.2,0.2
			c0,0.2,0,0.5,0,0.7c0,0.1,0,0.1,0.1,0.1c0.4,0,0.8,0,1.2,0c0.1,0,0.1,0,0.1-0.1c0-0.3,0-0.6,0-0.9c0-0.1,0-0.1,0.1-0.1
			c0.2,0,0.2,0,0.2,0.2c0,0.3,0,0.5,0,0.8c0,0.1,0,0.1,0.1,0.1c0.4,0,0.8,0,1.2,0c0.1,0,0.1,0,0.1-0.1c0-0.3,0-0.6,0-0.8
			c0-0.1,0-0.1,0.1-0.1c0.2,0,0.2,0,0.2,0.2c0,0.2,0,0.5,0,0.7c0,0.1,0,0.1,0.1,0.1c0.4,0,0.8,0,1.2,0c0.1,0,0.1,0,0.1-0.1
			c0-0.3,0-0.6,0-0.8c0-0.1,0-0.1,0.1-0.1c0.2,0,0.2,0,0.2,0.2c0,0.3,0,0.5,0,0.8c0,0.1,0,0.1,0.1,0.1c0.4,0,0.8,0,1.2,0
			c0.1,0,0.1,0,0.1-0.1c0-0.3,0-0.6,0-0.9c0-0.1,0-0.1,0.1-0.1c0.2,0,0.2,0,0.2,0.2c0,0.3,0,0.5,0,0.8c0,0.1,0,0.1,0.1,0.1
			c0.4,0,0.8,0,1.2,0c0.1,0,0.1,0,0.1-0.1c0-0.3,0-0.6,0-0.9c0-0.1,0-0.1,0.1-0.1c0.2,0,0.2,0,0.2,0.2c0,0.2,0,0.5,0,0.7
			c0,0.1,0,0.1,0.1,0.1c0.4,0,0.8,0,1.2,0c0.1,0,0.1,0,0.1-0.1c0-0.3,0-0.5,0-0.8c0-0.1,0-0.1,0.1-0.1c0.2,0,0.2,0,0.2,0.2
			c0,0.3,0,0.5,0,0.8c0,0.1,0,0.1,0.1,0.1c0.4,0,0.8,0,1.2,0c0.1,0,0.1,0,0.1-0.1c0-0.3,0-0.6,0-0.9c0-0.1,0-0.1,0.1-0.1
			c0.2,0,0.2,0,0.2,0.2c0,0.2,0,0.5,0,0.7c0,0.1,0,0.1,0.1,0.1c0.4,0,0.8,0,1.2,0c0.1,0,0.1,0,0.1-0.1c0-0.3,0-0.6,0-0.8
			c0-0.1,0-0.1,0.1-0.1c0.2,0,0.2,0,0.2,0.2c0,0.3,0,0.5,0,0.8c0,0.1,0,0.1,0.1,0.1c0.4,0,0.8,0,1.2,0c0.1,0,0.1,0,0.1-0.1
			c0-0.3,0-0.6,0-0.8c0-0.1,0-0.1,0.1-0.1c0.2,0,0.2,0,0.2,0.2c0,0.2,0,0.5,0,0.7c0,0.1,0,0.1,0.1,0.1c0.4,0,0.8,0,1.2,0
			c0.1,0,0.1,0,0.1-0.1c0-0.3,0-0.6,0-0.8c0-0.1,0-0.1,0.1-0.1c0.2,0,0.2,0,0.2,0.2c0,0.2,0,0.5,0,0.7c0,0.1,0,0.1,0.1,0.1
			c0.4,0,0.8,0,1.2,0c0.1,0,0.1,0,0.1-0.1c0-0.3,0-0.6,0-0.8c0-0.1,0-0.1,0.1-0.1c0.2,0,0.2,0,0.2,0.2c0,0.3,0,0.5,0,0.8
			c0,0.1,0,0.1,0.1,0.1c0.4,0,0.8,0,1.2,0c0.1,0,0.1,0,0.1-0.1c0-0.3,0-0.6,0-0.9c0-0.1,0-0.1,0.1-0.1c0.3,0,0.3,0,0.3,0.3
			c0,0.4,0,0.8,0,1.2c0,0.1,0,0.1-0.1,0.1c-3.7,0-7.4,0-11,0c-3.7,0-7.3,0-11,0c-0.2,0-0.2,0-0.2-0.2
			C169.5,21.3,169.5,20.8,169.5,20.4z M168.3,22.5c-0.1,0-0.1,0-0.1-0.1c0-0.3,0-0.3,0.3-0.3c4,0,8.1,0,12.1,0v0c3.7,0,7.5,0,11.2,0
			c0.4,0,0.7,0,1.1,0c0.1,0,0.1,0,0.1,0.1c0,0.1,0,0.2,0,0.3c-0.1,0.1-0.2,0-0.3,0c-6.6,0-13.2,0-19.9,0
			C171.3,22.5,169.8,22.5,168.3,22.5z M191.2,22.7c0,0,0-0.1,0-0.1c0.1,0,0.1,0,0.2,0c0,0,0,0,0,0c0,0,0,0.1,0,0.1
			c0,2.8,0,5.6,0,8.3c0,0.1-0.1,0.2-0.2,0.1c0,0,0,0,0-0.1c0,0,0-0.1,0-0.1c0-1.4,0-2.8,0-4.2C191.2,25.5,191.2,24.1,191.2,22.7z
			 M190.7,30.6c0-0.1,0-0.2,0-0.2c0.1,0,0.2,0,0.3,0c0,0,0,0,0,0.1c0,0.1,0,0.1,0,0.2c0,0.2,0,0.2-0.2,0.2
			C190.7,30.8,190.7,30.8,190.7,30.6C190.7,30.6,190.7,30.6,190.7,30.6z M190.7,25.7c0-0.3,0.1-0.3,0.3-0.2c0,0,0.1,0,0.1,0.1
			c0,0.1,0,0.1,0,0.2c0,0.2,0,0.2-0.2,0.2C190.7,25.8,190.7,25.8,190.7,25.7C190.7,25.7,190.7,25.7,190.7,25.7z M190.7,26.1
			C190.7,26,190.7,26,190.7,26.1c0.4-0.1,0.4-0.1,0.4,0.2c0,0.1,0,0.2,0,0.3c0,0.2,0,0.3,0,0.5c0,0.1,0,0.1-0.1,0.1
			c-0.3,0-0.3,0-0.3-0.3C190.7,26.6,190.7,26.3,190.7,26.1z M190.7,25.2c0-0.1,0.1,0,0.2-0.1c0,0,0.1,0,0.1,0c0,0,0.1,0,0.1,0.1
			c0,0,0,0.1-0.1,0.1c0,0-0.1,0-0.1,0C190.8,25.2,190.7,25.3,190.7,25.2z M190.7,31C190.7,30.9,190.7,30.9,190.7,31
			c0.1,0,0.2,0,0.3,0c0,0,0,0,0,0.1c0,0,0,0.1,0,0.1c0,0.2,0,0.2-0.2,0.2c0,0-0.1,0-0.2,0C190.7,31.1,190.7,31,190.7,31z
			 M190.9,30.2c-0.2,0-0.2,0-0.2-0.2c0-0.3,0-0.6,0-0.9c0-0.4,0-0.7,0-1.1c0-0.1,0-0.1,0.1-0.1c0.3,0,0.3,0,0.3,0.3c0,0.7,0,1.3,0,2
			C191.1,30.2,191,30.2,190.9,30.2z M191.1,27.3C191.1,27.4,191.1,27.4,191.1,27.3c0,0.1,0,0.1,0,0.1c0,0.2,0,0.2-0.1,0.2
			c0,0-0.1,0-0.1,0c-0.1,0-0.2,0-0.1-0.1c0,0,0,0,0,0C190.7,27.3,190.7,27.3,191.1,27.3C191,27.3,191.1,27.3,191.1,27.3z
			 M191.1,24.7C191.1,24.7,191.1,24.8,191.1,24.7c0,0.3,0,0.3-0.2,0.3c-0.1,0-0.1,0-0.1-0.1c0,0,0,0,0,0c0,0,0-0.1,0-0.1
			c0-0.1,0-0.2,0.1-0.2c0,0,0,0,0,0c0,0,0,0,0.1,0c0,0,0,0,0.1,0C191,24.6,191.1,24.6,191.1,24.7z M191.1,24.1c0,0.1,0,0.1,0,0.2
			c0,0.1,0,0.1-0.1,0.1c-0.2,0-0.2,0-0.2-0.2c0-0.5,0-1,0-1.5c0-0.1,0-0.1,0.1-0.1c0.2,0,0.2,0,0.2,0.2c0,0.2,0,0.5,0,0.7
			C191.1,23.7,191.1,23.9,191.1,24.1z M190.3,31.1c0-2.8,0-5.6,0-8.3c0,0,0-0.1,0-0.1c0.1,0,0.1,0,0.2,0c0.1,0,0,0.1,0,0.1
			c0,0.8,0,1.7,0,2.5c0,0.6,0,1.2,0,1.7c0,1.4,0,2.8,0,4.2c0,0,0,0.1,0,0.1c-0.1,0-0.1,0-0.2,0C190.3,31.2,190.3,31.2,190.3,31.1
			C190.3,31.1,190.3,31.1,190.3,31.1z M190.2,24.1c0,0.1,0,0.1,0,0.2c0,0.1,0,0.1-0.1,0.1c-0.3,0-0.3,0-0.3-0.3c0-0.5,0-1,0-1.5
			c0-0.1,0-0.1,0.1-0.1c0.3,0,0.3,0,0.3,0.3c0,0.2,0,0.4,0,0.7C190.2,23.7,190.2,23.9,190.2,24.1z M189.8,27.9c0-0.1,0-0.1,0.1-0.1
			c0.3,0,0.3,0,0.3,0.3c0,0.7,0,1.3,0,2c0,0.1,0,0.1-0.1,0.1c-0.3,0-0.3,0-0.3-0.3c0-0.3,0-0.6,0-0.9
			C189.8,28.7,189.8,28.3,189.8,27.9z M189.8,26.1c0-0.1,0-0.1,0.1-0.1c0.3,0,0.3,0,0.3,0.3c0,0.1,0,0.2,0,0.3c0,0.2,0,0.3,0,0.5
			c0,0.1,0,0.1-0.1,0.1c-0.3,0-0.3,0-0.3-0.3C189.8,26.6,189.8,26.3,189.8,26.1z M190.2,25.6C190.2,25.6,190.2,25.6,190.2,25.6
			c0,0.3,0,0.3-0.2,0.3c-0.2,0-0.2,0-0.2-0.2c0-0.2,0-0.2,0.2-0.2C190.2,25.4,190.2,25.4,190.2,25.6z M190,24.6c0.2,0,0.2,0,0.2,0.2
			c0,0,0,0,0,0.1c0,0.2,0,0.2-0.2,0.2c-0.2,0-0.2,0-0.2-0.2C189.8,24.6,189.8,24.6,190,24.6z M189.8,25.2c0,0,0.1,0,0.1,0
			c0,0,0.1,0,0.1,0c0,0,0.1,0,0.1,0.1c0,0,0,0.1-0.1,0.1c-0.1,0-0.2,0-0.3,0C189.8,25.3,189.8,25.2,189.8,25.2
			C189.8,25.2,189.8,25.2,189.8,25.2z M189.8,27.6C189.8,27.6,189.8,27.6,189.8,27.6c0-0.1,0-0.1,0-0.1c0-0.1,0-0.2,0.1-0.2
			c0,0,0.1,0,0.2,0c0.2,0,0.2,0,0.2,0.2c0,0.3,0,0.3-0.3,0.3C189.8,27.7,189.8,27.7,189.8,27.6z M189.8,31
			C189.8,30.9,189.8,30.9,189.8,31c0.1-0.1,0.1-0.1,0.2-0.1c0.2,0,0.2,0,0.2,0.2c0,0.1,0,0.1-0.2,0.1
			C189.8,31.2,189.8,31.2,189.8,31z M190.2,30.6c0,0.2,0,0.2-0.1,0.2c0,0-0.1,0-0.1,0c-0.2,0-0.2,0-0.2-0.2c0-0.2,0-0.2,0.2-0.2
			C190.1,30.3,190.2,30.4,190.2,30.6C190.2,30.5,190.2,30.5,190.2,30.6C190.2,30.5,190.2,30.5,190.2,30.6z M189.7,25.8
			c0,1.7,0,3.5,0,5.2c0,0.1-0.1,0.2-0.2,0.1c0,0,0-0.1,0-0.1c0-0.1,0-0.3,0-0.4c0-1.3,0-2.5,0-3.8c0-1.4,0-2.8,0-4.2
			c0,0,0-0.1,0-0.1c0.1,0,0.1,0,0.2,0c0,0,0,0.1,0,0.1C189.7,23.8,189.7,24.8,189.7,25.8z M189.3,24.3c0,0.1,0,0.1-0.1,0.1
			c-0.3,0-0.3,0-0.3-0.3c0-0.2,0-0.4,0-0.7c0-0.3,0-0.6,0-0.8c0-0.1,0-0.1,0.1-0.1c0.3,0,0.3,0,0.3,0.3
			C189.3,23.4,189.3,23.8,189.3,24.3z M189.1,30.3c0.2,0,0.2,0,0.2,0.2c0,0,0,0,0,0.1c0,0.2,0,0.2-0.2,0.2c-0.2,0-0.2,0-0.2-0.2
			C188.9,30.3,188.9,30.3,189.1,30.3z M189.1,30.2c-0.3,0-0.3,0-0.3-0.3c0-0.3,0-0.6,0-0.9c0-0.4,0-0.7,0-1.1c0-0.1,0-0.1,0.1-0.1
			c0.3,0,0.3,0,0.3,0.3c0,0.7,0,1.3,0,2C189.3,30.2,189.2,30.2,189.1,30.2z M189,26c0.3,0,0.3,0,0.3,0.3c0,0.1,0,0.2,0,0.3
			c0,0.2,0,0.3,0,0.5c0,0.1,0,0.1-0.1,0.1c-0.3,0-0.3,0-0.3-0.3C188.9,26.6,188.9,26.3,189,26C188.9,26,188.9,26,189,26z
			 M188.9,25.7c0-0.3,0-0.3,0.2-0.3c0.2,0,0.2,0,0.2,0.2c0,0,0,0,0,0.1c0,0.2,0,0.2-0.2,0.2C188.9,25.8,188.9,25.8,188.9,25.7z
			 M189.3,27.4C189.3,27.4,189.3,27.4,189.3,27.4c0,0.3,0,0.3-0.2,0.3c-0.2,0-0.2,0-0.2-0.2c0-0.3,0-0.3,0.3-0.3
			C189.2,27.3,189.3,27.3,189.3,27.4z M189.3,24.8c0,0.2,0,0.2-0.2,0.2c-0.2,0-0.2,0-0.2-0.2c0-0.3,0-0.3,0.3-0.3
			C189.2,24.6,189.3,24.6,189.3,24.8C189.3,24.7,189.3,24.8,189.3,24.8z M188.9,25.2c0,0,0.1,0,0.1,0c0,0,0.1,0,0.1,0c0,0,0,0,0,0
			c0,0,0,0.1,0,0.1c-0.1,0-0.2,0-0.3,0C188.9,25.3,188.9,25.3,188.9,25.2C188.9,25.2,188.9,25.2,188.9,25.2z M189,30.9
			C189,30.9,189,30.9,189,30.9c0.3,0,0.3,0,0.3,0.3c0,0.1,0,0.1-0.1,0.1c0,0-0.1,0-0.1,0c-0.2,0-0.2,0-0.2-0.2
			C188.9,30.9,188.9,30.9,189,30.9z M188.5,30.8c0-1.3,0-2.6,0-3.9c0-1.4,0-2.8,0-4.2c0,0,0-0.1,0-0.1c0.1,0,0.1,0,0.2,0
			c0,0,0,0,0,0c0,0,0,0,0,0.1c0,2.8,0,5.6,0,8.3c0,0.2,0,0.2-0.2,0.2c-0.1,0-0.1,0-0.1-0.1C188.5,31,188.5,30.9,188.5,30.8z
			 M188.4,24.4C188.4,24.4,188.3,24.4,188.4,24.4c-0.4,0.1-0.4,0.1-0.4-0.2c0-0.5,0-1,0-1.5c0-0.1,0-0.1,0.1-0.1
			c0.3,0,0.3,0,0.3,0.3c0,0.2,0,0.4,0,0.7C188.4,23.8,188.3,24.1,188.4,24.4z M188,26.1c0-0.1,0-0.1,0.1-0.1c0.3,0,0.3,0,0.3,0.3
			c0,0.1,0,0.2,0,0.3c0,0.2,0,0.3,0,0.5c0,0.1,0,0.1-0.1,0.1c-0.3,0-0.3,0-0.3-0.3C188,26.6,188,26.3,188,26.1z M188.4,25.6
			C188.3,25.6,188.4,25.6,188.4,25.6c0,0.2,0,0.3-0.1,0.3c0,0-0.1,0-0.1,0c-0.2,0-0.2,0-0.2-0.2c0-0.2,0-0.2,0.2-0.2
			C188.3,25.4,188.4,25.4,188.4,25.6z M188,25.2C188,25.2,188,25.2,188,25.2c0.1,0,0.2,0,0.3-0.1c0,0,0.1,0,0.1,0.1
			c0,0,0,0.1-0.1,0.1c0,0-0.1,0-0.1,0C188.1,25.3,188.1,25.3,188,25.2C188,25.3,188,25.2,188,25.2z M188,24.9
			C188,24.9,188,24.8,188,24.9c0-0.3,0-0.3,0.1-0.3c0,0,0.1,0,0.1,0c0.2,0,0.2,0,0.2,0.2c0,0.3,0,0.3-0.3,0.3
			C188,25,188,25,188,24.9z M188,27.6c0,0,0-0.1,0-0.1c0-0.2,0-0.2,0.1-0.2c0,0,0.1,0,0.1,0c0.1,0,0.2,0,0.2,0.2l0,0
			C188.4,27.7,188.4,27.7,188,27.6C188,27.7,188,27.7,188,27.6z M188.4,30.6c0,0.2,0,0.2-0.1,0.2c0,0-0.1,0-0.1,0
			c-0.2,0-0.2,0-0.2-0.2c0,0,0,0,0,0c0-0.3,0-0.3,0.3-0.3c0.1,0,0.1,0,0.1,0.1C188.4,30.5,188.3,30.5,188.4,30.6
			C188.3,30.5,188.4,30.5,188.4,30.6z M188.1,27.8c0.3,0,0.3,0,0.3,0.3c0,0.7,0,1.3,0,2c0,0.1,0,0.1-0.1,0.1c-0.3,0-0.3,0-0.3-0.3
			c0-0.3,0-0.6,0-0.9c0-0.4,0-0.7,0-1.1C188,27.9,188,27.8,188.1,27.8z M188,31.2C188,31.1,188,31.1,188,31.2c0-0.2,0-0.2,0.2-0.2
			c0.2,0,0.2,0.1,0.2,0.3C188.3,31.3,188.2,31.2,188,31.2C188,31.3,188,31.2,188,31.2z M187.8,26.9c0,1.4,0,2.8,0,4.2
			c0,0.1-0.1,0.2-0.2,0.1c0,0,0,0,0,0c0,0,0-0.1,0-0.1c0-2.8,0-5.6,0-8.3c0,0,0-0.1,0-0.1c0.1,0,0.1,0,0.2,0c0,0,0,0.1,0,0.1
			C187.8,24.1,187.8,25.5,187.8,26.9z M187.4,24.3C187.4,24.4,187.4,24.4,187.4,24.3c-0.4,0.1-0.4,0.1-0.4-0.2c0-0.5,0-1,0-1.5
			c0-0.1,0-0.1,0.1-0.1c0.3,0,0.3,0,0.3,0.3c0,0.2,0,0.4,0,0.6C187.4,23.8,187.4,24.1,187.4,24.3z M187.1,27.9c0-0.1,0-0.1,0.1-0.1
			c0.3,0,0.3,0,0.3,0.3c0,0.3,0,0.6,0,0.9c0,0.4,0,0.7,0,1.1c0,0.1,0,0.1-0.1,0.1c-0.3,0-0.3,0-0.3-0.3
			C187.1,29.3,187.1,28.6,187.1,27.9z M187.4,27C187.4,27.1,187.4,27.1,187.4,27c-0.4,0.1-0.4,0.1-0.4-0.2c0-0.3,0-0.5,0-0.8
			c0-0.1,0-0.1,0.1-0.1c0.3,0,0.3,0,0.3,0.3c0,0.1,0,0.2,0,0.3C187.4,26.7,187.4,26.9,187.4,27z M187.4,27.5c0,0.2,0,0.2-0.1,0.2
			c0,0-0.1,0-0.1,0c-0.2,0-0.2,0-0.2-0.2c0-0.2,0-0.2,0.2-0.2C187.4,27.3,187.4,27.3,187.4,27.5C187.4,27.4,187.4,27.5,187.4,27.5z
			 M187.1,24.9C187.1,24.8,187.1,24.8,187.1,24.9c0-0.3,0-0.3,0.2-0.3c0.2,0,0.2,0,0.2,0.2c0,0.2,0,0.2-0.2,0.2
			C187.1,25,187,25,187.1,24.9z M187.5,25.2C187.4,25.2,187.4,25.3,187.5,25.2c-0.1,0.1-0.2,0.1-0.3,0.1c0,0-0.1,0-0.1-0.1
			c0,0,0-0.1,0.1-0.1c0,0,0.1,0,0.1,0C187.3,25.2,187.3,25.2,187.5,25.2C187.4,25.2,187.5,25.2,187.5,25.2z M187.1,25.7
			C187.1,25.7,187.1,25.7,187.1,25.7c0-0.3,0-0.3,0.2-0.3c0.2,0,0.2,0,0.2,0.2c0,0.3,0,0.3-0.3,0.3
			C187.1,25.8,187.1,25.8,187.1,25.7z M187.1,31.1c0-0.2,0-0.2,0.2-0.2c0.2,0,0.2,0,0.2,0.2c0,0.1,0,0.1-0.1,0.1c0,0-0.1,0-0.1,0
			C187.1,31.3,187.1,31.2,187.1,31.1z M187.4,30.5C187.4,30.5,187.4,30.5,187.4,30.5c0,0.3,0,0.3-0.2,0.3c-0.2,0-0.2,0-0.2-0.2
			c0-0.2,0-0.2,0.2-0.3C187.4,30.3,187.5,30.4,187.4,30.5z M186.9,24.6c0,2.1,0,4.3,0,6.4c0,0.1-0.1,0.2-0.2,0.1c0,0,0-0.1,0-0.1
			c0-0.3,0-0.6,0-1c0-1.1,0-2.2,0-3.3c0-1.4,0-2.8,0-4.2c0,0,0-0.1,0-0.1c0.1,0,0.1,0,0.2,0c0,0,0,0.1,0,0.1
			C186.9,23.4,186.9,24,186.9,24.6z M186.3,31.2c-0.2,0-0.2,0-0.2-0.2c0-0.1,0-0.2,0.1-0.1c0,0,0,0,0.1,0c0.2,0,0.2,0,0.2,0.2
			C186.5,31.3,186.6,31.2,186.3,31.2z M186.5,24.3c0,0.1,0,0.1-0.1,0.1c-0.3,0-0.3,0-0.3-0.3c0-0.2,0-0.4,0-0.7c0-0.3,0-0.6,0-0.8
			c0-0.1,0-0.1,0.1-0.1c0.3,0,0.3,0,0.3,0.3C186.5,23.4,186.5,23.8,186.5,24.3z M186.2,26.1C186.2,26,186.2,26,186.2,26.1
			c0.4-0.1,0.4-0.1,0.4,0.2c0,0.1,0,0.2,0,0.3h0c0,0.2,0,0.3,0,0.5c0,0.1,0,0.1-0.1,0.1c-0.3,0-0.3,0-0.3-0.3
			C186.2,26.6,186.2,26.3,186.2,26.1z M186.2,24.9C186.2,24.9,186.2,24.8,186.2,24.9c0-0.3,0-0.3,0.2-0.3c0.2,0,0.2,0,0.2,0.2
			c0,0.3,0,0.2-0.3,0.3C186.2,25,186.1,25,186.2,24.9z M186.5,25.2C186.5,25.2,186.5,25.3,186.5,25.2c-0.1,0.1-0.2,0.1-0.3,0.1
			c0,0,0,0,0-0.1c0,0,0-0.1,0.1-0.1c0,0,0.1,0,0.1,0C186.4,25.2,186.4,25.2,186.5,25.2C186.5,25.2,186.5,25.2,186.5,25.2z
			 M186.2,25.7C186.2,25.7,186.2,25.7,186.2,25.7c0-0.3,0-0.3,0.2-0.3c0.2,0,0.2,0,0.2,0.2c0,0.3,0,0.2-0.2,0.3
			C186.2,25.8,186.1,25.8,186.2,25.7z M186.2,30.6c0-0.2,0-0.2,0.2-0.2c0.2,0,0.2,0,0.2,0.2c0,0,0,0,0,0.1c0,0.2,0,0.2-0.2,0.2
			C186.2,30.8,186.2,30.8,186.2,30.6z M186.4,30.2c-0.3,0-0.3,0-0.3-0.3c0-0.3,0-0.6,0-0.9c0-0.4,0-0.7,0-1.1c0-0.1,0-0.1,0.1-0.1
			c0.3,0,0.3,0,0.3,0.3c0,0.7,0,1.3,0,2C186.5,30.2,186.5,30.2,186.4,30.2z M186.5,27.4c0,0,0,0.1,0,0.1c0,0.2,0,0.2-0.2,0.2
			c0,0-0.1,0-0.1,0c-0.1,0-0.1,0-0.1-0.1c0,0,0-0.1,0-0.1c0-0.3,0-0.3,0.3-0.3C186.5,27.3,186.6,27.3,186.5,27.4z M186,31.1
			c0,0.1-0.1,0.2-0.2,0.1c0,0,0,0,0-0.1c0,0,0-0.1,0-0.1c0-1.4,0-2.8,0-4.2c0-1.4,0-2.8,0-4.2c0,0,0-0.1,0-0.1c0.1,0,0.1,0,0.2,0
			c0,0,0,0,0,0c0,0,0,0.1,0,0.1C186,25.5,186,28.3,186,31.1z M185.6,31.1c0,0.2,0,0.2-0.2,0.2c0,0-0.1,0-0.2,0c0-0.1,0-0.2,0-0.3
			c0,0,0,0,0,0c0.1,0,0.2,0,0.3,0C185.6,30.9,185.6,30.9,185.6,31.1C185.6,31,185.6,31,185.6,31.1z M185.3,30.6c0-0.2,0-0.2,0.1-0.2
			c0,0,0.1,0,0.1,0c0.2,0,0.2,0,0.2,0.2c0,0.3,0,0.3-0.3,0.3c-0.1,0-0.1,0-0.1-0.1C185.3,30.6,185.3,30.6,185.3,30.6z M185.5,30.2
			c-0.3,0-0.3,0-0.3-0.3c0-0.7,0-1.3,0-2c0-0.1,0-0.1,0.1-0.1c0.3,0,0.3,0,0.3,0.3c0,0.3,0,0.6,0,0.9c0,0.4,0,0.7,0,1.1
			C185.6,30.2,185.6,30.2,185.5,30.2z M185.6,27.3c0,0,0,0.1,0,0.1c0,0.1,0,0.2-0.1,0.2c0,0-0.1,0-0.1,0c-0.1,0-0.2,0-0.2-0.2l0,0
			C185.3,27.3,185.3,27.3,185.6,27.3C185.6,27.3,185.6,27.3,185.6,27.3z M185.6,24.3c0,0.1,0,0.1-0.1,0.1c-0.3,0-0.3,0-0.3-0.3
			c0-0.5,0-1,0-1.5c0-0.1,0-0.1,0.1-0.1c0.3,0,0.3,0,0.3,0.3c0,0.2,0,0.4,0,0.7C185.6,23.8,185.6,24.1,185.6,24.3z M185.3,24.9
			C185.3,24.9,185.3,24.8,185.3,24.9c0-0.3,0-0.3,0.3-0.3c0.1,0,0.1,0,0.1,0.1c0,0,0,0.1,0,0.1c0,0.2,0,0.2-0.2,0.2
			C185.3,25,185.2,25,185.3,24.9z M185.6,25.2C185.6,25.2,185.6,25.3,185.6,25.2c-0.1,0.1-0.2,0.1-0.3,0.1c0,0-0.1,0-0.1-0.1
			c0-0.1,0-0.1,0.1-0.1c0,0,0.1,0,0.1,0C185.5,25.2,185.5,25.2,185.6,25.2C185.6,25.2,185.6,25.2,185.6,25.2z M185.6,27
			C185.6,27.1,185.6,27.1,185.6,27c-0.4,0.1-0.4,0.1-0.4-0.2c0-0.1,0-0.2,0-0.3c0-0.2,0-0.3,0-0.5c0-0.1,0-0.1,0.1-0.1
			c0.3,0,0.3,0,0.3,0.3C185.6,26.5,185.6,26.8,185.6,27z M185.6,25.5C185.6,25.6,185.6,25.6,185.6,25.5c0,0.3,0,0.3-0.3,0.3
			c-0.1,0-0.1,0-0.1-0.1c0,0,0-0.1,0-0.1c0-0.2,0-0.2,0.2-0.2C185.6,25.4,185.6,25.4,185.6,25.5z M185.1,26.9c0,1.4,0,2.8,0,4.2
			c0,0,0,0.1,0,0.1c-0.1,0-0.1,0-0.2,0c0,0,0,0,0-0.1c0,0,0-0.1,0-0.1c0-2.8,0-5.6,0-8.4c0-0.1,0-0.1,0.1-0.1c0.1,0,0.1,0,0.1,0.1
			C185.1,24.1,185.1,25.5,185.1,26.9z M184.7,24.3c0,0.1,0,0.1-0.1,0.1c-0.3,0-0.3,0-0.3-0.3c0-0.2,0-0.4,0-0.7c0-0.3,0-0.5,0-0.8
			c0-0.1,0-0.1,0.1-0.1c0.3,0,0.3,0,0.3,0.3C184.7,23.4,184.7,23.9,184.7,24.3z M184.3,26.1C184.3,26,184.4,26,184.3,26.1
			c0.4-0.1,0.4-0.1,0.4,0.2c0,0.1,0,0.2,0,0.3c0,0.2,0,0.3,0,0.5c0,0.1,0,0.1-0.1,0.1c-0.3,0-0.3,0-0.3-0.3
			C184.3,26.6,184.3,26.3,184.3,26.1z M184.7,30.1c0,0.1,0,0.1-0.1,0.1c-0.3,0-0.3,0-0.3-0.3c0-0.7,0-1.3,0-2c0-0.1,0-0.1,0.1-0.1
			c0.3,0,0.3,0,0.3,0.3c0,0.3,0,0.6,0,0.9C184.7,29.4,184.7,29.7,184.7,30.1z M184.7,24.7C184.7,24.8,184.7,24.8,184.7,24.7
			c0,0.3,0,0.3-0.2,0.3c-0.2,0-0.2,0-0.2-0.2c0-0.3,0-0.3,0.2-0.3C184.7,24.6,184.7,24.6,184.7,24.7z M184.4,25.2c0.1,0,0.2,0,0.3,0
			c0,0,0.1,0,0.1,0.1c0,0,0,0.1-0.1,0.1c0,0-0.1,0-0.1,0c0,0-0.1,0-0.1,0C184.3,25.3,184.3,25.2,184.4,25.2
			C184.3,25.2,184.4,25.2,184.4,25.2z M184.3,25.7C184.4,25.7,184.3,25.7,184.3,25.7c0-0.3,0-0.3,0.2-0.3c0.2,0,0.2,0,0.2,0.2
			c0,0.3,0,0.2-0.2,0.3C184.4,25.8,184.3,25.8,184.3,25.7z M184.3,30.6C184.4,30.6,184.3,30.6,184.3,30.6c0-0.2,0-0.3,0.1-0.3
			c0,0,0.1,0,0.1,0c0.2,0,0.2,0,0.2,0.2c0,0.2,0,0.2-0.2,0.2C184.4,30.8,184.3,30.8,184.3,30.6z M184.5,30.9
			C184.5,30.9,184.5,30.9,184.5,30.9c0.3,0,0.3,0,0.3,0.2c0,0.1,0,0.1-0.1,0.1c0,0,0,0-0.1,0c-0.2,0-0.2,0-0.2-0.2
			C184.3,30.9,184.4,30.9,184.5,30.9z M184.7,27.4c0,0,0,0.1,0,0.1c0,0.2,0,0.2-0.2,0.2c0,0-0.1,0-0.1,0c0,0-0.1,0-0.1-0.1
			c0,0,0-0.1,0-0.1c0-0.3,0-0.3,0.3-0.3C184.7,27.3,184.7,27.3,184.7,27.4z M184,27.9c0-1.7,0-3.4,0-5.2c0,0,0-0.1,0-0.1
			c0.1,0,0.1,0,0.2,0c0,0,0,0.1,0,0.1c0,0.9,0,1.9,0,2.8c0,0.5,0,1,0,1.4c0,1.4,0,2.8,0,4.2c0,0,0,0.1,0,0.1c-0.1,0-0.1,0-0.2,0
			c0,0,0-0.1,0-0.1C184,30,184,29,184,27.9z M183.8,31.1c0,0.2,0,0.2-0.2,0.2c0,0-0.1,0-0.2,0c0-0.1,0-0.2,0-0.3c0,0,0,0,0,0
			c0.1,0,0.2,0,0.3,0C183.8,30.9,183.8,30.9,183.8,31.1C183.8,31,183.8,31,183.8,31.1z M183.8,24.3c0,0.1,0,0.1-0.1,0.1
			c-0.3,0-0.3,0-0.3-0.3c0-0.2,0-0.4,0-0.7c0-0.3,0-0.6,0-0.8c0-0.1,0-0.1,0.1-0.1c0.3,0,0.3,0,0.3,0.3
			C183.8,23.4,183.8,23.8,183.8,24.3z M183.5,24.9L183.5,24.9c0-0.3,0-0.3,0.3-0.3c0.1,0,0.1,0,0.1,0.1c0,0,0,0.1,0,0.1
			c0,0.2,0,0.2-0.2,0.2C183.5,25,183.4,25,183.5,24.9z M183.8,25.2C183.8,25.3,183.8,25.3,183.8,25.2c-0.1,0.1-0.1,0.1-0.2,0.1
			c0,0-0.1,0-0.1,0c0,0,0,0,0-0.1c0,0,0,0,0.1,0C183.6,25.2,183.7,25.2,183.8,25.2C183.8,25.2,183.8,25.2,183.8,25.2z M183.5,25.7
			C183.5,25.7,183.5,25.7,183.5,25.7c0-0.3,0-0.3,0.3-0.3c0.1,0,0.1,0,0.1,0.1c0,0,0,0,0,0c0,0,0,0.1,0,0.1c0,0.1,0,0.2-0.1,0.2
			c0,0-0.1,0-0.1,0C183.5,25.8,183.4,25.8,183.5,25.7z M183.4,26.1C183.4,26,183.5,26,183.4,26.1c0.4-0.1,0.4-0.1,0.4,0.2
			c0,0.1,0,0.2,0,0.3c0,0.2,0,0.3,0,0.5c0,0.1,0,0.1-0.1,0.1c-0.3,0-0.3,0-0.3-0.3C183.5,26.6,183.5,26.3,183.4,26.1z M183.5,27.5
			C183.5,27.5,183.5,27.5,183.5,27.5c0-0.3,0-0.3,0.3-0.3c0.1,0,0.1,0,0.1,0.1c0,0,0,0.1,0,0.1c0,0.2,0,0.2-0.2,0.2
			C183.5,27.7,183.4,27.7,183.5,27.5z M183.4,27.9c0-0.1,0-0.1,0.1-0.1c0.3,0,0.3,0,0.3,0.3c0,0.7,0,1.3,0,2c0,0.1,0,0.1-0.1,0.1
			c-0.3,0-0.3,0-0.3-0.3c0-0.3,0-0.6,0-0.9C183.5,28.7,183.5,28.3,183.4,27.9z M183.8,30.6c0,0.2,0,0.2-0.2,0.2
			c-0.2,0-0.2,0-0.2-0.2c0-0.3,0-0.3,0.2-0.3C183.8,30.3,183.8,30.4,183.8,30.6C183.8,30.5,183.8,30.5,183.8,30.6z M183.1,29.9
			c0-2.4,0-4.8,0-7.2c0,0,0-0.1,0-0.1c0.1,0,0.1,0,0.2,0c0,0,0,0.1,0,0.1c0,0.3,0,0.6,0,0.9c0,1.1,0,2.2,0,3.3c0,1.4,0,2.8,0,4.2
			c0,0,0,0.1,0,0.1c-0.1,0-0.1,0-0.2,0c0,0,0-0.1,0-0.1C183.1,30.7,183.1,30.3,183.1,29.9z M182.9,24.3
			C182.9,24.4,182.9,24.4,182.9,24.3c-0.4,0.1-0.4,0.1-0.4-0.2c0-0.5,0-1,0-1.5c0-0.1,0-0.1,0.1-0.1c0.3,0,0.3,0,0.3,0.3
			c0,0.2,0,0.4,0,0.7C182.9,23.8,182.9,24.1,182.9,24.3z M182.9,27C182.9,27.1,182.9,27.1,182.9,27c-0.4,0.1-0.4,0.1-0.4-0.2
			c0-0.1,0-0.2,0-0.3h0c0-0.2,0-0.3,0-0.5c0-0.1,0-0.1,0.1-0.1c0.3,0,0.3,0,0.3,0.3C182.9,26.5,182.9,26.8,182.9,27z M182.9,27.5
			c0,0.2,0,0.2-0.1,0.2c0,0-0.1,0-0.1,0c-0.2,0-0.2,0-0.2-0.2c0-0.2,0-0.2,0.2-0.3C182.9,27.3,182.9,27.3,182.9,27.5
			C182.9,27.4,182.9,27.4,182.9,27.5z M182.7,27.8c0.3,0,0.3,0,0.3,0.3c0,0.3,0,0.6,0,0.9c0,0.4,0,0.7,0,1.1c0,0.1,0,0.1-0.1,0.1
			c-0.3,0-0.3,0-0.3-0.3c0-0.7,0-1.3,0-2C182.5,27.9,182.6,27.8,182.7,27.8z M182.5,24.9C182.5,24.9,182.6,24.9,182.5,24.9
			C182.6,24.8,182.5,24.8,182.5,24.9c0-0.2,0-0.3,0.1-0.3c0,0,0.1,0,0.1,0c0.2,0,0.2,0,0.2,0.2c0,0,0,0,0,0.1c0,0.2,0,0.2-0.2,0.2
			C182.6,25,182.5,25,182.5,24.9z M182.9,25.2C182.9,25.3,182.9,25.3,182.9,25.2c-0.1,0.1-0.1,0.1-0.2,0.1c0,0-0.1,0-0.1,0
			c0,0-0.1,0-0.1-0.1c0-0.1,0-0.1,0.1-0.1C182.7,25.2,182.8,25.2,182.9,25.2C182.9,25.2,182.9,25.2,182.9,25.2z M182.5,30.6
			C182.6,30.6,182.5,30.6,182.5,30.6c0-0.3,0-0.3,0.3-0.3c0.1,0,0.1,0,0.1,0.1c0,0,0,0.1,0,0.1c0,0.2,0,0.2-0.2,0.2
			C182.6,30.8,182.5,30.7,182.5,30.6z M182.7,30.9c0.1,0,0.1,0,0.2,0c0,0.1,0,0.2,0,0.3c0,0,0,0,0,0c-0.1,0-0.2,0-0.3,0
			c0,0,0,0,0-0.1c0,0,0-0.1,0-0.1C182.5,30.9,182.5,30.9,182.7,30.9z M182.9,25.6C182.9,25.6,182.9,25.6,182.9,25.6
			c0,0.3,0,0.3-0.3,0.3c0,0-0.1,0-0.1-0.1c0,0,0-0.1,0-0.1c0-0.2,0-0.2,0.2-0.2c0,0,0,0,0,0C182.9,25.4,182.9,25.4,182.9,25.6z
			 M182.2,22.6c0.1,0,0.1,0,0.2,0c0,0,0,0.1,0,0.1c0,0.3,0,0.6,0,0.9c0,1.1,0,2.2,0,3.3c0,1.4,0,2.8,0,4.2c0,0,0,0.1,0,0.1
			c-0.1,0-0.1,0-0.2,0c0,0,0,0,0,0c0,0,0-0.1,0-0.1c0-2.8,0-5.6,0-8.3C182.2,22.7,182.1,22.6,182.2,22.6z M182,24.3
			c0,0.1,0,0.1-0.1,0.1c-0.3,0-0.3,0-0.3-0.3c0-0.2,0-0.4,0-0.7c0-0.3,0-0.6,0-0.8c0-0.1,0-0.1,0.1-0.1c0.3,0,0.3,0,0.3,0.3
			C182,23.4,182,23.8,182,24.3z M181.6,24.9C181.7,24.9,181.6,24.9,181.6,24.9c0-0.4,0-0.3,0.3-0.4c0.1,0,0.1,0,0.1,0.1
			c0,0,0,0.1,0,0.1c0,0.2,0,0.2-0.2,0.2C181.8,25,181.8,25,181.6,24.9C181.7,25,181.6,25,181.6,24.9z M182,27
			C182,27.1,182,27.1,182,27c-0.4,0.1-0.4,0.1-0.4-0.2c0-0.1,0-0.2,0-0.3c0-0.2,0-0.3,0-0.5c0-0.1,0-0.1,0.1-0.1
			c0.3,0,0.3,0,0.3,0.3C182,26.5,182,26.8,182,27z M181.6,27.9c0-0.1,0-0.1,0.1-0.1c0.3,0,0.3,0,0.3,0.3c0,0.7,0,1.3,0,2
			c0,0.1,0,0.1-0.1,0.1c-0.3,0-0.3,0-0.3-0.3c0-0.3,0-0.6,0-0.9C181.6,28.7,181.6,28.3,181.6,27.9z M182,25.2
			C182,25.2,182,25.3,182,25.2c-0.1,0.1-0.1,0.1-0.2,0.1c0,0-0.1,0-0.1,0c0,0-0.1,0-0.1-0.1c0,0,0-0.1,0.1-0.1
			C181.8,25.2,181.9,25.2,182,25.2C182,25.2,182,25.2,182,25.2z M181.6,27.6C181.6,27.6,181.6,27.6,181.6,27.6
			C181.6,27.5,181.6,27.5,181.6,27.6c0-0.2,0-0.3,0.1-0.3c0,0,0.1,0,0.1,0c0.2,0,0.2,0,0.2,0.2c0,0.3,0,0.3-0.3,0.3
			C181.7,27.7,181.6,27.7,181.6,27.6z M181.6,30.6C181.7,30.6,181.6,30.6,181.6,30.6c0-0.2,0-0.3,0.1-0.3c0,0,0.1,0,0.1,0
			c0.2,0,0.2,0,0.2,0.2c0,0.3,0,0.2-0.2,0.3C181.7,30.8,181.6,30.7,181.6,30.6z M181.7,30.9C181.7,30.9,181.7,30.9,181.7,30.9
			c0.1,0,0.1,0,0.2,0c0.2,0,0.2,0,0.2,0.2c0,0.1,0,0.1-0.1,0.1c0,0,0,0-0.1,0c0,0-0.1,0-0.2,0C181.6,31.1,181.6,31,181.7,30.9z
			 M182,25.5C182,25.6,182,25.6,182,25.5c0,0.3,0,0.3-0.1,0.3c0,0,0,0-0.1,0c-0.2,0-0.2,0-0.2-0.2c0-0.2,0-0.2,0.2-0.2
			C182,25.4,182,25.4,182,25.5z M181.5,24.9c0,0.7,0,1.3,0,2c0,1.4,0,2.8,0,4.2c0,0.1-0.1,0.2-0.2,0.1c0,0,0-0.1,0-0.1
			c0-0.4,0-0.8,0-1.1c0-2.4,0-4.8,0-7.2c0-0.1,0.1-0.2,0.2-0.1c0.1,0,0,0.1,0,0.1C181.5,23.4,181.5,24.2,181.5,24.9z M181.1,24.1
			c0,0.1,0,0.1,0,0.2c0,0.1,0,0.1-0.1,0.1c-0.3,0-0.3,0-0.3-0.3c0-0.5,0-1,0-1.5c0-0.1,0-0.1,0.1-0.1c0.3,0,0.3,0,0.3,0.3
			c0,0.2,0,0.5,0,0.7C181.1,23.7,181.1,23.9,181.1,24.1z M180.7,24.9C180.8,24.9,180.7,24.8,180.7,24.9c0-0.3,0-0.3,0.2-0.3
			c0.1,0,0.2,0,0.1,0.1c0,0,0,0,0,0c0,0.3,0,0.3-0.3,0.3C180.8,25,180.7,25,180.7,24.9z M181.1,25.2
			C181.1,25.3,181.1,25.3,181.1,25.2c-0.1,0.1-0.1,0.1-0.2,0.1c0,0-0.1,0-0.1,0c0,0-0.1,0-0.1-0.1c0,0,0-0.1,0.1-0.1
			C180.9,25.2,181,25.2,181.1,25.2C181.1,25.2,181.1,25.2,181.1,25.2z M180.7,25.7c0,0,0-0.1,0-0.1c0-0.2,0-0.2,0.2-0.2
			c0.1,0,0.2,0,0.1,0.1c0,0,0,0,0,0c0,0.3,0,0.3-0.3,0.3C180.8,25.8,180.7,25.8,180.7,25.7z M181.1,30.6c0,0.2,0,0.2-0.2,0.2
			c-0.2,0-0.2,0-0.2-0.2c0-0.2,0-0.2,0.2-0.3c0.1,0,0.1,0,0.1,0.1C181.1,30.5,181.1,30.5,181.1,30.6z M181.1,27
			C181.1,27.1,181.1,27.1,181.1,27c-0.4,0.1-0.4,0.1-0.4-0.2c0-0.3,0-0.5,0-0.8c0-0.1,0-0.1,0.1-0.1c0.3,0,0.3,0,0.3,0.3
			c0,0.1,0,0.2,0,0.3C181.1,26.7,181.1,26.9,181.1,27z M181.1,27.5c0,0.2,0,0.2-0.2,0.2c-0.2,0-0.2,0-0.2-0.2c0-0.3,0-0.3,0.2-0.3
			C181.1,27.3,181.1,27.3,181.1,27.5C181.1,27.4,181.1,27.4,181.1,27.5z M180.8,27.8c0.3,0,0.3,0,0.3,0.3c0,0.7,0,1.3,0,2
			c0,0.1,0,0.1-0.1,0.1c-0.3,0-0.3,0-0.3-0.3c0-0.3,0-0.6,0-0.9c0-0.4,0-0.7,0-1.1C180.7,27.9,180.8,27.8,180.8,27.8z M181,30.9
			c0.1,0,0.1,0,0.2,0c0,0.1,0,0.2,0,0.3c0,0.1-0.1,0-0.2,0c0,0-0.1,0-0.1,0c-0.1,0-0.1,0-0.1-0.1C180.8,30.9,180.7,30.9,181,30.9z
			 M180.4,22.6c0.1,0,0.1,0,0.2,0c0,0,0,0.1,0,0.1c0,0.5,0,1,0,1.5c0,0.9,0,1.8,0,2.8c0,1.4,0,2.8,0,4.2c0,0,0,0.1,0,0.1
			c-0.1,0-0.1,0-0.2,0c0,0,0,0,0-0.1c0,0,0-0.1,0-0.1c0-2.8,0-5.6,0-8.3C180.4,22.7,180.3,22.6,180.4,22.6z M180.2,24.3
			c0,0.1,0,0.1-0.1,0.1c-0.3,0-0.3,0-0.3-0.3c0-0.2,0-0.4,0-0.7c0-0.3,0-0.6,0-0.8c0-0.1,0-0.1,0.1-0.1c0.3,0,0.3,0,0.3,0.3
			C180.2,23.4,180.2,23.8,180.2,24.3z M180.1,30.2c-0.3,0-0.3,0-0.3-0.3c0-0.7,0-1.3,0-2c0-0.1,0-0.1,0.1-0.1c0.3,0,0.3,0,0.3,0.3
			c0,0.3,0,0.6,0,0.9c0,0.4,0,0.7,0,1.1C180.2,30.2,180.2,30.2,180.1,30.2z M180.2,30.5c0,0.2,0,0.2-0.2,0.2c-0.2,0-0.2,0-0.2-0.2
			c0-0.2,0-0.2,0.2-0.2C180.2,30.3,180.2,30.3,180.2,30.5z M179.8,26.1C179.8,26,179.8,26,179.8,26.1c0.4-0.1,0.4-0.1,0.4,0.2
			c0,0.1,0,0.2,0,0.3c0,0.2,0,0.3,0,0.5c0,0.1,0,0.1-0.1,0.1c-0.3,0-0.3,0-0.3-0.3C179.8,26.6,179.8,26.3,179.8,26.1z M179.8,25.6
			c0-0.2,0-0.2,0.2-0.2c0.2,0,0.2,0,0.2,0.2c0,0,0,0,0,0c0,0.2,0,0.2-0.2,0.2C179.8,25.8,179.8,25.8,179.8,25.6z M180.2,24.8
			c0,0.2,0,0.2-0.2,0.2c-0.2,0-0.2,0-0.2-0.2c0-0.2,0-0.2,0.2-0.2C180.2,24.6,180.2,24.6,180.2,24.8z M179.9,25.2c0,0,0.1,0,0.1,0
			c0,0,0.1,0,0.1,0c0,0,0.1,0,0.1,0c0,0,0,0.1,0,0.1c-0.1,0-0.2,0-0.3,0C179.8,25.3,179.8,25.2,179.9,25.2
			C179.8,25.2,179.9,25.2,179.9,25.2z M179.9,27.3c0.1,0,0.2,0,0.3,0c0,0,0,0,0,0.1c0,0.1,0,0.1,0,0.2c0,0.2,0,0.2-0.2,0.2
			c0,0-0.1,0-0.1,0c-0.1,0-0.1,0-0.1-0.1c0,0,0,0,0-0.1C179.8,27.4,179.8,27.3,179.9,27.3z M179.8,31.1c0-0.2,0-0.2,0.2-0.2
			c0.2,0,0.2,0,0.2,0.2c0,0.1,0,0.1-0.1,0.1c0,0-0.1,0-0.1,0C179.9,31.3,179.8,31.2,179.8,31.1z M179.5,22.6c0.1,0,0.1,0,0.2,0
			c0,0,0,0.1,0,0.1c0,0.5,0,1,0,1.4c0,0.9,0,1.9,0,2.8c0,1.4,0,2.8,0,4.2c0,0,0,0.1,0,0.1c-0.1,0-0.1,0-0.2,0c0,0,0,0,0-0.1
			c0,0,0-0.1,0-0.1c0-2.8,0-5.6,0-8.3C179.4,22.7,179.4,22.6,179.5,22.6z M179.3,24.3C179.3,24.4,179.3,24.4,179.3,24.3
			c-0.4,0.1-0.4,0.1-0.4-0.2c0-0.5,0-1,0-1.5c0-0.1,0-0.1,0.1-0.1c0.3,0,0.3,0,0.3,0.3c0,0.2,0,0.4,0,0.6
			C179.3,23.8,179.3,24.1,179.3,24.3z M179,25.3C178.9,25.3,178.9,25.2,179,25.3c0-0.1,0-0.1,0-0.1c0.1,0,0.2,0,0.3,0
			c0,0,0.1,0,0.1,0.1c0,0,0,0.1-0.1,0.1c0,0-0.1,0-0.1,0v0C179.1,25.3,179,25.3,179,25.3z M179.3,24.7
			C179.3,24.7,179.3,24.8,179.3,24.7c0,0.3,0,0.3-0.2,0.3c-0.2,0-0.2,0-0.2-0.2c0-0.3,0-0.2,0.2-0.3
			C179.3,24.6,179.3,24.6,179.3,24.7z M178.9,25.8C178.9,25.7,178.9,25.7,178.9,25.8c0-0.3,0-0.3,0.3-0.4c0.1,0,0.1,0,0.1,0.1
			c0,0,0,0.1,0,0.1c0,0.2,0,0.2-0.1,0.2c0,0-0.1,0-0.1,0C179.1,25.8,179,25.8,178.9,25.8C178.9,25.8,178.9,25.8,178.9,25.8z
			 M178.9,27.9c0-0.1,0-0.1,0.1-0.1c0.3,0,0.3,0,0.3,0.3c0,0.3,0,0.6,0,0.9c0,0.4,0,0.7,0,1.1c0,0.1,0,0.1-0.1,0.1
			c-0.3,0-0.3,0-0.3-0.3C178.9,29.3,178.9,28.6,178.9,27.9z M179.3,27.4c0,0,0,0.1,0,0.1c0,0.2,0,0.2-0.2,0.2c0,0-0.1,0-0.1,0
			c-0.1,0-0.1,0-0.1-0.1c0,0,0,0,0-0.1c0-0.3,0-0.3,0.3-0.3C179.3,27.3,179.3,27.3,179.3,27.4z M179.3,27
			C179.3,27.1,179.3,27.1,179.3,27c-0.4,0.1-0.4,0.1-0.4-0.2c0-0.1,0-0.2,0-0.3c0-0.2,0-0.3,0-0.5c0-0.1,0-0.1,0.1-0.1
			c0.3,0,0.3,0,0.3,0.3C179.3,26.5,179.3,26.8,179.3,27z M179.1,30.9c0.2,0,0.2,0,0.2,0.2c0,0.1,0,0.1-0.1,0.1c0,0-0.1,0-0.1,0
			c-0.1,0-0.2,0-0.2-0.1C178.9,30.9,178.9,30.9,179.1,30.9z M179.3,30.5C179.3,30.5,179.3,30.5,179.3,30.5c0,0.3,0,0.3-0.2,0.3
			c-0.2,0-0.2,0-0.2-0.2c0-0.3,0-0.2,0.2-0.3C179.3,30.3,179.3,30.4,179.3,30.5z M178.8,25c0,2,0,4.1,0,6.1c0,0.1-0.1,0.2-0.2,0.2
			c0,0,0,0,0,0c0,0,0-0.1,0-0.1c0-1.4,0-2.8,0-4.2c0-1.4,0-2.8,0-4.2c0,0,0-0.1,0-0.1c0.1,0,0.1,0,0.2,0c0,0,0,0.1,0,0.1
			C178.8,23.5,178.8,24.2,178.8,25z M178.4,27C178.4,27.1,178.4,27.1,178.4,27c-0.4,0.1-0.4,0.1-0.4-0.2c0-0.3,0-0.5,0-0.8
			c0-0.1,0-0.1,0.1-0.1c0.3,0,0.3,0,0.3,0.2c0,0.1,0,0.2,0,0.3C178.4,26.7,178.4,26.9,178.4,27z M178,28c0-0.1,0-0.1,0.1-0.1
			c0.2,0,0.2,0,0.2,0.2c0,0.3,0,0.6,0,1c0,0.4,0,0.7,0,1.1c0,0.1,0,0.1-0.1,0.1c-0.3,0-0.3,0-0.3-0.3C178,29.3,178,28.6,178,28z
			 M178,27.6C178,27.5,178,27.5,178,27.6c0-0.3,0-0.3,0.2-0.3c0.1,0,0.1,0,0.1,0.2c0,0.2,0,0.2-0.2,0.2
			C178.1,27.7,178,27.7,178,27.6z M178,30.7C178,30.6,178,30.6,178,30.7c0-0.3,0-0.3,0.3-0.3c0,0,0.1,0,0.1,0.1c0,0.1,0,0.1,0,0.2
			c0,0.1,0,0.2-0.1,0.2c0,0-0.1,0-0.2,0C178.1,30.8,178,30.8,178,30.7z M178,30.9C178,30.9,178.1,30.9,178,30.9c0.1,0,0.1,0,0.1,0
			c0.2,0,0.2,0,0.2,0.2c0,0.1,0,0.1-0.1,0.1c0,0,0,0-0.1,0c0,0-0.1,0-0.2,0C178,31.1,178,31,178,30.9z M178.4,25.6
			C178.4,25.6,178.4,25.6,178.4,25.6c0,0.3,0,0.3-0.2,0.3c-0.1,0-0.2,0-0.1-0.1c0,0,0-0.1,0-0.1c0-0.2,0-0.2,0.2-0.2
			C178.4,25.4,178.4,25.4,178.4,25.6z M178.4,24.3c0,0.1,0,0.1-0.1,0.1c-0.3,0-0.3,0-0.3-0.3c0-0.5,0-1,0-1.5c0-0.1,0-0.1,0.1-0.1
			c0.3,0,0.3,0,0.3,0.2c0,0.2,0,0.4,0,0.7C178.4,23.8,178.4,24.1,178.4,24.3z M178,24.9C178,24.9,178,24.9,178,24.9
			c0-0.3,0-0.3,0.2-0.3c0.1,0,0.1,0,0.1,0.1c0,0,0,0.1,0,0.1c0,0.2,0,0.2-0.2,0.2C178.1,25,178,25,178,24.9z M178.4,25.2
			C178.4,25.3,178.4,25.3,178.4,25.2c-0.1,0.1-0.2,0.1-0.3,0.1c0,0-0.1,0-0.1-0.1c0,0,0,0,0.1,0c0,0,0.1,0,0.1,0
			C178.3,25.2,178.3,25.2,178.4,25.2C178.4,25.2,178.4,25.2,178.4,25.2z M177.6,29.2c0-0.8,0-1.5,0-2.3c0,0,0,0,0,0
			c0-1.4,0-2.8,0-4.2c0,0,0-0.1,0-0.1c0.1,0,0.1,0,0.2,0c0,0,0,0,0,0.1c0,0,0,0.1,0,0.1c0,2.8,0,5.5,0,8.3c0,0.1-0.1,0.2-0.2,0.1
			c-0.1,0,0-0.1,0-0.1C177.7,30.5,177.6,29.8,177.6,29.2z M172.1,24.4C172.1,24.4,172,24.4,172.1,24.4c-0.4,0.1-0.4,0.1-0.4-0.2
			c0-0.5,0-1,0-1.5c0-0.1,0-0.1,0.1-0.1c0.3,0,0.3,0,0.3,0.3c0,0.2,0,0.4,0,0.7C172.1,23.8,172.1,24.1,172.1,24.4z M171.7,24.9
			c0,0,0-0.1,0-0.1c0-0.2,0-0.2,0.2-0.2c0.1,0,0.2,0,0.1,0.1c0,0,0,0,0,0c0,0.3,0,0.3-0.3,0.3C171.7,25,171.7,25,171.7,24.9z
			 M172.2,25.4c0-0.9,0-1.8,0-2.7c0-0.1,0-0.1,0.1-0.1c0.1,0,0.1,0,0.1,0.1c0,1.8,0,3.6,0,5.4c0,0.1,0,0.1-0.1,0.1
			c-0.1,0-0.1,0-0.1-0.1C172.2,27.2,172.2,26.3,172.2,25.4z M174.6,28.3c0.9,0,1.8,0,2.8,0c0.1,0,0.1,0,0.1,0.1c0,0.6,0,1.2,0,1.8
			c0,0.1,0,0.1-0.1,0.1c-1.9,0-3.7,0-5.6,0c-0.1,0-0.1,0-0.1-0.1c0-0.6,0-1.2,0-1.9c0-0.1,0-0.1,0.1-0.1
			C172.7,28.3,173.7,28.3,174.6,28.3z M173,24.3C173,24.4,173,24.4,173,24.3c-0.4,0.1-0.4,0.1-0.4-0.2c0-0.5,0-1,0-1.5
			c0-0.1,0-0.1,0.1-0.1c0.3,0,0.3,0,0.3,0.3c0,0.2,0,0.4,0,0.6C173,23.8,173,24.1,173,24.3z M172.6,25.2c0.1,0,0.2,0,0.3,0
			c0,0,0.1,0,0.1,0c0,0,0,0.1-0.1,0.1c0,0-0.1,0-0.1,0c0,0-0.1,0-0.1,0C172.6,25.3,172.6,25.2,172.6,25.2
			C172.6,25.2,172.6,25.2,172.6,25.2z M172.6,24.8c0-0.2,0-0.2,0.2-0.2c0.2,0,0.2,0,0.2,0.2c0,0,0,0,0,0c0,0.2,0,0.2-0.2,0.2
			C172.6,25,172.6,25,172.6,24.8z M172.6,25.8C172.6,25.7,172.6,25.7,172.6,25.8c0-0.4,0-0.3,0.3-0.4c0.1,0,0.1,0,0.1,0.1
			c0,0,0,0.1,0,0.1c0,0.2,0,0.2-0.2,0.2C172.7,25.8,172.7,25.8,172.6,25.8C172.6,25.8,172.6,25.8,172.6,25.8z M173,27.5
			c0,0.2,0,0.2-0.2,0.2c0,0-0.1,0-0.1,0c0,0-0.1,0-0.1-0.1c0,0,0-0.1,0-0.1c0-0.3,0-0.3,0.3-0.3c0.1,0,0.1,0,0.1,0.1
			C173,27.4,173,27.4,173,27.5z M173,27C173,27.1,173,27.1,173,27c-0.4,0.1-0.4,0.1-0.4-0.2c0-0.2,0-0.5,0-0.7c0-0.1,0-0.1,0.1-0.1
			c0.3,0,0.3,0,0.3,0.3c0,0.1,0,0.2,0,0.3C173,26.7,173,26.9,173,27z M172.7,27.8C172.7,27.8,172.7,27.8,172.7,27.8
			c0.3,0,0.3,0,0.3,0.3c0,0.1,0,0.1-0.1,0.1c0,0-0.1,0-0.1,0c-0.2,0-0.2,0-0.2-0.2C172.6,28,172.6,28,172.7,27.8
			C172.6,27.8,172.6,27.8,172.7,27.8z M173.4,25.4c0,0.9,0,1.8,0,2.7c0,0.1,0,0.1-0.1,0.1c-0.1,0-0.1,0-0.1-0.1c0-1.8,0-3.6,0-5.4
			c0-0.1,0.1-0.1,0.1-0.1c0.1,0,0.1,0,0.1,0.1C173.4,23.6,173.4,24.5,173.4,25.4z M173.9,24.3c0,0.1,0,0.1-0.1,0.1
			c-0.3,0-0.3,0-0.3-0.3c0-0.2,0-0.5,0-0.7c0-0.3,0-0.6,0-0.8c0-0.1,0-0.1,0.1-0.1c0.3,0,0.3,0,0.3,0.3
			C173.9,23.4,173.9,23.8,173.9,24.3z M173.5,24.9L173.5,24.9c0-0.3,0-0.3,0.3-0.3c0.1,0,0.1,0,0.1,0.1c0,0,0,0.1,0,0.1
			c0,0.2,0,0.2-0.2,0.2C173.5,25,173.5,25,173.5,24.9z M173.9,25.2C173.9,25.2,173.9,25.3,173.9,25.2c-0.1,0.1-0.2,0.1-0.3,0.1
			c0,0-0.1,0-0.1-0.1c0,0,0-0.1,0.1-0.1c0,0,0.1,0,0.1,0C173.7,25.2,173.8,25.2,173.9,25.2C173.9,25.2,173.9,25.2,173.9,25.2z
			 M173.5,25.7C173.5,25.7,173.5,25.7,173.5,25.7c0-0.3,0-0.3,0.3-0.3c0.1,0,0.1,0,0.1,0.1c0,0,0,0.1,0,0.1c0,0.2,0,0.2-0.2,0.2
			C173.5,25.8,173.5,25.8,173.5,25.7z M173.9,27.5c0,0.2,0,0.2-0.1,0.2c0,0-0.1,0-0.1,0c-0.2,0-0.2,0-0.2-0.2c0-0.2,0-0.2,0.2-0.3
			c0.1,0,0.1,0,0.1,0.1C173.9,27.4,173.9,27.4,173.9,27.5z M173.9,27C173.9,27.1,173.9,27.1,173.9,27c-0.4,0.1-0.4,0.1-0.4-0.2
			c0-0.3,0-0.5,0-0.8c0-0.1,0-0.1,0.1-0.1c0.3,0,0.3,0,0.3,0.3c0,0.1,0,0.2,0,0.3C173.9,26.7,173.9,26.9,173.9,27z M173.9,28.1
			c0,0.1,0,0.1-0.2,0.1c-0.2,0-0.2,0-0.2-0.2c0-0.1,0-0.2,0.2-0.1C173.9,27.8,173.9,27.8,173.9,28.1z M174,25.4c0-0.9,0-1.8,0-2.7
			c0-0.1,0-0.1,0.1-0.1c0.1,0,0.1,0,0.1,0.1c0,1.8,0,3.6,0,5.4c0,0.1,0,0.1-0.1,0.1c-0.1,0-0.1,0-0.1-0.1
			C174,27.2,174,26.3,174,25.4z M174.8,24.3c0,0.1,0,0.1-0.1,0.1c-0.3,0-0.3,0-0.3-0.3c0-0.2,0-0.4,0-0.7c0-0.3,0-0.6,0-0.8
			c0-0.1,0-0.1,0.1-0.1c0.3,0,0.3,0,0.3,0.3C174.8,23.4,174.8,23.9,174.8,24.3z M174.8,27.5c0,0.2,0,0.2-0.2,0.2c0,0-0.1,0-0.1,0
			c-0.1,0-0.1,0-0.1-0.1c0,0,0-0.1,0-0.1c0-0.3,0-0.3,0.3-0.3c0.1,0,0.1,0,0.1,0.1C174.8,27.4,174.8,27.4,174.8,27.5z M174.8,24.8
			c0,0.2,0,0.2-0.2,0.2c-0.2,0-0.2,0-0.2-0.2c0-0.2,0-0.2,0.2-0.2C174.8,24.6,174.8,24.6,174.8,24.8z M174.5,25.2c0,0,0.1,0,0.1,0
			c0,0,0.1,0,0.1,0c0,0,0,0,0,0.1c0,0,0,0.1,0,0.1c-0.1,0-0.2,0-0.3,0C174.4,25.3,174.4,25.2,174.5,25.2
			C174.4,25.2,174.4,25.2,174.5,25.2z M174.8,25.6c0,0.2,0,0.2-0.2,0.2c-0.2,0-0.2,0-0.2-0.2c0-0.2,0-0.2,0.2-0.2
			C174.8,25.4,174.8,25.4,174.8,25.6z M174.5,26c0.3,0,0.3,0,0.3,0.3c0,0.1,0,0.2,0,0.3c0,0.2,0,0.3,0,0.5c0,0.1,0,0.1-0.1,0.1
			c-0.3,0-0.3,0-0.3-0.3c0-0.2,0-0.5,0-0.7C174.4,26,174.4,26,174.5,26z M174.5,27.8C174.5,27.8,174.6,27.8,174.5,27.8
			c0.2,0,0.3,0,0.3,0.1c0,0,0,0.1,0,0.1c0,0,0,0,0,0.1c0,0.1,0,0.1-0.1,0.1c0,0,0,0,0,0c-0.2,0-0.2,0-0.2-0.2
			C174.4,27.9,174.4,27.8,174.5,27.8z M174.9,25.4c0-0.7,0-1.3,0-2c0-0.2,0-0.4,0-0.7c0-0.1,0-0.1,0.1-0.1c0.1,0,0.1,0,0.1,0.1
			c0,1.8,0,3.6,0,5.4c0,0.1,0,0.1-0.1,0.1c-0.1,0-0.1,0-0.1-0.1c0-0.2,0-0.5,0-0.7C174.9,26.7,174.9,26.1,174.9,25.4z M175.7,24.3
			c0,0.1,0,0.1-0.1,0.1c-0.3,0-0.3,0-0.3-0.3c0-0.2,0-0.5,0-0.7c0-0.3,0-0.5,0-0.8c0-0.1,0-0.1,0.1-0.1c0.3,0,0.3,0,0.3,0.3
			C175.7,23.4,175.7,23.8,175.7,24.3z M175.7,24.7c0,0,0,0.1,0,0.1c0,0.2,0,0.2-0.2,0.2c-0.2,0-0.2,0-0.2-0.2c0-0.3,0-0.3,0.3-0.3
			C175.7,24.6,175.7,24.6,175.7,24.7z M175.7,25.2C175.7,25.3,175.7,25.3,175.7,25.2c-0.1,0.1-0.1,0.1-0.2,0.1c0,0-0.1,0-0.1,0
			c0,0,0,0,0-0.1c0,0,0-0.1,0-0.1C175.5,25.2,175.5,25.2,175.7,25.2C175.7,25.2,175.7,25.2,175.7,25.2z M175.3,25.7
			C175.3,25.7,175.3,25.7,175.3,25.7c0-0.3,0-0.3,0.3-0.3c0.1,0,0.1,0,0.1,0.1c0,0,0,0.1,0,0.1c0,0.2,0,0.2-0.2,0.2
			C175.3,25.8,175.3,25.8,175.3,25.7z M175.3,26.1C175.3,26,175.3,26,175.3,26.1c0.4-0.1,0.4-0.1,0.4,0.2c0,0.1,0,0.2,0,0.3
			c0,0.2,0,0.3,0,0.5c0,0.1,0,0.1-0.1,0.1c-0.3,0-0.3,0-0.3-0.3C175.3,26.6,175.3,26.3,175.3,26.1z M175.3,27.5L175.3,27.5
			c0-0.3,0-0.3,0.3-0.3c0.1,0,0.1,0,0.1,0.1c0,0,0,0.1,0,0.1c0,0.2,0,0.2-0.2,0.2C175.3,27.7,175.3,27.7,175.3,27.5z M175.7,28
			c0,0.2,0,0.2-0.2,0.2c-0.1,0-0.1,0-0.1-0.2c0-0.2,0-0.2,0.2-0.2C175.7,27.8,175.7,27.8,175.7,28z M176.1,25.4c0,0.9,0,1.8,0,2.7
			c0,0.1-0.1,0.1-0.1,0.1c-0.1,0-0.1,0-0.1-0.1c0-1.8,0-3.6,0-5.4c0-0.1,0-0.1,0.1-0.1c0.1,0,0.1,0,0.1,0.1
			C176.1,23.6,176.1,24.5,176.1,25.4z M176.6,24.3c0,0.1,0,0.1-0.1,0.1c-0.3,0-0.3,0-0.3-0.3c0-0.5,0-1,0-1.5c0-0.1,0-0.1,0.1-0.1
			c0.3,0,0.3,0,0.3,0.3c0,0.2,0,0.4,0,0.7C176.6,23.8,176.6,24.1,176.6,24.3z M176.2,26.1C176.2,26,176.2,26,176.2,26.1
			c0.4-0.1,0.4-0.1,0.4,0.2c0,0.3,0,0.5,0,0.8c0,0.1,0,0.1-0.1,0.1c-0.3,0-0.3,0-0.3-0.3c0-0.1,0-0.2,0-0.3
			C176.2,26.4,176.2,26.2,176.2,26.1z M176.6,25.5C176.6,25.6,176.6,25.6,176.6,25.5c0,0.3,0,0.3-0.2,0.3c-0.2,0-0.2,0-0.2-0.2
			c0-0.2,0-0.2,0.2-0.3C176.6,25.4,176.6,25.4,176.6,25.5z M176.2,25.2C176.2,25.2,176.2,25.2,176.2,25.2c0.1-0.1,0.1-0.1,0.2-0.1
			c0,0,0.1,0,0.1,0c0,0,0.1,0,0.1,0.1c0,0,0,0.1,0,0.1C176.4,25.3,176.4,25.3,176.2,25.2C176.2,25.3,176.2,25.2,176.2,25.2z
			 M176.2,24.9C176.2,24.9,176.2,24.8,176.2,24.9c0-0.3,0-0.3,0.2-0.3c0.2,0,0.2,0,0.2,0.2c0,0.2,0,0.2-0.2,0.2
			C176.2,25,176.2,25,176.2,24.9z M176.2,27.5C176.2,27.5,176.2,27.5,176.2,27.5c0-0.3,0-0.3,0.3-0.3c0,0,0.1,0,0.1,0.1
			c0,0,0,0.1,0,0.1c0,0.2,0,0.2-0.2,0.2c0,0,0,0-0.1,0C176.2,27.7,176.2,27.7,176.2,27.5z M176.2,28c0-0.1,0-0.2,0.1-0.1
			c0,0,0,0,0,0c0.1,0,0.2,0,0.2,0.1c0,0,0,0.1,0,0.1c0,0.2,0,0.2-0.2,0.2C176.2,28.2,176.2,28.2,176.2,28
			C176.2,28,176.2,28,176.2,28z M177,25.4c0,0.9,0,1.8,0,2.7c0,0.1,0,0.1-0.1,0.1c-0.1,0-0.1,0-0.1-0.1c0-1.8,0-3.6,0-5.4
			c0-0.1,0-0.1,0.1-0.1c0.1,0,0.1,0,0.1,0.1C177,23.6,177,24.5,177,25.4z M177.5,24.3c0,0.1,0,0.1-0.1,0.1c-0.3,0-0.3,0-0.3-0.3
			c0-0.5,0-1,0-1.5c0-0.1,0-0.1,0.1-0.1c0.3,0,0.3,0,0.3,0.3c0,0.2,0,0.4,0,0.7C177.5,23.8,177.5,24.1,177.5,24.3z M177.5,28.1
			C177.5,28.2,177.5,28.2,177.5,28.1c-0.1,0.1-0.1,0.1-0.1,0.1c-0.3,0-0.3,0-0.3-0.3c0-0.1,0-0.1,0.1-0.1c0,0,0.1,0,0.1,0
			C177.5,27.8,177.5,27.8,177.5,28.1C177.5,28.1,177.5,28.1,177.5,28.1z M177.1,26.1c0-0.1,0-0.1,0.1-0.1c0.3,0,0.3,0,0.3,0.3
			c0,0.1,0,0.2,0,0.3c0,0.2,0,0.3,0,0.5c0,0.1,0,0.1-0.1,0.1c-0.3,0-0.3,0-0.3-0.3C177.1,26.6,177.1,26.3,177.1,26.1z M177.5,25.6
			C177.5,25.6,177.5,25.6,177.5,25.6c0,0.3,0,0.3-0.2,0.3c-0.2,0-0.2,0-0.2-0.2c0-0.3,0-0.3,0.2-0.3
			C177.5,25.4,177.5,25.4,177.5,25.6z M177.4,25.3c0,0-0.1,0-0.1,0c0,0-0.1,0-0.1,0c0,0,0,0,0-0.1c0,0,0-0.1,0.1,0
			c0.1,0,0.2,0,0.3,0C177.5,25.2,177.5,25.2,177.4,25.3C177.5,25.3,177.5,25.3,177.4,25.3z M177.1,24.9
			C177.1,24.8,177.1,24.8,177.1,24.9c0-0.3,0-0.3,0.2-0.3c0.2,0,0.2,0,0.2,0.2c0,0.3,0,0.2-0.2,0.3C177.1,25,177.1,25,177.1,24.9z
			 M172.1,27C172.1,27.1,172,27.1,172.1,27c-0.4,0.1-0.4,0.1-0.4-0.2c0-0.3,0-0.5,0-0.8c0-0.1,0-0.1,0.1-0.1c0.3,0,0.3,0,0.3,0.3
			c0,0.1,0,0.2,0,0.3C172.1,26.7,172.1,26.9,172.1,27z M172.1,28c0,0.1,0,0.1,0,0.2c0,0,0,0,0,0l0,0c0,0,0,0,0,0c0,0,0,0,0,0
			c0,0,0,0,0,0c0,0,0,0,0,0c-0.2,0-0.2,0-0.2-0.1c0-0.2,0-0.2,0.2-0.2c0,0,0,0,0.1,0C172.1,27.8,172,27.9,172.1,28z M172.1,27.4
			C172.1,27.4,172.1,27.4,172.1,27.4c0,0.3,0,0.3-0.2,0.3c-0.1,0-0.1,0-0.1-0.2c0-0.3,0-0.3,0.3-0.3C172,27.3,172.1,27.3,172.1,27.4
			z M177.5,30.8C177.5,30.8,177.4,30.8,177.5,30.8c-0.5,0-1,0-1.5,0c-0.5,0-1,0-1.4,0c-0.9,0-1.9,0-2.8,0c-0.1,0-0.1,0-0.1-0.1
			c0-0.1,0-0.1,0.1-0.1c1.9,0,3.7,0,5.6,0c0,0,0.1,0,0.1,0C177.5,30.7,177.5,30.7,177.5,30.8z M172.1,25.5
			C172.1,25.6,172.1,25.6,172.1,25.5c0,0.3,0,0.3-0.3,0.3c-0.1,0-0.1,0-0.1-0.1c0,0,0,0,0,0c0,0,0-0.1,0-0.1c0-0.1,0-0.2,0.1-0.2
			c0,0,0.1,0,0.2,0C172,25.4,172.1,25.4,172.1,25.5z M171.7,25.2C171.7,25.2,171.7,25.2,171.7,25.2c0.1,0,0.2,0,0.3-0.1
			c0,0,0.1,0,0.1,0.1c0,0,0,0.1-0.1,0.1c0,0-0.1,0-0.1,0C171.8,25.3,171.8,25.3,171.7,25.2C171.7,25.3,171.7,25.3,171.7,25.2z
			 M171.8,31c1.9,0,3.7,0,5.6,0c0.1,0,0.1,0.1,0.1,0.1c0,0.1,0,0.1-0.1,0.1c-0.9,0-1.9,0-2.8,0c-0.9,0-1.9,0-2.8,0
			c-0.1,0-0.1,0-0.1-0.1C171.7,31,171.7,31,171.8,31z M177.5,27.4C177.5,27.4,177.5,27.5,177.5,27.4c0,0.3,0,0.3-0.2,0.3
			c-0.2,0-0.2,0-0.2-0.2c0-0.2,0-0.2,0.2-0.2C177.5,27.2,177.5,27.3,177.5,27.4z M171.5,26.9C171.5,26.9,171.5,26.9,171.5,26.9
			c0,1.1,0,2.3,0,3.4c0,0.3,0,0.5,0,0.8c0,0.1,0,0.1-0.1,0.1c-0.1,0-0.1,0-0.1-0.1c0-2.7,0-5.5,0-8.2c0,0,0-0.1,0-0.1
			c0-0.1,0-0.1,0.1-0.1c0.1,0,0.1,0,0.1,0.1C171.5,24.1,171.5,25.5,171.5,26.9z M170.8,25.5c0-0.1,0-0.1,0.1-0.1
			c0.2,0,0.2,0,0.2,0.2c0,0.2,0,0.2-0.2,0.2c-0.1,0-0.2,0-0.2-0.2C170.8,25.6,170.8,25.6,170.8,25.5z M171.2,24.3
			c0,0.1,0,0.1-0.1,0.1c-0.3,0-0.3,0-0.3-0.2c0-0.2,0-0.5,0-0.7c0-0.3,0-0.5,0-0.8c0-0.1,0-0.1,0.1-0.1c0.3,0,0.3,0,0.3,0.3
			C171.2,23.3,171.2,23.8,171.2,24.3z M170.8,26.1C170.8,26,170.8,26,170.8,26.1c0.4-0.1,0.4-0.1,0.4,0.2c0,0.1,0,0.2,0,0.3h0
			c0,0.2,0,0.3,0,0.5c0,0.1,0,0.1-0.1,0.1c-0.3,0-0.3,0-0.3-0.3C170.8,26.6,170.8,26.3,170.8,26.1z M170.8,25.2
			C170.8,25.2,170.8,25.2,170.8,25.2c0.1-0.1,0.1-0.1,0.2-0.1c0,0,0.1,0,0.1,0c0,0,0.1,0,0.1,0c0,0,0,0.1-0.1,0.1
			C171,25.3,170.9,25.3,170.8,25.2C170.8,25.3,170.8,25.3,170.8,25.2z M170.8,27.6C170.8,27.5,170.8,27.5,170.8,27.6
			c0-0.3,0-0.3,0.1-0.3c0,0,0.1,0,0.1,0c0.1,0,0.2,0,0.2,0.1c0,0,0,0,0,0.1c0,0.2,0,0.2-0.2,0.2C170.8,27.7,170.8,27.7,170.8,27.6z
			 M171.2,30.6c0,0.1,0,0.1-0.1,0.1c-0.2,0-0.2,0-0.2-0.2c0-0.2,0-0.2,0.2-0.2c0.1,0,0.2,0,0.1,0.1
			C171.2,30.5,171.2,30.6,171.2,30.6z M170.9,27.8c0.3,0,0.3,0,0.3,0.3c0,0.7,0,1.3,0,2c0,0.1,0,0.1-0.1,0.1c-0.2,0-0.2,0-0.2-0.2
			c0-0.3,0-0.6,0-1c0-0.4,0-0.7,0-1.1C170.8,27.9,170.8,27.8,170.9,27.8z M170.8,31.2C170.8,31.2,170.8,31.1,170.8,31.2
			c0-0.3,0-0.3,0.2-0.3c0,0,0.1,0,0.1,0c0,0,0.1,0,0.1,0.1c0,0.1,0,0.1,0,0.2C171.1,31.3,171,31.2,170.8,31.2
			C170.8,31.3,170.8,31.2,170.8,31.2z M171.1,25c-0.1,0-0.2,0-0.3,0c0,0,0,0,0-0.1c0-0.1,0-0.1,0-0.2c0-0.2,0-0.2,0.1-0.2
			c0,0,0.1,0,0.1,0c0.1,0,0.2,0,0.1,0.1c0,0,0,0,0,0.1C171.1,24.9,171.2,25,171.1,25z M170.4,27.8c0-1.7,0-3.4,0-5c0,0,0-0.1,0-0.1
			c0.1,0,0.1,0,0.2,0c0,0,0,0.1,0,0.1c0,0.8,0,1.6,0,2.5c0,0.6,0,1.2,0,1.8c0,1.4,0,2.8,0,4.2c0,0,0,0.1,0,0.1c-0.1,0-0.1,0-0.2,0
			c0,0,0-0.1,0-0.1C170.4,30,170.4,28.9,170.4,27.8z M170.3,24.3c0,0.1,0,0.1-0.1,0.1c-0.3,0-0.3,0-0.3-0.3c0-0.2,0-0.4,0-0.7
			c0-0.3,0-0.5,0-0.8c0-0.1,0-0.1,0.1-0.1c0.3,0,0.3,0,0.3,0.3C170.3,23.4,170.3,23.9,170.3,24.3z M169.9,27.9c0-0.1,0-0.1,0.1-0.1
			c0.3,0,0.3,0,0.3,0.3c0,0.3,0,0.6,0,0.9c0,0.4,0,0.7,0,1.1c0,0.1,0,0.1-0.1,0.1c-0.3,0-0.3,0-0.3-0.3
			C169.9,29.3,169.9,28.6,169.9,27.9z M169.9,26.1C169.9,26,169.9,26,169.9,26.1c0.4-0.1,0.4-0.1,0.4,0.2c0,0.1,0,0.2,0,0.3
			c0,0.2,0,0.3,0,0.5c0,0.1,0,0.1-0.1,0.1c-0.3,0-0.3,0-0.3-0.3C169.9,26.6,169.9,26.3,169.9,26.1z M170.3,25.6
			C170.3,25.6,170.3,25.6,170.3,25.6c0,0.3,0,0.3-0.2,0.3c-0.2,0-0.2,0-0.2-0.2c0-0.2,0-0.2,0.2-0.2
			C170.2,25.4,170.3,25.4,170.3,25.6z M170.3,24.8c0,0.2,0,0.2-0.2,0.2c-0.2,0-0.2,0-0.2-0.2c0-0.2,0-0.2,0.2-0.2
			C170.2,24.6,170.3,24.6,170.3,24.8C170.3,24.8,170.3,24.8,170.3,24.8z M170,25.2c0.1,0,0.2,0,0.2,0c0,0,0.1,0,0.1,0.1
			c0,0.1,0,0.1-0.1,0.1c0,0-0.1,0-0.1,0c0,0-0.1,0-0.1,0C169.9,25.3,169.9,25.3,170,25.2C169.9,25.2,169.9,25.2,170,25.2z
			 M169.9,27.3c0.1,0,0.2,0,0.3,0c0,0,0,0,0,0.1c0,0.1,0,0.1,0,0.2c0,0.2,0,0.2-0.1,0.2c0,0-0.1,0-0.1,0c0,0-0.1,0-0.1,0
			c-0.1,0-0.1,0-0.1-0.1c0,0,0-0.1,0-0.1C169.9,27.4,169.8,27.3,169.9,27.3z M170,30.9C170,30.9,170,30.9,170,30.9
			c0.3,0,0.2,0,0.3,0.2c0,0.1,0,0.1-0.1,0.1c0,0,0,0-0.1,0c-0.2,0-0.2,0-0.2-0.1c0,0,0,0,0-0.1C169.9,30.9,169.9,30.9,170,30.9z
			 M170.3,30.5C170.3,30.5,170.3,30.5,170.3,30.5c0,0.3,0,0.3-0.2,0.3c-0.2,0-0.2,0-0.2-0.2c0-0.2,0-0.2,0.2-0.3
			C170.2,30.3,170.3,30.4,170.3,30.5z M169.5,30c0-1,0-2.1,0-3.1c0-1.4,0-2.8,0-4.2c0,0,0-0.1,0-0.1c0.1,0,0.1,0,0.2,0
			c0,0,0,0,0,0.1c0,0,0,0.1,0,0.1c0,2.8,0,5.5,0,8.3c0,0.1-0.1,0.2-0.2,0.1c-0.1,0,0-0.1,0-0.1C169.5,30.8,169.5,30.4,169.5,30z
			 M169,24.9c0-0.1,0-0.2,0-0.2c0.1,0,0.2,0,0.3,0c0,0,0.1,0,0.1,0.1c0,0.1,0,0.1,0,0.2c0,0.2,0,0.2-0.1,0.2c0,0-0.1,0-0.1,0
			c0,0,0,0-0.1,0C169,25,168.9,25,169,24.9C169,24.9,169,24.9,169,24.9z M169.4,24.3c0,0.1,0,0.1-0.1,0.1c-0.3,0-0.3,0-0.3-0.3
			c0-0.2,0-0.4,0-0.6c0-0.3,0-0.6,0-0.8c0-0.1,0-0.1,0.1-0.1c0.3,0,0.3,0,0.3,0.3C169.4,23.4,169.3,23.9,169.4,24.3z M169.4,25.2
			C169.4,25.3,169.3,25.3,169.4,25.2c-0.1,0.1-0.2,0.1-0.2,0.1c0,0-0.1,0-0.1,0c0,0-0.1,0-0.1-0.1c0,0,0-0.1,0.1-0.1
			C169.1,25.2,169.2,25.2,169.4,25.2C169.3,25.2,169.4,25.2,169.4,25.2z M169,25.7C169,25.7,169,25.7,169,25.7c0-0.3,0-0.3,0.3-0.3
			c0.1,0,0.1,0,0.1,0.1c0,0,0,0.1,0,0.1c0,0.1,0,0.2-0.1,0.2c0,0-0.1,0-0.1,0C169.1,25.8,169.1,25.8,169,25.7
			C169,25.9,169,25.8,169,25.7z M169.2,30.2c-0.3,0-0.3,0-0.3-0.3c0-0.3,0-0.6,0-0.9c0-0.4,0-0.7,0-1.1c0-0.1,0-0.1,0.1-0.1
			c0.3,0,0.3,0,0.3,0.3c0,0.7,0,1.3,0,2C169.4,30.2,169.3,30.2,169.2,30.2z M169.4,30.6c0,0.2,0,0.2-0.2,0.2c-0.2,0-0.2,0-0.2-0.2
			c0-0.2,0-0.2,0.2-0.2C169.4,30.3,169.4,30.3,169.4,30.6z M169.4,27C169.4,27.1,169.3,27.1,169.4,27c-0.4,0.1-0.4,0.1-0.4-0.2
			c0-0.2,0-0.5,0-0.7c0-0.1,0-0.1,0.1-0.1c0.3,0,0.3,0,0.3,0.3c0,0.1,0,0.2,0,0.3C169.4,26.7,169.3,26.9,169.4,27z M169.4,27.4
			c0,0,0,0.1,0,0.1c0,0.2,0,0.2-0.2,0.2c0,0-0.1,0-0.1,0c0,0-0.1,0-0.1-0.1c0,0,0-0.1,0-0.1c0-0.3,0-0.3,0.3-0.3
			C169.3,27.3,169.4,27.3,169.4,27.4z M169.1,30.9C169.1,30.9,169.1,30.9,169.1,30.9c0.3,0,0.3,0,0.3,0.3c0,0.1,0,0.1-0.1,0.1
			c0,0-0.1,0-0.1,0c-0.2,0-0.2,0-0.2-0.2C169,30.9,169,30.9,169.1,30.9z M168.6,22.6c0.1,0,0.1,0,0.2,0c0,0,0,0,0,0c0,0,0,0.1,0,0.1
			c0,2.8,0,5.6,0,8.3c0,0.1-0.1,0.2-0.2,0.1c0,0,0,0,0-0.1c0,0,0-0.1,0-0.1c0-1.4,0-2.8,0-4.2c0-1.4,0-2.8,0-4.2
			C168.6,22.7,168.5,22.6,168.6,22.6z M168.7,31.7c-0.1,0-0.1,0-0.1-0.1c0-0.2,0-0.2,0.2-0.2c3.8,0,7.6,0,11.5,0v0
			c3.8,0,7.7,0,11.5,0c0.1,0,0.1,0,0.1,0.1c0,0.2,0,0.2-0.2,0.2C184.1,31.7,176.4,31.7,168.7,31.7z M161.7,16.6
			c0.1-0.3,0.1-0.3,0.4-0.2c0.9,0,1.7,0.1,2.6,0.1c0,0,0,0,0.1,0c-0.1,0.1-0.1,0.2-0.2,0.3c0,0,0,0-0.1,0c-0.2,0-0.5,0-0.7-0.1
			c-0.1,0-0.1,0-0.1,0.1c-0.1,0.3-0.3,0.6-0.4,0.9c0,0.1,0,0.1,0,0.1c0.2,0.2,0.3,0.3,0.5,0.5c0,0,0.1,0.1,0,0.1
			c0,0.1-0.1,0.2-0.1,0.3c-0.4-0.4-0.8-0.8-1.2-1.2c-0.3-0.3-0.5-0.5-0.8-0.8C161.7,16.7,161.7,16.7,161.7,16.6z M160.6,19.9
			c0.2-0.6,0.3-1.1,0.5-1.7c0-0.1,0-0.1,0.1-0.1c0.2,0.1,0.2,0.1,0.2,0.3c-0.1,0.4-0.2,0.8-0.3,1.2c0,0.1,0,0.1,0.1,0.1
			c0.2,0,0.4,0.1,0.6,0.2c0.1,0,0.1,0,0.2-0.1c0.1-0.4,0.2-0.8,0.3-1.2c0-0.1,0-0.1,0.1-0.1c0.2,0.1,0.2,0.1,0.1,0.3
			c-0.1,0.4-0.2,0.8-0.3,1.1c0,0.1,0,0.1,0.1,0.1c0.2,0.1,0.5,0.1,0.7,0.2c0.1,0,0.1,0,0.1-0.1c0.1-0.5,0.3-0.9,0.4-1.4
			c0-0.1,0.1-0.1,0.1-0.1c0,0,0.1,0,0.1,0c0,0,0.1,0,0,0.1c-0.1,0.3-0.2,0.6-0.3,1c-0.1,0.3-0.2,0.6-0.2,0.8c0,0.1,0,0.1-0.1,0.1
			c-0.8-0.2-1.6-0.5-2.4-0.7C160.6,20,160.6,20,160.6,19.9z M160.1,22.3c0.1-0.6,0.2-1.2,0.3-1.8c0-0.1,0.1-0.1,0.1-0.1
			c0.2,0,0.2,0,0.2,0.2c0,0.2-0.1,0.4-0.1,0.6c0,0.1,0,0.1,0.1,0.1c0.4,0.1,0.8,0.2,1.3,0.2c0.3,0.1,0.6,0.1,0.9,0.2
			c0.1,0,0.1,0,0.1,0.1c0,0.1,0,0.1,0,0.2c0,0,0,0.1-0.1,0.1c-0.4-0.1-0.8-0.2-1.2-0.2c-0.3-0.1-0.7-0.1-1-0.2c-0.1,0-0.1,0-0.1,0.1
			c0,0.2-0.1,0.5-0.1,0.7c0,0.1,0,0.1-0.1,0.1C160.1,22.5,160.1,22.5,160.1,22.3z M160.3,23.6c0.8-0.3,1.6-0.6,2.4-0.9
			c0.1,0,0.1,0,0.1,0.1c0,0.3,0,0.3-0.3,0.4c-0.2,0.1-0.3,0.1-0.5,0.2c-0.1,0-0.1,0-0.1,0.1c0,0.3,0,0.6,0,0.9c0,0.1,0,0.1,0.1,0.1
			c0.2,0.1,0.4,0.2,0.6,0.3c0.1,0,0.1,0.1,0.1,0.1c0,0.1,0,0.2,0,0.3c-0.5-0.2-1-0.4-1.4-0.6c-0.4-0.2-0.7-0.3-1.1-0.5
			c-0.1,0-0.1-0.1-0.1-0.1C160,23.7,160,23.7,160.3,23.6z M160.1,27c0-0.6-0.1-1.2-0.1-1.8c0-0.1,0-0.1,0.1-0.1c0.2,0,0.2,0,0.2,0.2
			c0,0.2,0,0.4,0,0.6c0,0.1,0,0.1,0.1,0.1c0.7-0.1,1.4-0.1,2.1-0.2c0.1,0,0.1,0,0.1,0.1c0,0,0,0.1,0,0.1c0,0.1,0,0.1-0.1,0.1
			c-0.6,0-1.2,0.1-1.8,0.1c-0.1,0-0.2,0-0.2,0c-0.1,0-0.1,0.1-0.1,0.2c0,0.2,0,0.4,0,0.6c0,0.1,0,0.1-0.1,0.1
			C160.1,27.2,160.1,27.2,160.1,27z M160.2,27.8c0-0.3,0-0.3,0.2-0.3c0.7-0.1,1.4-0.2,2-0.3c0.1,0,0.2,0,0.3,0c0,0,0.1,0,0.1,0.1
			c0,0.3,0,0.3-0.3,0.3c-0.6,0.1-1.2,0.1-1.8,0.2c-0.1,0-0.3,0-0.4,0.1C160.2,27.9,160.2,27.8,160.2,27.8z M160.8,30.1
			c-0.3-0.3-0.4-0.7-0.3-1.2c0.1-0.3,0.2-0.4,0.5-0.5c0.1,0,0.1,0,0.1,0c0,0,0,0,0,0.1c0.1,0.1,0.1,0.2-0.1,0.3
			c-0.2,0.1-0.2,0.2-0.2,0.4c0,0.2,0,0.4,0.2,0.6c0.1,0.1,0.2,0.2,0.4,0.2c0.1,0,0.2-0.1,0.3-0.3c0-0.3,0-0.6,0-0.9
			c0-0.5,0.4-0.8,0.8-0.7c0.3,0,0.5,0.2,0.6,0.4c0.1,0.2,0.2,0.5,0.2,0.7c0,0.5-0.2,0.8-0.6,1c-0.1,0-0.1,0-0.1-0.1
			c0-0.1-0.1-0.1-0.1-0.2c0-0.1,0.1-0.1,0.2-0.1c0.2-0.1,0.2-0.3,0.3-0.4c0-0.3,0-0.5-0.2-0.8c-0.1-0.1-0.3-0.2-0.4-0.2
			c-0.2,0-0.3,0.2-0.3,0.3c0,0.3,0,0.6,0,0.8c0,0.1,0,0.2,0,0.3c-0.1,0.2-0.2,0.4-0.5,0.5C161.2,30.4,160.9,30.3,160.8,30.1z
			 M161.8,33.2c0,0-0.1,0.1-0.1,0c-0.2-0.4-0.4-0.9-0.5-1.3c-0.1-0.5,0.1-0.9,0.6-0.9c0.3,0,0.5,0.1,0.7,0.3c0,0,0.1,0.1,0.1,0.1
			c0.1-0.5,0.5-0.9,0.8-1.3c0.1,0.1,0.1,0.3,0.2,0.4c0,0.1,0,0.1,0,0.1c-0.2,0.3-0.4,0.5-0.6,0.8c-0.1,0.2-0.2,0.4-0.1,0.7
			c0,0.1,0.1,0.2,0.1,0.3c0,0.1,0.1,0.1,0.1,0.1c0.3-0.1,0.6-0.2,0.9-0.4c0.1,0,0.1,0,0.1,0.1c0.1,0.2,0.1,0.2-0.1,0.3
			C163.3,32.7,162.6,33,161.8,33.2z M163,35.6c-0.3-0.5-0.6-1-0.9-1.5c0-0.1,0-0.1,0-0.1c0.2-0.1,0.2-0.1,0.3,0.1
			c0.2,0.4,0.4,0.7,0.6,1.1c0,0.1,0.1,0.1,0.1,0c0.2-0.1,0.4-0.2,0.6-0.3c0.1,0,0.1-0.1,0-0.1c-0.2-0.4-0.4-0.7-0.6-1.1
			c0-0.1,0-0.1,0-0.2c0.2-0.1,0.2-0.1,0.3,0.1c0.2,0.3,0.4,0.7,0.6,1c0,0.1,0.1,0.1,0.1,0c0.2-0.1,0.4-0.2,0.7-0.4c0,0,0,0,0.1,0
			c0,0,0-0.1,0-0.1c-0.2-0.4-0.5-0.8-0.7-1.2c0-0.1,0-0.1,0-0.2c0.2-0.1,0.2-0.1,0.3,0.1c0.3,0.5,0.5,1,0.8,1.5c0,0.1,0,0.1,0,0.1
			c-0.7,0.4-1.5,0.8-2.2,1.2C163,35.6,163,35.6,163,35.6z M164.9,38C164.9,38.1,164.9,38.1,164.9,38c-0.1,0-0.2-0.1-0.3-0.2
			c0,0,0-0.1,0-0.1c0.4-0.7,0.8-1.3,1.3-2c0,0,0,0,0-0.1c-0.4,0.1-0.8,0.3-1.2,0.4c-0.3,0.1-0.7,0.2-1,0.3c-0.1,0-0.1,0-0.2,0
			c0-0.1-0.1-0.1-0.2-0.2c0.4-0.1,0.8-0.2,1.2-0.4c0.5-0.1,1-0.3,1.5-0.4c0.1,0,0.1,0,0.2,0c0.2,0.2,0.2,0.2,0,0.4
			C165.7,36.6,165.3,37.3,164.9,38z M165.2,38.5c-0.2-0.2-0.2-0.2,0-0.4c0.6-0.5,1.2-1,1.8-1.5c0,0,0.1-0.1,0.1,0
			c0,0.1,0.1,0.1,0.1,0.2c0,0,0,0,0,0.1c0,0,0,0-0.1,0.1c-0.6,0.5-1.3,1.1-1.9,1.6C165.3,38.6,165.3,38.6,165.2,38.5z M167.3,40.6
			c-0.1-0.1-0.2-0.2-0.1-0.4c0.1-0.7,0.3-1.4,0.4-2.1c0,0,0-0.1,0-0.2c-0.3,0.3-0.6,0.6-0.9,1c-0.2,0.2-0.3,0.3-0.5,0.5
			c0,0-0.1,0-0.1,0c-0.2-0.2-0.2-0.2,0-0.4c0.5-0.6,1.1-1.1,1.6-1.7c0.1-0.1,0.1-0.1,0.2,0c0.2,0.1,0.2,0.3,0.1,0.4
			c-0.1,0.7-0.3,1.4-0.4,2.2c0,0,0,0,0,0c0,0,0.1,0,0.1-0.1c0.4-0.4,0.9-0.9,1.3-1.3c0.1-0.1,0.1-0.1,0.2,0c0.2,0.2,0.2,0.2,0,0.3
			c-0.5,0.6-1.1,1.1-1.6,1.7C167.3,40.6,167.3,40.6,167.3,40.6z M170.7,41c-0.3,0.4-0.6,0.9-0.9,1.3c0,0.1-0.1,0.1-0.1,0
			c-0.2-0.2-0.2-0.2-0.1-0.4c0.3-0.4,0.5-0.7,0.8-1.1c0,0,0-0.1,0.1-0.1c0.3-0.5,0-1.1-0.6-1.1c-0.1,0-0.2,0-0.3,0.1
			c-0.2,0.1-0.3,0.3-0.4,0.4c-0.3,0.4-0.5,0.7-0.8,1.1c0,0.1-0.1,0.1-0.1,0c-0.2-0.2-0.2-0.1-0.1-0.4c0.3-0.4,0.6-0.8,0.9-1.2
			c0.2-0.2,0.4-0.4,0.6-0.4c0.1,0,0.3,0,0.4,0c0.3,0.1,0.6,0.3,0.8,0.7c0.1,0.1,0.1,0.2,0.1,0.3C171,40.6,170.9,40.8,170.7,41z
			 M177.6,42.2c-0.1,0.6-0.2,1.3-0.4,1.9c-0.1,0.3-0.1,0.5-0.2,0.8c0,0.1,0,0.1-0.1,0.1c-0.2,0-0.4-0.1-0.6-0.1
			c-0.1,0-0.1,0-0.1-0.1c0.1-0.5,0.2-1.1,0.3-1.6c0,0,0-0.1,0-0.1c-0.2,0.1-0.4,0.2-0.6,0.2c-0.3,0.1-0.3,0.1-0.3-0.2
			c0-0.3,0.1-0.4,0.4-0.4c0.3,0,0.5-0.2,0.7-0.4c0,0,0.1-0.1,0.1,0c0.2,0,0.3,0.1,0.5,0.1C177.6,42.1,177.7,42.1,177.6,42.2z
			 M176.8,39.7c-0.3,0-0.7,0-1,0c-0.6-0.1-1-0.5-1.1-1.1c0-0.2,0-0.3,0-0.5c0-0.7,0-1.3,0-2c0-0.1,0-0.1,0.1-0.1c0.3,0,0.5,0,0.8,0
			c0.1,0,0.1,0,0.1,0.1c0,0.7,0,1.4,0,2.1c0,0.1,0,0.2,0,0.3c0.1,0.3,0.4,0.5,0.7,0.5c0.4,0,0.7-0.3,0.7-0.7c0-0.4,0-0.7,0-1.1h0
			c0-0.4,0-0.8,0-1.1c0-0.1,0-0.1,0.1-0.1c0.3,0,0.6,0,0.8,0c0.1,0,0.1,0,0.1,0.1c0,0.8,0,1.5,0,2.3C178.1,39,177.6,39.6,176.8,39.7
			z M180.3,44.2c0.1,0.5-0.2,0.9-0.7,1c-0.3,0.1-0.7,0-1-0.1c-0.5-0.2-0.7-0.7-0.5-1.2c0.1-0.2,0.2-0.2,0.4-0.4
			c-0.2-0.2-0.4-0.4-0.3-0.7c0.1-0.3,0.3-0.5,0.6-0.6c0.4-0.1,0.7,0,1.1,0.1c0.4,0.2,0.5,0.7,0.2,1.1c-0.1,0.1-0.2,0.1-0.2,0.2
			C180.1,43.8,180.2,44,180.3,44.2z M180.3,38.2c-0.1,0-0.1,0-0.1,0.1c0,0.4,0,0.8,0,1.2c0,0.1,0,0.1-0.1,0.1c-0.3,0-0.5,0-0.8,0
			c-0.1,0-0.1,0-0.1-0.1c0-0.6,0-1.2,0-1.8c0-0.6,0-1.2,0-1.7c0-0.1,0-0.1,0.1-0.1c0.6,0,1.3,0,1.9,0c0.8,0,1.1,0.6,1,1.3
			c-0.1,0.6-0.5,1-1.1,1C180.8,38.2,180.5,38.2,180.3,38.2z M182.2,45.1c-0.2,0-0.4,0-0.6,0c-0.1,0-0.1,0-0.1-0.1
			c0-0.5-0.1-1.1-0.1-1.6c0,0,0-0.1,0-0.1c-0.2,0.2-0.5,0.4-0.8,0.5c0-0.2,0-0.4-0.1-0.6c0-0.1,0-0.1,0.1-0.1
			c0.3-0.1,0.5-0.3,0.7-0.5c0,0,0.1-0.1,0.1-0.2c0-0.1,0.1-0.2,0.2-0.2c0.1,0,0.3,0,0.4,0c0.1,0,0.1,0,0.1,0.1
			c0,0.4,0.1,0.8,0.1,1.2c0,0.5,0.1,1,0.1,1.5C182.3,45.1,182.3,45.1,182.2,45.1z M185,44.6c-0.2,0.1-0.4,0.2-0.6,0.2
			c-0.2,0-0.5,0.1-0.8,0c-0.5-0.2-0.8-0.9-0.4-1.2c0.1-0.1,0.1-0.1,0.2-0.2c-0.2-0.1-0.4-0.2-0.5-0.5c-0.1-0.3,0-0.6,0.3-0.8
			c0.4-0.2,0.8-0.3,1.2-0.2c0.6,0.1,0.7,0.7,0.4,1.1c0,0,0,0,0,0.1c0,0,0,0,0.1,0c0.3,0.1,0.5,0.3,0.5,0.6
			C185.3,44.2,185.2,44.5,185,44.6z M186,39.4c-0.2,0.1-0.4,0.2-0.6,0.2c-0.3,0-0.5,0.1-0.8,0.1c-0.5,0-1,0-1.5,0
			c-0.1,0-0.1,0-0.1-0.1c0-1.2,0-2.3,0-3.5c0-0.1,0-0.1,0.1-0.1c0.8,0,1.5,0,2.3,0c0.4,0,0.7,0.3,0.8,0.6c0.2,0.5,0,0.9-0.5,1.1
			c-0.1,0-0.2,0.1-0.3,0.1c0.1,0,0.2,0.1,0.3,0.1c0.3,0.1,0.6,0.3,0.6,0.7C186.4,38.8,186.3,39.1,186,39.4z M192.4,41.2
			c-0.2,0.1-0.2,0.1-0.3,0c-0.4-0.6-0.9-1.2-1.3-1.8c-0.1-0.1-0.1-0.1,0-0.2c0.2-0.1,0.2-0.1,0.3,0.1c0.4,0.6,0.9,1.2,1.3,1.8
			C192.4,41,192.4,41.1,192.4,41.2C192.4,41.1,192.4,41.2,192.4,41.2z M194.3,39.6c-0.5,0.4-0.9,0.8-1.4,1.2c0,0-0.1,0-0.1,0
			c-0.2-0.2-0.2-0.2,0-0.3c0.1-0.1,0.3-0.2,0.4-0.3c0.1-0.1,0.1-0.1,0-0.1c-0.4-0.5-0.9-1-1.3-1.5c-0.1-0.1-0.1-0.1,0-0.2
			c0.2-0.1,0.2-0.1,0.3,0c0.4,0.5,0.8,1,1.3,1.4c0,0.1,0.1,0.1,0.1,0c0.2-0.1,0.3-0.3,0.5-0.4c0.1,0,0.1-0.1,0.1,0
			C194.3,39.4,194.3,39.5,194.3,39.6C194.4,39.5,194.4,39.6,194.3,39.6z M195.8,37.8c-0.1,0.5-0.5,0.9-0.9,1c-0.2,0-0.3,0-0.5-0.1
			c0,0-0.1-0.1,0-0.1c0,0,0,0,0,0c0.1-0.1,0.1-0.1,0.3-0.1c0.1,0,0.3,0,0.4,0c0.2-0.1,0.3-0.3,0.4-0.5c0.1-0.2,0-0.3-0.1-0.4
			c-0.1-0.1-0.2-0.1-0.4,0c-0.2,0.1-0.4,0.3-0.5,0.4c-0.1,0.1-0.2,0.1-0.3,0.2c-0.5,0.2-0.9-0.2-0.9-0.6c0-0.2,0.1-0.4,0.2-0.6
			c0,0,0.1-0.1,0-0.1c0-0.1-0.1,0-0.1,0c-0.1,0.1-0.2,0.1-0.3,0c-0.1-0.1-0.1-0.2-0.1-0.3c0-0.2,0.2-0.3,0.3-0.4
			c0.1-0.1,0.1,0,0.1,0c0,0,0.1,0.1,0,0.1c-0.1,0.1-0.1,0.1-0.2,0.2c0,0.1,0,0.1,0,0.2c0.1,0.1,0.1,0,0.2,0c0.1-0.1,0.1-0.1,0.2,0
			c0,0.1,0.1,0,0.1,0c0.3-0.3,0.7-0.3,1-0.1c0.1,0.1,0.1,0.1,0,0.2c0,0,0,0,0,0c-0.1,0.1-0.1,0.2-0.3,0.1c-0.1-0.1-0.3-0.1-0.4,0
			c-0.3,0.1-0.5,0.3-0.5,0.6c0,0.2,0,0.3,0.1,0.4c0.1,0.1,0.3,0.1,0.4,0c0.2-0.1,0.4-0.3,0.6-0.4c0.1-0.1,0.2-0.1,0.4-0.2
			C195.4,37,195.9,37.3,195.8,37.8z M197.5,35.8c-0.3,0.4-0.6,0.9-0.9,1.3c0,0.1-0.1,0.1-0.1,0c-0.2-0.1-0.2-0.1-0.1-0.3
			c0.2-0.3,0.5-0.7,0.7-1c0.1-0.1,0-0.1,0-0.2c-0.2-0.1-0.3-0.2-0.5-0.3c0,0,0,0-0.1,0c0,0,0,0-0.1,0.1c-0.2,0.3-0.5,0.6-0.7,1
			c-0.1,0.1-0.1,0.1-0.2,0c0,0,0,0-0.1,0c-0.1,0-0.1-0.1,0-0.1c0.2-0.3,0.5-0.6,0.7-1c0.1-0.1,0-0.1,0-0.2c-0.2-0.1-0.3-0.2-0.5-0.4
			c-0.1-0.1-0.1-0.1-0.2,0c-0.2,0.4-0.5,0.7-0.8,1.1c-0.1,0.1-0.1,0.1-0.2,0c0,0-0.1,0-0.1-0.1c-0.1,0,0-0.1,0-0.1
			c0.3-0.5,0.7-1,1-1.4c0-0.1,0.1,0,0.1,0c0.6,0.5,1.3,0.9,1.9,1.4C197.5,35.7,197.5,35.7,197.5,35.8z M198.8,33.3
			c-0.2,0.4-0.4,0.8-0.6,1.2c-0.3,0.5-0.9,0.4-1.2-0.1c-0.1-0.2-0.1-0.3,0-0.5c0,0,0-0.1,0-0.1c0,0,0,0,0,0c0,0,0,0,0,0
			c-0.3,0.2-0.6,0.2-0.9,0.2c-0.1,0-0.3,0-0.5,0c0.1-0.1,0.1-0.2,0.2-0.3c0-0.1,0.1,0,0.1,0c0.3,0,0.6,0,1-0.1
			c0.2,0,0.3-0.1,0.4-0.3c0-0.1,0.1-0.2,0.2-0.3c0-0.1,0-0.1,0-0.1c-0.3-0.1-0.6-0.3-0.8-0.4c-0.1,0-0.1-0.1,0-0.1
			c0.1-0.2,0.1-0.2,0.3-0.1c0.7,0.3,1.3,0.7,2,1C198.9,33.2,198.9,33.2,198.8,33.3z M199.8,30.6c-0.1,0.2-0.1,0.2-0.3,0.1
			c-0.5-0.1-0.9-0.3-1.4-0.4c-0.4-0.1-0.7,0-0.8,0.5c0,0,0,0.1,0,0.1c0,0.2,0,0.4,0.2,0.5c0.2,0.1,0.4,0.2,0.6,0.2
			c0.4,0.1,0.7,0.2,1.1,0.3c0.1,0,0.1,0,0.1,0.1c-0.1,0.2-0.1,0.2-0.3,0.2c-0.5-0.2-1-0.3-1.4-0.5c-0.5-0.2-0.7-0.6-0.5-1.1
			c0-0.2,0.1-0.3,0.2-0.5c0.2-0.2,0.4-0.3,0.7-0.3c0.2,0,0.4,0.1,0.5,0.1c0.4,0.1,0.8,0.3,1.3,0.4C199.8,30.5,199.9,30.5,199.8,30.6
			z M199.6,29.6c-0.3,0.1-0.3,0.1-0.3-0.2c0-0.1,0-0.1,0.1-0.1c0.3-0.1,0.5-0.2,0.5-0.5c0.1-0.3,0-0.6-0.3-0.8
			c-0.4-0.3-0.8-0.3-1.2-0.2c-0.3,0.1-0.5,0.3-0.5,0.7c0,0.3,0.1,0.6,0.4,0.7c0.1,0,0.1,0.1,0.1,0.2c-0.1,0.2-0.1,0.2-0.3,0.1
			c-0.4-0.2-0.5-0.6-0.4-1c0.1-0.4,0.2-0.8,0.6-0.9c0.2-0.1,0.4-0.1,0.6-0.1c0.4,0,0.8,0.1,1.1,0.5
			C200.5,28.3,200.4,29.3,199.6,29.6z M200.4,25.3c-0.4,0-0.8-0.1-1.2-0.1c-0.1,0-0.1,0-0.2,0c-0.6,0-0.9,0.5-0.6,1
			c0.1,0.2,0.3,0.3,0.5,0.3c0.5,0,1,0.1,1.5,0.1c0.1,0,0.1,0,0.1,0.1c0,0.2,0,0.2-0.2,0.2c-0.5,0-1-0.1-1.5-0.1
			c-0.7-0.1-0.9-0.5-0.8-1.1c0-0.1,0-0.3,0.1-0.4c0.1-0.3,0.4-0.4,0.7-0.5c0.1,0,0.2,0,0.3,0l0,0c0.5,0,1,0.1,1.5,0.1
			c0.1,0,0.1,0,0.1,0.1C200.7,25.3,200.7,25.3,200.4,25.3z"/>
		<path class="st0" d="M192.6,10.7c0.2,0.1,0.3,0.3,0.5,0.4c0.1-0.3,0.3-0.6,0.4-0.9c0,0,0,0,0,0C193.2,10.4,192.9,10.5,192.6,10.7z
			"/>
		<path class="st0" d="M167.4,10C167.4,10,167.4,10,167.4,10c-0.2,0-0.3,0.2-0.4,0.3c0,0,0,0,0,0.1c0.1,0.1,0.2,0.2,0.3,0.4
			c0,0,0,0,0.1,0c0.1-0.1,0.2-0.2,0.3-0.3C167.8,10.2,167.6,10,167.4,10z"/>
		<path class="st0" d="M170.3,8.2c-0.2-0.1-0.4-0.1-0.6,0c-0.2,0.1-0.3,0.3-0.2,0.6c0.1,0.3,0.2,0.5,0.4,0.7
			c0.1,0.1,0.2,0.1,0.3,0.1c0.3,0,0.6-0.3,0.6-0.6C170.7,8.7,170.6,8.4,170.3,8.2z"/>
		<path class="st0" d="M184.8,38c-0.3,0-0.5,0-0.8,0c-0.1,0-0.1,0-0.1,0.1c0,0.1,0,0.3,0,0.4c0,0.1,0,0.3,0,0.4c0,0,0,0.1,0.1,0.1
			c0.3,0,0.6,0,0.8,0c0.2,0,0.4-0.2,0.4-0.4C185.4,38.2,185.2,38,184.8,38z"/>
		<path class="st0" d="M181.2,37c0-0.2-0.1-0.4-0.4-0.4c-0.2,0-0.4,0-0.6,0c-0.1,0-0.1,0-0.1,0.1c0,0.1,0,0.3,0,0.4
			c0,0.1,0,0.3,0,0.4c0,0,0,0.1,0.1,0.1c0.2,0,0.5,0,0.7,0C181.1,37.4,181.2,37.2,181.2,37z"/>
		<path class="st0" d="M184,37c0,0.1,0,0.2,0,0.4c0,0.1,0,0.1,0.1,0.1c0.2,0,0.5,0,0.7,0c0.3,0,0.4-0.2,0.4-0.4
			c0-0.2-0.2-0.4-0.4-0.4c-0.2,0-0.4,0-0.7,0c-0.1,0-0.1,0-0.1,0.1C184,36.7,184,36.8,184,37z"/>
	</g>
</g>
</svg>
