<?xml version="1.0" encoding="utf-8"?>
<!-- Generator: Adobe Illustrator 21.0.0, SVG Export Plug-In . SVG Version: 6.00 Build 0)  -->
<svg version="1.1" id="Layer_1" xmlns="http://www.w3.org/2000/svg" xmlns:xlink="http://www.w3.org/1999/xlink" x="0px" y="0px"
	 viewBox="0 0 200 200" style="enable-background:new 0 0 200 200;" xml:space="preserve">
<style type="text/css">
	.st0{stroke:#000000;stroke-width:0.75;stroke-miterlimit:10;}
	.st1{fill:#CCCCCC;}
</style>
<g>
	<path class="st0" d="M43,154.2c0,1.4,0.5,2,1.4,2c0.6,0,0.8-0.1,1.1-0.2v0.3c-0.3,0.1-0.6,0.2-1.1,0.2c-1.1,0-1.7-0.7-1.7-2.3v-12
		H43V154.2z"/>
	<path class="st0" d="M54.9,151.7h-8.1c0.1,2.8,1.6,4.5,4.1,4.5c1.6,0,3-0.8,3.7-2.2l0.3,0.1c-0.7,1.4-2.1,2.3-3.9,2.3
		c-2.8,0-4.4-1.9-4.4-5c0-3.1,1.6-5,4.3-5c2.5,0,4.1,1.9,4.1,5.1V151.7z M46.8,151.4h7.8c-0.1-2.9-1.4-4.7-3.8-4.7
		C48.3,146.7,46.8,148.4,46.8,151.4z"/>
	<path class="st0" d="M65,149.1l-0.3,0.1c-0.4-1.6-1.7-2.5-3.5-2.5c-2.6,0-4.1,1.8-4.1,4.8c0,3,1.5,4.8,4.1,4.8c1.8,0,3.4-1,3.7-2.7
		l0.3,0.1c-0.3,1.7-2,2.8-3.9,2.8c-2.8,0-4.4-1.9-4.4-5c0-3.1,1.6-5,4.4-5C63.1,146.4,64.6,147.4,65,149.1z"/>
	<path class="st0" d="M72.2,155.7c-0.4,0.4-1.1,0.7-1.9,0.7c-1.6,0-2.3-0.9-2.3-2.6v-7h-1.9v-0.3h1.9v-2.5l0.3-0.1v2.6h3.7v0.3h-3.7
		v7c0,1.5,0.6,2.4,2,2.4c0.7,0,1.2-0.2,1.7-0.7L72.2,155.7z"/>
	<path class="st0" d="M81.5,146.6v9.7h-0.3v-2.6c-0.4,1.6-2,2.8-4,2.8c-2.1,0-3.4-1.2-3.4-3.4v-6.4h0.3v6.4c0,2,1.1,3.2,3.1,3.2
		c2.8,0,4-2.3,4-3.7v-5.9H81.5z"/>
	<path class="st0" d="M89.7,146.9l-0.2,0.2c-0.3-0.3-0.5-0.4-1.2-0.4c-1.8,0-3.1,2-3.1,4v5.6h-0.3v-9.7h0.3v2.5
		c0.4-1.5,1.6-2.7,3.2-2.7C89,146.4,89.4,146.6,89.7,146.9z"/>
	<path class="st0" d="M98.6,151.7h-8.1c0.1,2.8,1.6,4.5,4.1,4.5c1.6,0,3-0.8,3.7-2.2l0.3,0.1c-0.7,1.4-2.1,2.3-3.9,2.3
		c-2.8,0-4.4-1.9-4.4-5c0-3.1,1.6-5,4.3-5c2.5,0,4.1,1.9,4.1,5.1V151.7z M90.5,151.4h7.8c-0.1-2.9-1.4-4.7-3.8-4.7
		C92,146.7,90.5,148.4,90.5,151.4z"/>
	<path class="st0" d="M114.9,156l0,0.3c-0.2,0.1-0.4,0.2-0.7,0.2c-0.6,0-1.4-0.3-1.4-1.8v-0.3c-0.5,1.4-2.4,2-4,2
		c-1.9,0-3-0.9-3-2.3c0-1.5,1-2.3,3.6-2.8l3.4-0.6v-1.2c0-1.8-1.1-2.9-3.1-2.9c-1.8,0-2.9,0.7-3.5,2.3l-0.3-0.2
		c0.6-1.6,1.8-2.4,3.7-2.4c2.2,0,3.4,1.1,3.4,3.1v5.3c0,0.9,0.4,1.4,1.1,1.4C114.4,156.2,114.7,156.2,114.9,156z M112.8,153.4V151
		l-3.2,0.6c-2.5,0.5-3.5,1.3-3.5,2.6c0,1.3,1,2,2.8,2C110.4,156.2,112.8,155.4,112.8,153.4z"/>
	<path class="st0" d="M124.1,149.1l-0.3,0.1c-0.4-1.6-1.7-2.5-3.5-2.5c-2.6,0-4.1,1.8-4.1,4.8c0,3,1.5,4.8,4.1,4.8
		c1.8,0,3.4-1,3.7-2.7l0.3,0.1c-0.3,1.7-2,2.8-3.9,2.8c-2.8,0-4.4-1.9-4.4-5c0-3.1,1.6-5,4.4-5C122.2,146.4,123.7,147.4,124.1,149.1
		z"/>
	<path class="st0" d="M131.3,155.7c-0.4,0.4-1.1,0.7-1.9,0.7c-1.6,0-2.3-0.9-2.3-2.6v-7h-1.9v-0.3h1.9v-2.5l0.3-0.1v2.6h3.7v0.3
		h-3.7v7c0,1.5,0.6,2.4,2,2.4c0.7,0,1.2-0.2,1.7-0.7L131.3,155.7z"/>
	<path class="st0" d="M132.7,144.3c0-0.3,0.2-0.4,0.4-0.4c0.3,0,0.4,0.2,0.4,0.4c0,0.3-0.2,0.4-0.4,0.4
		C132.9,144.7,132.7,144.6,132.7,144.3z M133.3,156.3H133v-9.7h0.3V156.3z"/>
	<path class="st0" d="M143.8,146.6l-4.1,9.7h-0.3l-4.1-9.7h0.3l3.9,9.3l3.9-9.3H143.8z"/>
	<path class="st0" d="M145.6,144.3c0-0.3,0.2-0.4,0.4-0.4c0.3,0,0.4,0.2,0.4,0.4c0,0.3-0.2,0.4-0.4,0.4
		C145.8,144.7,145.6,144.6,145.6,144.3z M146.2,156.3h-0.3v-9.7h0.3V156.3z"/>
	<path class="st0" d="M154.2,155.7c-0.4,0.4-1.1,0.7-1.9,0.7c-1.6,0-2.3-0.9-2.3-2.6v-7h-1.9v-0.3h1.9v-2.5l0.3-0.1v2.6h3.7v0.3
		h-3.7v7c0,1.5,0.6,2.4,2,2.4c0.7,0,1.2-0.2,1.7-0.7L154.2,155.7z"/>
	<path class="st0" d="M158.3,158.2c-0.7,1.7-1.4,2.2-2.6,2.2c-0.7,0-1.2-0.2-1.5-0.6l0.2-0.3c0.3,0.4,0.8,0.6,1.4,0.6
		c1,0,1.7-0.4,2.3-2l0.8-1.9l-4.1-9.7h0.3l3.6,8.5l0.3,0.8l0.3-0.8l3.5-8.5h0.3L158.3,158.2z"/>
</g>
<path class="st1" d="M100.1,188.5c-48.4,0-87.9-39.4-87.9-87.9s39.4-87.9,87.9-87.9s87.9,39.4,87.9,87.9S148.5,188.5,100.1,188.5z
	 M100.1,13.8c-47.9,0-86.9,39-86.9,86.9c0,47.9,39,86.9,86.9,86.9c47.9,0,86.9-39,86.9-86.9C186.9,52.8,148,13.8,100.1,13.8z"/>
<g>
	<path d="M102,136v-2c25.9,0,47-21.1,47-47s-21.1-47-47-47v-2c27,0,49,22,49,49S129,136,102,136z"/>
	<path d="M102,136c-27,0-49-22-49-49c0-10.3,3.1-20.1,9.1-28.5l0.1-0.1l8.7-8.7l1.4,1.4l-8.6,8.6C58,67.8,55,77.2,55,87
		c0,25.9,21.1,47,47,47V136z"/>
	<polygon points="73.6,66.9 71.6,66.9 71.6,50.8 55.5,50.8 55.5,48.8 73.6,48.8 	"/>
</g>
<g>
	<path d="M102,123.6c-2.3,0-4.3-1.9-4.9-4.5c-3.7-1-7-3-10-6c-1.2-1.2-2.4-2.6-3.4-4.1c-4.4-6.3-6.8-14.6-7-23.3l-0.2-0.3
		c-2.2-2.7-3.3-5.8-3.3-8.9c0-9.5,10.1-17.2,24.2-18.7c-0.3-4,0.6-8,2.7-11.3c0.5-0.9,1.4-1.4,2.3-1.7c1-0.2,2-0.1,2.8,0.5
		c0.9,0.5,1.4,1.4,1.7,2.3c0.2,1,0.1,2-0.5,2.8c-1.3,2.1-1.9,4.7-1.6,7.2c8.8,0.6,16.4,3.6,21.2,8.3c3.1,3.1,4.7,6.7,4.7,10.5
		c0,3.1-1.1,6.2-3.3,8.9l-0.2,0.3c-0.2,16.3-8.7,30.2-20.4,33.3C106.4,121.6,104.4,123.6,102,123.6C102,123.6,102,123.6,102,123.6z
		 M103.4,46.8c-0.1,0-0.3,0-0.4,0c-0.5,0.1-0.9,0.4-1.1,0.8c-2,3.2-2.8,7.1-2.3,11l0.1,1.1l-1.1,0.1c-13.6,1-23.4,8.1-23.4,16.8
		c0,2.6,1,5.3,2.9,7.7l0.6,0.8l0,0.3c0.1,8.5,2.4,16.5,6.6,22.6c1,1.4,2,2.7,3.2,3.8c2.9,2.9,6.2,4.8,9.7,5.6l0.7,0.2l0.1,0.7
		c0.2,2,1.5,3.4,3,3.4c0,0,0,0,0,0c1.5,0,2.8-1.5,3-3.5l0.1-0.7l0.7-0.2c11.2-2.6,19.4-16,19.5-31.9l0-0.3l0.6-0.8
		c1.9-2.4,2.9-5,2.9-7.6c0-3.2-1.4-6.4-4.1-9.1c-4.5-4.5-12-7.3-20.7-7.7l-0.8,0l-0.2-0.8c-0.6-3.3,0-6.6,1.7-9.4
		c0.2-0.4,0.3-0.9,0.2-1.3c-0.1-0.5-0.4-0.8-0.8-1.1C104,46.9,103.7,46.8,103.4,46.8z M102.1,114.2c-5.2,0-10.1-3-13.8-8.3
		c-3.9-5.6-6-13-6-20.9c0-0.1,0-0.3,0-0.4l0-0.7l0.6-0.2c5.6-1.9,12.2-2.9,19.1-2.9c6.9,0,13.5,1,19.1,2.9l0.7,0.2l0,1.1
		C121.8,101.1,113,114.2,102.1,114.2z M84.3,85.3c0.1,7.4,2,14.3,5.6,19.4c3.3,4.8,7.7,7.5,12.1,7.5c9.7,0,17.6-12,17.8-26.9
		c-5.2-1.7-11.4-2.6-17.8-2.6C95.6,82.7,89.5,83.6,84.3,85.3z M124,80.9l-0.8-0.3c-6.1-2.2-13.6-3.4-21.1-3.4
		c-7.6,0-15.1,1.2-21.1,3.4l-0.8,0.3l-0.4-0.8c-0.6-1.2-0.9-2.4-0.9-3.6c0-3.6,2.5-7,7.1-9.6c4.4-2.4,10.1-3.8,16.1-3.8c0,0,0,0,0,0
		c8.3,0,16,2.6,20.2,6.8c1.4,1.4,3.1,3.7,3.1,6.6c0,1.2-0.3,2.4-0.9,3.6L124,80.9z M102,75.2c7.5,0,14.8,1.1,20.9,3.2
		c0.2-0.6,0.3-1.3,0.3-1.9c0-2.2-1.4-4-2.5-5.2c-3.8-3.8-11-6.2-18.8-6.2c0,0,0,0,0,0c-5.6,0-11.1,1.3-15.2,3.5
		c-3.9,2.2-6.1,5-6.1,7.8c0,0.6,0.1,1.3,0.3,1.9C87.3,76.3,94.5,75.2,102,75.2z"/>
</g>
</svg>
