<?xml version="1.0" encoding="utf-8"?>
<!-- Generator: Adobe Illustrator 20.1.0, SVG Export Plug-In . SVG Version: 6.00 Build 0)  -->
<svg version="1.1" id="Layer_1" xmlns="http://www.w3.org/2000/svg" xmlns:xlink="http://www.w3.org/1999/xlink" x="0px" y="0px"
	 viewBox="0 0 50 50" style="enable-background:new 0 0 50 50;" xml:space="preserve">
<style type="text/css">
	.st0{fill:none;stroke:#000000;stroke-width:1.7214;stroke-miterlimit:10;}
</style>
<g>
	<g>
		<path class="st0" d="M36.3,14.5c-6.7,0.1-10,5-10.4,5.2v-5.2h-7.8v31.2h7.8V27.5c0-0.7,1.6-6,7.8-5.2c3.3,0.2,5.1,4.6,5.2,5.2
			v18.2l7.8,0V24.1C46.4,21,44.8,14.6,36.3,14.5z M5.1,45.7h7.8V14.5H5.1V45.7z M9,4.1C6.8,4.1,5.1,5.8,5.1,8c0,2.2,1.7,3.9,3.9,3.9
			c2.2,0,3.9-1.7,3.9-3.9C12.9,5.8,11.1,4.1,9,4.1z"/>
	</g>
</g>
</svg>
