<?xml version="1.0" encoding="utf-8"?>
<!-- Generator: Adobe Illustrator 21.0.0, SVG Export Plug-In . SVG Version: 6.00 Build 0)  -->
<svg version="1.1" id="Layer_1" xmlns="http://www.w3.org/2000/svg" xmlns:xlink="http://www.w3.org/1999/xlink" x="0px" y="0px"
	 viewBox="0 0 200 200" style="enable-background:new 0 0 200 200;" xml:space="preserve">
<style type="text/css">
	.st0{stroke:#000000;stroke-width:0.5;stroke-miterlimit:10;}
	.st1{fill:#CCCCCC;}
</style>
<g>
	<path d="M100,115.5c-1.8,0-3.2-1.4-3.7-3.4c-2.8-0.7-5.3-2.2-7.6-4.5c-0.9-0.9-1.8-2-2.6-3.1c-3.3-4.7-5.2-11-5.3-17.6l-0.2-0.2
		c-1.6-2.1-2.5-4.4-2.5-6.7c0-7.2,7.6-13,18.3-14.1c-0.2-3,0.5-6,2-8.5c0.8-1.3,2.6-1.7,3.9-0.9c1.3,0.8,1.7,2.6,0.9,3.9
		c-1,1.6-1.4,3.5-1.2,5.4c6.6,0.4,12.4,2.7,16,6.3c2.3,2.3,3.5,5.1,3.5,7.9c0,2.3-0.9,4.7-2.5,6.7l-0.2,0.2
		c-0.2,12.3-6.6,22.8-15.4,25.2C103.3,114.1,101.8,115.5,100,115.5C100,115.5,100,115.5,100,115.5z M101,57.5
		c-0.4,0-0.9,0.2-1.1,0.6c-1.5,2.4-2.1,5.4-1.7,8.3l0.1,0.8l-0.8,0.1C87.2,68.1,79.8,73.4,79.8,80c0,2,0.8,4,2.2,5.8l0.5,0.6l0,0.3
		c0,6.4,1.8,12.5,5,17c0.7,1.1,1.5,2,2.4,2.9c2.2,2.2,4.7,3.6,7.3,4.2l0.5,0.1l0.1,0.5c0.2,1.5,1.2,2.6,2.3,2.6
		c1.1,0,2.1-1.1,2.3-2.6l0.1-0.5l0.5-0.1c8.4-2,14.6-12.1,14.7-24.1l0-0.3l0.5-0.6c1.4-1.8,2.2-3.8,2.2-5.8c0-2.5-1.1-4.8-3.1-6.9
		c-3.4-3.4-9.1-5.5-15.6-5.8l-0.6,0l-0.1-0.6c-0.5-2.5,0-5,1.3-7.1c0.4-0.6,0.2-1.4-0.4-1.8C101.5,57.6,101.3,57.5,101,57.5z
		 M100,108.4c-3.9,0-7.6-2.2-10.4-6.3c-2.9-4.2-4.5-9.8-4.5-15.8c0-0.1,0-0.2,0-0.3l0-0.5l0.5-0.2c4.2-1.5,9.2-2.2,14.4-2.2
		c5.2,0,10.2,0.8,14.4,2.2l0.5,0.2l0,0.8C115,98.5,108.3,108.4,100,108.4z M86.6,86.6c0,5.6,1.5,10.8,4.3,14.6
		c2.5,3.6,5.8,5.6,9.2,5.6c7.3,0,13.3-9.1,13.4-20.3c-4-1.3-8.6-2-13.4-2C95.2,84.7,90.6,85.3,86.6,86.6z M116.6,83.3l-0.6-0.2
		c-4.6-1.7-10.2-2.6-16-2.6c-5.7,0-11.4,0.9-16,2.6l-0.6,0.2l-0.3-0.6c-0.5-0.9-0.7-1.8-0.7-2.7c0-2.7,1.9-5.3,5.4-7.2
		c3.3-1.8,7.7-2.9,12.2-2.9c0,0,0,0,0,0c6.2,0,12.1,2,15.2,5.1c1.1,1.1,2.3,2.8,2.3,5c0,0.9-0.2,1.8-0.7,2.7L116.6,83.3z M100,79
		c5.7,0,11.1,0.8,15.8,2.4c0.2-0.5,0.3-1,0.3-1.4c0-1.7-1-3-1.9-3.9c-2.9-2.9-8.3-4.7-14.2-4.7c0,0,0,0,0,0c-4.2,0-8.4,1-11.4,2.7
		C85.6,75.7,84,77.8,84,80c0,0.5,0.1,1,0.3,1.4C88.9,79.8,94.3,79,100,79z"/>
</g>
<g>
	<path class="st0" d="M78.3,140.7v6.4H78v-6.3c0-2.1-1.3-3.3-3.3-3.3c-2.3,0-4,1.8-4,3.8v5.9h-0.3v-6.3c0-2.1-1.3-3.3-3.3-3.3
		c-2.3,0-4,1.8-4,3.8v5.8h-0.3v-9.7h0.3v2.6c0.4-1.6,2-2.8,4-2.8c2,0,3.3,1,3.6,2.9c0.4-1.7,2-2.9,4.1-2.9
		C76.9,137.2,78.3,138.5,78.3,140.7z"/>
	<path class="st0" d="M81.2,135.1c0-0.3,0.2-0.4,0.4-0.4c0.3,0,0.4,0.2,0.4,0.4c0,0.3-0.2,0.4-0.4,0.4
		C81.3,135.6,81.2,135.4,81.2,135.1z M81.8,147.1h-0.3v-9.7h0.3V147.1z"/>
	<path class="st0" d="M93.1,133v14.1h-0.3v-2.9c-0.5,2-1.9,3.1-3.9,3.1c-2.8,0-4.4-1.9-4.4-5s1.6-5,4.4-5c2,0,3.4,1.1,3.9,3.1V133
		H93.1z M92.7,142.4v-0.1c0-2.9-1.5-4.7-3.9-4.7c-2.6,0-4.2,1.8-4.2,4.8s1.5,4.8,4.2,4.8C91.2,147,92.7,145.3,92.7,142.4z"/>
	<path class="st0" d="M101,146.6c-0.4,0.4-1.1,0.7-1.9,0.7c-1.6,0-2.3-0.9-2.3-2.6v-7h-1.9v-0.3h1.9V135l0.3-0.1v2.6h3.7v0.3h-3.7v7
		c0,1.5,0.6,2.4,2,2.4c0.7,0,1.2-0.2,1.7-0.7L101,146.6z"/>
	<path class="st0" d="M110.4,142.5h-8.1c0.1,2.8,1.6,4.5,4.1,4.5c1.6,0,3-0.8,3.7-2.2l0.3,0.1c-0.7,1.4-2.1,2.3-3.9,2.3
		c-2.8,0-4.4-1.9-4.4-5s1.6-5,4.3-5c2.5,0,4.1,1.9,4.1,5.1V142.5z M102.3,142.2h7.8c-0.1-2.9-1.4-4.7-3.8-4.7
		C103.8,137.5,102.4,139.3,102.3,142.2z"/>
	<path class="st0" d="M117.8,137.7l-0.2,0.2c-0.3-0.3-0.5-0.4-1.2-0.4c-1.8,0-3.1,2-3.1,4v5.6H113v-9.7h0.3v2.5
		c0.4-1.5,1.6-2.7,3.2-2.7C117.2,137.3,117.6,137.5,117.8,137.7z"/>
	<path class="st0" d="M135.2,140.7v6.4h-0.3v-6.3c0-2.1-1.3-3.3-3.3-3.3c-2.3,0-4,1.8-4,3.8v5.9h-0.3v-6.3c0-2.1-1.3-3.3-3.3-3.3
		c-2.3,0-4,1.8-4,3.8v5.8h-0.3v-9.7h0.3v2.6c0.4-1.6,2-2.8,4-2.8c2,0,3.3,1,3.6,2.9c0.4-1.7,2-2.9,4.1-2.9
		C133.8,137.2,135.2,138.5,135.2,140.7z"/>
	<path class="st0" d="M67.3,163.9v6.4h-0.3V164c0-2.1-1.3-3.3-3.3-3.3c-2.3,0-4,1.8-4,3.8v5.8h-0.3v-14.1h0.3v7c0.4-1.6,2-2.8,4-2.8
		C65.9,160.4,67.3,161.7,67.3,163.9z"/>
	<path class="st0" d="M78.7,170l0,0.3c-0.2,0.1-0.4,0.2-0.7,0.2c-0.6,0-1.4-0.3-1.4-1.8v-0.3c-0.5,1.4-2.4,2-4,2c-1.9,0-3-0.8-3-2.3
		c0-1.5,1-2.3,3.6-2.8l3.4-0.6v-1.2c0-1.8-1.1-2.9-3.1-2.9c-1.8,0-2.9,0.7-3.5,2.3l-0.3-0.2c0.6-1.6,1.8-2.4,3.7-2.4
		c2.2,0,3.4,1.1,3.4,3.1v5.3c0,0.9,0.4,1.4,1.1,1.4C78.3,170.2,78.6,170.2,78.7,170z M76.6,167.4V165l-3.2,0.6
		c-2.5,0.5-3.5,1.3-3.5,2.6c0,1.3,1,2,2.8,2C74.3,170.2,76.6,169.4,76.6,167.4z"/>
	<path class="st0" d="M88.3,163.9v6.4H88V164c0-2.1-1.3-3.3-3.3-3.3c-2.3,0-4,1.8-4,3.8v5.8h-0.3v-9.7h0.3v2.6c0.4-1.6,2-2.8,4-2.8
		C87,160.4,88.3,161.7,88.3,163.9z"/>
	<path class="st0" d="M99.5,156.2v14.1h-0.3v-2.9c-0.5,2-1.9,3.1-3.9,3.1c-2.8,0-4.4-1.9-4.4-5c0-3.2,1.6-5,4.4-5
		c2,0,3.4,1.1,3.9,3.1v-7.3H99.5z M99.2,165.5v-0.1c0-2.9-1.5-4.7-3.9-4.7c-2.6,0-4.2,1.8-4.2,4.8s1.5,4.8,4.2,4.8
		C97.7,170.2,99.2,168.5,99.2,165.5z"/>
	<path class="st0" d="M101.9,168.2l0.3-0.1c0.3,1.4,1.7,2.2,3.7,2.2c2,0,3.3-0.9,3.3-2.3c0-1.2-0.8-1.8-3.3-2.2
		c-2.7-0.5-3.6-1.2-3.6-2.6c0-1.5,1.5-2.6,3.6-2.6c2,0,3.2,0.7,3.6,2.4l-0.3,0.2c-0.3-1.6-1.5-2.3-3.3-2.3c-1.9,0-3.3,1-3.3,2.3
		c0,1.3,0.9,2,3.4,2.4c2.6,0.4,3.5,1.2,3.5,2.5c0,1.6-1.4,2.6-3.7,2.6C103.8,170.5,102.2,169.7,101.9,168.2z"/>
	<path class="st0" d="M116.7,165.2h-5.4v-0.3h5.4V165.2z"/>
	<path class="st0" d="M128,165.5c0,3.1-1.7,5-4.5,5s-4.5-1.9-4.5-5c0-3.1,1.7-5,4.5-5S128,162.3,128,165.5z M119.3,165.5
		c0,3,1.6,4.8,4.2,4.8c2.6,0,4.2-1.8,4.2-4.8c0-3-1.6-4.8-4.2-4.8C120.9,160.7,119.3,162.5,119.3,165.5z"/>
	<path class="st0" d="M138.6,163.9v6.4h-0.3V164c0-2.1-1.3-3.3-3.3-3.3c-2.3,0-4,1.8-4,3.8v5.8h-0.3v-9.7h0.3v2.6
		c0.4-1.6,2-2.8,4-2.8C137.2,160.4,138.6,161.7,138.6,163.9z"/>
</g>
<g>
	<polygon points="132.3,124.2 65.5,124.2 65.5,52 121.1,52 121.1,53.5 67,53.5 67,122.7 130.8,122.7 130.8,80.6 132.3,80.6 	"/>
	<g>
		<path d="M124.7,87.4l-1.5-7.6l0-0.1l5.4-28.4c0.3-1.7,1.9-2.3,3.3-2c1.4,0.3,2.7,1.4,2.3,3.1l-5.5,28.6L124.7,87.4z M124.2,79.8
			l1,5.1l2.8-4.4l5.4-28.3c0.2-1.1-0.6-1.8-1.6-2c-0.9-0.2-2,0.1-2.2,1.3L124.2,79.8z"/>
		<rect x="130.3" y="53" transform="matrix(0.1875 -0.9823 0.9823 0.1875 51.8734 173.4766)" width="0.9" height="4.8"/>
	</g>
</g>
<path class="st1" d="M100.1,187.5c-48.4,0-87.9-39.4-87.9-87.9s39.4-87.9,87.9-87.9s87.9,39.4,87.9,87.9S148.5,187.5,100.1,187.5z
	 M100.1,12.8c-47.9,0-86.9,39-86.9,86.9c0,47.9,39,86.9,86.9,86.9c47.9,0,86.9-39,86.9-86.9C186.9,51.8,148,12.8,100.1,12.8z"/>
</svg>
