<?xml version="1.0" encoding="utf-8"?>
<!-- Generator: Adobe Illustrator 21.0.0, SVG Export Plug-In . SVG Version: 6.00 Build 0)  -->
<svg version="1.1" id="Layer_1" xmlns="http://www.w3.org/2000/svg" xmlns:xlink="http://www.w3.org/1999/xlink" x="0px" y="0px"
	 viewBox="0 0 200 200" style="enable-background:new 0 0 200 200;" xml:space="preserve">
<style type="text/css">
	.st0{stroke:#000000;stroke-width:0.5;stroke-miterlimit:10;}
	.st1{fill:#CCCCCC;}
</style>
<g>
	<path d="M101,105.6c-2.3,0-4.3-1.9-4.9-4.5c-3.7-1-7-3-10-6c-1.2-1.2-2.4-2.6-3.4-4.1c-4.4-6.3-6.8-14.6-7-23.3l-0.2-0.3
		c-2.2-2.7-3.3-5.8-3.3-8.9c0-9.5,10.1-17.2,24.2-18.7c-0.3-4,0.6-8,2.7-11.3c0.5-0.9,1.4-1.4,2.3-1.7c1-0.2,2-0.1,2.8,0.5
		c0.9,0.5,1.4,1.4,1.7,2.3c0.2,1,0.1,2-0.5,2.8c-1.3,2.1-1.9,4.7-1.6,7.2c8.8,0.6,16.4,3.6,21.2,8.3c3.1,3.1,4.7,6.7,4.7,10.5
		c0,3.1-1.1,6.2-3.3,8.9l-0.2,0.3c-0.2,16.3-8.7,30.2-20.4,33.3C105.4,103.6,103.4,105.6,101,105.6C101,105.6,101,105.6,101,105.6z
		 M102.4,28.8c-0.1,0-0.3,0-0.4,0c-0.5,0.1-0.9,0.4-1.1,0.8c-2,3.2-2.8,7.1-2.3,11l0.1,1.1l-1.1,0.1c-13.6,1-23.4,8.1-23.4,16.8
		c0,2.6,1,5.3,2.9,7.7l0.6,0.8l0,0.3c0.1,8.5,2.4,16.5,6.6,22.6c1,1.4,2,2.7,3.2,3.8c2.9,2.9,6.2,4.8,9.7,5.6l0.7,0.2l0.1,0.7
		c0.2,2,1.5,3.4,3,3.4c0,0,0,0,0,0c1.5,0,2.8-1.5,3-3.5l0.1-0.7l0.7-0.2c11.2-2.6,19.4-16,19.5-31.9l0-0.3l0.6-0.8
		c1.9-2.4,2.9-5,2.9-7.6c0-3.2-1.4-6.4-4.1-9.1c-4.5-4.5-12-7.3-20.7-7.7l-0.8,0l-0.2-0.8c-0.6-3.3,0-6.6,1.7-9.4
		c0.2-0.4,0.3-0.9,0.2-1.3c-0.1-0.5-0.4-0.8-0.8-1.1C103,28.9,102.7,28.8,102.4,28.8z M101.1,96.2c-5.2,0-10.1-3-13.8-8.3
		c-3.9-5.6-6-13-6-20.9c0-0.1,0-0.3,0-0.4l0-0.7l0.6-0.2c5.6-1.9,12.2-2.9,19.1-2.9c6.9,0,13.5,1,19.1,2.9l0.7,0.2l0,1.1
		C120.8,83.1,112,96.2,101.1,96.2z M83.3,67.3c0.1,7.4,2,14.3,5.6,19.4c3.3,4.8,7.7,7.5,12.1,7.5c9.7,0,17.6-12,17.8-26.9
		c-5.2-1.7-11.4-2.6-17.8-2.6C94.6,64.7,88.5,65.6,83.3,67.3z M123,62.9l-0.8-0.3c-6.1-2.2-13.6-3.4-21.1-3.4
		c-7.6,0-15.1,1.2-21.1,3.4l-0.8,0.3l-0.4-0.8c-0.6-1.2-0.9-2.4-0.9-3.6c0-3.6,2.5-7,7.1-9.6c4.4-2.4,10.1-3.8,16.1-3.8c0,0,0,0,0,0
		c8.3,0,16,2.6,20.2,6.8c1.4,1.4,3.1,3.7,3.1,6.6c0,1.2-0.3,2.4-0.9,3.6L123,62.9z M101,57.2c7.5,0,14.8,1.1,20.9,3.2
		c0.2-0.6,0.3-1.3,0.3-1.9c0-2.2-1.4-4-2.5-5.2c-3.8-3.8-11-6.2-18.8-6.2c0,0,0,0,0,0c-5.6,0-11.1,1.3-15.2,3.5
		c-3.9,2.2-6.1,5-6.1,7.8c0,0.6,0.1,1.3,0.3,1.9C86.3,58.3,93.5,57.2,101,57.2z"/>
</g>
<g>
	<path d="M101,130.4c-26.1,0-46.6-7.3-46.6-16.7c0-7.5,12.7-13.7,32.3-15.9l0.2,2c-18,2-30.5,7.8-30.5,13.9c0,8,20.4,14.7,44.6,14.7
		s44.6-6.7,44.6-14.7c0-6.2-12.5-11.9-30.5-13.9l0.2-2c19.6,2.2,32.3,8.5,32.3,15.9C147.6,123.1,127.2,130.4,101,130.4z"/>
	<path d="M101,121c-14.2,0-29.3-3.1-29.3-8.9c0-4.9,10.5-7.1,15-7.8l0.3,2c-9.1,1.5-13.3,4-13.3,5.8c0,2.9,10.4,6.9,27.3,6.9
		c16.9,0,27.3-4,27.3-6.9c0-1.8-4.1-4.3-13.2-5.8l0.3-2c4.5,0.7,14.9,2.9,14.9,7.8C130.3,117.9,115.2,121,101,121z"/>
</g>
<g>
	<path class="st0" d="M50.8,150.6c0,3.1-1.7,5-4.5,5c-2.8,0-4.5-1.9-4.5-5c0-3.1,1.7-5,4.5-5C49.1,145.6,50.8,147.5,50.8,150.6z
		 M42.1,150.6c0,3,1.6,4.8,4.2,4.8s4.2-1.8,4.2-4.8c0-3-1.6-4.8-4.2-4.8S42.1,147.6,42.1,150.6z"/>
	<path class="st0" d="M60.3,145.8l-4.1,9.7H56l-4.1-9.7h0.3l3.9,9.3l3.9-9.3H60.3z"/>
	<path class="st0" d="M69.9,150.8h-8.1c0.1,2.8,1.6,4.5,4.1,4.5c1.6,0,3-0.8,3.7-2.2l0.3,0.1c-0.7,1.4-2.1,2.3-3.9,2.3
		c-2.8,0-4.4-1.9-4.4-5c0-3.1,1.6-5,4.3-5c2.5,0,4.1,1.9,4.1,5.1V150.8z M61.8,150.5h7.8c-0.1-2.9-1.4-4.7-3.8-4.7
		C63.3,145.8,61.8,147.6,61.8,150.5z"/>
	<path class="st0" d="M77.3,146l-0.2,0.2c-0.3-0.3-0.5-0.4-1.2-0.4c-1.8,0-3.1,2-3.1,4v5.6h-0.3v-9.7h0.3v2.5
		c0.4-1.5,1.6-2.7,3.2-2.7C76.6,145.6,77,145.8,77.3,146z"/>
	<path class="st0" d="M87.2,155.2l0,0.3c-0.2,0.1-0.4,0.2-0.7,0.2c-0.6,0-1.4-0.3-1.4-1.8v-0.3c-0.5,1.4-2.4,2-4,2
		c-1.9,0-3-0.9-3-2.3c0-1.5,1-2.3,3.6-2.8l3.4-0.6v-1.2c0-1.8-1.1-2.9-3.1-2.9c-1.8,0-2.9,0.7-3.5,2.3l-0.3-0.2
		c0.6-1.6,1.8-2.4,3.7-2.4c2.2,0,3.4,1.1,3.4,3.1v5.3c0,0.9,0.4,1.4,1.1,1.4C86.7,155.3,87,155.3,87.2,155.2z M85.1,152.5v-2.3
		l-3.2,0.6c-2.5,0.5-3.5,1.3-3.5,2.6c0,1.3,1,2,2.8,2C82.7,155.3,85.1,154.5,85.1,152.5z"/>
	<path class="st0" d="M89.1,153.3c0,1.4,0.5,2,1.4,2c0.6,0,0.8-0.1,1.1-0.2v0.3c-0.3,0.1-0.6,0.2-1.1,0.2c-1.1,0-1.7-0.7-1.7-2.3
		v-12h0.3V153.3z"/>
	<path class="st0" d="M93.6,153.3c0,1.4,0.5,2,1.4,2c0.6,0,0.8-0.1,1.1-0.2v0.3c-0.3,0.1-0.6,0.2-1.1,0.2c-1.1,0-1.7-0.7-1.7-2.3
		v-12h0.3V153.3z"/>
	<path class="st0" d="M111.2,155.2l0,0.3c-0.2,0.1-0.4,0.2-0.7,0.2c-0.6,0-1.4-0.3-1.4-1.8v-0.3c-0.5,1.4-2.4,2-4,2
		c-1.9,0-3-0.9-3-2.3c0-1.5,1-2.3,3.6-2.8l3.4-0.6v-1.2c0-1.8-1.1-2.9-3.1-2.9c-1.8,0-2.9,0.7-3.5,2.3l-0.3-0.2
		c0.6-1.6,1.8-2.4,3.7-2.4c2.2,0,3.4,1.1,3.4,3.1v5.3c0,0.9,0.4,1.4,1.1,1.4C110.8,155.3,111,155.3,111.2,155.2z M109.1,152.5v-2.3
		l-3.2,0.6c-2.5,0.5-3.5,1.3-3.5,2.6c0,1.3,1,2,2.8,2C106.7,155.3,109.1,154.5,109.1,152.5z"/>
	<path class="st0" d="M120.5,148.2l-0.3,0.1c-0.4-1.6-1.7-2.5-3.5-2.5c-2.6,0-4.1,1.8-4.1,4.8c0,3,1.5,4.8,4.1,4.8
		c1.8,0,3.4-1,3.7-2.7l0.3,0.1c-0.3,1.7-2,2.8-3.9,2.8c-2.8,0-4.4-1.9-4.4-5c0-3.1,1.6-5,4.4-5C118.6,145.6,120,146.5,120.5,148.2z"
		/>
	<path class="st0" d="M127.7,154.9c-0.4,0.4-1.1,0.7-1.9,0.7c-1.6,0-2.3-0.9-2.3-2.6v-7h-1.9v-0.3h1.9v-2.5l0.3-0.1v2.6h3.7v0.3
		h-3.7v7c0,1.5,0.6,2.4,2,2.4c0.7,0,1.2-0.2,1.7-0.7L127.7,154.9z"/>
	<path class="st0" d="M129.1,143.4c0-0.3,0.2-0.4,0.4-0.4c0.3,0,0.4,0.2,0.4,0.4c0,0.3-0.2,0.4-0.4,0.4
		C129.2,143.9,129.1,143.7,129.1,143.4z M129.6,155.4h-0.3v-9.7h0.3V155.4z"/>
	<path class="st0" d="M140.2,145.8l-4.1,9.7h-0.3l-4.1-9.7h0.3l3.9,9.3l3.9-9.3H140.2z"/>
	<path class="st0" d="M141.9,143.4c0-0.3,0.2-0.4,0.4-0.4s0.4,0.2,0.4,0.4c0,0.3-0.2,0.4-0.4,0.4S141.9,143.7,141.9,143.4z
		 M142.5,155.4h-0.3v-9.7h0.3V155.4z"/>
	<path class="st0" d="M150.5,154.9c-0.4,0.4-1.1,0.7-1.9,0.7c-1.6,0-2.3-0.9-2.3-2.6v-7h-1.9v-0.3h1.9v-2.5l0.3-0.1v2.6h3.7v0.3
		h-3.7v7c0,1.5,0.6,2.4,2,2.4c0.7,0,1.2-0.2,1.7-0.7L150.5,154.9z"/>
	<path class="st0" d="M154.6,157.4c-0.7,1.7-1.4,2.2-2.6,2.2c-0.7,0-1.2-0.2-1.5-0.6l0.2-0.3c0.3,0.4,0.8,0.6,1.4,0.6
		c1,0,1.7-0.4,2.3-2l0.8-1.9l-4.1-9.7h0.3l3.6,8.5l0.3,0.8l0.3-0.8l3.5-8.5h0.3L154.6,157.4z"/>
</g>
<path class="st1" d="M100.1,187.6c-48.4,0-87.9-39.4-87.9-87.9s39.4-87.9,87.9-87.9s87.9,39.4,87.9,87.9S148.5,187.6,100.1,187.6z
	 M100.1,12.9c-47.9,0-86.9,39-86.9,86.9c0,47.9,39,86.9,86.9,86.9c47.9,0,86.9-39,86.9-86.9C186.9,51.9,148,12.9,100.1,12.9z"/>
</svg>
