<?xml version="1.0" encoding="utf-8"?>
<!-- Generator: Adobe Illustrator 20.1.0, SVG Export Plug-In . SVG Version: 6.00 Build 0)  -->
<svg version="1.1" id="Layer_1" xmlns="http://www.w3.org/2000/svg" xmlns:xlink="http://www.w3.org/1999/xlink" x="0px" y="0px"
	 viewBox="0 0 50 50" style="enable-background:new 0 0 50 50;" xml:space="preserve">
<g>
	<path d="M46.7,46.5c-0.1,0-0.3,0-0.4-0.1L27.9,27.9c-0.2-0.2-0.2-0.5,0-0.7s0.5-0.2,0.7,0l18.5,18.5c0.2,0.2,0.2,0.5,0,0.7
		C47,46.5,46.9,46.5,46.7,46.5z"/>
	<path d="M17.8,31.2c-7.8,0-14.2-6.4-14.2-14.2C3.6,9.3,10,2.9,17.8,2.9c7.8,0,14.2,6.4,14.2,14.2C31.9,24.9,25.6,31.2,17.8,31.2z
		 M17.8,3.9c-7.3,0-13.2,5.9-13.2,13.2s5.9,13.2,13.2,13.2s13.2-5.9,13.2-13.2S25,3.9,17.8,3.9z"/>
	<path d="M17.8,27c-0.3,0-0.5-0.2-0.5-0.5s0.2-0.5,0.5-0.5c4.9,0,9-4,9-9c0-0.3,0.2-0.5,0.5-0.5s0.5,0.2,0.5,0.5
		C27.7,22.6,23.3,27,17.8,27z"/>
</g>
</svg>
