<svg id="Layer_1" data-name="Layer 1" xmlns="http://www.w3.org/2000/svg" viewBox="0 0 41.45 39.38"><title>remote</title><path d="M43,33.83H40.9a.68.68,0,0,1,0-1.37H43a1.37,1.37,0,0,0,1.39-1.35V8A1.37,1.37,0,0,0,43,6.68H7A1.37,1.37,0,0,0,5.64,8V31.11A1.37,1.37,0,0,0,7,32.46H18.78a.68.68,0,1,1,0,1.37H7a2.74,2.74,0,0,1-2.76-2.72V8A2.74,2.74,0,0,1,7,5.31H43A2.74,2.74,0,0,1,45.73,8V31.11A2.74,2.74,0,0,1,43,33.83Z" transform="translate(-4.27 -5.31)"/><path d="M43,31.12H40.9a.68.68,0,0,1,0-1.37h.7V9.39H8.41V29.75H18.78a.68.68,0,1,1,0,1.37H7V8H43Z" transform="translate(-4.27 -5.31)"/><path d="M36.05,44.69H23.62v-19H36.05ZM25,43.32h9.69V27H25Z" transform="translate(-4.27 -5.31)"/><path d="M27.07,31.79a1.36,1.36,0,1,1,1.38-1.36A1.37,1.37,0,0,1,27.07,31.79Zm0-1.36h0Z" transform="translate(-4.27 -5.31)"/><path d="M29.84,31.79a1.36,1.36,0,1,1,1.38-1.36A1.37,1.37,0,0,1,29.84,31.79Zm0-1.36h0Z" transform="translate(-4.27 -5.31)"/><path d="M27.07,35.87a1.36,1.36,0,1,1,1.38-1.36A1.37,1.37,0,0,1,27.07,35.87Zm0-1.36h0Z" transform="translate(-4.27 -5.31)"/><path d="M29.84,35.87a1.36,1.36,0,1,1,1.38-1.36A1.37,1.37,0,0,1,29.84,35.87Zm0-1.36h0Z" transform="translate(-4.27 -5.31)"/><path d="M27.07,39.94a1.36,1.36,0,1,1,1.38-1.36A1.37,1.37,0,0,1,27.07,39.94Zm0-1.36h0Z" transform="translate(-4.27 -5.31)"/><path d="M29.84,39.94a1.36,1.36,0,1,1,1.38-1.36A1.37,1.37,0,0,1,29.84,39.94Zm0-1.36h0Z" transform="translate(-4.27 -5.31)"/><path d="M32.6,31.79A1.36,1.36,0,1,1,34,30.43,1.37,1.37,0,0,1,32.6,31.79Zm0-1.36h0Z" transform="translate(-4.27 -5.31)"/><path d="M32.6,35.87A1.36,1.36,0,1,1,34,34.5,1.37,1.37,0,0,1,32.6,35.87Zm0-1.36h0Z" transform="translate(-4.27 -5.31)"/><path d="M32.6,39.94A1.36,1.36,0,1,1,34,38.58,1.37,1.37,0,0,1,32.6,39.94Zm0-1.36h0Z" transform="translate(-4.27 -5.31)"/><path d="M34.09,20.18a.68.68,0,0,1-.38-.11,7.08,7.08,0,0,0-7.75,0,.68.68,0,1,1-.76-1.14,8.46,8.46,0,0,1,9.27,0,.68.68,0,0,1-.38,1.26Z" transform="translate(-4.27 -5.31)"/><path d="M36.18,16.8a.68.68,0,0,1-.39-.12,10.54,10.54,0,0,0-11.91,0,.68.68,0,1,1-.78-1.13,11.91,11.91,0,0,1,13.47,0,.69.69,0,0,1-.39,1.25Z" transform="translate(-4.27 -5.31)"/><path d="M32,23.57a.68.68,0,0,1-.35-.1,3.5,3.5,0,0,0-3.6,0,.68.68,0,0,1-.7-1.18,4.87,4.87,0,0,1,5,0A.69.69,0,0,1,32,23.57Z" transform="translate(-4.27 -5.31)"/></svg>