<svg id="Layer_1" data-name="Layer 1" xmlns="http://www.w3.org/2000/svg" viewBox="0 0 44.77 34.32"><title>window</title><path d="M43.44,42.58H7.62a4.48,4.48,0,0,1-4.48-4.48V12.74A4.48,4.48,0,0,1,7.62,8.26H43.44a4.48,4.48,0,0,1,4.48,4.48V38.11A4.48,4.48,0,0,1,43.44,42.58ZM7.62,9.75a3,3,0,0,0-3,3V38.11a3,3,0,0,0,3,3H43.44a3,3,0,0,0,3-3V12.74a3,3,0,0,0-3-3Z" transform="translate(-3.14 -8.26)"/><path d="M47.17,17.21H3.89a.75.75,0,0,1,0-1.49H47.17a.75.75,0,0,1,0,1.49Z" transform="translate(-3.14 -8.26)"/><path d="M9.11,14.23a1.49,1.49,0,1,1,1.49-1.49A1.49,1.49,0,0,1,9.11,14.23Zm0-1.49h0Z" transform="translate(-3.14 -8.26)"/><path d="M13.59,14.23a1.49,1.49,0,1,1,1.49-1.49A1.49,1.49,0,0,1,13.59,14.23Zm0-1.49h0Z" transform="translate(-3.14 -8.26)"/><path d="M18.07,14.23a1.49,1.49,0,1,1,1.49-1.49A1.49,1.49,0,0,1,18.07,14.23Zm0-1.49h0Z" transform="translate(-3.14 -8.26)"/></svg>