<?xml version="1.0" encoding="utf-8"?><svg width="184" height="117" viewBox="0 0 184 117" xmlns="http://www.w3.org/2000/svg" xmlns:xlink="http://www.w3.org/1999/xlink"><svg id="badge_white" data-name="Layer 1" viewBox="0 0 46.05 48.57" width="46.05" height="48.57"><defs><style>.acls-1{fill:#fff;fill-rule:evenodd}</style></defs><title>badge_white</title><path class="acls-1" d="M25.91 4.1a4.59 4.59 0 0 0-.64-3.05.72.72 0 0 0-1.27.77 3.14 3.14 0 0 1 .41 2.27 8.53 8.53 0 0 0-5.57 2.1 3.61 3.61 0 0 0-1.15 2.56 3.48 3.48 0 0 0 .81 2.16l.11.14c0 4.32 2.32 7.9 5.3 8.59a1.05 1.05 0 1 0 2.09 0 5.48 5.48 0 0 0 2.67-1.53 7.43 7.43 0 0 0 .86-1 10.78 10.78 0 0 0 1.78-6l.11-.14a3.48 3.48 0 0 0 .81-2.16c0-2.42-2.73-4.36-6.36-4.64zm4 6.85a9.34 9.34 0 0 1-1.52 5.31A4.23 4.23 0 0 1 25 18.33c-2.71 0-4.91-3.31-4.91-7.37v-.1A15.49 15.49 0 0 1 25 10.1a15.37 15.37 0 0 1 4.91.75v.1zm.92-2.21a1.81 1.81 0 0 1-.21.83A16.72 16.72 0 0 0 25 8.66a16.68 16.68 0 0 0-5.61.91 1.83 1.83 0 0 1-.21-.83 2.24 2.24 0 0 1 .73-1.54A7.45 7.45 0 0 1 25 5.51c3.16 0 5.82 1.48 5.82 3.23zm0 0M18.68 25.49a4.59 4.59 0 0 0 3-.76.72.72 0 0 0-.81-1.19 3.14 3.14 0 0 1-2.25.5 8.53 8.53 0 0 0-2.31-5.49 3.61 3.61 0 0 0-2.6-1.05 3.48 3.48 0 0 0-2.13.89l-.13.12c-4.32.2-7.81 2.62-8.38 5.63a1.05 1.05 0 1 0 .07 2.09 5.48 5.48 0 0 0 1.63 2.6 7.43 7.43 0 0 0 1.07.82A10.78 10.78 0 0 0 12 31.19l.14.1a3.48 3.48 0 0 0 2.19.72c2.42-.09 4.25-2.9 4.39-6.53zM12 29.75a9.34 9.34 0 0 1-5.37-1.31 4.23 4.23 0 0 1-2.19-3.31c-.1-2.7 3.11-5 7.18-5.19h.1a15.49 15.49 0 0 1 .94 4.87 15.37 15.37 0 0 1-.56 4.93zm2.25.83a1.81 1.81 0 0 1-.84-.18 16.72 16.72 0 0 0 .69-5.64 16.68 16.68 0 0 0-1.1-5.58 1.83 1.83 0 0 1 .82-.24 2.24 2.24 0 0 1 1.56.67 7.45 7.45 0 0 1 1.9 5c.12 3.15-1.25 5.88-3 5.94zm0 0M31.32 25.49c.14 3.64 2 6.44 4.39 6.53a3.48 3.48 0 0 0 2.19-.72l.14-.1a10.78 10.78 0 0 0 6.11-1.54 7.43 7.43 0 0 0 1.07-.82 5.48 5.48 0 0 0 1.63-2.6 1.05 1.05 0 1 0 .07-2.09c-.58-3-4.06-5.43-8.38-5.63l-.13-.12a3.48 3.48 0 0 0-2.13-.89 3.61 3.61 0 0 0-2.6 1.05A8.53 8.53 0 0 0 31.36 24a3.14 3.14 0 0 1-2.25-.5.72.72 0 0 0-.81 1.19 4.59 4.59 0 0 0 3 .76zM38 29.75h-.1a15.37 15.37 0 0 1-.56-4.93 15.49 15.49 0 0 1 .94-4.87h.1c4.06.16 7.28 2.49 7.18 5.19a4.23 4.23 0 0 1-2.19 3.31 9.34 9.34 0 0 1-5.37 1.3zm-2.25.83c-1.75-.07-3.13-2.79-3-5.94a7.45 7.45 0 0 1 1.9-5 2.24 2.24 0 0 1 1.56-.67 1.83 1.83 0 0 1 .82.24 16.68 16.68 0 0 0-1.13 5.58 16.72 16.72 0 0 0 .69 5.64 1.81 1.81 0 0 1-.84.18zm0 0M21.21 35.16a4.59 4.59 0 0 0 1-3 .72.72 0 0 0-1.44.05 3.14 3.14 0 0 1-.77 2.21 8.53 8.53 0 0 0-5.88-1 3.61 3.61 0 0 0-2.27 1.64 3.48 3.48 0 0 0-.37 2.28v.18c-2.12 3.77-1.92 8 .32 10.09a1.17 1.17 0 0 0 .34 1.51 1.17 1.17 0 0 0 1.47-.46 5.48 5.48 0 0 0 3.07 0 7.43 7.43 0 0 0 1.26-.47 10.78 10.78 0 0 0 4.55-4.36l.16-.06a3.48 3.48 0 0 0 1.78-1.47c1.21-2.1-.2-5.14-3.2-7.19zm.06 7.93a9.34 9.34 0 0 1-4 3.85 4.23 4.23 0 0 1-4 .1c-2.35-1.35-2.61-5.31-.59-8.84l.05-.08a15.49 15.49 0 0 1 4.63 1.79A15.37 15.37 0 0 1 21.32 43v.09zm1.9-1.46a1.81 1.81 0 0 1-.6.61 16.72 16.72 0 0 0-4.41-3.58 16.68 16.68 0 0 0-5.32-2 1.83 1.83 0 0 1 .23-.82 2.24 2.24 0 0 1 1.4-1 7.45 7.45 0 0 1 5.27 1.06c2.74 1.57 4.31 4.18 3.44 5.7zm0 0M29.71 34.15c-3.23 1.68-5 4.53-4 6.76a3.48 3.48 0 0 0 1.59 1.67l.15.08a10.78 10.78 0 0 0 4 4.86 7.43 7.43 0 0 0 1.2.61 5.48 5.48 0 0 0 3.05.36 1.05 1.05 0 1 0 1.92-.83c2.47-1.81 3.17-6 1.5-10v-.17a3.48 3.48 0 0 0-.11-2.31A3.61 3.61 0 0 0 37 33.31a8.53 8.53 0 0 0-6 .26 3.14 3.14 0 0 1-.51-2.25.72.72 0 0 0-1.43-.22 4.59 4.59 0 0 0 .61 3.06zm-1 7.87v-.09a16.36 16.36 0 0 1 9-3.85v.09c1.6 3.74.87 7.65-1.62 8.71a4.23 4.23 0 0 1-3.93-.57A9.34 9.34 0 0 1 28.72 42zM27 40.35c-.69-1.61 1.18-4 4.09-5.26a7.45 7.45 0 0 1 5.35-.43 2.24 2.24 0 0 1 1.27 1.13 1.83 1.83 0 0 1 .13.84A17.73 17.73 0 0 0 27.53 41a1.81 1.81 0 0 1-.52-.68zm0 0" transform="translate(-1.98 -.71)"/></svg><svg data-name="Layer 1" viewBox="0 0 46.61 46.61" width="46.61" height="46.61" id="box" x="46.05"><title>box</title><path d="M42.59 40.18a.8.8 0 0 1-.8-.8V7.23a.805.805 0 0 1 1.61 0v32.14a.8.8 0 0 1-.81.81zM39.38 4.82H7.24a.805.805 0 0 1 0-1.61h32.14a.805.805 0 1 1 0 1.61zM4.02 40.18a.8.8 0 0 1-.8-.8V7.23a.8.8 0 1 1 1.56 0v32.14a.8.8 0 0 1-.76.81zM39.38 43.39H7.24a.805.805 0 0 1 0-1.61h32.14a.805.805 0 0 1 0 1.61z"/><path d="M8.04 8.04h-8v-8h8zM1.61 6.43h4.82V1.61H1.61zM46.61 8.04h-8v-8h8zm-6.43-1.61H45V1.61h-4.82zM8.04 46.61h-8v-8h8zM1.61 45h4.82v-4.82H1.61zM46.61 46.61h-8v-8h8zM40.18 45H45v-4.82h-4.82z"/></svg><svg id="fb" data-name="Layer 1" viewBox="0 0 22.54 45.3" width="22.54" height="45.3" x="119.6"><defs><style>.ccls-1{fill:#fff}</style></defs><title>fb</title><path class="ccls-1" d="M29.19 47.44h-9.26V26.67h-5.56v-9.4h5.56v-5.13c0-4.83 2.7-10 10.26-10h6.47v9.17h-5.75c-.07 0-1.72 0-1.72 1.24v4.68h7.72l-1.43 9.4h-6.29zm-7.55-1.71h5.84V25H34l.91-6h-7.43v-6.41c0-2.16 2.05-2.95 3.43-2.95h4V3.88h-4.76c-7.93 0-8.55 6.34-8.55 8.28V19h-5.52v6h5.56z" transform="translate(-14.37 -2.14)"/></svg><svg id="mail" data-name="Layer 1" viewBox="0 0 44.09 29.23" width="44.09" height="29.23" y="87.22999999999999"><defs><style>.dcls-1{fill:#fff}</style></defs><title>mail</title><path class="dcls-1" d="M43.95 39.41H6.8A3.55 3.55 0 0 1 3.33 36V13.65a3.61 3.61 0 0 1 3.47-3.47h37.15a3.61 3.61 0 0 1 3.47 3.47V36a3.55 3.55 0 0 1-3.47 3.41zM6.8 11.18a2.6 2.6 0 0 0-2.47 2.47V36a2.55 2.55 0 0 0 2.47 2.41h37.15A2.55 2.55 0 0 0 46.42 36V13.65a2.6 2.6 0 0 0-2.47-2.47z" transform="translate(-3.33 -10.18)"/><path class="dcls-1" d="M25.38 29a.5.5 0 0 1-.28-.08L9.5 18.52a.5.5 0 0 1 .55-.83l15.33 10.22L40.7 17.69a.5.5 0 1 1 .55.83l-15.6 10.4a.5.5 0 0 1-.27.08zM9.78 32.72a.5.5 0 0 1-.28-.92l6.69-4.46a.5.5 0 1 1 .55.83l-6.69 4.46a.5.5 0 0 1-.27.09zM41 32.72a.5.5 0 0 1-.28-.08L34 28.18a.5.5 0 1 1 .55-.83l6.69 4.46a.5.5 0 0 1-.28.92z" transform="translate(-3.33 -10.18)"/></svg><svg data-name="Layer 1" viewBox="0 0 26.94 45.44" width="26.94" height="45.44" id="phone" x="92.66"><title>phone</title><path d="M22.72 45.44H4.22A4.23 4.23 0 0 1 0 41.22v-37A4.23 4.23 0 0 1 4.22 0h18.5a4.23 4.23 0 0 1 4.22 4.23v37a4.23 4.23 0 0 1-4.22 4.21zM4.22.78A3.49 3.49 0 0 0 .74 4.26v37a3.49 3.49 0 0 0 3.48 3.49h18.5a3.49 3.49 0 0 0 3.49-3.49v-37A3.49 3.49 0 0 0 22.72.78z"/><path d="M26.57 8.45H.37a.37.37 0 0 1 0-.74h26.2a.37.37 0 0 1 0 .74zM26.57 37.78H.37a.37.37 0 1 1 0-.74h26.2a.37.37 0 0 1 0 .74zM18.86 5.37H8.07a.37.37 0 0 1 0-.74h10.79a.37.37 0 0 1 0 .74zM13.47 43.13a1.91 1.91 0 1 1 1.91-1.91 1.91 1.91 0 0 1-1.91 1.91zm0-3.08a1.17 1.17 0 1 0 1.17 1.17 1.17 1.17 0 0 0-1.17-1.18z"/></svg><svg data-name="Layer 1" viewBox="0 0 46.35 38.66" width="46.35" height="38.66" id="radio" y="48.57"><title>radio</title><path d="M7.91.21a27.07 27.07 0 0 0 0 38.25.707.707 0 1 0 1-1 25.66 25.66 0 0 1 0-36.25.707.707 0 1 0-1-1zm0 0"/><path d="M12.05 34.32a.7.7 0 0 0 1 0 .7.7 0 0 0 .21-.5.69.69 0 0 0-.21-.49 19.81 19.81 0 0 1 0-28 .707.707 0 0 0-1-1 21.22 21.22 0 0 0 0 30zm0 0"/><path d="M11.7 19.33a15.24 15.24 0 0 0 4.49 10.85.707.707 0 0 0 1-1 13.95 13.95 0 0 1 0-19.7.707.707 0 1 0-1-1 15.23 15.23 0 0 0-4.49 10.84zm0 0M38.44 38.47a27.07 27.07 0 0 0 0-38.25.707.707 0 0 0-1 1 25.66 25.66 0 0 1 .01 36.25.707.707 0 0 0 1 1zm0 0"/><path d="M34.31 4.35a.7.7 0 0 0-1 0 .7.7 0 0 0-.21.5.69.69 0 0 0 .21.49 19.81 19.81 0 0 1 0 28 .707.707 0 0 0 1 1 21.22 21.22 0 0 0 0-30zm0 0"/><path d="M34.65 19.34a15.24 15.24 0 0 0-4.48-10.87.707.707 0 0 0-1 1 13.95 13.95 0 0 1 0 19.7.707.707 0 0 0 1 1 15.23 15.23 0 0 0 4.48-10.83zm0 0M18.8 19.33a4.61 4.61 0 1 0 4.61-4.61 4.62 4.62 0 0 0-4.61 4.61zm7.82 0a3.2 3.2 0 1 1-3.2-3.2 3.21 3.21 0 0 1 3.2 3.2zm0 0"/></svg><svg data-name="Layer 1" viewBox="0 0 41.45 39.38" width="41.45" height="39.38" id="remote" x="142.14"><title>remote</title><path d="M38.73 28.52h-2.1a.685.685 0 0 1 0-1.37h2.1a1.37 1.37 0 0 0 1.39-1.35V2.69a1.37 1.37 0 0 0-1.39-1.32h-36a1.37 1.37 0 0 0-1.36 1.32V25.8a1.37 1.37 0 0 0 1.36 1.35h11.78a.685.685 0 1 1 0 1.37H2.73A2.74 2.74 0 0 1-.03 25.8V2.69A2.74 2.74 0 0 1 2.73 0h36a2.74 2.74 0 0 1 2.73 2.69V25.8a2.74 2.74 0 0 1-2.73 2.72z"/><path d="M38.73 25.81h-2.1a.685.685 0 0 1 0-1.37h.7V4.08H4.14v20.36h10.37a.685.685 0 1 1 0 1.37H2.73V2.69h36z"/><path d="M31.78 39.38H19.35v-19h12.43zm-11.05-1.37h9.69V21.69h-9.69z"/><path d="M22.8 26.48a1.36 1.36 0 1 1 1.38-1.36 1.37 1.37 0 0 1-1.38 1.36zm0-1.36z"/><path d="M25.57 26.48a1.36 1.36 0 1 1 1.38-1.36 1.37 1.37 0 0 1-1.38 1.36zm0-1.36zM22.8 30.56a1.36 1.36 0 1 1 1.38-1.36 1.37 1.37 0 0 1-1.38 1.36zm0-1.36z"/><path d="M25.57 30.56a1.36 1.36 0 1 1 1.38-1.36 1.37 1.37 0 0 1-1.38 1.36zm0-1.36zM22.8 34.63a1.36 1.36 0 1 1 1.38-1.36 1.37 1.37 0 0 1-1.38 1.36zm0-1.36z"/><path d="M25.57 34.63a1.36 1.36 0 1 1 1.38-1.36 1.37 1.37 0 0 1-1.38 1.36zm0-1.36zM28.33 26.48a1.36 1.36 0 1 1 1.4-1.36 1.37 1.37 0 0 1-1.4 1.36zm0-1.36zM28.33 30.56a1.36 1.36 0 1 1 1.4-1.37 1.37 1.37 0 0 1-1.4 1.37zm0-1.36z"/><path d="M28.33 34.63a1.36 1.36 0 1 1 1.4-1.36 1.37 1.37 0 0 1-1.4 1.36zm0-1.36zM29.82 14.87a.68.68 0 0 1-.38-.11 7.08 7.08 0 0 0-7.75 0 .685.685 0 1 1-.76-1.14 8.46 8.46 0 0 1 9.27 0 .68.68 0 0 1-.38 1.26zM31.91 11.49a.68.68 0 0 1-.39-.12 10.54 10.54 0 0 0-11.91 0 .687.687 0 1 1-.78-1.13 11.91 11.91 0 0 1 13.47 0 .69.69 0 0 1-.39 1.25zM27.73 18.26a.68.68 0 0 1-.35-.1 3.5 3.5 0 0 0-3.6 0 .686.686 0 0 1-.7-1.18 4.87 4.87 0 0 1 5 0 .69.69 0 0 1-.35 1.28z"/></svg><svg data-name="Layer 1" viewBox="0 0 44.77 34.32" width="44.77" height="34.32" id="window" x="46.35" y="48.57"><title>window</title><path d="M40.3 34.32H4.48A4.48 4.48 0 0 1 0 29.84V4.48A4.48 4.48 0 0 1 4.48 0H40.3a4.48 4.48 0 0 1 4.48 4.48v25.37a4.48 4.48 0 0 1-4.48 4.47zM4.48 1.49a3 3 0 0 0-3 3v25.36a3 3 0 0 0 3 3H40.3a3 3 0 0 0 3-3V4.48a3 3 0 0 0-3-3z"/><path d="M44.03 8.95H.75a.75.75 0 0 1 0-1.49h43.28a.75.75 0 0 1 0 1.49zM5.97 5.97a1.49 1.49 0 1 1 1.49-1.49 1.49 1.49 0 0 1-1.49 1.49zm0-1.49zM10.45 5.97a1.49 1.49 0 1 1 1.49-1.49 1.49 1.49 0 0 1-1.49 1.49zm0-1.49zM14.93 5.97a1.49 1.49 0 1 1 1.49-1.49 1.49 1.49 0 0 1-1.49 1.49zm0-1.49z"/></svg></svg>