<?xml version="1.0" encoding="utf-8"?>
<!-- Generator: Adobe Illustrator 21.0.0, SVG Export Plug-In . SVG Version: 6.00 Build 0)  -->
<svg version="1.1" id="Layer_1" xmlns="http://www.w3.org/2000/svg" xmlns:xlink="http://www.w3.org/1999/xlink" x="0px" y="0px"
	 viewBox="0 0 22.5 45.3" style="enable-background:new 0 0 22.5 45.3;" xml:space="preserve">
<style type="text/css">
	.st0{fill:#FFFFFF;}
</style>
<title>fb</title>
<path class="st0" d="M14.8,45.3H5.6V24.5H0v-9.4h5.6V10c0-4.8,2.7-10,10.3-10h6.5v9.2h-5.8c-0.1,0-1.7,0-1.7,1.2v4.7h7.7l-1.4,9.4
	h-6.3L14.8,45.3L14.8,45.3z M7.3,43.6h5.8V22.9h6.5l0.9-6h-7.4v-6.4c0-2.2,2-2.9,3.4-2.9h4V1.7h-4.8C7.8,1.7,7.1,8,7.1,10v6.8H1.7v6
	h5.6V43.6z"/>
</svg>
