<?xml version="1.0" encoding="utf-8"?><svg xmlns="http://www.w3.org/2000/svg" xmlns:xlink="http://www.w3.org/1999/xlink"><symbol viewBox="0 0 50 50" id="arrow_down"><path d="M25 40.1c-.8 0-1.6-.4-2.2-1L1.4 14.7c-1.1-1.2-.9-3 .3-4.1 1.2-1.1 3-.9 4.1.3L25 32.8l19.2-21.9c1.1-1.2 2.9-1.3 4.1-.3 1.2 1.1 1.3 2.9.3 4.1L27.2 39.1c-.6.7-1.4 1-2.2 1z"/></symbol><symbol viewBox="0 0 46 48.6" id="badge_white"><title>badge_white</title><path d="M23.9 3.4c.1-1.1-.1-2.1-.6-3-.2-.4-.7-.5-1-.3s-.5.7-.3 1c.4.7.6 1.5.4 2.3-2 0-4 .8-5.6 2.1-.7.7-1.1 1.6-1.1 2.6 0 .8.3 1.6.8 2.2l.1.1c0 4.3 2.3 7.9 5.3 8.6-.1.6.4 1.1.9 1.1.6.1 1.1-.4 1.1-.9V19c1-.2 1.9-.8 2.7-1.5.3-.3.6-.6.9-1 1.2-1.8 1.8-3.9 1.8-6l.1-.1c.5-.6.8-1.4.8-2.2.1-2.5-2.7-4.5-6.3-4.8zm4 6.8c0 1.9-.5 3.7-1.5 5.3-.7 1.2-2 2-3.4 2.1-2.7 0-4.9-3.3-4.9-7.4v-.1c1.6-.5 3.2-.8 4.9-.8 1.7.1 3.3.3 4.9.9 0-.1 0 0 0 0zm1-2.2c0 .3-.1.6-.2.8-1.8-.6-3.7-.9-5.6-.9-1.9 0-3.8.3-5.6.9-.1-.3-.2-.5-.2-.8 0-.6.3-1.1.7-1.5 1.4-1.2 3.2-1.8 5.1-1.7 3.1 0 5.7 1.5 5.8 3.2zM16.7 24.8c1.1.1 2.1-.2 3-.8.3-.2.4-.7.2-1-.2-.3-.7-.4-1-.2-.7.4-1.5.6-2.3.5-.1-2-.9-4-2.3-5.5-.7-.7-1.6-1.1-2.6-1-.8 0-1.5.4-2.1.9l-.1.1c-4.3.2-7.8 2.6-8.4 5.6-.6 0-1.1.4-1.1 1s.4 1.1 1 1.1h.2c.3 1 .9 1.9 1.6 2.6.3.3.7.6 1.1.8 1.9 1.1 4 1.7 6.2 1.5l.1.1c.6.5 1.4.7 2.2.7 2.4 0 4.2-2.8 4.3-6.4zM10 29c-1.9.1-3.8-.3-5.4-1.3-1.2-.7-2.1-1.9-2.2-3.3-.1-2.7 3.1-5 7.2-5.2h.1c.6 1.6.9 3.2.9 4.9.2 1.7 0 3.3-.6 4.9zm2.3.9c-.3 0-.6-.1-.8-.2.6-1.8.8-3.7.7-5.6 0-1.9-.4-3.8-1.1-5.6.3-.1.5-.2.8-.2.6 0 1.1.3 1.6.7 1.2 1.4 1.9 3.2 1.9 5 0 3.1-1.4 5.8-3.1 5.9zM29.3 24.8c.1 3.6 2 6.4 4.4 6.5.8 0 1.6-.2 2.2-.7l.1-.1c2.1.1 4.3-.4 6.1-1.5.4-.2.7-.5 1.1-.8.8-.7 1.3-1.6 1.6-2.6.6.1 1.1-.3 1.2-.9.1-.6-.3-1.1-.9-1.2h-.2c-.6-3-4.1-5.4-8.4-5.6l-.1-.1c-.6-.5-1.3-.8-2.1-.9-1 0-1.9.4-2.6 1a8.51 8.51 0 0 0-2.3 5.4c-.8.1-1.6-.1-2.3-.5-.3-.2-.8-.1-1 .2-.2.3-.1.8.2 1 .9.6 2 .8 3 .8zM36 29c-.6-1.6-.7-3.3-.7-4.9 0-1.7.4-3.3.9-4.9h.1c4.1.2 7.3 2.5 7.2 5.2-.1 1.4-1 2.6-2.2 3.3-1.5 1-3.4 1.5-5.3 1.3zm-2.2.9c-1.8-.1-3.1-2.8-3-5.9 0-1.8.7-3.6 1.9-5 .4-.4 1-.7 1.6-.7.3 0 .6.1.8.2-.7 1.8-1.1 3.7-1.1 5.6-.1 1.9.1 3.8.7 5.6-.4.1-.6.2-.9.2zM19.2 34.5c.7-.8 1-1.9 1-3 0-.4-.3-.7-.7-.7-.4 0-.7.3-.7.7 0 .8-.2 1.6-.8 2.2-1.8-1-3.9-1.4-5.9-1-.9.2-1.8.8-2.3 1.6-.4.7-.5 1.5-.4 2.3v.2c-2.1 3.8-1.9 8 .3 10.1-.3.5-.1 1.2.3 1.5.5.2 1.2 0 1.5-.5 1 .3 2.1.3 3.1 0 .4-.1.9-.3 1.3-.5 1.9-1 3.5-2.5 4.6-4.4l.2-.1c.7-.3 1.4-.8 1.8-1.5 1.2-1.9-.2-5-3.3-6.9zm.1 7.9c-.9 1.7-2.3 3-4 3.8-1.2.7-2.7.7-4 .1-2.4-1.3-2.6-5.3-.6-8.8v-.1c1.6.3 3.2.9 4.6 1.8 1.6.8 2.9 1.8 4 3.2zm1.9-1.5c-.1.2-.4.5-.6.6-1.3-1.4-2.7-2.6-4.4-3.6-1.6-1-3.4-1.6-5.3-2 0-.3.1-.6.2-.8.3-.5.8-.9 1.4-1 1.8-.3 3.7.1 5.3 1.1 2.7 1.6 4.3 4.2 3.4 5.7zM27.7 33.4c-3.2 1.7-5 4.5-4 6.8.3.7.9 1.3 1.6 1.7l.1.1c.8 2 2.2 3.7 4 4.9l1.2.6c1 .4 2 .5 3 .4.2.6.8.8 1.3.7.6-.2.8-.8.7-1.3 0-.1 0-.1-.1-.2 2.5-1.8 3.2-6 1.5-10v-.2c.2-.8.2-1.6-.1-2.3-.4-.9-1.1-1.5-2-1.9-2-.6-4.1-.6-6 .3-.4-.7-.6-1.5-.5-2.3.1-.4-.2-.8-.6-.8-.4-.1-.8.2-.8.6-.1.9.1 2 .7 2.9zm-1 7.9c2.5-2.3 5.7-3.6 9-3.9v.1c1.6 3.7.9 7.7-1.6 8.7-1.3.5-2.8.3-3.9-.6-1.6-1.1-2.8-2.6-3.5-4.3zM25 39.6c-.7-1.6 1.2-4 4.1-5.3 1.7-.8 3.6-1 5.3-.4.6.2 1 .6 1.3 1.1.1.3.2.6.1.8-3.8.3-7.4 1.8-10.3 4.4-.2-.1-.4-.3-.5-.6z"/></symbol><symbol viewBox="0 0 46.61 46.61" id="box"><title>box</title><path d="M42.59 40.18a.8.8 0 0 1-.8-.8V7.23a.805.805 0 0 1 1.61 0v32.14a.8.8 0 0 1-.81.81zM39.38 4.82H7.24a.805.805 0 0 1 0-1.61h32.14a.805.805 0 1 1 0 1.61zM4.02 40.18a.8.8 0 0 1-.8-.8V7.23a.8.8 0 1 1 1.56 0v32.14a.8.8 0 0 1-.76.81zM39.38 43.39H7.24a.805.805 0 0 1 0-1.61h32.14a.805.805 0 0 1 0 1.61z"/><path d="M8.04 8.04h-8v-8h8zM1.61 6.43h4.82V1.61H1.61zM46.61 8.04h-8v-8h8zm-6.43-1.61H45V1.61h-4.82zM8.04 46.61h-8v-8h8zM1.61 45h4.82v-4.82H1.61zM46.61 46.61h-8v-8h8zM40.18 45H45v-4.82h-4.82z"/></symbol><symbol viewBox="0 0 22.5 45.3" id="fb"><title>fb</title><path d="M14.8 45.3H5.6V24.5H0v-9.4h5.6V10c0-4.8 2.7-10 10.3-10h6.5v9.2h-5.8c-.1 0-1.7 0-1.7 1.2v4.7h7.7l-1.4 9.4h-6.3l-.1 20.8zm-7.5-1.7h5.8V22.9h6.5l.9-6h-7.4v-6.4c0-2.2 2-2.9 3.4-2.9h4V1.7h-4.8C7.8 1.7 7.1 8 7.1 10v6.8H1.7v6h5.6v20.8z"/></symbol><symbol id="footer_logo" viewBox="0 0 206 50"><style>.est0{fill-rule:evenodd;clip-rule:evenodd}</style><path class="est0" d="M20.5 10.8c.1-.6 0-1.3-.4-1.9-.1-.2-.4-.3-.6-.1-.2.1-.3.4-.1.6.3.4.3.9.2 1.4-1.4.1-2.6.5-3.4 1.3-.5.5-.7 1-.7 1.6 0 .5.2.9.5 1.3l.1.1c0 2.6 1.4 4.8 3.2 5.2 0 .4.3.7.6.7s.6-.3.6-.7c.6-.1 1.1-.4 1.6-.9.2-.2.4-.4.5-.6.7-1 1.1-2.3 1.1-3.7l.1-.1c.3-.4.5-.9.5-1.3 0-1.6-1.6-2.7-3.8-2.9zm2.4 4.1c0 1.2-.3 2.4-.9 3.2-.6.8-1.3 1.3-2.1 1.3-1.6 0-3-2-3-4.5v-.1c.9-.3 1.9-.5 3-.5 1.1.1 2.1.3 3 .6zm.5-1.3c0 .2 0 .3-.1.5-1-.4-2.2-.6-3.4-.6-1.2 0-2.4.2-3.4.6-.1-.2-.1-.3-.1-.5 0-.4.2-.7.4-.9.6-.6 1.8-1 3.1-1 1.9-.1 3.5.8 3.5 1.9zm0 0M16.1 23.8c.6.1 1.3-.1 1.8-.5.2-.1.3-.4.1-.6-.1-.2-.4-.3-.6-.1-.4.3-.9.4-1.4.3-.1-1.4-.6-2.6-1.4-3.3-.5-.4-1-.7-1.6-.6-.5 0-.9.2-1.3.5l-.1.1c-2.6.1-4.7 1.6-5.1 3.4-.4.1-.7.3-.7.7 0 .3.3.6.7.6.2.6.5 1.1 1 1.6.2.2.4.3.6.5 1 .6 2.3 1 3.7.9l.1.1c.4.3.9.5 1.3.4 1.7-.1 2.8-1.8 2.9-4zM12 26.3c-1.2 0-2.4-.2-3.3-.8-.8-.5-1.3-1.2-1.3-2-.1-1.6 1.9-3.1 4.4-3.1h.1c.3.8.5 1.9.6 3 0 1-.2 2.1-.5 2.9.1 0 0 0 0 0zm1.4.5c-.2 0-.3 0-.5-.1.3-1 .5-2.2.4-3.4 0-1.2-.3-2.4-.7-3.4.2-.1.3-.1.5-.1.4 0 .7.2.9.4.7.6 1.1 1.8 1.2 3 .1 1.9-.8 3.6-1.8 3.6zm0 0M23.7 23.8c.1 2.2 1.2 3.9 2.7 4 .5 0 .9-.1 1.3-.4l.1-.1c1.4 0 2.7-.3 3.7-.9.2-.2.5-.3.6-.5.5-.5.8-1 1-1.6.4 0 .7-.3.7-.6s-.3-.6-.7-.7c-.3-1.8-2.5-3.3-5.1-3.4v-.2c-.4-.3-.8-.5-1.3-.5-.6 0-1.1.2-1.6.6-.8.7-1.3 1.9-1.4 3.3-.5.1-1 0-1.4-.3-.2-.1-.5-.1-.6.1-.1.2-.1.5.1.6.7.5 1.3.6 1.9.6zm4.1 2.5c-.3-.9-.4-1.9-.4-3s.2-2.1.6-3h.1c2.5.1 4.4 1.5 4.4 3.1 0 .8-.5 1.5-1.3 2-1 .7-2.2 1-3.4.9zm-1.4.5c-1.1 0-1.9-1.7-1.8-3.6 0-1.3.5-2.4 1.2-3 .2-.2.5-.4.9-.4.2 0 .3.1.5.1-.4 1-.6 2.1-.7 3.4 0 1.2.1 2.4.4 3.4-.1.1-.3.1-.5.1zm0 0"/><g><path class="est0" d="M17.6 29.6c.4-.5.6-1.1.6-1.8 0-.2-.2-.4-.5-.4-.2 0-.4.2-.4.5 0 .5-.2 1-.5 1.3-1.2-.6-2.5-.9-3.6-.6-.6.2-1.1.5-1.4 1-.2.4-.3.9-.2 1.4v.1c-1.3 2.3-1.2 4.9.2 6.1-.2.4-.1.8.2.9.3.2.7 0 .9-.3.6.2 1.2.2 1.9 0 .3-.1.5-.2.8-.3 1.1-.5 2.1-1.5 2.8-2.6h.1c.5-.2.9-.5 1.1-.9.7-1.3-.2-3.1-2-4.4zm0 4.8c-.6 1.1-1.5 1.9-2.4 2.3-.9.4-1.7.4-2.4.1-1.4-.8-1.6-3.2-.4-5.4v-.1c.9.2 1.9.5 2.8 1.1 1.1.6 1.9 1.3 2.4 2 .1 0 .1 0 0 0zm1.2-.9c-.1.1-.2.3-.4.4-.7-.8-1.6-1.6-2.7-2.2-1.1-.6-2.2-1-3.2-1.2 0-.2.1-.4.1-.5.2-.4.6-.5.8-.6.9-.2 2.1 0 3.2.6 1.8 1 2.7 2.6 2.2 3.5zm0 0M22.8 29c-2 1-3 2.8-2.4 4.1.2.4.5.8 1 1h.1c.6 1.3 1.4 2.3 2.4 3 .2.2.5.3.7.4.6.3 1.3.3 1.9.2.2.3.6.5.9.4.3-.1.4-.5.3-.9 1.5-1.1 1.9-3.6.9-6.1V31c.1-.5.1-1-.1-1.4-.2-.5-.7-.9-1.3-1.2-1-.4-2.3-.3-3.6.2-.3-.4-.4-.9-.3-1.4 0-.2-.1-.5-.4-.5-.2 0-.5.1-.5.4-.1.7 0 1.4.4 1.9zm-.6 4.8s0-.1 0 0c.7-.7 1.5-1.2 2.5-1.6 1-.4 2-.7 2.9-.7v.1c1 2.3.5 4.6-1 5.3-.7.3-1.5.2-2.4-.3-.8-.8-1.5-1.7-2-2.8zm-1.1-1c-.4-1 .7-2.4 2.5-3.2 1.2-.5 2.4-.6 3.2-.3.3.1.6.3.8.7.1.2.1.3.1.5-1 .1-2.2.3-3.4.8-1.1.5-2.2 1.1-2.9 1.8-.1 0-.2-.2-.3-.3zm0 0"/></g><g><path d="M46.7 14.2c-.4-.3-.9-.5-1.3-.7-.4-.2-.8-.3-1.3-.5-.5-.1-.9-.2-1.4-.2-.4 0-.7.1-.9.2-.2.1-.3.3-.3.6 0 .2.1.4.2.5s.3.2.6.3c.2.1.5.2.9.3.3.1.7.2 1.2.4.7.2 1.3.4 1.9.7.6.3 1 .6 1.4.9.4.3.7.8.9 1.3.2.5.3 1.1.3 1.8 0 .9-.2 1.7-.5 2.3-.3.6-.8 1.1-1.3 1.5s-1.2.6-1.8.8-1.4.2-2.1.2c-.6 0-1.1 0-1.7-.1-.6-.1-1.2-.2-1.7-.4-.6-.2-1.1-.3-1.7-.6-.5-.2-1-.5-1.5-.7l1.8-3.6c.5.3 1 .6 1.5.8l1.5.6c.5.2 1.2.3 1.7.3s.8-.1.9-.2c.2-.1.3-.3.3-.5s-.1-.4-.3-.5c-.2-.1-.4-.3-.7-.4-.3-.1-.7-.2-1.1-.3-.4-.1-.8-.2-1.3-.4-.7-.2-1.2-.5-1.7-.7-.5-.3-.9-.6-1.2-.9-.3-.3-.5-.7-.7-1.1-.1-.4-.2-.9-.2-1.5 0-.8.2-1.6.5-2.2.3-.6.7-1.2 1.2-1.6s1.1-.7 1.8-1c.7-.2 1.4-.3 2.1-.3.6 0 1.1.1 1.6.2s1 .2 1.5.4.9.3 1.4.5.8.4 1.1.5l-1.6 3.3zM53.3 9.3l2.7 6.5 2.8-6.5h4.5l-5.2 10.1v5H54v-5l-5.1-10h4.4zM72.8 14.2c-.4-.3-.9-.5-1.3-.7-.4-.2-.8-.3-1.3-.5-.5-.1-.9-.2-1.4-.2-.4 0-.7.1-.9.2-.2.1-.3.3-.3.6 0 .2.1.4.2.5s.3.2.6.3c.2.1.5.2.9.3.3.1.7.2 1.2.4.7.2 1.3.4 1.9.7.6.3 1 .6 1.4.9.4.3.7.8.9 1.3.2.5.3 1.1.3 1.8 0 .9-.2 1.7-.5 2.3-.3.6-.8 1.1-1.3 1.5s-1.2.6-1.8.8-1.4.2-2.1.2c-.6 0-1.1 0-1.7-.1-.6-.1-1.2-.2-1.7-.4-.6-.2-1.1-.3-1.7-.6-.5-.2-1-.5-1.5-.7l1.8-3.6c.5.3 1 .6 1.5.8l1.5.6c.5.2 1.2.3 1.7.3s.8-.1.9-.2c.2-.1.3-.3.3-.5s-.1-.4-.3-.5c-.2-.1-.4-.3-.7-.4-.3-.1-.7-.2-1.1-.3-.4-.1-.8-.2-1.3-.4-.7-.2-1.2-.5-1.7-.7-.5-.3-.9-.6-1.2-.9-.3-.3-.5-.7-.7-1.1-.1-.4-.2-.9-.2-1.5 0-.8.2-1.6.5-2.2.3-.6.7-1.2 1.2-1.6s1.1-.7 1.8-1c.7-.2 1.4-.3 2.1-.3.6 0 1.1.1 1.6.2s1 .2 1.5.4.9.3 1.4.5.8.4 1.1.5l-1.6 3.3zM88.4 12.9h-4.3v11.4H80V12.9h-4.3V9.3h12.8v3.6zM100.6 20.7v3.6H89.9v-15h10.5v3.6H94V15h5.5v3.3H94v2.4h6.6zM113.9 24.3v-7.9l-2.5 5.6h-2.2l-2.5-5.6v7.9h-4.1v-15h4.5l3.2 7.1 3.3-7.1h4.5v15h-4.2zM129.7 14.2c-.4-.3-.9-.5-1.3-.7-.4-.2-.8-.3-1.3-.5-.5-.1-.9-.2-1.4-.2-.4 0-.7.1-.9.2-.2.1-.3.3-.3.6 0 .2.1.4.2.5s.3.2.5.3c.2.1.5.2.9.3s.7.2 1.2.4c.7.2 1.3.4 1.9.7.6.3 1 .6 1.4.9.4.3.7.8.9 1.3.2.5.3 1.1.3 1.8 0 .9-.2 1.7-.5 2.3-.3.6-.8 1.1-1.3 1.5s-1.2.6-1.8.8-1.4.2-2.1.2c-.6 0-1.1 0-1.7-.1-.6-.1-1.2-.2-1.7-.4-.6-.2-1.1-.3-1.7-.6-.5-.2-1-.5-1.5-.7l1.8-3.6c.5.3 1 .6 1.5.8l1.5.6c.5.2 1.2.3 1.7.3s.8-.1.9-.2c.2-.1.3-.3.3-.5s-.1-.4-.3-.5c-.2-.1-.4-.3-.7-.4-.3-.1-.7-.2-1.1-.3-.4-.1-.8-.2-1.3-.4-.7-.2-1.2-.5-1.7-.7-.5-.3-.9-.6-1.2-.9-.3-.3-.5-.7-.7-1.1-.1-.4-.2-.9-.2-1.5 0-.8.2-1.6.5-2.2s.7-1.2 1.2-1.6 1.1-.7 1.8-1c.7-.2 1.4-.3 2.1-.3.6 0 1.1.1 1.6.2s1 .2 1.5.4.9.3 1.4.5c.4.2.8.4 1.1.5l-1.5 3.3zM37.6 38.7V28.4h1v9.4h6v.9h-7zM49.3 28.4h.9l4.3 10.3h-1.1L52 35.5h-4.6l-1.3 3.2H45l4.3-10.3zm2.5 6.3l-2.1-5.1-2.1 5.1h4.2zM63.7 36c0 .4-.1.7-.2 1.1-.2.3-.4.6-.6.8l-.9.6c-.3.1-.7.2-1.1.2H56V28.4h5c.4 0 .7.1 1 .2.3.2.5.4.7.6.2.2.4.5.5.8s.2.6.2 1c0 .5-.1 1-.4 1.4-.3.4-.6.8-1.1 1 .6.2 1.1.5 1.4 1 .2.5.4 1 .4 1.6zm-6.8-6.7v3.8h3.5c.3 0 .5-.1.7-.2.2-.1.4-.2.6-.4.2-.2.3-.4.4-.6.1-.2.1-.5.1-.7 0-.3 0-.5-.1-.7l-.3-.6c-.2-.2-.3-.3-.5-.4-.2-.1-.4-.2-.7-.2h-3.7zm5.8 6.6c0-.3 0-.5-.1-.7-.1-.2-.2-.4-.4-.6-.2-.2-.3-.3-.6-.4-.2-.1-.5-.2-.7-.2h-4v3.9h3.8c.3 0 .5-.1.7-.2s.4-.2.6-.4c.2-.2.3-.4.4-.6.2-.3.3-.6.3-.8zM69.8 38.8c-.7 0-1.4-.1-2-.4-.6-.3-1.1-.7-1.5-1.2-.4-.5-.8-1-1-1.7s-.3-1.3-.3-1.9c0-.7.1-1.3.4-2 .2-.6.6-1.2 1-1.7s.9-.9 1.5-1.2c.6-.3 1.2-.4 1.9-.4s1.4.2 2 .5c.6.3 1.1.7 1.5 1.2.4.5.7 1.1 1 1.7.2.6.3 1.3.3 1.9 0 .7-.1 1.3-.4 2-.2.6-.6 1.2-1 1.7s-.9.9-1.5 1.1c-.6.2-1.3.4-1.9.4zm-3.9-5.3c0 .6.1 1.1.3 1.6.2.5.4 1 .8 1.4.3.4.7.7 1.2 1s1 .4 1.6.4c.6 0 1.1-.1 1.6-.4.5-.3.9-.6 1.2-1 .3-.4.6-.9.8-1.4s.3-1 .3-1.6c0-.6-.1-1.1-.3-1.6-.2-.5-.5-1-.8-1.4-.3-.4-.7-.7-1.2-1s-1-.4-1.5-.4c-.6 0-1.1.1-1.6.4-.5.2-.9.6-1.2 1-.3.4-.6.9-.8 1.4-.3.6-.4 1.1-.4 1.6zM76.5 38.7V28.4h4.4c.4 0 .9.1 1.2.3.4.2.7.4 1 .7.3.3.5.7.6 1 .1.4.2.8.2 1.2 0 .4-.1.7-.2 1.1-.1.3-.3.7-.5.9-.2.3-.4.5-.7.7-.3.2-.6.3-.9.4l2.5 4H83l-2.4-3.8h-3.1v3.8h-1zm1-4.7h3.4c.3 0 .6-.1.8-.2.2-.1.5-.3.6-.5s.3-.5.4-.8c.1-.3.1-.6.1-.9s-.1-.6-.2-.9c-.1-.3-.3-.5-.5-.7s-.4-.4-.7-.5c-.3-.1-.5-.2-.8-.2h-3.3V34zM89 28.4h.9l4.3 10.3h-1.1l-1.3-3.2h-4.6l-1.3 3.2h-1.1L89 28.4zm2.5 6.3l-2.1-5.1-2.1 5.1h4.2zM102 29.3h-3.7v9.4h-1v-9.4h-3.7v-.9h8.4v.9zM107.2 38.8c-.7 0-1.4-.1-2-.4-.6-.3-1.1-.7-1.5-1.2-.4-.5-.8-1-1-1.7s-.3-1.3-.3-1.9c0-.7.1-1.3.4-2 .2-.6.6-1.2 1-1.7s.9-.9 1.5-1.2c.6-.3 1.2-.4 1.9-.4s1.4.2 2 .5c.6.3 1.1.7 1.5 1.2.4.5.7 1.1 1 1.7.2.6.3 1.3.3 1.9 0 .7-.1 1.3-.4 2-.2.6-.6 1.2-1 1.7s-.9.9-1.5 1.1c-.6.2-1.2.4-1.9.4zm-3.8-5.3c0 .6.1 1.1.3 1.6.2.5.4 1 .8 1.4.3.4.7.7 1.2 1s1 .4 1.6.4c.6 0 1.1-.1 1.6-.4.5-.3.9-.6 1.2-1 .3-.4.6-.9.8-1.4.2-.5.3-1 .3-1.6 0-.6-.1-1.1-.3-1.6-.2-.5-.5-1-.8-1.4-.3-.4-.7-.7-1.2-1s-1-.4-1.5-.4c-.6 0-1.1.1-1.6.4-.5.2-.9.6-1.2 1-.3.4-.6.9-.8 1.4-.4.6-.4 1.1-.4 1.6zM113.9 38.7V28.4h4.4c.4 0 .9.1 1.2.3.4.2.7.4 1 .7.3.3.5.7.6 1s.2.8.2 1.2c0 .4-.1.7-.2 1.1s-.3.7-.5.9c-.2.3-.4.5-.7.7-.3.2-.6.3-.9.4l2.5 4h-1.1l-2.4-3.8h-3.1v3.8h-1zm1-4.7h3.4c.3 0 .6-.1.8-.2.2-.1.5-.3.6-.5.2-.2.3-.5.4-.8.1-.3.1-.6.1-.9s-.1-.6-.2-.9c-.1-.3-.3-.5-.4-.7-.2-.2-.4-.4-.7-.5-.3-.1-.5-.2-.8-.2h-3.3V34zM123.1 28.4l3.4 5.5 3.4-5.5h1.1l-4 6.5v3.8h-1v-3.9l-4-6.4h1.1z"/></g><path d="M146.2 5.7h1V44h-1z"/><g><path class="est0" d="M162.8 17.4c.2.2.2.2.3-.1l.3-.6c-.5 0-.9-.1-1.4-.1.4.3.6.5.8.8zM161.6 23.5c-.5.1-.9.2-1.3.4.5.1.8.3 1.3.5v-.9zM162.4 31.7c0-.1-.1-.2-.2-.3-.1-.1-.3-.2-.5-.1s-.3.2-.3.4v.2c.1.3.2.6.3.8 0 .1 0 .1.1 0 .2-.1.5-.2.7-.3.1 0 .1 0 0-.1.1-.1 0-.3-.1-.6zM184.2 42.8c0-.2-.1-.3-.3-.3-.2 0-.3.1-.3.3 0 .2.1.3.3.3.2 0 .3-.1.3-.3zM179.2 42.8c-.2 0-.3.1-.3.3 0 .2.1.3.3.3.2 0 .3-.1.3-.3.1-.2-.1-.3-.3-.3zM184.2 43.6c-.1 0-.3 0-.4.1-.1.1-.1.3 0 .5s.2.3.4.2c.2 0 .3-.2.3-.4v-.1c0-.1-.1-.3-.3-.3zM179.2 43.9c-.2 0-.3.1-.4.2v.3c0 .2.1.3.3.3.1 0 .3 0 .4-.2 0-.1.1-.2.1-.2-.1-.2-.2-.4-.4-.4zM198.4 33.3l-.6-.3h-.1l-.3.6c-.1.1-.1.2-.1.3 0 .2.2.4.4.4.1 0 .3-.1.3-.2.2-.2.3-.4.4-.8.1.1 0 0 0 0zM199.5 22.8c0 .2 0 .5.1.7v.1c.1.1.2.2.4.2s.3-.1.3-.3v-.2c0-.2 0-.4-.1-.6 0-.1 0-.1-.1-.1-.2.1-.4.1-.6.2 0-.1 0-.1 0 0zM198.4 16.4c0-.1 0-.2-.1-.2l-.3-.6c0-.1-.1 0-.1 0-.2.1-.4.2-.7.4-.3.2-.6.3-.9.5 0 0-.1 0-.1.1.1.2.2.4.4.6.2.2.4.3.7.3.3-.1.6-.2.8-.4.2-.3.3-.5.3-.7zM199.2 22.8s-.1-.1 0 0h-.8s-.1 0-.1.1c0 .3 0 .6.1.9.1.2.2.3.5.3.2 0 .3-.2.4-.4v-.2c-.1-.3-.1-.5-.1-.7z"/><path class="est0" d="M202.2 23.4c-.2-3.2-1.1-6.2-2.7-9.1-.4-.7-.8-1.4-1.3-2.1v-.1c0-.1-.1-.1-.1-.2v-.1s-.1 0-.1-.1l-.1-.1v-.1l-.1-.1s-.1 0-.1-.1l-.1-.1v-.1l-.1-.1v-.1l-.1-.1v-.1l-.1-.1v-.1s-.1 0-.1-.1c-.1 0-.1-.1-.1-.1l-.1-.1c-.1 0-.1-.1-.1-.1l-.1-.1s-.1 0-.1-.1-.1-.1-.1-.2c0 0-.1 0-.1-.1l-.1-.1-.1-.1c-.1 0-.1-.1-.2-.2l-.3-.3-.4-.4s-.1 0-.1-.1l-.1-.1c-.1 0-.1-.1-.1-.1l-.1-.1c-.1 0-.1-.1-.1-.1l-.1-.1s-.1 0-.1-.1l-.1-.1s-.1 0-.1-.1c-.1 0-.1 0-.1-.1l-.1-.1s-.1 0-.1-.1c-.1 0-.1-.1-.2-.1h-.1-.1c-.1 0-.1 0-.1-.1 0 0-.1 0-.1-.1 0 0-.1 0-.1-.1h-.1l-.1-.1h-.1-.1-.1s-.1 0-.1-.1h-.1-.1l-.1-.1h-.1c-.1 0-.1 0-.1-.1h-.1-.1-.1-.1s-.1 0-.1-.1h-.1c-.1 0-.2-.1-.2-.2h-.1l-.1-.1s-.1 0-.1-.1h-.1-.1c-.1 0-.1-.1-.2-.1h-.1-.1-.1c-.1 0-.2-.1-.2-.1-.1 0-.2-.1-.3-.2h-.1-.1s-.1 0-.1-.1c-.1 0-.2-.1-.2-.1s-.1 0-.1-.1c0 0-.1 0-.1-.1 0 0-.1 0-.1-.1h-.1-.1-.1-.1-.1c-.1 0-.1 0-.2-.1h-.1s-.1 0-.1-.1h-.1-.1c-.1 0-.1 0-.2-.1h-.1c-.1 0-.2-.1-.3-.1h-.1c-.1 0-.2-.1-.3-.1h-.1c-.1 0-.2 0-.2-.1h-.2-.1-.1-.1c-.3-.1-.5-.1-.8-.2h-.1c-.1 0-.2 0-.3-.1h-.1-.4-.1H184.3 184 183.7 183.4h-.7-.1-.1-.1-.1-.2H181.8h-2.6c-.2 0-.4.1-.5 0h-.5-.1-.1-.1-.1c-.1 0-.2.1-.3 0h-.1-.1-.1-.1c-.1 0-.1.1-.2 0h-.1-.1-.1H176.3h-.1c-.1 0-.1.1-.2 0h-.1-.1-.1c-.1 0-.1.1-.2 0h-.1c-.1 0-.1.1-.2 0 0 0-.1.1-.1 0-.1.1-.2.1-.3.1-.1.1-.2.1-.3.1-.1.1-.3.1-.4.1-.2.1-.4.1-.5.2 0 0-.1.1-.1 0-.1 0-.1.1-.2.1h-.1s-.1.1-.2.1c0 0-.1.1-.1 0h-.1s-.1.1-.2.1h-.1s-.1.1-.2.1h-.1c-.1.1-.2.1-.3.1h-.1c0 .1-.1.1-.2.1 0 0-.1 0-.1.1l-.1.1c0 .1-.1.1-.1.1s-.1 0-.1.1c-.1.1-.2.1-.3.1l-.1.1s-.1 0-.1.1l-.1.1h-.1l-.1.1h-.1l-.1.1c-.1 0-.1.1-.2.1l-.1.1-.1.1h-.1l-.1.1-.1.1-.1.1h-.1l-.1.1s-.1 0-.1.1c0 0 0 .1-.1.1l-.1.1c-.1.1-.2.1-.3.2h-.1s-.1 0-.1.1h-.1-.1c-.1 0-.1.1-.2.1h-.1-.1-.1-.1s0 .1-.1.1h-.1s0 .1-.1.1c0 0-.1 0-.1.1l-.1.1-.1.1h-.1c-.1 0-.1.1-.2.1 0 0 0 .1-.1.1l-.1.1s0 .1-.1.1l-.1.1h-.1l-.1.1s0 .1-.1.1l-.1.1s0 .1-.1.1l-.1.1-.4.4c-.1.1-.2.2-.3.2 0 0 0 .1-.1.1-.1.2-.3.3-.5.5l-.3.3c-.1.1-.2.3-.4.4l-.2.2c0 .1-.1.1-.1.1s0 .1-.1.1c0 0 0 .1-.1.1 0 0 0 .1-.1.1 0 .1 0 .1-.1.1v.1l-.1.1s0 .1-.1.1c0 0 0 .1-.1.1v.1c-.1.1-.2.3-.3.4v.1s0 .1-.1.1v.1c.6.4 1.1.8 1.7 1.2.9.6 1.8 1.3 2.7 1.9.2-.2.3-.4.4-.6.4-.6.9-1.1 1.4-1.6.6-.5 1.1-1 1.8-1.5s1.4-1 2.2-1.4c.7-.4 1.5-.7 2.2-1 .6-.2 1.2-.4 1.8-.5.6-.1 1.1-.2 1.7-.3.9-.1 1.8-.1 2.7-.1.4 0 .9.1 1.3.1.3 0 .7.1 1 .2.4.1.7.2 1.1.2.3.1.7.2 1 .3.6.2 1.2.5 1.8.7 1.3.6 2.5 1.4 3.6 2.3 1 .8 1.9 1.8 2.6 2.9v.1c.1.3.3.5.5.8.6.9 1.1 1.9 1.5 2.9.3.8.6 1.7.7 2.5.2.8.3 1.6.3 2.4.1.9 0 1.8-.1 2.7-.1.6-.2 1.2-.3 1.7v.2h-3.8c-.1 0-.1 0-.1-.1v-.5c0-.1 0-.1.1-.1h.4c.1 0 .1 0 .1-.1v-.6c0-.1 0-.1-.1-.1h-.4c-.1 0-.1 0-.1-.1v-1.7-2.5c0-.1 0-.2.1-.1h.3c.1 0 .1 0 .1-.1v-.5c0-.1 0-.1-.1-.1h-1c-.1 0-.1 0-.1-.1V21c0-.1 0-.1.1-.1h.9c.1 0 .1 0 .1-.1v-.4c0-.2 0-.2.2-.2.1 0 .1 0 .1-.1v-.9c0-.1 0-.1-.1-.1h-2.5c-.1 0-.1 0-.2-.1l-.7-.7c-1.1-1-2.3-1.8-3.7-2.3-1.1-.4-2.3-.7-3.5-.8-.2 0-.4-.1-.5-.3-.4-.7-1.3-.9-2-.5-.3.2-.5.4-.7.7 0 .1-.1.1-.2.1-.3 0-.6.1-.8.1-1 .1-1.9.4-2.8.7-1.7.6-3.2 1.6-4.4 3-.1.1-.1.1-.2.1h-3c-.1 0-.1 0-.1.1v.9c0 .1 0 .1.1.1h.1c.1 0 .1 0 .1.1v.5c0 .1 0 .1.1.1h.8c.1 0 .1 0 .1.1v1.3c0 .1 0 .2-.2.1h-1c-.1 0-.1 0-.1.1v.3c0 .3 0 .3.3.3.1 0 .1 0 .1.2v4.3c0 .1 0 .1-.1.1h-.2c-.1 0-.1 0-.1.1v.6c0 .1 0 .1.1.1h.2c.1 0 .1 0 .1.1v2.1c0 .1 0 .1-.1.1h-.2c-.1 0-.2 0-.1.1v.5c.1.1.2 0 .3 0 .1 0 .1 0 .1.1v.8c.1.1.2 0 .3 0 .1 0 .1 0 .1.1v2.9c0 .1 0 .1-.1.1h-1.2v-.1c-.1 0-.1-.1-.1-.1s-.1 0-.1-.1c-.6-.8-1.1-1.6-1.6-2.5-.6-1.2-1.1-2.6-1.4-3.9-.1-.5-.2-1.1-.3-1.6-.1-.7-.1-1.5-.1-2.2 0-.6.1-1.2.1-1.8.1-1.2.4-2.3.8-3.4.5-1.4 1.2-2.7 2-3.9 0 0 0-.1.1-.1-.9-.6-1.8-1.3-2.7-1.9-.6-.4-1.1-.8-1.7-1.2-.8 1.1-1.4 2.2-2 3.3-.9 1.9-1.5 3.8-1.8 5.9-.2.9-.2 1.9-.3 2.9v1.2c0 .5 0 .9.1 1.4.1 1 .2 1.9.4 2.8.6 2.5 1.6 4.9 3 7.1 1.2 1.8 2.6 3.4 4.2 4.8 1.3 1.1 2.6 2 4.1 2.8.1.1.3.1.4.2.6.3 1.2.5 1.8.8.6.2 1.1.4 1.7.6.5.2 1 .3 1.6.4.8.2 1.5.3 2.3.4.5.1 1 .1 1.5.1h2.3c.4 0 .7-.1 1.1-.1.5-.1 1-.1 1.5-.2.8-.2 1.7-.4 2.5-.6 1.1-.3 2.1-.8 3.2-1.3.4-.2.7-.4 1.1-.6 2-1.1 3.7-2.6 5.3-4.2 1.8-2 3.2-4.2 4.2-6.7.8-2.1 1.3-4.4 1.5-6.7v-.1-2.2c.7-.9.8-1.1.7-1.2zm-33.8-13c-.1.2-.3.4-.5.5-.1.1-.2.1-.2.2s.1.2.2.2c.1.1.2.3.4.4 0 .1.1.1 0 .1-.2.1-.3.3-.5.4-.1.1-.1.1-.1 0l-1.5-1.8c-.1-.2-.1-.2 0-.3.3-.3.6-.5.9-.8.2-.1.4-.2.6-.2.4.1 1 .8.7 1.3zm2.9-.7c-.3.3-.7.5-1.1.6-.3 0-.6-.1-.8-.3-.3-.2-.4-.5-.5-.9-.1-.4 0-.8.3-1.1.2-.3.6-.5.9-.6.4-.1.8 0 1.1.3.2.2.4.5.5.8 0 .5-.1.9-.4 1.2zm3-1.5c-.4.2-.9.4-1.3.6-.1.1-.3.1-.4.2-.1 0-.1 0-.1-.1l-.9-2.1c-.1-.2-.1-.2.1-.3.1-.1.3-.1.4-.2.1 0 .1 0 .1.1.2.5.5 1.1.7 1.6 0 .1.1.1.2.1.3-.2.6-.3 1-.4.1 0 .1 0 .1.1.1.1.1.3.2.4-.1-.1-.1 0-.1 0 .1 0 0 0 0 0zm1.2-.3c-.2 0-.4.1-.6.2-.1 0-.1 0-.2-.1-.2-.7-.4-1.5-.6-2.2-.1-.2-.1-.2.2-.3.2 0 .3-.1.5-.1.1 0 .1.1.1.1l.3 1.2.3 1.2c.1 0 0 0 0 0zm2.5-2.6c-.2 0-.4.1-.6.1-.1 0-.1 0-.1.1l.3 1.8c0 .1 0 .1-.1.1-.2 0-.4.1-.7.1-.1 0-.1 0-.1-.1-.1-.4-.1-.8-.2-1.3 0-.2-.1-.4-.1-.5 0-.1 0-.1-.1-.1-.2 0-.4.1-.6.1-.1 0-.1 0-.1-.1 0-.2-.1-.3-.1-.5 0-.1 0-.1.1-.1.4-.1.8-.1 1.2-.2.3-.1.7-.1 1-.2.1 0 .2 0 .2.1v.7c.1 0 .1 0 0 0zm3 1.9h-2.1c-.1 0-.1 0-.1-.1V5.9 4.6c0-.1 0-.1.1-.1h2c.1 0 .1 0 .1.1V5c0 .1 0 .1-.1.1h-1.2c-.1 0-.1 0-.1.1v.3c.1.1.2 0 .3 0h.9c.1 0 .1 0 .1.1v.3c0 .1 0 .1-.1.1h-1.1c-.1 0-.1 0-.1.1v.3c0 .1 0 .1.1.1h1.2c.1 0 .1 0 .1.1.1.2.1.4 0 .6.1-.1.1 0 0 0zm3.4-2.3c-.1.4-.1.8-.2 1.2-.1.4-.1.8-.2 1.3 0 .1 0 .1-.1.1-.2 0-.4-.1-.6-.1-.1 0-.1-.1-.1-.1 0-.3.1-.6.1-.9 0-.1 0-.1-.1-.1-.2 0-.4-.1-.7-.1-.1 0-.1 0-.1.1 0 .3-.1.6-.1.9 0 .1 0 .1-.1.1-.2 0-.4-.1-.6-.1-.1 0-.1 0-.1-.1.1-.6.1-1.2.2-1.8 0-.2.1-.5.1-.7 0-.1 0-.1.1-.1.2 0 .4.1.6.1.1 0 .1 0 .1.1 0 .2-.1.5-.1.7 0 .1 0 .1.1.1.2 0 .4.1.7.1.1 0 .1 0 .1-.1 0-.3.1-.5.1-.8 0-.1 0-.1.1-.1.3.2.5.2.8.3 0-.1 0-.1 0 0zm2.7 3.5c0 .1 0 .1-.1.1-.2-.1-.4-.1-.6-.2-.1 0-.1-.1-.1-.1-.2-.5-.3-1.1-.5-1.6-.1 0 0 .1-.1.1-.1.4-.3.8-.4 1.2 0 .1 0 .1-.1.1-.2-.1-.4-.1-.6-.2-.1 0-.1-.1-.1-.1.3-.8.5-1.6.8-2.4 0-.1 0-.1.1-.1.2.1.4.1.5.2.1 0 .1.1.1.1.1.5.3 1 .4 1.5v.1c.1-.3.2-.5.2-.8.1-.2.1-.3.2-.5 0-.1.1-.1.1-.1.2.1.4.1.6.2.1 0 .1 0 .1.1 0 .8-.3 1.6-.5 2.4zm1.2.6l-.6-.3c-.1 0-.1-.1 0-.1.3-.8.7-1.5 1-2.3 0 0 0-.1.1 0l.6.3h.1v.1c-.3.8-.7 1.5-1 2.3h-.2zm1.9 1.2c-.2-.1-.4-.2-.5-.4-.4-.3-.5-.7-.3-1.2.1-.4.3-.8.7-1 .3-.2.6-.3 1-.2.3.1.6.3.8.5.2.2.3.5.3.7 0 .4 0 .4-.3.3-.1 0-.2-.1-.3-.1 0 0-.1 0-.1-.1.1-.3-.1-.5-.3-.5-.2-.1-.4 0-.6.1-.2.2-.3.4-.4.6-.1.2 0 .4.1.5.2.2.4.2.6.1.1 0 .1-.1.2-.1s.1.1.2.2l.3.3v.1c-.5.3-1 .4-1.4.2zm4.1-.2c-.3.9-.6 1.7-.9 2.6-.2-.2-.4-.3-.6-.5V12c0-.1.1-.2.1-.3v-.1c-.2-.2-.4-.3-.6-.5h-.1c-.1.1-.2.2-.3.2-.1 0-.2-.1-.3-.2-.1-.1-.2-.2-.3-.2-.1 0-.1-.1 0-.1.3-.2.7-.4 1-.6.4-.2.9-.5 1.3-.7h.2c.2.2.4.3.6.5-.1-.1-.1-.1-.1 0zm-25.9 17.7c-.2 0-.2 0-.2-.2s.1-.2.3-.2v.1c-.1 0-.1.1-.1.3zm0 2.9c0 .2 0 .2-.2.2-.1 0-.1 0-.1-.1v-.2c0-.1 0-.1.1-.1h.1c.1-.1.1 0 .1.2zm32.1-8.2c0 .3.1.7.1 1 0 .1 0 .3-.1.4-.2.4-.7.5-1 .2v-.1c-.2.6-.9.6-1.2.3-.2-.2-.2-.4-.2-.6 0-.3 0-.6-.1-.9 0-.1 0-.1.1-.1.5 0 1-.1 1.5-.1.2-.2.5-.2.9-.1 0-.1 0-.1 0 0zm-.8-3.8c.1.2 0 .3-.1.4-.4.5-.9 1-1.3 1.5v.1l.9-.3c.3-.1.5-.2.8-.2.1 0 .1 0 .1.1.1.2.1.2-.2.3l-2.1.6c-.1 0-.1 0-.1-.1-.1-.2 0-.3.1-.4.4-.5.9-1 1.3-1.5l.1-.1c-.2 0-.3.1-.5.1-.4.1-.8.2-1.3.4-.1 0-.1 0-.1-.1-.1-.2-.1-.2.2-.3l2.1-.6c0 .1.1.1.1.1zm-.4-.9c0 .1 0 .1.1.2 0 .1-.1.1-.1.1-.5.2-.9.4-1.4.6-.3.1-.5.2-.8.3h-.1c-.1-.2-.1-.2.1-.3.7-.3 1.3-.5 2-.8.1-.3.2-.3.2-.1zm-2.9-.5c-.2-.3-.3-.6-.5-.9 0-.1 0-.1.1-.1.5-.3 1-.6 1.6-.8.2-.1.3-.2.5-.3h.1c.1.3.3.5.4.8.3.5.2 1-.3 1.3-.3.2-.7.4-.9.4-.6.1-.9-.1-1-.4zM195 28.7h1.3c-.1.3-.2.7-.3 1 0 .2-.1.5-.2.7-.2.7-.5 1.3-.8 1.9 0 0 0 .1-.1.1 0 .1 0 .1-.1.2v-.4-3.3c.1-.1.1-.2.2-.2zM169.1 32c0-.1 0-.1.1-.1h22.6c.1 0 .1 0 .1.1v3c0 .1 0 .1-.1.1h-22.6c-.1 0-.1 0-.1-.1v-3zm22.9-7.7c0 .1 0 .1-.1.1-.3 0-.3 0-.3-.3v-.6-.8c0-.1 0-.1.1-.1.3 0 .3 0 .3.3v1.4zm-.1 5.8c0 .1 0 .1 0 0-.3.1-.3.1-.3-.2v-2c0-.1 0-.1.1-.1.3 0 .3 0 .3.3V28.4c-.1.6 0 1.2-.1 1.7zm0-3c-.3 0-.3 0-.3-.3v-.7c0-.1 0-.1.1-.1.3 0 .3 0 .3.3v.3c0 .1 0 .3-.1.5.1 0 .1 0 0 0zm.1.3c0 .2 0 .2-.2.2s-.2 0-.2-.2 0-.2.2-.2c.2.1.2.1.2.2zm-.4-1.8c0-.2 0-.2.2-.2s.2 0 .2.2 0 .2-.2.2-.2 0-.2-.2zm.3-.3h-.1-.1s-.1 0-.1-.1c0 0 0-.1.1-.1h.3c0 .1 0 .1-.1.2.1 0 .1 0 0 0zm-.3-.4s0-.1 0 0c0-.3 0-.3.2-.3s.2 0 .2.2c0 .3 0 .3-.3.3-.1-.1-.1-.1-.1-.2zm0 5.7c0-.3 0-.3.2-.3.1 0 .1 0 .1.1v.1c0 .2 0 .2-.2.2-.1.1-.1.1-.1-.1zm.2.3c.2 0 .2 0 .1.2 0 .2 0 .1-.2.1s-.2 0-.2-.2c.1-.1.1-.1.3-.1zm1.6 4c0 .1-.1.1-.1.1v.1h-1.1c-.1 0-.1 0-.1-.1v-3.4c0-.1 0-.1.1-.1h2.5c.1 0 .1 0 .1.1v1.2l-.1.1c0 .1-.1.2-.2.3-.3.6-.7 1.2-1.1 1.7zm1.3-6.2c.1 0 .1 0 .1.1v2.4c0 .1 0 .1-.1.1h-2.5c-.1 0-.1 0-.1-.1v-2.4c0-.1 0-.1.1-.1h2.5zm-2.3-.1h-.2v-.1-2.9-2.9-.1h.2v6zm.4-1.3c.2 0 .2 0 .2.2s0 .2-.2.2-.2 0-.2-.2c-.1-.2-.1-.2.2-.2zm-12-12.6s.1-.1.1 0c.7.5 1.3 1.1 1.8 1.8.1.1.1.2.2.3 0 .1 0 .1-.1.1-.9 0-1.7-.1-2.6-.1h-1.4c.2-.4.4-.7.6-.9.4-.4.9-.8 1.4-1.2zm-.3.1zm7.1 2.7c-.1 0-.2 0-.3-.1-.7-.1-1.3-.2-2-.3 0 0-.1 0-.1-.1-.5-.8-1.3-1.3-2.1-1.7-.3-.2-.6-.3-.9-.4.1 0 .3 0 .4.1 1.3.3 2.5.8 3.6 1.5.3.2.7.4 1 .7.2.1.3.2.4.3zm-4.9-2.2c.3.1.5.3.8.4.5.3 1 .6 1.3 1.1.1.1.1.2.2.3v.1c-.3 0-.6-.1-.9-.1-.3 0-.7-.1-1-.1-.1 0-.1 0-.2-.1-.1-.3-.4-.6-.6-.9-.3-.4-.7-.8-1.2-1.1.7 0 1.1.2 1.6.4zm-2.3-.5c-.6.5-1.1 1-1.5 1.7l-.1.1c0 .2-.1.2-.3.2-.6 0-1.1.1-1.7.2h-.1c.3-.4.6-.7 1-1 .8-.5 1.7-.9 2.7-1.2zm-1.1.2c-.8.3-1.5.7-2.1 1.3-.2.2-.4.5-.6.7 0 .1-.1.1-.1.1-.7.1-1.5.2-2.2.4h-.1c1.5-1.4 3.4-2.1 5.3-2.6-.1.1-.2.1-.2.1zm-3.3 3.4h-4.4c.4-.2.7-.3 1.1-.4l1.2-.3h.2c.5.3 1.2.5 1.9.7zm-.6-.3c-.4-.1-.8-.3-1.1-.4 0 0-.1 0-.1-.1.3-.1.5-.1.8-.2.5-.1 1-.2 1.5-.2h.2c.3.2.7.4 1 .6l.9.6H177.7c-.8.1-1.6 0-2.3-.3zm1.5-.8c.6-.1 1.2-.2 1.8-.2.1 0 .1 0 .1.1.4.4.8.9 1.2 1.3H178.8c-.6-.5-1.3-.9-1.9-1.2zm2.1-.3c1.3-.1 2.5-.1 3.8 0-.3.3-.5.6-.8.8l-.5.5s-.1.1-.2.1h-1.1-.1c-.3-.4-.7-.9-1.1-1.4zm3.9.1s.1-.1.1 0c.6 0 1.2.1 1.8.2-.3.2-.7.4-1 .6l-.9.6c-.1 0-.1.1-.2.1h-1-.1c.5-.6.9-1.1 1.3-1.5zm1.3.7c.3-.2.6-.3.9-.5.1 0 .1-.1.2 0 .7.1 1.5.2 2.2.4h.1c-.8.3-1.5.5-2.3.7h-2c.2-.2.5-.4.9-.6zm1.6.6l1.8-.6h.3c.7.2 1.5.4 2.2.6h.1-4.4zm-3.5-3.7c1.1.1 2.2.3 3.2.6 1.8.6 3.3 1.6 4.6 2.9l.1.1-2.1-.6c-.1 0-.2-.1-.3-.2-.9-.9-2-1.5-3.2-2-.9-.4-1.8-.6-2.7-.8.1-.1.2 0 .4 0zm-.2-.2h-.6-.1c-.1-.3-.2-.5-.4-.7.4-.1.9.3 1.1.7zm-1.1-.6c.1.2.2.3.3.5h-.1c-.1 0 0 0 0-.1-.1 0-.3.1-.5 0 0 0-.1 0 0 0h-.2c.1-.2.2-.4.3-.5.1 0 .1 0 .2.1zm-.3-.2c-.1.1-.1.2-.2.2-.1.1-.2.3-.2.4 0 0 0 .1-.1.1h-.6c.3-.3.6-.6 1.1-.7zm-.8 1c-.4.1-.7.2-1.1.3-1.3.4-2.5.8-3.6 1.5-.5.3-.9.6-1.3 1-.1.1-.1.1-.2.1-.7.2-1.4.4-2 .6h-.1c2.2-2.3 5.1-3.3 8.3-3.5zm-11.8 4.7s-.1 0 0 0c-.1-.3-.1-.5-.1-.8 0-.1 0-.1.1-.1H193c.1 0 .1 0 .1.1v.6c0 .1 0 .1-.1.1H168.3c.1.1-.1.1-.2.1zm.4.8c-.1 0-.1 0-.1-.1v-.4c0-.1 0-.1.1-.1h24.2c.2 0 .2 0 .2.2v.3c0 .1 0 .1-.1.1h-23.4c-.3-.1-.6-.1-.9 0zm1 .2c0-.1 0-.1.1-.1.2 0 .2 0 .2.2v.7c0 .1 0 .1.1.1h1.2c.1 0 .1 0 .1-.1v-.9c0-.1 0-.1.1-.1.2 0 .2 0 .2.2v.7c0 .1 0 .1.1.1h1.2c.1 0 .1 0 .1-.1v-.9c0-.1 0-.1.1-.1.2 0 .2 0 .2.2v.8c0 .1 0 .1.1.1h1.2c.1 0 .1 0 .1-.1v-.8c0-.1 0-.1.1-.1.2 0 .2 0 .2.2v.7c0 .1 0 .1.1.1h1.2c.1 0 .1 0 .1-.1v-.8c0-.1 0-.1.1-.1.2 0 .2 0 .2.2v.8c0 .1 0 .1.1.1h1.2c.1 0 .1 0 .1-.1v-.9c0-.1 0-.1.1-.1.2 0 .2 0 .2.2v.8c0 .1 0 .1.1.1h1.2c.1 0 .1 0 .1-.1v-.9c0-.1 0-.1.1-.1.2 0 .2 0 .2.2v.7c0 .1 0 .1.1.1h1.2c.1 0 .1 0 .1-.1v-.8c0-.1 0-.1.1-.1.2 0 .2 0 .2.2v.8c0 .1 0 .1.1.1h1.2c.1 0 .1 0 .1-.1v-.9c0-.1 0-.1.1-.1.2 0 .2 0 .2.2v.7c0 .1 0 .1.1.1h1.2c.1 0 .1 0 .1-.1v-.8c0-.1 0-.1.1-.1.2 0 .2 0 .2.2v.8c0 .1 0 .1.1.1h1.2c.1 0 .1 0 .1-.1v-.8c0-.1 0-.1.1-.1.2 0 .2 0 .2.2v.7c0 .1 0 .1.1.1h1.2c.1 0 .1 0 .1-.1v-.8c0-.1 0-.1.1-.1.2 0 .2 0 .2.2v.7c0 .1 0 .1.1.1h1.2c.1 0 .1 0 .1-.1v-.8c0-.1 0-.1.1-.1.2 0 .2 0 .2.2v.8c0 .1 0 .1.1.1h1.2c.1 0 .1 0 .1-.1v-.9c0-.1 0-.1.1-.1.3 0 .3 0 .3.3v1.2c0 .1 0 .1-.1.1h-22c-.2 0-.2 0-.2-.2-.2-.4-.2-.9-.2-1.3zm-1.2 2.1c-.1 0-.1 0-.1-.1 0-.3 0-.3.3-.3h24.4c.1 0 .1 0 .1.1v.3c-.1.1-.2 0-.3 0h-24.4zm22.9.2v-.1h.2V31c0 .1-.1.2-.2.1V31v-.1-4.2-4zm-.5 7.9v-.2h.3V30.7c0 .2 0 .2-.2.2-.1-.1-.1-.1-.1-.3zm0-4.9c0-.3.1-.3.3-.2 0 0 .1 0 .1.1v.2c0 .2 0 .2-.2.2-.2-.2-.2-.2-.2-.3zm0 .4c0-.1 0-.1 0 0 .4-.1.4-.1.4.2v.8c0 .1 0 .1-.1.1-.3 0-.3 0-.3-.3v-.8zm0-.9c0-.1.1 0 .2-.1h.1s.1 0 .1.1c0 0 0 .1-.1.1h-.1c-.1-.1-.2 0-.2-.1zm0 5.8c0-.1 0-.1 0 0h.3v.2c0 .2 0 .2-.2.2h-.2c.1-.3.1-.4.1-.4zm.2-.8c-.2 0-.2 0-.2-.2v-.9V28c0-.1 0-.1.1-.1.3 0 .3 0 .3.3v2h-.2zm.2-2.9c0 .1 0 .1 0 0v.1c0 .2 0 .2-.1.2h-.1c-.1 0-.2 0-.1-.1-.1-.2-.1-.2.3-.2-.1 0 0 0 0 0zm0-2.6s0 .1 0 0c0 .3 0 .3-.2.3-.1 0-.1 0-.1-.1v-.1c0-.1 0-.2.1-.2h.2c-.1 0 0 0 0 .1zm0-.6v.2c0 .1 0 .1-.1.1-.2 0-.2 0-.2-.2v-1.5c0-.1 0-.1.1-.1.2 0 .2 0 .2.2V24.1zm-.8 7v-8.3-.1h.2c.1 0 0 .1 0 .1v8.5h-.2v-.2zm-.1-7v.2c0 .1 0 .1-.1.1-.3 0-.3 0-.3-.3v-1.5c0-.1 0-.1.1-.1.3 0 .3 0 .3.3V24.1zm-.4 3.8c0-.1 0-.1.1-.1.3 0 .3 0 .3.3v2c0 .1 0 .1-.1.1-.3 0-.3 0-.3-.3V29v-1.1zm0-1.8c0-.1 0-.1.1-.1.3 0 .3 0 .3.3v.8c0 .1 0 .1-.1.1-.3 0-.3 0-.3-.3v-.8zm.4-.5c0 .3 0 .3-.2.3s-.2 0-.2-.2 0-.2.2-.2c.2-.1.2-.1.2.1zm-.2-1c.2 0 .2 0 .2.2v.1c0 .2 0 .2-.2.2s-.2 0-.2-.2c0-.3 0-.3.2-.3zm-.2.6h.2s.1 0 .1.1c0 0 0 .1-.1.1h-.3c.1-.1.1-.2.1-.2zm0 2.4v-.1c0-.1 0-.2.1-.2h.2c.2 0 .2 0 .2.2 0 .3 0 .3-.3.3-.2-.1-.2-.1-.2-.2zm0 3.4c0-.1 0-.1 0 0 .1-.1.1-.1.2-.1.2 0 .2 0 .2.2 0 .1 0 .1-.2.1s-.2 0-.2-.2zm.4-.4c0 .2 0 .2-.1.2h-.1c-.2 0-.2 0-.2-.2s0-.2.2-.2c.1-.1.2 0 .2.2 0-.1 0-.1 0 0 0-.1 0-.1 0 0zm-.5-4.8V31c0 .1-.1.2-.2.1V31v-.4-3.8-4.2-.1h.2V25.8zm-.4-1.5c0 .1 0 .1-.1.1-.3 0-.3 0-.3-.3v-.7-.8c0-.1 0-.1.1-.1.3 0 .3 0 .3.3v1.5zm-.2 6c.2 0 .2 0 .2.2v.1c0 .2 0 .2-.2.2s-.2 0-.2-.2c0-.3 0-.3.2-.3zm0-.1c-.3 0-.3 0-.3-.3V29v-1.1c0-.1 0-.1.1-.1.3 0 .3 0 .3.3v2c.1.1 0 .1-.1.1zM189 26c.3 0 .3 0 .3.3v.8c0 .1 0 .1-.1.1-.3 0-.3 0-.3-.3s0-.6.1-.9c-.1 0-.1 0 0 0zm-.1-.3c0-.3 0-.3.2-.3s.2 0 .2.2v.1c0 .2 0 .2-.2.2-.2-.1-.2-.1-.2-.2zm.4 1.7c0 .3 0 .3-.2.3s-.2 0-.2-.2c0-.3 0-.3.3-.3 0 .1.1.1.1.2zm0-2.6c0 .2 0 .2-.2.2s-.2 0-.2-.2c0-.3 0-.3.3-.3 0 .1.1.1.1.3 0-.1 0 0 0 0zm-.4.4h.2v.1h-.3c.1 0 .1 0 .1-.1zm.1 5.7c.3 0 .3 0 .3.3 0 .1 0 .1-.1.1h-.1c-.2 0-.2 0-.2-.2s0-.2.1-.2zm-.5-.1v-3.9-4.2-.1h.2V31c0 .2 0 .2-.2.2-.1 0-.1 0-.1-.1.1-.1.1-.2.1-.3zm-.1-6.4s-.1 0 0 0c-.4.1-.4.1-.4-.2v-1.5c0-.1 0-.1.1-.1.3 0 .3 0 .3.3v.7c0 .2-.1.5 0 .8zm-.4 1.7c0-.1 0-.1.1-.1.3 0 .3 0 .3.3v.8c0 .1 0 .1-.1.1-.3 0-.3 0-.3-.3v-.8zm.4-.5c-.1 0 0 0 0 0 0 .2 0 .3-.1.3h-.1c-.2 0-.2 0-.2-.2s0-.2.2-.2c.1-.1.2-.1.2.1zm-.4-.4c.1 0 .2 0 .3-.1 0 0 .1 0 .1.1 0 0 0 .1-.1.1h-.1c-.1 0-.1 0-.2-.1 0 .1 0 0 0 0zm0-.3s0-.1 0 0c0-.3 0-.3.1-.3h.1c.2 0 .2 0 .2.2 0 .3 0 .3-.3.3-.1-.1-.1-.1-.1-.2zm0 2.7v-.1c0-.2 0-.2.1-.2h.1c.1 0 .2 0 .2.2s0 .2-.4.1c0 .1 0 .1 0 0zm.4 3c0 .2 0 .2-.1.2h-.1c-.2 0-.2 0-.2-.2 0-.3 0-.3.3-.3.1 0 .1 0 .1.1s-.1.1 0 .2c-.1-.1 0-.1 0 0zm-.3-2.8c.3 0 .3 0 .3.3v2c0 .1 0 .1-.1.1-.3 0-.3 0-.3-.3V29v-1.1s0-.1.1-.1zm-.1 3.4c0-.1 0-.1 0 0 0-.2 0-.2.2-.2s.2.1.2.3c-.1 0-.2-.1-.4-.1 0 .1 0 0 0 0zm-.2-4.3v4.2c0 .1-.1.2-.2.1v-.1-8.3-.1h.2V26.9zm-.4-2.6c0 .1 0 .1 0 0-.4.1-.4.1-.4-.2v-1.5c0-.1 0-.1.1-.1.3 0 .3 0 .3.3v1.5zm-.3 3.6c0-.1 0-.1.1-.1.3 0 .3 0 .3.3v2c0 .1 0 .1-.1.1-.3 0-.3 0-.3-.3v-2zm.3-.9c0 .1 0 .1 0 0-.4.1-.4.1-.4-.2V26c0-.1 0-.1.1-.1.3 0 .3 0 .3.3v.8zm0 .5c0 .2 0 .2-.1.2h-.1c-.2 0-.2 0-.2-.2s0-.2.2-.2.2 0 .2.2c0-.1 0 0 0 0zm-.3-2.6c0-.1 0-.1 0 0 0-.3 0-.3.2-.3s.2 0 .2.2 0 .2-.2.2-.3 0-.2-.1zm.4.3c-.1 0-.1.1 0 0-.1.1-.2.1-.3.1 0 0-.1 0-.1-.1 0 0 0-.1.1-.1h.1c0 .1 0 .1.2.1-.1 0 0 0 0 0zm-.4.5c0-.3 0-.3.2-.3s.2 0 .2.2c0 .3 0 .3-.3.3-.1-.1-.1-.1-.1-.2zm0 5.4c0-.2 0-.2.2-.2s.2 0 .2.2c0 .1 0 .1-.1.1h-.1c-.2.1-.2 0-.2-.1zm.3-.6c0 .3 0 .3-.2.3s-.2 0-.2-.2 0-.2.2-.3c.2 0 .3.1.2.2zm-.5-5.9V31c0 .1-.1.2-.2.1V31v-1-3.3-4.2-.1h.2v2.2zm-.6 6.6c-.2 0-.2 0-.2-.2 0-.1 0-.2.1-.1h.1c.2 0 .2 0 .2.2s.1.1-.2.1zm.2-6.9c0 .1 0 .1-.1.1-.3 0-.3 0-.3-.3v-.7-.8c0-.1 0-.1.1-.1.3 0 .3 0 .3.3v1.5zm-.3 1.8c0-.1 0-.1 0 0 .4-.1.4-.1.4.2v.8c0 .1 0 .1-.1.1-.3 0-.3 0-.3-.3v-.8zm0-1.2s0-.1 0 0c0-.3 0-.3.2-.3s.2 0 .2.2c0 .3 0 .2-.3.3-.1-.1-.2-.1-.1-.2zm.3.3s0 .1 0 0c-.1.1-.2.1-.3.1v-.1s0-.1.1-.1h.1c0 .1 0 .1.1.1zm-.3.5c0-.3 0-.3.2-.3s.2 0 .2.2c0 .3 0 .2-.2.3-.2-.1-.3-.1-.2-.2zm0 4.9c0-.2 0-.2.2-.2s.2 0 .2.2v.1c0 .2 0 .2-.2.2-.2-.1-.2-.1-.2-.3zm.2-.4c-.3 0-.3 0-.3-.3V29v-1.1c0-.1 0-.1.1-.1.3 0 .3 0 .3.3v2c0 .1 0 .1-.1.1zm.1-2.8v.1c0 .2 0 .2-.2.2h-.1c-.1 0-.1 0-.1-.1v-.1c0-.3 0-.3.3-.3.1.1.2.1.1.2zm-.5 3.7c0 .1-.1.2-.2.1v-.1-.1-4.2-4.2-.1h.2v8.6zm-.4 0c0 .2 0 .2-.2.2h-.2V31h.3c.1-.1.1-.1.1.1 0-.1 0-.1 0 0zm-.3-.5c0-.2 0-.2.1-.2h.1c.2 0 .2 0 .2.2 0 .3 0 .3-.3.3-.1 0-.1 0-.1-.1v-.2zm.2-.4c-.3 0-.3 0-.3-.3v-2c0-.1 0-.1.1-.1.3 0 .3 0 .3.3v2c0 .1 0 .1-.1.1zm.1-2.9v.1c0 .1 0 .2-.1.2h-.1c-.1 0-.2 0-.2-.2.1-.1.1-.1.4-.1zm0-3c0 .1 0 .1-.1.1-.3 0-.3 0-.3-.3v-1.5c0-.1 0-.1.1-.1.3 0 .3 0 .3.3v1.5zm-.3.6s0-.1 0 0c0-.3 0-.3.3-.3.1 0 .1 0 .1.1v.1c0 .2 0 .2-.2.2s-.3 0-.2-.1zm.3.3s0 .1 0 0c-.1.1-.2.1-.3.1 0 0-.1 0-.1-.1s0-.1.1-.1h.1c.1.1.1.1.2.1zm0 1.8c0 .1 0 .1 0 0-.4.1-.4.1-.4-.2v-.3-.5c0-.1 0-.1.1-.1.3 0 .3 0 .3.3v.8zm0-1.5c0 .1 0 .1 0 0 0 .3 0 .3-.3.3-.1 0-.1 0-.1-.1v-.1c0-.2 0-.2.2-.2s.2 0 .2.1zm-.5 1.4v4.3h-.2v-.1-.1-8.4c0-.1 0-.1.1-.1s.1 0 .1.1v4.3zm-.4-2.6c0 .1 0 .1-.1.1-.3 0-.3 0-.3-.3v-.7-.8c0-.1 0-.1.1-.1.3 0 .3 0 .3.3v1.5zm-.4 1.8c0-.1.1-.1 0 0 .4-.1.4-.1.4.2v.8c0 .1 0 .1-.1.1-.3 0-.3 0-.3-.3v-.8zm.4 4c0 .1 0 .1-.1.1-.3 0-.3 0-.3-.3v-2c0-.1 0-.1.1-.1.3 0 .3 0 .3.3v2zm0-5.4c0 .1 0 .1 0 0 0 .3 0 .3-.2.3s-.2 0-.2-.2c0-.3 0-.3.2-.3.2.1.2.1.2.2zm-.3.5h.3s.1 0 .1.1c0 0 0 .1-.1.1h-.1-.1c-.2-.1-.2-.2-.1-.2-.1 0 0 0 0 0zm-.1.5c.1 0 0 0 0 0 0-.3 0-.3.2-.3s.2 0 .2.2c0 .3 0 .2-.2.3-.1-.1-.2-.1-.2-.2zm0 4.9c.1 0 0 0 0 0 0-.2 0-.3.1-.3h.1c.2 0 .2 0 .2.2s0 .2-.2.2c-.1.1-.2.1-.2-.1zm.2.3c.3 0 .3 0 .3.2 0 .1 0 .1-.1.1h-.1c-.2 0-.2 0-.2-.2-.1-.1 0-.1.1-.1zm.2-3.5v.1c0 .2 0 .2-.2.2h-.1s-.1 0-.1-.1v-.1c0-.3 0-.3.3-.3.1.1.1.1.1.2zm-.7.5v-5.2-.1h.2v8.6h-.2v-.1-3.2zm-.2 3.2c0 .2 0 .2-.2.2h-.2V31h.3c.1-.1.1-.1.1.1 0-.1 0-.1 0 0zm0-6.8c0 .1 0 .1-.1.1-.3 0-.3 0-.3-.3v-.7-.8c0-.1 0-.1.1-.1.3 0 .3 0 .3.3v1.5zm-.3.6c0-.3 0-.3.3-.3.1 0 .1 0 .1.1v.1c0 .2 0 .2-.2.2s-.3 0-.2-.1zm.3.3c0 .1 0 .1 0 0-.1.1-.1.1-.2.1h-.1v-.1H183.8zm-.3.5c0-.3 0-.3.3-.3.1 0 .1 0 .1.1v.1c0 .1 0 .2-.1.2h-.1c-.2 0-.3 0-.2-.1zm-.1.4c0-.1.1-.1 0 0 .4-.1.4-.1.4.2v.8c0 .1 0 .1-.1.1-.3 0-.3 0-.3-.3.1-.3.1-.6 0-.8zm.1 1.4c0-.3 0-.3.3-.3.1 0 .1 0 .1.1v.1c0 .2 0 .2-.2.2-.2.1-.3.1-.2-.1zm-.1.4c0-.1 0-.1.1-.1.3 0 .3 0 .3.3v2c0 .1 0 .1-.1.1-.3 0-.3 0-.3-.3V29c.1-.3.1-.7 0-1.1zm.4 2.7c0 .2 0 .2-.2.2s-.2 0-.2-.2c0-.3 0-.3.2-.3s.2.1.2.3c0-.1 0-.1 0 0zm-.7-.7v-7.2-.1h.2v8.6h-.2v-.1-1.2zm-.2-5.6c0 .1 0 .1 0 0-.4.1-.4.1-.4-.2v-1.5c0-.1 0-.1.1-.1.3 0 .3 0 .3.3v1.5zm0 2.7c0 .1 0 .1 0 0-.4.1-.4.1-.4-.2v-.3-.5c0-.1 0-.1.1-.1.3 0 .3 0 .3.3v.8zm0 .5c0 .2 0 .2-.1.2h-.1c-.2 0-.2 0-.2-.2s0-.2.2-.3c.2.1.2.1.2.3 0-.1 0-.1 0 0zm-.2.3c.3 0 .3 0 .3.3v2c0 .1 0 .1-.1.1-.3 0-.3 0-.3-.3v-2c-.1 0 0-.1.1-.1zm-.2-2.9s.1 0 0 0c.1-.1 0-.1 0 0 0-.2 0-.3.1-.3h.1c.2 0 .2 0 .2.2v.1c0 .2 0 .2-.2.2-.1-.1-.2-.1-.2-.2zm.4.3c0 .1 0 .1 0 0-.1.1-.1.1-.2.1h-.1s-.1 0-.1-.1 0-.1.1-.1c.1.1.2.1.3.1zm-.4 5.4c.1 0 0 0 0 0 0-.3 0-.3.3-.3.1 0 .1 0 .1.1v.1c0 .2 0 .2-.2.2-.1.1-.2 0-.2-.1zm.2.3h.2v.3h-.3v-.1-.1c-.1-.1-.1-.1.1-.1zm.2-5.3c0 .3 0 .3-.3.3 0 0-.1 0-.1-.1v-.1c0-.2 0-.2.2-.2.2-.1.2-.1.2.1zm-.7-3h.2v8.6h-.2v-.1-8.3c0-.1-.1-.2 0-.2zm-.2 1.7c0 .1 0 .1-.1.1-.3 0-.3 0-.3-.3v-.7-.8c0-.1 0-.1.1-.1.3 0 .3 0 .3.3v1.5zm-.4.6c.1 0 0 0 0 0 0-.4 0-.3.3-.4.1 0 .1 0 .1.1v.1c0 .2 0 .2-.2.2 0 .1 0 .1-.2 0 .1.1 0 .1 0 0zm.4 2.1c0 .1 0 .1 0 0-.4.1-.4.1-.4-.2v-.3-.5c0-.1 0-.1.1-.1.3 0 .3 0 .3.3v.8zm-.4.9c0-.1 0-.1.1-.1.3 0 .3 0 .3.3v2c0 .1 0 .1-.1.1-.3 0-.3 0-.3-.3V29v-1.1zm.4-2.7s0 .1 0 0c-.1.1-.1.1-.2.1h-.1s-.1 0-.1-.1c0 0 0-.1.1-.1.1.1.2.1.3.1zm-.4 2.4c0-.1 0-.1 0 0 0-.2 0-.3.1-.3h.1c.2 0 .2 0 .2.2 0 .3 0 .3-.3.3 0-.1-.1-.1-.1-.2zm0 3c.1 0 0 0 0 0 0-.2 0-.3.1-.3h.1c.2 0 .2 0 .2.2 0 .3 0 .2-.2.3-.1 0-.2-.1-.2-.2zm.1.3h.2c.2 0 .2 0 .2.2 0 .1 0 .1-.1.1h-.1-.2c-.1-.1-.1-.2 0-.3zm.3-5.4c0 .1 0 .1 0 0 0 .3 0 .3-.1.3h-.1c-.2 0-.2 0-.2-.2s0-.2.2-.2.2 0 .2.1zm-.5-.6v6.2c0 .1-.1.2-.2.1v-.1V30v-7.2c0-.1.1-.2.2-.1.1 0 0 .1 0 .1v2.1zm-.4-.8v.2c0 .1 0 .1-.1.1-.3 0-.3 0-.3-.3v-1.5c0-.1 0-.1.1-.1.3 0 .3 0 .3.3V24.1zm-.4.8c.1 0 0-.1 0 0 0-.3 0-.3.2-.3.1 0 .2 0 .1.1 0 .3 0 .3-.3.3.1 0 0 0 0-.1zm.4.3c0 .1 0 .1 0 0-.1.1-.1.1-.2.1h-.1s-.1 0-.1-.1c0 0 0-.1.1-.1.1.1.2.1.3.1zm-.4.5v-.1c0-.2 0-.2.2-.2.1 0 .2 0 .1.1 0 .3 0 .3-.3.3.1 0 0 0 0-.1zm.4 4.9c0 .2 0 .2-.2.2s-.2 0-.2-.2 0-.2.2-.3c.1 0 .1 0 .1.1.1.1.1.1.1.2zm0-3.6c0 .1 0 .1 0 0-.4.1-.4.1-.4-.2V26c0-.1 0-.1.1-.1.3 0 .3 0 .3.3v.8zm0 .5c0 .2 0 .2-.2.2s-.2 0-.2-.2c0-.3 0-.3.2-.3.2.1.2.1.2.3 0-.1 0-.1 0 0zm-.3.3c.3 0 .3 0 .3.3v2c0 .1 0 .1-.1.1-.3 0-.3 0-.3-.3V29v-1.1l.1-.1zm.2 3.1h.2v.3c0 .1-.1 0-.2 0h-.1c-.1 0-.1 0-.1-.1 0-.2-.1-.2.2-.2zm-.6-8.3h.2V31.3h-.2v-.1-.1-8.3c0-.1-.1-.2 0-.2zm-.2 1.7c0 .1 0 .1-.1.1-.3 0-.3 0-.3-.3v-.7-.8c0-.1 0-.1.1-.1.3 0 .3 0 .3.3v1.5zm-.1 5.9c-.3 0-.3 0-.3-.3v-2c0-.1 0-.1.1-.1.3 0 .3 0 .3.3v2c0 .1 0 .1-.1.1zm.1.3c0 .2 0 .2-.2.2s-.2 0-.2-.2 0-.2.2-.2.2 0 .2.2zm-.4-4.4c0-.1 0-.1 0 0 .4-.1.4-.1.4.2v.8c0 .1 0 .1-.1.1-.3 0-.3 0-.3-.3v-.8zm0-.5c0-.2 0-.2.2-.2s.2 0 .2.2 0 .2-.2.2-.2 0-.2-.2zm.4-.8c0 .2 0 .2-.2.2s-.2 0-.2-.2 0-.2.2-.2.2 0 .2.2zm-.3.4H180.2v.1h-.3c-.1 0-.1-.1 0-.1-.1 0 0 0 0 0zm0 2.1h.3V27.6c0 .2 0 .2-.2.2h-.1c-.1 0-.1 0-.1-.1v-.1c0-.2 0-.3.1-.3zm-.1 3.8c0-.2 0-.2.2-.2s.2 0 .2.2c0 .1 0 .1-.1.1h-.1c-.1.1-.2 0-.2-.1zm-.3-8.5h.2v8.6h-.2v-.1-.1-8.3c-.1 0-.1-.1 0-.1zm-.2 1.7c0 .1 0 .1 0 0-.4.1-.4.1-.4-.2v-1.5c0-.1 0-.1.1-.1.3 0 .3 0 .3.3v1.5zm-.3 1c-.1 0-.1-.1 0 0v-.1h.3s.1 0 .1.1c0 0 0 .1-.1.1h-.1c-.1-.1-.2-.1-.2-.1zm.3-.6s0 .1 0 0c0 .3 0 .3-.2.3s-.2 0-.2-.2c0-.3 0-.2.2-.3.2.1.2.1.2.2zm-.4 1.1c0-.1 0-.1 0 0 0-.3 0-.3.3-.4.1 0 .1 0 .1.1v.1c0 .2 0 .2-.1.2h-.1-.2zm0 2.1c0-.1 0-.1.1-.1.3 0 .3 0 .3.3v2c0 .1 0 .1-.1.1-.3 0-.3 0-.3-.3v-2zm.4-.5v.1c0 .2 0 .2-.2.2h-.1c-.1 0-.1 0-.1-.1v-.1c0-.3 0-.3.3-.3.1.1.1.1.1.2zm0-.4c0 .1 0 .1 0 0-.4.1-.4.1-.4-.2v-.3-.5c0-.1 0-.1.1-.1.3 0 .3 0 .3.3v.8zm-.2 3.9c.2 0 .2 0 .2.2 0 .1 0 .1-.1.1h-.1c-.1 0-.2 0-.2-.1 0-.2 0-.2.2-.2zm.2-.4c0 .3 0 .3-.2.3s-.2 0-.2-.2c0-.3 0-.2.2-.3.2 0 .2.1.2.2zm-.5-5.5v6.1c0 .1-.1.2-.2.2v-.1V27v-4.2-.1h.2V25zm-.4 2c0 .1 0 .1 0 0-.4.1-.4.1-.4-.2V26c0-.1 0-.1.1-.1.3 0 .3 0 .3.2V27zm-.4 1c0-.1 0-.1.1-.1.2 0 .2 0 .2.2v2.1c0 .1 0 .1-.1.1-.3 0-.3 0-.3-.3.1-.7.1-1.4.1-2zm0-.4c0-.1 0-.1 0 0 0-.3 0-.3.2-.3.1 0 .1 0 .1.2s0 .2-.2.2c0 0-.1 0-.1-.1zm0 3.1c0-.1 0-.1 0 0 0-.3 0-.3.3-.3 0 0 .1 0 .1.1v.2c0 .1 0 .2-.1.2h-.2c0-.1-.1-.1-.1-.2zm0 .2s.1 0 0 0h.1c.2 0 .2 0 .2.2 0 .1 0 .1-.1.1h-.1-.2c.1-.1.1-.2.1-.3zm.4-5.3c0 .3 0 .3-.2.3-.1 0-.2 0-.1-.1v-.1c0-.2 0-.2.2-.2.1-.1.1-.1.1.1zm0-1.3c0 .1 0 .1-.1.1-.3 0-.3 0-.3-.3v-1.5c0-.1 0-.1.1-.1.3 0 .3 0 .3.2v1.6zm-.4.6c0-.3 0-.3.2-.3.1 0 .1 0 .1.1v.1c0 .2 0 .2-.2.2 0 0-.1 0-.1-.1zm.4.3c0 .1 0 .1 0 0-.1.1-.2.1-.3.1 0 0-.1 0-.1-.1h.4zm-.8 4v-2.3-4.2-.1h.2v8.5c0 .1-.1.2-.2.1-.1 0 0-.1 0-.1.1-.6 0-1.3 0-1.9zm-5.5-4.8s-.1 0 0 0c-.4.1-.4.1-.4-.2v-1.5c0-.1 0-.1.1-.1.3 0 .3 0 .3.3v1.5zm-.4.5v-.1c0-.2 0-.2.2-.2.1 0 .2 0 .1.1 0 .3 0 .3-.3.3v-.1zm.5.5v-2.7c0-.1 0-.1.1-.1s.1 0 .1.1v5.4c0 .1 0 .1-.1.1s-.1 0-.1-.1v-2.7zm2.4 2.9h2.8c.1 0 .1 0 .1.1v1.8c0 .1 0 .1-.1.1h-5.6c-.1 0-.1 0-.1-.1v-1.9c0-.1 0-.1.1-.1.9.1 1.9.1 2.8.1zm-1.6-4c0 .1 0 .1 0 0-.4.1-.4.1-.4-.2v-1.5c0-.1 0-.1.1-.1.3 0 .3 0 .3.3v1.5zm-.4.9h.4s0 .1-.1.1h-.1-.1c-.1 0-.1-.1-.1-.1zm0-.4c0-.2 0-.2.2-.2s.2 0 .2.2 0 .2-.2.2-.2 0-.2-.2zm0 1c0-.1 0-.1 0 0 0-.4 0-.3.3-.4.1 0 .1 0 .1.1v.1c0 .2 0 .2-.2.2h-.2zm.4 1.7c0 .2 0 .2-.2.2h-.1s-.1 0-.1-.1v-.1c0-.3 0-.3.3-.3.1 0 .1 0 .1.1v.2zm0-.5c0 .1 0 .1 0 0-.4.1-.4.1-.4-.2v-.7c0-.1 0-.1.1-.1.3 0 .3 0 .3.3v.7zm-.3.8c.3 0 .3 0 .3.3 0 .1 0 .1-.1.1h-.1c-.2 0-.2 0-.2-.2l.1-.2c-.1 0-.1 0 0 0zm.7-2.4v2.7c0 .1 0 .1-.1.1s-.1 0-.1-.1v-5.4c0-.1.1-.1.1-.1.1 0 .1 0 .1.1v2.7zm.5-1.1c0 .1 0 .1-.1.1-.3 0-.3 0-.3-.3v-.7-.8c0-.1 0-.1.1-.1.3 0 .3 0 .3.3v1.5zm-.4.6c0-.3 0-.3.3-.3.1 0 .1 0 .1.1v.1c0 .2 0 .2-.2.2s-.2 0-.2-.1zm.4.3s0 .1 0 0c-.1.1-.2.1-.3.1 0 0-.1 0-.1-.1 0 0 0-.1.1-.1h.1c0 .1.1.1.2.1zm-.4.5c0-.3 0-.3.3-.3.1 0 .1 0 .1.1v.1c0 .2 0 .2-.2.2s-.2 0-.2-.1zm.4 1.8c0 .2 0 .2-.1.2h-.1c-.2 0-.2 0-.2-.2s0-.2.2-.3c.1 0 .1 0 .1.1.1.1.1.1.1.2zm0-.5c0 .1 0 .1 0 0-.4.1-.4.1-.4-.2V26c0-.1 0-.1.1-.1.3 0 .3 0 .3.3v.8zm0 1.1c0 .1 0 .1-.2.1s-.2 0-.2-.2c0-.1 0-.2.2-.1.2-.1.2-.1.2.2zm.1-2.7v-2.7c0-.1 0-.1.1-.1s.1 0 .1.1v5.4c0 .1 0 .1-.1.1s-.1 0-.1-.1v-2.7zm.8-1.1c0 .1 0 .1-.1.1-.3 0-.3 0-.3-.3v-.7-.8c0-.1 0-.1.1-.1.3 0 .3 0 .3.3v1.5zm0 3.2c0 .2 0 .2-.2.2h-.1c-.1 0-.1 0-.1-.1v-.1c0-.3 0-.3.3-.3.1 0 .1 0 .1.1v.2zm0-2.7c0 .2 0 .2-.2.2s-.2 0-.2-.2 0-.2.2-.2.2 0 .2.2zm-.3.4h.2v.2h-.3c0-.1 0-.2.1-.2-.1 0-.1 0 0 0zm.3.4c0 .2 0 .2-.2.2s-.2 0-.2-.2 0-.2.2-.2.2 0 .2.2zm-.3.4c.3 0 .3 0 .3.3v.8c0 .1 0 .1-.1.1-.3 0-.3 0-.3-.3v-.7c0-.2 0-.2.1-.2zm0 1.8s.1 0 0 0c.2 0 .3 0 .3.1v.2c0 .1 0 .1-.1.1-.2 0-.2 0-.2-.2-.1-.1-.1-.2 0-.2zm.4-2.4v-2-.7c0-.1 0-.1.1-.1s.1 0 .1.1v5.4c0 .1 0 .1-.1.1s-.1 0-.1-.1v-.7-2zm.8-1.1c0 .1 0 .1-.1.1-.3 0-.3 0-.3-.3v-.7-.8c0-.1 0-.1.1-.1.3 0 .3 0 .3.3v1.5zm0 .4v.1c0 .2 0 .2-.2.2s-.2 0-.2-.2c0-.3 0-.3.3-.3.1.1.1.1.1.2zm0 .5c0 .1 0 .1 0 0-.1.1-.1.1-.2.1h-.1v-.1-.1c.1.1.1.1.3.1zm-.4.5c0-.3 0-.3.3-.3.1 0 .1 0 .1.1v.1c0 .2 0 .2-.2.2s-.2 0-.2-.1zm0 .4c0-.1 0-.1 0 0 .4-.1.4-.1.4.2v.8c0 .1 0 .1-.1.1-.3 0-.3 0-.3-.3v-.8zm0 1.4c0-.3 0-.3.3-.3.1 0 .1 0 .1.1v.1c0 .2 0 .2-.2.2-.2.1-.2.1-.2-.1zm.4.5c0 .2 0 .2-.2.2-.1 0-.1 0-.1-.2s0-.2.2-.2c.1 0 .1 0 .1.2zm.4-2.6v2.7c0 .1-.1.1-.1.1-.1 0-.1 0-.1-.1v-5.4c0-.1 0-.1.1-.1s.1 0 .1.1v2.7zm.5-1.1c0 .1 0 .1-.1.1-.3 0-.3 0-.3-.3v-1.5c0-.1 0-.1.1-.1.3 0 .3 0 .3.3v1.5zm-.4 1.8c0-.1 0-.1 0 0 .4-.1.4-.1.4.2v.8c0 .1 0 .1-.1.1-.3 0-.3 0-.3-.3v-.3-.5zm.4-.6c0 .1 0 .1 0 0 0 .3 0 .3-.2.3s-.2 0-.2-.2 0-.2.2-.3c.2.1.2.1.2.2zm-.4-.3c.1-.1.1-.1.2-.1h.1s.1 0 .1.1v.1c-.2 0-.2 0-.4-.1 0 .1 0 0 0 0zm0-.3s0-.1 0 0c0-.3 0-.3.2-.3s.2 0 .2.2 0 .2-.2.2-.2 0-.2-.1zm0 2.6c0-.3 0-.3.3-.3 0 0 .1 0 .1.1v.1c0 .2 0 .2-.2.2h-.1c-.1.1-.1.1-.1-.1zm0 .5c0-.1 0-.2.1-.1.1 0 .2 0 .2.1v.1c0 .2 0 .2-.2.2-.1-.1-.1-.1-.1-.3zm.8-2.6v2.7c0 .1 0 .1-.1.1s-.1 0-.1-.1v-5.4c0-.1 0-.1.1-.1s.1 0 .1.1v2.7zm.5-1.1c0 .1 0 .1-.1.1-.3 0-.3 0-.3-.3v-1.5c0-.1 0-.1.1-.1.3 0 .3 0 .3.3v1.5zm0 3.8c0 .1 0 .1 0 0l-.1.1c-.3 0-.3 0-.3-.3 0-.1 0-.1.1-.1h.1c.2 0 .2 0 .2.3zm-.4-2c0-.1 0-.1.1-.1.3 0 .3 0 .3.3v.8c0 .1 0 .1-.1.1-.3 0-.3 0-.3-.3v-.8zm.4-.5c0 .3 0 .3-.2.3s-.2 0-.2-.2c0-.3 0-.3.2-.3s.2 0 .2.2zm-.1-.3h-.1-.1v-.1s0-.1.1 0h.3c-.1 0-.1 0-.2.1.1 0 .1 0 0 0zm-.3-.4c0-.1 0-.1 0 0 0-.3 0-.3.2-.3s.2 0 .2.2c0 .3 0 .2-.2.3-.2-.1-.2-.1-.2-.2zm-5 2.1c0 .1-.1.1 0 0-.4.1-.4.1-.4-.2V26c0-.1 0-.1.1-.1.3 0 .3 0 .3.3v.8zm0 1v.2c-.2 0-.2 0-.2-.1 0-.2 0-.2.2-.2h.1c-.1-.1-.2 0-.1.1zm0-.6c0 .3 0 .3-.2.3-.1 0-.1 0-.1-.2 0-.3 0-.3.3-.3-.1.1 0 .1 0 .2zm5.4 3.4s-.1 0 0 0H171.8c-.1 0-.1 0-.1-.1s0-.1.1-.1H177.5v.2zm-5.4-5.3c0 .1 0 .1 0 0 0 .3 0 .3-.3.3-.1 0-.1 0-.1-.1v-.1c0-.1 0-.2.1-.2h.2s.1 0 .1.1zm-.4-.3c.1 0 .2 0 .3-.1 0 0 .1 0 .1.1 0 0 0 .1-.1.1h-.1c-.1 0-.1 0-.2-.1 0 .1 0 .1 0 0zm.1 5.8h5.6c.1 0 .1.1.1.1 0 .1 0 .1-.1.1h-5.6c-.1 0-.1 0-.1-.1s0-.1.1-.1zm5.7-3.6s0 .1 0 0c0 .3 0 .3-.2.3s-.2 0-.2-.2 0-.2.2-.2c.2-.1.2 0 .2.1zm-6-.5v4.2c0 .1 0 .1-.1.1s-.1 0-.1-.1v-8.2-.1c0-.1 0-.1.1-.1s.1 0 .1.1v4.1zm-.7-1.4c0-.1 0-.1.1-.1.2 0 .2 0 .2.2s0 .2-.2.2c-.1 0-.2 0-.2-.2.1 0 .1 0 .1-.1zm.4-1.2c0 .1 0 .1-.1.1-.3 0-.3 0-.3-.2v-.7-.8c0-.1 0-.1.1-.1.3 0 .3 0 .3.3v1.4zm-.4 1.8c0-.1 0-.1 0 0 .4-.1.4-.1.4.2v.8c0 .1 0 .1-.1.1-.3 0-.3 0-.3-.3v-.8zm0-.9c.1-.1.1-.1.2-.1h.2s0 .1-.1.1c-.1.1-.2.1-.3 0 0 .1 0 .1 0 0zm0 2.4c0-.1 0-.1 0 0 0-.3 0-.3.1-.3h.1c.1 0 .2 0 .2.1v.1c0 .2 0 .2-.2.2s-.2 0-.2-.1zm.4 3c0 .1 0 .1-.1.1-.2 0-.2 0-.2-.2s0-.2.2-.2c.1 0 .2 0 .1.1v.2zm-.3-2.8c.3 0 .3 0 .3.3v2c0 .1 0 .1-.1.1-.2 0-.2 0-.2-.2v-1-1.1c-.1 0-.1-.1 0-.1zm-.1 3.4s0-.1 0 0c0-.3 0-.3.2-.3h.1s.1 0 .1.1v.2c-.1.1-.2 0-.4 0 0 .1 0 0 0 0zm.3-6.2h-.3v-.1-.2c0-.2 0-.2.1-.2h.1c.1 0 .2 0 .1.1v.1c0 .2.1.3 0 .3zm-.7 2.8v-5-.1h.2V31.4h-.2v-.1-3.5zm-.1-3.5c0 .1 0 .1-.1.1-.3 0-.3 0-.3-.3v-.7-.8c0-.1 0-.1.1-.1.3 0 .3 0 .3.3v1.5zm-.4 3.6c0-.1 0-.1.1-.1.3 0 .3 0 .3.3v2c0 .1 0 .1-.1.1-.3 0-.3 0-.3-.3v-2zm0-1.8c0-.1 0-.1 0 0 .4-.1.4-.1.4.2v.8c0 .1 0 .1-.1.1-.3 0-.3 0-.3-.3v-.8zm.4-.5c0 .3 0 .3-.2.3s-.2 0-.2-.2 0-.2.2-.2c.1-.1.2-.1.2.1zm0-.8c0 .2 0 .2-.2.2s-.2 0-.2-.2 0-.2.2-.2c.1 0 .2 0 .2.2zm-.3.4h.2s.1 0 .1.1 0 .1-.1.1h-.1-.1c-.1-.1-.1-.1 0-.2-.1 0-.1 0 0 0zm-.1 2.1h.3V27.6c0 .2 0 .2-.1.2h-.1-.1c-.1 0-.1 0-.1-.1v-.1c.1-.2 0-.3.1-.3zm.1 3.6c.3 0 .2 0 .3.2 0 .1 0 .1-.1.1h-.1c-.2 0-.2 0-.2-.1V31c0-.1 0-.1.1-.1zm.3-.4c0 .3 0 .3-.2.3s-.2 0-.2-.2 0-.2.2-.3c.1 0 .2.1.2.2zm-.8-.5v-3.1-4.2-.1h.2v8.5c0 .1-.1.2-.2.1-.1 0 0-.1 0-.1V30zm-.5-5.1v-.2h.3s.1 0 .1.1v.2c0 .2 0 .2-.1.2h-.1-.1c-.1-.2-.2-.2-.1-.3zm.4-.6c0 .1 0 .1-.1.1-.3 0-.3 0-.3-.3v-.6-.8c0-.1 0-.1.1-.1.3 0 .3 0 .3.3 0 .5-.1 1 0 1.4zm0 .9c0 .1-.1.1 0 0-.1.1-.2.1-.2.1h-.1s-.1 0-.1-.1c0 0 0-.1.1-.1 0 .1.1.1.3.1-.1 0 0 0 0 0zm-.4.5c0-.3 0-.3.3-.3.1 0 .1 0 .1.1v.1c0 .1 0 .2-.1.2h-.1c-.1 0-.1 0-.2-.1 0 .2 0 .1 0 0zm.2 4.5c-.3 0-.3 0-.3-.3V29v-1.1c0-.1 0-.1.1-.1.3 0 .3 0 .3.3v2c.1.1 0 .1-.1.1zm.2.4c0 .2 0 .2-.2.2s-.2 0-.2-.2 0-.2.2-.2c.2-.1.2-.1.2.2zm0-3.6c0 .1-.1.1 0 0-.4.1-.4.1-.4-.2v-.7c0-.1 0-.1.1-.1.3 0 .3 0 .3.3v.3c0 .1-.1.3 0 .4zm0 .4v.1c0 .2 0 .2-.2.2h-.1s-.1 0-.1-.1v-.1c0-.3 0-.3.3-.3 0 .1.1.1.1.2zm-.3 3.5c.3 0 .3 0 .3.3 0 .1 0 .1-.1.1h-.1c-.2 0-.2 0-.2-.2s0-.2.1-.2zm-.5-8.3h.2V31c0 .1-.1.2-.2.1V31v-.1-4.2-4.2c0 .2-.1.1 0 .1zm.1 9.1c-.1 0-.1 0-.1-.1 0-.2 0-.2.2-.2h23c.1 0 .1 0 .1.1 0 .2 0 .2-.2.2h-23zm-7-15.1c.1-.3.1-.3.4-.2.9 0 1.7.1 2.6.1h.1c-.1.1-.1.2-.2.3h-.1c-.2 0-.5 0-.7-.1-.1 0-.1 0-.1.1-.1.3-.3.6-.4.9v.1l.5.5s.1.1 0 .1c0 .1-.1.2-.1.3l-1.2-1.2-.8-.8v-.1zm-1.1 3.3c.2-.6.3-1.1.5-1.7 0-.1 0-.1.1-.1.2.1.2.1.2.3l-.3 1.2c0 .1 0 .1.1.1.2 0 .4.1.6.2.1 0 .1 0 .2-.1l.3-1.2c0-.1 0-.1.1-.1.2.1.2.1.1.3-.1.4-.2.8-.3 1.1 0 .1 0 .1.1.1.2.1.5.1.7.2.1 0 .1 0 .1-.1.1-.5.3-.9.4-1.4 0-.1.1-.1.1-.1h.1s.1 0 0 .1c-.1.3-.2.6-.3 1-.1.3-.2.6-.2.8 0 .1 0 .1-.1.1-.8-.2-1.6-.5-2.4-.7-.1.1-.1.1-.1 0zm-.5 2.4l.3-1.8c0-.1.1-.1.1-.1.2 0 .2 0 .2.2s-.1.4-.1.6c0 .1 0 .1.1.1.4.1.8.2 1.3.2.3.1.6.1.9.2.1 0 .1 0 .1.1v.2s0 .1-.1.1c-.4-.1-.8-.2-1.2-.2-.3-.1-.7-.1-1-.2-.1 0-.1 0-.1.1 0 .2-.1.5-.1.7 0 .1 0 .1-.1.1-.3-.1-.3-.1-.3-.3zm.2 1.3l2.4-.9c.1 0 .1 0 .1.1 0 .3 0 .3-.3.4-.2.1-.3.1-.5.2-.1 0-.1 0-.1.1v.9c0 .1 0 .1.1.1l.6.3c.1 0 .1.1.1.1v.3c-.5-.2-1-.4-1.4-.6-.4-.2-.7-.3-1.1-.5-.1 0-.1-.1-.1-.1-.1-.3-.1-.3.2-.4zm-.2 3.4c0-.6-.1-1.2-.1-1.8 0-.1 0-.1.1-.1.2 0 .2 0 .2.2v.6c0 .1 0 .1.1.1.7-.1 1.4-.1 2.1-.2.1 0 .1 0 .1.1v.1c0 .1 0 .1-.1.1-.6 0-1.2.1-1.8.1h-.2c-.1 0-.1.1-.1.2v.6c0 .1 0 .1-.1.1-.2.1-.2.1-.2-.1zm.1.8c0-.3 0-.3.2-.3.7-.1 1.4-.2 2-.3h.3s.1 0 .1.1c0 .3 0 .3-.3.3-.6.1-1.2.1-1.8.2-.1 0-.3 0-.4.1-.1 0-.1-.1-.1-.1zm.6 2.3c-.3-.3-.4-.7-.3-1.2.1-.3.2-.4.5-.5h.1v.1c.1.1.1.2-.1.3-.2.1-.2.2-.2.4s0 .4.2.6c.1.1.2.2.4.2.1 0 .2-.1.3-.3v-.9c0-.5.4-.8.8-.7.3 0 .5.2.6.4.1.2.2.5.2.7 0 .5-.2.8-.6 1-.1 0-.1 0-.1-.1s-.1-.1-.1-.2.1-.1.2-.1c.2-.1.2-.3.3-.4 0-.3 0-.5-.2-.8-.1-.1-.3-.2-.4-.2-.2 0-.3.2-.3.3v1.1c-.1.2-.2.4-.5.5-.4.1-.7 0-.8-.2zm1 3.1s-.1.1-.1 0c-.2-.4-.4-.9-.5-1.3-.1-.5.1-.9.6-.9.3 0 .5.1.7.3l.1.1c.1-.5.5-.9.8-1.3.1.1.1.3.2.4v.1c-.2.3-.4.5-.6.8-.1.2-.2.4-.1.7 0 .1.1.2.1.3 0 .1.1.1.1.1.3-.1.6-.2.9-.4.1 0 .1 0 .1.1.1.2.1.2-.1.3-.7.2-1.4.5-2.2.7zm1.2 2.4l-.9-1.5V34c.2-.1.2-.1.3.1.2.4.4.7.6 1.1 0 .1.1.1.1 0l.6-.3c.1 0 .1-.1 0-.1-.2-.4-.4-.7-.6-1.1v-.2c.2-.1.2-.1.3.1.2.3.4.7.6 1 0 .1.1.1.1 0 .2-.1.4-.2.7-.4h.1v-.1c-.2-.4-.5-.8-.7-1.2v-.2c.2-.1.2-.1.3.1.3.5.5 1 .8 1.5v.1c-.7.4-1.5.8-2.2 1.2h-.1zm1.9 2.4c0 .1 0 .1 0 0-.1 0-.2-.1-.3-.2v-.1c.4-.7.8-1.3 1.3-2v-.1c-.4.1-.8.3-1.2.4-.3.1-.7.2-1 .3h-.2c0-.1-.1-.1-.2-.2.4-.1.8-.2 1.2-.4.5-.1 1-.3 1.5-.4h.2c.2.2.2.2 0 .4-.5.9-.9 1.6-1.3 2.3zm.3.5c-.2-.2-.2-.2 0-.4l1.8-1.5s.1-.1.1 0 .1.1.1.2v.1l-.1.1c-.6.5-1.3 1.1-1.9 1.6.1 0 .1 0 0-.1zm2.1 2.1c-.1-.1-.2-.2-.1-.4.1-.7.3-1.4.4-2.1v-.2c-.3.3-.6.6-.9 1l-.5.5h-.1c-.2-.2-.2-.2 0-.4.5-.6 1.1-1.1 1.6-1.7.1-.1.1-.1.2 0 .2.1.2.3.1.4-.1.7-.3 1.4-.4 2.2 0 0 .1 0 .1-.1l1.3-1.3c.1-.1.1-.1.2 0 .2.2.2.2 0 .3-.5.6-1.1 1.1-1.6 1.7l-.3.1zm3.4.4c-.3.4-.6.9-.9 1.3 0 .1-.1.1-.1 0-.2-.2-.2-.2-.1-.4.3-.4.5-.7.8-1.1 0 0 0-.1.1-.1.3-.5 0-1.1-.6-1.1-.1 0-.2 0-.3.1-.2.1-.3.3-.4.4-.3.4-.5.7-.8 1.1 0 .1-.1.1-.1 0-.2-.2-.2-.1-.1-.4l.9-1.2c.2-.2.4-.4.6-.4h.4c.3.1.6.3.8.7.1.1.1.2.1.3 0 .4-.1.6-.3.8zm6.9 1.2c-.1.6-.2 1.3-.4 1.9-.1.3-.1.5-.2.8 0 .1 0 .1-.1.1-.2 0-.4-.1-.6-.1-.1 0-.1 0-.1-.1.1-.5.2-1.1.3-1.6v-.1c-.2.1-.4.2-.6.2-.3.1-.3.1-.3-.2 0-.3.1-.4.4-.4.3 0 .5-.2.7-.4 0 0 .1-.1.1 0 .2 0 .3.1.5.1.3-.3.4-.3.3-.2zm-.8-2.5h-1c-.6-.1-1-.5-1.1-1.1v-.5-2c0-.1 0-.1.1-.1h.8c.1 0 .1 0 .1.1v2.4c.1.3.4.5.7.5.4 0 .7-.3.7-.7v-1.1-1.1c0-.1 0-.1.1-.1h.8c.1 0 .1 0 .1.1v2.3c0 .6-.5 1.2-1.3 1.3zm3.5 4.5c.1.5-.2.9-.7 1-.3.1-.7 0-1-.1-.5-.2-.7-.7-.5-1.2.1-.2.2-.2.4-.4-.2-.2-.4-.4-.3-.7.1-.3.3-.5.6-.6.4-.1.7 0 1.1.1.4.2.5.7.2 1.1-.1.1-.2.1-.2.2.2.2.3.4.4.6zm0-6c-.1 0-.1 0-.1.1v1.2c0 .1 0 .1-.1.1h-.8c-.1 0-.1 0-.1-.1v-1.8V36c0-.1 0-.1.1-.1h1.9c.8 0 1.1.6 1 1.3-.1.6-.5 1-1.1 1h-.8zm1.9 6.9h-.6c-.1 0-.1 0-.1-.1 0-.5-.1-1.1-.1-1.6v-.1c-.2.2-.5.4-.8.5 0-.2 0-.4-.1-.6 0-.1 0-.1.1-.1.3-.1.5-.3.7-.5 0 0 .1-.1.1-.2s.1-.2.2-.2h.4c.1 0 .1 0 .1.1 0 .4.1.8.1 1.2 0 .5.1 1 .1 1.5 0 .1 0 .1-.1.1zm2.8-.5c-.2.1-.4.2-.6.2-.2 0-.5.1-.8 0-.5-.2-.8-.9-.4-1.2l.2-.2c-.2-.1-.4-.2-.5-.5-.1-.3 0-.6.3-.8.4-.2.8-.3 1.2-.2.6.1.7.7.4 1.1v.1h.1c.3.1.5.3.5.6-.1.5-.2.8-.4.9zm1-5.2c-.2.1-.4.2-.6.2-.3 0-.5.1-.8.1h-1.5c-.1 0-.1 0-.1-.1v-3.5c0-.1 0-.1.1-.1h2.3c.4 0 .7.3.8.6.2.5 0 .9-.5 1.1-.1 0-.2.1-.3.1.1 0 .2.1.3.1.3.1.6.3.6.7.1.2 0 .5-.3.8zm6.4 1.8c-.2.1-.2.1-.3 0-.4-.6-.9-1.2-1.3-1.8-.1-.1-.1-.1 0-.2.2-.1.2-.1.3.1.4.6.9 1.2 1.3 1.8v.1c0-.1 0 0 0 0zm1.9-1.6c-.5.4-.9.8-1.4 1.2h-.1c-.2-.2-.2-.2 0-.3.1-.1.3-.2.4-.3.1-.1.1-.1 0-.1-.4-.5-.9-1-1.3-1.5-.1-.1-.1-.1 0-.2.2-.1.2-.1.3 0 .4.5.8 1 1.3 1.4 0 .1.1.1.1 0 .2-.1.3-.3.5-.4.1 0 .1-.1.1 0 .1 0 .1.1.1.2.1-.1.1 0 0 0zm1.5-1.8c-.1.5-.5.9-.9 1-.2 0-.3 0-.5-.1 0 0-.1-.1 0-.1.1-.1.1-.1.3-.1h.4c.2-.1.3-.3.4-.5.1-.2 0-.3-.1-.4-.1-.1-.2-.1-.4 0s-.4.3-.5.4c-.1.1-.2.1-.3.2-.5.2-.9-.2-.9-.6 0-.2.1-.4.2-.6 0 0 .1-.1 0-.1 0-.1-.1 0-.1 0-.1.1-.2.1-.3 0-.1-.1-.1-.2-.1-.3 0-.2.2-.3.3-.4.1-.1.1 0 .1 0s.1.1 0 .1l-.2.2v.2c.1.1.1 0 .2 0 .1-.1.1-.1.2 0 0 .1.1 0 .1 0 .3-.3.7-.3 1-.1.1.1.1.1 0 .2s-.1.2-.3.1c-.1-.1-.3-.1-.4 0-.3.1-.5.3-.5.6 0 .2 0 .3.1.4.1.1.3.1.4 0 .2-.1.4-.3.6-.4.1-.1.2-.1.4-.2.4-.3.9 0 .8.5zm1.7-2c-.3.4-.6.9-.9 1.3 0 .1-.1.1-.1 0-.2-.1-.2-.1-.1-.3.2-.3.5-.7.7-1 .1-.1 0-.1 0-.2-.2-.1-.3-.2-.5-.3h-.1l-.1.1c-.2.3-.5.6-.7 1-.1.1-.1.1-.2 0h-.1c-.1 0-.1-.1 0-.1.2-.3.5-.6.7-1 .1-.1 0-.1 0-.2-.2-.1-.3-.2-.5-.4-.1-.1-.1-.1-.2 0-.2.4-.5.7-.8 1.1-.1.1-.1.1-.2 0 0 0-.1 0-.1-.1-.1 0 0-.1 0-.1.3-.5.7-1 1-1.4 0-.1.1 0 .1 0 .6.5 1.3.9 1.9 1.4.2.1.2.1.2.2zm1.3-2.5l-.6 1.2c-.3.5-.9.4-1.2-.1-.1-.2-.1-.3 0-.5v-.1c-.3.2-.6.2-.9.2h-.5c.1-.1.1-.2.2-.3 0-.1.1 0 .1 0 .3 0 .6 0 1-.1.2 0 .3-.1.4-.3 0-.1.1-.2.2-.3v-.1c-.3-.1-.6-.3-.8-.4-.1 0-.1-.1 0-.1.1-.2.1-.2.3-.1.7.3 1.3.7 2 1-.1-.1-.1-.1-.2 0zm1-2.7c-.1.2-.1.2-.3.1-.5-.1-.9-.3-1.4-.4-.4-.1-.7 0-.8.5v.1c0 .2 0 .4.2.5.2.1.4.2.6.2.4.1.7.2 1.1.3.1 0 .1 0 .1.1-.1.2-.1.2-.3.2-.5-.2-1-.3-1.4-.5-.5-.2-.7-.6-.5-1.1 0-.2.1-.3.2-.5.2-.2.4-.3.7-.3.2 0 .4.1.5.1.4.1.8.3 1.3.4 0 .2.1.2 0 .3zm-.2-1c-.3.1-.3.1-.3-.2 0-.1 0-.1.1-.1.3-.1.5-.2.5-.5.1-.3 0-.6-.3-.8-.4-.3-.8-.3-1.2-.2-.3.1-.5.3-.5.7 0 .3.1.6.4.7.1 0 .1.1.1.2-.1.2-.1.2-.3.1-.4-.2-.5-.6-.4-1 .1-.4.2-.8.6-.9.2-.1.4-.1.6-.1.4 0 .8.1 1.1.5.5.3.4 1.3-.4 1.6zm.8-4.3c-.4 0-.8-.1-1.2-.1h-.2c-.6 0-.9.5-.6 1 .1.2.3.3.5.3.5 0 1 .1 1.5.1.1 0 .1 0 .1.1 0 .2 0 .2-.2.2-.5 0-1-.1-1.5-.1-.7-.1-.9-.5-.8-1.1 0-.1 0-.3.1-.4.1-.3.4-.4.7-.5h.3c.5 0 1 .1 1.5.1.1 0 .1 0 .1.1 0 .3 0 .3-.3.3z"/><path class="est0" d="M192.6 10.7c.2.1.3.3.5.4.1-.3.3-.6.4-.9-.3.2-.6.3-.9.5zM167.4 10c-.2 0-.3.2-.4.3v.1c.1.1.2.2.3.4h.1l.3-.3c.1-.3-.1-.5-.3-.5zM170.3 8.2c-.2-.1-.4-.1-.6 0-.2.1-.3.3-.2.6.1.3.2.5.4.7.1.1.2.1.3.1.3 0 .6-.3.6-.6-.1-.3-.2-.6-.5-.8zM184.8 38h-.8c-.1 0-.1 0-.1.1v.8s0 .1.1.1h.8c.2 0 .4-.2.4-.4.2-.4 0-.6-.4-.6zM181.2 37c0-.2-.1-.4-.4-.4h-.6c-.1 0-.1 0-.1.1v.8s0 .1.1.1h.7c.2-.2.3-.4.3-.6zM184 37v.4c0 .1 0 .1.1.1h.7c.3 0 .4-.2.4-.4s-.2-.4-.4-.4h-.7c-.1 0-.1 0-.1.1v.2z"/></g></symbol><symbol viewBox="0 0 50 50" id="globe"><path d="M21.6 42.1c-.4 0-.7-.3-.7-.7v-3.5c0-.4.3-.7.7-.7s.7.3.7.7v3.5c0 .3-.3.7-.7.7zM24.3 42.1c-.4 0-.7-.3-.7-.7v-3.5c0-.4.3-.7.7-.7s.7.3.7.7v3.5c0 .3-.3.7-.7.7z"/><path d="M33.2 45.4H12.8c-.3 0-.6-.2-.6-.5-.1-.3 0-.6.2-.8 3.1-2.3 6.7-3.5 10.6-3.5 3.9 0 7.5 1.2 10.6 3.5.2.2.3.5.2.8-.1.3-.3.5-.6.5zM15.1 44h15.8c-2.4-1.3-5.1-2-7.9-2-2.8 0-5.5.7-7.9 2zM23 33.2c-7.5 0-13.6-6.1-13.6-13.6S15.5 6 23 6s13.6 6.1 13.6 13.6S30.5 33.2 23 33.2zm0-25.9c-6.7 0-12.2 5.5-12.2 12.2 0 6.7 5.5 12.2 12.2 12.2 6.7 0 12.2-5.5 12.2-12.2 0-6.7-5.5-12.2-12.2-12.2z"/><path d="M23 38.6c-4.9 0-9.8-1.9-13.5-5.6-.3-.3-.3-.7 0-1 .3-.3.7-.3 1 0 6.9 6.9 18.1 6.9 25 0 6.9-6.9 6.9-18.1 0-25-.3-.3-.3-.7 0-1 .3-.3.7-.3 1 0 7.4 7.4 7.4 19.5 0 26.9-3.8 3.8-8.6 5.7-13.5 5.7z"/><path d="M8.7 34.5c-.2 0-.3-.1-.5-.2-.3-.3-.3-.7 0-1l2.7-2.7c.3-.3.7-.3 1 0 .3.3.3.7 0 1l-2.7 2.7c-.1.2-.3.2-.5.2zM34.5 8.7c-.2 0-.3-.1-.5-.2-.3-.3-.3-.7 0-1l2.7-2.7c.3-.3.7-.3 1 0 .3.3.3.7 0 1L35 8.5c-.1.1-.3.2-.5.2z"/></symbol><symbol id="linkedin" viewBox="0 0 50 50"><style>.gst0{fill:none;stroke:#000;stroke-width:1.7214;stroke-miterlimit:10}</style><path class="gst0" d="M5.1 45.7h7.8V14.5H5.1v31.2zm31.2-31.2c-6.7.1-10 5-10.4 5.2v-5.2h-7.8v31.2h7.8V27.5c0-.7 1.6-6 7.8-5.2 3.3.2 5.1 4.6 5.2 5.2v18.2h7.8V24.1c-.3-3.1-1.9-9.5-10.4-9.6zM9 4.1C6.8 4.1 5.1 5.8 5.1 8s1.7 3.9 3.9 3.9 3.9-1.7 3.9-3.9S11.1 4.1 9 4.1z"/></symbol><symbol viewBox="0 0 44.1 29.2" id="mail"><title>mail</title><path d="M40.6 29.2H3.5c-1.9 0-3.4-1.5-3.5-3.4V3.5C.1 1.6 1.6.1 3.5 0h37.2c1.9.1 3.4 1.6 3.5 3.5v22.3c-.2 1.9-1.7 3.4-3.6 3.4zM3.5 1C2.1 1.1 1.1 2.1 1 3.5v22.3c.1 1.3 1.1 2.4 2.5 2.4h37.2c1.3 0 2.4-1.1 2.5-2.4V3.5C43 2.1 42 1.1 40.6 1H3.5z"/><path d="M22 18.8c-.1 0-.2 0-.3-.1L6.2 8.3c-.2-.1-.3-.4-.1-.7.2-.2.4-.2.6-.1L22 17.7 37.4 7.5c.2-.2.5-.1.7.1.2.2.1.5-.1.7 0 0-.1 0-.1.1L22.3 18.7c-.1.1-.2.1-.3.1zM6.4 22.5c-.3 0-.5-.2-.5-.5 0-.2.1-.3.2-.4l6.7-4.5c.2-.2.5-.1.7.1.2.2.1.5-.1.7 0 0-.1 0-.1.1l-6.7 4.5h-.2zM37.7 22.5c-.1 0-.2 0-.3-.1L30.7 18c-.2-.1-.3-.4-.2-.7.1-.2.4-.3.7-.2 0 0 .1 0 .1.1l6.7 4.5c.2.1.3.5.1.7-.1.1-.3.2-.4.1z"/></symbol><symbol id="menu" viewBox="0 0 40 36.96"><defs><style>.icls-1{fill:none}</style></defs><title>menu</title><path d="M0 .8h40v1.6H0zM0 12h40v1.6H0zM0 23.2h40v1.6H0zM0 34.4h40V36H0z"/><path class="icls-1" d="M0 0h39.84v36.96H0z"/></symbol><symbol viewBox="0 0 26.94 45.44" id="phone"><title>phone</title><path d="M22.72 45.44H4.22A4.23 4.23 0 0 1 0 41.22v-37A4.23 4.23 0 0 1 4.22 0h18.5a4.23 4.23 0 0 1 4.22 4.23v37a4.23 4.23 0 0 1-4.22 4.21zM4.22.78A3.49 3.49 0 0 0 .74 4.26v37a3.49 3.49 0 0 0 3.48 3.49h18.5a3.49 3.49 0 0 0 3.49-3.49v-37A3.49 3.49 0 0 0 22.72.78z"/><path d="M26.57 8.45H.37a.37.37 0 0 1 0-.74h26.2a.37.37 0 0 1 0 .74zM26.57 37.78H.37a.37.37 0 1 1 0-.74h26.2a.37.37 0 0 1 0 .74zM18.86 5.37H8.07a.37.37 0 0 1 0-.74h10.79a.37.37 0 0 1 0 .74zM13.47 43.13a1.91 1.91 0 1 1 1.91-1.91 1.91 1.91 0 0 1-1.91 1.91zm0-3.08a1.17 1.17 0 1 0 1.17 1.17 1.17 1.17 0 0 0-1.17-1.18z"/></symbol><symbol id="place" viewBox="0 0 50 50"><style>.kst0{fill:#010101}</style><path class="kst0" d="M26 46.9c-.2 0-.4-.1-.6-.3-.6-.8-14.8-20-14.8-28.2 0-8.5 6.9-15.3 15.3-15.3 8.5 0 15.3 6.9 15.3 15.3 0 8.2-14.2 27.4-14.8 28.2.1.2-.1.3-.4.3zm0-42.4c-7.7 0-13.9 6.2-13.9 13.9 0 6.8 11.2 22.8 13.9 26.5 2.7-3.8 13.9-19.7 13.9-26.5 0-7.7-6.2-13.9-13.9-13.9z"/><path class="kst0" d="M26 25c-3.6 0-6.6-3-6.6-6.6s3-6.6 6.6-6.6c3.6 0 6.6 3 6.6 6.6S29.6 25 26 25zm0-11.7c-2.8 0-5.1 2.3-5.1 5.1s2.3 5.1 5.1 5.1 5.1-2.3 5.1-5.1-2.3-5.1-5.1-5.1z"/></symbol><symbol viewBox="0 0 46.35 38.66" id="radio"><title>radio</title><path d="M7.91.21a27.07 27.07 0 0 0 0 38.25.707.707 0 1 0 1-1 25.66 25.66 0 0 1 0-36.25.707.707 0 1 0-1-1zm0 0"/><path d="M12.05 34.32a.7.7 0 0 0 1 0 .7.7 0 0 0 .21-.5.69.69 0 0 0-.21-.49 19.81 19.81 0 0 1 0-28 .707.707 0 0 0-1-1 21.22 21.22 0 0 0 0 30zm0 0"/><path d="M11.7 19.33a15.24 15.24 0 0 0 4.49 10.85.707.707 0 0 0 1-1 13.95 13.95 0 0 1 0-19.7.707.707 0 1 0-1-1 15.23 15.23 0 0 0-4.49 10.84zm0 0M38.44 38.47a27.07 27.07 0 0 0 0-38.25.707.707 0 0 0-1 1 25.66 25.66 0 0 1 .01 36.25.707.707 0 0 0 1 1zm0 0"/><path d="M34.31 4.35a.7.7 0 0 0-1 0 .7.7 0 0 0-.21.5.69.69 0 0 0 .21.49 19.81 19.81 0 0 1 0 28 .707.707 0 0 0 1 1 21.22 21.22 0 0 0 0-30zm0 0"/><path d="M34.65 19.34a15.24 15.24 0 0 0-4.48-10.87.707.707 0 0 0-1 1 13.95 13.95 0 0 1 0 19.7.707.707 0 0 0 1 1 15.23 15.23 0 0 0 4.48-10.83zm0 0M18.8 19.33a4.61 4.61 0 1 0 4.61-4.61 4.62 4.62 0 0 0-4.61 4.61zm7.82 0a3.2 3.2 0 1 1-3.2-3.2 3.21 3.21 0 0 1 3.2 3.2zm0 0"/></symbol><symbol viewBox="0 0 41.45 39.38" id="remote"><title>remote</title><path d="M38.73 28.52h-2.1a.685.685 0 0 1 0-1.37h2.1a1.37 1.37 0 0 0 1.39-1.35V2.69a1.37 1.37 0 0 0-1.39-1.32h-36a1.37 1.37 0 0 0-1.36 1.32V25.8a1.37 1.37 0 0 0 1.36 1.35h11.78a.685.685 0 1 1 0 1.37H2.73A2.74 2.74 0 0 1-.03 25.8V2.69A2.74 2.74 0 0 1 2.73 0h36a2.74 2.74 0 0 1 2.73 2.69V25.8a2.74 2.74 0 0 1-2.73 2.72z"/><path d="M38.73 25.81h-2.1a.685.685 0 0 1 0-1.37h.7V4.08H4.14v20.36h10.37a.685.685 0 1 1 0 1.37H2.73V2.69h36z"/><path d="M31.78 39.38H19.35v-19h12.43zm-11.05-1.37h9.69V21.69h-9.69z"/><path d="M22.8 26.48a1.36 1.36 0 1 1 1.38-1.36 1.37 1.37 0 0 1-1.38 1.36zm0-1.36z"/><path d="M25.57 26.48a1.36 1.36 0 1 1 1.38-1.36 1.37 1.37 0 0 1-1.38 1.36zm0-1.36zM22.8 30.56a1.36 1.36 0 1 1 1.38-1.36 1.37 1.37 0 0 1-1.38 1.36zm0-1.36z"/><path d="M25.57 30.56a1.36 1.36 0 1 1 1.38-1.36 1.37 1.37 0 0 1-1.38 1.36zm0-1.36zM22.8 34.63a1.36 1.36 0 1 1 1.38-1.36 1.37 1.37 0 0 1-1.38 1.36zm0-1.36z"/><path d="M25.57 34.63a1.36 1.36 0 1 1 1.38-1.36 1.37 1.37 0 0 1-1.38 1.36zm0-1.36zM28.33 26.48a1.36 1.36 0 1 1 1.4-1.36 1.37 1.37 0 0 1-1.4 1.36zm0-1.36zM28.33 30.56a1.36 1.36 0 1 1 1.4-1.37 1.37 1.37 0 0 1-1.4 1.37zm0-1.36z"/><path d="M28.33 34.63a1.36 1.36 0 1 1 1.4-1.36 1.37 1.37 0 0 1-1.4 1.36zm0-1.36zM29.82 14.87a.68.68 0 0 1-.38-.11 7.08 7.08 0 0 0-7.75 0 .685.685 0 1 1-.76-1.14 8.46 8.46 0 0 1 9.27 0 .68.68 0 0 1-.38 1.26zM31.91 11.49a.68.68 0 0 1-.39-.12 10.54 10.54 0 0 0-11.91 0 .687.687 0 1 1-.78-1.13 11.91 11.91 0 0 1 13.47 0 .69.69 0 0 1-.39 1.25zM27.73 18.26a.68.68 0 0 1-.35-.1 3.5 3.5 0 0 0-3.6 0 .686.686 0 0 1-.7-1.18 4.87 4.87 0 0 1 5 0 .69.69 0 0 1-.35 1.28z"/></symbol><symbol viewBox="0 0 44.77 34.32" id="window"><title>window</title><path d="M40.3 34.32H4.48A4.48 4.48 0 0 1 0 29.84V4.48A4.48 4.48 0 0 1 4.48 0H40.3a4.48 4.48 0 0 1 4.48 4.48v25.37a4.48 4.48 0 0 1-4.48 4.47zM4.48 1.49a3 3 0 0 0-3 3v25.36a3 3 0 0 0 3 3H40.3a3 3 0 0 0 3-3V4.48a3 3 0 0 0-3-3z"/><path d="M44.03 8.95H.75a.75.75 0 0 1 0-1.49h43.28a.75.75 0 0 1 0 1.49zM5.97 5.97a1.49 1.49 0 1 1 1.49-1.49 1.49 1.49 0 0 1-1.49 1.49zm0-1.49zM10.45 5.97a1.49 1.49 0 1 1 1.49-1.49 1.49 1.49 0 0 1-1.49 1.49zm0-1.49zM14.93 5.97a1.49 1.49 0 1 1 1.49-1.49 1.49 1.49 0 0 1-1.49 1.49zm0-1.49z"/></symbol></svg>