<?xml version="1.0" encoding="utf-8"?><svg xmlns="http://www.w3.org/2000/svg" xmlns:xlink="http://www.w3.org/1999/xlink"><symbol viewBox="0 0 50 50" id="arrow_down"><path d="M25 40.1c-.8 0-1.6-.4-2.2-1L1.4 14.7c-1.1-1.2-.9-3 .3-4.1 1.2-1.1 3-.9 4.1.3L25 32.8l19.2-21.9c1.1-1.2 2.9-1.3 4.1-.3 1.2 1.1 1.3 2.9.3 4.1L27.2 39.1c-.6.7-1.4 1-2.2 1z"/></symbol><symbol viewBox="0 0 46 48.6" id="badge_white"><title>badge_white</title><path d="M23.9 3.4c.1-1.1-.1-2.1-.6-3-.2-.4-.7-.5-1-.3s-.5.7-.3 1c.4.7.6 1.5.4 2.3-2 0-4 .8-5.6 2.1-.7.7-1.1 1.6-1.1 2.6 0 .8.3 1.6.8 2.2l.1.1c0 4.3 2.3 7.9 5.3 8.6-.1.6.4 1.1.9 1.1.6.1 1.1-.4 1.1-.9V19c1-.2 1.9-.8 2.7-1.5.3-.3.6-.6.9-1 1.2-1.8 1.8-3.9 1.8-6l.1-.1c.5-.6.8-1.4.8-2.2.1-2.5-2.7-4.5-6.3-4.8zm4 6.8c0 1.9-.5 3.7-1.5 5.3-.7 1.2-2 2-3.4 2.1-2.7 0-4.9-3.3-4.9-7.4v-.1c1.6-.5 3.2-.8 4.9-.8 1.7.1 3.3.3 4.9.9 0-.1 0 0 0 0zm1-2.2c0 .3-.1.6-.2.8-1.8-.6-3.7-.9-5.6-.9-1.9 0-3.8.3-5.6.9-.1-.3-.2-.5-.2-.8 0-.6.3-1.1.7-1.5 1.4-1.2 3.2-1.8 5.1-1.7 3.1 0 5.7 1.5 5.8 3.2zM16.7 24.8c1.1.1 2.1-.2 3-.8.3-.2.4-.7.2-1-.2-.3-.7-.4-1-.2-.7.4-1.5.6-2.3.5-.1-2-.9-4-2.3-5.5-.7-.7-1.6-1.1-2.6-1-.8 0-1.5.4-2.1.9l-.1.1c-4.3.2-7.8 2.6-8.4 5.6-.6 0-1.1.4-1.1 1s.4 1.1 1 1.1h.2c.3 1 .9 1.9 1.6 2.6.3.3.7.6 1.1.8 1.9 1.1 4 1.7 6.2 1.5l.1.1c.6.5 1.4.7 2.2.7 2.4 0 4.2-2.8 4.3-6.4zM10 29c-1.9.1-3.8-.3-5.4-1.3-1.2-.7-2.1-1.9-2.2-3.3-.1-2.7 3.1-5 7.2-5.2h.1c.6 1.6.9 3.2.9 4.9.2 1.7 0 3.3-.6 4.9zm2.3.9c-.3 0-.6-.1-.8-.2.6-1.8.8-3.7.7-5.6 0-1.9-.4-3.8-1.1-5.6.3-.1.5-.2.8-.2.6 0 1.1.3 1.6.7 1.2 1.4 1.9 3.2 1.9 5 0 3.1-1.4 5.8-3.1 5.9zM29.3 24.8c.1 3.6 2 6.4 4.4 6.5.8 0 1.6-.2 2.2-.7l.1-.1c2.1.1 4.3-.4 6.1-1.5.4-.2.7-.5 1.1-.8.8-.7 1.3-1.6 1.6-2.6.6.1 1.1-.3 1.2-.9.1-.6-.3-1.1-.9-1.2h-.2c-.6-3-4.1-5.4-8.4-5.6l-.1-.1c-.6-.5-1.3-.8-2.1-.9-1 0-1.9.4-2.6 1a8.51 8.51 0 0 0-2.3 5.4c-.8.1-1.6-.1-2.3-.5-.3-.2-.8-.1-1 .2-.2.3-.1.8.2 1 .9.6 2 .8 3 .8zM36 29c-.6-1.6-.7-3.3-.7-4.9 0-1.7.4-3.3.9-4.9h.1c4.1.2 7.3 2.5 7.2 5.2-.1 1.4-1 2.6-2.2 3.3-1.5 1-3.4 1.5-5.3 1.3zm-2.2.9c-1.8-.1-3.1-2.8-3-5.9 0-1.8.7-3.6 1.9-5 .4-.4 1-.7 1.6-.7.3 0 .6.1.8.2-.7 1.8-1.1 3.7-1.1 5.6-.1 1.9.1 3.8.7 5.6-.4.1-.6.2-.9.2zM19.2 34.5c.7-.8 1-1.9 1-3 0-.4-.3-.7-.7-.7-.4 0-.7.3-.7.7 0 .8-.2 1.6-.8 2.2-1.8-1-3.9-1.4-5.9-1-.9.2-1.8.8-2.3 1.6-.4.7-.5 1.5-.4 2.3v.2c-2.1 3.8-1.9 8 .3 10.1-.3.5-.1 1.2.3 1.5.5.2 1.2 0 1.5-.5 1 .3 2.1.3 3.1 0 .4-.1.9-.3 1.3-.5 1.9-1 3.5-2.5 4.6-4.4l.2-.1c.7-.3 1.4-.8 1.8-1.5 1.2-1.9-.2-5-3.3-6.9zm.1 7.9c-.9 1.7-2.3 3-4 3.8-1.2.7-2.7.7-4 .1-2.4-1.3-2.6-5.3-.6-8.8v-.1c1.6.3 3.2.9 4.6 1.8 1.6.8 2.9 1.8 4 3.2zm1.9-1.5c-.1.2-.4.5-.6.6-1.3-1.4-2.7-2.6-4.4-3.6-1.6-1-3.4-1.6-5.3-2 0-.3.1-.6.2-.8.3-.5.8-.9 1.4-1 1.8-.3 3.7.1 5.3 1.1 2.7 1.6 4.3 4.2 3.4 5.7zM27.7 33.4c-3.2 1.7-5 4.5-4 6.8.3.7.9 1.3 1.6 1.7l.1.1c.8 2 2.2 3.7 4 4.9l1.2.6c1 .4 2 .5 3 .4.2.6.8.8 1.3.7.6-.2.8-.8.7-1.3 0-.1 0-.1-.1-.2 2.5-1.8 3.2-6 1.5-10v-.2c.2-.8.2-1.6-.1-2.3-.4-.9-1.1-1.5-2-1.9-2-.6-4.1-.6-6 .3-.4-.7-.6-1.5-.5-2.3.1-.4-.2-.8-.6-.8-.4-.1-.8.2-.8.6-.1.9.1 2 .7 2.9zm-1 7.9c2.5-2.3 5.7-3.6 9-3.9v.1c1.6 3.7.9 7.7-1.6 8.7-1.3.5-2.8.3-3.9-.6-1.6-1.1-2.8-2.6-3.5-4.3zM25 39.6c-.7-1.6 1.2-4 4.1-5.3 1.7-.8 3.6-1 5.3-.4.6.2 1 .6 1.3 1.1.1.3.2.6.1.8-3.8.3-7.4 1.8-10.3 4.4-.2-.1-.4-.3-.5-.6z"/></symbol><symbol viewBox="0 0 46.61 46.61" id="box"><title>box</title><path d="M42.59 40.18a.8.8 0 0 1-.8-.8V7.23a.805.805 0 0 1 1.61 0v32.14a.8.8 0 0 1-.81.81zM39.38 4.82H7.24a.805.805 0 0 1 0-1.61h32.14a.805.805 0 1 1 0 1.61zM4.02 40.18a.8.8 0 0 1-.8-.8V7.23a.8.8 0 1 1 1.56 0v32.14a.8.8 0 0 1-.76.81zM39.38 43.39H7.24a.805.805 0 0 1 0-1.61h32.14a.805.805 0 0 1 0 1.61z"/><path d="M8.04 8.04h-8v-8h8zM1.61 6.43h4.82V1.61H1.61zM46.61 8.04h-8v-8h8zm-6.43-1.61H45V1.61h-4.82zM8.04 46.61h-8v-8h8zM1.61 45h4.82v-4.82H1.61zM46.61 46.61h-8v-8h8zM40.18 45H45v-4.82h-4.82z"/></symbol><symbol viewBox="0 0 50 50" id="crown"><path d="M43.3 48.4H6.7c-2.6 0-4-2.1-4-4.2s1.4-4.2 4-4.2h36.6c2.6 0 4 2.1 4 4.2s-1.4 4.2-4 4.2zM6.7 41.7c-1.8 0-2.2 1.5-2.2 2.4 0 .9.5 2.5 2.2 2.5h36.6c1.8 0 2.2-1.5 2.2-2.5s-.5-2.4-2.2-2.4H6.7zM37.7 35.2l-1.7-.6c.5-1.3.7-2.6.7-4 0-6.4-5.1-11.5-11.7-11.5s-11.7 5-11.7 11.5c0 1.3.2 2.6.7 3.9l-1.7.6c-.5-1.4-.8-2.9-.8-4.5 0-7.4 5.9-13.2 13.5-13.2s13.5 5.8 13.5 13.2c0 1.6-.3 3.2-.8 4.6zM25 13.4c-3.2 0-5.9-2.6-5.9-5.9s2.6-5.9 5.9-5.9 5.9 2.6 5.9 5.9-2.7 5.9-5.9 5.9zm0-10c-2.3 0-4.1 1.8-4.1 4.1s1.8 4.1 4.1 4.1 4.1-1.8 4.1-4.1-1.8-4.1-4.1-4.1z"/><path d="M20 6.6h10v1.8H20zM24.1 12.5h1.8v5.8h-1.8z"/><path d="M42.7 41.7H7.2l-.2-.2C3 38.8.8 35 .8 30.8c0-7.7 5.3-13.4 12.5-13.4 2.5 0 4.5.9 5.9 1.6l-.8 1.6c-1.9-1-3.5-1.4-5.1-1.4-6.2 0-10.8 4.9-10.8 11.6 0 4.4 2.8 7.4 5.2 9.1h34.4c2.4-1.6 5.2-4.5 5.2-9.1 0-6.7-4.5-11.6-10.8-11.6-1.7 0-3.2.4-5.1 1.4l-.8-1.6c1.5-.8 3.5-1.6 5.9-1.6C43.8 17.4 49 23 49 30.8c0 4.4-2.2 8.1-6.2 10.7l-.1.2z"/></symbol><symbol viewBox="0 0 50 50" id="download"><path d="M9.1 7.3h29.7v2H9.1z"/><path d="M9.1 12c-1.9 0-3.5-1.6-3.5-3.5S7.2 5 9.1 5H40V3H9.1C6.1 3 4 5.3 4 8.3v34.9C4 45.8 5.8 48 8.4 48H23v-2H8.4C6.9 46 6 44.7 6 43.2V12.5c1 .8 1.8 1.5 3.1 1.5H39v5h2v-7H9.1zM39.7 35.1L37 37.9V30h-2v7.9l-2.8-2.8-1.4 1.4 5.1 5.2 5.2-5.2z"/><path d="M35.9 47.9C28.8 47.9 23 42.1 23 35c0-7.1 5.8-12.9 12.9-12.9s12.8 5.9 12.8 13S43 47.9 35.9 47.9zm0-23.7c-6 0-10.9 4.9-10.9 10.9S29.9 46 35.9 46s10.9-4.9 10.9-10.9-4.9-10.9-10.9-10.9z"/></symbol><symbol viewBox="0 0 50 50" id="edit"><path d="M39.7 46.5H4.5c-.2 0-.4-.2-.4-.4V8c0-.2.2-.4.4-.4h29.6c.2 0 .4.2.4.4s-.2.4-.4.4H5v37.3h34.3V23c0-.2.2-.4.4-.4s.4.2.4.4v23.1c0 .2-.1.4-.4.4z"/><path d="M46.4 4.2c-.8-.9-2.3-1.2-3.3-.2L25.5 21.6l-.1.1-2.2 5.1c-.1.2 0 .3.1.5.1.1.2.1.3.1h.2l5.1-2.2.1-.1L46.6 7.6c1.1-1.1.7-2.5-.2-3.4zM28.5 24.5l-4.1 1.7 1.7-4.1 15-15 2.3 2.3-14.9 15.1zM46 7l-1.9 1.9-2.3-2.3 1.9-1.9c.7-.7 1.6-.4 2.2.2.5.5.8 1.4.1 2.1z"/></symbol><symbol viewBox="0 0 22.5 45.3" id="fb"><title>fb</title><path d="M14.8 45.3H5.6V24.5H0v-9.4h5.6V10c0-4.8 2.7-10 10.3-10h6.5v9.2h-5.8c-.1 0-1.7 0-1.7 1.2v4.7h7.7l-1.4 9.4h-6.3l-.1 20.8zm-7.5-1.7h5.8V22.9h6.5l.9-6h-7.4v-6.4c0-2.2 2-2.9 3.4-2.9h4V1.7h-4.8C7.8 1.7 7.1 8 7.1 10v6.8H1.7v6h5.6v20.8z"/></symbol><symbol id="final" viewBox="0 0 250 250"><style>.hst0{stroke:#000;stroke-width:.5;stroke-miterlimit:10}.hst1{fill:#ccc}</style><path class="hst0" d="M76.2 182l-.2.3c-.5-.6-1-.8-1.8-.8-1.9 0-3.1 1.4-3.1 3.6v2.2H76v.4h-4.9v12.8h-.4v-12.8h-2.6v-.4h2.6v-2.2c0-2.5 1.3-4 3.5-4 1 .1 1.6.4 2 .9zm3 2.2c0 .3-.2.6-.6.6-.3 0-.6-.2-.6-.6s.2-.6.6-.6c.4.1.6.3.6.6zm-.8 3.2h.4v13.2h-.4v-13.2zM94.1 191.9v8.7h-.4V192c0-2.8-1.8-4.5-4.6-4.5-3.1 0-5.4 2.4-5.4 5.1v7.9h-.4v-13.2h.4v3.5c.6-2.2 2.7-3.8 5.5-3.8 3.1.1 4.9 1.9 4.9 4.9zM109.8 200.3v.4c-.2.2-.5.2-.9.2-.8 0-1.9-.4-1.9-2.4v-.4c-.7 1.9-3.2 2.8-5.4 2.8-2.6 0-4.1-1.2-4.1-3.1 0-2.1 1.4-3.2 4.9-3.8l4.7-.9v-1.6c0-2.5-1.5-3.9-4.2-3.9-2.4 0-3.9.9-4.7 3.1l-.3-.3c.8-2.2 2.4-3.2 5.1-3.2 3 0 4.6 1.5 4.6 4.3v7.2c0 1.3.6 1.9 1.5 1.9.1-.1.5-.2.7-.3zm-2.9-3.7v-3.2l-4.4.8c-3.5.6-4.7 1.7-4.7 3.5 0 1.7 1.4 2.7 3.8 2.7 2.1.1 5.3-1 5.3-3.8zM112.4 197.8c0 1.9.6 2.7 1.9 2.7.8 0 1.1-.1 1.5-.3v.4c-.3.2-.8.3-1.5.3-1.6 0-2.3-.9-2.3-3.1v-16.4h.4v16.4zM135.6 194.3h-11.1c.1 3.9 2.1 6.2 5.6 6.2 2.2 0 4.1-1.1 5-3l.3.2c-.9 2-2.9 3.1-5.3 3.1-3.8 0-6-2.6-6-6.9 0-4.3 2.2-6.9 5.9-6.9 3.5 0 5.6 2.6 5.6 7v.3zm-11.1-.4h10.7c-.1-4-1.9-6.4-5.2-6.4-3.4 0-5.5 2.4-5.5 6.4zM147.9 200.6l-5.4-6.5-5.1 6.5h-.6l5.4-6.9-5.2-6.3h.6l4.9 5.9 4.6-5.9h.6l-4.9 6.3 5.7 6.9h-.6zM162.3 200.3v.4c-.2.2-.5.2-.9.2-.8 0-1.9-.4-1.9-2.4v-.4c-.7 1.9-3.2 2.8-5.4 2.8-2.6 0-4.1-1.2-4.1-3.1 0-2.1 1.4-3.2 4.9-3.8l4.7-.9v-1.6c0-2.5-1.5-3.9-4.2-3.9-2.4 0-3.9.9-4.7 3.1l-.3-.3c.8-2.2 2.4-3.2 5.1-3.2 3 0 4.6 1.5 4.6 4.3v7.2c0 1.3.6 1.9 1.5 1.9.1-.1.4-.2.7-.3zm-2.9-3.7v-3.2l-4.4.8c-3.5.6-4.7 1.7-4.7 3.5 0 1.7 1.4 2.7 3.8 2.7 2.1.1 5.3-1 5.3-3.8zM185.7 191.9v8.7h-.4V192c0-2.8-1.8-4.5-4.6-4.5-3.1 0-5.4 2.4-5.4 5.1v8h-.4V192c0-2.8-1.8-4.5-4.6-4.5-3.1 0-5.4 2.4-5.4 5.1v7.9h-.4v-13.2h.4v3.5c.6-2.2 2.7-3.8 5.5-3.8 2.7 0 4.5 1.4 4.9 3.9.5-2.3 2.7-4 5.5-4 3.1.2 4.9 1.9 4.9 5z"/><path class="hst1" d="M125.1 244.6C59 244.6 5.2 190.8 5.2 124.7s53.7-120 119.9-120S245 58.5 245 124.7s-53.8 119.9-119.9 119.9zm0-238.5C59.7 6.1 6.5 59.3 6.5 124.7c0 65.4 53.2 118.6 118.6 118.6 65.4 0 118.6-53.2 118.6-118.6-.1-65.4-53.3-118.6-118.6-118.6z"/><g><path d="M176.1 166.7l-8.9-17.9V52.5H185v96.4l-8.9 17.8zm-6.2-18.5l6.2 12.4 6.2-12.4v-93h-12.4v93z"/><path d="M162.3 80.3h-2.7V60h8.9v2.8h-6.2zM145.3 165H64.9V52.5h56.8L145.3 76v89zm-77.7-2.7h74.9V77.1l-21.9-21.9h-53v107.1z"/><path d="M143.9 77.9h-24.1V53.8h2.8v21.4h21.3z"/></g><g><path d="M104.5 153.4c-2.6 0-4.8-2-5.5-4.9-3.9-1.1-7.6-3.2-10.8-6.5-1.3-1.3-2.6-2.8-3.7-4.5-4.7-6.8-7.4-15.8-7.6-25.3l-.2-.2c-2.4-3-3.6-6.4-3.6-9.8 0-10.3 10.9-18.8 26.1-20.4-.3-4.3.7-8.5 3-12.1.6-1 1.6-1.7 2.7-1.9 1.1-.3 2.3-.1 3.3.5s1.7 1.6 1.9 2.7c.3 1.1.1 2.3-.5 3.3-1.4 2.2-1.9 4.8-1.7 7.4 9.4.6 17.7 3.9 22.8 9 3.4 3.4 5.2 7.4 5.2 11.5 0 3.4-1.3 6.8-3.6 9.8l-.2.2c-.3 17.7-9.5 32.6-22.1 36.1-.6 3-2.9 5.1-5.5 5.1.1 0 0 0 0 0zm1.5-82.9h-.4c-.4.1-.8.4-1 .7-2.1 3.4-3 7.6-2.4 11.7l.2 1.4-1.4.1c-14.5 1.1-25 8.6-25 17.8 0 2.8 1.1 5.6 3 8.1l.7.9v.5c.1 9.1 2.6 17.7 7.1 24.2 1 1.5 2.2 2.9 3.4 4.1 3.1 3.1 6.6 5.1 10.3 5.9l.9.2.1 1c.2 2 1.5 3.5 3 3.5s2.7-1.5 3-3.5l.1-1 .9-.2c11.9-2.8 20.7-17.1 20.8-34.2v-.5l.8-.9c2-2.5 3-5.3 3-8.1 0-3.4-1.5-6.7-4.4-9.6-4.8-4.8-12.9-7.8-22.1-8.3h-1.1l-.2-1c-.7-3.6 0-7.3 1.9-10.4.2-.4.3-.8.2-1.2-.1-.4-.3-.8-.7-1-.1-.1-.4-.2-.7-.2zm-1.4 72.7c-5.7 0-11-3.2-15.1-9.1-4.2-6-6.5-14.1-6.5-22.7V110l.9-.3c6-2.1 13.2-3.2 20.7-3.2s14.6 1.1 20.7 3.2l.9.3v1.4c0 17.6-9.7 31.8-21.6 31.8zM85.7 112c.1 7.8 2.2 15.1 6 20.6 3.6 5.1 8.1 7.9 12.9 7.9 10.3 0 18.7-12.7 18.9-28.5-5.6-1.8-12.1-2.7-18.9-2.7-6.9 0-13.4.9-18.9 2.7zm42.7-4.6l-1.1-.4c-6.5-2.4-14.6-3.7-22.7-3.7s-16.2 1.3-22.7 3.7l-1.1.4-.5-1.1c-.7-1.3-1-2.7-1-4 0-4 2.8-7.8 7.8-10.6 4.8-2.7 11-4.1 17.5-4.1 9 0 17.4 2.8 22 7.4 1.6 1.6 3.4 4.1 3.4 7.3 0 1.3-.3 2.7-1 4l-.6 1.1zm-23.8-6.8c8.1 0 15.8 1.2 22.4 3.4.2-.6.3-1.1.3-1.7 0-2.3-1.4-4.2-2.6-5.4-4.1-4.1-11.8-6.6-20.1-6.6-6 0-11.9 1.4-16.2 3.8-4.1 2.3-6.4 5.3-6.4 8.2 0 .6.1 1.1.3 1.7 6.5-2.2 14.2-3.4 22.3-3.4z"/></g></symbol><symbol id="final_handson" viewBox="0 0 200 200"><style>.ist0{stroke:#000;stroke-width:.5;stroke-miterlimit:10}.ist1{fill:#ccc}</style><path d="M102 116.5c-1.8 0-3.2-1.4-3.7-3.4-2.8-.7-5.3-2.2-7.6-4.5-.9-.9-1.8-2-2.6-3.1-3.3-4.7-5.2-11-5.3-17.6l-.2-.2c-1.6-2.1-2.5-4.4-2.5-6.7 0-7.2 7.6-13 18.3-14.1-.2-3 .5-6 2-8.5.4-.6 1-1.1 1.8-1.3.7-.2 1.5 0 2.1.4 1.3.8 1.7 2.6.9 3.9-1 1.6-1.4 3.5-1.2 5.4 6.6.4 12.4 2.7 16 6.3 2.3 2.3 3.5 5.1 3.5 7.9 0 2.3-.9 4.7-2.5 6.7l-.2.2c-.2 12.3-6.6 22.8-15.4 25.2-.1 2-1.6 3.4-3.4 3.4zm1-58h-.3c-.3.1-.6.3-.8.6-1.5 2.4-2.1 5.4-1.7 8.3l.1.8-.8.1c-10.3.8-17.7 6.1-17.7 12.7 0 2 .8 4 2.2 5.8l.5.6v.3c0 6.4 1.8 12.5 5 17 .7 1.1 1.5 2 2.4 2.9 2.2 2.2 4.7 3.6 7.3 4.2l.5.1.1.5c.2 1.5 1.2 2.6 2.3 2.6 1.1 0 2.1-1.1 2.3-2.6l.1-.5.5-.1c8.4-2 14.6-12.1 14.7-24.1v-.3l.5-.6c1.4-1.8 2.2-3.8 2.2-5.8 0-2.5-1.1-4.8-3.1-6.9-3.4-3.4-9.1-5.5-15.6-5.8h-.6l-.1-.6c-.5-2.5 0-5 1.3-7.1.4-.6.2-1.4-.4-1.8-.4-.2-.6-.3-.9-.3zm-1 50.9c-3.9 0-7.6-2.2-10.4-6.3-2.9-4.2-4.5-9.8-4.5-15.8v-.8l.5-.2c4.2-1.5 9.2-2.2 14.4-2.2 5.2 0 10.2.8 14.4 2.2l.5.2v.8c.1 12.2-6.6 22.1-14.9 22.1zM88.6 87.6c0 5.6 1.5 10.8 4.3 14.6 2.5 3.6 5.8 5.6 9.2 5.6 7.3 0 13.3-9.1 13.4-20.3-4-1.3-8.6-2-13.4-2-4.9.2-9.5.8-13.5 2.1zm30-3.3l-.6-.2c-4.6-1.7-10.2-2.6-16-2.6-5.7 0-11.4.9-16 2.6l-.6.2-.3-.6c-.5-.9-.7-1.8-.7-2.7 0-2.7 1.9-5.3 5.4-7.2 3.3-1.8 7.7-2.9 12.2-2.9 6.2 0 12.1 2 15.2 5.1 1.1 1.1 2.3 2.8 2.3 5 0 .9-.2 1.8-.7 2.7l-.2.6zM102 80c5.7 0 11.1.8 15.8 2.4.2-.5.3-1 .3-1.4 0-1.7-1-3-1.9-3.9-2.9-2.9-8.3-4.7-14.2-4.7-4.2 0-8.4 1-11.4 2.7-3 1.6-4.6 3.7-4.6 5.9 0 .5.1 1 .3 1.4 4.6-1.6 10-2.4 15.7-2.4z"/><path d="M134.3 125.2H67.5V53h55.6v1.5H69v69.2h63.8V81.6h1.5z"/><path d="M126.7 88.4l-1.5-7.6v-.1l5.4-28.4c.3-1.7 1.9-2.3 3.3-2 1.4.3 2.7 1.4 2.3 3.1L130.7 82l-4 6.4zm-.5-7.6l1 5.1 2.8-4.4 5.4-28.3c.2-1.1-.6-1.8-1.6-2-.9-.2-2 .1-2.2 1.3l-5.4 28.3z"/><path transform="rotate(-79.193 132.793 56.38)" d="M132.3 54h.9v4.8h-.9z"/><g><path class="ist0" d="M46.9 142.7l-.1.2c-.3-.4-.7-.6-1.4-.6-1.4 0-2.3 1-2.3 2.7v1.6h3.6v.3h-3.6v9.4h-.3v-9.4h-1.9v-.3h1.9V145c0-1.8 1-2.9 2.6-2.9.8 0 1.2.2 1.5.6zm2.2 1.6c0 .3-.2.4-.4.4-.3 0-.4-.2-.4-.4 0-.3.2-.4.4-.4s.4.2.4.4zm-.6 2.3h.3v9.7h-.3v-9.7zM60 149.9v6.4h-.3V150c0-2.1-1.3-3.3-3.3-3.3-2.3 0-4 1.8-4 3.8v5.8h-.3v-9.7h.3v2.6c.4-1.6 2-2.8 4-2.8 2.3 0 3.6 1.3 3.6 3.5zM71.5 156v.3c-.2.1-.4.2-.7.2-.6 0-1.4-.3-1.4-1.8v-.3c-.5 1.4-2.4 2-4 2-1.9 0-3-.9-3-2.3 0-1.5 1-2.3 3.6-2.8l3.4-.6v-1.2c0-1.8-1.1-2.9-3.1-2.9-1.8 0-2.9.7-3.5 2.3l-.3-.2c.6-1.6 1.8-2.4 3.7-2.4 2.2 0 3.4 1.1 3.4 3.1v5.3c0 .9.4 1.4 1.1 1.4.4.1.6.1.8-.1zm-2.1-2.6V151l-3.2.6c-2.5.5-3.5 1.3-3.5 2.6s1 2 2.8 2c1.6 0 3.9-.8 3.9-2.8zM73.4 154.2c0 1.4.5 2 1.4 2 .6 0 .8-.1 1.1-.2v.3c-.3.1-.6.2-1.1.2-1.1 0-1.7-.7-1.7-2.3v-12h.3v12zM90.6 149.9v6.4h-.3V150c0-2.1-1.3-3.3-3.3-3.3-2.3 0-4 1.8-4 3.8v5.8h-.3v-14.1h.3v7c.4-1.6 2-2.8 4-2.8 2.2 0 3.6 1.3 3.6 3.5zM102.1 156v.3c-.2.1-.4.2-.7.2-.6 0-1.4-.3-1.4-1.8v-.3c-.5 1.4-2.4 2-4 2-1.9 0-3-.9-3-2.3 0-1.5 1-2.3 3.6-2.8l3.4-.6v-1.2c0-1.8-1.1-2.9-3.1-2.9-1.8 0-2.9.7-3.5 2.3l-.3-.2c.6-1.6 1.8-2.4 3.7-2.4 2.2 0 3.4 1.1 3.4 3.1v5.3c0 .9.4 1.4 1.1 1.4.3.1.6.1.8-.1zm-2.1-2.6V151l-3.2.6c-2.5.5-3.5 1.3-3.5 2.6s1 2 2.8 2c1.5 0 3.9-.8 3.9-2.8zM111.6 149.9v6.4h-.3V150c0-2.1-1.3-3.3-3.3-3.3-2.3 0-4 1.8-4 3.8v5.8h-.3v-9.7h.3v2.6c.4-1.6 2-2.8 4-2.8 2.3 0 3.6 1.3 3.6 3.5zM122.8 142.2v14.1h-.3v-2.9c-.5 2-1.9 3.1-3.9 3.1-2.8 0-4.4-1.9-4.4-5s1.6-5 4.4-5c2 0 3.4 1.1 3.9 3.1v-7.3h.3zm-.3 9.3v-.1c0-2.9-1.5-4.7-3.9-4.7-2.6 0-4.2 1.8-4.2 4.8s1.5 4.8 4.2 4.8c2.4-.1 3.9-1.8 3.9-4.8zM125.2 154.1l.3-.1c.3 1.4 1.7 2.2 3.7 2.2s3.3-.9 3.3-2.3c0-1.2-.8-1.8-3.3-2.2-2.7-.5-3.6-1.2-3.6-2.6 0-1.5 1.5-2.6 3.6-2.6 2 0 3.2.7 3.6 2.4l-.3.2c-.3-1.6-1.5-2.3-3.3-2.3-1.9 0-3.3 1-3.3 2.3 0 1.3.9 2 3.4 2.4 2.6.4 3.5 1.2 3.5 2.5 0 1.6-1.4 2.6-3.7 2.6-2-.1-3.6-.9-3.9-2.5zM140 151.2h-5.4v-.3h5.4v.3zM151.3 151.5c0 3.1-1.7 5-4.5 5s-4.5-1.9-4.5-5 1.7-5 4.5-5 4.5 1.8 4.5 5zm-8.7 0c0 3 1.6 4.8 4.2 4.8s4.2-1.8 4.2-4.8-1.6-4.8-4.2-4.8-4.2 1.8-4.2 4.8zM161.9 149.9v6.4h-.3V150c0-2.1-1.3-3.3-3.3-3.3-2.3 0-4 1.8-4 3.8v5.8h-.3v-9.7h.3v2.6c.4-1.6 2-2.8 4-2.8 2.2 0 3.6 1.3 3.6 3.5z"/></g><path class="ist1" d="M100.1 188.5c-48.4 0-87.9-39.4-87.9-87.9s39.4-87.9 87.9-87.9S188 52.1 188 100.6s-39.5 87.9-87.9 87.9zm0-174.7c-47.9 0-86.9 39-86.9 86.9 0 47.9 39 86.9 86.9 86.9 47.9 0 86.9-39 86.9-86.9-.1-47.9-39-86.9-86.9-86.9z"/></symbol><symbol viewBox="0 0 50 50" id="globe"><path d="M21.6 42.1c-.4 0-.7-.3-.7-.7v-3.5c0-.4.3-.7.7-.7s.7.3.7.7v3.5c0 .3-.3.7-.7.7zM24.3 42.1c-.4 0-.7-.3-.7-.7v-3.5c0-.4.3-.7.7-.7s.7.3.7.7v3.5c0 .3-.3.7-.7.7z"/><path d="M33.2 45.4H12.8c-.3 0-.6-.2-.6-.5-.1-.3 0-.6.2-.8 3.1-2.3 6.7-3.5 10.6-3.5 3.9 0 7.5 1.2 10.6 3.5.2.2.3.5.2.8-.1.3-.3.5-.6.5zM15.1 44h15.8c-2.4-1.3-5.1-2-7.9-2-2.8 0-5.5.7-7.9 2zM23 33.2c-7.5 0-13.6-6.1-13.6-13.6S15.5 6 23 6s13.6 6.1 13.6 13.6S30.5 33.2 23 33.2zm0-25.9c-6.7 0-12.2 5.5-12.2 12.2 0 6.7 5.5 12.2 12.2 12.2 6.7 0 12.2-5.5 12.2-12.2 0-6.7-5.5-12.2-12.2-12.2z"/><path d="M23 38.6c-4.9 0-9.8-1.9-13.5-5.6-.3-.3-.3-.7 0-1 .3-.3.7-.3 1 0 6.9 6.9 18.1 6.9 25 0 6.9-6.9 6.9-18.1 0-25-.3-.3-.3-.7 0-1 .3-.3.7-.3 1 0 7.4 7.4 7.4 19.5 0 26.9-3.8 3.8-8.6 5.7-13.5 5.7z"/><path d="M8.7 34.5c-.2 0-.3-.1-.5-.2-.3-.3-.3-.7 0-1l2.7-2.7c.3-.3.7-.3 1 0 .3.3.3.7 0 1l-2.7 2.7c-.1.2-.3.2-.5.2zM34.5 8.7c-.2 0-.3-.1-.5-.2-.3-.3-.3-.7 0-1l2.7-2.7c.3-.3.7-.3 1 0 .3.3.3.7 0 1L35 8.5c-.1.1-.3.2-.5.2z"/></symbol><symbol id="lecture_activity" viewBox="0 0 200 200"><style>.kst0{stroke:#000;stroke-width:.75;stroke-miterlimit:10}.kst1{fill:#ccc}</style><path class="kst0" d="M43 154.2c0 1.4.5 2 1.4 2 .6 0 .8-.1 1.1-.2v.3c-.3.1-.6.2-1.1.2-1.1 0-1.7-.7-1.7-2.3v-12h.3v12zM54.9 151.7h-8.1c.1 2.8 1.6 4.5 4.1 4.5 1.6 0 3-.8 3.7-2.2l.3.1c-.7 1.4-2.1 2.3-3.9 2.3-2.8 0-4.4-1.9-4.4-5s1.6-5 4.3-5c2.5 0 4.1 1.9 4.1 5.1v.2zm-8.1-.3h7.8c-.1-2.9-1.4-4.7-3.8-4.7-2.5 0-4 1.7-4 4.7zM65 149.1l-.3.1c-.4-1.6-1.7-2.5-3.5-2.5-2.6 0-4.1 1.8-4.1 4.8s1.5 4.8 4.1 4.8c1.8 0 3.4-1 3.7-2.7l.3.1c-.3 1.7-2 2.8-3.9 2.8-2.8 0-4.4-1.9-4.4-5s1.6-5 4.4-5c1.8-.1 3.3.9 3.7 2.6zM72.2 155.7c-.4.4-1.1.7-1.9.7-1.6 0-2.3-.9-2.3-2.6v-7h-1.9v-.3H68V144l.3-.1v2.6H72v.3h-3.7v7c0 1.5.6 2.4 2 2.4.7 0 1.2-.2 1.7-.7l.2.2zM81.5 146.6v9.7h-.3v-2.6c-.4 1.6-2 2.8-4 2.8-2.1 0-3.4-1.2-3.4-3.4v-6.4h.3v6.4c0 2 1.1 3.2 3.1 3.2 2.8 0 4-2.3 4-3.7v-5.9h.3zM89.7 146.9l-.2.2c-.3-.3-.5-.4-1.2-.4-1.8 0-3.1 2-3.1 4v5.6h-.3v-9.7h.3v2.5c.4-1.5 1.6-2.7 3.2-2.7.6 0 1 .2 1.3.5zM98.6 151.7h-8.1c.1 2.8 1.6 4.5 4.1 4.5 1.6 0 3-.8 3.7-2.2l.3.1c-.7 1.4-2.1 2.3-3.9 2.3-2.8 0-4.4-1.9-4.4-5s1.6-5 4.3-5c2.5 0 4.1 1.9 4.1 5.1v.2zm-8.1-.3h7.8c-.1-2.9-1.4-4.7-3.8-4.7-2.5 0-4 1.7-4 4.7zM114.9 156v.3c-.2.1-.4.2-.7.2-.6 0-1.4-.3-1.4-1.8v-.3c-.5 1.4-2.4 2-4 2-1.9 0-3-.9-3-2.3 0-1.5 1-2.3 3.6-2.8l3.4-.6v-1.2c0-1.8-1.1-2.9-3.1-2.9-1.8 0-2.9.7-3.5 2.3l-.3-.2c.6-1.6 1.8-2.4 3.7-2.4 2.2 0 3.4 1.1 3.4 3.1v5.3c0 .9.4 1.4 1.1 1.4.3.1.6.1.8-.1zm-2.1-2.6V151l-3.2.6c-2.5.5-3.5 1.3-3.5 2.6s1 2 2.8 2c1.5 0 3.9-.8 3.9-2.8zM124.1 149.1l-.3.1c-.4-1.6-1.7-2.5-3.5-2.5-2.6 0-4.1 1.8-4.1 4.8s1.5 4.8 4.1 4.8c1.8 0 3.4-1 3.7-2.7l.3.1c-.3 1.7-2 2.8-3.9 2.8-2.8 0-4.4-1.9-4.4-5s1.6-5 4.4-5c1.8-.1 3.3.9 3.7 2.6zM131.3 155.7c-.4.4-1.1.7-1.9.7-1.6 0-2.3-.9-2.3-2.6v-7h-1.9v-.3h1.9V144l.3-.1v2.6h3.7v.3h-3.7v7c0 1.5.6 2.4 2 2.4.7 0 1.2-.2 1.7-.7l.2.2zM132.7 144.3c0-.3.2-.4.4-.4.3 0 .4.2.4.4 0 .3-.2.4-.4.4s-.4-.1-.4-.4zm.6 12h-.3v-9.7h.3v9.7zM143.8 146.6l-4.1 9.7h-.3l-4.1-9.7h.3l3.9 9.3 3.9-9.3h.4zM145.6 144.3c0-.3.2-.4.4-.4.3 0 .4.2.4.4 0 .3-.2.4-.4.4s-.4-.1-.4-.4zm.6 12h-.3v-9.7h.3v9.7zM154.2 155.7c-.4.4-1.1.7-1.9.7-1.6 0-2.3-.9-2.3-2.6v-7h-1.9v-.3h1.9V144l.3-.1v2.6h3.7v.3h-3.7v7c0 1.5.6 2.4 2 2.4.7 0 1.2-.2 1.7-.7l.2.2zM158.3 158.2c-.7 1.7-1.4 2.2-2.6 2.2-.7 0-1.2-.2-1.5-.6l.2-.3c.3.4.8.6 1.4.6 1 0 1.7-.4 2.3-2l.8-1.9-4.1-9.7h.3l3.6 8.5.3.8.3-.8 3.5-8.5h.3l-4.8 11.7z"/><path class="kst1" d="M100.1 188.5c-48.4 0-87.9-39.4-87.9-87.9s39.4-87.9 87.9-87.9S188 52.1 188 100.6s-39.5 87.9-87.9 87.9zm0-174.7c-47.9 0-86.9 39-86.9 86.9 0 47.9 39 86.9 86.9 86.9 47.9 0 86.9-39 86.9-86.9-.1-47.9-39-86.9-86.9-86.9z"/><g><path d="M102 136v-2c25.9 0 47-21.1 47-47s-21.1-47-47-47v-2c27 0 49 22 49 49s-22 49-49 49zM102 136c-27 0-49-22-49-49 0-10.3 3.1-20.1 9.1-28.5l.1-.1 8.7-8.7 1.4 1.4-8.6 8.6C58 67.8 55 77.2 55 87c0 25.9 21.1 47 47 47v2z"/><path d="M73.6 66.9h-2V50.8H55.5v-2h18.1z"/></g><g><path d="M102 123.6c-2.3 0-4.3-1.9-4.9-4.5-3.7-1-7-3-10-6-1.2-1.2-2.4-2.6-3.4-4.1-4.4-6.3-6.8-14.6-7-23.3l-.2-.3c-2.2-2.7-3.3-5.8-3.3-8.9 0-9.5 10.1-17.2 24.2-18.7-.3-4 .6-8 2.7-11.3.5-.9 1.4-1.4 2.3-1.7 1-.2 2-.1 2.8.5.9.5 1.4 1.4 1.7 2.3.2 1 .1 2-.5 2.8-1.3 2.1-1.9 4.7-1.6 7.2 8.8.6 16.4 3.6 21.2 8.3 3.1 3.1 4.7 6.7 4.7 10.5 0 3.1-1.1 6.2-3.3 8.9l-.2.3c-.2 16.3-8.7 30.2-20.4 33.3-.4 2.7-2.4 4.7-4.8 4.7zm1.4-76.8h-.4c-.5.1-.9.4-1.1.8-2 3.2-2.8 7.1-2.3 11l.1 1.1-1.1.1c-13.6 1-23.4 8.1-23.4 16.8 0 2.6 1 5.3 2.9 7.7l.6.8v.3c.1 8.5 2.4 16.5 6.6 22.6 1 1.4 2 2.7 3.2 3.8 2.9 2.9 6.2 4.8 9.7 5.6l.7.2.1.7c.2 2 1.5 3.4 3 3.4s2.8-1.5 3-3.5l.1-.7.7-.2c11.2-2.6 19.4-16 19.5-31.9v-.3l.6-.8c1.9-2.4 2.9-5 2.9-7.6 0-3.2-1.4-6.4-4.1-9.1-4.5-4.5-12-7.3-20.7-7.7h-.8l-.2-.8c-.6-3.3 0-6.6 1.7-9.4.2-.4.3-.9.2-1.3-.1-.5-.4-.8-.8-1.1-.1-.4-.4-.5-.7-.5zm-1.3 67.4c-5.2 0-10.1-3-13.8-8.3-3.9-5.6-6-13-6-20.9v-1.1l.6-.2c5.6-1.9 12.2-2.9 19.1-2.9 6.9 0 13.5 1 19.1 2.9l.7.2V85c0 16.1-8.8 29.2-19.7 29.2zM84.3 85.3c.1 7.4 2 14.3 5.6 19.4 3.3 4.8 7.7 7.5 12.1 7.5 9.7 0 17.6-12 17.8-26.9-5.2-1.7-11.4-2.6-17.8-2.6s-12.5.9-17.7 2.6zm39.7-4.4l-.8-.3c-6.1-2.2-13.6-3.4-21.1-3.4-7.6 0-15.1 1.2-21.1 3.4l-.8.3-.4-.8c-.6-1.2-.9-2.4-.9-3.6 0-3.6 2.5-7 7.1-9.6 4.4-2.4 10.1-3.8 16.1-3.8 8.3 0 16 2.6 20.2 6.8 1.4 1.4 3.1 3.7 3.1 6.6 0 1.2-.3 2.4-.9 3.6l-.5.8zm-22-5.7c7.5 0 14.8 1.1 20.9 3.2.2-.6.3-1.3.3-1.9 0-2.2-1.4-4-2.5-5.2-3.8-3.8-11-6.2-18.8-6.2-5.6 0-11.1 1.3-15.2 3.5-3.9 2.2-6.1 5-6.1 7.8 0 .6.1 1.3.3 1.9 6.4-2 13.6-3.1 21.1-3.1z"/></g></symbol><symbol id="linkedin" viewBox="0 0 50 50"><style>.lst0{fill:none;stroke:#000;stroke-width:1.7214;stroke-miterlimit:10}</style><path class="lst0" d="M5.1 45.7h7.8V14.5H5.1v31.2zm31.2-31.2c-6.7.1-10 5-10.4 5.2v-5.2h-7.8v31.2h7.8V27.5c0-.7 1.6-6 7.8-5.2 3.3.2 5.1 4.6 5.2 5.2v18.2h7.8V24.1c-.3-3.1-1.9-9.5-10.4-9.6zM9 4.1C6.8 4.1 5.1 5.8 5.1 8s1.7 3.9 3.9 3.9 3.9-1.7 3.9-3.9S11.1 4.1 9 4.1z"/></symbol><symbol viewBox="0 0 44.1 29.2" id="mail"><title>mail</title><path d="M40.6 29.2H3.5c-1.9 0-3.4-1.5-3.5-3.4V3.5C.1 1.6 1.6.1 3.5 0h37.2c1.9.1 3.4 1.6 3.5 3.5v22.3c-.2 1.9-1.7 3.4-3.6 3.4zM3.5 1C2.1 1.1 1.1 2.1 1 3.5v22.3c.1 1.3 1.1 2.4 2.5 2.4h37.2c1.3 0 2.4-1.1 2.5-2.4V3.5C43 2.1 42 1.1 40.6 1H3.5z"/><path d="M22 18.8c-.1 0-.2 0-.3-.1L6.2 8.3c-.2-.1-.3-.4-.1-.7.2-.2.4-.2.6-.1L22 17.7 37.4 7.5c.2-.2.5-.1.7.1.2.2.1.5-.1.7 0 0-.1 0-.1.1L22.3 18.7c-.1.1-.2.1-.3.1zM6.4 22.5c-.3 0-.5-.2-.5-.5 0-.2.1-.3.2-.4l6.7-4.5c.2-.2.5-.1.7.1.2.2.1.5-.1.7 0 0-.1 0-.1.1l-6.7 4.5h-.2zM37.7 22.5c-.1 0-.2 0-.3-.1L30.7 18c-.2-.1-.3-.4-.2-.7.1-.2.4-.3.7-.2 0 0 .1 0 .1.1l6.7 4.5c.2.1.3.5.1.7-.1.1-.3.2-.4.1z"/></symbol><symbol id="menu" viewBox="0 0 40 36.96"><defs><style>.ncls-1{fill:none}</style></defs><title>menu</title><path d="M0 .8h40v1.6H0zM0 12h40v1.6H0zM0 23.2h40v1.6H0zM0 34.4h40V36H0z"/><path class="ncls-1" d="M0 0h39.84v36.96H0z"/></symbol><symbol id="midterm_handson" viewBox="0 0 200 200"><style>.ost0{stroke:#000;stroke-width:.5;stroke-miterlimit:10}.ost1{fill:#ccc}</style><path d="M100 115.5c-1.8 0-3.2-1.4-3.7-3.4-2.8-.7-5.3-2.2-7.6-4.5-.9-.9-1.8-2-2.6-3.1-3.3-4.7-5.2-11-5.3-17.6l-.2-.2c-1.6-2.1-2.5-4.4-2.5-6.7 0-7.2 7.6-13 18.3-14.1-.2-3 .5-6 2-8.5.8-1.3 2.6-1.7 3.9-.9 1.3.8 1.7 2.6.9 3.9-1 1.6-1.4 3.5-1.2 5.4 6.6.4 12.4 2.7 16 6.3 2.3 2.3 3.5 5.1 3.5 7.9 0 2.3-.9 4.7-2.5 6.7l-.2.2c-.2 12.3-6.6 22.8-15.4 25.2-.1 2-1.6 3.4-3.4 3.4zm1-58c-.4 0-.9.2-1.1.6-1.5 2.4-2.1 5.4-1.7 8.3l.1.8-.8.1c-10.3.8-17.7 6.1-17.7 12.7 0 2 .8 4 2.2 5.8l.5.6v.3c0 6.4 1.8 12.5 5 17 .7 1.1 1.5 2 2.4 2.9 2.2 2.2 4.7 3.6 7.3 4.2l.5.1.1.5c.2 1.5 1.2 2.6 2.3 2.6 1.1 0 2.1-1.1 2.3-2.6l.1-.5.5-.1c8.4-2 14.6-12.1 14.7-24.1v-.3l.5-.6c1.4-1.8 2.2-3.8 2.2-5.8 0-2.5-1.1-4.8-3.1-6.9-3.4-3.4-9.1-5.5-15.6-5.8h-.6l-.1-.6c-.5-2.5 0-5 1.3-7.1.4-.6.2-1.4-.4-1.8-.4-.2-.6-.3-.9-.3zm-1 50.9c-3.9 0-7.6-2.2-10.4-6.3-2.9-4.2-4.5-9.8-4.5-15.8v-.8l.5-.2c4.2-1.5 9.2-2.2 14.4-2.2 5.2 0 10.2.8 14.4 2.2l.5.2v.8c.1 12.2-6.6 22.1-14.9 22.1zM86.6 86.6c0 5.6 1.5 10.8 4.3 14.6 2.5 3.6 5.8 5.6 9.2 5.6 7.3 0 13.3-9.1 13.4-20.3-4-1.3-8.6-2-13.4-2-4.9.2-9.5.8-13.5 2.1zm30-3.3l-.6-.2c-4.6-1.7-10.2-2.6-16-2.6-5.7 0-11.4.9-16 2.6l-.6.2-.3-.6c-.5-.9-.7-1.8-.7-2.7 0-2.7 1.9-5.3 5.4-7.2 3.3-1.8 7.7-2.9 12.2-2.9 6.2 0 12.1 2 15.2 5.1 1.1 1.1 2.3 2.8 2.3 5 0 .9-.2 1.8-.7 2.7l-.2.6zM100 79c5.7 0 11.1.8 15.8 2.4.2-.5.3-1 .3-1.4 0-1.7-1-3-1.9-3.9-2.9-2.9-8.3-4.7-14.2-4.7-4.2 0-8.4 1-11.4 2.7-3 1.6-4.6 3.7-4.6 5.9 0 .5.1 1 .3 1.4 4.6-1.6 10-2.4 15.7-2.4z"/><path class="ost0" d="M78.3 140.7v6.4H78v-6.3c0-2.1-1.3-3.3-3.3-3.3-2.3 0-4 1.8-4 3.8v5.9h-.3v-6.3c0-2.1-1.3-3.3-3.3-3.3-2.3 0-4 1.8-4 3.8v5.8h-.3v-9.7h.3v2.6c.4-1.6 2-2.8 4-2.8s3.3 1 3.6 2.9c.4-1.7 2-2.9 4.1-2.9 2.1-.1 3.5 1.2 3.5 3.4zM81.2 135.1c0-.3.2-.4.4-.4.3 0 .4.2.4.4 0 .3-.2.4-.4.4-.3.1-.4-.1-.4-.4zm.6 12h-.3v-9.7h.3v9.7zM93.1 133v14.1h-.3v-2.9c-.5 2-1.9 3.1-3.9 3.1-2.8 0-4.4-1.9-4.4-5s1.6-5 4.4-5c2 0 3.4 1.1 3.9 3.1V133h.3zm-.4 9.4v-.1c0-2.9-1.5-4.7-3.9-4.7-2.6 0-4.2 1.8-4.2 4.8s1.5 4.8 4.2 4.8c2.4-.2 3.9-1.9 3.9-4.8zM101 146.6c-.4.4-1.1.7-1.9.7-1.6 0-2.3-.9-2.3-2.6v-7h-1.9v-.3h1.9V135l.3-.1v2.6h3.7v.3h-3.7v7c0 1.5.6 2.4 2 2.4.7 0 1.2-.2 1.7-.7l.2.1zM110.4 142.5h-8.1c.1 2.8 1.6 4.5 4.1 4.5 1.6 0 3-.8 3.7-2.2l.3.1c-.7 1.4-2.1 2.3-3.9 2.3-2.8 0-4.4-1.9-4.4-5s1.6-5 4.3-5c2.5 0 4.1 1.9 4.1 5.1v.2zm-8.1-.3h7.8c-.1-2.9-1.4-4.7-3.8-4.7-2.5 0-3.9 1.8-4 4.7zM117.8 137.7l-.2.2c-.3-.3-.5-.4-1.2-.4-1.8 0-3.1 2-3.1 4v5.6h-.3v-9.7h.3v2.5c.4-1.5 1.6-2.7 3.2-2.7.7.1 1.1.3 1.3.5zM135.2 140.7v6.4h-.3v-6.3c0-2.1-1.3-3.3-3.3-3.3-2.3 0-4 1.8-4 3.8v5.9h-.3v-6.3c0-2.1-1.3-3.3-3.3-3.3-2.3 0-4 1.8-4 3.8v5.8h-.3v-9.7h.3v2.6c.4-1.6 2-2.8 4-2.8s3.3 1 3.6 2.9c.4-1.7 2-2.9 4.1-2.9 2.1-.1 3.5 1.2 3.5 3.4zM67.3 163.9v6.4H67V164c0-2.1-1.3-3.3-3.3-3.3-2.3 0-4 1.8-4 3.8v5.8h-.3v-14.1h.3v7c.4-1.6 2-2.8 4-2.8 2.2 0 3.6 1.3 3.6 3.5zM78.7 170v.3c-.2.1-.4.2-.7.2-.6 0-1.4-.3-1.4-1.8v-.3c-.5 1.4-2.4 2-4 2-1.9 0-3-.8-3-2.3 0-1.5 1-2.3 3.6-2.8l3.4-.6v-1.2c0-1.8-1.1-2.9-3.1-2.9-1.8 0-2.9.7-3.5 2.3l-.3-.2c.6-1.6 1.8-2.4 3.7-2.4 2.2 0 3.4 1.1 3.4 3.1v5.3c0 .9.4 1.4 1.1 1.4.4.1.7.1.8-.1zm-2.1-2.6V165l-3.2.6c-2.5.5-3.5 1.3-3.5 2.6s1 2 2.8 2c1.6 0 3.9-.8 3.9-2.8zM88.3 163.9v6.4H88V164c0-2.1-1.3-3.3-3.3-3.3-2.3 0-4 1.8-4 3.8v5.8h-.3v-9.7h.3v2.6c.4-1.6 2-2.8 4-2.8 2.3 0 3.6 1.3 3.6 3.5zM99.5 156.2v14.1h-.3v-2.9c-.5 2-1.9 3.1-3.9 3.1-2.8 0-4.4-1.9-4.4-5 0-3.2 1.6-5 4.4-5 2 0 3.4 1.1 3.9 3.1v-7.3h.3zm-.3 9.3v-.1c0-2.9-1.5-4.7-3.9-4.7-2.6 0-4.2 1.8-4.2 4.8s1.5 4.8 4.2 4.8c2.4-.1 3.9-1.8 3.9-4.8zM101.9 168.2l.3-.1c.3 1.4 1.7 2.2 3.7 2.2s3.3-.9 3.3-2.3c0-1.2-.8-1.8-3.3-2.2-2.7-.5-3.6-1.2-3.6-2.6 0-1.5 1.5-2.6 3.6-2.6 2 0 3.2.7 3.6 2.4l-.3.2c-.3-1.6-1.5-2.3-3.3-2.3-1.9 0-3.3 1-3.3 2.3 0 1.3.9 2 3.4 2.4 2.6.4 3.5 1.2 3.5 2.5 0 1.6-1.4 2.6-3.7 2.6-2-.2-3.6-1-3.9-2.5zM116.7 165.2h-5.4v-.3h5.4v.3zM128 165.5c0 3.1-1.7 5-4.5 5s-4.5-1.9-4.5-5 1.7-5 4.5-5 4.5 1.8 4.5 5zm-8.7 0c0 3 1.6 4.8 4.2 4.8s4.2-1.8 4.2-4.8-1.6-4.8-4.2-4.8-4.2 1.8-4.2 4.8zM138.6 163.9v6.4h-.3V164c0-2.1-1.3-3.3-3.3-3.3-2.3 0-4 1.8-4 3.8v5.8h-.3v-9.7h.3v2.6c.4-1.6 2-2.8 4-2.8 2.2 0 3.6 1.3 3.6 3.5z"/><g><path d="M132.3 124.2H65.5V52h55.6v1.5H67v69.2h63.8V80.6h1.5z"/><path d="M124.7 87.4l-1.5-7.6v-.1l5.4-28.4c.3-1.7 1.9-2.3 3.3-2 1.4.3 2.7 1.4 2.3 3.1L128.7 81l-4 6.4zm-.5-7.6l1 5.1 2.8-4.4 5.4-28.3c.2-1.1-.6-1.8-1.6-2-.9-.2-2 .1-2.2 1.3l-5.4 28.3z"/><path transform="rotate(-79.193 130.793 55.38)" d="M130.3 53h.9v4.8h-.9z"/></g><path class="ost1" d="M100.1 187.5c-48.4 0-87.9-39.4-87.9-87.9s39.4-87.9 87.9-87.9S188 51.1 188 99.6s-39.5 87.9-87.9 87.9zm0-174.7c-47.9 0-86.9 39-86.9 86.9 0 47.9 39 86.9 86.9 86.9 47.9 0 86.9-39 86.9-86.9-.1-47.9-39-86.9-86.9-86.9z"/></symbol><symbol id="overall" viewBox="0 0 200 200"><style>.pst0{stroke:#000;stroke-width:.5;stroke-miterlimit:10}.pst1{fill:#ccc}</style><path d="M101 105.6c-2.3 0-4.3-1.9-4.9-4.5-3.7-1-7-3-10-6-1.2-1.2-2.4-2.6-3.4-4.1-4.4-6.3-6.8-14.6-7-23.3l-.2-.3c-2.2-2.7-3.3-5.8-3.3-8.9 0-9.5 10.1-17.2 24.2-18.7-.3-4 .6-8 2.7-11.3.5-.9 1.4-1.4 2.3-1.7 1-.2 2-.1 2.8.5.9.5 1.4 1.4 1.7 2.3.2 1 .1 2-.5 2.8-1.3 2.1-1.9 4.7-1.6 7.2 8.8.6 16.4 3.6 21.2 8.3 3.1 3.1 4.7 6.7 4.7 10.5 0 3.1-1.1 6.2-3.3 8.9l-.2.3c-.2 16.3-8.7 30.2-20.4 33.3-.4 2.7-2.4 4.7-4.8 4.7zm1.4-76.8h-.4c-.5.1-.9.4-1.1.8-2 3.2-2.8 7.1-2.3 11l.1 1.1-1.1.1c-13.6 1-23.4 8.1-23.4 16.8 0 2.6 1 5.3 2.9 7.7l.6.8v.3c.1 8.5 2.4 16.5 6.6 22.6 1 1.4 2 2.7 3.2 3.8 2.9 2.9 6.2 4.8 9.7 5.6l.7.2.1.7c.2 2 1.5 3.4 3 3.4s2.8-1.5 3-3.5l.1-.7.7-.2c11.2-2.6 19.4-16 19.5-31.9v-.3l.6-.8c1.9-2.4 2.9-5 2.9-7.6 0-3.2-1.4-6.4-4.1-9.1-4.5-4.5-12-7.3-20.7-7.7h-.8l-.2-.8c-.6-3.3 0-6.6 1.7-9.4.2-.4.3-.9.2-1.3-.1-.5-.4-.8-.8-1.1-.1-.4-.4-.5-.7-.5zm-1.3 67.4c-5.2 0-10.1-3-13.8-8.3-3.9-5.6-6-13-6-20.9v-1.1l.6-.2c5.6-1.9 12.2-2.9 19.1-2.9 6.9 0 13.5 1 19.1 2.9l.7.2V67c0 16.1-8.8 29.2-19.7 29.2zM83.3 67.3c.1 7.4 2 14.3 5.6 19.4 3.3 4.8 7.7 7.5 12.1 7.5 9.7 0 17.6-12 17.8-26.9-5.2-1.7-11.4-2.6-17.8-2.6s-12.5.9-17.7 2.6zm39.7-4.4l-.8-.3c-6.1-2.2-13.6-3.4-21.1-3.4-7.6 0-15.1 1.2-21.1 3.4l-.8.3-.4-.8c-.6-1.2-.9-2.4-.9-3.6 0-3.6 2.5-7 7.1-9.6 4.4-2.4 10.1-3.8 16.1-3.8 8.3 0 16 2.6 20.2 6.8 1.4 1.4 3.1 3.7 3.1 6.6 0 1.2-.3 2.4-.9 3.6l-.5.8zm-22-5.7c7.5 0 14.8 1.1 20.9 3.2.2-.6.3-1.3.3-1.9 0-2.2-1.4-4-2.5-5.2-3.8-3.8-11-6.2-18.8-6.2-5.6 0-11.1 1.3-15.2 3.5-3.9 2.2-6.1 5-6.1 7.8 0 .6.1 1.3.3 1.9 6.4-2 13.6-3.1 21.1-3.1z"/><path d="M101 130.4c-26.1 0-46.6-7.3-46.6-16.7 0-7.5 12.7-13.7 32.3-15.9l.2 2c-18 2-30.5 7.8-30.5 13.9 0 8 20.4 14.7 44.6 14.7s44.6-6.7 44.6-14.7c0-6.2-12.5-11.9-30.5-13.9l.2-2c19.6 2.2 32.3 8.5 32.3 15.9 0 9.4-20.4 16.7-46.6 16.7z"/><path d="M101 121c-14.2 0-29.3-3.1-29.3-8.9 0-4.9 10.5-7.1 15-7.8l.3 2c-9.1 1.5-13.3 4-13.3 5.8 0 2.9 10.4 6.9 27.3 6.9s27.3-4 27.3-6.9c0-1.8-4.1-4.3-13.2-5.8l.3-2c4.5.7 14.9 2.9 14.9 7.8 0 5.8-15.1 8.9-29.3 8.9z"/><path class="pst0" d="M50.8 150.6c0 3.1-1.7 5-4.5 5s-4.5-1.9-4.5-5 1.7-5 4.5-5 4.5 1.9 4.5 5zm-8.7 0c0 3 1.6 4.8 4.2 4.8s4.2-1.8 4.2-4.8-1.6-4.8-4.2-4.8-4.2 1.8-4.2 4.8zM60.3 145.8l-4.1 9.7H56l-4.1-9.7h.3l3.9 9.3 3.9-9.3h.3zM69.9 150.8h-8.1c.1 2.8 1.6 4.5 4.1 4.5 1.6 0 3-.8 3.7-2.2l.3.1c-.7 1.4-2.1 2.3-3.9 2.3-2.8 0-4.4-1.9-4.4-5s1.6-5 4.3-5c2.5 0 4.1 1.9 4.1 5.1v.2zm-8.1-.3h7.8c-.1-2.9-1.4-4.7-3.8-4.7-2.5 0-4 1.8-4 4.7zM77.3 146l-.2.2c-.3-.3-.5-.4-1.2-.4-1.8 0-3.1 2-3.1 4v5.6h-.3v-9.7h.3v2.5c.4-1.5 1.6-2.7 3.2-2.7.6.1 1 .3 1.3.5zM87.2 155.2v.3c-.2.1-.4.2-.7.2-.6 0-1.4-.3-1.4-1.8v-.3c-.5 1.4-2.4 2-4 2-1.9 0-3-.9-3-2.3 0-1.5 1-2.3 3.6-2.8l3.4-.6v-1.2c0-1.8-1.1-2.9-3.1-2.9-1.8 0-2.9.7-3.5 2.3l-.3-.2c.6-1.6 1.8-2.4 3.7-2.4 2.2 0 3.4 1.1 3.4 3.1v5.3c0 .9.4 1.4 1.1 1.4.3 0 .6 0 .8-.1zm-2.1-2.7v-2.3l-3.2.6c-2.5.5-3.5 1.3-3.5 2.6s1 2 2.8 2c1.5-.1 3.9-.9 3.9-2.9zM89.1 153.3c0 1.4.5 2 1.4 2 .6 0 .8-.1 1.1-.2v.3c-.3.1-.6.2-1.1.2-1.1 0-1.7-.7-1.7-2.3v-12h.3v12zM93.6 153.3c0 1.4.5 2 1.4 2 .6 0 .8-.1 1.1-.2v.3c-.3.1-.6.2-1.1.2-1.1 0-1.7-.7-1.7-2.3v-12h.3v12zM111.2 155.2v.3c-.2.1-.4.2-.7.2-.6 0-1.4-.3-1.4-1.8v-.3c-.5 1.4-2.4 2-4 2-1.9 0-3-.9-3-2.3 0-1.5 1-2.3 3.6-2.8l3.4-.6v-1.2c0-1.8-1.1-2.9-3.1-2.9-1.8 0-2.9.7-3.5 2.3l-.3-.2c.6-1.6 1.8-2.4 3.7-2.4 2.2 0 3.4 1.1 3.4 3.1v5.3c0 .9.4 1.4 1.1 1.4.4 0 .6 0 .8-.1zm-2.1-2.7v-2.3l-3.2.6c-2.5.5-3.5 1.3-3.5 2.6s1 2 2.8 2c1.5-.1 3.9-.9 3.9-2.9zM120.5 148.2l-.3.1c-.4-1.6-1.7-2.5-3.5-2.5-2.6 0-4.1 1.8-4.1 4.8s1.5 4.8 4.1 4.8c1.8 0 3.4-1 3.7-2.7l.3.1c-.3 1.7-2 2.8-3.9 2.8-2.8 0-4.4-1.9-4.4-5s1.6-5 4.4-5c1.8 0 3.2.9 3.7 2.6zM127.7 154.9c-.4.4-1.1.7-1.9.7-1.6 0-2.3-.9-2.3-2.6v-7h-1.9v-.3h1.9v-2.5l.3-.1v2.6h3.7v.3h-3.7v7c0 1.5.6 2.4 2 2.4.7 0 1.2-.2 1.7-.7l.2.2zM129.1 143.4c0-.3.2-.4.4-.4.3 0 .4.2.4.4 0 .3-.2.4-.4.4-.3.1-.4-.1-.4-.4zm.5 12h-.3v-9.7h.3v9.7zM140.2 145.8l-4.1 9.7h-.3l-4.1-9.7h.3l3.9 9.3 3.9-9.3h.4zM141.9 143.4c0-.3.2-.4.4-.4s.4.2.4.4c0 .3-.2.4-.4.4s-.4-.1-.4-.4zm.6 12h-.3v-9.7h.3v9.7zM150.5 154.9c-.4.4-1.1.7-1.9.7-1.6 0-2.3-.9-2.3-2.6v-7h-1.9v-.3h1.9v-2.5l.3-.1v2.6h3.7v.3h-3.7v7c0 1.5.6 2.4 2 2.4.7 0 1.2-.2 1.7-.7l.2.2zM154.6 157.4c-.7 1.7-1.4 2.2-2.6 2.2-.7 0-1.2-.2-1.5-.6l.2-.3c.3.4.8.6 1.4.6 1 0 1.7-.4 2.3-2l.8-1.9-4.1-9.7h.3l3.6 8.5.3.8.3-.8 3.5-8.5h.3l-4.8 11.7z"/><path class="pst1" d="M100.1 187.6c-48.4 0-87.9-39.4-87.9-87.9s39.4-87.9 87.9-87.9S188 51.2 188 99.7s-39.5 87.9-87.9 87.9zm0-174.7c-47.9 0-86.9 39-86.9 86.9 0 47.9 39 86.9 86.9 86.9 47.9 0 86.9-39 86.9-86.9-.1-47.9-39-86.9-86.9-86.9z"/></symbol><symbol viewBox="0 0 26.94 45.44" id="phone"><title>phone</title><path d="M22.72 45.44H4.22A4.23 4.23 0 0 1 0 41.22v-37A4.23 4.23 0 0 1 4.22 0h18.5a4.23 4.23 0 0 1 4.22 4.23v37a4.23 4.23 0 0 1-4.22 4.21zM4.22.78A3.49 3.49 0 0 0 .74 4.26v37a3.49 3.49 0 0 0 3.48 3.49h18.5a3.49 3.49 0 0 0 3.49-3.49v-37A3.49 3.49 0 0 0 22.72.78z"/><path d="M26.57 8.45H.37a.37.37 0 0 1 0-.74h26.2a.37.37 0 0 1 0 .74zM26.57 37.78H.37a.37.37 0 1 1 0-.74h26.2a.37.37 0 0 1 0 .74zM18.86 5.37H8.07a.37.37 0 0 1 0-.74h10.79a.37.37 0 0 1 0 .74zM13.47 43.13a1.91 1.91 0 1 1 1.91-1.91 1.91 1.91 0 0 1-1.91 1.91zm0-3.08a1.17 1.17 0 1 0 1.17 1.17 1.17 1.17 0 0 0-1.17-1.18z"/></symbol><symbol id="place" viewBox="0 0 50 50"><style>.rst0{fill:#010101}</style><path class="rst0" d="M26 46.9c-.2 0-.4-.1-.6-.3-.6-.8-14.8-20-14.8-28.2 0-8.5 6.9-15.3 15.3-15.3 8.5 0 15.3 6.9 15.3 15.3 0 8.2-14.2 27.4-14.8 28.2.1.2-.1.3-.4.3zm0-42.4c-7.7 0-13.9 6.2-13.9 13.9 0 6.8 11.2 22.8 13.9 26.5 2.7-3.8 13.9-19.7 13.9-26.5 0-7.7-6.2-13.9-13.9-13.9z"/><path class="rst0" d="M26 25c-3.6 0-6.6-3-6.6-6.6s3-6.6 6.6-6.6c3.6 0 6.6 3 6.6 6.6S29.6 25 26 25zm0-11.7c-2.8 0-5.1 2.3-5.1 5.1s2.3 5.1 5.1 5.1 5.1-2.3 5.1-5.1-2.3-5.1-5.1-5.1z"/></symbol><symbol viewBox="0 0 46.35 38.66" id="radio"><title>radio</title><path d="M7.91.21a27.07 27.07 0 0 0 0 38.25.707.707 0 1 0 1-1 25.66 25.66 0 0 1 0-36.25.707.707 0 1 0-1-1zm0 0"/><path d="M12.05 34.32a.7.7 0 0 0 1 0 .7.7 0 0 0 .21-.5.69.69 0 0 0-.21-.49 19.81 19.81 0 0 1 0-28 .707.707 0 0 0-1-1 21.22 21.22 0 0 0 0 30zm0 0"/><path d="M11.7 19.33a15.24 15.24 0 0 0 4.49 10.85.707.707 0 0 0 1-1 13.95 13.95 0 0 1 0-19.7.707.707 0 1 0-1-1 15.23 15.23 0 0 0-4.49 10.84zm0 0M38.44 38.47a27.07 27.07 0 0 0 0-38.25.707.707 0 0 0-1 1 25.66 25.66 0 0 1 .01 36.25.707.707 0 0 0 1 1zm0 0"/><path d="M34.31 4.35a.7.7 0 0 0-1 0 .7.7 0 0 0-.21.5.69.69 0 0 0 .21.49 19.81 19.81 0 0 1 0 28 .707.707 0 0 0 1 1 21.22 21.22 0 0 0 0-30zm0 0"/><path d="M34.65 19.34a15.24 15.24 0 0 0-4.48-10.87.707.707 0 0 0-1 1 13.95 13.95 0 0 1 0 19.7.707.707 0 0 0 1 1 15.23 15.23 0 0 0 4.48-10.83zm0 0M18.8 19.33a4.61 4.61 0 1 0 4.61-4.61 4.62 4.62 0 0 0-4.61 4.61zm7.82 0a3.2 3.2 0 1 1-3.2-3.2 3.21 3.21 0 0 1 3.2 3.2zm0 0"/></symbol><symbol viewBox="0 0 41.45 39.38" id="remote"><title>remote</title><path d="M38.73 28.52h-2.1a.685.685 0 0 1 0-1.37h2.1a1.37 1.37 0 0 0 1.39-1.35V2.69a1.37 1.37 0 0 0-1.39-1.32h-36a1.37 1.37 0 0 0-1.36 1.32V25.8a1.37 1.37 0 0 0 1.36 1.35h11.78a.685.685 0 1 1 0 1.37H2.73A2.74 2.74 0 0 1-.03 25.8V2.69A2.74 2.74 0 0 1 2.73 0h36a2.74 2.74 0 0 1 2.73 2.69V25.8a2.74 2.74 0 0 1-2.73 2.72z"/><path d="M38.73 25.81h-2.1a.685.685 0 0 1 0-1.37h.7V4.08H4.14v20.36h10.37a.685.685 0 1 1 0 1.37H2.73V2.69h36z"/><path d="M31.78 39.38H19.35v-19h12.43zm-11.05-1.37h9.69V21.69h-9.69z"/><path d="M22.8 26.48a1.36 1.36 0 1 1 1.38-1.36 1.37 1.37 0 0 1-1.38 1.36zm0-1.36z"/><path d="M25.57 26.48a1.36 1.36 0 1 1 1.38-1.36 1.37 1.37 0 0 1-1.38 1.36zm0-1.36zM22.8 30.56a1.36 1.36 0 1 1 1.38-1.36 1.37 1.37 0 0 1-1.38 1.36zm0-1.36z"/><path d="M25.57 30.56a1.36 1.36 0 1 1 1.38-1.36 1.37 1.37 0 0 1-1.38 1.36zm0-1.36zM22.8 34.63a1.36 1.36 0 1 1 1.38-1.36 1.37 1.37 0 0 1-1.38 1.36zm0-1.36z"/><path d="M25.57 34.63a1.36 1.36 0 1 1 1.38-1.36 1.37 1.37 0 0 1-1.38 1.36zm0-1.36zM28.33 26.48a1.36 1.36 0 1 1 1.4-1.36 1.37 1.37 0 0 1-1.4 1.36zm0-1.36zM28.33 30.56a1.36 1.36 0 1 1 1.4-1.37 1.37 1.37 0 0 1-1.4 1.37zm0-1.36z"/><path d="M28.33 34.63a1.36 1.36 0 1 1 1.4-1.36 1.37 1.37 0 0 1-1.4 1.36zm0-1.36zM29.82 14.87a.68.68 0 0 1-.38-.11 7.08 7.08 0 0 0-7.75 0 .685.685 0 1 1-.76-1.14 8.46 8.46 0 0 1 9.27 0 .68.68 0 0 1-.38 1.26zM31.91 11.49a.68.68 0 0 1-.39-.12 10.54 10.54 0 0 0-11.91 0 .687.687 0 1 1-.78-1.13 11.91 11.91 0 0 1 13.47 0 .69.69 0 0 1-.39 1.25zM27.73 18.26a.68.68 0 0 1-.35-.1 3.5 3.5 0 0 0-3.6 0 .686.686 0 0 1-.7-1.18 4.87 4.87 0 0 1 5 0 .69.69 0 0 1-.35 1.28z"/></symbol><symbol viewBox="0 0 50 50" id="search"><path d="M46.7 46.5c-.1 0-.3 0-.4-.1L27.9 27.9c-.2-.2-.2-.5 0-.7s.5-.2.7 0l18.5 18.5c.2.2.2.5 0 .7-.1.1-.2.1-.4.1z"/><path d="M17.8 31.2C10 31.2 3.6 24.8 3.6 17 3.6 9.3 10 2.9 17.8 2.9 25.6 2.9 32 9.3 32 17.1c-.1 7.8-6.4 14.1-14.2 14.1zm0-27.3c-7.3 0-13.2 5.9-13.2 13.2s5.9 13.2 13.2 13.2S31 24.4 31 17.1 25 3.9 17.8 3.9z"/><path d="M17.8 27c-.3 0-.5-.2-.5-.5s.2-.5.5-.5c4.9 0 9-4 9-9 0-.3.2-.5.5-.5s.5.2.5.5c-.1 5.6-4.5 10-10 10z"/></symbol><symbol viewBox="0 0 44.77 34.32" id="window"><title>window</title><path d="M40.3 34.32H4.48A4.48 4.48 0 0 1 0 29.84V4.48A4.48 4.48 0 0 1 4.48 0H40.3a4.48 4.48 0 0 1 4.48 4.48v25.37a4.48 4.48 0 0 1-4.48 4.47zM4.48 1.49a3 3 0 0 0-3 3v25.36a3 3 0 0 0 3 3H40.3a3 3 0 0 0 3-3V4.48a3 3 0 0 0-3-3z"/><path d="M44.03 8.95H.75a.75.75 0 0 1 0-1.49h43.28a.75.75 0 0 1 0 1.49zM5.97 5.97a1.49 1.49 0 1 1 1.49-1.49 1.49 1.49 0 0 1-1.49 1.49zm0-1.49zM10.45 5.97a1.49 1.49 0 1 1 1.49-1.49 1.49 1.49 0 0 1-1.49 1.49zm0-1.49zM14.93 5.97a1.49 1.49 0 1 1 1.49-1.49 1.49 1.49 0 0 1-1.49 1.49zm0-1.49z"/></symbol></svg>