<?xml version="1.0" encoding="utf-8"?><svg xmlns="http://www.w3.org/2000/svg" xmlns:xlink="http://www.w3.org/1999/xlink"><symbol viewBox="0 0 50 50" id="arrow_down"><path d="M25 40.1c-.8 0-1.6-.4-2.2-1L1.4 14.7c-1.1-1.2-.9-3 .3-4.1 1.2-1.1 3-.9 4.1.3L25 32.8l19.2-21.9c1.1-1.2 2.9-1.3 4.1-.3 1.2 1.1 1.3 2.9.3 4.1L27.2 39.1c-.6.7-1.4 1-2.2 1z"/></symbol><symbol viewBox="0 0 46 48.6" id="badge_white"><title>badge_white</title><path d="M23.9 3.4c.1-1.1-.1-2.1-.6-3-.2-.4-.7-.5-1-.3s-.5.7-.3 1c.4.7.6 1.5.4 2.3-2 0-4 .8-5.6 2.1-.7.7-1.1 1.6-1.1 2.6 0 .8.3 1.6.8 2.2l.1.1c0 4.3 2.3 7.9 5.3 8.6-.1.6.4 1.1.9 1.1.6.1 1.1-.4 1.1-.9V19c1-.2 1.9-.8 2.7-1.5.3-.3.6-.6.9-1 1.2-1.8 1.8-3.9 1.8-6l.1-.1c.5-.6.8-1.4.8-2.2.1-2.5-2.7-4.5-6.3-4.8zm4 6.8c0 1.9-.5 3.7-1.5 5.3-.7 1.2-2 2-3.4 2.1-2.7 0-4.9-3.3-4.9-7.4v-.1c1.6-.5 3.2-.8 4.9-.8 1.7.1 3.3.3 4.9.9 0-.1 0 0 0 0zm1-2.2c0 .3-.1.6-.2.8-1.8-.6-3.7-.9-5.6-.9-1.9 0-3.8.3-5.6.9-.1-.3-.2-.5-.2-.8 0-.6.3-1.1.7-1.5 1.4-1.2 3.2-1.8 5.1-1.7 3.1 0 5.7 1.5 5.8 3.2zM16.7 24.8c1.1.1 2.1-.2 3-.8.3-.2.4-.7.2-1-.2-.3-.7-.4-1-.2-.7.4-1.5.6-2.3.5-.1-2-.9-4-2.3-5.5-.7-.7-1.6-1.1-2.6-1-.8 0-1.5.4-2.1.9l-.1.1c-4.3.2-7.8 2.6-8.4 5.6-.6 0-1.1.4-1.1 1s.4 1.1 1 1.1h.2c.3 1 .9 1.9 1.6 2.6.3.3.7.6 1.1.8 1.9 1.1 4 1.7 6.2 1.5l.1.1c.6.5 1.4.7 2.2.7 2.4 0 4.2-2.8 4.3-6.4zM10 29c-1.9.1-3.8-.3-5.4-1.3-1.2-.7-2.1-1.9-2.2-3.3-.1-2.7 3.1-5 7.2-5.2h.1c.6 1.6.9 3.2.9 4.9.2 1.7 0 3.3-.6 4.9zm2.3.9c-.3 0-.6-.1-.8-.2.6-1.8.8-3.7.7-5.6 0-1.9-.4-3.8-1.1-5.6.3-.1.5-.2.8-.2.6 0 1.1.3 1.6.7 1.2 1.4 1.9 3.2 1.9 5 0 3.1-1.4 5.8-3.1 5.9zM29.3 24.8c.1 3.6 2 6.4 4.4 6.5.8 0 1.6-.2 2.2-.7l.1-.1c2.1.1 4.3-.4 6.1-1.5.4-.2.7-.5 1.1-.8.8-.7 1.3-1.6 1.6-2.6.6.1 1.1-.3 1.2-.9.1-.6-.3-1.1-.9-1.2h-.2c-.6-3-4.1-5.4-8.4-5.6l-.1-.1c-.6-.5-1.3-.8-2.1-.9-1 0-1.9.4-2.6 1a8.51 8.51 0 0 0-2.3 5.4c-.8.1-1.6-.1-2.3-.5-.3-.2-.8-.1-1 .2-.2.3-.1.8.2 1 .9.6 2 .8 3 .8zM36 29c-.6-1.6-.7-3.3-.7-4.9 0-1.7.4-3.3.9-4.9h.1c4.1.2 7.3 2.5 7.2 5.2-.1 1.4-1 2.6-2.2 3.3-1.5 1-3.4 1.5-5.3 1.3zm-2.2.9c-1.8-.1-3.1-2.8-3-5.9 0-1.8.7-3.6 1.9-5 .4-.4 1-.7 1.6-.7.3 0 .6.1.8.2-.7 1.8-1.1 3.7-1.1 5.6-.1 1.9.1 3.8.7 5.6-.4.1-.6.2-.9.2zM19.2 34.5c.7-.8 1-1.9 1-3 0-.4-.3-.7-.7-.7-.4 0-.7.3-.7.7 0 .8-.2 1.6-.8 2.2-1.8-1-3.9-1.4-5.9-1-.9.2-1.8.8-2.3 1.6-.4.7-.5 1.5-.4 2.3v.2c-2.1 3.8-1.9 8 .3 10.1-.3.5-.1 1.2.3 1.5.5.2 1.2 0 1.5-.5 1 .3 2.1.3 3.1 0 .4-.1.9-.3 1.3-.5 1.9-1 3.5-2.5 4.6-4.4l.2-.1c.7-.3 1.4-.8 1.8-1.5 1.2-1.9-.2-5-3.3-6.9zm.1 7.9c-.9 1.7-2.3 3-4 3.8-1.2.7-2.7.7-4 .1-2.4-1.3-2.6-5.3-.6-8.8v-.1c1.6.3 3.2.9 4.6 1.8 1.6.8 2.9 1.8 4 3.2zm1.9-1.5c-.1.2-.4.5-.6.6-1.3-1.4-2.7-2.6-4.4-3.6-1.6-1-3.4-1.6-5.3-2 0-.3.1-.6.2-.8.3-.5.8-.9 1.4-1 1.8-.3 3.7.1 5.3 1.1 2.7 1.6 4.3 4.2 3.4 5.7zM27.7 33.4c-3.2 1.7-5 4.5-4 6.8.3.7.9 1.3 1.6 1.7l.1.1c.8 2 2.2 3.7 4 4.9l1.2.6c1 .4 2 .5 3 .4.2.6.8.8 1.3.7.6-.2.8-.8.7-1.3 0-.1 0-.1-.1-.2 2.5-1.8 3.2-6 1.5-10v-.2c.2-.8.2-1.6-.1-2.3-.4-.9-1.1-1.5-2-1.9-2-.6-4.1-.6-6 .3-.4-.7-.6-1.5-.5-2.3.1-.4-.2-.8-.6-.8-.4-.1-.8.2-.8.6-.1.9.1 2 .7 2.9zm-1 7.9c2.5-2.3 5.7-3.6 9-3.9v.1c1.6 3.7.9 7.7-1.6 8.7-1.3.5-2.8.3-3.9-.6-1.6-1.1-2.8-2.6-3.5-4.3zM25 39.6c-.7-1.6 1.2-4 4.1-5.3 1.7-.8 3.6-1 5.3-.4.6.2 1 .6 1.3 1.1.1.3.2.6.1.8-3.8.3-7.4 1.8-10.3 4.4-.2-.1-.4-.3-.5-.6z"/></symbol><symbol viewBox="0 0 46.61 46.61" id="box"><title>box</title><path d="M42.59 40.18a.8.8 0 0 1-.8-.8V7.23a.805.805 0 0 1 1.61 0v32.14a.8.8 0 0 1-.81.81zM39.38 4.82H7.24a.805.805 0 0 1 0-1.61h32.14a.805.805 0 1 1 0 1.61zM4.02 40.18a.8.8 0 0 1-.8-.8V7.23a.8.8 0 1 1 1.56 0v32.14a.8.8 0 0 1-.76.81zM39.38 43.39H7.24a.805.805 0 0 1 0-1.61h32.14a.805.805 0 0 1 0 1.61z"/><path d="M8.04 8.04h-8v-8h8zM1.61 6.43h4.82V1.61H1.61zM46.61 8.04h-8v-8h8zm-6.43-1.61H45V1.61h-4.82zM8.04 46.61h-8v-8h8zM1.61 45h4.82v-4.82H1.61zM46.61 46.61h-8v-8h8zM40.18 45H45v-4.82h-4.82z"/></symbol><symbol viewBox="0 0 50 50" id="crown"><path d="M43.3 48.4H6.7c-2.6 0-4-2.1-4-4.2s1.4-4.2 4-4.2h36.6c2.6 0 4 2.1 4 4.2s-1.4 4.2-4 4.2zM6.7 41.7c-1.8 0-2.2 1.5-2.2 2.4 0 .9.5 2.5 2.2 2.5h36.6c1.8 0 2.2-1.5 2.2-2.5s-.5-2.4-2.2-2.4H6.7zM37.7 35.2l-1.7-.6c.5-1.3.7-2.6.7-4 0-6.4-5.1-11.5-11.7-11.5s-11.7 5-11.7 11.5c0 1.3.2 2.6.7 3.9l-1.7.6c-.5-1.4-.8-2.9-.8-4.5 0-7.4 5.9-13.2 13.5-13.2s13.5 5.8 13.5 13.2c0 1.6-.3 3.2-.8 4.6zM25 13.4c-3.2 0-5.9-2.6-5.9-5.9s2.6-5.9 5.9-5.9 5.9 2.6 5.9 5.9-2.7 5.9-5.9 5.9zm0-10c-2.3 0-4.1 1.8-4.1 4.1s1.8 4.1 4.1 4.1 4.1-1.8 4.1-4.1-1.8-4.1-4.1-4.1z"/><path d="M20 6.6h10v1.8H20zM24.1 12.5h1.8v5.8h-1.8z"/><path d="M42.7 41.7H7.2l-.2-.2C3 38.8.8 35 .8 30.8c0-7.7 5.3-13.4 12.5-13.4 2.5 0 4.5.9 5.9 1.6l-.8 1.6c-1.9-1-3.5-1.4-5.1-1.4-6.2 0-10.8 4.9-10.8 11.6 0 4.4 2.8 7.4 5.2 9.1h34.4c2.4-1.6 5.2-4.5 5.2-9.1 0-6.7-4.5-11.6-10.8-11.6-1.7 0-3.2.4-5.1 1.4l-.8-1.6c1.5-.8 3.5-1.6 5.9-1.6C43.8 17.4 49 23 49 30.8c0 4.4-2.2 8.1-6.2 10.7l-.1.2z"/></symbol><symbol viewBox="0 0 50 50" id="download"><path d="M9.1 7.3h29.7v2H9.1z"/><path d="M9.1 12c-1.9 0-3.5-1.6-3.5-3.5S7.2 5 9.1 5H40V3H9.1C6.1 3 4 5.3 4 8.3v34.9C4 45.8 5.8 48 8.4 48H23v-2H8.4C6.9 46 6 44.7 6 43.2V12.5c1 .8 1.8 1.5 3.1 1.5H39v5h2v-7H9.1zM39.7 35.1L37 37.9V30h-2v7.9l-2.8-2.8-1.4 1.4 5.1 5.2 5.2-5.2z"/><path d="M35.9 47.9C28.8 47.9 23 42.1 23 35c0-7.1 5.8-12.9 12.9-12.9s12.8 5.9 12.8 13S43 47.9 35.9 47.9zm0-23.7c-6 0-10.9 4.9-10.9 10.9S29.9 46 35.9 46s10.9-4.9 10.9-10.9-4.9-10.9-10.9-10.9z"/></symbol><symbol viewBox="0 0 22.5 45.3" id="fb"><title>fb</title><path d="M14.8 45.3H5.6V24.5H0v-9.4h5.6V10c0-4.8 2.7-10 10.3-10h6.5v9.2h-5.8c-.1 0-1.7 0-1.7 1.2v4.7h7.7l-1.4 9.4h-6.3l-.1 20.8zm-7.5-1.7h5.8V22.9h6.5l.9-6h-7.4v-6.4c0-2.2 2-2.9 3.4-2.9h4V1.7h-4.8C7.8 1.7 7.1 8 7.1 10v6.8H1.7v6h5.6v20.8z"/></symbol><symbol viewBox="0 0 50 50" id="globe"><path d="M21.6 42.1c-.4 0-.7-.3-.7-.7v-3.5c0-.4.3-.7.7-.7s.7.3.7.7v3.5c0 .3-.3.7-.7.7zM24.3 42.1c-.4 0-.7-.3-.7-.7v-3.5c0-.4.3-.7.7-.7s.7.3.7.7v3.5c0 .3-.3.7-.7.7z"/><path d="M33.2 45.4H12.8c-.3 0-.6-.2-.6-.5-.1-.3 0-.6.2-.8 3.1-2.3 6.7-3.5 10.6-3.5 3.9 0 7.5 1.2 10.6 3.5.2.2.3.5.2.8-.1.3-.3.5-.6.5zM15.1 44h15.8c-2.4-1.3-5.1-2-7.9-2-2.8 0-5.5.7-7.9 2zM23 33.2c-7.5 0-13.6-6.1-13.6-13.6S15.5 6 23 6s13.6 6.1 13.6 13.6S30.5 33.2 23 33.2zm0-25.9c-6.7 0-12.2 5.5-12.2 12.2 0 6.7 5.5 12.2 12.2 12.2 6.7 0 12.2-5.5 12.2-12.2 0-6.7-5.5-12.2-12.2-12.2z"/><path d="M23 38.6c-4.9 0-9.8-1.9-13.5-5.6-.3-.3-.3-.7 0-1 .3-.3.7-.3 1 0 6.9 6.9 18.1 6.9 25 0 6.9-6.9 6.9-18.1 0-25-.3-.3-.3-.7 0-1 .3-.3.7-.3 1 0 7.4 7.4 7.4 19.5 0 26.9-3.8 3.8-8.6 5.7-13.5 5.7z"/><path d="M8.7 34.5c-.2 0-.3-.1-.5-.2-.3-.3-.3-.7 0-1l2.7-2.7c.3-.3.7-.3 1 0 .3.3.3.7 0 1l-2.7 2.7c-.1.2-.3.2-.5.2zM34.5 8.7c-.2 0-.3-.1-.5-.2-.3-.3-.3-.7 0-1l2.7-2.7c.3-.3.7-.3 1 0 .3.3.3.7 0 1L35 8.5c-.1.1-.3.2-.5.2z"/></symbol><symbol id="linkedin" viewBox="0 0 50 50"><style>.hst0{fill:none;stroke:#000;stroke-width:1.7214;stroke-miterlimit:10}</style><path class="hst0" d="M5.1 45.7h7.8V14.5H5.1v31.2zm31.2-31.2c-6.7.1-10 5-10.4 5.2v-5.2h-7.8v31.2h7.8V27.5c0-.7 1.6-6 7.8-5.2 3.3.2 5.1 4.6 5.2 5.2v18.2h7.8V24.1c-.3-3.1-1.9-9.5-10.4-9.6zM9 4.1C6.8 4.1 5.1 5.8 5.1 8s1.7 3.9 3.9 3.9 3.9-1.7 3.9-3.9S11.1 4.1 9 4.1z"/></symbol><symbol viewBox="0 0 44.1 29.2" id="mail"><title>mail</title><path d="M40.6 29.2H3.5c-1.9 0-3.4-1.5-3.5-3.4V3.5C.1 1.6 1.6.1 3.5 0h37.2c1.9.1 3.4 1.6 3.5 3.5v22.3c-.2 1.9-1.7 3.4-3.6 3.4zM3.5 1C2.1 1.1 1.1 2.1 1 3.5v22.3c.1 1.3 1.1 2.4 2.5 2.4h37.2c1.3 0 2.4-1.1 2.5-2.4V3.5C43 2.1 42 1.1 40.6 1H3.5z"/><path d="M22 18.8c-.1 0-.2 0-.3-.1L6.2 8.3c-.2-.1-.3-.4-.1-.7.2-.2.4-.2.6-.1L22 17.7 37.4 7.5c.2-.2.5-.1.7.1.2.2.1.5-.1.7 0 0-.1 0-.1.1L22.3 18.7c-.1.1-.2.1-.3.1zM6.4 22.5c-.3 0-.5-.2-.5-.5 0-.2.1-.3.2-.4l6.7-4.5c.2-.2.5-.1.7.1.2.2.1.5-.1.7 0 0-.1 0-.1.1l-6.7 4.5h-.2zM37.7 22.5c-.1 0-.2 0-.3-.1L30.7 18c-.2-.1-.3-.4-.2-.7.1-.2.4-.3.7-.2 0 0 .1 0 .1.1l6.7 4.5c.2.1.3.5.1.7-.1.1-.3.2-.4.1z"/></symbol><symbol id="menu" viewBox="0 0 40 36.96"><defs><style>.jcls-1{fill:none}</style></defs><title>menu</title><path d="M0 .8h40v1.6H0zM0 12h40v1.6H0zM0 23.2h40v1.6H0zM0 34.4h40V36H0z"/><path class="jcls-1" d="M0 0h39.84v36.96H0z"/></symbol><symbol viewBox="0 0 26.94 45.44" id="phone"><title>phone</title><path d="M22.72 45.44H4.22A4.23 4.23 0 0 1 0 41.22v-37A4.23 4.23 0 0 1 4.22 0h18.5a4.23 4.23 0 0 1 4.22 4.23v37a4.23 4.23 0 0 1-4.22 4.21zM4.22.78A3.49 3.49 0 0 0 .74 4.26v37a3.49 3.49 0 0 0 3.48 3.49h18.5a3.49 3.49 0 0 0 3.49-3.49v-37A3.49 3.49 0 0 0 22.72.78z"/><path d="M26.57 8.45H.37a.37.37 0 0 1 0-.74h26.2a.37.37 0 0 1 0 .74zM26.57 37.78H.37a.37.37 0 1 1 0-.74h26.2a.37.37 0 0 1 0 .74zM18.86 5.37H8.07a.37.37 0 0 1 0-.74h10.79a.37.37 0 0 1 0 .74zM13.47 43.13a1.91 1.91 0 1 1 1.91-1.91 1.91 1.91 0 0 1-1.91 1.91zm0-3.08a1.17 1.17 0 1 0 1.17 1.17 1.17 1.17 0 0 0-1.17-1.18z"/></symbol><symbol id="place" viewBox="0 0 50 50"><style>.lst0{fill:#010101}</style><path class="lst0" d="M26 46.9c-.2 0-.4-.1-.6-.3-.6-.8-14.8-20-14.8-28.2 0-8.5 6.9-15.3 15.3-15.3 8.5 0 15.3 6.9 15.3 15.3 0 8.2-14.2 27.4-14.8 28.2.1.2-.1.3-.4.3zm0-42.4c-7.7 0-13.9 6.2-13.9 13.9 0 6.8 11.2 22.8 13.9 26.5 2.7-3.8 13.9-19.7 13.9-26.5 0-7.7-6.2-13.9-13.9-13.9z"/><path class="lst0" d="M26 25c-3.6 0-6.6-3-6.6-6.6s3-6.6 6.6-6.6c3.6 0 6.6 3 6.6 6.6S29.6 25 26 25zm0-11.7c-2.8 0-5.1 2.3-5.1 5.1s2.3 5.1 5.1 5.1 5.1-2.3 5.1-5.1-2.3-5.1-5.1-5.1z"/></symbol><symbol viewBox="0 0 46.35 38.66" id="radio"><title>radio</title><path d="M7.91.21a27.07 27.07 0 0 0 0 38.25.707.707 0 1 0 1-1 25.66 25.66 0 0 1 0-36.25.707.707 0 1 0-1-1zm0 0"/><path d="M12.05 34.32a.7.7 0 0 0 1 0 .7.7 0 0 0 .21-.5.69.69 0 0 0-.21-.49 19.81 19.81 0 0 1 0-28 .707.707 0 0 0-1-1 21.22 21.22 0 0 0 0 30zm0 0"/><path d="M11.7 19.33a15.24 15.24 0 0 0 4.49 10.85.707.707 0 0 0 1-1 13.95 13.95 0 0 1 0-19.7.707.707 0 1 0-1-1 15.23 15.23 0 0 0-4.49 10.84zm0 0M38.44 38.47a27.07 27.07 0 0 0 0-38.25.707.707 0 0 0-1 1 25.66 25.66 0 0 1 .01 36.25.707.707 0 0 0 1 1zm0 0"/><path d="M34.31 4.35a.7.7 0 0 0-1 0 .7.7 0 0 0-.21.5.69.69 0 0 0 .21.49 19.81 19.81 0 0 1 0 28 .707.707 0 0 0 1 1 21.22 21.22 0 0 0 0-30zm0 0"/><path d="M34.65 19.34a15.24 15.24 0 0 0-4.48-10.87.707.707 0 0 0-1 1 13.95 13.95 0 0 1 0 19.7.707.707 0 0 0 1 1 15.23 15.23 0 0 0 4.48-10.83zm0 0M18.8 19.33a4.61 4.61 0 1 0 4.61-4.61 4.62 4.62 0 0 0-4.61 4.61zm7.82 0a3.2 3.2 0 1 1-3.2-3.2 3.21 3.21 0 0 1 3.2 3.2zm0 0"/></symbol><symbol viewBox="0 0 41.45 39.38" id="remote"><title>remote</title><path d="M38.73 28.52h-2.1a.685.685 0 0 1 0-1.37h2.1a1.37 1.37 0 0 0 1.39-1.35V2.69a1.37 1.37 0 0 0-1.39-1.32h-36a1.37 1.37 0 0 0-1.36 1.32V25.8a1.37 1.37 0 0 0 1.36 1.35h11.78a.685.685 0 1 1 0 1.37H2.73A2.74 2.74 0 0 1-.03 25.8V2.69A2.74 2.74 0 0 1 2.73 0h36a2.74 2.74 0 0 1 2.73 2.69V25.8a2.74 2.74 0 0 1-2.73 2.72z"/><path d="M38.73 25.81h-2.1a.685.685 0 0 1 0-1.37h.7V4.08H4.14v20.36h10.37a.685.685 0 1 1 0 1.37H2.73V2.69h36z"/><path d="M31.78 39.38H19.35v-19h12.43zm-11.05-1.37h9.69V21.69h-9.69z"/><path d="M22.8 26.48a1.36 1.36 0 1 1 1.38-1.36 1.37 1.37 0 0 1-1.38 1.36zm0-1.36z"/><path d="M25.57 26.48a1.36 1.36 0 1 1 1.38-1.36 1.37 1.37 0 0 1-1.38 1.36zm0-1.36zM22.8 30.56a1.36 1.36 0 1 1 1.38-1.36 1.37 1.37 0 0 1-1.38 1.36zm0-1.36z"/><path d="M25.57 30.56a1.36 1.36 0 1 1 1.38-1.36 1.37 1.37 0 0 1-1.38 1.36zm0-1.36zM22.8 34.63a1.36 1.36 0 1 1 1.38-1.36 1.37 1.37 0 0 1-1.38 1.36zm0-1.36z"/><path d="M25.57 34.63a1.36 1.36 0 1 1 1.38-1.36 1.37 1.37 0 0 1-1.38 1.36zm0-1.36zM28.33 26.48a1.36 1.36 0 1 1 1.4-1.36 1.37 1.37 0 0 1-1.4 1.36zm0-1.36zM28.33 30.56a1.36 1.36 0 1 1 1.4-1.37 1.37 1.37 0 0 1-1.4 1.37zm0-1.36z"/><path d="M28.33 34.63a1.36 1.36 0 1 1 1.4-1.36 1.37 1.37 0 0 1-1.4 1.36zm0-1.36zM29.82 14.87a.68.68 0 0 1-.38-.11 7.08 7.08 0 0 0-7.75 0 .685.685 0 1 1-.76-1.14 8.46 8.46 0 0 1 9.27 0 .68.68 0 0 1-.38 1.26zM31.91 11.49a.68.68 0 0 1-.39-.12 10.54 10.54 0 0 0-11.91 0 .687.687 0 1 1-.78-1.13 11.91 11.91 0 0 1 13.47 0 .69.69 0 0 1-.39 1.25zM27.73 18.26a.68.68 0 0 1-.35-.1 3.5 3.5 0 0 0-3.6 0 .686.686 0 0 1-.7-1.18 4.87 4.87 0 0 1 5 0 .69.69 0 0 1-.35 1.28z"/></symbol><symbol viewBox="0 0 44.77 34.32" id="window"><title>window</title><path d="M40.3 34.32H4.48A4.48 4.48 0 0 1 0 29.84V4.48A4.48 4.48 0 0 1 4.48 0H40.3a4.48 4.48 0 0 1 4.48 4.48v25.37a4.48 4.48 0 0 1-4.48 4.47zM4.48 1.49a3 3 0 0 0-3 3v25.36a3 3 0 0 0 3 3H40.3a3 3 0 0 0 3-3V4.48a3 3 0 0 0-3-3z"/><path d="M44.03 8.95H.75a.75.75 0 0 1 0-1.49h43.28a.75.75 0 0 1 0 1.49zM5.97 5.97a1.49 1.49 0 1 1 1.49-1.49 1.49 1.49 0 0 1-1.49 1.49zm0-1.49zM10.45 5.97a1.49 1.49 0 1 1 1.49-1.49 1.49 1.49 0 0 1-1.49 1.49zm0-1.49zM14.93 5.97a1.49 1.49 0 1 1 1.49-1.49 1.49 1.49 0 0 1-1.49 1.49zm0-1.49z"/></symbol></svg>