<?xml version="1.0" encoding="utf-8"?>
<!-- Generator: Adobe Illustrator 21.0.0, SVG Export Plug-In . SVG Version: 6.00 Build 0)  -->
<svg version="1.1" id="Layer_1" xmlns="http://www.w3.org/2000/svg" xmlns:xlink="http://www.w3.org/1999/xlink" x="0px" y="0px"
	 viewBox="0 0 300 300" style="enable-background:new 0 0 300 300;" xml:space="preserve">
<style type="text/css">
	.st0{fill:#1A1A1A;}
	.st1{fill-rule:evenodd;clip-rule:evenodd;fill:#F4777C;}
	.st2{fill:#F4777C;}
</style>
<g>
	<path class="st0" d="M90,251.1H65.3l-5,16.2H41.5l25.2-71.6H89l25.1,71.6H94.9L90,251.1z M86.1,238.4l-5.2-17.1L77.7,210h-0.2
		l-2.9,11.2l-5.4,17.3H86.1z"/>
	<path class="st0" d="M180.9,207.5l-10.5,12.2c-4.8-7.2-10.9-10.5-20-10.5c-7.7,0-11.7,3-11.7,7.2c0,3.7,3.4,5.9,14.3,7.8
		c19.6,3.4,27.3,9.7,27.3,22.2c0,14-13,22-30.3,22c-16.9,0-25.8-4.3-32.9-12.2l9.7-13.1c5.8,8.2,12.7,10.9,22.2,10.9
		c8,0,11.9-2.5,11.9-6.6c0-3.3-3.4-5.1-14-7.2c-20.1-3.7-27.8-10-27.8-22.2c0-13.5,11.2-23.3,30.8-23.3
		C163.6,194.6,172.7,198.2,180.9,207.5z"/>
	<path class="st0" d="M221.5,241.1h-11.2v26.1H192v-71.6h34.2c17.3,0,27,8,27,22.8c0,10.4-4.9,17.5-14,20.7l18.2,28.1h-20.6
		L221.5,241.1z M210.3,227.9H223c7.9,0,11.4-2.7,11.4-9.1c0-6.3-3.5-9-11.4-9h-12.7V227.9z"/>
</g>
<g>
	<path d="M63,291.9l-0.1,1.6c-0.3,0.1-0.9,0.3-1.5,0.3c-1.2,0-2-0.5-2.2-1.8c-0.8,1.2-2.4,1.8-4,1.8c-2.3,0-4.2-1.1-4.2-3.3
		c0-1.9,1.6-3.3,4.9-3.9l3.3-0.5v-0.7c0-1.6-1-2.7-2.9-2.7c-1.6,0-2.9,0.8-3.6,2.4l-1.5-1.1c0.6-1.8,2.6-3,5-3
		c2.8,0,4.9,1.3,4.9,4.2v6.1c0,0.6,0.2,0.9,0.9,0.9C62.3,292,62.7,291.9,63,291.9z M59,289.3v-1.7l-2.8,0.5
		c-2.2,0.4-3.3,1.1-3.3,2.3c0,1,0.8,1.6,2.3,1.6C57.2,291.9,59,290.9,59,289.3z"/>
	<path d="M76.7,281v12.5H75l-0.1-1.9c-0.9,1.5-2.5,2.1-4.5,2.1c-2.5,0-4.6-1.3-4.6-4.6V281h2v7.6c0,2.6,1.1,3.3,2.9,3.3
		c2.1,0,4-1.2,4-4.2V281H76.7z"/>
	<path d="M92.5,275.2v18.2h-1.7l-0.1-2.2c-0.7,1.4-2.3,2.4-4.3,2.4c-3.5,0-5.7-2.4-5.7-6.5c0-4.1,2.2-6.5,5.7-6.5
		c1.9,0,3.4,0.9,4.1,2.2v-7.7H92.5z M90.5,287.4v-0.3c0-2.8-1.5-4.6-3.9-4.6c-2.4,0-3.9,1.8-3.9,4.7c0,2.9,1.5,4.7,3.9,4.7
		C88.9,291.9,90.5,290.2,90.5,287.4z"/>
	<path d="M96.6,277.1c0-0.9,0.6-1.5,1.5-1.5c0.9,0,1.5,0.6,1.5,1.5s-0.6,1.5-1.5,1.5C97.2,278.6,96.6,278,96.6,277.1z M99.1,293.4
		h-2V281h2V293.4z"/>
	<path d="M111.4,292.6c-0.8,0.7-1.8,1.1-3.2,1.1c-1.8,0-3.4-0.9-3.5-3.3v-7.7h-2.5V281h2.5v-3l2-0.5v3.5h4.6v1.7h-4.6v7.3
		c0,1.2,0.8,1.8,1.9,1.8c0.9,0,1.5-0.3,2.1-0.9L111.4,292.6z"/>
	<path d="M113.7,277.1c0-0.9,0.6-1.5,1.5-1.5c0.9,0,1.5,0.6,1.5,1.5s-0.6,1.5-1.5,1.5C114.3,278.6,113.7,278,113.7,277.1z
		 M116.2,293.4h-2V281h2V293.4z"/>
	<path d="M131.8,285.5v8h-2v-7.3c0-2.8-1.3-3.7-3.1-3.7c-1.8,0-3.9,1.1-3.9,4.3v6.6h-2V281h1.7l0.1,1.9c0.9-1.6,2.5-2.2,4.2-2.2
		C129.6,280.7,131.8,282.2,131.8,285.5z"/>
	<path d="M147.1,294.8c0,2.5-2.8,4-6.2,4c-3.9,0-5.7-1.4-5.7-3.3c0-1.1,0.8-2,2.2-2.4c-0.9-0.4-1.7-1.2-1.7-2.3
		c0-1.3,0.8-2.1,1.9-2.4c-1.2-0.7-1.8-2-1.8-3.4c0-2.5,2.1-4.2,5.1-4.2c0.9,0,1.8,0.2,2.5,0.5c0.5-1.7,1.6-2.5,3.5-2.5l0.4,1.7
		c-1.7,0-2.6,0.5-3,1.4c1,0.7,1.6,1.8,1.6,3.1c0,2.5-2.1,4.2-5.1,4.2c-0.7,0-1.4-0.1-1.9-0.2c-1,0.2-1.4,0.7-1.4,1.6
		c0,0.9,0.7,1.3,1.6,1.3h4.1C145.7,291.8,147.1,293,147.1,294.8z M145.2,295c0-0.9-0.6-1.5-2.5-1.5h-3.3c-1.6,0-2.4,0.6-2.4,1.5
		c0,1.2,1.4,2,4.1,2C143.8,297.1,145.2,296.1,145.2,295z M137.8,284.9c0,1.5,1.3,2.6,3,2.6c1.7,0,3-1,3-2.6s-1.3-2.6-3-2.6
		C139.1,282.3,137.8,283.4,137.8,284.9z"/>
	<path d="M169,284l-1.9,0.9c-0.5-1.6-1.6-2.5-3.3-2.5c-2.5,0-4,1.8-4,4.7c0,3,1.5,4.7,4,4.7c1.9,0,3.1-0.9,3.5-2.6l1.8,0.6
		c-0.8,2.3-2.6,3.7-5.3,3.7c-3.8,0-6-2.4-6-6.5c0-4,2.3-6.5,6-6.5C166.4,280.7,168.1,282,169,284z"/>
	<path d="M179.9,281l-0.4,1.9c-0.4-0.2-0.9-0.3-1.6-0.3c-1.5,0-3.3,1.3-3.3,4.1v6.7h-2V281h1.6l0.3,2c0.7-1.5,2-2.3,4-2.3
		C179,280.7,179.5,280.8,179.9,281z"/>
	<path d="M193.7,281v12.5h-1.7l-0.1-1.9c-0.9,1.5-2.5,2.1-4.5,2.1c-2.5,0-4.6-1.3-4.6-4.6V281h2v7.6c0,2.6,1.1,3.3,2.9,3.3
		c2.1,0,4-1.2,4-4.2V281H193.7z"/>
	<path d="M209.3,285.5v8h-2v-7.3c0-2.8-1.3-3.7-3.1-3.7c-1.8,0-3.9,1.1-3.9,4.3v6.6h-2V281h1.7l0.1,1.9c0.9-1.6,2.5-2.2,4.2-2.2
		C207.1,280.7,209.3,282.2,209.3,285.5z"/>
	<path d="M224.2,284l-1.9,0.9c-0.5-1.6-1.6-2.5-3.3-2.5c-2.5,0-4,1.8-4,4.7c0,3,1.5,4.7,4,4.7c1.9,0,3.1-0.9,3.5-2.6l1.8,0.6
		c-0.8,2.3-2.6,3.7-5.3,3.7c-3.8,0-6-2.4-6-6.5c0-4,2.3-6.5,6-6.5C221.6,280.7,223.3,282,224.2,284z"/>
	<path d="M238.8,285.5v8h-2v-7.3c0-2.8-1.3-3.7-3.1-3.7c-1.8,0-3.9,1.2-3.9,4.4v6.6h-2v-18.2h2v7.6c0.9-1.5,2.4-2.1,4.1-2.1
		C236.6,280.7,238.8,282.2,238.8,285.5z"/>
</g>
<g>
	<path class="st1" d="M177.1,31.9c-32-27.4-70.1-33.9-90-14C81,24,77.2,32.4,76,42.2l-0.2,2c-18.5,18.7-30.9,41.4-34.9,64
		c-1,5.3-1.4,10.5-1.4,15.5c0,12.9,3.2,24.6,9.3,34.3c-4.6,5.9-5.1,13.5-0.7,17.8c4.4,4.4,12,3.9,17.9-0.8
		c30.1,18.7,78,8.2,113.7-26.9l2-0.2c9.8-1.1,18.2-4.9,24.3-11.1c7.5-7.5,11.5-18,11.5-30.3c0-20.2-10.6-43.2-28.4-62.8
		c5.1-7.6,13-13.1,21.9-15.2c4.5-1.1,7.3-5.5,6.2-10c-1-4.5-5.5-7.3-10-6.2C195.1,15,184.5,22.1,177.1,31.9L177.1,31.9z M88.3,55.3
		c0.3-0.3,0.5-0.5,0.8-0.8c15.6,7.6,31.7,19.4,46.3,34c14.5,14.6,26.3,30.7,34,46.3c-0.3,0.3-0.5,0.5-0.8,0.8
		c-33.3,33.3-78.3,42.3-100.5,20.2c-10.3-10.3-14.2-26.2-10.9-44.6C60.8,91.6,71.8,71.7,88.3,55.3L88.3,55.3z M98.9,29.7
		c14.3-14.3,48.3-4.6,74.1,21.2c17.1,17.1,27.8,38.4,27.8,55.6c0,5.4-1.1,13.1-6.6,18.5c-2.3,2.3-5.1,3.9-8.5,5.1
		c-8.4-18.1-21.8-36.8-38.5-53.4C130.6,60,111.9,46.6,93.9,38.2C95,34.8,96.7,32,98.9,29.7L98.9,29.7z M98.9,29.7"/>
</g>
<path class="st2" d="M101.8,159.7c-1,0-2.1-0.3-3-0.9l-32.9-21.9c-2.5-1.7-3.2-5-1.5-7.5c1.7-2.5,5-3.2,7.5-1.5l26.3,17.6
	c3-11.2,10.6-32.6,28.4-54.3c1.9-2.3,5.3-2.6,7.6-0.8c2.3,1.9,2.6,5.3,0.8,7.6c-23.3,28.5-27.8,56.8-27.9,57.1
	c-0.3,1.8-1.5,3.4-3.2,4.1C103.3,159.6,102.5,159.7,101.8,159.7z"/>
</svg>
