<?xml version="1.0" encoding="utf-8"?>
<!-- Generator: Adobe Illustrator 21.0.0, SVG Export Plug-In . SVG Version: 6.00 Build 0)  -->
<svg version="1.1" id="Layer_1" xmlns="http://www.w3.org/2000/svg" xmlns:xlink="http://www.w3.org/1999/xlink" x="0px" y="0px"
	 viewBox="0 0 300 300" style="enable-background:new 0 0 300 300;" xml:space="preserve">
<style type="text/css">
	.st0{fill-rule:evenodd;clip-rule:evenodd;fill:#C1272D;}
	.st1{fill:#1A1A1A;}
	.st2{fill:#C1272D;}
</style>
<g>
	<path class="st0" d="M181.4,32.1c-30.9-26.5-67.8-32.7-87-13.6c-5.9,5.9-9.6,14.1-10.7,23.5l-0.2,1.9C65.7,62,53.7,84,49.8,105.8
		c-0.9,5.1-1.4,10.1-1.4,15c0,12.5,3.1,23.8,9,33.2c-4.4,5.7-4.9,13-0.7,17.2c4.2,4.2,11.6,3.8,17.3-0.8
		c29.1,18.1,75.4,7.9,109.9-26.1l2-0.2c9.4-1.1,17.6-4.8,23.5-10.7c7.3-7.3,11.1-17.4,11.1-29.3c0-19.5-10.2-41.8-27.5-60.7
		c4.9-7.4,12.5-12.7,21.2-14.7c4.3-1,7.1-5.3,6-9.7c-1-4.3-5.3-7-9.7-6C198.9,15.7,188.6,22.6,181.4,32.1L181.4,32.1z M95.6,54.6
		c0.3-0.3,0.5-0.5,0.8-0.8c15.1,7.3,30.7,18.8,44.8,32.8c14.1,14.1,25.5,29.7,32.8,44.8c-0.3,0.3-0.5,0.5-0.8,0.8
		c-32.2,32.2-75.7,40.9-97.1,19.5c-10-10-13.7-25.3-10.5-43.1C69,89.7,79.7,70.6,95.6,54.6L95.6,54.6z M105.9,29.9
		c13.9-13.9,46.7-4.5,71.6,20.5c16.5,16.5,26.8,37.2,26.8,53.8c0,5.3-1.1,12.6-6.4,17.9c-2.2,2.2-4.9,3.8-8.2,4.9
		c-8.1-17.5-21.1-35.6-37.2-51.6c-16.1-16.1-34.2-29.1-51.6-37.2C102.1,34.8,103.7,32.1,105.9,29.9L105.9,29.9z M105.9,29.9"/>
</g>
<g>
	<path class="st1" d="M78.1,268.1c-21.3,0-34.3-13.5-34.3-36s13.1-36,34.2-36c14.6,0,26.4,6,29.9,19.3l-16,6.5
		c-2-8.7-6-11.4-13.2-11.4c-10.2,0-16.2,7.4-16.2,21.7c0,14.2,5.6,21.7,15.9,21.7c7.8,0,12.2-3.6,13.9-11.4l16.5,4.7
		C104.6,261.6,92.9,268.1,78.1,268.1z"/>
	<path class="st1" d="M181.9,267h-20.2L140,229.2l-5.3-10.6h-0.1l0.4,13.1V267h-16.1v-69.9h20.2l21.7,37.8l5.3,10.6h0.1l-0.4-13.1
		v-35.3h16.1V267z"/>
	<path class="st1" d="M254.8,208.6l-10.3,11.9c-4.7-7-10.6-10.3-19.5-10.3c-7.5,0-11.4,3-11.4,7c0,3.6,3.3,5.7,14,7.6
		c19.2,3.3,26.7,9.4,26.7,21.7c0,13.7-12.7,21.5-29.6,21.5c-16.5,0-25.2-4.2-32.1-11.9l9.4-12.8c5.6,8.1,12.4,10.6,21.7,10.6
		c7.8,0,11.7-2.4,11.7-6.5c0-3.2-3.3-5-13.7-7c-19.6-3.6-27.1-9.7-27.1-21.7c0-13.1,10.9-22.8,30.1-22.8
		C237.8,196,246.7,199.6,254.8,208.6z"/>
</g>
<g>
	<path d="M56.3,292.8c-4.6,0-7.5-3.2-7.5-8.3s2.9-8.3,7.4-8.3c3.1,0,5.2,1.3,6.2,3.8l-1.9,0.9c-0.7-1.9-2-2.8-4.2-2.8
		c-3.3,0-5.5,2.4-5.5,6.5c0,4.1,2.1,6.5,5.4,6.5c2.1,0,3.8-1.1,4.5-3.3l2,0.7C61.8,291.2,59.3,292.8,56.3,292.8z"/>
	<path d="M77.9,278.3h-5.6v14.3h-2v-14.3h-5.6v-1.8h13.2V278.3z"/>
	<path d="M83.2,278.3v5.2h7.3v1.8h-7.3v7.2h-2v-16.1h11.3v1.8H83.2z"/>
	<path d="M113.8,283.4l-1.9,0.9c-0.5-1.6-1.6-2.4-3.2-2.4c-2.4,0-3.9,1.7-3.9,4.6s1.5,4.6,3.9,4.6c1.9,0,3-0.9,3.4-2.5l1.8,0.6
		c-0.8,2.2-2.6,3.6-5.2,3.6c-3.7,0-5.9-2.4-5.9-6.3c0-4,2.2-6.3,5.9-6.3C111.2,280.1,112.9,281.4,113.8,283.4z"/>
	<path d="M124.4,280.4l-0.4,1.9c-0.4-0.2-0.9-0.3-1.5-0.3c-1.5,0-3.2,1.3-3.2,4v6.6h-2v-12.2h1.6l0.3,2c0.7-1.5,2-2.2,3.9-2.2
		C123.5,280.1,124.1,280.2,124.4,280.4z"/>
	<path d="M137.8,280.4v12.2h-1.7l-0.1-1.9c-0.9,1.5-2.4,2.1-4.4,2.1c-2.4,0-4.5-1.2-4.5-4.5v-8h2v7.5c0,2.5,1.1,3.3,2.9,3.3
		c2.1,0,3.9-1.2,3.9-4.1v-6.6H137.8z"/>
	<path d="M153.1,284.8v7.8h-2v-7.1c0-2.7-1.3-3.6-3-3.6c-1.8,0-3.8,1.1-3.8,4.2v6.5h-2v-12.2h1.7l0.1,1.9c0.9-1.5,2.4-2.1,4.1-2.1
		C150.9,280.1,153.1,281.6,153.1,284.8z"/>
	<path d="M167.7,283.4l-1.9,0.9c-0.5-1.6-1.6-2.4-3.2-2.4c-2.4,0-3.9,1.7-3.9,4.6s1.5,4.6,3.9,4.6c1.9,0,3-0.9,3.4-2.5l1.8,0.6
		c-0.8,2.2-2.6,3.6-5.2,3.6c-3.7,0-5.9-2.4-5.9-6.3c0-4,2.2-6.3,5.9-6.3C165.1,280.1,166.8,281.4,167.7,283.4z"/>
	<path d="M181.9,284.8v7.8h-2v-7.1c0-2.7-1.3-3.6-3-3.6c-1.8,0-3.8,1.1-3.8,4.3v6.5h-2v-17.8h2v7.4c0.9-1.5,2.3-2.1,4-2.1
		C179.8,280.1,181.9,281.6,181.9,284.8z"/>
</g>
<g>
	
		<rect x="83.7" y="99.7" transform="matrix(0.9654 -0.2609 0.2609 0.9654 -33.5466 27.2984)" class="st2" width="4.7" height="80.6"/>
	<path class="st2" d="M108.5,140.3l-8.8-32.5l6.4-9l3.8,2.7l-2,2.8l35.1-9.5l-3.9,19.1l13,14.6L108.5,140.3z M105.1,109.9l6.7,24.7
		l31.8-8.6l-9.5-10.7l2.8-14L105.1,109.9z"/>
	<polygon class="st2" points="83.7,140.4 74.6,106.7 109.5,97.3 111.8,105.6 107.3,106.9 106.2,103 80.4,110 87,134.7 107.9,129.1 
		109.1,133.6 	"/>
</g>
</svg>
