<?xml version="1.0" encoding="utf-8"?>
<!-- Generator: Adobe Illustrator 21.0.0, SVG Export Plug-In . SVG Version: 6.00 Build 0)  -->
<svg version="1.1" id="Layer_1" xmlns="http://www.w3.org/2000/svg" xmlns:xlink="http://www.w3.org/1999/xlink" x="0px" y="0px"
	 viewBox="0 0 300 300" style="enable-background:new 0 0 300 300;" xml:space="preserve">
<style type="text/css">
	.st0{fill-rule:evenodd;clip-rule:evenodd;fill:#4D4D4D;}
	.st1{fill:#1A1A1A;}
	.st2{fill:#4D4D4D;stroke:#4D4D4D;stroke-width:2.0453;stroke-linecap:round;stroke-linejoin:round;stroke-miterlimit:10;}
</style>
<g>
	<path class="st0" d="M191.8,29.6c-32-27.4-70.3-33.9-90.1-14.1c-6.2,6.2-10,14.6-11.1,24.4l-0.2,2c-18.5,18.8-30.9,41.5-35,64.1
		c-1,5.3-1.4,10.5-1.4,15.5c0,13,3.2,24.7,9.3,34.4c-4.6,5.9-5.1,13.5-0.7,17.9c4.4,4.4,12.1,3.9,17.9-0.8
		c30.1,18.8,78.2,8.2,113.9-27l2-0.2c9.8-1.1,18.2-5,24.4-11.1c7.5-7.5,11.5-18,11.5-30.4c0-20.2-10.6-43.3-28.5-62.9
		c5.1-7.6,13-13.2,22-15.2c4.5-1.1,7.3-5.5,6.3-10c-1-4.5-5.5-7.3-10-6.3C209.9,12.6,199.3,19.8,191.8,29.6L191.8,29.6z M102.9,53
		c0.3-0.3,0.6-0.5,0.8-0.8c15.6,7.6,31.8,19.5,46.4,34c14.6,14.6,26.4,30.8,34,46.4c-0.3,0.3-0.5,0.5-0.8,0.8
		c-33.3,33.3-78.5,42.4-100.7,20.2c-10.3-10.3-14.2-26.2-10.9-44.7C75.4,89.4,86.4,69.5,102.9,53L102.9,53z M113.6,27.4
		c14.4-14.4,48.4-4.7,74.2,21.2c17.1,17.1,27.8,38.5,27.8,55.7c0,5.4-1.1,13.1-6.6,18.6c-2.3,2.3-5.1,3.9-8.5,5.1
		c-8.4-18.1-21.9-36.8-38.5-53.5c-16.7-16.6-35.4-30.1-53.5-38.5C109.6,32.5,111.3,29.6,113.6,27.4L113.6,27.4z M113.6,27.4"/>
</g>
<g>
	<path class="st1" d="M84.8,270.6c-22.1,0-35.6-13.9-35.6-37.3s13.6-37.3,35.5-37.3c15.1,0,27.3,6.3,31,20l-16.6,6.7
		c-2.1-9-6.3-11.9-13.7-11.9c-10.5,0-16.8,7.7-16.8,22.5c0,14.7,5.8,22.5,16.5,22.5c8.1,0,12.6-3.7,14.4-11.9l17.1,4.8
		C112.2,263.9,100.1,270.6,84.8,270.6z"/>
	<path class="st1" d="M188.3,221.1c0,14.8-10,23.3-28,23.3h-14.4v25.1H127V197h33.3C178.3,197,188.3,205.5,188.3,221.1z
		 M169.3,220.9c0-6.4-3.6-9.6-12-9.6h-11.4v19.2h11.4C165.7,230.5,169.3,227.3,169.3,220.9z"/>
	<path class="st1" d="M255.6,254.9v14.6h-55.2V197h18.9v57.8H255.6z"/>
</g>
<g>
	<path d="M57.5,296h-2v-16.7h2V296z"/>
	<path d="M69,289.1h-4v6.9h-2v-16.7h6.3c3.4,0,5.6,1.9,5.6,4.9c0,2.4-1.4,4-3.7,4.7l4.7,7.2h-2.4L69,289.1z M65,287.2h4.3
		c2.4,0,3.5-1,3.5-3c0-2-1.2-3-3.5-3H65V287.2z"/>
	<path d="M98.6,286.4l-1.9,0.9c-0.5-1.6-1.6-2.5-3.4-2.5c-2.5,0-4,1.8-4,4.8s1.5,4.8,4,4.8c2,0,3.2-0.9,3.5-2.6l1.9,0.7
		c-0.9,2.3-2.7,3.7-5.4,3.7c-3.8,0-6.1-2.5-6.1-6.6c0-4.1,2.3-6.6,6.1-6.6C95.9,283.1,97.6,284.4,98.6,286.4z"/>
	<path d="M109.6,283.3l-0.4,2c-0.4-0.2-0.9-0.3-1.6-0.3c-1.5,0-3.3,1.3-3.3,4.2v6.8h-2v-12.6h1.6l0.3,2.1c0.7-1.5,2.1-2.3,4-2.3
		C108.7,283.1,109.2,283.1,109.6,283.3z"/>
	<path d="M123.5,283.3V296h-1.8l-0.1-1.9c-0.9,1.5-2.5,2.2-4.5,2.2c-2.5,0-4.7-1.3-4.7-4.6v-8.3h2v7.7c0,2.6,1.2,3.4,3,3.4
		c2.1,0,4-1.3,4-4.2v-6.9H123.5z"/>
	<path d="M139.3,287.9v8.1h-2v-7.4c0-2.8-1.4-3.7-3.1-3.7c-1.8,0-3.9,1.2-3.9,4.4v6.7h-2v-12.6h1.8l0.1,2c0.9-1.6,2.5-2.2,4.2-2.2
		C137.1,283.1,139.3,284.6,139.3,287.9z"/>
	<path d="M154.4,286.4l-1.9,0.9c-0.5-1.6-1.6-2.5-3.4-2.5c-2.5,0-4,1.8-4,4.8s1.5,4.8,4,4.8c2,0,3.2-0.9,3.5-2.6l1.9,0.7
		c-0.9,2.3-2.7,3.7-5.4,3.7c-3.8,0-6.1-2.5-6.1-6.6c0-4.1,2.3-6.6,6.1-6.6C151.8,283.1,153.5,284.4,154.4,286.4z"/>
	<path d="M169.2,287.9v8.1h-2v-7.4c0-2.8-1.4-3.7-3.1-3.7c-1.8,0-3.9,1.2-3.9,4.4v6.7h-2v-18.5h2v7.7c0.9-1.5,2.4-2.1,4.1-2.1
		C167,283.1,169.2,284.6,169.2,287.9z"/>
</g>
<g>
	<rect x="84.1" y="97.6" transform="matrix(0.3068 -0.9518 0.9518 0.3068 -35.35 150.4067)" class="st2" width="2.9" height="3.8"/>
	
		<rect x="91.4" y="99.9" transform="matrix(0.3068 -0.9518 0.9518 0.3068 -32.5293 158.9835)" class="st2" width="2.9" height="3.8"/>
	
		<rect x="98.7" y="102.3" transform="matrix(0.3068 -0.9518 0.9518 0.3068 -29.7087 167.5602)" class="st2" width="2.9" height="3.8"/>
	<path class="st2" d="M154.4,143l-16-5.2l14.9-29.7l-2.2-1.8l-14.6,12.1l2.4-7.4L79.4,91.9l-15.6,48.4l54.8,17.6l-13.3,20.5l2.1,2
		l47.5-34.9L154.4,143z M135.1,112.9l-1.5,4.5l-53.8-17.3l1.5-4.5L135.1,112.9z M67.5,138.4L79,102.9l53.8,17.3l-0.6,1.7l-24.9,20.5
		l0.5,2.5l15.4,4.9l-0.6,1.8l-2.3,3.6L67.5,138.4z M112.1,173.4l15.1-23.2l-0.8-2.2l-15.1-4.9l36.2-29.9l-12.5,25l0.9,2.1l14.9,4.8
		L112.1,173.4z"/>
</g>
</svg>
