<?xml version="1.0" encoding="utf-8"?>
<!-- Generator: Adobe Illustrator 21.0.0, SVG Export Plug-In . SVG Version: 6.00 Build 0)  -->
<svg version="1.1" id="Layer_1" xmlns="http://www.w3.org/2000/svg" xmlns:xlink="http://www.w3.org/1999/xlink" x="0px" y="0px"
	 viewBox="0 0 300 300" style="enable-background:new 0 0 300 300;" xml:space="preserve">
<style type="text/css">
	.st0{fill:#1A1A1A;}
	.st1{fill:#B2151B;}
</style>
<g>
	<path class="st0" d="M87.2,267.4c-21,0-33.9-13.3-33.9-35.6s13-35.6,33.8-35.6c14.4,0,26.1,6,29.5,19l-15.8,6.4
		c-2-8.6-6-11.3-13.1-11.3c-10,0-16,7.3-16,21.5c0,14,5.5,21.5,15.7,21.5c7.7,0,12-3.6,13.7-11.3l16.3,4.6
		C113.4,261,101.8,267.4,87.2,267.4z"/>
	<path class="st0" d="M184.2,208.7L174,220.4c-4.6-6.9-10.5-10.2-19.3-10.2c-7.4,0-11.3,2.9-11.3,6.9c0,3.6,3.2,5.7,13.8,7.5
		c18.9,3.2,26.4,9.3,26.4,21.5c0,13.5-12.6,21.2-29.2,21.2c-16.3,0-24.9-4.2-31.7-11.7l9.3-12.7c5.5,8,12.2,10.5,21.5,10.5
		c7.7,0,11.5-2.4,11.5-6.4c0-3.1-3.2-4.9-13.5-6.9c-19.4-3.6-26.8-9.6-26.8-21.5c0-13,10.8-22.5,29.7-22.5
		C167.5,196.2,176.3,199.8,184.2,208.7z"/>
</g>
<g>
	<path d="M69,282.5l-1.8,0.9c-0.5-1.5-1.5-2.4-3.2-2.4c-2.4,0-3.9,1.7-3.9,4.6s1.4,4.6,3.9,4.6c1.9,0,3-0.9,3.4-2.5l1.8,0.6
		c-0.8,2.2-2.6,3.5-5.1,3.5c-3.6,0-5.8-2.4-5.8-6.3s2.2-6.3,5.8-6.3C66.5,279.3,68.1,280.5,69,282.5z"/>
	<path d="M74.3,288.4c0,1.2,0.3,1.6,1.3,1.6c0.7,0,1.1-0.1,1.8-0.3l-0.3,1.9c-0.5,0.2-1.2,0.3-1.8,0.3c-2,0-2.9-1-2.9-3.2V274h1.9
		V288.4z"/>
	<path d="M90.8,285.6c0,3.9-2.2,6.3-5.8,6.3c-3.6,0-5.8-2.4-5.8-6.3s2.2-6.3,5.8-6.3C88.6,279.3,90.8,281.7,90.8,285.6z M81,285.6
		c0,2.9,1.5,4.6,3.9,4.6s3.9-1.7,3.9-4.6s-1.5-4.6-3.9-4.6S81,282.7,81,285.6z"/>
	<path d="M104.9,279.6v12h-1.7l-0.1-1.8c-0.8,1.4-2.4,2.1-4.3,2.1c-2.4,0-4.4-1.2-4.4-4.4v-7.9h1.9v7.4c0,2.5,1.1,3.2,2.8,3.2
		c2,0,3.9-1.2,3.9-4v-6.6L104.9,279.6L104.9,279.6z"/>
	<path d="M120.1,274v17.6h-1.7l-0.1-2.1c-0.7,1.4-2.2,2.3-4.1,2.3c-3.3,0-5.5-2.3-5.5-6.3c0-3.9,2.1-6.3,5.5-6.3
		c1.8,0,3.3,0.9,4,2.1V274H120.1z M118.2,285.7v-0.3c0-2.7-1.5-4.4-3.8-4.4c-2.4,0-3.8,1.8-3.8,4.6s1.4,4.6,3.8,4.6
		C116.7,290.2,118.2,288.4,118.2,285.7z"/>
	<path d="M142.9,282.5l-1.8,0.9c-0.5-1.5-1.5-2.4-3.2-2.4c-2.4,0-3.9,1.7-3.9,4.6s1.4,4.6,3.9,4.6c1.9,0,3-0.9,3.4-2.5l1.8,0.6
		c-0.8,2.2-2.6,3.5-5.1,3.5c-3.6,0-5.8-2.4-5.8-6.3s2.2-6.3,5.8-6.3C140.4,279.3,142,280.5,142.9,282.5z"/>
	<path d="M153.4,279.6l-0.4,1.9c-0.4-0.2-0.9-0.3-1.5-0.3c-1.4,0-3.2,1.3-3.2,4v6.5h-1.9v-12h1.6l0.3,2c0.7-1.5,2-2.2,3.9-2.2
		C152.5,279.3,153.1,279.4,153.4,279.6z"/>
	<path d="M166.7,279.6v12H165l-0.1-1.8c-0.8,1.4-2.4,2.1-4.3,2.1c-2.4,0-4.4-1.2-4.4-4.4v-7.9h1.9v7.4c0,2.5,1.1,3.2,2.8,3.2
		c2,0,3.9-1.2,3.9-4v-6.6L166.7,279.6L166.7,279.6z"/>
	<path d="M181.7,283.9v7.7h-1.9v-7c0-2.7-1.3-3.6-3-3.6c-1.8,0-3.7,1.1-3.7,4.2v6.4h-1.9v-12h1.7l0.1,1.9c0.8-1.5,2.4-2.1,4-2.1
		C179.6,279.3,181.7,280.8,181.7,283.9z"/>
	<path d="M196.2,282.5l-1.8,0.9c-0.5-1.5-1.5-2.4-3.2-2.4c-2.4,0-3.9,1.7-3.9,4.6s1.4,4.6,3.9,4.6c1.9,0,3-0.9,3.4-2.5l1.8,0.6
		c-0.8,2.2-2.6,3.5-5.1,3.5c-3.6,0-5.8-2.4-5.8-6.3s2.2-6.3,5.8-6.3C193.6,279.3,195.3,280.5,196.2,282.5z"/>
	<path d="M210.2,283.9v7.7h-1.9v-7c0-2.7-1.3-3.6-3-3.6c-1.8,0-3.7,1.1-3.7,4.2v6.4h-1.9V274h1.9v7.3c0.8-1.4,2.3-2,3.9-2
		C208.1,279.3,210.2,280.8,210.2,283.9z"/>
</g>
<g>
	<path class="st1" d="M189.1,28.6c-30.8-26.4-67.6-32.7-86.8-13.5c-5.9,5.9-9.6,14-10.7,23.4l-0.2,1.9
		c-17.8,18.1-29.8,39.9-33.7,61.7c-0.9,5.1-1.4,10.1-1.4,14.9c0,12.5,3.1,23.7,9,33.1c-4.4,5.7-4.9,13-0.7,17.2
		c4.2,4.2,11.6,3.8,17.3-0.8c29,18.1,75.3,7.9,109.6-26l2-0.2c9.4-1.1,17.5-4.8,23.4-10.7c7.3-7.3,11.1-17.4,11.1-29.3
		c0-19.4-10.2-41.7-27.4-60.5c4.9-7.3,12.5-12.7,21.2-14.7c4.3-1,7-5.3,6-9.7c-1-4.3-5.3-7-9.7-6C206.5,12.3,196.2,19.2,189.1,28.6
		L189.1,28.6z M103.5,51.1c0.3-0.3,0.5-0.5,0.8-0.8c15,7.3,30.6,18.7,44.7,32.8c14,14,25.4,29.6,32.8,44.6c-0.3,0.3-0.5,0.5-0.8,0.8
		c-32.1,32.1-75.5,40.8-96.9,19.5c-10-10-13.7-25.2-10.5-43C77,86.1,87.6,67,103.5,51.1L103.5,51.1z M113.7,26.4
		c13.8-13.8,46.6-4.5,71.5,20.4c16.5,16.5,26.8,37.1,26.8,53.6c0,5.2-1.1,12.6-6.4,17.9c-2.2,2.2-4.9,3.8-8.2,4.9
		c-8.1-17.4-21.1-35.5-37.1-51.5s-34.1-29-51.5-37.1C109.9,31.4,111.5,28.6,113.7,26.4L113.7,26.4z"/>
</g>
<g>
	<path class="st1" d="M98.6,136.8c-7.5,0-12.3-4.5-13.2-12.5c-0.5-4.4,2.3-12.3,9.4-14.8C96.9,98.7,106.5,87.4,119,86
		c14.1-1.6,26.3,6,29.4,17.6c7.1,1.2,11.4,8,11.8,12.3c1,8.6-3.8,14.6-12.4,15.5l-47,5.3C100.1,136.8,99.3,136.8,98.6,136.8z
		 M122.6,93.6c-0.9,0-1.8,0.1-2.7,0.2c-9.4,1.1-17.1,11-17.8,19.2l-0.3,3.2l-3.2,0.4c-4.3,0.5-5.7,5.4-5.5,6.9
		c0.5,4.6,2.3,6,6.9,5.5l47-5.3c4.4-0.5,6-2.5,5.5-6.9c-0.1-0.7-0.8-2.4-2.1-3.7c-1.4-1.4-3-2-4.8-1.8l-3.9,0.4l-0.4-3.9
		C140.3,98.2,131.4,93.6,122.6,93.6z"/>
</g>
</svg>
