<?xml version="1.0" encoding="utf-8"?>
<!-- Generator: Adobe Illustrator 21.0.0, SVG Export Plug-In . SVG Version: 6.00 Build 0)  -->
<svg version="1.1" id="Layer_1" xmlns="http://www.w3.org/2000/svg" xmlns:xlink="http://www.w3.org/1999/xlink" x="0px" y="0px"
	 viewBox="0 0 300 300" style="enable-background:new 0 0 300 300;" xml:space="preserve">
<style type="text/css">
	.st0{fill:#1A1A1A;}
	.st1{fill-rule:evenodd;clip-rule:evenodd;fill:#39B54A;}
	.st2{fill:#39B54A;}
</style>
<g>
	<g>
		<path class="st0" d="M116.5,243.6v13.8H61.6v-68.7h53.5v13.8H79.5v14h28.3v13H79.5v14.1H116.5z"/>
		<path class="st0" d="M145.2,257.4h-17.9v-68.7h17.9V257.4z"/>
		<path class="st0" d="M240,257.4h-15.8v-31.5l0.5-21.1h-0.2l-17,52.7H193l-17-52.7h-0.2l0.5,21.1v31.5h-15.9v-68.7h25.5l10.8,35
			l3.9,14.6h0.2l4-14.5l10.7-35.1H240V257.4z"/>
	</g>
	<g>
		<path d="M82.7,274.9v7.7h-1.9v-7.5c0-2.2-1.2-3.1-2.8-3.1c-1.9,0-3.5,1.4-3.5,4v6.6h-1.9v-7.5c0-2.2-1.2-3.1-2.8-3.1
			s-3.5,1.2-3.5,4.1v6.4h-1.9v-12h1.7l0.1,1.9c0.9-1.5,2.3-2.1,3.8-2.1c1.7,0,3.3,0.7,4.1,2.3c0.7-1.6,2.7-2.3,4.2-2.3
			C80.5,270.3,82.7,271.7,82.7,274.9z"/>
		<path d="M98,276.6c0,3.9-2.2,6.2-5.8,6.2c-3.6,0-5.8-2.3-5.8-6.2c0-3.9,2.2-6.2,5.8-6.2C95.8,270.3,98,272.7,98,276.6z
			 M88.3,276.6c0,2.9,1.5,4.6,3.9,4.6c2.4,0,3.9-1.7,3.9-4.6s-1.5-4.6-3.9-4.6C89.7,272,88.3,273.7,88.3,276.6z"/>
		<path d="M113,276.6c0,3.9-2.1,6.2-5.5,6.2c-1.9,0-3.4-1-4.1-2.3l-0.1,2.1h-1.7v-17.5h1.9v7.4c0.7-1.2,2.2-2.1,4-2.1
			C110.9,270.3,113,272.7,113,276.6z M111.1,276.6c0-2.8-1.4-4.6-3.8-4.6c-2.3,0-3.8,1.7-3.8,4.4v0.3c0,2.7,1.5,4.4,3.8,4.4
			C109.7,281.1,111.1,279.4,111.1,276.6z"/>
		<path d="M116.3,266.8c0-0.9,0.6-1.4,1.4-1.4c0.9,0,1.4,0.6,1.4,1.4c0,0.9-0.6,1.4-1.4,1.4C116.9,268.3,116.3,267.7,116.3,266.8z
			 M118.7,282.6h-1.9v-12h1.9V282.6z"/>
		<path d="M125,279.4c0,1.2,0.3,1.6,1.3,1.6c0.6,0,1.1-0.1,1.8-0.3l-0.3,1.8c-0.5,0.2-1.2,0.3-1.8,0.3c-1.9,0-2.9-1-2.9-3.2v-14.5
			h1.9V279.4z"/>
		<path d="M140.7,277.3h-9c0.2,2.4,1.7,3.8,3.9,3.8c1.7,0,2.9-0.6,3.4-1.8l1.6,0.8c-0.9,1.6-2.4,2.6-5,2.6c-3.6,0-5.8-2.3-5.8-6.2
			c0-3.9,2-6.2,5.7-6.2c3.5,0,5.4,2.5,5.4,5.6C140.8,276.5,140.7,277,140.7,277.3z M131.7,275.6h7.3c-0.3-2.2-1.5-3.6-3.5-3.6
			C133.3,272,132,273.3,131.7,275.6z"/>
		<path d="M162.6,273.5l-1.8,0.9c-0.5-1.5-1.5-2.4-3.2-2.4c-2.4,0-3.8,1.7-3.8,4.6s1.4,4.6,3.8,4.6c1.9,0,3-0.9,3.4-2.5l1.8,0.6
			c-0.8,2.2-2.5,3.5-5.1,3.5c-3.6,0-5.8-2.3-5.8-6.2c0-3.9,2.2-6.2,5.8-6.2C160.1,270.3,161.7,271.6,162.6,273.5z"/>
		<path d="M173.1,270.6l-0.4,1.9c-0.4-0.2-0.9-0.3-1.5-0.3c-1.4,0-3.2,1.3-3.2,4v6.5h-1.9v-12h1.6l0.3,2c0.7-1.5,2-2.2,3.8-2.2
			C172.2,270.3,172.7,270.4,173.1,270.6z"/>
		<path d="M186.3,270.6v12h-1.7l-0.1-1.8c-0.8,1.4-2.4,2.1-4.3,2.1c-2.4,0-4.4-1.2-4.4-4.4v-7.8h1.9v7.3c0,2.5,1.1,3.2,2.8,3.2
			c2,0,3.8-1.2,3.8-4v-6.5H186.3z"/>
		<path d="M201.3,274.9v7.7h-1.9v-7c0-2.7-1.3-3.5-2.9-3.5c-1.8,0-3.7,1.1-3.7,4.2v6.4h-1.9v-12h1.7l0.1,1.9c0.8-1.5,2.4-2.1,4-2.1
			C199.1,270.3,201.3,271.8,201.3,274.9z"/>
		<path d="M215.6,273.5l-1.8,0.9c-0.5-1.5-1.5-2.4-3.2-2.4c-2.4,0-3.8,1.7-3.8,4.6s1.4,4.6,3.8,4.6c1.9,0,3-0.9,3.4-2.5l1.8,0.6
			c-0.8,2.2-2.5,3.5-5.1,3.5c-3.6,0-5.8-2.3-5.8-6.2c0-3.9,2.2-6.2,5.8-6.2C213.1,270.3,214.7,271.6,215.6,273.5z"/>
		<path d="M229.6,274.9v7.7h-1.9v-7c0-2.7-1.3-3.5-2.9-3.5c-1.8,0-3.7,1.1-3.7,4.2v6.4h-1.9v-17.5h1.9v7.3c0.8-1.4,2.3-2,3.9-2
			C227.5,270.3,229.6,271.8,229.6,274.9z"/>
	</g>
	<g>
		<path class="st1" d="M184.5,31.6C153.8,5.3,117.2-0.9,98.2,18.1c-5.9,5.9-9.6,14-10.6,23.3l-0.2,1.9c-17.7,18-29.6,39.8-33.5,61.4
			c-0.9,5.1-1.4,10.1-1.4,14.9c0,12.4,3,23.6,8.9,32.9c-4.4,5.6-4.9,12.9-0.7,17.1c4.2,4.2,11.6,3.8,17.2-0.8
			c28.9,18,74.9,7.8,109.1-25.9l2-0.2c9.4-1.1,17.4-4.7,23.3-10.6c7.2-7.2,11-17.3,11-29.1c0-19.3-10.2-41.5-27.3-60.2
			c4.9-7.3,12.4-12.6,21.1-14.6c4.3-1,7-5.3,6-9.6c-1-4.3-5.3-7-9.6-6C201.9,15.3,191.6,22.2,184.5,31.6L184.5,31.6z M99.4,54
			c0.3-0.3,0.5-0.5,0.8-0.8c15,7.3,30.5,18.6,44.4,32.6c13.9,14,25.3,29.5,32.6,44.4c-0.3,0.3-0.5,0.5-0.8,0.8
			c-31.9,31.9-75.2,40.6-96.4,19.4c-9.9-9.9-13.6-25.1-10.4-42.8C73,88.8,83.5,69.8,99.4,54L99.4,54z M109.5,29.4
			c13.8-13.8,46.3-4.5,71.1,20.3c16.4,16.4,26.6,36.9,26.6,53.4c0,5.2-1.1,12.5-6.3,17.8c-2.2,2.2-4.9,3.8-8.1,4.9
			c-8.1-17.3-21-35.3-36.9-51.2c-16-15.9-33.9-28.9-51.2-36.9C105.7,34.4,107.3,31.6,109.5,29.4L109.5,29.4z M109.5,29.4"/>
	</g>
	<g>
		<path class="st2" d="M110.1,175.5c-0.2,0-0.3,0-0.4,0c-17.9-0.2-31.7-14.4-31.5-32.3l0.2-18.9l63.8,0.8L142,144
			C141.8,161.7,127.8,175.5,110.1,175.5z M81.6,127.5l-0.2,15.7c-0.2,16.1,12.2,28.9,28.4,29.1c16.1,0.2,28.9-12.2,29.1-28.4
			l0.2-15.7L81.6,127.5z M142.3,123.9l-63.8-0.8l0.1-5.9c0.1-9.8,4.6-18.7,12-24.3l-8.7-8.9l5.7-6.2l10.3,10.5
			c4.3-1.7,8.9-2.6,13.1-2.6c4.5,0.1,9.1,1.2,13.1,3.3l10.4-10.1l5.6,5.8l-9,8.8c7.3,5.8,11.5,14.8,11.4,24.6L142.3,123.9z
			 M81.7,119.9l57.4,0.8l0-2.7c0.1-9.4-4.2-18-11.5-23.1l-1.6-1.1l9.5-9.2l-1.2-1.2l-9.8,9.6l-1-0.6c-3.7-2.2-8.2-3.4-12.6-3.4
			c-4.1-0.1-8.6,0.9-12.8,2.7L97,92l-9.4-9.7l-1.4,1.5l9.3,9.5l-1.6,1.1c-7.5,4.9-12,13.4-12.2,22.8L81.7,119.9z M123.6,115
			C123.5,115,123.5,115,123.6,115L123.6,115c-3.6,0-6-2.5-6-6c0-3.5,2.5-5.9,6-5.9c1.7,0,3.2,0.6,4.2,1.7c1.1,1.1,1.6,2.6,1.6,4.3
			C129.4,112.6,127,115,123.6,115z M123.5,111.8C123.5,111.8,123.5,111.8,123.5,111.8c1.7,0,2.8-1,2.8-2.7c0-0.8-0.2-1.5-0.7-2
			c-0.5-0.5-1.2-0.7-2-0.8c-1.7,0-2.8,1-2.8,2.7C120.8,110.8,121.8,111.8,123.5,111.8L123.5,111.8z M97.6,114.7c0,0-0.1,0-0.1,0l0,0
			c-3.5,0-5.9-2.5-5.9-6c0-3.5,2.5-5.9,5.9-5.9c0,0,0.1,0,0.1,0c3.5,0,5.9,2.5,5.9,6c0,1.7-0.6,3.2-1.7,4.2
			C100.7,114.1,99.2,114.7,97.6,114.7z M97.5,111.5c0.9,0,1.6-0.2,2-0.7c0.5-0.5,0.7-1.2,0.7-2c0-1.7-1-2.8-2.7-2.8
			c-1.7,0-2.8,1-2.8,2.7C94.8,110.4,95.8,111.4,97.5,111.5L97.5,111.5z"/>
	</g>
</g>
</svg>
