<?xml version="1.0" encoding="utf-8"?>
<!-- Generator: Adobe Illustrator 21.0.0, SVG Export Plug-In . SVG Version: 6.00 Build 0)  -->
<svg version="1.1" id="Layer_1" xmlns="http://www.w3.org/2000/svg" xmlns:xlink="http://www.w3.org/1999/xlink" x="0px" y="0px"
	 viewBox="0 0 300 300" style="enable-background:new 0 0 300 300;" xml:space="preserve">
<style type="text/css">
	.st0{fill:#1A1A1A;}
	.st1{fill-rule:evenodd;clip-rule:evenodd;fill:#009245;}
	.st2{fill:#009245;}
</style>
<g>
	<g>
		<path class="st0" d="M97.2,250.9v14.4H40v-71.7h55.8v14.4H58.7v14.5h29.5v13.6H58.7v14.7H97.2z"/>
		<path class="st0" d="M169.1,217.5c0,14.7-9.9,23-27.7,23h-14.2v24.9h-18.7v-71.7h32.9C159.2,193.7,169.1,202.1,169.1,217.5z
			 M150.3,217.3c0-6.3-3.6-9.4-11.8-9.4h-11.3v19h11.3C146.7,226.8,150.3,223.7,150.3,217.3z"/>
	</g>
	<g>
		<path d="M54.6,285.3c0,4.1-2.2,6.5-5.7,6.5c-1.9,0-3.4-0.9-4.1-2.2v7.2h-2v-17.7h1.8l0.1,2.2c0.7-1.4,2.3-2.4,4.3-2.4
			C52.4,278.8,54.6,281.3,54.6,285.3z M52.6,285.3c0-2.9-1.5-4.7-3.9-4.7c-2.4,0-3.9,1.8-3.9,4.6v0.3c0,2.8,1.5,4.6,3.9,4.6
			C51.1,290.1,52.6,288.2,52.6,285.3z"/>
		<path d="M69.1,286.1h-9.4c0.3,2.5,1.8,4,4.1,4c1.8,0,3.1-0.6,3.5-1.8l1.7,0.9c-0.9,1.7-2.5,2.7-5.2,2.7c-3.8,0-6-2.4-6-6.5
			c0-4,2.1-6.5,5.9-6.5c3.6,0,5.6,2.6,5.6,5.8C69.2,285.3,69.2,285.7,69.1,286.1z M59.7,284.3h7.6c-0.3-2.3-1.5-3.7-3.7-3.7
			C61.4,280.6,60,282,59.7,284.3z"/>
		<path d="M80.3,279.1l-0.4,1.9c-0.4-0.2-0.9-0.3-1.6-0.3c-1.5,0-3.3,1.3-3.3,4.1v6.7h-2v-12.5h1.6l0.3,2c0.7-1.5,2-2.3,4-2.3
			C79.4,278.8,79.9,278.9,80.3,279.1z"/>
		<path d="M86.2,279.1h4.2v1.7h-4.2v10.8h-2v-10.8h-2.5v-1.7h2.5V277c0-2.2,1.3-3.8,4.1-3.8c0.9,0,1.7,0.2,2.1,0.6l-0.5,1.6
			c-0.4-0.3-0.8-0.4-1.4-0.4c-1.4,0-2.3,0.6-2.3,2.1V279.1z"/>
		<path d="M104,285.3c0,4-2.3,6.5-6,6.5s-6-2.4-6-6.5c0-4,2.3-6.5,6-6.5S104,281.3,104,285.3z M93.9,285.3c0,3,1.5,4.8,4,4.8
			s4-1.8,4-4.8c0-3-1.5-4.8-4-4.8S93.9,282.4,93.9,285.3z"/>
		<path d="M115.2,279.1l-0.4,1.9c-0.4-0.2-0.9-0.3-1.6-0.3c-1.5,0-3.3,1.3-3.3,4.1v6.7h-2v-12.5h1.6l0.3,2c0.7-1.5,2-2.3,4-2.3
			C114.2,278.8,114.8,278.9,115.2,279.1z"/>
		<path d="M137.4,283.6v8h-2v-7.8c0-2.3-1.3-3.2-2.9-3.2c-1.9,0-3.7,1.5-3.7,4.1v6.8h-2v-7.8c0-2.3-1.3-3.2-2.9-3.2
			c-1.6,0-3.7,1.2-3.7,4.3v6.7h-2v-12.5h1.8l0.1,1.9c0.9-1.5,2.4-2.2,4-2.2c1.7,0,3.5,0.8,4.3,2.4c0.8-1.7,2.8-2.4,4.3-2.4
			C135,278.8,137.4,280.3,137.4,283.6z"/>
		<path d="M153.2,290l-0.1,1.6c-0.3,0.1-0.9,0.3-1.5,0.3c-1.2,0-2-0.5-2.2-1.8c-0.8,1.2-2.4,1.8-4,1.8c-2.3,0-4.2-1.1-4.2-3.3
			c0-1.9,1.6-3.3,4.9-3.9l3.3-0.5v-0.7c0-1.6-1-2.7-2.9-2.7c-1.6,0-2.9,0.8-3.6,2.4l-1.5-1.1c0.6-1.8,2.6-3,5-3
			c2.8,0,4.9,1.3,4.9,4.2v6.1c0,0.6,0.3,0.9,0.9,0.9C152.5,290.1,152.9,290.1,153.2,290z M149.2,287.4v-1.7l-2.8,0.5
			c-2.2,0.4-3.3,1.1-3.3,2.3c0,1,0.9,1.6,2.3,1.6C147.4,290.1,149.2,289,149.2,287.4z"/>
		<path d="M167,283.6v8h-2v-7.3c0-2.8-1.3-3.7-3.1-3.7c-1.8,0-3.9,1.1-3.9,4.3v6.6h-2v-12.5h1.8l0.1,1.9c0.9-1.6,2.5-2.2,4.2-2.2
			C164.8,278.8,167,280.4,167,283.6z"/>
		<path d="M182,282.2l-1.9,0.9c-0.5-1.6-1.6-2.5-3.3-2.5c-2.5,0-4,1.8-4,4.7c0,3,1.5,4.7,4,4.7c2,0,3.1-0.9,3.5-2.6l1.8,0.7
			c-0.8,2.3-2.6,3.7-5.3,3.7c-3.8,0-6-2.4-6-6.5c0-4,2.3-6.5,6-6.5C179.4,278.8,181.1,280.1,182,282.2z"/>
		<path d="M196.3,286.1h-9.4c0.3,2.5,1.8,4,4.1,4c1.8,0,3.1-0.6,3.5-1.8l1.7,0.9c-1,1.7-2.5,2.7-5.2,2.7c-3.8,0-6-2.4-6-6.5
			c0-4,2.1-6.5,5.9-6.5c3.6,0,5.6,2.6,5.6,5.8C196.4,285.3,196.3,285.7,196.3,286.1z M186.9,284.3h7.6c-0.3-2.3-1.5-3.7-3.7-3.7
			C188.5,280.6,187.2,282,186.9,284.3z"/>
		<path d="M219.1,282.2l-1.9,0.9c-0.5-1.6-1.6-2.5-3.3-2.5c-2.5,0-4,1.8-4,4.7c0,3,1.5,4.7,4,4.7c2,0,3.1-0.9,3.5-2.6l1.8,0.7
			c-0.8,2.3-2.6,3.7-5.3,3.7c-3.8,0-6-2.4-6-6.5c0-4,2.3-6.5,6-6.5C216.5,278.8,218.2,280.1,219.1,282.2z"/>
		<path d="M230.1,279.1l-0.4,1.9c-0.4-0.2-0.9-0.3-1.6-0.3c-1.5,0-3.3,1.3-3.3,4.1v6.7h-2v-12.5h1.6l0.3,2c0.7-1.5,2-2.3,4-2.3
			C229.1,278.8,229.7,278.9,230.1,279.1z"/>
		<path d="M243.8,279.1v12.5h-1.7l-0.1-1.9c-0.9,1.5-2.5,2.1-4.5,2.1c-2.5,0-4.6-1.3-4.6-4.6v-8.2h2v7.6c0,2.6,1.1,3.3,2.9,3.3
			c2.1,0,4-1.2,4-4.2v-6.8H243.8z"/>
		<path d="M259.4,283.6v8h-2v-7.3c0-2.8-1.3-3.7-3.1-3.7c-1.8,0-3.9,1.1-3.9,4.3v6.6h-2v-12.5h1.8l0.1,1.9c0.9-1.6,2.5-2.2,4.2-2.2
			C257.2,278.8,259.4,280.4,259.4,283.6z"/>
		<path d="M274.4,282.2l-1.9,0.9c-0.5-1.6-1.6-2.5-3.3-2.5c-2.5,0-4,1.8-4,4.7c0,3,1.5,4.7,4,4.7c2,0,3.1-0.9,3.5-2.6l1.8,0.7
			c-0.8,2.3-2.6,3.7-5.3,3.7c-3.8,0-6-2.4-6-6.5c0-4,2.3-6.5,6-6.5C271.8,278.8,273.5,280.1,274.4,282.2z"/>
		<path d="M289,283.6v8h-2v-7.3c0-2.8-1.3-3.7-3.1-3.7c-1.8,0-3.9,1.2-3.9,4.4v6.6h-2v-18.2h2v7.6c0.9-1.5,2.4-2.1,4.1-2.1
			C286.8,278.8,289,280.4,289,283.6z"/>
	</g>
	<g>
		<path class="st1" d="M168.2,29.9c-32-27.4-70.2-33.9-90-14C72,22,68.2,30.4,67.1,40.2l-0.2,2c-18.5,18.7-30.9,41.4-35,64
			c-1,5.3-1.4,10.5-1.4,15.5c0,12.9,3.2,24.6,9.3,34.3c-4.6,5.9-5.1,13.5-0.7,17.8c4.4,4.4,12,3.9,17.9-0.8
			c30.1,18.7,78.1,8.2,113.7-27l2-0.2c9.8-1.1,18.2-4.9,24.3-11.1c7.5-7.5,11.5-18,11.5-30.4c0-20.2-10.6-43.2-28.4-62.8
			c5.1-7.6,13-13.2,22-15.2c4.5-1.1,7.3-5.5,6.2-10c-1-4.5-5.5-7.3-10-6.2C186.2,13,175.6,20.1,168.2,29.9L168.2,29.9z M79.4,53.3
			c0.3-0.3,0.5-0.5,0.8-0.8c15.6,7.6,31.8,19.4,46.3,34c14.5,14.6,26.4,30.7,34,46.3c-0.3,0.3-0.5,0.5-0.8,0.8
			c-33.3,33.3-78.4,42.3-100.5,20.2c-10.3-10.3-14.2-26.2-10.9-44.6C51.8,89.6,62.8,69.8,79.4,53.3L79.4,53.3z M90,27.7
			c14.3-14.3,48.3-4.6,74.1,21.2c17.1,17.1,27.8,38.4,27.8,55.6c0,5.4-1.1,13.1-6.6,18.5c-2.3,2.3-5.1,3.9-8.5,5.1
			c-8.4-18.1-21.8-36.8-38.5-53.4C121.7,58,103,44.6,84.9,36.2C86,32.8,87.7,29.9,90,27.7L90,27.7z M90,27.7"/>
	</g>
	<g>
		<polygon class="st2" points="96.5,156.9 63.3,118.7 42.5,136.5 38.2,131.4 64,109.3 95.7,145.9 120.6,108.4 126.1,112 		"/>
		<g>
			<polygon class="st2" points="129.2,117.1 130.2,99.9 114.8,107.6 			"/>
		</g>
	</g>
</g>
</svg>
