<?xml version="1.0" encoding="utf-8"?>
<!-- Generator: Adobe Illustrator 21.0.0, SVG Export Plug-In . SVG Version: 6.00 Build 0)  -->
<svg version="1.1" id="Layer_1" xmlns="http://www.w3.org/2000/svg" xmlns:xlink="http://www.w3.org/1999/xlink" x="0px" y="0px"
	 viewBox="0 0 100 50" style="enable-background:new 0 0 100 50;" xml:space="preserve">
<style type="text/css">
	.st0{fill:#1A1A1A;}
	.st1{stroke:#000000;stroke-width:0.25;stroke-miterlimit:10;}
	.st2{fill:#29ABE2;}
	.st3{fill-rule:evenodd;clip-rule:evenodd;fill:#29ABE2;}
</style>
<g>
	<path class="st0" d="M51.4,21.7v10.6h-3.6l-0.1-2.3c-1.1,1.7-2.9,2.6-5.6,2.6c-5.3,0-9.1-3.6-9.1-10.1c0-6.3,3.8-10.2,9.8-10.2
		c4.5,0,7.1,1.5,8.7,5l-4.7,1.9c-0.5-2-1.9-2.9-3.8-2.9c-3,0-4.7,2.1-4.7,6.1c0,4.2,1.6,6.2,4.8,6.2c2.3,0,4.1-1,4.1-3.2v-0.3h-4.9
		v-3.5H51.4z"/>
	<path class="st0" d="M71.5,16l-2.9,3.3c-1.3-2-3-2.9-5.5-2.9c-2.1,0-3.2,0.8-3.2,2c0,1,0.9,1.6,3.9,2.1c5.4,0.9,7.5,2.7,7.5,6.1
		c0,3.8-3.6,6-8.3,6c-4.6,0-7.1-1.2-9-3.3l2.7-3.6c1.6,2.3,3.5,3,6.1,3c2.2,0,3.3-0.7,3.3-1.8c0-0.9-0.9-1.4-3.8-2
		c-5.5-1-7.6-2.7-7.6-6.1c0-3.7,3.1-6.4,8.5-6.4C66.7,12.4,69.2,13.4,71.5,16z"/>
	<path class="st0" d="M82.6,25.2h-3.1v7.2h-5V12.7h9.4c4.7,0,7.4,2.2,7.4,6.3c0,2.9-1.3,4.8-3.8,5.7l5,7.7h-5.7L82.6,25.2z
		 M79.5,21.6H83c2.2,0,3.1-0.7,3.1-2.5c0-1.7-1-2.5-3.1-2.5h-3.5V21.6z"/>
</g>
<g>
	<path class="st1" d="M37,36.1l-1.4,3.4h-0.1L34,36.1h0.1l1.4,3.3l1.4-3.3H37z"/>
	<path class="st1" d="M37.7,35.3c0-0.1,0.1-0.2,0.2-0.2s0.2,0.1,0.2,0.2c0,0.1-0.1,0.2-0.2,0.2S37.7,35.4,37.7,35.3z M37.9,39.6
		h-0.1v-3.4h0.1V39.6z"/>
	<path class="st1" d="M44.6,37.3v2.3h-0.1v-2.2c0-0.7-0.5-1.2-1.2-1.2c-0.8,0-1.4,0.6-1.4,1.3v2.1h-0.1v-2.2c0-0.7-0.5-1.2-1.2-1.2
		c-0.8,0-1.4,0.6-1.4,1.3v2.1H39v-3.4h0.1v0.9c0.2-0.6,0.7-1,1.4-1c0.7,0,1.2,0.4,1.3,1c0.1-0.6,0.7-1,1.4-1
		C44.1,36.1,44.6,36.5,44.6,37.3z"/>
	<path class="st1" d="M47.4,40.1h-0.1l1.8-5.5h0.1L47.4,40.1z"/>
	<path class="st1" d="M52.6,37.9h-2.9c0,1,0.6,1.6,1.5,1.6c0.6,0,1.1-0.3,1.3-0.8l0.1,0c-0.2,0.5-0.8,0.8-1.4,0.8
		c-1,0-1.6-0.7-1.6-1.8s0.6-1.8,1.5-1.8C52,36.1,52.6,36.8,52.6,37.9L52.6,37.9z M49.7,37.8h2.8c0-1-0.5-1.7-1.4-1.7
		C50.2,36.2,49.7,36.8,49.7,37.8z"/>
	<path class="st1" d="M55.1,39.4c-0.1,0.1-0.4,0.3-0.7,0.3c-0.6,0-0.8-0.3-0.8-0.9v-2.5h-0.7v-0.1h0.7v-0.9l0.1,0v0.9H55v0.1h-1.3
		v2.5c0,0.5,0.2,0.8,0.7,0.8C54.7,39.6,54.9,39.5,55.1,39.4L55.1,39.4z"/>
	<path class="st1" d="M58.4,37L58.4,37c-0.2-0.5-0.7-0.8-1.4-0.8c-0.9,0-1.5,0.6-1.5,1.7s0.5,1.7,1.4,1.7c0.6,0,1.2-0.4,1.3-0.9
		l0.1,0c-0.1,0.6-0.7,1-1.4,1c-1,0-1.6-0.7-1.6-1.8s0.6-1.8,1.6-1.8C57.7,36.1,58.2,36.4,58.4,37z"/>
	<path class="st1" d="M59,40.1h-0.1l1.8-5.5h0.1L59,40.1z"/>
	<path class="st1" d="M64.2,37L64.2,37c-0.2-0.5-0.7-0.8-1.4-0.8c-0.9,0-1.5,0.6-1.5,1.7s0.5,1.7,1.4,1.7c0.6,0,1.2-0.4,1.3-0.9
		l0.1,0c-0.1,0.6-0.7,1-1.4,1c-1,0-1.6-0.7-1.6-1.8s0.6-1.8,1.6-1.8C63.5,36.1,64,36.4,64.2,37z"/>
	<path class="st1" d="M66.8,36.2L66.8,36.2c-0.2,0-0.2-0.1-0.5-0.1c-0.6,0-1.1,0.7-1.1,1.4v2h-0.1v-3.4h0.1V37c0.2-0.5,0.6-1,1.1-1
		C66.5,36.1,66.7,36.1,66.8,36.2z"/>
	<path class="st1" d="M70.1,36.1v3.4H70v-0.9c-0.2,0.6-0.7,1-1.4,1c-0.8,0-1.2-0.4-1.2-1.2v-2.3h0.1v2.3c0,0.7,0.4,1.1,1.1,1.1
		c1,0,1.4-0.8,1.4-1.3v-2.1H70.1z"/>
	<path class="st1" d="M74.1,37.3v2.3H74v-2.2c0-0.7-0.5-1.2-1.2-1.2c-0.8,0-1.4,0.6-1.4,1.3v2.1h-0.1v-3.4h0.1v0.9
		c0.2-0.6,0.7-1,1.4-1C73.6,36.1,74.1,36.5,74.1,37.3z"/>
	<path class="st1" d="M77.9,37L77.9,37c-0.2-0.5-0.7-0.8-1.4-0.8c-0.9,0-1.5,0.6-1.5,1.7s0.5,1.7,1.4,1.7c0.6,0,1.2-0.4,1.3-0.9
		l0.1,0c-0.1,0.6-0.7,1-1.4,1c-1,0-1.6-0.7-1.6-1.8s0.6-1.8,1.6-1.8C77.2,36.1,77.8,36.4,77.9,37z"/>
	<path class="st1" d="M81.6,37.3v2.3h-0.1v-2.2c0-0.7-0.5-1.2-1.2-1.2c-0.8,0-1.4,0.6-1.4,1.3v2.1h-0.1v-5h0.1v2.5
		c0.2-0.6,0.7-1,1.4-1C81.1,36.1,81.6,36.5,81.6,37.3z"/>
	<path class="st1" d="M82.9,39.5c0,0.1-0.1,0.2-0.2,0.2c-0.1,0-0.2-0.1-0.2-0.2c0-0.1,0.1-0.2,0.2-0.2
		C82.8,39.3,82.9,39.4,82.9,39.5z"/>
	<path class="st1" d="M86.5,37L86.5,37c-0.2-0.5-0.7-0.8-1.4-0.8c-0.9,0-1.5,0.6-1.5,1.7s0.5,1.7,1.4,1.7c0.6,0,1.2-0.4,1.3-0.9
		l0.1,0c-0.1,0.6-0.7,1-1.4,1c-1,0-1.6-0.7-1.6-1.8s0.6-1.8,1.6-1.8C85.8,36.1,86.3,36.4,86.5,37z"/>
	<path class="st1" d="M90.3,37.9c0,1.1-0.6,1.8-1.6,1.8c-1,0-1.6-0.7-1.6-1.8s0.6-1.8,1.6-1.8C89.7,36.1,90.3,36.8,90.3,37.9z
		 M87.2,37.9c0,1.1,0.6,1.7,1.5,1.7s1.5-0.6,1.5-1.7s-0.6-1.7-1.5-1.7S87.2,36.8,87.2,37.9z"/>
	<path class="st1" d="M94.1,37.3v2.3H94v-2.2c0-0.7-0.5-1.2-1.2-1.2c-0.8,0-1.4,0.6-1.4,1.3v2.1h-0.1v-3.4h0.1v0.9
		c0.2-0.6,0.7-1,1.4-1C93.6,36.1,94.1,36.5,94.1,37.3z"/>
	<path class="st1" d="M95.4,35.6v0.6h1.3v0.1h-1.3v3.3h-0.1v-3.3h-0.7v-0.1h0.7v-0.6c0-0.7,0.3-1,0.9-1c0.3,0,0.4,0.1,0.5,0.2l0,0.1
		c-0.1-0.1-0.3-0.2-0.5-0.2C95.7,34.6,95.4,35,95.4,35.6z"/>
</g>
<g>
	<path class="st2" d="M19.6,29.9h-0.3c0-2.8-2.2-5-5-5v-0.3C17.2,24.6,19.6,27,19.6,29.9z"/>
	<path class="st2" d="M18.3,29.9H18c0-2-1.7-3.7-3.7-3.7V26C16.5,26,18.3,27.7,18.3,29.9z"/>
	<path class="st2" d="M16.9,29.9h-0.3c0-1.3-1.1-2.3-2.3-2.3v-0.3C15.7,27.3,16.9,28.5,16.9,29.9z"/>
</g>
<g>
	<path class="st3" d="M11.3,31.7c0,0.5,0.4,0.9,0.9,0.9c0.5,0,0.9-0.4,0.9-0.9s-0.4-0.9-0.9-0.9C11.7,30.9,11.3,31.3,11.3,31.7z
		 M12.7,31.7c0,0.3-0.3,0.6-0.6,0.6s-0.6-0.3-0.6-0.6s0.3-0.6,0.6-0.6S12.7,31.4,12.7,31.7z"/>
	<path class="st3" d="M25.5,19.3c0.6-1,1.6-1.6,2.7-1.9c0.6-0.1,0.9-0.7,0.8-1.3c-0.1-0.6-0.7-0.9-1.3-0.8c-1.5,0.3-2.8,1.2-3.8,2.5
		c-4-3.4-8.8-4.2-11.3-1.8c-0.8,0.8-1.2,1.8-1.4,3l0,0.3c-2.3,2.3-3.9,5.2-4.4,8c-0.1,0.7-0.2,1.3-0.2,1.9c0,1.6,0.4,3.1,1.2,4.3
		c-0.6,0.7-0.6,1.7-0.1,2.2c0.5,0.5,1.5,0.5,2.2-0.1c3.8,2.3,9.8,1,14.2-3.4l0.3,0c1.2-0.1,2.3-0.6,3-1.4c0.9-0.9,1.4-2.3,1.4-3.8
		C29,24.6,27.7,21.7,25.5,19.3z M13.6,29.5l0.7-0.7l0.7,0.7l-0.7,0.7l0.3,0.9h1v1.1h-1l-0.3,0.9l0.7,0.7l-0.7,0.7l-0.7-0.7l-0.9,0.3
		v0.4c-0.9-0.2-1.7-0.7-2.3-1.3c-0.2-0.2-0.5-0.5-0.6-0.8l-0.1-0.2H9.6c-0.2-0.3-0.3-0.7-0.5-1.1h0.5l0.3-0.9l-0.7-0.7l0.7-0.7
		l0.7,0.7l0.9-0.3v-1h1.1v1L13.6,29.5z M14,34.8c-0.4,0-0.7-0.1-1.1-0.1v-0.2l0.5-0.2L14,34.8z M9.6,30.3l-0.2,0.5H9
		c-0.1-0.4-0.1-0.8-0.2-1.3L9.6,30.3z M22.9,30.8c-2.6,2.6-5.8,4-8.5,4l1-1l-0.7-0.7l0.2-0.5h1.1v-1.7h-1.1l-0.2-0.5l0.7-0.7
		l-1.2-1.2l-0.7,0.7L13,29v-1.1h-1.7V29l-0.5,0.2L10,28.4l-1.1,1.1c0-0.6,0-1.2,0.1-1.9c0.4-2.4,1.8-4.9,3.9-7c0,0,0.1-0.1,0.1-0.1
		c2,1,4,2.4,5.8,4.2c1.8,1.8,3.3,3.8,4.2,5.8C23,30.7,22.9,30.7,22.9,30.8z M26.1,29.5c-0.3,0.3-0.6,0.5-1.1,0.6
		c-1-2.3-2.7-4.6-4.8-6.7c-2.1-2.1-4.4-3.8-6.7-4.8c0.1-0.4,0.3-0.8,0.6-1.1c1.8-1.8,6-0.6,9.3,2.7c2.1,2.1,3.5,4.8,3.5,7
		C26.9,27.8,26.8,28.8,26.1,29.5z"/>
</g>
</svg>
