<?xml version="1.0" encoding="utf-8"?>
<!-- Generator: Adobe Illustrator 21.0.0, SVG Export Plug-In . SVG Version: 6.00 Build 0)  -->
<svg version="1.1" id="Layer_1" xmlns="http://www.w3.org/2000/svg" xmlns:xlink="http://www.w3.org/1999/xlink" x="0px" y="0px"
	 viewBox="0 0 300 300" style="enable-background:new 0 0 300 300;" xml:space="preserve">
<style type="text/css">
	.st0{fill:#1A1A1A;}
	.st1{fill:#FBB03B;}
</style>
<g>
	<path class="st0" d="M59.9,269.5H41.7v-69.7h18.2V269.5z"/>
	<path class="st0" d="M93.5,269.5H75.3v-69.7h18.2V269.5z"/>
</g>
<g>
	<path d="M41.9,279c0-0.9,0.6-1.5,1.5-1.5s1.5,0.6,1.5,1.5s-0.6,1.5-1.5,1.5S41.9,279.9,41.9,279z M44.4,295h-1.9v-12.2h1.9V295z"/>
	<path d="M59.5,287.2v7.8h-1.9v-7.1c0-2.7-1.3-3.6-3-3.6c-1.8,0-3.8,1.1-3.8,4.2v6.5h-1.9v-12.2h1.7l0.1,1.9
		c0.9-1.5,2.4-2.1,4.1-2.1C57.4,282.6,59.5,284.1,59.5,287.2z"/>
	<path d="M71.2,294.1c-0.8,0.7-1.8,1.1-3.1,1.1c-1.8,0-3.4-0.9-3.4-3.3v-7.5h-2.4v-1.7h2.4v-2.9l1.9-0.5v3.5h4.5v1.7h-4.5v7.1
		c0,1.2,0.8,1.8,1.8,1.8c0.9,0,1.5-0.3,2.1-0.9L71.2,294.1z"/>
	<path d="M81,282.8l-0.4,1.9c-0.4-0.2-0.9-0.3-1.5-0.3c-1.5,0-3.2,1.3-3.2,4v6.6H74v-12.2h1.6l0.3,2c0.7-1.5,2-2.2,3.9-2.2
		C80.1,282.6,80.7,282.6,81,282.8z"/>
	<path d="M94.5,288.9c0,3.9-2.2,6.3-5.9,6.3c-3.7,0-5.9-2.4-5.9-6.3c0-3.9,2.2-6.3,5.9-6.3C92.3,282.6,94.5,285,94.5,288.9z
		 M84.7,288.9c0,2.9,1.5,4.6,3.9,4.6c2.5,0,3.9-1.8,3.9-4.6s-1.5-4.6-3.9-4.6C86.2,284.3,84.7,286,84.7,288.9z"/>
	<path d="M109.1,277.3V295h-1.7l-0.1-2.1c-0.7,1.4-2.2,2.4-4.2,2.4c-3.4,0-5.5-2.4-5.5-6.3c0-4,2.2-6.3,5.5-6.3c1.8,0,3.3,0.9,4,2.1
		v-7.5H109.1z M107.1,289.1v-0.3c0-2.7-1.5-4.5-3.8-4.5c-2.4,0-3.8,1.8-3.8,4.6c0,2.8,1.4,4.6,3.8,4.6
		C105.6,293.5,107.1,291.8,107.1,289.1z"/>
	<path d="M124.1,282.8V295h-1.7l-0.1-1.8c-0.9,1.5-2.4,2.1-4.4,2.1c-2.4,0-4.5-1.2-4.5-4.4v-7.9h1.9v7.4c0,2.5,1.1,3.3,2.9,3.3
		c2.1,0,3.9-1.2,3.9-4.1v-6.6H124.1z"/>
	<path d="M138.8,285.8l-1.8,0.9c-0.5-1.6-1.6-2.4-3.2-2.4c-2.4,0-3.9,1.7-3.9,4.6s1.5,4.6,3.9,4.6c1.9,0,3-0.9,3.4-2.5l1.8,0.6
		c-0.8,2.2-2.6,3.6-5.2,3.6c-3.7,0-5.9-2.4-5.9-6.3c0-3.9,2.2-6.3,5.9-6.3C136.3,282.6,137.9,283.8,138.8,285.8z"/>
	<path d="M149.8,294.1c-0.8,0.7-1.8,1.1-3.1,1.1c-1.8,0-3.4-0.9-3.4-3.3v-7.5h-2.4v-1.7h2.4v-2.9l1.9-0.5v3.5h4.5v1.7h-4.5v7.1
		c0,1.2,0.8,1.8,1.8,1.8c0.9,0,1.5-0.3,2.1-0.9L149.8,294.1z"/>
	<path d="M152,279c0-0.9,0.6-1.5,1.5-1.5c0.9,0,1.5,0.6,1.5,1.5s-0.6,1.5-1.5,1.5C152.6,280.5,152,279.9,152,279z M154.5,295h-1.9
		v-12.2h1.9V295z"/>
	<path d="M169.1,282.8L164,295h-1.9l-5.1-12.2h2.2l3.8,10.2l4-10.2H169.1z"/>
	<path d="M181.9,289.6h-9.2c0.2,2.5,1.7,3.9,4,3.9c1.8,0,3-0.6,3.4-1.8l1.6,0.9c-0.9,1.7-2.4,2.6-5.1,2.6c-3.7,0-5.9-2.4-5.9-6.3
		c0-3.9,2.1-6.3,5.7-6.3c3.5,0,5.4,2.6,5.4,5.7C182,288.8,182,289.3,181.9,289.6z M172.8,287.9h7.4c-0.3-2.2-1.5-3.6-3.6-3.6
		C174.4,284.3,173.1,285.6,172.8,287.9z"/>
	<path d="M204.2,285.8l-1.8,0.9c-0.5-1.6-1.6-2.4-3.2-2.4c-2.4,0-3.9,1.7-3.9,4.6s1.5,4.6,3.9,4.6c1.9,0,3-0.9,3.4-2.5l1.8,0.6
		c-0.8,2.2-2.6,3.6-5.2,3.6c-3.7,0-5.9-2.4-5.9-6.3c0-3.9,2.2-6.3,5.9-6.3C201.7,282.6,203.3,283.8,204.2,285.8z"/>
	<path d="M214.8,282.8l-0.4,1.9c-0.4-0.2-0.9-0.3-1.5-0.3c-1.5,0-3.2,1.3-3.2,4v6.6h-1.9v-12.2h1.6l0.3,2c0.7-1.5,2-2.2,3.9-2.2
		C213.9,282.6,214.4,282.6,214.8,282.8z"/>
	<path d="M228.2,282.8V295h-1.7l-0.1-1.8c-0.9,1.5-2.4,2.1-4.4,2.1c-2.4,0-4.5-1.2-4.5-4.4v-7.9h1.9v7.4c0,2.5,1.1,3.3,2.9,3.3
		c2.1,0,3.9-1.2,3.9-4.1v-6.6H228.2z"/>
	<path d="M243.3,287.2v7.8h-1.9v-7.1c0-2.7-1.3-3.6-3-3.6c-1.8,0-3.8,1.1-3.8,4.2v6.5h-1.9v-12.2h1.7l0.1,1.9
		c0.9-1.5,2.4-2.1,4.1-2.1C241.2,282.6,243.3,284.1,243.3,287.2z"/>
	<path d="M257.9,285.8l-1.8,0.9c-0.5-1.6-1.6-2.4-3.2-2.4c-2.4,0-3.9,1.7-3.9,4.6s1.5,4.6,3.9,4.6c1.9,0,3-0.9,3.4-2.5l1.8,0.6
		c-0.8,2.2-2.6,3.6-5.2,3.6c-3.7,0-5.9-2.4-5.9-6.3c0-3.9,2.2-6.3,5.9-6.3C255.4,282.6,257,283.8,257.9,285.8z"/>
	<path d="M272.1,287.2v7.8h-1.9v-7.1c0-2.7-1.3-3.6-3-3.6c-1.8,0-3.8,1.1-3.8,4.3v6.4h-1.9v-17.7h1.9v7.4c0.9-1.5,2.3-2.1,4-2.1
		C270,282.6,272.1,284.1,272.1,287.2z"/>
</g>
<g>
	<path class="st1" d="M187.8,40.7c5-7.4,12.6-12.8,21.3-14.8c4.4-1,7.1-5.4,6.1-9.7c-1-4.4-5.4-7.1-9.7-6.1
		c-11.8,2.7-22.1,9.7-29.4,19.2C145.1,2.7,107.9-3.6,88.7,15.7c-6,6-9.7,14.2-10.8,23.6l-0.2,2c-18,18.2-30,40.3-34,62.2
		c-0.9,5.2-1.4,10.2-1.4,15.1c0,12.6,3.1,23.9,9.1,33.4c-4.5,5.7-4.9,13.1-0.7,17.3c4.3,4.3,11.7,3.8,17.4-0.8
		c29.2,18.2,75.9,7.9,110.6-26.2l2-0.2c9.5-1.1,17.7-4.8,23.6-10.8c7.3-7.3,11.2-17.5,11.2-29.5C215.5,82.2,205.2,59.7,187.8,40.7z
		 M111.5,88.7c-1.1-0.4-2.2-0.8-3.3-1.1c0.3-0.3,0.7-0.5,1.1-0.7c1-0.4,2-0.5,3-0.1c1,0.4,1.7,1.1,2.2,2.1c0.2,0.4,0.3,0.8,0.3,1.2
		C113.7,89.6,112.6,89.1,111.5,88.7z M106.8,93.1l-1.5,3.9c-0.6,1.5,0.2,3.1,1.6,3.7c0.3,0.1,0.7,0.2,1,0.2c1.1,0,2.2-0.7,2.6-1.8
		l1.5-3.9c7.6,3.6,13.6,9.7,17,17.5c3.5,7.8,4,16.3,1.6,24.4l-3.9-1.5c-1.5-0.6-3.1,0.2-3.7,1.6c-0.6,1.5,0.2,3.1,1.6,3.7l3.9,1.5
		c-4.8,10-13.8,16.9-24.1,19.2c-6.1,0.3-11.9-0.3-17.3-1.8l1-2.6c0.6-1.5-0.2-3.1-1.6-3.7c-1.5-0.6-3.1,0.2-3.7,1.6l-1.1,2.8
		c-4.4-1.9-8.3-4.6-11.7-8c-1.1-1.1-2.2-2.4-3.2-3.7c-1-1.5-1.8-3.1-2.5-4.7c-3.5-7.8-4-16.3-1.6-24.4l3.9,1.5
		c0.3,0.1,0.7,0.2,1,0.2c1.1,0,2.2-0.7,2.6-1.8c0.6-1.5-0.2-3.1-1.6-3.7l-3.9-1.5c3.6-7.6,9.7-13.6,17.5-17c4.6-2,9.5-3.1,14.4-3.1
		C100.1,91.6,103.5,92.1,106.8,93.1z M168,130.1c-13.6,13.6-29.1,23-44.2,27.7c4.9-4.3,8.8-9.7,11.3-16.2c6.9-18,0.2-38-15.1-48.5
		c0.7-2.2,0.5-4.5-0.4-6.6c-1-2.3-2.9-4.1-5.3-5c-2.4-0.9-5-0.8-7.3,0.2c-2.1,0.9-3.8,2.6-4.7,4.6c-7.4-1-15,0.1-22.1,3.2
		c-9.6,4.3-17.1,12-21.1,21.6c0.2-1.6,0.4-3.2,0.7-4.8C63.1,87.3,73.8,68,89.8,52c0.3-0.3,0.5-0.5,0.8-0.8c15.2,7.4,30.9,18.9,45,33
		c14.1,14.2,25.6,29.9,33,45C168.5,129.6,168.2,129.8,168,130.1z M192.8,119.8c-2.2,2.2-5,3.8-8.2,4.9
		c-8.2-17.6-21.2-35.8-37.4-51.9C131,56.6,112.8,43.6,95.2,35.4c1.1-3.3,2.7-6.1,4.9-8.3c13.9-13.9,47-4.5,72.1,20.6
		c16.6,16.6,27,37.4,27,54.1C199.2,107.1,198.1,114.5,192.8,119.8z"/>
	<path class="st1" d="M92.1,113.7L92.1,113.7c-0.1,0-0.2,0-0.2,0c-0.1,0-0.2,0-0.4,0c-0.1,0-0.2,0.1-0.3,0.1c-0.1,0-0.2,0-0.2,0.1
		c0,0,0,0,0,0c-0.1,0-0.2,0.1-0.3,0.1c-0.1,0-0.2,0.1-0.2,0.1c0,0-0.1,0.1-0.1,0.1c-0.1,0.1-0.2,0.2-0.3,0.3c0,0,0,0,0,0l-17.5,19.3
		c-0.8,0.8-0.9,2-0.5,3.1c0.5,1,1.5,1.7,2.6,1.7c0,0,0,0,0,0l26-0.1c0,0,0,0,0,0c0,0,0,0,0,0h0c0.1,0,0.3,0,0.4,0c0.1,0,0.2,0,0.2,0
		c0.2,0,0.3-0.1,0.5-0.2c0,0,0,0,0,0c0.1,0,0.1-0.1,0.2-0.1c0.1,0,0.2-0.1,0.3-0.1c0.1-0.1,0.2-0.2,0.3-0.2c0,0,0.1-0.1,0.1-0.1l0,0
		c0,0,0,0,0,0l19.2-20c0.8-0.8,1-2.1,0.5-3.1c-0.5-1.1-1.5-1.7-2.7-1.7L92.1,113.7C92.1,113.7,92.1,113.7,92.1,113.7z M91.3,121.6
		l5,11.2L81,133L91.3,121.6z M101.5,130.7l-5.1-11.5l16.6-0.5L101.5,130.7z"/>
</g>
</svg>
