<?xml version="1.0" encoding="utf-8"?>
<!-- Generator: Adobe Illustrator 21.0.0, SVG Export Plug-In . SVG Version: 6.00 Build 0)  -->
<svg version="1.1" id="Layer_1" xmlns="http://www.w3.org/2000/svg" xmlns:xlink="http://www.w3.org/1999/xlink" x="0px" y="0px"
	 viewBox="0 0 300 300" style="enable-background:new 0 0 300 300;" xml:space="preserve">
<style type="text/css">
	.st0{fill:#1A1A1A;}
	.st1{fill:#F15A24;}
</style>
<g>
	<path class="st0" d="M29.1,258.1H12.5v-64h16.7V258.1z"/>
	<path class="st0" d="M103.3,226.1c0,20.6-11.8,33-31.3,33s-31.4-12.3-31.4-33c0-20.6,11.9-33,31.4-33S103.3,205.5,103.3,226.1z
		 M57.6,226.1c0,13.1,5,19.9,14.3,19.9c9.2,0,14.3-6.8,14.3-19.9s-5-19.9-14.3-19.9C62.7,206.3,57.6,213,57.6,226.1z"/>
	<path class="st0" d="M143.4,259.1c-19.5,0-31.4-12.3-31.4-33c0-20.6,12-33,31.3-33c13.4,0,24.1,5.5,27.3,17.6l-14.6,5.9
		c-1.8-7.9-5.5-10.5-12.1-10.5c-9.3,0-14.8,6.8-14.8,19.9c0,13,5.1,19.9,14.5,19.9c7.2,0,11.1-3.3,12.7-10.5l15.1,4.3
		C167.7,253.2,157,259.1,143.4,259.1z"/>
	<path class="st0" d="M229.5,245.2v12.9h-48.8v-64h16.7v51.1H229.5z"/>
	<path class="st0" d="M275.7,243.7h-22.1l-4.5,14.4h-16.8l22.5-64h20l22.4,64h-17.2L275.7,243.7z M272.2,232.3l-4.7-15.3l-2.8-10.1
		h-0.2l-2.6,10l-4.8,15.4H272.2z"/>
</g>
<g>
	<path d="M16.7,266.8v14.7h-1.8v-10.8c0-0.5,0-1.1,0-1.7c-1,1-2.4,1.7-3.8,2.1l-0.5-1.6c1-0.1,3.6-1.5,4.5-2.7H16.7z"/>
	<path d="M20.4,274.2c0-4.9,1.9-7.6,5.5-7.6s5.5,2.7,5.5,7.6s-1.9,7.6-5.5,7.6S20.4,279.1,20.4,274.2z M29.6,274.2
		c0-3.9-1.3-6-3.6-6c-2.4,0-3.6,2.1-3.6,6c0,3.9,1.3,6,3.6,6C28.3,280.1,29.6,278,29.6,274.2z"/>
	<path d="M39.7,266.8v14.7h-1.8v-10.8c0-0.5,0-1.1,0-1.7c-1,1-2.4,1.7-3.8,2.1l-0.5-1.6c1-0.1,3.6-1.5,4.5-2.7H39.7z"/>
	<path d="M43.5,274.2c0-4.9,1.9-7.6,5.5-7.6s5.5,2.7,5.5,7.6s-1.9,7.6-5.5,7.6S43.5,279.1,43.5,274.2z M52.6,274.2
		c0-3.9-1.3-6-3.6-6c-2.4,0-3.6,2.1-3.6,6c0,3.9,1.3,6,3.6,6C51.3,280.1,52.6,278,52.6,274.2z"/>
	<path d="M62.7,266.8v14.7H61v-10.8c0-0.5,0-1.1,0-1.7c-1,1-2.4,1.7-3.8,2.1l-0.5-1.6c1-0.1,3.6-1.5,4.5-2.7H62.7z"/>
	<path d="M66.5,274.2c0-4.9,1.9-7.6,5.5-7.6s5.5,2.7,5.5,7.6s-1.9,7.6-5.5,7.6S66.5,279.1,66.5,274.2z M75.6,274.2
		c0-3.9-1.3-6-3.6-6c-2.4,0-3.6,2.1-3.6,6c0,3.9,1.3,6,3.6,6C74.3,280.1,75.6,278,75.6,274.2z"/>
	<path d="M97.9,273.1l-1.7,0.8c-0.5-1.4-1.4-2.2-3-2.2c-2.2,0-3.6,1.6-3.6,4.2s1.3,4.2,3.6,4.2c1.7,0,2.8-0.8,3.1-2.3l1.7,0.6
		c-0.8,2.1-2.4,3.3-4.7,3.3c-3.4,0-5.4-2.2-5.4-5.8s2-5.8,5.4-5.8C95.6,270.1,97.1,271.3,97.9,273.1z"/>
	<path d="M107.7,270.4l-0.4,1.7c-0.3-0.2-0.8-0.3-1.4-0.3c-1.3,0-2.9,1.2-2.9,3.7v6h-1.8v-11.2h1.5l0.2,1.8c0.6-1.4,1.8-2.1,3.6-2.1
		C106.8,270.1,107.3,270.2,107.7,270.4z"/>
	<path d="M119.9,270.4v11.2h-1.6l-0.1-1.7c-0.8,1.3-2.2,1.9-4,1.9c-2.2,0-4.1-1.1-4.1-4.1v-7.3h1.8v6.8c0,2.3,1,3,2.6,3
		c1.9,0,3.6-1.1,3.6-3.8v-6.1H119.9z"/>
	<path d="M133.9,274.4v7.1h-1.8V275c0-2.5-1.2-3.3-2.7-3.3c-1.6,0-3.5,1-3.5,3.9v5.9h-1.8v-11.2h1.6l0.1,1.7c0.8-1.4,2.2-2,3.8-2
		C131.9,270.1,133.9,271.5,133.9,274.4z"/>
	<path d="M147.2,273.1l-1.7,0.8c-0.5-1.4-1.4-2.2-3-2.2c-2.2,0-3.6,1.6-3.6,4.2s1.3,4.2,3.6,4.2c1.7,0,2.8-0.8,3.1-2.3l1.7,0.6
		c-0.8,2.1-2.4,3.3-4.7,3.3c-3.4,0-5.4-2.2-5.4-5.8s2-5.8,5.4-5.8C144.9,270.1,146.4,271.3,147.2,273.1z"/>
	<path d="M160.3,274.4v7.1h-1.8V275c0-2.5-1.2-3.3-2.7-3.3c-1.6,0-3.5,1-3.5,3.9v5.9h-1.8v-16.3h1.8v6.8c0.8-1.3,2.1-1.9,3.6-1.9
		C158.3,270.1,160.3,271.5,160.3,274.4z"/>
</g>
<g>
	<path class="st1" d="M38.6,134.9c0,1.4,1.1,2.5,2.5,2.5c1.4,0,2.5-1.1,2.5-2.5V115c0-1-0.6-2-1.6-2.4c-1-0.4-2-0.2-2.8,0.6
		l-6.5,6.5c-1,1-1,2.6,0,3.6c1,1,2.6,1,3.6,0l2.1-2.1V134.9z M38.6,134.9"/>
	<path class="st1" d="M53.6,90.8l2.1-2.1v13.8c0,1.4,1.1,2.5,2.5,2.5c1.4,0,2.5-1.1,2.5-2.5V82.5c0-1-0.6-2-1.6-2.4
		c-1-0.4-2-0.2-2.8,0.6L50,87.2c-1,1-1,2.6,0,3.6C51,91.8,52.6,91.8,53.6,90.8L53.6,90.8z M53.6,90.8"/>
</g>
<path class="st1" d="M82.6,112.6c-0.9-0.4-2-0.2-2.8,0.6l-6.5,6.5c-1,1-1,2.6,0,3.6c1,1,2.6,1,3.6,0l2.1-2.1v13.8
	c0,1.4,1.1,2.5,2.5,2.5c1.4,0,2.5-1.1,2.5-2.5V115C84.2,113.9,83.6,113,82.6,112.6L82.6,112.6z M82.6,112.6"/>
<path class="st1" d="M67.3,128.7v-7.5c0-4.8-3.9-8.8-8.8-8.8h-0.1c-4.8,0-8.8,3.9-8.8,8.8v7.5c0,4.8,3.9,8.8,8.8,8.8h0.1
	C63.3,137.4,67.3,133.5,67.3,128.7L67.3,128.7z M62.2,128.7c0,2-1.6,3.7-3.7,3.7h-0.1c-2,0-3.7-1.6-3.7-3.7v-7.5
	c0-2,1.6-3.7,3.7-3.7h0.1c2,0,3.7,1.6,3.7,3.7V128.7z M62.2,128.7"/>
<path class="st1" d="M99.3,112.4h-0.1c-4.8,0-8.8,3.9-8.8,8.7v7.5c0,4.8,3.9,8.8,8.8,8.8h0.1c4.8,0,8.8-3.9,8.8-8.8v-7.5
	C108,116.3,104.1,112.4,99.3,112.4L99.3,112.4z M102.9,128.7c0,2-1.6,3.7-3.7,3.7h-0.1c-2,0-3.7-1.6-3.7-3.7v-7.5
	c0-2,1.6-3.7,3.7-3.7h0.1c2,0,3.7,1.6,3.7,3.7V128.7z M102.9,128.7"/>
<path class="st1" d="M75.7,80h-0.1c-4.8,0-8.8,3.9-8.8,8.8v7.5c0,4.8,3.9,8.8,8.8,8.8h0.1c1.4,0,2.5-1.1,2.5-2.5
	c0-1.4-1.1-2.5-2.5-2.5h-0.1c-2,0-3.7-1.6-3.7-3.7v-7.5c0-2,1.6-3.7,3.7-3.7h0.1c2,0,3.7,1.6,3.7,3.7c0,1.4,1.1,2.5,2.5,2.5
	c1.4,0,2.5-1.1,2.5-2.5C84.4,83.9,80.5,80,75.7,80L75.7,80z M75.7,80"/>
<path class="st1" d="M146.3,51.7c4.5-6.7,11.5-11.6,19.4-13.5c4-0.9,6.5-4.9,5.5-8.9c-0.9-4-4.9-6.4-8.9-5.5
	c-10.7,2.5-20.1,8.8-26.7,17.5c-28.3-24.2-62-30-79.6-12.4c-5.4,5.4-8.8,12.9-9.8,21.5l-0.2,1.8c-16.3,16.6-27.3,36.6-30.9,56.6
	c-0.9,4.7-1.3,9.3-1.3,13.7c0,11.4,2.8,21.8,8.2,30.3c-4.1,5.2-4.5,11.9-0.6,15.8c3.9,3.9,10.6,3.5,15.8-0.7
	c26.6,16.6,69,7.2,100.6-23.8l1.8-0.2c8.6-1,16.1-4.4,21.5-9.8c6.7-6.7,10.2-15.9,10.2-26.8C171.5,89.4,162.1,69,146.3,51.7z
	 M50.3,158.1c-2.7-1.1-5.2-2.6-7.4-4.3v-1.3c0-2,1.6-3.7,3.7-3.7h0.1c2,0,3.7,1.6,3.7,3.7V158.1z M128.3,132.9
	c-17,17-37.4,26.8-55.5,28.3c0.2-0.4,0.4-0.8,0.4-1.3v-13.7c0-1-0.6-2-1.6-2.4c-0.9-0.4-2-0.2-2.8,0.6l-6.5,6.5c-1,1-1,2.6,0,3.6
	c1,1,2.6,1,3.6,0l2.1-2.1v7.5c0,0.6,0.2,1.1,0.5,1.5c-4.6,0.1-9.1-0.5-13.2-1.6v-7.4c0-4.8-3.9-8.8-8.8-8.8h-0.1
	c-3.8,0-7,2.4-8.2,5.8C30,140.5,27,127,29.8,111.3C32.9,94,42.6,76.5,57.2,61.9c0.2-0.2,0.5-0.5,0.7-0.7
	c11.2,5.5,22.8,13.4,33.6,23.1c-0.7,1.3-1.2,2.8-1.2,4.4v7.5c0,4.8,3.9,8.8,8.8,8.8h0.1c3.4,0,6.4-2,7.8-4.9
	c9.1,10.4,16.6,21.4,21.8,32.2C128.7,132.5,128.5,132.7,128.3,132.9z M95.5,96.2v-7.5c0-0.2,0-0.5,0.1-0.7c1.1,1.1,2.2,2.1,3.3,3.3
	c1.4,1.4,2.7,2.8,4,4.2v0.8c0,2-1.6,3.7-3.7,3.7h-0.1C97.1,99.9,95.5,98.2,95.5,96.2z M150.8,123.6c-2,2-4.5,3.5-7.5,4.5
	c-7.4-16-19.3-32.5-34-47.2c-14.7-14.7-31.3-26.6-47.2-34c1-3,2.5-5.5,4.5-7.5c12.7-12.7,42.7-4.1,65.6,18.7
	c15.1,15.1,24.6,34,24.6,49.2C156.7,112,155.7,118.8,150.8,123.6z"/>
</svg>
