<?xml version="1.0" encoding="utf-8"?>
<!-- Generator: Adobe Illustrator 21.0.0, SVG Export Plug-In . SVG Version: 6.00 Build 0)  -->
<svg version="1.1" id="Layer_1" xmlns="http://www.w3.org/2000/svg" xmlns:xlink="http://www.w3.org/1999/xlink" x="0px" y="0px"
	 viewBox="0 0 300 300" style="enable-background:new 0 0 300 300;" xml:space="preserve">
<style type="text/css">
	.st0{fill:#E14124;}
	.st1{fill-rule:evenodd;clip-rule:evenodd;fill:#3C5459;}
	.st2{fill:#1A1A1A;}
</style>
<g>
	<path class="st0" d="M152.4,120.3c-2.8-10.5-4.9-20.9-6.8-31.4c-0.6-3.1-1.1-5.4-5.2-5.1c-3.7,0.2-6.3,0.3-7.1,5.1
		c-1.8,10.9-4.4,21.6-6.6,32.3c-2.8-10.5-4.6-21-6.5-31.6c-1-5.9-2.6-7-9.1-5.7c-5.4,1.1-0.6,4.5-1.1,6.8c-0.3,1.5,0.6,3.3,1,5
		c0.3,1.4,0.2,2.9-1.6,3c-3.2,0.2-6.4,2.7-9.8-0.4c-2.2-2-5.1-1.2-7,1.4c-1.8,2.5-1.1,5,1.1,6.6c2.7,2.1,5.8,1.8,7.4-1.2
		c2.1-3.9,5.9-2.8,9-3.7c2.6-0.7,2.7,1.8,2.8,3.3c0.1,2.1,2.6,5.1-0.1,6.1c-3.1,1.1-6.7,3.3-10.3,0.4c-2.7-2.1-5.6-1.8-7.5,1
		c-1.8,2.6-1.2,5.3,1.4,7c2.9,1.9,5.6,1.1,7.4-1.9c2.3-3.9,6.5-3.2,9.8-3.3c3.2-0.1,1.9,4,2.8,6.1c0.6,1.3,1,3.5-1.3,3.6
		c-3.6,0.2-7.1,3-10.9-0.3c-2.2-1.9-5.3-1.1-6.9,1.6c-1.5,2.5-1,5,1.2,6.7c2.5,1.9,5.1,1.5,7.2-0.9c0.5-0.6,0.7-1.4,1.2-1.9
		c3.6-3.5,11.2-2.6,11.7,1.5c0.6,4.5,2.2,6.4,7.2,6.5c5.6,0.1,5.6-3.3,6.4-6.8c2.1-9.5,4.3-18.9,6.8-30c2.3,11.4,4.4,21.1,6.2,30.9
		c0.6,3.6,1.3,6,5.9,5.8c4.2-0.1,6.4-0.8,7.4-5.5c2.5-11.4,5.2-22.8,7.9-34.2l-7.5-8.5C156.7,99.3,154.5,109.8,152.4,120.3z
		 M102.1,130.1c-1.5,0.3-2.5-0.4-2.7-2c-0.1-1.3,0.6-2.3,1.8-2.4c1.5-0.2,2.5,0.6,2.8,2.1C104,129.1,103.2,129.9,102.1,130.1z"/>
	<g>
		<g>
			<path class="st1" d="M189.5,29.9c-29.9-25.6-65.7-31.7-84.3-13.2c-5.8,5.8-9.3,13.6-10.4,22.8l-0.2,1.9
				C77.4,59,65.8,80.2,62,101.4c-0.9,5-1.3,9.8-1.3,14.5c0,12.1,3,23.1,8.7,32.1c-4.3,5.5-4.7,12.6-0.6,16.7
				c4.1,4.1,11.3,3.7,16.8-0.7c28.2,17.6,73.1,7.7,106.5-25.2l1.9-0.2c9.1-1,17-4.6,22.8-10.4c7-7,10.8-16.9,10.8-28.4
				c0-18.9-9.9-40.5-26.6-58.8c4.8-7.1,12.1-12.3,20.6-14.3c4.2-1,6.8-5.2,5.8-9.4c-1-4.2-5.2-6.8-9.4-5.8
				C206.5,14,196.5,20.8,189.5,29.9L189.5,29.9z M106.4,51.8c0.3-0.3,0.5-0.5,0.8-0.7c14.6,7.1,29.7,18.2,43.4,31.8
				c13.6,13.6,24.7,28.8,31.8,43.4c-0.3,0.3-0.5,0.5-0.7,0.8c-31.2,31.2-73.4,39.6-94.1,18.9c-9.7-9.7-13.3-24.5-10.2-41.8
				C80.6,85.8,90.9,67.2,106.4,51.8L106.4,51.8z M116.3,27.8c13.4-13.4,45.2-4.4,69.4,19.8c16,16,26,36,26,52.1
				c0,5.1-1.1,12.2-6.2,17.4c-2.1,2.1-4.8,3.7-7.9,4.7c-7.9-16.9-20.5-34.4-36-50c-15.6-15.6-33.1-28.2-50-36
				C112.6,32.6,114.2,29.9,116.3,27.8L116.3,27.8z M116.3,27.8"/>
		</g>
	</g>
	<g>
		<path class="st2" d="M76.7,259H59.1v-67.7h17.7V259z"/>
		<path class="st2" d="M155.2,225.2c0,21.9-12.5,34.9-33.1,34.9s-33.3-13-33.3-34.9s12.6-34.9,33.3-34.9S155.2,203.3,155.2,225.2z
			 M106.9,225.2c0,13.9,5.3,21,15.2,21c9.8,0,15.1-7.2,15.1-21s-5.3-21-15.1-21C112.2,204.1,106.9,211.3,106.9,225.2z"/>
		<path class="st2" d="M221.5,204.9h-22.1V259h-17.7v-54.1h-22.2v-13.7h61.9V204.9z"/>
	</g>
	<g>
		<path d="M71.9,272v11.8h-1.7l-0.1-1.8c-0.8,1.4-2.3,2-4.2,2c-2.3,0-4.3-1.2-4.3-4.3V272h1.9v7.2c0,2.4,1.1,3.2,2.8,3.2
			c2,0,3.8-1.2,3.8-4V272H71.9z"/>
		<path d="M87.5,277.9c0,3.9-2.1,6.1-5.4,6.1c-1.9,0-3.4-0.9-4-2.3l-0.1,2.1h-1.7v-17.3h1.9v7.3c0.7-1.2,2.2-2.1,3.9-2.1
			C85.4,271.7,87.5,274,87.5,277.9z M85.6,277.9c0-2.7-1.4-4.5-3.7-4.5c-2.2,0-3.7,1.7-3.7,4.3v0.3c0,2.7,1.5,4.3,3.7,4.3
			C84.2,282.4,85.6,280.6,85.6,277.9z"/>
		<path d="M90.7,268.3c0-0.9,0.6-1.4,1.4-1.4s1.4,0.6,1.4,1.4c0,0.9-0.6,1.4-1.4,1.4S90.7,269.1,90.7,268.3z M93.1,283.8h-1.9V272
			h1.9V283.8z"/>
		<path d="M108,272v16.8h-1.9V282c-0.7,1.2-2.2,2.1-3.9,2.1c-3.3,0-5.4-2.3-5.4-6.1s2.1-6.1,5.4-6.1c1.9,0,3.4,0.9,4,2.3l0.1-2.1
			H108z M106.1,278v-0.3c0-2.7-1.5-4.3-3.7-4.3c-2.3,0-3.7,1.7-3.7,4.5c0,2.7,1.4,4.5,3.7,4.5C104.6,282.4,106.1,280.7,106.1,278z"
			/>
		<path d="M122.6,272v11.8H121l-0.1-1.8c-0.8,1.4-2.3,2-4.2,2c-2.3,0-4.3-1.2-4.3-4.3V272h1.9v7.2c0,2.4,1.1,3.2,2.8,3.2
			c2,0,3.8-1.2,3.8-4V272H122.6z"/>
		<path d="M126.5,268.3c0-0.9,0.6-1.4,1.4-1.4s1.4,0.6,1.4,1.4c0,0.9-0.6,1.4-1.4,1.4S126.5,269.1,126.5,268.3z M128.9,283.8H127
			V272h1.9V283.8z"/>
		<path d="M140.5,283c-0.7,0.7-1.7,1.1-3,1.1c-1.7,0-3.3-0.9-3.3-3.2v-7.3h-2.4V272h2.4v-2.8l1.9-0.5v3.4h4.4v1.6h-4.4v6.9
			c0,1.2,0.7,1.7,1.8,1.7c0.9,0,1.5-0.3,2-0.9L140.5,283z"/>
		<path d="M153.9,277.9c0,3.8-2.2,6.1-5.7,6.1s-5.7-2.3-5.7-6.1s2.2-6.1,5.7-6.1S153.9,274.1,153.9,277.9z M144.4,277.9
			c0,2.8,1.4,4.5,3.8,4.5c2.4,0,3.8-1.7,3.8-4.5s-1.4-4.5-3.8-4.5C145.8,273.4,144.4,275.1,144.4,277.9z"/>
		<path d="M167.8,272v11.8h-1.7L166,282c-0.8,1.4-2.3,2-4.2,2c-2.3,0-4.3-1.2-4.3-4.3V272h1.9v7.2c0,2.4,1.1,3.2,2.8,3.2
			c2,0,3.8-1.2,3.8-4V272H167.8z"/>
		<path d="M171.1,281.4l1.5-1.1c0.6,1.4,2,2.1,3.7,2.1c1.9,0,2.9-0.8,2.9-1.7c0-0.9-0.7-1.4-3.1-1.8c-3.4-0.6-4.6-1.5-4.6-3.5
			c0-1.9,1.8-3.5,4.7-3.5c2.5,0,4,0.9,4.7,2.8l-1.6,0.9c-0.5-1.6-1.6-2.1-3.1-2.1c-1.6,0-2.8,0.9-2.8,1.7c0,1,0.8,1.5,3.2,1.9
			c3.3,0.5,4.5,1.5,4.5,3.5c0,2.1-1.9,3.5-4.9,3.5C174,284,172,283.2,171.1,281.4z"/>
		<path d="M202.6,274.9l-1.8,0.9c-0.5-1.5-1.5-2.3-3.1-2.3c-2.4,0-3.8,1.7-3.8,4.5s1.4,4.5,3.8,4.5c1.8,0,3-0.9,3.3-2.4l1.7,0.6
			c-0.8,2.2-2.5,3.5-5,3.5c-3.6,0-5.7-2.3-5.7-6.1s2.2-6.1,5.7-6.1C200.1,271.7,201.7,273,202.6,274.9z"/>
		<path d="M212.9,272l-0.4,1.8c-0.4-0.2-0.9-0.3-1.5-0.3c-1.4,0-3.1,1.3-3.1,3.9v6.4H206V272h1.5l0.3,1.9c0.7-1.4,1.9-2.2,3.8-2.2
			C212,271.7,212.6,271.8,212.9,272z"/>
		<path d="M225.9,272v11.8h-1.7l-0.1-1.8c-0.8,1.4-2.3,2-4.2,2c-2.3,0-4.3-1.2-4.3-4.3V272h1.9v7.2c0,2.4,1.1,3.2,2.8,3.2
			c2,0,3.8-1.2,3.8-4V272H225.9z"/>
		<path d="M240.7,276.2v7.6h-1.9v-6.9c0-2.6-1.3-3.5-2.9-3.5c-1.7,0-3.7,1.1-3.7,4.1v6.3h-1.9V272h1.7l0.1,1.8
			c0.8-1.5,2.3-2.1,4-2.1C238.6,271.7,240.7,273.2,240.7,276.2z"/>
		<path d="M254.8,274.9l-1.8,0.9c-0.5-1.5-1.5-2.3-3.1-2.3c-2.4,0-3.8,1.7-3.8,4.5s1.4,4.5,3.8,4.5c1.8,0,3-0.9,3.3-2.4l1.7,0.6
			c-0.8,2.2-2.5,3.5-5,3.5c-3.6,0-5.7-2.3-5.7-6.1s2.2-6.1,5.7-6.1C252.4,271.7,253.9,273,254.8,274.9z"/>
		<path d="M268.6,276.2v7.6h-1.9v-6.9c0-2.6-1.3-3.5-2.9-3.5c-1.7,0-3.7,1.1-3.7,4.1v6.3h-1.9v-17.3h1.9v7.2c0.8-1.4,2.2-2,3.9-2
			C266.5,271.7,268.6,273.2,268.6,276.2z"/>
	</g>
</g>
</svg>
