<?xml version="1.0" encoding="utf-8"?>
<!-- Generator: Adobe Illustrator 21.0.0, SVG Export Plug-In . SVG Version: 6.00 Build 0)  -->
<svg version="1.1" id="Layer_1" xmlns="http://www.w3.org/2000/svg" xmlns:xlink="http://www.w3.org/1999/xlink" x="0px" y="0px"
	 viewBox="0 0 300 300" style="enable-background:new 0 0 300 300;" xml:space="preserve">
<style type="text/css">
	.st0{fill-rule:evenodd;clip-rule:evenodd;fill:#2E3192;}
	.st1{fill:#1A1A1A;}
	.st2{fill:#2E3192;stroke:#2E3192;stroke-width:3.2488;stroke-miterlimit:10;}
</style>
<g>
	<g>
		<path class="st0" d="M201.7,28.4c-30.9-26.5-67.9-32.8-87-13.6c-5.9,5.9-9.6,14.1-10.7,23.5l-0.2,1.9
			c-17.9,18.1-29.9,40.1-33.8,61.9c-0.9,5.2-1.4,10.1-1.4,15c0,12.5,3.1,23.8,9,33.2c-4.4,5.7-4.9,13-0.7,17.2
			c4.2,4.2,11.6,3.8,17.3-0.8c29.1,18.1,75.5,7.9,110-26.1l2-0.2c9.4-1.1,17.6-4.8,23.5-10.7c7.3-7.3,11.1-17.4,11.1-29.4
			c0-19.5-10.3-41.8-27.5-60.7c4.9-7.4,12.5-12.7,21.2-14.7c4.3-1,7.1-5.3,6-9.7c-1-4.3-5.3-7-9.7-6C219.2,12,208.9,18.9,201.7,28.4
			L201.7,28.4z M115.8,51c0.3-0.3,0.5-0.5,0.8-0.8c15.1,7.4,30.7,18.8,44.8,32.9c14.1,14.1,25.5,29.7,32.9,44.8
			c-0.3,0.3-0.5,0.5-0.8,0.8c-32.2,32.2-75.8,40.9-97.2,19.5c-10-10-13.7-25.3-10.5-43.2C89.2,86.1,99.9,66.9,115.8,51L115.8,51z
			 M126.1,26.2c13.9-13.9,46.7-4.5,71.7,20.5c16.6,16.6,26.9,37.2,26.9,53.8c0,5.3-1.1,12.6-6.4,17.9c-2.2,2.2-4.9,3.8-8.2,4.9
			c-8.1-17.5-21.1-35.6-37.2-51.7c-16.1-16.1-34.2-29.1-51.6-37.2C122.3,31.2,123.9,28.4,126.1,26.2L126.1,26.2z M126.1,26.2"/>
	</g>
	<g>
		<path class="st1" d="M85.2,265.5H66.9v-70h18.2V265.5z"/>
		<path class="st1" d="M158.1,207.1L147.8,219c-4.7-7-10.6-10.3-19.5-10.3c-7.5,0-11.4,3-11.4,7c0,3.6,3.3,5.7,14,7.6
			c19.2,3.3,26.7,9.4,26.7,21.7c0,13.7-12.7,21.5-29.6,21.5c-16.5,0-25.2-4.2-32.1-11.9l9.4-12.8c5.6,8.1,12.4,10.6,21.7,10.6
			c7.8,0,11.7-2.4,11.7-6.5c0-3.2-3.3-5-13.7-7c-19.6-3.6-27.1-9.8-27.1-21.7c0-13.1,10.9-22.8,30.1-22.8
			C141.1,194.5,150,198.1,158.1,207.1z"/>
		<path class="st1" d="M200.3,266.6c-21.3,0-34.3-13.5-34.3-36c0-22.6,13.1-36,34.2-36c14.6,0,26.4,6,29.9,19.3l-16,6.5
			c-2-8.7-6-11.4-13.3-11.4c-10.2,0-16.2,7.4-16.2,21.7c0,14.2,5.6,21.7,15.9,21.7c7.8,0,12.2-3.6,13.9-11.4l16.5,4.7
			C226.8,260.1,215.1,266.6,200.3,266.6z"/>
	</g>
	<g>
		<path d="M66.5,288.6l1.6-1.1c0.6,1.5,2.1,2.1,3.9,2.1c2,0,3-0.8,3-1.8c0-0.9-0.8-1.4-3.2-1.9c-3.5-0.6-4.7-1.6-4.7-3.6
			c0-2,1.8-3.7,4.8-3.7c2.6,0,4.2,0.9,4.8,2.9l-1.7,1c-0.5-1.6-1.6-2.2-3.2-2.2c-1.6,0-2.9,0.9-2.9,1.8c0,1,0.8,1.6,3.3,2
			c3.4,0.6,4.6,1.6,4.6,3.6c0,2.1-2,3.6-5.1,3.6C69.5,291.4,67.5,290.5,66.5,288.6z"/>
		<path d="M90.9,285.8h-9.2c0.2,2.5,1.7,3.9,4,3.9c1.8,0,3-0.6,3.4-1.8l1.6,0.9c-0.9,1.7-2.4,2.7-5.1,2.7c-3.7,0-5.9-2.4-5.9-6.3
			s2.1-6.3,5.8-6.3c3.5,0,5.5,2.6,5.5,5.7C91,285,90.9,285.4,90.9,285.8z M81.7,284h7.4c-0.3-2.2-1.5-3.6-3.6-3.6
			C83.3,280.4,82,281.7,81.7,284z"/>
		<path d="M104.9,281.9l-1.9,0.9c-0.5-1.6-1.6-2.4-3.2-2.4c-2.4,0-3.9,1.7-3.9,4.6s1.5,4.6,3.9,4.6c1.9,0,3.1-0.9,3.4-2.5l1.8,0.6
			c-0.8,2.2-2.6,3.6-5.2,3.6c-3.7,0-5.9-2.4-5.9-6.3s2.2-6.3,5.9-6.3C102.3,278.7,104,279.9,104.9,281.9z"/>
		<path d="M119,278.9v12.2h-1.7l-0.1-1.9c-0.9,1.5-2.4,2.1-4.4,2.1c-2.4,0-4.5-1.2-4.5-4.5v-8h2v7.5c0,2.5,1.1,3.3,2.9,3.3
			c2.1,0,3.9-1.2,3.9-4.1v-6.6H119z"/>
		<path d="M130.7,278.9l-0.4,1.9c-0.4-0.2-0.9-0.3-1.5-0.3c-1.5,0-3.2,1.3-3.2,4v6.6h-2v-12.2h1.6l0.3,2c0.7-1.5,2-2.2,3.9-2.2
			C129.7,278.7,130.3,278.7,130.7,278.9z"/>
		<path d="M133,275.1c0-0.9,0.6-1.5,1.5-1.5s1.5,0.6,1.5,1.5s-0.6,1.5-1.5,1.5S133,276,133,275.1z M135.5,291.1h-2v-12.2h2V291.1z"
			/>
		<path d="M147.5,290.3c-0.8,0.7-1.8,1.1-3.1,1.1c-1.8,0-3.4-0.9-3.4-3.3v-7.5h-2.4v-1.7h2.4V276l2-0.5v3.5h4.5v1.7h-4.5v7.2
			c0,1.2,0.8,1.8,1.8,1.8c0.9,0,1.5-0.3,2.1-0.9L147.5,290.3z"/>
		<path d="M154.9,293.2c-1,2.4-2.1,3.2-3.9,3.2c-1.2,0-2-0.3-2.7-1l0.7-1.7c0.6,0.8,1.3,1,2,1c0.9,0,1.6-0.4,2.2-2l0.6-1.6
			l-5.1-12.2h2.2l3.1,8l0.8,2.2l0.9-2.4l2.9-7.7h2.1L154.9,293.2z"/>
		<path d="M181.2,281.9l-1.9,0.9c-0.5-1.6-1.6-2.4-3.2-2.4c-2.4,0-3.9,1.7-3.9,4.6s1.5,4.6,3.9,4.6c1.9,0,3.1-0.9,3.4-2.5l1.8,0.6
			c-0.8,2.2-2.6,3.6-5.2,3.6c-3.7,0-5.9-2.4-5.9-6.3s2.2-6.3,5.9-6.3C178.7,278.7,180.3,279.9,181.2,281.9z"/>
		<path d="M191.9,278.9l-0.4,1.9c-0.4-0.2-0.9-0.3-1.5-0.3c-1.5,0-3.2,1.3-3.2,4v6.6h-2v-12.2h1.6l0.3,2c0.7-1.5,2-2.2,3.9-2.2
			C191,278.7,191.5,278.7,191.9,278.9z"/>
		<path d="M205.3,278.9v12.2h-1.7l-0.1-1.9c-0.9,1.5-2.4,2.1-4.4,2.1c-2.4,0-4.5-1.2-4.5-4.5v-8h2v7.5c0,2.5,1.1,3.3,2.9,3.3
			c2.1,0,3.9-1.2,3.9-4.1v-6.6H205.3z"/>
		<path d="M220.5,283.3v7.8h-2V284c0-2.7-1.3-3.6-3-3.6c-1.8,0-3.8,1.1-3.8,4.2v6.5h-2v-12.2h1.7l0.1,1.9c0.9-1.5,2.4-2.1,4.1-2.1
			C218.4,278.7,220.5,280.2,220.5,283.3z"/>
		<path d="M235.2,281.9l-1.9,0.9c-0.5-1.6-1.6-2.4-3.2-2.4c-2.4,0-3.9,1.7-3.9,4.6s1.5,4.6,3.9,4.6c1.9,0,3.1-0.9,3.4-2.5l1.8,0.6
			c-0.8,2.2-2.6,3.6-5.2,3.6c-3.7,0-5.9-2.4-5.9-6.3s2.2-6.3,5.9-6.3C232.6,278.7,234.3,279.9,235.2,281.9z"/>
		<path d="M249.4,283.3v7.8h-2V284c0-2.7-1.3-3.6-3-3.6c-1.8,0-3.8,1.1-3.8,4.3v6.5h-2v-17.8h2v7.4c0.9-1.5,2.3-2.1,4-2.1
			C247.3,278.7,249.4,280.2,249.4,283.3z"/>
	</g>
	<g>
		<path class="st2" d="M169.1,117.1l-5.8,0.7c-0.9-3-5.3-19.4-6.3-22.5c-1.2-3.6-4.9-5.9-8.8-5.4c-0.4,0-0.7,0.1-1.1,0.2
			c-5,1.3-10.8,2.4-16.7,3.2c-6,0.8-12,1.2-17.3,1.1c-0.4,0-0.7,0-1.1,0.1c-3.9,0.5-6.9,3.6-7.2,7.4c-0.2,3.3-0.4,20.3-0.5,23.4
			l-5.8,0.7c-2.8,0.4-4.9,3-4.5,5.8l0,0c0.4,2.8,3,4.9,5.8,4.5l70.6-9c2.8-0.4,4.9-3,4.5-5.8l0,0
			C174.5,118.8,171.9,116.8,169.1,117.1L169.1,117.1z M148.2,116.3l3.8-0.5l0.4,3.4l-3.8,0.5L148.2,116.3z M107.2,102.2
			c0.2-2.7,2.3-4.9,5.1-5.2c0.3,0,0.5-0.1,0.8,0c5.4,0,11.5-0.4,17.6-1.1c6-0.8,11.9-1.9,17-3.3c0.3-0.1,0.5-0.1,0.8-0.2
			c2.8-0.4,5.4,1.2,6.2,3.8c1,3,4.1,14.8,4.6,16.3l-5.1,0.7l-0.3-2c-0.2-1.7-1.8-2.9-3.5-2.7l-2.4,0.3c-1.7,0.2-2.9,1.8-2.7,3.5
			l0.3,2l-38.7,5C106.8,117.6,107,105.4,107.2,102.2L107.2,102.2z M172.5,122c0.2,1.5-0.9,2.9-2.4,3.1l-70.6,9
			c-1.5,0.2-2.9-0.9-3.1-2.4l0,0c-0.2-1.5,0.9-2.9,2.4-3.1l70.6-9C170.9,119.3,172.3,120.4,172.5,122L172.5,122z M172.5,122"/>
	</g>
</g>
</svg>
