<?xml version="1.0" encoding="utf-8"?>
<!-- Generator: Adobe Illustrator 21.0.0, SVG Export Plug-In . SVG Version: 6.00 Build 0)  -->
<svg version="1.1" id="Layer_1" xmlns="http://www.w3.org/2000/svg" xmlns:xlink="http://www.w3.org/1999/xlink" x="0px" y="0px"
	 viewBox="0 0 300 300" style="enable-background:new 0 0 300 300;" xml:space="preserve">
<style type="text/css">
	.st0{fill:#1A1A1A;}
	.st1{fill-rule:evenodd;clip-rule:evenodd;fill:#8CC63F;}
	.st2{fill:#8CC63F;}
</style>
<g>
	<path class="st0" d="M32.1,267.9H13.3v-72h18.8V267.9z"/>
	<path class="st0" d="M107.2,207.8L96.6,220c-4.8-7.2-10.9-10.6-20.1-10.6c-7.7,0-11.8,3.1-11.8,7.2c0,3.7,3.4,5.9,14.4,7.9
		c19.8,3.4,27.5,9.7,27.5,22.4c0,14.1-13.1,22.2-30.4,22.2c-17,0-26-4.4-33.1-12.2l9.7-13.2c5.8,8.3,12.8,10.9,22.4,10.9
		c8.1,0,12-2.5,12-6.7c0-3.3-3.4-5.1-14.1-7.2c-20.2-3.7-27.9-10-27.9-22.4c0-13.5,11.2-23.5,31-23.5
		C89.7,194.8,98.9,198.5,107.2,207.8z"/>
	<path class="st0" d="M148,241.6h-11.2v26.3h-18.4v-72h34.4c17.3,0,27.2,8.1,27.2,22.9c0,10.5-4.9,17.6-14.1,20.8l18.3,28.3h-20.7
		L148,241.6z M136.7,228.3h12.8c8,0,11.5-2.7,11.5-9.2c0-6.3-3.5-9.1-11.5-9.1h-12.8V228.3z"/>
	<path class="st0" d="M276.8,267.9h-16.6v-33.1l0.5-22.2h-0.2l-17.8,55.2h-15.2l-17.8-55.2h-0.2l0.5,22.2v33.1h-16.7v-72h26.7
		l11.3,36.7l4,15.3h0.2l4.1-15.2l11.2-36.8h25.6V267.9z"/>
</g>
<g>
	<path d="M34.4,281.7L30,294.2h-2l-3.5-10l-3.3,10h-2l-4.4-12.6H17l3.2,10.2l3.4-10.2h2l3.4,10.2l3.2-10.2H34.4z"/>
	<path d="M37.1,277.8c0-0.9,0.6-1.5,1.5-1.5s1.5,0.6,1.5,1.5c0,0.9-0.6,1.5-1.5,1.5S37.1,278.7,37.1,277.8z M39.6,294.2h-2v-12.6h2
		V294.2z"/>
	<path d="M51.6,281.7l-0.4,2c-0.4-0.2-0.9-0.3-1.6-0.3c-1.5,0-3.3,1.3-3.3,4.1v6.8h-2v-12.6h1.6l0.3,2.1c0.7-1.5,2.1-2.3,4-2.3
		C50.7,281.4,51.3,281.5,51.6,281.7z"/>
	<path d="M64.8,288.7h-9.5c0.3,2.5,1.8,4,4.1,4c1.8,0,3.1-0.7,3.5-1.9l1.7,0.9c-1,1.7-2.5,2.7-5.2,2.7c-3.8,0-6.1-2.5-6.1-6.5
		s2.1-6.5,5.9-6.5c3.6,0,5.6,2.6,5.6,5.9C64.9,287.9,64.9,288.4,64.8,288.7z M55.4,286.9H63c-0.3-2.3-1.6-3.7-3.7-3.7
		C57.1,283.2,55.7,284.6,55.4,286.9z"/>
	<path d="M70.7,290.9c0,1.3,0.3,1.7,1.4,1.7c0.7,0,1.1-0.1,1.8-0.4l-0.3,1.9c-0.5,0.2-1.2,0.4-1.9,0.4c-2,0-3-1.1-3-3.4v-15.2h2
		V290.9z"/>
	<path d="M87.1,288.7h-9.5c0.3,2.5,1.8,4,4.1,4c1.8,0,3.1-0.7,3.5-1.9l1.7,0.9c-1,1.7-2.5,2.7-5.2,2.7c-3.8,0-6.1-2.5-6.1-6.5
		s2.1-6.5,5.9-6.5c3.6,0,5.6,2.6,5.6,5.9C87.2,287.9,87.2,288.4,87.1,288.7z M77.7,286.9h7.6c-0.3-2.3-1.6-3.7-3.7-3.7
		C79.4,283.2,78,284.6,77.7,286.9z"/>
	<path d="M89.9,291.7l1.6-1.1c0.6,1.5,2.2,2.2,4,2.2c2.1,0,3-0.8,3-1.9c0-0.9-0.8-1.5-3.3-1.9c-3.6-0.7-4.9-1.6-4.9-3.7
		c0-2,1.9-3.8,5-3.8c2.7,0,4.3,1,5,3l-1.7,1c-0.6-1.7-1.7-2.3-3.3-2.3c-1.7,0-2.9,0.9-2.9,1.8c0,1.1,0.8,1.6,3.4,2.1
		c3.5,0.6,4.8,1.6,4.8,3.7c0,2.2-2,3.7-5.3,3.7C93,294.5,90.9,293.6,89.9,291.7z"/>
	<path d="M103.2,291.7l1.6-1.1c0.6,1.5,2.2,2.2,4,2.2c2.1,0,3-0.8,3-1.9c0-0.9-0.8-1.5-3.3-1.9c-3.6-0.7-4.9-1.6-4.9-3.7
		c0-2,1.9-3.8,5-3.8c2.7,0,4.3,1,5,3l-1.7,1c-0.6-1.7-1.7-2.3-3.3-2.3c-1.7,0-2.9,0.9-2.9,1.8c0,1.1,0.8,1.6,3.4,2.1
		c3.5,0.6,4.8,1.6,4.8,3.7c0,2.2-2,3.7-5.3,3.7C106.2,294.5,104.1,293.6,103.2,291.7z"/>
	<path d="M136.6,284.8l-1.9,0.9c-0.5-1.6-1.6-2.5-3.3-2.5c-2.5,0-4,1.8-4,4.8c0,3,1.5,4.8,4,4.8c2,0,3.1-0.9,3.5-2.6l1.9,0.7
		c-0.9,2.3-2.7,3.7-5.3,3.7c-3.8,0-6.1-2.5-6.1-6.5s2.3-6.5,6.1-6.5C134,281.4,135.7,282.7,136.6,284.8z"/>
	<path d="M147.6,281.7l-0.4,2c-0.4-0.2-0.9-0.3-1.6-0.3c-1.5,0-3.3,1.3-3.3,4.1v6.8h-2v-12.6h1.6l0.3,2.1c0.7-1.5,2.1-2.3,4-2.3
		C146.6,281.4,147.2,281.5,147.6,281.7z"/>
	<path d="M161.4,281.7v12.6h-1.8l-0.1-1.9c-0.9,1.5-2.5,2.2-4.5,2.2c-2.5,0-4.6-1.3-4.6-4.6v-8.2h2v7.7c0,2.6,1.2,3.4,3,3.4
		c2.1,0,4-1.3,4-4.2v-6.8H161.4z"/>
	<path d="M177.1,286.2v8h-2v-7.3c0-2.8-1.4-3.7-3.1-3.7c-1.8,0-3.9,1.2-3.9,4.4v6.7h-2v-12.6h1.8l0.1,2c0.9-1.6,2.5-2.2,4.2-2.2
		C174.9,281.4,177.1,283,177.1,286.2z"/>
	<path d="M192.1,284.8l-1.9,0.9c-0.5-1.6-1.6-2.5-3.3-2.5c-2.5,0-4,1.8-4,4.8c0,3,1.5,4.8,4,4.8c2,0,3.1-0.9,3.5-2.6l1.9,0.7
		c-0.9,2.3-2.7,3.7-5.3,3.7c-3.8,0-6.1-2.5-6.1-6.5s2.3-6.5,6.1-6.5C189.5,281.4,191.2,282.7,192.1,284.8z"/>
	<path d="M206.8,286.2v8h-2v-7.3c0-2.8-1.4-3.7-3.1-3.7c-1.8,0-3.9,1.2-3.9,4.4v6.7h-2v-18.3h2v7.7c0.9-1.5,2.4-2.1,4.1-2.1
		C204.6,281.4,206.8,283,206.8,286.2z"/>
</g>
<g>
	<path class="st1" d="M142.2,31.3C110,3.7,71.6-2.8,51.7,17.1c-6.2,6.2-10,14.6-11.1,24.4l-0.2,2C21.8,62.5,9.3,85.3,5.2,108
		c-1,5.4-1.4,10.5-1.4,15.6c0,13,3.2,24.7,9.4,34.5c-4.6,5.9-5.1,13.6-0.7,17.9c4.4,4.4,12.1,3.9,18-0.8
		c30.2,18.8,78.5,8.2,114.3-27.1l2-0.2c9.8-1.1,18.3-5,24.4-11.1c7.6-7.6,11.6-18.1,11.6-30.5c0-20.3-10.7-43.5-28.6-63.1
		c5.1-7.6,13-13.2,22.1-15.3c4.5-1.1,7.3-5.5,6.3-10.1c-1-4.5-5.5-7.3-10.1-6.3C160.3,14.2,149.6,21.4,142.2,31.3L142.2,31.3z
		 M52.9,54.7c0.3-0.3,0.6-0.5,0.8-0.8c15.7,7.6,31.9,19.5,46.6,34.2c14.6,14.6,26.5,30.9,34.2,46.5c-0.3,0.3-0.5,0.5-0.8,0.8
		c-33.5,33.5-78.8,42.6-101,20.3c-10.4-10.4-14.3-26.3-10.9-44.8C25.3,91.2,36.3,71.3,52.9,54.7L52.9,54.7z M63.6,29
		c14.4-14.4,48.6-4.7,74.5,21.3c17.2,17.2,27.9,38.6,27.9,55.9c0,5.5-1.1,13.1-6.6,18.6c-2.3,2.3-5.1,4-8.5,5.1
		c-8.4-18.2-22-37-38.7-53.7C95.4,59.5,76.6,46,58.5,37.5C59.6,34.2,61.3,31.3,63.6,29L63.6,29z M63.6,29"/>
</g>
<g>
	<path class="st2" d="M105.3,146.5h-4.2c0-12.9-4.5-25.4-12.8-35.3l3.2-2.7C100.4,119.2,105.3,132.6,105.3,146.5z"/>
	<path class="st2" d="M88.3,111.2C77.8,98.6,62.4,91.4,46,91.4v-4.2c17.6,0,34.2,7.8,45.5,21.3L88.3,111.2z"/>
	<path class="st2" d="M93.5,146.5h-4.2c0-23.9-19.4-43.3-43.3-43.3V99C72.2,99,93.5,120.3,93.5,146.5z"/>
	<path class="st2" d="M81.8,146.5h-4.2c0-17.4-14.2-31.6-31.6-31.6v-4.2C65.8,110.7,81.8,126.8,81.8,146.5z"/>
	<path class="st2" d="M70.1,146.5h-4.2c0-11-8.9-19.9-19.9-19.9v-4.2C59.3,122.4,70.1,133.2,70.1,146.5z"/>
	<path class="st2" d="M46,155.9c-5.2,0-9.4-4.2-9.4-9.4s4.2-9.4,9.4-9.4c5.2,0,9.4,4.2,9.4,9.4S51.2,155.9,46,155.9z M46,141.3
		c-2.9,0-5.2,2.3-5.2,5.2c0,2.9,2.3,5.2,5.2,5.2c2.9,0,5.2-2.3,5.2-5.2C51.3,143.6,48.9,141.3,46,141.3z"/>
</g>
</svg>
