<?xml version="1.0" encoding="utf-8"?>
<!-- Generator: Adobe Illustrator 21.0.0, SVG Export Plug-In . SVG Version: 6.00 Build 0)  -->
<svg version="1.1" id="Layer_1" xmlns="http://www.w3.org/2000/svg" xmlns:xlink="http://www.w3.org/1999/xlink" x="0px" y="0px"
	 viewBox="0 0 300 300" style="enable-background:new 0 0 300 300;" xml:space="preserve">
<style type="text/css">
	.st0{fill:#1A1A1A;}
	.st1{fill-rule:evenodd;clip-rule:evenodd;fill:#93278F;}
	.st2{fill:none;stroke:#93278F;stroke-width:3.4704;stroke-miterlimit:10;}
</style>
<g>
	<g>
		<path class="st0" d="M120.7,260.8h-16.3v-32.5l0.5-21.8h-0.2l-17.5,54.4H72.3l-17.5-54.4h-0.2l0.5,21.8v32.5H38.7v-70.9H65
			L76.2,226l4,15h0.2l4.1-14.9l11.1-36.2h25.2V260.8z"/>
		<path class="st0" d="M196.4,213.5c0,14.5-9.8,22.8-27.4,22.8h-14.1v24.6h-18.5v-70.9H169C186.6,189.9,196.4,198.2,196.4,213.5z
			 M177.8,213.2c0-6.2-3.5-9.3-11.7-9.3h-11.2v18.8h11.2C174.2,222.7,177.8,219.6,177.8,213.2z"/>
		<path class="st0" d="M266.4,201.6l-10.4,12c-4.7-7.1-10.7-10.4-19.8-10.4c-7.6,0-11.6,3-11.6,7.1c0,3.7,3.3,5.8,14.2,7.7
			c19.4,3.3,27.1,9.6,27.1,22c0,13.9-12.9,21.8-30,21.8c-16.8,0-25.6-4.3-32.5-12l9.6-13c5.7,8.2,12.6,10.7,22,10.7
			c7.9,0,11.8-2.5,11.8-6.6c0-3.2-3.3-5-13.9-7.1c-19.9-3.7-27.5-9.9-27.5-22c0-13.3,11.1-23.1,30.5-23.1
			C249.2,188.9,258.2,192.5,266.4,201.6z"/>
	</g>
	<g>
		<path d="M60.5,278.8v7.9h-2V279c0-2.3-1.3-3.2-2.9-3.2c-1.9,0-3.7,1.5-3.7,4.1v6.8h-2V279c0-2.3-1.3-3.2-2.9-3.2
			c-1.6,0-3.7,1.2-3.7,4.3v6.6h-2v-12.4h1.7l0.1,1.9c0.9-1.5,2.4-2.2,4-2.2c1.7,0,3.4,0.8,4.3,2.4c0.8-1.7,2.7-2.4,4.3-2.4
			C58.2,274.1,60.5,275.6,60.5,278.8z"/>
		<path d="M76.1,285.2l-0.1,1.6c-0.3,0.1-0.9,0.2-1.5,0.2c-1.2,0-2-0.4-2.2-1.8c-0.8,1.2-2.4,1.8-4,1.8c-2.3,0-4.2-1.1-4.2-3.3
			c0-1.9,1.6-3.3,4.8-3.9l3.3-0.5v-0.7c0-1.6-1-2.7-2.9-2.7c-1.6,0-2.9,0.8-3.5,2.3l-1.5-1.1c0.6-1.8,2.6-3,5-3
			c2.8,0,4.9,1.3,4.9,4.2v6.1c0,0.6,0.2,0.9,0.9,0.9C75.5,285.3,75.8,285.3,76.1,285.2z M72.2,282.6v-1.7l-2.8,0.5
			c-2.2,0.4-3.3,1.1-3.3,2.3c0,1,0.8,1.6,2.3,1.6C70.4,285.3,72.2,284.2,72.2,282.6z"/>
		<path d="M89.8,278.8v7.9h-2v-7.2c0-2.7-1.3-3.7-3-3.7c-1.8,0-3.8,1.1-3.8,4.3v6.6h-2v-12.4h1.7l0.1,1.9c0.9-1.6,2.4-2.2,4.2-2.2
			C87.7,274.1,89.8,275.7,89.8,278.8z"/>
		<path d="M105.4,285.2l-0.1,1.6c-0.3,0.1-0.9,0.2-1.5,0.2c-1.2,0-2-0.4-2.2-1.8c-0.8,1.2-2.4,1.8-4,1.8c-2.3,0-4.2-1.1-4.2-3.3
			c0-1.9,1.6-3.3,4.8-3.9l3.3-0.5v-0.7c0-1.6-1-2.7-2.9-2.7c-1.6,0-2.9,0.8-3.5,2.3l-1.5-1.1c0.6-1.8,2.6-3,5-3
			c2.8,0,4.9,1.3,4.9,4.2v6.1c0,0.6,0.2,0.9,0.9,0.9C104.8,285.3,105.1,285.3,105.4,285.2z M101.5,282.6v-1.7l-2.8,0.5
			c-2.2,0.4-3.3,1.1-3.3,2.3c0,1,0.8,1.6,2.3,1.6C99.7,285.3,101.5,284.2,101.5,282.6z"/>
		<path d="M118.9,288.1c0,2.4-2.8,4-6.1,4c-3.9,0-5.7-1.4-5.7-3.3c0-1.1,0.8-2,2.2-2.4c-0.9-0.4-1.7-1.2-1.7-2.3
			c0-1.3,0.8-2.1,1.9-2.4c-1.2-0.7-1.8-2-1.8-3.4c0-2.4,2.1-4.2,5.1-4.2c0.9,0,1.8,0.2,2.5,0.5c0.5-1.7,1.6-2.5,3.5-2.5l0.4,1.7
			c-1.7,0-2.6,0.5-2.9,1.4c1,0.7,1.6,1.8,1.6,3.1c0,2.4-2.1,4.2-5.1,4.2c-0.7,0-1.4-0.1-1.9-0.2c-1,0.2-1.4,0.7-1.4,1.6
			c0,0.9,0.7,1.3,1.6,1.3h4.1C117.6,285.2,118.9,286.3,118.9,288.1z M117.1,288.3c0-0.9-0.6-1.5-2.4-1.5h-3.3
			c-1.6,0-2.4,0.6-2.4,1.5c0,1.2,1.4,2,4.1,2C115.7,290.4,117.1,289.4,117.1,288.3z M109.7,278.3c0,1.5,1.3,2.6,3,2.6s3-1,3-2.6
			s-1.3-2.6-3-2.6S109.7,276.8,109.7,278.3z"/>
		<path d="M132.4,281.3h-9.3c0.2,2.5,1.8,4,4,4c1.8,0,3-0.6,3.5-1.8l1.7,0.9c-0.9,1.7-2.5,2.7-5.1,2.7c-3.7,0-6-2.4-6-6.4
			s2.1-6.4,5.8-6.4c3.6,0,5.5,2.6,5.5,5.8C132.5,280.5,132.5,281,132.4,281.3z M123.1,279.6h7.5c-0.3-2.3-1.5-3.7-3.6-3.7
			C124.8,275.9,123.4,277.2,123.1,279.6z"/>
		<path d="M155.4,278.8v7.9h-2V279c0-2.3-1.3-3.2-2.9-3.2c-1.9,0-3.7,1.5-3.7,4.1v6.8h-2V279c0-2.3-1.3-3.2-2.9-3.2
			c-1.6,0-3.7,1.2-3.7,4.3v6.6h-2v-12.4h1.7l0.1,1.9c0.9-1.5,2.4-2.2,4-2.2c1.7,0,3.4,0.8,4.3,2.4c0.8-1.7,2.7-2.4,4.3-2.4
			C153,274.1,155.4,275.6,155.4,278.8z"/>
		<path d="M170.3,281.3H161c0.2,2.5,1.8,4,4,4c1.8,0,3-0.6,3.5-1.8l1.7,0.9c-0.9,1.7-2.5,2.7-5.1,2.7c-3.7,0-6-2.4-6-6.4
			s2.1-6.4,5.8-6.4c3.6,0,5.5,2.6,5.5,5.8C170.4,280.5,170.4,281,170.3,281.3z M161,279.6h7.5c-0.3-2.3-1.5-3.7-3.6-3.7
			C162.7,275.9,161.3,277.2,161,279.6z"/>
		<path d="M185,278.8v7.9h-2v-7.2c0-2.7-1.3-3.7-3-3.7c-1.8,0-3.8,1.1-3.8,4.3v6.6h-2v-12.4h1.7l0.1,1.9c0.9-1.6,2.4-2.2,4.2-2.2
			C182.9,274.1,185,275.7,185,278.8z"/>
		<path d="M196.9,285.9c-0.8,0.7-1.8,1.1-3.2,1.1c-1.8,0-3.4-0.9-3.4-3.3v-7.6h-2.5v-1.7h2.5v-3l2-0.5v3.5h4.6v1.7h-4.6v7.2
			c0,1.2,0.8,1.8,1.9,1.8c0.9,0,1.5-0.3,2.1-0.9L196.9,285.9z"/>
		<path d="M218.5,277.4l-1.9,0.9c-0.5-1.6-1.6-2.4-3.3-2.4c-2.5,0-4,1.8-4,4.7s1.5,4.7,4,4.7c1.9,0,3.1-0.9,3.5-2.5l1.8,0.6
			c-0.8,2.3-2.6,3.6-5.2,3.6c-3.7,0-6-2.4-6-6.4s2.3-6.4,6-6.4C215.9,274.1,217.6,275.4,218.5,277.4z"/>
		<path d="M229.3,274.4l-0.4,1.9c-0.4-0.2-0.9-0.3-1.6-0.3c-1.5,0-3.3,1.3-3.3,4.1v6.7h-2v-12.4h1.6l0.3,2c0.7-1.5,2-2.3,4-2.3
			C228.4,274.1,228.9,274.2,229.3,274.4z"/>
		<path d="M242.9,274.4v12.4h-1.7l-0.1-1.9c-0.9,1.5-2.4,2.1-4.4,2.1c-2.4,0-4.6-1.3-4.6-4.5v-8.1h2v7.6c0,2.5,1.1,3.3,2.9,3.3
			c2.1,0,4-1.2,4-4.2v-6.7H242.9z"/>
		<path d="M258.3,278.8v7.9h-2v-7.2c0-2.7-1.3-3.7-3-3.7c-1.8,0-3.8,1.1-3.8,4.3v6.6h-2v-12.4h1.7l0.1,1.9c0.9-1.6,2.4-2.2,4.2-2.2
			C256.2,274.1,258.3,275.7,258.3,278.8z"/>
		<path d="M273.2,277.4l-1.9,0.9c-0.5-1.6-1.6-2.4-3.3-2.4c-2.5,0-4,1.8-4,4.7s1.5,4.7,4,4.7c1.9,0,3.1-0.9,3.5-2.5l1.8,0.6
			c-0.8,2.3-2.6,3.6-5.2,3.6c-3.7,0-6-2.4-6-6.4s2.3-6.4,6-6.4C270.6,274.1,272.2,275.4,273.2,277.4z"/>
		<path d="M287.6,278.8v7.9h-2v-7.2c0-2.7-1.3-3.7-3-3.7c-1.8,0-3.8,1.2-3.8,4.3v6.6h-2v-18.1h2v7.5c0.9-1.5,2.3-2.1,4-2.1
			C285.4,274.1,287.6,275.7,287.6,278.8z"/>
	</g>
	<g>
		<path class="st1" d="M165.5,27.8C133.8,0.7,96.1-5.7,76.4,13.9c-6.1,6.1-9.9,14.4-11,24.1l-0.2,2C47,58.5,34.7,81,30.7,103.3
			c-1,5.3-1.4,10.4-1.4,15.3c0,12.8,3.1,24.4,9.2,34c-4.5,5.8-5,13.3-0.7,17.6c4.3,4.3,11.9,3.9,17.7-0.8
			c29.8,18.6,77.3,8.1,112.5-26.7l2-0.2c9.7-1.1,18-4.9,24.1-11c7.4-7.4,11.4-17.8,11.4-30c0-19.9-10.5-42.8-28.1-62.1
			c5.1-7.5,12.8-13,21.7-15.1c4.4-1,7.2-5.5,6.2-9.9c-1-4.4-5.5-7.2-9.9-6.2C183.4,11.1,172.8,18.2,165.5,27.8L165.5,27.8z
			 M77.6,50.9c0.3-0.3,0.5-0.5,0.8-0.8c15.4,7.5,31.4,19.2,45.8,33.6c14.4,14.4,26.1,30.4,33.6,45.8c-0.3,0.3-0.5,0.5-0.8,0.8
			c-32.9,32.9-77.5,41.9-99.5,20c-10.2-10.2-14-25.9-10.8-44.2C50.4,86.9,61.3,67.3,77.6,50.9L77.6,50.9z M88.1,25.6
			c14.2-14.2,47.8-4.6,73.4,21c16.9,16.9,27.5,38,27.5,55c0,5.4-1.1,12.9-6.5,18.3c-2.2,2.2-5.1,3.9-8.4,5
			c-8.3-17.9-21.6-36.4-38.1-52.9C119.5,55.7,101,42.3,83.1,34C84.2,30.7,85.9,27.9,88.1,25.6L88.1,25.6z M88.1,25.6"/>
	</g>
	<g>
		
			<rect x="44.5" y="115.3" transform="matrix(0.7071 -0.7071 0.7071 0.7071 -64.3051 94.6785)" class="st2" width="75.2" height="19.4"/>
		<line class="st2" x1="100.1" y1="108.7" x2="106.1" y2="114.7"/>
		<line class="st2" x1="97.6" y1="123.2" x2="95" y2="120.7"/>
		<line class="st2" x1="80.4" y1="140.4" x2="77.8" y2="137.8"/>
		<line class="st2" x1="83" y1="125.8" x2="89" y2="131.8"/>
		<line class="st2" x1="65.8" y1="143" x2="71.8" y2="149"/>
		<polygon class="st2" points="43.6,139.5 89,94.1 92.4,83.8 82.1,87.2 36.7,132.7 		"/>
		<line class="st2" x1="52.1" y1="131" x2="45.3" y2="124.1"/>
		<polygon class="st2" points="129.3,122.4 86.4,165.3 76.1,168.7 79.6,158.4 122.4,115.5 		"/>
		<polyline class="st2" points="119,119 115.6,115.5 107,124.1 		"/>
	</g>
</g>
</svg>
