<?xml version="1.0" encoding="utf-8"?>
<!-- Generator: Adobe Illustrator 21.0.0, SVG Export Plug-In . SVG Version: 6.00 Build 0)  -->
<svg version="1.1" id="Layer_1" xmlns="http://www.w3.org/2000/svg" xmlns:xlink="http://www.w3.org/1999/xlink" x="0px" y="0px"
	 viewBox="0 0 300 300" style="enable-background:new 0 0 300 300;" xml:space="preserve">
<style type="text/css">
	.st0{fill:#1A1A1A;}
	.st1{fill:#01464F;}
</style>
<g>
	<path class="st0" d="M78.1,265.7H63.7V237l0.5-19.3H64l-15.5,48H35.3l-15.5-48h-0.2l0.5,19.3v28.7H5.6v-62.6h23.2l9.9,31.9
		l3.5,13.3h0.2L46,235l9.8-32h22.3V265.7z"/>
	<path class="st0" d="M144.9,223.8c0,12.8-8.6,20.1-24.2,20.1h-12.4v21.7H91.9V203h28.7C136.2,203.1,144.9,210.4,144.9,223.8z
		 M128.5,223.7c0-5.5-3.1-8.3-10.3-8.3h-9.9V232h9.9C125.3,232,128.5,229.3,128.5,223.7z"/>
	<path class="st0" d="M206.7,213.4l-9.2,10.6c-4.2-6.3-9.5-9.2-17.5-9.2c-6.7,0-10.2,2.7-10.2,6.3c0,3.2,2.9,5.1,12.5,6.8
		c17.2,2.9,23.9,8.4,23.9,19.4c0,12.2-11.4,19.3-26.5,19.3c-14.8,0-22.6-3.8-28.7-10.6l8.4-11.5c5,7.2,11.1,9.5,19.4,9.5
		c7,0,10.4-2.2,10.4-5.8c0-2.8-2.9-4.5-12.2-6.3c-17.5-3.2-24.3-8.7-24.3-19.4c0-11.8,9.8-20.4,26.9-20.4
		C191.6,202.1,199.5,205.3,206.7,213.4z"/>
	<path class="st0" d="M232.7,265.7h-16.3v-62.6h16.3V265.7z"/>
	<path class="st0" d="M299.2,215.7h-20.4v50h-16.3v-50H242v-12.6h57.2V215.7z"/>
</g>
<g>
	<path d="M18.4,283.1c0,3.6-1.9,5.7-5,5.7c-1.6,0-2.9-0.8-3.6-1.9v6.3H8v-15.5h1.5l0.1,1.9c0.6-1.2,2-2.1,3.7-2.1
		C16.5,277.4,18.4,279.6,18.4,283.1z M16.7,283.1c0-2.5-1.3-4.2-3.4-4.2s-3.4,1.6-3.4,4v0.3c0,2.5,1.4,4,3.4,4
		C15.4,287.3,16.7,285.7,16.7,283.1z"/>
	<path d="M28.2,277.7l-0.3,1.7c-0.3-0.2-0.8-0.3-1.4-0.3c-1.3,0-2.9,1.2-2.9,3.6v5.9h-1.7v-10.9h1.4l0.2,1.8c0.6-1.3,1.8-2,3.5-2
		C27.3,277.4,27.8,277.5,28.2,277.7z"/>
	<path d="M40.3,283.1c0,3.5-2,5.7-5.3,5.7s-5.3-2.1-5.3-5.7c0-3.5,2-5.7,5.3-5.7S40.3,279.6,40.3,283.1z M31.4,283.1
		c0,2.6,1.3,4.2,3.5,4.2s3.5-1.6,3.5-4.2s-1.3-4.2-3.5-4.2S31.4,280.5,31.4,283.1z"/>
	<path d="M45.4,289.7c0,2.7-1.8,3.6-3.3,3.6c-0.9,0-1.7-0.3-2.2-0.7l0.4-1.7c0.4,0.4,1,0.7,1.8,0.7c0.9,0,1.6-0.5,1.6-2.1v-11.9h1.7
		V289.7z M45.8,274.2c0,0.7-0.6,1.3-1.3,1.3s-1.3-0.6-1.3-1.3s0.6-1.3,1.3-1.3S45.8,273.5,45.8,274.2z"/>
	<path d="M58.7,283.8h-8.2c0.2,2.2,1.6,3.5,3.6,3.5c1.6,0,2.7-0.6,3.1-1.6l1.5,0.8c-0.8,1.5-2.2,2.4-4.5,2.4c-3.3,0-5.3-2.1-5.3-5.7
		c0-3.5,1.9-5.7,5.2-5.7c3.2,0,4.9,2.3,4.9,5.1C58.8,283.1,58.8,283.5,58.7,283.8z M50.5,282.2h6.6c-0.2-2-1.4-3.3-3.2-3.3
		C52,279,50.8,280.2,50.5,282.2z"/>
	<path d="M71.3,280.3l-1.7,0.8c-0.5-1.4-1.4-2.2-2.9-2.2c-2.2,0-3.5,1.6-3.5,4.2s1.3,4.2,3.5,4.2c1.7,0,2.7-0.8,3.1-2.3l1.6,0.6
		c-0.7,2-2.3,3.2-4.6,3.2c-3.3,0-5.3-2.1-5.3-5.7c0-3.5,2-5.7,5.3-5.7C69,277.4,70.5,278.6,71.3,280.3z"/>
	<path d="M81.2,287.8c-0.7,0.6-1.6,1-2.8,1c-1.6,0-3-0.8-3-2.9v-6.7h-2.2v-1.5h2.2V275l1.7-0.5v3.1h4v1.5h-4v6.4
		c0,1.1,0.7,1.6,1.6,1.6c0.8,0,1.4-0.3,1.9-0.8L81.2,287.8z"/>
	<path d="M100.2,280.3l-1.7,0.8c-0.5-1.4-1.4-2.2-2.9-2.2c-2.2,0-3.5,1.6-3.5,4.2s1.3,4.2,3.5,4.2c1.7,0,2.7-0.8,3.1-2.3l1.6,0.6
		c-0.7,2-2.3,3.2-4.6,3.2c-3.3,0-5.3-2.1-5.3-5.7c0-3.5,2-5.7,5.3-5.7C97.9,277.4,99.4,278.6,100.2,280.3z"/>
	<path d="M109.8,277.7l-0.3,1.7c-0.3-0.2-0.8-0.3-1.4-0.3c-1.3,0-2.9,1.2-2.9,3.6v5.9h-1.7v-10.9h1.4l0.2,1.8c0.6-1.3,1.8-2,3.5-2
		C108.9,277.4,109.4,277.5,109.8,277.7z"/>
	<path d="M121.8,277.7v10.9h-1.5l-0.1-1.7c-0.8,1.3-2.2,1.9-3.9,1.9c-2.2,0-4-1.1-4-4v-7.1h1.7v6.7c0,2.3,1,2.9,2.6,2.9
		c1.9,0,3.5-1.1,3.5-3.7v-5.9L121.8,277.7L121.8,277.7z"/>
	<path d="M135.4,281.6v7h-1.7v-6.4c0-2.4-1.2-3.2-2.7-3.2c-1.6,0-3.4,1-3.4,3.8v5.8h-1.7v-10.9h1.5l0.1,1.7c0.8-1.4,2.2-1.9,3.7-1.9
		C133.5,277.4,135.4,278.8,135.4,281.6z"/>
	<path d="M148.5,280.3l-1.7,0.8c-0.5-1.4-1.4-2.2-2.9-2.2c-2.2,0-3.5,1.6-3.5,4.2s1.3,4.2,3.5,4.2c1.7,0,2.7-0.8,3.1-2.3l1.6,0.6
		c-0.7,2-2.3,3.2-4.6,3.2c-3.3,0-5.3-2.1-5.3-5.7c0-3.5,2-5.7,5.3-5.7C146.2,277.4,147.7,278.6,148.5,280.3z"/>
	<path d="M161.2,281.6v7h-1.7v-6.4c0-2.4-1.2-3.2-2.7-3.2c-1.6,0-3.4,1-3.4,3.8v5.8h-1.7v-16h1.7v6.7c0.8-1.3,2.1-1.9,3.6-1.9
		C159.3,277.4,161.2,278.8,161.2,281.6z"/>
</g>
<g>
	<path class="st1" d="M126.1,56.5c-28-23.9-61.3-29.6-78.7-12.3c-5.4,5.4-8.7,12.7-9.7,21.3l-0.2,1.8c-16.2,16.4-27,36.2-30.5,56
		c-0.9,4.7-1.3,9.2-1.3,13.5c0,11.3,2.8,21.5,8.1,30c-4,5.1-4.4,11.8-0.6,15.6s10.5,3.4,15.7-0.7c26.3,16.4,68.2,7.1,99.4-23.6
		l1.8-0.2c8.5-1,15.9-4.3,21.3-9.7c6.6-6.6,10-15.7,10-26.5c0-17.6-9.3-37.8-24.8-54.9c4.5-6.7,11.3-11.5,19.2-13.3
		c3.9-0.9,6.4-4.8,5.5-8.8c-0.9-3.9-4.8-6.4-8.8-5.5C141.9,41.7,132.5,47.9,126.1,56.5L126.1,56.5z M48.5,76.9
		c0.2-0.2,0.5-0.5,0.7-0.7c13.6,6.6,27.8,17,40.5,29.7s23,26.9,29.7,40.5c-0.2,0.2-0.4,0.5-0.7,0.7c-29.1,29.1-68.5,37-87.8,17.6
		c-9-9-12.4-22.9-9.5-39C24.4,108.6,34,91.3,48.5,76.9L48.5,76.9z M57.7,54.5C70.3,42,100,50.4,122.5,73c15,15,24.3,33.6,24.3,48.6
		c0,4.7-1,11.4-5.8,16.2c-2,2-4.5,3.4-7.4,4.4c-7.3-15.8-19.1-32.2-33.6-46.7C85.4,81,69.1,69.3,53.3,61.9
		C54.3,59,55.7,56.5,57.7,54.5L57.7,54.5z"/>
</g>
<g>
	<path class="st1" d="M103.4,127.4l-10.9-10.8c-0.5-0.5-1.3-0.5-1.8,0s-0.5,1.3,0,1.8l10.9,10.8c0.3,0.3,0.3,0.7,0,0.9l-16.2,16.4
		l-4.8-4.7c0.8-0.8,2.2-2,2.2-4.4c0-4.7-5.7-7-9.1-3.7l-0.7,0.7l-4.8-4.7c6-6,5.9-5.8,5.9-6.5c0-0.3-0.1-0.7-0.4-0.9l-1.6-1.6
		c-1.1-1.1-1.1-2.8,0-3.9s2.8-1.1,3.9,0l1.6,1.6c0.2,0.2,0.6,0.4,0.9,0.4s0.7-0.1,0.9-0.4l5.5-5.6l2.5,2.5c0.5,0.5,1.3,0.5,1.8,0
		s0.5-1.3,0-1.8l-3.4-3.4c-0.5-0.5-1.3-0.5-1.8,0l-5.5,5.6l-0.7-0.7c-2.1-2.1-5.4-2-7.5,0c-2.1,2.1-2,5.4,0,7.5l0.7,0.7l-5.5,5.6
		c-0.5,0.5-0.5,1.3,0,1.8c7.1,7,6.8,6.9,7.5,6.9s0.8-0.3,2.5-2s4.6-0.5,4.7,1.9c0,1.4-0.8,1.9-2.4,3.5c-0.5,0.5-0.5,1.3,0,1.8
		c7.1,7,6.8,6.9,7.5,6.9s-0.4,1,18-17.6C104.7,130.7,104.7,128.7,103.4,127.4z"/>
	<path class="st1" d="M72.2,139.6l-8,0.7l-0.1-1c-0.3-2.9-2.8-5.1-5.7-4.8s-5.1,2.8-4.8,5.7l0.1,1l-6.7,0.6l-0.7-7.8
		c-0.1-0.7-0.7-1.2-1.4-1.2l-2.2,0.2c-1.5,0.1-2.8-1-3-2.5c-0.1-1.5,1-2.8,2.5-3l2.2-0.2c0.7-0.1,1.2-0.7,1.2-1.4l-0.8-9.1
		c-0.1-0.7-0.7-1.2-1.4-1.2l-6.2,0.6c-0.7,0.1-1.2,0.7-1.2,1.4s0.7,1.2,1.4,1.2l4.9-0.4l0.6,6.5l-1,0.1c-2.9,0.3-5.1,2.8-4.8,5.7
		s2.8,5.1,5.7,4.8l1-0.1l0.6,6.5l-8,0.7c-0.7,0.1-1.2,0.7-1.2,1.4l0.2,2.2c0.1,1.5-1,2.8-2.5,3c-1.5,0.1-2.8-1-3-2.5l-0.2-2.2
		c-0.1-0.7-0.7-1.2-1.4-1.2l-8,0.7l-2.1-22.9c0-0.4,0.2-0.7,0.6-0.7l13.4-1.2c0.7-0.1,1.2-0.7,1.2-1.4s-0.7-1.2-1.4-1.2l-13.4,1.2
		c-1.8,0.2-3.1,1.7-2.9,3.5c0.2,2.1,4.2,46.3,4.4,48.4c0.2,1.8,1.7,3.1,3.5,2.9c2.2-0.2,46.9-4.3,49.1-4.4c1.8-0.2,3.1-1.7,2.9-3.5
		l-2.2-24.2C73.5,140,72.9,139.5,72.2,139.6z M46.1,160.5l0.7,7.8l-23.3,2.1c-0.4,0-0.7-0.2-0.7-0.6l-2.1-22.9l6.7-0.6l0.1,1
		c0.3,2.9,2.8,5.1,5.7,4.8s5.1-2.8,4.8-5.7l-0.1-1l6.7-0.6l0.7,7.8c0.1,0.7,0.7,1.2,1.4,1.2l2.2-0.2c1.5-0.1,2.8,1,3,2.5
		c0.1,1.5-1,2.8-2.5,3l-2.2,0.2C46.5,159.1,46,159.7,46.1,160.5z M73.2,165.2c0,0.4-0.2,0.7-0.6,0.7L49.3,168l-0.6-6.5l1-0.1
		c2.9-0.3,5.1-2.8,4.8-5.7s-2.8-5.1-5.7-4.8l-1,0.1l-0.6-6.5l8-0.7c0.7-0.1,1.2-0.7,1.2-1.4l-0.2-2.2c-0.1-1.5,1-2.8,2.5-3
		s2.8,1,3,2.5l0.2,2.2c0.1,0.7,0.7,1.2,1.4,1.2l8-0.7L73.2,165.2L73.2,165.2z"/>
</g>
</svg>
