<?xml version="1.0" encoding="utf-8"?>
<!-- Generator: Adobe Illustrator 21.0.0, SVG Export Plug-In . SVG Version: 6.00 Build 0)  -->
<svg version="1.1" id="Layer_1" xmlns="http://www.w3.org/2000/svg" xmlns:xlink="http://www.w3.org/1999/xlink" x="0px" y="0px"
	 viewBox="0 0 300 300" style="enable-background:new 0 0 300 300;" xml:space="preserve">
<style type="text/css">
	.st0{fill:#1A1A1A;}
	.st1{fill:#59002E;}
</style>
<g>
	<path class="st0" d="M112.2,220.1c0,14.7-9.9,23-27.7,23H70.3V268H51.6v-71.7h32.9C102.3,196.3,112.2,204.7,112.2,220.1z
		 M93.4,219.9c0-6.3-3.6-9.5-11.8-9.5H70.3v19h11.3C89.8,229.5,93.4,226.3,93.4,219.9z"/>
	<path class="st0" d="M153.8,241.9h-11.2v26.2h-18.4v-71.7h34.2c17.3,0,27.1,8,27.1,22.8c0,10.4-4.9,17.5-14,20.8l18.3,28.2h-20.7
		L153.8,241.9z M142.6,228.6h12.7c7.9,0,11.4-2.7,11.4-9.1c0-6.3-3.5-9-11.4-9h-12.7V228.6z"/>
</g>
<g>
	<path d="M63.3,286.3v8h-2V287c0-2.8-1.4-3.7-3.1-3.7c-1.8,0-3.9,1.2-3.9,4.4v6.7h-2v-12.5h1.8l0.1,2c0.9-1.6,2.5-2.2,4.2-2.2
		C61.1,281.6,63.3,283.1,63.3,286.3z"/>
	<path d="M78.5,288.8h-9.4c0.3,2.5,1.8,4,4.1,4c1.8,0,3.1-0.7,3.5-1.9l1.7,0.9c-1,1.7-2.5,2.7-5.2,2.7c-3.8,0-6.1-2.5-6.1-6.5
		c0-4.1,2.1-6.5,5.9-6.5c3.6,0,5.6,2.6,5.6,5.9C78.6,288,78.5,288.5,78.5,288.8z M69.1,287h7.6c-0.3-2.3-1.6-3.7-3.7-3.7
		C70.8,283.3,69.4,284.7,69.1,287z"/>
	<path d="M89.7,293.4c-0.8,0.7-1.9,1.1-3.2,1.1c-1.9,0-3.5-0.9-3.5-3.4v-7.7h-2.5v-1.7H83v-3l2-0.5v3.6h4.6v1.7H85v7.3
		c0,1.2,0.8,1.8,1.9,1.8c0.9,0,1.6-0.3,2.1-0.9L89.7,293.4z"/>
	<path d="M110.7,281.8l-4.4,12.5h-2l-3.5-10l-3.3,10h-2l-4.4-12.5h2.2l3.2,10.2l3.4-10.2h2l3.4,10.2l3.2-10.2H110.7z"/>
	<path d="M124.9,288.1c0,4.1-2.3,6.5-6.1,6.5s-6.1-2.5-6.1-6.5c0-4.1,2.3-6.5,6.1-6.5S124.9,284,124.9,288.1z M114.8,288.1
		c0,3,1.5,4.8,4.1,4.8s4.1-1.8,4.1-4.8s-1.5-4.8-4.1-4.8S114.8,285.1,114.8,288.1z"/>
	<path d="M136,281.8l-0.4,2c-0.4-0.2-0.9-0.3-1.6-0.3c-1.5,0-3.3,1.3-3.3,4.1v6.8h-2v-12.5h1.6l0.3,2.1c0.7-1.5,2.1-2.3,4-2.3
		C135.1,281.6,135.6,281.6,136,281.8z"/>
	<path d="M143.6,288.1l-2.7,2.7v3.5h-2V276h2v12.2l6.5-6.5h2.5l-4.9,4.9l5.2,7.6h-2.4L143.6,288.1z"/>
	<path d="M171.6,284.9l-1.9,0.9c-0.5-1.6-1.6-2.5-3.3-2.5c-2.5,0-4,1.8-4,4.8s1.5,4.8,4,4.8c2,0,3.1-0.9,3.5-2.6l1.9,0.7
		c-0.9,2.3-2.7,3.7-5.3,3.7c-3.8,0-6.1-2.5-6.1-6.5c0-4.1,2.3-6.5,6.1-6.5C169,281.6,170.7,282.8,171.6,284.9z"/>
	<path d="M182.5,281.8l-0.4,2c-0.4-0.2-0.9-0.3-1.6-0.3c-1.5,0-3.3,1.3-3.3,4.1v6.8h-2v-12.5h1.6l0.3,2.1c0.7-1.5,2.1-2.3,4-2.3
		C181.6,281.6,182.1,281.6,182.5,281.8z"/>
	<path d="M196.3,281.8v12.5h-1.8l-0.1-1.9c-0.9,1.5-2.5,2.2-4.5,2.2c-2.5,0-4.6-1.3-4.6-4.6v-8.2h2v7.7c0,2.6,1.2,3.4,3,3.4
		c2.1,0,4-1.3,4-4.2v-6.8h2V281.8z"/>
	<path d="M211.9,286.3v8h-2V287c0-2.8-1.4-3.7-3.1-3.7c-1.8,0-3.9,1.2-3.9,4.4v6.7h-2v-12.5h1.8l0.1,2c0.9-1.6,2.5-2.2,4.2-2.2
		C209.7,281.6,211.9,283.1,211.9,286.3z"/>
	<path d="M226.9,284.9l-1.9,0.9c-0.5-1.6-1.6-2.5-3.3-2.5c-2.5,0-4,1.8-4,4.8s1.5,4.8,4,4.8c2,0,3.1-0.9,3.5-2.6l1.9,0.7
		c-0.9,2.3-2.7,3.7-5.3,3.7c-3.8,0-6.1-2.5-6.1-6.5c0-4.1,2.3-6.5,6.1-6.5C224.3,281.6,226,282.8,226.9,284.9z"/>
	<path d="M241.5,286.3v8h-2V287c0-2.8-1.4-3.7-3.1-3.7c-1.8,0-3.9,1.2-3.9,4.4v6.6h-2V276h2v7.6c0.9-1.5,2.4-2.1,4.1-2.1
		C239.3,281.6,241.5,283.1,241.5,286.3z"/>
</g>
<path class="st1" d="M232.6,24.4c4.5-1.1,7.3-5.5,6.3-10s-5.5-7.3-10-6.3c-12,2.8-22.7,10-30.1,19.8c-32-27.4-70.2-33.9-90.1-14.1
	c-6.1,6.1-10,14.6-11.1,24.3l-0.2,2c-18.5,18.8-30.9,41.5-35,64.1c-1,5.3-1.4,10.5-1.4,15.5c0,12.9,3.2,24.6,9.3,34.4
	c-4.6,5.9-5.1,13.5-0.7,17.9c4.4,4.4,12.1,3.9,17.9-0.8c30.1,18.8,78.2,8.2,113.8-27l2-0.2c9.8-1.1,18.2-5,24.3-11.1
	c7.5-7.5,11.5-18,11.5-30.4c0-20.2-10.6-43.3-28.5-62.9C215.7,32,223.6,26.4,232.6,24.4z M97.5,145.1c1.1,1.7,1.5,3.8,1.2,5.8
	c-0.5,2.1-1.6,3.8-3.3,4.9c-0.2,0.1-0.4,0.2-0.6,0.3c-1.8-1.3-3.5-2.7-5.1-4.2c-2-2-3.7-4.2-5.2-6.5c0.6-0.9,1.3-1.7,2.3-2.4
	c1.7-1.1,3.7-1.5,5.9-1.2C94.7,142.2,96.4,143.4,97.5,145.1z M129.1,137.6c0.3-1.4,1.1-2.7,2.3-3.5l0.1,0c0.8-0.6,1.7-0.8,2.8-0.8
	c0.5,0,0.9,0.1,1.4,0.2c1.4,0.3,2.5,1,3.4,2.3c0.8,1.2,1,2.6,0.7,4.1c-0.3,1.4-1,2.5-2.3,3.4c-1.2,0.8-2.6,1.1-4,0.8
	c-1.4-0.3-2.7-1.1-3.5-2.4C129.2,140.4,128.9,139,129.1,137.6z M102.6,102.2c-1.5-2.3-2-4.9-1.5-7.5c0.6-2.6,2.1-4.9,4.4-6.4
	c1.5-1.1,3.4-1.6,5.4-1.6c0.6,0,1.4,0.1,2.1,0.2c2.6,0.6,4.9,2.1,6.3,4.3c1.5,2.3,2,4.9,1.5,7.5c-0.6,2.6-2.1,4.9-4.3,6.3
	c-2.3,1.5-4.9,2-7.5,1.5C106.3,106,104,104.5,102.6,102.2z M190.3,131.7c-28.1,28.1-64.5,38.9-88.6,28.4c2.1-2.1,3.5-4.7,4.1-7.6
	c0.1-0.6,0.2-1.3,0.3-1.9l18.4-3.8c2.4,2.9,6,4.6,9.9,4.6c2.5,0,4.9-0.7,7.1-2.1c2.8-1.8,4.7-4.7,5.5-8.1c0.7-3.3,0.1-6.8-1.8-9.7
	c-1.8-2.8-4.7-4.7-8.1-5.5c-3.3-0.7-6.8-0.1-9.7,1.9c-4,2.7-6.1,7.3-5.6,11.9l-16.8,3.4c-0.3-0.8-0.7-1.5-1.2-2.2
	c-1.3-1.9-2.9-3.4-4.8-4.5L109,114c0.6,0.1,1.3,0.1,1.9,0.1c3.5,0,6.7-1,9.6-2.9c3.9-2.6,6.5-6.5,7.5-11c0.9-4.6,0-9.2-2.6-13.1
	c-5.3-7.9-16-10.1-24.1-4.9c-3.9,2.6-6.5,6.5-7.5,11c-0.9,4.6,0,9.2,2.6,13.1c1.5,2.2,3.3,4,5.5,5.3l-10.1,22.7
	c-3.2-0.2-6.4,0.6-9.1,2.5c-0.7,0.4-1.3,0.9-1.8,1.5c-3.4-8.8-4.2-19.4-2.1-31c3.6-19.6,14.6-39.4,31.1-55.9
	c0.3-0.3,0.6-0.5,0.8-0.8c15.6,7.6,31.8,19.5,46.4,34c14.6,14.6,26.4,30.8,34,46.4C190.8,131.2,190.6,131.4,190.3,131.7z
	 M222.5,102.5c0,5.4-1.1,13.1-6.6,18.6c-2.3,2.3-5.1,3.9-8.5,5.1c-8.4-18.1-21.9-36.8-38.5-53.5c-16.7-16.6-35.4-30.1-53.5-38.5
	c1.2-3.4,2.8-6.3,5.1-8.6c14.4-14.4,48.4-4.7,74.2,21.2C211.8,63.9,222.5,85.3,222.5,102.5z"/>
</svg>
