<?xml version="1.0" encoding="utf-8"?>
<!-- Generator: Adobe Illustrator 21.0.0, SVG Export Plug-In . SVG Version: 6.00 Build 0)  -->
<svg version="1.1" id="Layer_1" xmlns="http://www.w3.org/2000/svg" xmlns:xlink="http://www.w3.org/1999/xlink" x="0px" y="0px"
	 viewBox="0 0 300 300" style="enable-background:new 0 0 300 300;" xml:space="preserve">
<style type="text/css">
	.st0{fill:#1A1A1A;}
	.st1{fill:#29ABE2;}
</style>
<g>
	<g>
		<path class="st0" d="M75.2,236.1H64.5v25H47v-68.5h32.7c16.5,0,25.9,7.7,25.9,21.8c0,10-4.7,16.7-13.4,19.8l17.4,26.9H89.9
			L75.2,236.1z M64.5,223.5h12.1c7.6,0,10.9-2.6,10.9-8.7c0-6-3.3-8.6-10.9-8.6H64.5V223.5z"/>
		<path class="st0" d="M170.8,247.4v13.8h-52.2v-68.5h17.9v54.7H170.8z"/>
	</g>
	<g>
		<path d="M55.6,277.2l-1.8,0.9c-0.5-1.5-1.5-2.4-3.2-2.4c-2.4,0-3.8,1.7-3.8,4.5s1.4,4.5,3.8,4.5c1.9,0,3-0.9,3.3-2.5l1.8,0.6
			c-0.8,2.2-2.5,3.5-5.1,3.5c-3.6,0-5.8-2.3-5.8-6.2c0-3.9,2.2-6.2,5.8-6.2C53.1,274,54.7,275.3,55.6,277.2z"/>
		<path d="M66.1,274.3l-0.4,1.9c-0.4-0.2-0.9-0.3-1.5-0.3c-1.4,0-3.2,1.3-3.2,3.9v6.5h-1.9v-12h1.6l0.3,2c0.7-1.5,2-2.2,3.8-2.2
			C65.2,274,65.7,274.1,66.1,274.3z"/>
		<path d="M79.2,274.3v12h-1.7l-0.1-1.8c-0.8,1.4-2.4,2.1-4.3,2.1c-2.4,0-4.4-1.2-4.4-4.4v-7.8h1.9v7.3c0,2.5,1.1,3.2,2.8,3.2
			c2,0,3.8-1.2,3.8-4v-6.5H79.2z"/>
		<path d="M94.1,278.6v7.7h-1.9v-7c0-2.7-1.3-3.5-2.9-3.5c-1.7,0-3.7,1.1-3.7,4.2v6.4h-1.9v-12h1.7l0.1,1.9c0.8-1.5,2.4-2.1,4-2.1
			C92,274,94.1,275.5,94.1,278.6z"/>
		<path d="M108.5,277.2l-1.8,0.9c-0.5-1.5-1.5-2.4-3.2-2.4c-2.4,0-3.8,1.7-3.8,4.5s1.4,4.5,3.8,4.5c1.9,0,3-0.9,3.3-2.5l1.8,0.6
			c-0.8,2.2-2.5,3.5-5.1,3.5c-3.6,0-5.8-2.3-5.8-6.2c0-3.9,2.2-6.2,5.8-6.2C106,274,107.6,275.3,108.5,277.2z"/>
		<path d="M122.4,278.6v7.7h-1.9v-7c0-2.7-1.3-3.5-2.9-3.5c-1.7,0-3.7,1.1-3.7,4.2v6.3H112v-17.5h1.9v7.3c0.8-1.4,2.3-2,3.9-2
			C120.3,274,122.4,275.5,122.4,278.6z"/>
		<path d="M134.4,270.6c0-0.9,0.6-1.4,1.4-1.4s1.4,0.6,1.4,1.4c0,0.9-0.6,1.4-1.4,1.4S134.4,271.4,134.4,270.6z M136.8,286.2h-1.9
			v-12h1.9V286.2z"/>
		<path d="M148.6,285.4c-0.7,0.7-1.8,1.1-3.1,1.1c-1.8,0-3.3-0.9-3.3-3.2v-7.3h-2.4v-1.6h2.4v-2.9l1.9-0.5v3.4h4.4v1.6h-4.4v7
			c0,1.2,0.7,1.7,1.8,1.7c0.9,0,1.5-0.3,2-0.9L148.6,285.4z"/>
		<path d="M169.4,277.2l-1.8,0.9c-0.5-1.5-1.5-2.4-3.2-2.4c-2.4,0-3.8,1.7-3.8,4.5s1.4,4.5,3.8,4.5c1.9,0,3-0.9,3.3-2.5l1.8,0.6
			c-0.8,2.2-2.5,3.5-5.1,3.5c-3.6,0-5.8-2.3-5.8-6.2c0-3.9,2.2-6.2,5.8-6.2C167,274,168.6,275.3,169.4,277.2z"/>
		<path d="M183.8,280.3c0,3.9-2.2,6.2-5.8,6.2s-5.8-2.3-5.8-6.2c0-3.9,2.2-6.2,5.8-6.2S183.8,276.4,183.8,280.3z M174.1,280.3
			c0,2.8,1.5,4.6,3.9,4.6s3.9-1.7,3.9-4.6s-1.5-4.6-3.9-4.6S174.1,277.4,174.1,280.3z"/>
		<path d="M197.9,278.6v7.7H196v-7c0-2.7-1.3-3.5-2.9-3.5c-1.7,0-3.7,1.1-3.7,4.2v6.4h-1.9v-12h1.7l0.1,1.9c0.8-1.5,2.4-2.1,4-2.1
			C195.8,274,197.9,275.5,197.9,278.6z"/>
		<path d="M212.7,278.6v7.7h-1.9v-7c0-2.7-1.3-3.5-2.9-3.5c-1.7,0-3.7,1.1-3.7,4.2v6.4h-1.9v-12h1.7l0.1,1.9c0.8-1.5,2.4-2.1,4-2.1
			C210.6,274,212.7,275.5,212.7,278.6z"/>
		<path d="M227.2,281h-9c0.2,2.4,1.7,3.8,3.9,3.8c1.7,0,2.9-0.6,3.4-1.8l1.6,0.8c-0.9,1.6-2.4,2.6-5,2.6c-3.6,0-5.8-2.3-5.8-6.2
			c0-3.9,2-6.2,5.6-6.2c3.5,0,5.4,2.5,5.4,5.6C227.3,280.2,227.3,280.6,227.2,281z M218.2,279.3h7.2c-0.3-2.2-1.5-3.6-3.5-3.6
			C219.9,275.7,218.5,277,218.2,279.3z"/>
		<path d="M241,277.2l-1.8,0.9c-0.5-1.5-1.5-2.4-3.2-2.4c-2.4,0-3.8,1.7-3.8,4.5s1.4,4.5,3.8,4.5c1.9,0,3-0.9,3.3-2.5l1.8,0.6
			c-0.8,2.2-2.5,3.5-5.1,3.5c-3.6,0-5.8-2.3-5.8-6.2c0-3.9,2.2-6.2,5.8-6.2C238.5,274,240.1,275.3,241,277.2z"/>
		<path d="M251.8,285.4c-0.7,0.7-1.8,1.1-3.1,1.1c-1.8,0-3.3-0.9-3.3-3.2v-7.3H243v-1.6h2.4v-2.9l1.9-0.5v3.4h4.4v1.6h-4.4v7
			c0,1.2,0.7,1.7,1.8,1.7c0.9,0,1.5-0.3,2-0.9L251.8,285.4z"/>
		<path d="M264.6,281h-9c0.2,2.4,1.7,3.8,3.9,3.8c1.7,0,2.9-0.6,3.4-1.8l1.6,0.8c-0.9,1.6-2.4,2.6-5,2.6c-3.6,0-5.8-2.3-5.8-6.2
			c0-3.9,2-6.2,5.6-6.2c3.5,0,5.4,2.5,5.4,5.6C264.7,280.2,264.7,280.6,264.6,281z M255.6,279.3h7.2c-0.3-2.2-1.5-3.6-3.5-3.6
			C257.2,275.7,255.9,277,255.6,279.3z"/>
		<path d="M279,268.8v17.5h-1.7l-0.1-2.1c-0.7,1.4-2.2,2.3-4.1,2.3c-3.3,0-5.5-2.3-5.5-6.2s2.1-6.2,5.5-6.2c1.8,0,3.2,0.9,4,2.1
			v-7.4H279z M277.1,280.4v-0.3c0-2.7-1.5-4.4-3.8-4.4c-2.3,0-3.8,1.8-3.8,4.5s1.4,4.5,3.8,4.5C275.6,284.8,277.1,283.1,277.1,280.4
			z"/>
	</g>
	<path class="st1" d="M190.7,39.1c4.9-7.3,12.4-12.6,21-14.6c4.3-1,7-5.3,6-9.6c-1-4.3-5.3-7-9.6-6c-11.6,2.7-21.8,9.5-28.9,18.9
		C148.6,1.7,112.1-4.5,93.1,14.4c-5.9,5.9-9.5,13.9-10.6,23.3l-0.2,1.9c-17.7,17.9-29.6,39.6-33.4,61.2c-0.9,5.1-1.4,10-1.4,14.8
		c0,12.4,3,23.6,8.9,32.8c-4.4,5.6-4.8,12.9-0.7,17.1c4.2,4.2,11.5,3.7,17.1-0.8c28.8,17.9,74.7,7.8,108.8-25.8l2-0.2
		c9.3-1.1,17.4-4.7,23.3-10.6c7.2-7.2,11-17.2,11-29C217.9,79.9,207.8,57.8,190.7,39.1z M99.7,116.6l30.3-6.4l3.3,15.7l-30.3,6.4
		l-1.4-6.7l-5.6,1.3c-9,2-20.3,4.5-27.4,11c-0.5-1-1-1.9-1.4-2.9c6.3-7.1,18.6-10.8,30-13.4l3.3-0.8L99.7,116.6z M171.2,127
		c-31.6,31.6-74.3,40.3-95.6,19.8l1.4-1.4c-1.5-1.5-2.3-2.6-2.7-3.2c5.6-4.5,14.2-6.5,22.1-8.3l1.4,6.7l40.4-8.6l3.4-0.8l-6.2-29.2
		l-8.2,1.8l-30.9-6.2l-2.1,10.5l6.7,1.3l-9.4,2l0.9,4.3c-10.1,2.5-20.5,6-27.6,12.1c-1.7-7.2-1.8-15.3-0.2-24
		C68,85,78.5,66,94.3,50.2c0.3-0.3,0.5-0.5,0.8-0.8C110,56.7,125.5,68,139.4,82c13.9,13.9,25.2,29.4,32.5,44.3
		C171.7,126.5,171.4,126.8,171.2,127z M195.6,116.9c-2.2,2.2-4.9,3.8-8.1,4.8c-8-17.3-20.9-35.2-36.8-51.1
		c-15.9-15.9-33.8-28.8-51.1-36.8c1-3.2,2.7-6,4.8-8.1c13.7-13.7,46.2-4.4,70.9,20.3c16.4,16.4,26.6,36.8,26.6,53.2
		C201.9,104.4,200.8,111.7,195.6,116.9z"/>
</g>
</svg>
