<?xml version="1.0" encoding="utf-8"?>
<!-- Generator: Adobe Illustrator 21.0.0, SVG Export Plug-In . SVG Version: 6.00 Build 0)  -->
<svg version="1.1" id="Layer_1" xmlns="http://www.w3.org/2000/svg" xmlns:xlink="http://www.w3.org/1999/xlink" x="0px" y="0px"
	 viewBox="0 0 300 300" style="enable-background:new 0 0 300 300;" xml:space="preserve">
<style type="text/css">
	.st0{fill:#1A1A1A;}
	.st1{fill:#29ABE2;}
	.st2{fill-rule:evenodd;clip-rule:evenodd;fill:#29ABE2;}
</style>
<g>
	<path class="st0" d="M95.7,210.1l-10.2,11.7c-4.6-6.9-10.5-10.2-19.3-10.2c-7.4,0-11.3,2.9-11.3,6.9c0,3.6,3.2,5.7,13.8,7.5
		c18.9,3.2,26.4,9.3,26.4,21.5c0,13.5-12.6,21.3-29.2,21.3c-16.3,0-24.9-4.2-31.7-11.7l9.3-12.7c5.5,8,12.2,10.5,21.5,10.5
		c7.7,0,11.5-2.4,11.5-6.4c0-3.1-3.2-4.9-13.5-6.9c-19.4-3.6-26.8-9.6-26.8-21.5c0-13,10.8-22.5,29.7-22.5
		C79,197.6,87.8,201.2,95.7,210.1z"/>
	<path class="st0" d="M161.6,253.9v13.9h-55.2v-69.1h53.8v13.9h-35.8v14h28.5v13.1h-28.5v14.1H161.6z"/>
</g>
<g>
	<path d="M40.6,290.6l1.6-1.1c0.6,1.5,2.1,2.1,3.8,2.1c2,0,2.9-0.8,2.9-1.8c0-0.9-0.7-1.4-3.2-1.9c-3.4-0.6-4.7-1.6-4.7-3.6
		c0-2,1.8-3.6,4.7-3.6c2.6,0,4.1,0.9,4.8,2.9l-1.6,1c-0.5-1.6-1.6-2.2-3.1-2.2c-1.6,0-2.8,0.9-2.8,1.8c0,1,0.8,1.6,3.3,2
		c3.4,0.6,4.6,1.6,4.6,3.5c0,2.1-2,3.6-5,3.6C43.5,293.3,41.5,292.4,40.6,290.6z"/>
	<path d="M61.7,292.2c-0.7,0.7-1.8,1.1-3.1,1.1c-1.8,0-3.3-0.9-3.4-3.2v-7.4h-2.4V281h2.4v-2.9l1.9-0.5v3.4h4.5v1.7h-4.5v7.1
		c0,1.2,0.7,1.8,1.8,1.8c0.9,0,1.5-0.3,2-0.9L61.7,292.2z"/>
	<path d="M75.3,291.5l-0.1,1.5c-0.3,0.1-0.8,0.2-1.4,0.2c-1.2,0-2-0.4-2.2-1.8c-0.8,1.1-2.3,1.8-3.9,1.8c-2.3,0-4.1-1.1-4.1-3.2
		c0-1.8,1.6-3.2,4.7-3.8l3.2-0.5v-0.7c0-1.6-1-2.7-2.8-2.7c-1.6,0-2.8,0.8-3.4,2.3l-1.4-1c0.6-1.8,2.5-2.9,4.9-2.9
		c2.7,0,4.7,1.3,4.7,4.1v5.9c0,0.6,0.2,0.9,0.9,0.9C74.7,291.7,75,291.6,75.3,291.5z M71.5,289v-1.7l-2.7,0.5
		c-2.1,0.4-3.2,1.1-3.2,2.2c0,1,0.8,1.5,2.2,1.5C69.7,291.6,71.5,290.6,71.5,289z"/>
	<path d="M85.1,281l-0.4,1.9c-0.4-0.2-0.9-0.3-1.5-0.3c-1.4,0-3.2,1.3-3.2,4v6.5h-1.9V281h1.6l0.3,2c0.7-1.5,2-2.2,3.9-2.2
		C84.2,280.8,84.8,280.8,85.1,281z"/>
	<path d="M94.6,292.2c-0.7,0.7-1.8,1.1-3.1,1.1c-1.8,0-3.3-0.9-3.4-3.2v-7.4h-2.4V281h2.4v-2.9l1.9-0.5v3.4h4.5v1.7h-4.5v7.1
		c0,1.2,0.7,1.8,1.8,1.8c0.9,0,1.5-0.3,2-0.9L94.6,292.2z"/>
	<path d="M107.8,281v12.1h-1.7l-0.1-1.8c-0.8,1.4-2.4,2.1-4.3,2.1c-2.4,0-4.4-1.2-4.4-4.4V281h1.9v7.4c0,2.5,1.1,3.2,2.8,3.2
		c2,0,3.9-1.2,3.9-4.1V281H107.8z"/>
	<path d="M123.7,287c0,3.9-2.1,6.3-5.5,6.3c-1.8,0-3.3-0.9-4-2.1v6.9h-1.9V281h1.7l0.1,2.1c0.7-1.4,2.2-2.3,4.1-2.3
		C121.5,280.8,123.7,283.1,123.7,287z M121.7,287c0-2.8-1.4-4.6-3.8-4.6c-2.3,0-3.8,1.7-3.8,4.4v0.3c0,2.7,1.5,4.4,3.8,4.4
		C120.3,291.6,121.7,289.8,121.7,287z"/>
	<path d="M145.7,284l-1.8,0.9c-0.5-1.5-1.5-2.4-3.2-2.4c-2.4,0-3.9,1.7-3.9,4.6s1.4,4.6,3.9,4.6c1.9,0,3-0.9,3.4-2.5l1.8,0.6
		c-0.8,2.2-2.6,3.5-5.1,3.5c-3.6,0-5.8-2.4-5.8-6.3c0-3.9,2.2-6.3,5.8-6.3C143.2,280.8,144.8,282,145.7,284z"/>
	<path d="M156.3,281l-0.4,1.9c-0.4-0.2-0.9-0.3-1.5-0.3c-1.4,0-3.2,1.3-3.2,4v6.5h-1.9V281h1.6l0.3,2c0.7-1.5,2-2.2,3.9-2.2
		C155.3,280.8,155.9,280.8,156.3,281z"/>
	<path d="M169.5,281v12.1h-1.7l-0.1-1.8c-0.8,1.4-2.4,2.1-4.3,2.1c-2.4,0-4.4-1.2-4.4-4.4V281h1.9v7.4c0,2.5,1.1,3.2,2.8,3.2
		c2,0,3.9-1.2,3.9-4.1V281H169.5z"/>
	<path d="M184.6,285.3v7.7h-1.9v-7c0-2.7-1.3-3.6-3-3.6c-1.8,0-3.7,1.1-3.7,4.2v6.4H174V281h1.7l0.1,1.9c0.8-1.5,2.4-2.1,4-2.1
		C182.4,280.8,184.6,282.2,184.6,285.3z"/>
	<path d="M199,284l-1.8,0.9c-0.5-1.5-1.5-2.4-3.2-2.4c-2.4,0-3.9,1.7-3.9,4.6s1.4,4.6,3.9,4.6c1.9,0,3-0.9,3.4-2.5l1.8,0.6
		c-0.8,2.2-2.6,3.5-5.1,3.5c-3.6,0-5.8-2.4-5.8-6.3c0-3.9,2.2-6.3,5.8-6.3C196.5,280.8,198.1,282,199,284z"/>
	<path d="M213.1,285.3v7.7h-1.9v-7c0-2.7-1.3-3.6-3-3.6c-1.8,0-3.7,1.1-3.7,4.2v6.4h-1.9v-17.6h1.9v7.4c0.8-1.4,2.3-2,3.9-2
		C211,280.8,213.1,282.2,213.1,285.3z"/>
	<path d="M217,277.2c0-0.9,0.6-1.4,1.4-1.4c0.9,0,1.4,0.6,1.4,1.4s-0.6,1.4-1.4,1.4C217.5,278.7,217,278.1,217,277.2z M219.4,293.1
		h-1.9V281h1.9V293.1z"/>
	<path d="M234.4,285.3v7.7h-1.9v-7c0-2.7-1.3-3.6-3-3.6c-1.8,0-3.7,1.1-3.7,4.2v6.4h-1.9V281h1.7l0.1,1.9c0.8-1.5,2.4-2.1,4.1-2.1
		C232.3,280.8,234.4,282.2,234.4,285.3z"/>
	<path d="M249.2,294.4c0,2.4-2.7,3.9-6,3.9c-3.8,0-5.5-1.4-5.5-3.2c0-1.1,0.8-2,2.1-2.3c-0.9-0.4-1.6-1.2-1.6-2.2
		c0-1.3,0.7-2,1.8-2.4c-1.2-0.7-1.8-1.9-1.8-3.3c0-2.4,2-4.1,4.9-4.1c0.9,0,1.7,0.2,2.5,0.5c0.5-1.7,1.6-2.5,3.4-2.5l0.4,1.7
		c-1.6,0-2.5,0.5-2.9,1.3c1,0.7,1.5,1.8,1.5,3c0,2.4-2,4.1-4.9,4.1c-0.7,0-1.3-0.1-1.9-0.2c-1,0.2-1.4,0.7-1.4,1.5
		c0,0.8,0.7,1.3,1.6,1.3h4C247.8,291.5,249.2,292.6,249.2,294.4z M247.4,294.6c0-0.9-0.6-1.4-2.4-1.4h-3.2c-1.5,0-2.3,0.6-2.3,1.5
		c0,1.2,1.3,2,4,2C246,296.6,247.4,295.7,247.4,294.6z M240.2,284.8c0,1.5,1.3,2.5,2.9,2.5c1.7,0,2.9-1,2.9-2.5
		c0-1.5-1.3-2.5-2.9-2.5C241.5,282.3,240.2,283.3,240.2,284.8z"/>
</g>
<g>
	<g>
		<path class="st1" d="M87.2,166.4H73.9v-8.5l-4-1.3l-5.8,5.8l-8.9-8.9l5.8-5.8l-1.3-4h-8.5v-13.3h8.5l1.3-4l-5.8-5.8l8.9-8.9
			l5.8,5.8l4-1.3v-8.5h13.3v8.5l4,1.3l5.8-5.8l8.9,8.9l-5.8,5.8l1.3,4h8.5v13.3h-8.5l-1.3,4l5.8,5.8l-8.9,8.9l-5.8-5.8l-4,1.3V166.4
			z M76.3,164h8.6v-7.9l6.9-2.3L97,159l5.6-5.6l-5.2-5.2l2.3-6.9h7.9v-8.6h-7.9l-2.3-6.9l5.2-5.2l-5.6-5.6l-5.2,5.2l-6.9-2.3v-7.9
			h-8.6v7.9l-6.9,2.3l-5.2-5.2l-5.6,5.6l5.2,5.2l-2.3,6.9h-7.9v8.6h7.9l2.3,6.9l-5.2,5.2l5.6,5.6l5.2-5.2l6.9,2.3V164z"/>
		<path class="st1" d="M80.6,143.6c-3.7,0-6.6-3-6.6-6.6s3-6.6,6.6-6.6c3.7,0,6.6,3,6.6,6.6S84.2,143.6,80.6,143.6z M80.6,132.7
			c-2.4,0-4.3,1.9-4.3,4.3s1.9,4.3,4.3,4.3c2.4,0,4.3-1.9,4.3-4.3S82.9,132.7,80.6,132.7z"/>
	</g>
</g>
<g>
	<path class="st1" d="M138.2,123.1h-2.3c0-21.3-17.3-38.7-38.7-38.7v-2.3C119.8,82.1,138.2,100.5,138.2,123.1z"/>
	<path class="st1" d="M127.9,123.1h-2.3c0-15.7-12.7-28.4-28.4-28.4v-2.3C114.2,92.4,127.9,106.2,127.9,123.1z"/>
	<path class="st1" d="M117.7,123.1h-2.3c0-10-8.1-18.1-18.1-18.1v-2.3C108.5,102.7,117.7,111.9,117.7,123.1z"/>
</g>
<g>
	<path class="st2" d="M171.9,29.7C141,3.3,104.2-3,85.1,16.1c-5.9,5.9-9.6,14-10.7,23.5l-0.2,1.9c-17.8,18.1-29.8,40-33.7,61.7
		c-0.9,5.1-1.4,10.1-1.4,14.9c0,12.5,3.1,23.7,9,33.1c-4.4,5.7-4.9,13-0.7,17.2c4.2,4.2,11.6,3.8,17.3-0.8
		c29,18.1,75.3,7.9,109.7-26l2-0.2c9.4-1.1,17.5-4.8,23.5-10.7c7.3-7.3,11.1-17.4,11.1-29.3c0-19.4-10.2-41.7-27.4-60.6
		c4.9-7.3,12.5-12.7,21.2-14.7c4.3-1,7.1-5.3,6-9.7c-1-4.3-5.3-7-9.7-6C189.3,13.3,179.1,20.3,171.9,29.7L171.9,29.7z M86.3,52.2
		c0.3-0.3,0.5-0.5,0.8-0.8c15,7.3,30.6,18.7,44.7,32.8c14,14,25.4,29.6,32.8,44.7c-0.3,0.3-0.5,0.5-0.8,0.8
		c-32.1,32.1-75.6,40.8-96.9,19.5c-10-10-13.7-25.2-10.5-43C59.7,87.2,70.3,68.1,86.3,52.2L86.3,52.2z M96.5,27.5
		C110.3,13.7,143.1,23,168,48c16.5,16.5,26.8,37.1,26.8,53.6c0,5.2-1.1,12.6-6.4,17.9c-2.2,2.2-4.9,3.8-8.2,4.9
		c-8.1-17.4-21.1-35.5-37.1-51.5c-16-16-34.1-29-51.5-37.1C92.7,32.5,94.3,29.7,96.5,27.5L96.5,27.5z M96.5,27.5"/>
</g>
</svg>
