<?xml version="1.0" encoding="utf-8"?>
<!-- Generator: Adobe Illustrator 21.0.0, SVG Export Plug-In . SVG Version: 6.00 Build 0)  -->
<svg version="1.1" id="Layer_1" xmlns="http://www.w3.org/2000/svg" xmlns:xlink="http://www.w3.org/1999/xlink" x="0px" y="0px"
	 viewBox="0 0 300 300" style="enable-background:new 0 0 300 300;" xml:space="preserve">
<style type="text/css">
	.st0{fill:#1A1A1A;}
	.st1{fill:#40A4CF;}
</style>
<g>
	<path class="st0" d="M95.7,210.1l-10.2,11.7c-4.6-6.9-10.5-10.2-19.3-10.2c-7.4,0-11.3,2.9-11.3,6.9c0,3.6,3.2,5.7,13.8,7.5
		c18.9,3.2,26.4,9.3,26.4,21.5c0,13.5-12.6,21.3-29.2,21.3c-16.3,0-24.9-4.2-31.7-11.7l9.3-12.7c5.5,8,12.2,10.5,21.5,10.5
		c7.7,0,11.5-2.4,11.5-6.4c0-3.1-3.2-4.9-13.5-6.9c-19.4-3.6-26.8-9.6-26.8-21.5c0-13,10.8-22.5,29.7-22.5
		C79,197.6,87.8,201.2,95.7,210.1z"/>
	<path class="st0" d="M161.6,253.9v13.9h-55.2v-69.1h53.8v13.9h-35.8v14h28.5v13.1h-28.5v14.1h37.2V253.9z"/>
</g>
<g>
	<path d="M40.6,290.6l1.6-1.1c0.6,1.5,2.1,2.1,3.8,2.1c2,0,2.9-0.8,2.9-1.8c0-0.9-0.7-1.4-3.2-1.9c-3.4-0.6-4.7-1.6-4.7-3.6
		s1.8-3.6,4.7-3.6c2.6,0,4.1,0.9,4.8,2.9l-1.6,1c-0.5-1.6-1.6-2.2-3.1-2.2c-1.6,0-2.8,0.9-2.8,1.8c0,1,0.8,1.6,3.3,2
		c3.4,0.6,4.6,1.6,4.6,3.5c0,2.1-2,3.6-5,3.6C43.5,293.3,41.5,292.4,40.6,290.6z"/>
	<path d="M61.7,292.2c-0.7,0.7-1.8,1.1-3.1,1.1c-1.8,0-3.3-0.9-3.4-3.2v-7.4h-2.4V281h2.4v-2.9l1.9-0.5v3.4h4.5v1.7h-4.5v7.1
		c0,1.2,0.7,1.8,1.8,1.8c0.9,0,1.5-0.3,2-0.9L61.7,292.2z"/>
	<path d="M75.3,291.5l-0.1,1.5c-0.3,0.1-0.8,0.2-1.4,0.2c-1.2,0-2-0.4-2.2-1.8c-0.8,1.1-2.3,1.8-3.9,1.8c-2.3,0-4.1-1.1-4.1-3.2
		c0-1.8,1.6-3.2,4.7-3.8l3.2-0.5V285c0-1.6-1-2.7-2.8-2.7c-1.6,0-2.8,0.8-3.4,2.3l-1.4-1c0.6-1.8,2.5-2.9,4.9-2.9
		c2.7,0,4.7,1.3,4.7,4.1v5.9c0,0.6,0.2,0.9,0.9,0.9C74.7,291.7,75,291.6,75.3,291.5z M71.5,289v-1.7l-2.7,0.5
		c-2.1,0.4-3.2,1.1-3.2,2.2c0,1,0.8,1.5,2.2,1.5C69.7,291.6,71.5,290.6,71.5,289z"/>
	<path d="M85.1,281l-0.4,1.9c-0.4-0.2-0.9-0.3-1.5-0.3c-1.4,0-3.2,1.3-3.2,4v6.5h-1.9V281h1.6l0.3,2c0.7-1.5,2-2.2,3.9-2.2
		C84.2,280.8,84.8,280.8,85.1,281z"/>
	<path d="M94.6,292.2c-0.7,0.7-1.8,1.1-3.1,1.1c-1.8,0-3.3-0.9-3.4-3.2v-7.4h-2.4V281h2.4v-2.9l1.9-0.5v3.4h4.5v1.7H90v7.1
		c0,1.2,0.7,1.8,1.8,1.8c0.9,0,1.5-0.3,2-0.9L94.6,292.2z"/>
	<path d="M107.8,281v12.1h-1.7l-0.1-1.8c-0.8,1.4-2.4,2.1-4.3,2.1c-2.4,0-4.4-1.2-4.4-4.4v-8h1.9v7.4c0,2.5,1.1,3.2,2.8,3.2
		c2,0,3.9-1.2,3.9-4.1V281H107.8z"/>
	<path d="M123.7,287c0,3.9-2.1,6.3-5.5,6.3c-1.8,0-3.3-0.9-4-2.1v6.9h-1.9V281h1.7l0.1,2.1c0.7-1.4,2.2-2.3,4.1-2.3
		C121.5,280.8,123.7,283.1,123.7,287z M121.7,287c0-2.8-1.4-4.6-3.8-4.6c-2.3,0-3.8,1.7-3.8,4.4v0.3c0,2.7,1.5,4.4,3.8,4.4
		C120.3,291.6,121.7,289.8,121.7,287z"/>
	<path d="M145.7,284l-1.8,0.9c-0.5-1.5-1.5-2.4-3.2-2.4c-2.4,0-3.9,1.7-3.9,4.6s1.4,4.6,3.9,4.6c1.9,0,3-0.9,3.4-2.5l1.8,0.6
		c-0.8,2.2-2.6,3.5-5.1,3.5c-3.6,0-5.8-2.4-5.8-6.3s2.2-6.3,5.8-6.3C143.2,280.8,144.8,282,145.7,284z"/>
	<path d="M156.3,281l-0.4,1.9c-0.4-0.2-0.9-0.3-1.5-0.3c-1.4,0-3.2,1.3-3.2,4v6.5h-1.9V281h1.6l0.3,2c0.7-1.5,2-2.2,3.9-2.2
		C155.3,280.8,155.9,280.8,156.3,281z"/>
	<path d="M169.5,281v12.1h-1.7l-0.1-1.8c-0.8,1.4-2.4,2.1-4.3,2.1c-2.4,0-4.4-1.2-4.4-4.4v-8h1.9v7.4c0,2.5,1.1,3.2,2.8,3.2
		c2,0,3.9-1.2,3.9-4.1V281H169.5z"/>
	<path d="M184.6,285.3v7.7h-1.9v-7c0-2.7-1.3-3.6-3-3.6c-1.8,0-3.7,1.1-3.7,4.2v6.4h-2v-12h1.7l0.1,1.9c0.8-1.5,2.4-2.1,4-2.1
		C182.4,280.8,184.6,282.2,184.6,285.3z"/>
	<path d="M199,284l-1.8,0.9c-0.5-1.5-1.5-2.4-3.2-2.4c-2.4,0-3.9,1.7-3.9,4.6s1.4,4.6,3.9,4.6c1.9,0,3-0.9,3.4-2.5l1.8,0.6
		c-0.8,2.2-2.6,3.5-5.1,3.5c-3.6,0-5.8-2.4-5.8-6.3s2.2-6.3,5.8-6.3C196.5,280.8,198.1,282,199,284z"/>
	<path d="M213.1,285.3v7.7h-1.9v-7c0-2.7-1.3-3.6-3-3.6c-1.8,0-3.7,1.1-3.7,4.2v6.4h-1.9v-17.6h1.9v7.4c0.8-1.4,2.3-2,3.9-2
		C211,280.8,213.1,282.2,213.1,285.3z"/>
	<path d="M217,277.2c0-0.9,0.6-1.4,1.4-1.4c0.9,0,1.4,0.6,1.4,1.4s-0.6,1.4-1.4,1.4C217.5,278.7,217,278.1,217,277.2z M219.4,293.1
		h-1.9V281h1.9V293.1z"/>
	<path d="M234.4,285.3v7.7h-1.9v-7c0-2.7-1.3-3.6-3-3.6c-1.8,0-3.7,1.1-3.7,4.2v6.4h-1.9v-12h1.7l0.1,1.9c0.8-1.5,2.4-2.1,4.1-2.1
		C232.3,280.8,234.4,282.2,234.4,285.3z"/>
	<path d="M249.2,294.4c0,2.4-2.7,3.9-6,3.9c-3.8,0-5.5-1.4-5.5-3.2c0-1.1,0.8-2,2.1-2.3c-0.9-0.4-1.6-1.2-1.6-2.2
		c0-1.3,0.7-2,1.8-2.4c-1.2-0.7-1.8-1.9-1.8-3.3c0-2.4,2-4.1,4.9-4.1c0.9,0,1.7,0.2,2.5,0.5c0.5-1.7,1.6-2.5,3.4-2.5l0.4,1.7
		c-1.6,0-2.5,0.5-2.9,1.3c1,0.7,1.5,1.8,1.5,3c0,2.4-2,4.1-4.9,4.1c-0.7,0-1.3-0.1-1.9-0.2c-1,0.2-1.4,0.7-1.4,1.5s0.7,1.3,1.6,1.3
		h4C247.8,291.5,249.2,292.6,249.2,294.4z M247.4,294.6c0-0.9-0.6-1.4-2.4-1.4h-3.2c-1.5,0-2.3,0.6-2.3,1.5c0,1.2,1.3,2,4,2
		C246,296.6,247.4,295.7,247.4,294.6z M240.2,284.8c0,1.5,1.3,2.5,2.9,2.5c1.7,0,2.9-1,2.9-2.5s-1.3-2.5-2.9-2.5
		S240.2,283.3,240.2,284.8z"/>
</g>
<path class="st1" d="M185,43c-1.7-2-1.7-3.1,0.1-5.1c5.2-5.7,11.4-9.7,18.9-11.7c4.3-1.1,6.9-5.2,6-9.1c-1-4.7-5-7.5-9.6-6.6
	c-8.1,1.6-15.1,5.5-21.4,10.8c-2.4,2-4.4,4.3-6.5,6.6c-0.9,1.1-1.9,1.3-3,0.3c-0.3-0.2-0.6-0.4-0.9-0.7c-9.4-7.8-19.8-14-31.3-18.1
	c-9.4-3.3-18.9-5.3-29-4.1c-8.5,1-16.2,4-22.5,9.9C79,21.7,75.6,29.9,74.4,39.1c-0.2,1.4-0.6,2.6-1.5,3.6c-1.8,1.9-3.6,3.9-5.3,5.9
	c-9.3,10.9-16.9,22.9-22,36.3c-2.6,6.9-4.4,14.1-5.5,21.5c-1.4,10.2-1.2,20.3,1.9,30.3c1.3,4.1,2.9,8,5,11.8c0.7,1.2,0.9,2.3,0,3.6
	c-1.3,1.8-1.9,4-2.3,6.2c-0.9,5.3,2.1,10.4,7.2,11.7c4,1.1,7.7,0.1,11.1-2c1.4-0.8,2.5-0.8,3.9,0c1.7,0.9,3.3,1.8,5.1,2.6
	c8.2,3.5,16.8,4.9,24.8,5.1c11-0.1,20.9-2.1,30.6-5.4c15.8-5.4,29.6-14.1,41.9-25.3c2.9-2.7,6.2-4.2,10.1-4.9
	c7.1-1.3,13.5-4,18.8-9.1c8.2-7.9,11.7-17.8,11.9-28.9c0.3-11.9-3.3-23-8.2-33.6C197.6,59.1,191.7,50.8,185,43z M178.3,121.2
	c-3.6-7.4-7.8-14.4-12.5-21.2c-6.1-8.9-12.9-17.1-20.4-24.8c-9.1-9.4-19-18-29.7-25.5c-6.9-4.8-14.1-9.2-21.6-12.9
	c-2.2-1.1-2.3-1.5-1.3-3.7c3.2-6.9,8.9-10.1,16.1-11.4c1.8-0.3,3.6-0.4,5.8-0.4c7.4,0.3,14.9,2,22,5.2c13.1,5.9,24.5,14.3,34.1,24.9
	c9.3,10.2,16.7,21.6,20.8,34.9c1.8,5.8,2.8,11.7,2.3,17.8c-0.7,8.1-4,14.6-11.6,18.3C180,123.6,179.4,123.4,178.3,121.2z
	 M127.5,153.2c-5.2,2.2-10.7,3.6-16.1,5.2c-4.9,1.4-9.8,1.9-15,1.6c0.7-1.2,1.8-1.6,2.8-2.2c2.6-1.5,5.5-2.5,7.8-4.4
	c4.4-3.6,6.7-8.3,7.4-14l0,0l0,0l0,0l0,0l-0.1-0.1l0.1,0c-0.1-1,0.7-0.8,1.2-0.7c-0.5-0.1-1.3-0.3-1.2,0.7c2.7,0.8,4.4-0.5,6.1-2.5
	c1.5-1.9,3.1-3.8,5.2-5.6c0.1,1.7,0.1,3.2-0.2,4.8c-0.5,3,0.5,5.5,2.9,7.4c1.9,1.5,3.3,1.2,4.6-0.8c1.5-2.5,1.8-5.1,1.3-7.9
	c-0.7-4-1.9-7.8-4.2-11.2c-1.4-2-3-2.4-5.2-1.3c-1.3,0.7-2.4,1.6-3.7,2.3c-1.6,0.9-2.5,0.6-3.1-1.1c-0.2-0.5-0.3-1-0.4-1.5
	c-0.3-4.3-2.7-7-6.4-8.8c-2.5-1.2-5.1-2.2-7.7-3.2c-1.9-0.8-3.7-1.8-5-3.5c-0.4-0.5-0.9-1.2-0.3-1.8c0.5-0.5,1.2-0.1,1.7,0.3
	c1.9,1.3,3.8,2.7,5.8,3.9c2.1,1.2,4.6,0.7,6.1-1.2c1.7-2,1.6-5.2-0.5-6.6c-2.7-1.8-4.5-4.3-6.2-6.9c-1.7-2.6-3.6-5.1-6.7-6.2
	c0,0.5,0.1,0.9,0.4,1.2c0.1,0.1,0.3,0.3,0.4,0.4c-0.2-0.1-0.3-0.2-0.4-0.4c-0.3-0.3-0.4-0.7-0.4-1.2c0-0.1,0-0.2,0-0.2
	c2.7-5.1,5.4-10.2,8.1-15.3c0.2-0.4,0.4-0.7,0.6-1.1c0.4-0.8,0.6-1.7-0.2-2.4c-0.8-0.7-1.6-0.3-2.4,0.3c-2.9,2.5-5.8,5-8.7,7.5
	c-2.2,1.9-4.4,3.7-6.5,5.7c-0.7,0.7-1.4,0.5-2.1,0.3c-3.5-1.1-7.1-1.2-10.6,0.1c-1.9,0.7-2.2,1.4-1.2,3c0.4,0.7-0.1,0.7-0.4,0.9
	c-1,0.6-2,1.1-2.8,1.9c-1.8,1.4-1.8,2.4,0.2,3.8c-0.8,0.7-1.6,1.4-2.3,2.2c-1.6,1.5-1.4,2.5,0.5,3.6c1.7,0.9,1.7,1,0.1,2.2
	c-1,0.8-2,1.5-3,2.1c-0.7,0.5-1.1,1.1-1,1.9c0.2,0.9,0.9,1.2,1.7,1.2c1,0.1,2,0.2,3.2,0.4c-0.9,1.3-2.1,1.8-3.3,2.3
	c-0.8,0.3-1.5,0.8-1.5,1.7c0,0.9,0.7,1.4,1.5,1.7c0.9,0.4,2.4,0,2.8,0.9c0.2,0.7-0.7,1.7-1,2.7c-0.3,0.8-0.4,1.7-0.7,2.5
	c-0.3,1.1-0.6,2.2-1.5,3c-0.7,0.6-0.9,1.4-0.6,2.2c0.4,1,1.3,0.8,2.2,0.7c1.1-0.1,2.2-0.5,3.2-1c1-0.4,1.4-0.3,1.4,0.9
	c-0.1,1.9,0.2,3.9-1.1,5.7c-0.5,0.7-0.3,1.5,0.4,2.1c0.6,0.6,1.3,0.4,2-0.1c1.9-1.3,3.6-2.7,5.4-4.6c-0.9,4.7-3.2,8.3-6.2,11.5
	c-2.5,2.6-5.3,4.9-7.4,7.8c-0.5,0.6-0.7,0.6-1.3,0c-6.6-7.3-10.1-15.8-10.4-25.6c-0.6-18.1,5.4-34.2,15-49.1
	c4.3-6.7,9.4-12.6,14.8-18.4c1-1.1,2-1.2,3.3-0.5c11.3,5.7,21.5,13,31.1,21.1c12.3,10.5,23.2,22.4,32.5,35.7
	c3.8,5.5,7.1,11.2,10.4,17c0.8,1.4,0.5,2.6-0.6,3.6C152.1,139.6,140.7,147.7,127.5,153.2z M70,147.9c1.5-1.8,3.1-3.6,4.9-5.2
	c4.7-4.3,8.2-9.2,9.5-15.5c0.5-2.3,0.3-4.6,0.2-6.9c-0.1-0.9-0.5-1.8-1.5-1.9c-1-0.1-1.6,0.6-1.8,1.5c-0.6,2.2-1.8,3.9-3.6,5.4
	c-0.2-2.6,0.1-4.9,1.2-7.2c0.2-0.5,0.5-1,0.3-1.6c-0.2-0.7-0.6-1.2-1.3-1.3c-0.7-0.1-1.2,0.3-1.5,0.8c-0.8,1.4-1.9,2.5-3.7,3.2
	c0.6-2.8,1.4-5.3,3.3-7.3c0.4-0.4,0.8-0.7,1.1-1.1c0.5-0.6,0.6-1.2,0.2-1.9c-0.4-0.6-0.9-0.9-1.7-0.8c-0.6,0.1-1.1,0.3-1.6,0.4
	c0.1,0.4,0.3,0.6,0.6,0.7c-0.3-0.1-0.5-0.2-0.6-0.7l0-0.1c1.4-1.1,2.5-2.5,3.5-4.1c0.4-0.6,0.6-1.3,0.1-2c-0.5-0.8-1.2-0.7-1.9-0.6
	c-0.6,0.1-1.1,0.5-1.9,0.2c0.1-0.2,0.3-0.3,0.4-0.5c0.8-1,2.1-1.6,2.8-2.9c0.8-1.5,0.3-2.5-1.4-2.7c-0.5-0.1-1,0-1.5-0.4
	c0.2-0.2,0.3-0.4,0.5-0.6c1-0.7,2-1.5,3-2.1c0.7-0.5,1.4-0.8,1.4-1.9c-0.1-1-0.7-1.5-1.7-1.6c1-0.8,2-0.9,3-1.2
	c0.7-0.2,1.5-0.3,2.1-0.9c0.7-0.7,0-1.5,0-2.3c1.8,0,3.4,0.2,4.9,0.9c1.6,0.8,2.8,0.5,4-0.7c2.4-2.1,4.8-4.2,7.2-6.3
	c0.3-0.2,0.5-0.6,0.9-0.4c0.5,0.3,0.1,0.7,0,1.1c-0.2,0.4-0.4,0.8-0.6,1.2c-1.2,2.2-2.4,4.4-3.5,6.7c-1,1.9-0.6,2.6,1.4,3.1
	c1.6,0.4,3,1.1,4,2.4c1,1.2,1.8,2.5,2.7,3.7c1.6,2.3,2.9,4.8,5.5,6.2c1.3,0.7,1.6,1.6,0.9,2.9c0,0,0,0,0,0c-0.3,0-0.5,0.1-0.6,0.4
	l0,0c-1.4,0.1-2.4-0.8-3.5-1.5c-1.5-1.1-2.9-2.3-4.7-3c-1.9-0.8-3.6-0.6-4.9,0.7c-1.2,1.2-1.4,3.1-0.5,4.9c1.5,3.1,4.3,4.6,7.3,5.8
	c2,0.9,4.1,1.6,6.2,2.5c3.2,1.5,5.4,3.5,5.7,7.5c0.4,5,4.8,6.7,8.9,3.9c0.4-0.3,0.8-0.5,1.1-0.8c2.2-1.5,2.7-1.5,3.7,1
	c1.2,2.7,2.2,5.4,2.7,8.4c0.2,1.5,0.1,2.9-0.4,4.3c-0.1,0.3-0.1,0.8-0.5,0.8c-0.3,0-0.6-0.4-0.8-0.7c-0.8-0.9-0.9-2-0.8-3.2
	c0.2-2,0.3-4,0.2-6c-0.1-1.2-0.3-2.5-1.5-3c-1.2-0.5-2.3-0.1-3.3,0.7c-0.7,0.6-1.4,1.2-2,1.9c-1.5,1.7-3.1,3.4-4.6,5.2
	c-0.8,0.9-1.5,1-2.3,0.2c-0.1-0.1-0.3-0.2-0.4-0.3c-1.8-1.3-3-0.8-3.2,1.5c-0.2,1.9-0.4,3.8-1,5.6c-1.5,4.8-4.4,8.3-9,10.5
	c-3.3,1.6-6.7,3-8.9,6.2c-0.4,0.6-1.2,0.3-1.7,0.2c-4.9-0.8-9.4-2.5-13.8-4.8c-2.5-1.3-4.7-2.9-6.9-4.7
	C69.4,149.3,69.3,148.7,70,147.9z"/>
</svg>
