<?xml version="1.0" encoding="utf-8"?>
<!-- Generator: Adobe Illustrator 21.0.0, SVG Export Plug-In . SVG Version: 6.00 Build 0)  -->
<svg version="1.1" id="Layer_1" xmlns="http://www.w3.org/2000/svg" xmlns:xlink="http://www.w3.org/1999/xlink" x="0px" y="0px"
	 viewBox="0 0 300 300" style="enable-background:new 0 0 300 300;" xml:space="preserve">
<style type="text/css">
	.st0{fill:#1A1A1A;}
	.st1{fill-rule:evenodd;clip-rule:evenodd;fill:#39B54A;}
	.st2{fill:#39B54A;}
</style>
<g>
	<path class="st0" d="M75.7,201.9l-10.3,11.9c-4.7-7-10.7-10.3-19.6-10.3c-7.6,0-11.5,3-11.5,7c0,3.6,3.3,5.8,14.1,7.7
		c19.3,3.3,26.9,9.5,26.9,21.9c0,13.8-12.8,21.6-29.7,21.6c-16.6,0-25.4-4.3-32.3-11.9l9.5-12.9c5.7,8.1,12.5,10.7,21.9,10.7
		c7.9,0,11.7-2.5,11.7-6.5c0-3.2-3.3-5-13.8-7c-19.7-3.6-27.3-9.8-27.3-21.9c0-13.2,11-22.9,30.3-22.9
		C58.6,189.2,67.6,192.8,75.7,201.9z"/>
	<path class="st0" d="M168,260.6h-16.2v-32.3l0.5-21.6h-0.2l-17.4,54h-14.8l-17.4-54h-0.2l0.5,21.6v32.3H86.5v-70.4h26.1l11.1,35.8
		l3.9,14.9h0.2l4.1-14.8l11-35.9H168V260.6z"/>
	<path class="st0" d="M247.6,225.5c0,22.5-12,35.2-34.1,35.2h-29.9v-70.4h29.9C235.5,190.3,247.6,203,247.6,225.5z M228.8,225.5
		c0-14.1-5.2-21.3-17.2-21.3h-9.7v42.7h9.7C223.6,246.8,228.8,239.5,228.8,225.5z"/>
</g>
<g>
	<path d="M30.9,277.1L29,278c-0.5-1.6-1.6-2.4-3.3-2.4c-2.5,0-3.9,1.7-3.9,4.7s1.5,4.7,3.9,4.7c1.9,0,3.1-0.9,3.4-2.5L31,283
		c-0.8,2.3-2.6,3.6-5.2,3.6c-3.7,0-5.9-2.4-5.9-6.4s2.2-6.4,5.9-6.4C28.3,273.9,30,275.1,30.9,277.1z"/>
	<path d="M44.9,281h-9.3c0.2,2.5,1.7,3.9,4,3.9c1.8,0,3-0.6,3.5-1.8l1.6,0.9c-0.9,1.7-2.5,2.7-5.1,2.7c-3.7,0-5.9-2.4-5.9-6.4
		s2.1-6.4,5.8-6.4c3.6,0,5.5,2.6,5.5,5.7C45,280.2,44.9,280.6,44.9,281z M35.7,279.2h7.4c-0.3-2.3-1.5-3.7-3.6-3.7
		C37.3,275.6,35.9,276.9,35.7,279.2z"/>
	<path d="M50.6,283.1c0,1.3,0.3,1.6,1.3,1.6c0.7,0,1.1-0.1,1.8-0.3l-0.3,1.9c-0.5,0.2-1.2,0.3-1.8,0.3c-2,0-2.9-1.1-2.9-3.3v-14.9h2
		V283.1z"/>
	<path d="M58.1,283.1c0,1.3,0.3,1.6,1.3,1.6c0.7,0,1.1-0.1,1.8-0.3l-0.3,1.9c-0.5,0.2-1.2,0.3-1.8,0.3c-2,0-2.9-1.1-2.9-3.3v-14.9h2
		V283.1z"/>
	<path d="M81.5,277.1l-1.9,0.9c-0.5-1.6-1.6-2.4-3.3-2.4c-2.5,0-3.9,1.7-3.9,4.7s1.5,4.7,3.9,4.7c1.9,0,3.1-0.9,3.4-2.5l1.8,0.6
		c-0.8,2.3-2.6,3.6-5.2,3.6c-3.7,0-5.9-2.4-5.9-6.4s2.2-6.4,5.9-6.4C79,273.9,80.6,275.1,81.5,277.1z"/>
	<path d="M92.2,274.1l-0.4,1.9c-0.4-0.2-0.9-0.3-1.5-0.3c-1.5,0-3.2,1.3-3.2,4.1v6.6h-2v-12.3h1.6l0.3,2c0.7-1.5,2-2.3,3.9-2.3
		C91.3,273.9,91.9,273.9,92.2,274.1z"/>
	<path d="M105.8,274.1v12.3H104l-0.1-1.9c-0.9,1.5-2.4,2.1-4.4,2.1c-2.4,0-4.5-1.3-4.5-4.5v-8h2v7.5c0,2.5,1.1,3.3,2.9,3.3
		c2.1,0,3.9-1.2,3.9-4.1v-6.7H105.8z"/>
	<path d="M121.1,278.5v7.9h-2v-7.2c0-2.7-1.3-3.6-3-3.6c-1.8,0-3.8,1.1-3.8,4.3v6.5h-2v-12.3h1.7l0.1,1.9c0.9-1.5,2.4-2.2,4.1-2.2
		C118.9,273.9,121.1,275.4,121.1,278.5z"/>
	<path d="M135.8,277.1l-1.9,0.9c-0.5-1.6-1.6-2.4-3.3-2.4c-2.5,0-3.9,1.7-3.9,4.7s1.5,4.7,3.9,4.7c1.9,0,3.1-0.9,3.4-2.5l1.8,0.6
		c-0.8,2.3-2.6,3.6-5.2,3.6c-3.7,0-5.9-2.4-5.9-6.4s2.2-6.4,5.9-6.4C133.2,273.9,134.9,275.1,135.8,277.1z"/>
	<path d="M150.1,278.5v7.9h-2v-7.2c0-2.7-1.3-3.6-3-3.6c-1.8,0-3.8,1.2-3.8,4.3v6.5h-2v-17.9h2v7.5c0.9-1.5,2.3-2.1,4-2.1
		C148,273.9,150.1,275.4,150.1,278.5z"/>
</g>
<g>
	<path class="st1" d="M153.2,29.8C121.8,2.9,84.3-3.5,64.9,16c-6,6-9.8,14.3-10.9,23.9l-0.2,2c-18.2,18.4-30.4,40.7-34.3,62.9
		c-1,5.2-1.4,10.3-1.4,15.2c0,12.7,3.1,24.2,9.2,33.7c-4.5,5.8-5,13.2-0.7,17.5c4.3,4.3,11.8,3.8,17.6-0.8
		c29.5,18.4,76.7,8,111.7-26.5l2-0.2c9.6-1.1,17.9-4.9,23.9-10.9c7.4-7.4,11.3-17.7,11.3-29.8c0-19.8-10.4-42.5-27.9-61.7
		c5-7.5,12.7-12.9,21.6-15c4.4-1,7.2-5.4,6.1-9.8c-1-4.4-5.4-7.2-9.8-6.1C171,13.2,160.5,20.2,153.2,29.8L153.2,29.8z M66,52.7
		c0.3-0.3,0.5-0.5,0.8-0.8c15.3,7.5,31.2,19.1,45.5,33.4c14.3,14.3,25.9,30.2,33.4,45.5c-0.3,0.3-0.5,0.5-0.8,0.8
		c-32.7,32.7-77,41.6-98.7,19.8c-10.1-10.1-13.9-25.7-10.7-43.8C39,88.4,49.8,68.9,66,52.7L66,52.7z M76.5,27.6
		c14.1-14.1,47.5-4.6,72.8,20.8c16.8,16.8,27.3,37.8,27.3,54.6c0,5.3-1.1,12.8-6.5,18.2c-2.2,2.2-5,3.9-8.3,5
		c-8.2-17.8-21.5-36.1-37.8-52.5C107.6,57.4,89.2,44.2,71.5,36C72.6,32.6,74.2,29.8,76.5,27.6L76.5,27.6z M76.5,27.6"/>
</g>
<g>
	<g>
		<path class="st2" d="M83.3,174.4l-52.8-18.7l27-76.2l52.8,18.8L83.3,174.4z M35.6,153.1l45.1,16l24.3-68.5l-45.1-16L35.6,153.1z"
			/>
	</g>
	
		<rect x="79.5" y="90.5" transform="matrix(0.3344 -0.9424 0.9424 0.3344 -35.6493 140.3483)" class="st2" width="4.1" height="9.9"/>
	
		<rect x="60.5" y="123.1" transform="matrix(0.3344 -0.9424 0.9424 0.3344 -98.8917 158.1199)" class="st2" width="4.1" height="52"/>
	
		<rect x="77.8" y="74.1" transform="matrix(0.3344 -0.9424 0.9424 0.3344 -41.1482 141.8948)" class="st2" width="4.1" height="52"/>
	<path class="st2" d="M60,160.6c-0.5,0-1-0.1-1.5-0.3c-2.3-0.8-3.6-3.4-2.7-5.8c0.8-2.3,3.4-3.6,5.8-2.7h0c2.3,0.8,3.6,3.4,2.7,5.8
		c-0.4,1.1-1.2,2-2.3,2.6C61.3,160.4,60.7,160.6,60,160.6z M60,155.6c-0.2,0-0.3,0.1-0.4,0.3c-0.1,0.2,0,0.5,0.3,0.6
		c0.1,0,0.3,0,0.3,0c0.1,0,0.2-0.1,0.2-0.2c0.1-0.2,0-0.5-0.3-0.6l0,0C60.1,155.6,60.1,155.6,60,155.6z"/>
</g>
</svg>
