<?xml version="1.0" encoding="utf-8"?>
<!-- Generator: Adobe Illustrator 21.0.0, SVG Export Plug-In . SVG Version: 6.00 Build 0)  -->
<svg version="1.1" id="Layer_1" xmlns="http://www.w3.org/2000/svg" xmlns:xlink="http://www.w3.org/1999/xlink" x="0px" y="0px"
	 viewBox="0 0 300 300" style="enable-background:new 0 0 300 300;" xml:space="preserve">
<style type="text/css">
	.st0{fill:#1A1A1A;}
	.st1{fill-rule:evenodd;clip-rule:evenodd;fill:#ED1C24;}
	.st2{fill:#ED1C24;}
</style>
<g>
	<path class="st0" d="M131.6,209.5l-10.1,11.7c-4.6-6.9-10.4-10.1-19.2-10.1c-7.4,0-11.3,2.9-11.3,6.9c0,3.5,3.2,5.6,13.8,7.5
		c18.9,3.2,26.3,9.3,26.3,21.4c0,13.5-12.5,21.2-29.1,21.2c-16.3,0-24.8-4.2-31.6-11.7l9.3-12.6c5.5,7.9,12.2,10.4,21.4,10.4
		c7.7,0,11.5-2.4,11.5-6.4c0-3.1-3.2-4.9-13.5-6.9c-19.3-3.5-26.7-9.6-26.7-21.4c0-12.9,10.8-22.4,29.6-22.4
		C114.9,197.1,123.6,200.6,131.6,209.5z"/>
	<path class="st0" d="M206.8,232.6c0,22.2-12.7,35.5-33.7,35.5s-33.8-13.3-33.8-35.5s12.8-35.5,33.8-35.5S206.8,210.4,206.8,232.6z
		 M157.7,232.6c0,14.1,5.4,21.4,15.5,21.4c9.9,0,15.3-7.3,15.3-21.4s-5.4-21.4-15.3-21.4C163.1,211.2,157.7,218.5,157.7,232.6z"/>
</g>
<g>
	<path d="M89.1,286.2c0,3.9-2.1,6.3-5.5,6.3c-1.8,0-3.2-0.9-4-2.1v6.9h-1.9v-17.1h1.7l0.1,2.1c0.7-1.4,2.2-2.3,4.1-2.3
		C86.9,280,89.1,282.3,89.1,286.2z M87.1,286.2c0-2.8-1.4-4.6-3.8-4.6c-2.3,0-3.8,1.7-3.8,4.4v0.3c0,2.7,1.5,4.4,3.8,4.4
		C85.7,290.8,87.1,289,87.1,286.2z"/>
	<path d="M103.6,290.7l-0.1,1.5c-0.3,0.1-0.8,0.2-1.4,0.2c-1.2,0-1.9-0.4-2.2-1.8c-0.8,1.1-2.3,1.8-3.9,1.8c-2.3,0-4.1-1.1-4.1-3.2
		c0-1.8,1.6-3.2,4.7-3.8l3.2-0.5v-0.7c0-1.6-1-2.6-2.8-2.6c-1.6,0-2.8,0.8-3.4,2.3l-1.4-1c0.6-1.8,2.5-2.9,4.9-2.9
		c2.7,0,4.7,1.3,4.7,4.1v5.9c0,0.6,0.2,0.9,0.9,0.9C103,290.9,103.3,290.8,103.6,290.7z M99.8,288.2v-1.7l-2.7,0.5
		c-2.1,0.4-3.2,1.1-3.2,2.2c0,1,0.8,1.5,2.2,1.5C98,290.8,99.8,289.8,99.8,288.2z"/>
	<path d="M116.8,293.6c0,2.4-2.7,3.8-5.9,3.8c-3.8,0-5.5-1.4-5.5-3.2c0-1.1,0.8-2,2.1-2.3c-0.9-0.4-1.6-1.2-1.6-2.2
		c0-1.3,0.7-2,1.8-2.4c-1.2-0.7-1.8-1.9-1.8-3.3c0-2.4,2-4.1,4.9-4.1c0.9,0,1.7,0.2,2.5,0.5c0.5-1.7,1.6-2.5,3.4-2.5l0.4,1.7
		c-1.6,0-2.5,0.5-2.9,1.3c1,0.7,1.5,1.8,1.5,3c0,2.4-2,4.1-4.9,4.1c-0.7,0-1.3-0.1-1.9-0.2c-1,0.2-1.3,0.7-1.3,1.5
		c0,0.8,0.6,1.3,1.6,1.3h4C115.4,290.7,116.8,291.8,116.8,293.6z M115,293.8c0-0.9-0.6-1.4-2.4-1.4h-3.2c-1.5,0-2.3,0.6-2.3,1.5
		c0,1.2,1.3,1.9,4,1.9C113.6,295.8,115,294.8,115,293.8z M107.8,284c0,1.5,1.3,2.5,2.9,2.5s2.9-1,2.9-2.5s-1.3-2.5-2.9-2.5
		S107.8,282.6,107.8,284z"/>
	<path d="M129.8,287h-9.1c0.2,2.4,1.7,3.8,3.9,3.8c1.8,0,3-0.6,3.4-1.8l1.6,0.8c-0.9,1.6-2.4,2.6-5,2.6c-3.6,0-5.8-2.4-5.8-6.3
		c0-3.9,2-6.3,5.7-6.3c3.5,0,5.4,2.5,5.4,5.6C129.9,286.2,129.9,286.6,129.8,287z M120.8,285.3h7.3c-0.3-2.2-1.5-3.6-3.5-3.6
		C122.4,281.7,121.1,283,120.8,285.3z"/>
	<path d="M151.8,283.2L150,284c-0.5-1.5-1.5-2.4-3.2-2.4c-2.4,0-3.8,1.7-3.8,4.6c0,2.9,1.4,4.6,3.8,4.6c1.9,0,3-0.9,3.4-2.5l1.8,0.6
		c-0.8,2.2-2.5,3.5-5.1,3.5c-3.6,0-5.8-2.4-5.8-6.3c0-3.9,2.2-6.3,5.8-6.3C149.3,280,150.9,281.2,151.8,283.2z"/>
	<path d="M162.3,280.2l-0.4,1.9c-0.4-0.2-0.9-0.3-1.5-0.3c-1.4,0-3.2,1.3-3.2,4v6.5h-1.9v-12h1.6l0.3,2c0.7-1.5,2-2.2,3.8-2.2
		C161.4,280,162,280,162.3,280.2z"/>
	<path d="M175.6,280.2v12h-1.7l-0.1-1.8c-0.8,1.4-2.4,2.1-4.3,2.1c-2.4,0-4.4-1.2-4.4-4.4v-7.9h1.9v7.4c0,2.5,1.1,3.2,2.8,3.2
		c2,0,3.8-1.2,3.8-4v-6.5H175.6z"/>
	<path d="M190.6,284.6v7.7h-1.9v-7c0-2.7-1.3-3.6-3-3.6c-1.8,0-3.7,1.1-3.7,4.2v6.4H180v-12h1.7l0.1,1.9c0.8-1.5,2.4-2.1,4-2.1
		C188.4,280,190.6,281.5,190.6,284.6z"/>
	<path d="M205,283.2l-1.8,0.9c-0.5-1.5-1.5-2.4-3.2-2.4c-2.4,0-3.8,1.7-3.8,4.6c0,2.9,1.4,4.6,3.8,4.6c1.9,0,3-0.9,3.4-2.5l1.8,0.6
		c-0.8,2.2-2.5,3.5-5.1,3.5c-3.6,0-5.8-2.4-5.8-6.3c0-3.9,2.2-6.3,5.8-6.3C202.5,280,204.1,281.2,205,283.2z"/>
	<path d="M219,284.6v7.7h-1.9v-7c0-2.7-1.3-3.6-3-3.6c-1.8,0-3.7,1.1-3.7,4.2v6.4h-1.9v-17.6h1.9v7.3c0.8-1.4,2.3-2,3.9-2
		C216.9,280,219,281.5,219,284.6z"/>
</g>
<g>
	<path class="st1" d="M202.7,26.6C171.9,0.3,135.2-6,116.1,13.1c-5.9,5.9-9.6,14-10.7,23.4l-0.2,1.9c-17.8,18-29.7,39.9-33.6,61.6
		c-0.9,5.1-1.4,10.1-1.4,14.9c0,12.4,3.1,23.7,9,33c-4.4,5.6-4.9,13-0.7,17.1c4.2,4.2,11.6,3.8,17.2-0.8
		c28.9,18,75.1,7.9,109.4-25.9l2-0.2c9.4-1.1,17.5-4.8,23.4-10.7c7.2-7.2,11.1-17.3,11.1-29.2c0-19.4-10.2-41.6-27.3-60.4
		c4.9-7.3,12.5-12.7,21.1-14.6c4.3-1,7-5.3,6-9.6c-1-4.3-5.3-7-9.6-6C220,10.3,209.8,17.2,202.7,26.6L202.7,26.6z M117.3,49
		c0.3-0.3,0.5-0.5,0.8-0.8c15,7.3,30.5,18.7,44.6,32.7c14,14,25.4,29.6,32.7,44.5c-0.3,0.3-0.5,0.5-0.8,0.8
		c-32,32-75.4,40.7-96.7,19.4c-9.9-9.9-13.6-25.2-10.5-42.9C90.8,84,101.4,64.9,117.3,49L117.3,49z M127.5,24.4
		c13.8-13.8,46.5-4.5,71.3,20.4c16.5,16.5,26.7,37,26.7,53.5c0,5.2-1.1,12.6-6.3,17.8c-2.2,2.2-4.9,3.8-8.2,4.9
		c-8.1-17.4-21-35.4-37-51.4c-16-16-34-28.9-51.4-37C123.7,29.4,125.3,26.6,127.5,24.4L127.5,24.4z M127.5,24.4"/>
</g>
<g>
	<path class="st2" d="M121.5,87.9l-1.2,1.2h-0.7v0.7l-14.5,14.4h-0.7v0.7l-1.2,1.2v60.4h59.9V87.9H121.5z M109.6,110.5h16.3V94.2
		h30.9v65.9h-47.2V110.5z M119.6,104.2h-5.5l5.5-5.5V104.2z"/>
	<rect x="131.2" y="103" class="st2" width="20.3" height="6.3"/>
	<rect x="114.9" y="114.7" class="st2" width="36.6" height="6.3"/>
	<rect x="114.9" y="126.3" class="st2" width="36.6" height="6.3"/>
	<rect x="114.9" y="138" class="st2" width="36.6" height="6.3"/>
	<rect x="114.9" y="149.6" class="st2" width="36.6" height="6.3"/>
</g>
</svg>
