<?xml version="1.0" encoding="utf-8"?>
<!-- Generator: Adobe Illustrator 21.0.0, SVG Export Plug-In . SVG Version: 6.00 Build 0)  -->
<svg version="1.1" id="Layer_1" xmlns="http://www.w3.org/2000/svg" xmlns:xlink="http://www.w3.org/1999/xlink" x="0px" y="0px"
	 viewBox="0 0 300 300" style="enable-background:new 0 0 300 300;" xml:space="preserve">
<style type="text/css">
	.st0{fill:#1A1A1A;}
	.st1{fill-rule:evenodd;clip-rule:evenodd;fill:#C1272D;}
	.st2{fill:#C1272D;stroke:#C1272D;stroke-width:2.3731;stroke-miterlimit:10;}
</style>
<g>
	<path class="st0" d="M114.8,214.3l-10,11.6c-4.5-6.8-10.3-10-19-10c-7.3,0-11.1,2.9-11.1,6.8c0,3.5,3.2,5.6,13.6,7.4
		c18.7,3.2,26,9.2,26,21.2c0,13.3-12.4,21-28.8,21c-16.1,0-24.6-4.1-31.3-11.6l9.2-12.5c5.5,7.8,12.1,10.3,21.2,10.3
		c7.6,0,11.4-2.4,11.4-6.3c0-3.1-3.2-4.9-13.3-6.8c-19.1-3.5-26.4-9.5-26.4-21.2c0-12.8,10.6-22.2,29.3-22.2
		C98.3,202,106.9,205.5,114.8,214.3z"/>
	<path class="st0" d="M189.2,237.1c0,22-12.6,35.1-33.3,35.1c-20.8,0-33.5-13.1-33.5-35.1s12.7-35.1,33.5-35.1
		C176.6,202,189.2,215.1,189.2,237.1z M140.6,237.1c0,13.9,5.4,21.2,15.3,21.2c9.8,0,15.2-7.2,15.2-21.2s-5.4-21.2-15.2-21.2
		C146,216,140.6,223.2,140.6,237.1z"/>
	<path class="st0" d="M200.1,259.8c23.3-14.6,32.6-25.1,32.6-34.7c0-5.3-3.1-9.2-9.2-9.2c-6.5,0-10.2,4.9-10.4,13.9l-15.2-4.6
		c0.3-15.1,11.5-23.2,26.7-23.2c18.1,0,25.7,11.3,25.7,21.9c0,13.3-10.4,23.4-28.9,34.1v0.1c3.4-0.2,9.4-0.4,13.7-0.4h16v13.5h-51.1
		V259.8z"/>
</g>
<g>
	<path d="M57.9,290.3l-2.5,2.5v3.4h-1.9v-17.4h1.9v11.6l6.2-6.2h2.4l-4.6,4.6l4.9,7.3h-2.3L57.9,290.3z"/>
	<path d="M76.6,290.9h-9c0.2,2.4,1.7,3.8,3.9,3.8c1.7,0,2.9-0.6,3.4-1.8l1.6,0.8c-0.9,1.6-2.4,2.6-4.9,2.6c-3.6,0-5.8-2.3-5.8-6.2
		s2-6.2,5.6-6.2c3.4,0,5.3,2.5,5.3,5.6C76.7,290.1,76.7,290.6,76.6,290.9z M67.7,289.2h7.2c-0.3-2.2-1.5-3.5-3.5-3.5
		C69.3,285.7,68,287,67.7,289.2z"/>
	<path d="M87.2,284.2l-0.4,1.9c-0.4-0.2-0.9-0.3-1.5-0.3c-1.4,0-3.1,1.3-3.1,3.9v6.4h-1.9v-11.9h1.5l0.3,1.9
		c0.7-1.5,1.9-2.2,3.8-2.2C86.3,284,86.9,284.1,87.2,284.2z"/>
	<path d="M100.4,288.5v7.6h-1.9v-6.9c0-2.6-1.3-3.5-2.9-3.5c-1.7,0-3.7,1.1-3.7,4.1v6.3H90v-11.9h1.7l0.1,1.9c0.8-1.5,2.4-2.1,4-2.1
		C98.3,284,100.4,285.5,100.4,288.5z"/>
	<path d="M114.8,290.9h-9c0.2,2.4,1.7,3.8,3.9,3.8c1.7,0,2.9-0.6,3.4-1.8l1.6,0.8c-0.9,1.6-2.4,2.6-4.9,2.6c-3.6,0-5.8-2.3-5.8-6.2
		s2-6.2,5.6-6.2c3.4,0,5.3,2.5,5.3,5.6C114.9,290.1,114.9,290.6,114.8,290.9z M105.9,289.2h7.2c-0.3-2.2-1.5-3.5-3.5-3.5
		C107.5,285.7,106.2,287,105.9,289.2z"/>
	<path d="M120.4,292.9c0,1.2,0.3,1.6,1.3,1.6c0.6,0,1-0.1,1.7-0.3l-0.3,1.8c-0.5,0.2-1.1,0.3-1.8,0.3c-1.9,0-2.9-1-2.9-3.2v-14.4
		h1.9V292.9z"/>
	<path d="M143,287.2l-1.8,0.9c-0.5-1.5-1.5-2.4-3.2-2.4c-2.4,0-3.8,1.7-3.8,4.5s1.4,4.5,3.8,4.5c1.9,0,3-0.9,3.3-2.4l1.8,0.6
		c-0.8,2.2-2.5,3.5-5,3.5c-3.6,0-5.8-2.3-5.8-6.2s2.2-6.2,5.8-6.2C140.6,284,142.2,285.2,143,287.2z"/>
	<path d="M153.4,284.2l-0.4,1.9c-0.4-0.2-0.9-0.3-1.5-0.3c-1.4,0-3.1,1.3-3.1,3.9v6.4h-1.9v-11.9h1.5l0.3,1.9
		c0.7-1.5,1.9-2.2,3.8-2.2C152.5,284,153.1,284.1,153.4,284.2z"/>
	<path d="M166.5,284.2v11.9h-1.7l-0.1-1.8c-0.8,1.4-2.4,2-4.3,2c-2.4,0-4.4-1.2-4.4-4.3v-7.8h1.9v7.3c0,2.4,1.1,3.2,2.8,3.2
		c2,0,3.8-1.2,3.8-4v-6.5H166.5z"/>
	<path d="M181.3,288.5v7.6h-1.9v-6.9c0-2.6-1.3-3.5-2.9-3.5c-1.7,0-3.7,1.1-3.7,4.1v6.3h-1.9v-11.9h1.7l0.1,1.9
		c0.8-1.5,2.4-2.1,4-2.1C179.2,284,181.3,285.5,181.3,288.5z"/>
	<path d="M195.6,287.2l-1.8,0.9c-0.5-1.5-1.5-2.4-3.2-2.4c-2.4,0-3.8,1.7-3.8,4.5s1.4,4.5,3.8,4.5c1.9,0,3-0.9,3.3-2.4l1.8,0.6
		c-0.8,2.2-2.5,3.5-5,3.5c-3.6,0-5.8-2.3-5.8-6.2s2.2-6.2,5.8-6.2C193.1,284,194.7,285.2,195.6,287.2z"/>
	<path d="M209.5,288.5v7.6h-1.9v-6.9c0-2.6-1.3-3.5-2.9-3.5c-1.7,0-3.7,1.1-3.7,4.2v6.3h-1.9v-17.4h1.9v7.3c0.8-1.4,2.3-2,3.9-2
		C207.4,284,209.5,285.5,209.5,288.5z"/>
</g>
<g>
	<path class="st1" d="M184,25.9c-30.4-26-66.7-32.2-85.6-13.4c-5.8,5.8-9.5,13.9-10.5,23.1l-0.2,1.9C70.1,55.4,58.3,77,54.4,98.5
		c-0.9,5.1-1.4,10-1.4,14.7c0,12.3,3,23.4,8.9,32.6c-4.4,5.6-4.8,12.8-0.6,17c4.2,4.2,11.5,3.7,17-0.7
		c28.6,17.8,74.2,7.8,108.2-25.6l1.9-0.2c9.3-1.1,17.3-4.7,23.1-10.5c7.2-7.2,10.9-17.1,10.9-28.9c0-19.2-10.1-41.1-27-59.7
		c4.9-7.2,12.3-12.5,20.9-14.5c4.3-1,7-5.2,5.9-9.5c-1-4.3-5.2-6.9-9.5-5.9C201.2,9.8,191.1,16.6,184,25.9L184,25.9z M99.6,48.1
		c0.3-0.3,0.5-0.5,0.8-0.7c14.8,7.2,30.2,18.5,44.1,32.3c13.8,13.9,25.1,29.2,32.3,44c-0.3,0.3-0.5,0.5-0.7,0.8
		c-31.7,31.7-74.5,40.3-95.6,19.2c-9.8-9.8-13.5-24.9-10.3-42.4C73.4,82.7,83.9,63.8,99.6,48.1L99.6,48.1z M109.7,23.8
		c13.6-13.6,46-4.4,70.5,20.2c16.3,16.3,26.4,36.6,26.4,52.9c0,5.2-1.1,12.4-6.3,17.6c-2.1,2.1-4.9,3.8-8.1,4.8
		c-8-17.2-20.8-35-36.6-50.8c-15.8-15.8-33.6-28.6-50.8-36.6C105.9,28.6,107.5,25.9,109.7,23.8L109.7,23.8z M109.7,23.8"/>
</g>
<g>
	<path class="st2" d="M106.2,123.7c-2.1-2.5-4.1-3.5-4.2-3.6c-0.4-0.2-0.8-0.2-1.1,0c-0.1,0-2.2,1.1-4.2,3.6
		c-1.9,2.3-4.1,6.2-4.1,12.1c0,3.4,0.9,5.8,2.7,7.3c1.8,1.5,4.3,1.6,6.2,1.6c1.9,0,4.3-0.2,6.2-1.6c1.8-1.4,2.7-3.8,2.7-7.3
		C110.3,129.9,108.1,125.9,106.2,123.7L106.2,123.7z M106,141.1c-1,0.8-2.4,1.1-4.6,1.1c-2.2,0-3.7-0.3-4.6-1.1
		c-1.2-0.9-1.8-2.7-1.8-5.3c0-4.1,1.2-7.6,3.4-10.4c1.1-1.4,2.3-2.2,2.9-2.7c0.7,0.4,1.8,1.3,2.9,2.7c2.3,2.8,3.4,6.3,3.4,10.4
		C107.8,138.4,107.2,140.1,106,141.1L106,141.1z M106,141.1"/>
	<path class="st2" d="M111.4,103c0-0.1-1.1-2.2-3.6-4.2c-2.3-1.9-6.2-4.1-12.1-4.1c-3.4,0-5.8,0.9-7.3,2.7c-1.5,1.8-1.6,4.3-1.6,6.2
		c0,1.9,0.2,4.3,1.6,6.2c1.4,1.8,3.8,2.7,7.3,2.7c5.9,0,9.9-2.2,12.1-4.1c2.5-2.1,3.5-4.1,3.6-4.2
		C111.5,103.8,111.5,103.3,111.4,103L111.4,103z M106.1,106.5c-2.8,2.3-6.3,3.4-10.4,3.4c-2.6,0-4.3-0.6-5.3-1.8
		c-0.8-1-1.1-2.4-1.1-4.6c0-2.2,0.3-3.7,1.1-4.6c0.9-1.2,2.7-1.8,5.3-1.8c4.1,0,7.6,1.2,10.4,3.4c1.4,1.1,2.2,2.3,2.7,2.9
		C108.3,104.2,107.5,105.3,106.1,106.5L106.1,106.5z M106.1,106.5"/>
	<path class="st2" d="M138.8,95.8c-0.3-2.9-1.5-7.3-5.7-11.5c-2.4-2.4-4.7-3.5-7-3.2c-2.3,0.3-4.2,1.9-5.5,3.2
		c-1.4,1.4-2.9,3.2-3.2,5.5c-0.3,2.3,0.8,4.6,3.2,7c4.2,4.2,8.6,5.4,11.5,5.7c0.5,0,1,0.1,1.5,0.1c2.4,0,3.9-0.5,4-0.5
		c0.4-0.1,0.7-0.4,0.8-0.8C138.4,101.3,139.1,99,138.8,95.8L138.8,95.8z M136.1,99.9c-0.8,0.2-2.2,0.4-3.9,0.2
		c-3.6-0.4-6.9-2-9.8-4.9c-1.8-1.8-2.7-3.5-2.5-5c0.1-1.2,0.9-2.5,2.5-4c1.6-1.6,2.8-2.3,4-2.5c0.1,0,0.3,0,0.4,0
		c1.4,0,2.9,0.8,4.6,2.5c2.9,2.9,4.6,6.2,4.9,9.8C136.4,97.7,136.2,99.1,136.1,99.9L136.1,99.9z M136.1,99.9"/>
	<path class="st2" d="M133.6,117.1c-4.2-4.2-8.6-5.4-11.5-5.7c-3.2-0.3-5.4,0.4-5.5,0.5c-0.4,0.1-0.7,0.4-0.8,0.8
		c0,0.1-0.8,2.3-0.5,5.5c0.3,2.9,1.5,7.3,5.7,11.5c2.2,2.2,4.3,3.3,6.3,3.3c0.2,0,0.5,0,0.7,0c2.3-0.3,4.2-1.9,5.5-3.2
		c1.4-1.4,2.9-3.2,3.2-5.5C137.1,121.8,136,119.5,133.6,117.1L133.6,117.1z M134.3,123.8c-0.1,1.2-0.9,2.5-2.5,4
		c-1.6,1.6-2.8,2.3-4,2.5c-1.5,0.2-3.1-0.6-5-2.5c-2.9-2.9-4.6-6.2-4.9-9.8c-0.2-1.8,0-3.2,0.2-3.9c1.9-0.4,8-1,13.7,4.7
		C133.6,120.7,134.4,122.3,134.3,123.8L134.3,123.8z M134.3,123.8"/>
	<path class="st2" d="M125.6,125.4c-0.1-0.1-0.1-0.1-0.2-0.2c-0.5-0.5-1.3-0.5-1.8,0c-0.5,0.5-0.5,1.3,0,1.8
		c0.1,0.1,0.2,0.2,0.3,0.3c0.2,0.2,0.6,0.3,0.9,0.3c0.3,0,0.7-0.1,0.9-0.4C126.1,126.7,126.1,125.9,125.6,125.4L125.6,125.4z
		 M125.6,125.4"/>
	<path class="st2" d="M130.9,125.2c-0.5-0.5-1.3-0.5-1.8,0c-0.6,0.6-1.1,0.9-1.5,1.1c-0.7,0.2-1,0.9-0.8,1.6
		c0.2,0.5,0.7,0.9,1.2,0.9c0.1,0,0.2,0,0.4-0.1c1.1-0.3,2-1.1,2.5-1.7C131.4,126.5,131.4,125.7,130.9,125.2L130.9,125.2z
		 M130.9,125.2"/>
</g>
</svg>
