<?xml version="1.0" encoding="utf-8"?>
<!-- Generator: Adobe Illustrator 21.0.0, SVG Export Plug-In . SVG Version: 6.00 Build 0)  -->
<svg version="1.1" id="Layer_1" xmlns="http://www.w3.org/2000/svg" xmlns:xlink="http://www.w3.org/1999/xlink" x="0px" y="0px"
	 viewBox="0 0 300 300" style="enable-background:new 0 0 300 300;" xml:space="preserve">
<style type="text/css">
	.st0{fill:#1A1A1A;}
	.st1{fill-rule:evenodd;clip-rule:evenodd;fill:#9E005D;}
	.st2{fill:#9E005D;}
</style>
<g>
	<g>
		<path class="st0" d="M74.7,202.5l-10.1,11.6c-4.6-6.8-10.4-10.1-19.1-10.1c-7.4,0-11.2,2.9-11.2,6.8c0,3.5,3.2,5.6,13.7,7.5
			c18.8,3.2,26.1,9.2,26.1,21.3c0,13.4-12.4,21.1-28.9,21.1c-16.2,0-24.7-4.1-31.4-11.6l9.2-12.5c5.5,7.9,12.1,10.4,21.3,10.4
			c7.7,0,11.4-2.4,11.4-6.3c0-3.1-3.2-4.9-13.4-6.8c-19.2-3.5-26.5-9.5-26.5-21.3c0-12.9,10.7-22.3,29.5-22.3
			C58.1,190.1,66.8,193.7,74.7,202.5z"/>
		<path class="st0" d="M113.5,234.6h-10.7v25H85.3v-68.4H118c16.5,0,25.8,7.7,25.8,21.8c0,10-4.7,16.7-13.4,19.8l17.4,26.9h-19.7
			L113.5,234.6z M102.8,222h12.1c7.6,0,10.9-2.6,10.9-8.7c0-6-3.3-8.6-10.9-8.6h-12.1V222z"/>
		<path class="st0" d="M211.4,245.8v13.8h-54.6v-68.4H210V205h-35.5v13.9h28.2v13h-28.2v14H211.4z"/>
		<path class="st0" d="M284.4,225.4c0,21.9-11.7,34.2-33.2,34.2h-29v-68.4h29C272.7,191.2,284.4,203.5,284.4,225.4z M266.1,225.4
			c0-13.7-5.1-20.7-16.7-20.7H240v41.5h9.4C261.1,246.1,266.1,239.1,266.1,225.4z"/>
	</g>
	<g>
		<path d="M20.7,269c0-0.9,0.6-1.4,1.4-1.4c0.9,0,1.4,0.6,1.4,1.4c0,0.9-0.6,1.4-1.4,1.4C21.3,270.4,20.7,269.8,20.7,269z
			 M23.1,284.7h-1.9v-11.9h1.9V284.7z"/>
		<path d="M38,277v7.6h-1.9v-7c0-2.7-1.3-3.5-2.9-3.5c-1.7,0-3.7,1.1-3.7,4.2v6.4h-1.9v-11.9h1.7l0.1,1.9c0.8-1.5,2.4-2.1,4-2.1
			C35.9,272.5,38,273.9,38,277z"/>
		<path d="M41.2,282.2l1.6-1.1c0.6,1.5,2.1,2.1,3.8,2.1c2,0,2.9-0.8,2.9-1.8c0-0.9-0.7-1.4-3.1-1.8c-3.4-0.6-4.6-1.6-4.6-3.6
			c0-1.9,1.8-3.6,4.7-3.6c2.6,0,4.1,0.9,4.7,2.9l-1.6,1c-0.5-1.6-1.6-2.1-3.1-2.1c-1.6,0-2.8,0.9-2.8,1.7c0,1,0.8,1.6,3.2,2
			c3.3,0.5,4.5,1.6,4.5,3.5c0,2.1-1.9,3.5-5,3.5C44.2,284.9,42.1,284,41.2,282.2z"/>
		<path d="M66.2,278.7c0,3.9-2.1,6.2-5.4,6.2c-1.8,0-3.2-0.9-4-2.1v6.9h-1.9v-17h1.7l0.1,2.1c0.7-1.4,2.2-2.3,4.1-2.3
			C64.1,272.5,66.2,274.8,66.2,278.7z M64.3,278.7c0-2.8-1.4-4.5-3.7-4.5c-2.3,0-3.7,1.7-3.7,4.4v0.3c0,2.7,1.5,4.4,3.7,4.4
			C62.9,283.2,64.3,281.5,64.3,278.7z"/>
		<path d="M80.1,279.4h-9c0.2,2.4,1.7,3.8,3.9,3.8c1.7,0,2.9-0.6,3.4-1.8l1.6,0.8c-0.9,1.6-2.4,2.6-5,2.6c-3.6,0-5.8-2.3-5.8-6.2
			c0-3.9,2-6.2,5.6-6.2c3.5,0,5.3,2.5,5.3,5.6C80.2,278.6,80.1,279.1,80.1,279.4z M71.1,277.7h7.2c-0.3-2.2-1.5-3.6-3.5-3.6
			C72.7,274.1,71.4,275.5,71.1,277.7z"/>
		<path d="M93.8,275.6l-1.8,0.9c-0.5-1.5-1.5-2.4-3.2-2.4c-2.4,0-3.8,1.7-3.8,4.5s1.4,4.5,3.8,4.5c1.9,0,3-0.9,3.3-2.5l1.8,0.6
			c-0.8,2.2-2.5,3.5-5.1,3.5c-3.6,0-5.8-2.3-5.8-6.2c0-3.9,2.2-6.2,5.8-6.2C91.3,272.5,92.9,273.7,93.8,275.6z"/>
		<path d="M104.6,283.8c-0.7,0.7-1.8,1.1-3.1,1.1c-1.8,0-3.3-0.9-3.3-3.2v-7.3h-2.4v-1.6h2.4v-2.9l1.9-0.5v3.4h4.4v1.6h-4.4v7
			c0,1.2,0.7,1.7,1.8,1.7c0.9,0,1.5-0.3,2-0.9L104.6,283.8z"/>
		<path d="M125.4,275.6l-1.8,0.9c-0.5-1.5-1.5-2.4-3.2-2.4c-2.4,0-3.8,1.7-3.8,4.5s1.4,4.5,3.8,4.5c1.9,0,3-0.9,3.3-2.5l1.8,0.6
			c-0.8,2.2-2.5,3.5-5.1,3.5c-3.6,0-5.8-2.3-5.8-6.2c0-3.9,2.2-6.2,5.8-6.2C122.9,272.5,124.5,273.7,125.4,275.6z"/>
		<path d="M135.8,272.7l-0.4,1.9c-0.4-0.2-0.9-0.3-1.5-0.3c-1.4,0-3.2,1.3-3.2,3.9v6.4h-1.9v-11.9h1.6l0.3,2c0.7-1.5,2-2.2,3.8-2.2
			C134.9,272.5,135.5,272.5,135.8,272.7z"/>
		<path d="M149,272.7v11.9h-1.7l-0.1-1.8c-0.8,1.4-2.4,2.1-4.3,2.1c-2.4,0-4.4-1.2-4.4-4.4v-7.8h1.9v7.3c0,2.5,1.1,3.2,2.8,3.2
			c2,0,3.8-1.2,3.8-4v-6.5H149z"/>
		<path d="M163.9,277v7.6h-1.9v-7c0-2.7-1.3-3.5-2.9-3.5c-1.7,0-3.7,1.1-3.7,4.2v6.4h-1.9v-11.9h1.7l0.1,1.9c0.8-1.5,2.4-2.1,4-2.1
			C161.8,272.5,163.9,273.9,163.9,277z"/>
		<path d="M178.2,275.6l-1.8,0.9c-0.5-1.5-1.5-2.4-3.2-2.4c-2.4,0-3.8,1.7-3.8,4.5s1.4,4.5,3.8,4.5c1.9,0,3-0.9,3.3-2.5l1.8,0.6
			c-0.8,2.2-2.5,3.5-5.1,3.5c-3.6,0-5.8-2.3-5.8-6.2c0-3.9,2.2-6.2,5.8-6.2C175.7,272.5,177.3,273.7,178.2,275.6z"/>
		<path d="M192.1,277v7.6h-1.9v-7c0-2.7-1.3-3.5-2.9-3.5c-1.7,0-3.7,1.1-3.7,4.2v6.3h-1.9v-17.4h1.9v7.3c0.8-1.4,2.3-2,3.9-2
			C190,272.5,192.1,273.9,192.1,277z"/>
		<path d="M207,270.9v1.8h4v1.6h-4v10.3h-1.9v-10.3h-2.4v-1.6h2.4v-2c0-2.1,1.3-3.6,3.9-3.6c0.8,0,1.6,0.2,2,0.5l-0.5,1.6
			c-0.4-0.2-0.8-0.4-1.4-0.4C207.8,268.8,207,269.5,207,270.9z M218.4,282.7l-0.3,1.8c-0.5,0.2-1.1,0.3-1.8,0.3
			c-1.9,0-2.9-1-2.9-3.2v-14.5h1.9v14.2c0,1.2,0.3,1.6,1.3,1.6C217.3,283.1,217.7,283,218.4,282.7z"/>
		<path d="M231.6,278.7c0,3.9-2.2,6.2-5.8,6.2c-3.6,0-5.8-2.3-5.8-6.2c0-3.9,2.2-6.2,5.8-6.2C229.5,272.5,231.6,274.8,231.6,278.7z
			 M222,278.7c0,2.8,1.5,4.6,3.9,4.6s3.9-1.7,3.9-4.6s-1.5-4.6-3.9-4.6S222,275.8,222,278.7z"/>
		<path d="M252.3,272.7l-4.2,11.9h-1.9l-3.4-9.5l-3.2,9.5h-1.9l-4.2-11.9h2.1l3,9.7l3.2-9.7h1.9l3.2,9.7l3-9.7H252.3z"/>
	</g>
	<g>
		<path class="st1" d="M158.6,29.4C128,3.3,91.5-2.9,72.6,16c-5.9,5.9-9.5,13.9-10.6,23.2l-0.2,1.9c-17.7,17.9-29.5,39.6-33.4,61.2
			c-0.9,5.1-1.4,10-1.4,14.8c0,12.4,3,23.5,8.9,32.8c-4.4,5.6-4.8,12.9-0.7,17c4.2,4.2,11.5,3.7,17.1-0.8
			C81.1,184.1,127,174,161,140.5l1.9-0.2c9.3-1.1,17.4-4.7,23.2-10.6c7.2-7.2,11-17.2,11-29c0-19.3-10.1-41.3-27.2-60
			c4.9-7.3,12.4-12.6,21-14.5c4.3-1,7-5.3,6-9.6c-1-4.3-5.3-7-9.6-6C175.8,13.2,165.7,20.1,158.6,29.4L158.6,29.4z M73.8,51.7
			c0.3-0.3,0.5-0.5,0.8-0.8c14.9,7.3,30.3,18.6,44.3,32.5c13.9,13.9,25.2,29.4,32.5,44.2c-0.3,0.3-0.5,0.5-0.8,0.8
			c-31.8,31.8-74.9,40.4-96,19.3c-9.9-9.9-13.6-25-10.4-42.6C47.5,86.5,58,67.5,73.8,51.7L73.8,51.7z M83.9,27.3
			c13.7-13.7,46.2-4.4,70.8,20.2c16.4,16.4,26.5,36.7,26.5,53.1c0,5.2-1.1,12.5-6.3,17.7c-2.2,2.2-4.9,3.8-8.1,4.8
			c-8-17.3-20.9-35.1-36.8-51c-15.9-15.9-33.8-28.7-51-36.8C80.1,32.2,81.7,29.5,83.9,27.3L83.9,27.3z M83.9,27.3"/>
	</g>
	<g>
		<rect x="89.4" y="128.2" class="st2" width="2.4" height="16.2"/>
		<rect x="89.4" y="79.5" class="st2" width="2.4" height="16.2"/>
		<rect x="58.2" y="110.8" class="st2" width="16.2" height="2.4"/>
		<rect x="106.9" y="110.8" class="st2" width="16.2" height="2.4"/>
		<path class="st2" d="M90.6,137.5c-14.1,0-25.5-11.5-25.5-25.5c0-14.1,11.5-25.5,25.5-25.5c14.1,0,25.5,11.5,25.5,25.5
			C116.2,126.1,104.7,137.5,90.6,137.5z M90.6,88.8c-12.8,0-23.2,10.4-23.2,23.2s10.4,23.2,23.2,23.2c12.8,0,23.2-10.4,23.2-23.2
			S103.4,88.8,90.6,88.8z"/>
	</g>
</g>
</svg>
