<?xml version="1.0" encoding="utf-8"?>
<!-- Generator: Adobe Illustrator 20.1.0, SVG Export Plug-In . SVG Version: 6.00 Build 0)  -->
<svg version="1.1" id="Layer_1" xmlns="http://www.w3.org/2000/svg" xmlns:xlink="http://www.w3.org/1999/xlink" x="0px" y="0px"
	 viewBox="0 0 117 50" style="enable-background:new 0 0 117 50;" xml:space="preserve">
<style type="text/css">
	.st0{fill:#1A1A1A;}
	.st1{fill-rule:evenodd;clip-rule:evenodd;fill:#063551;}
	.st2{fill:#063551;}
</style>
<g>
	<g>
		<path class="st0" d="M10,36.7h2l1.2,3.6l1.2-3.6h2v6.7h-1.4v-4.9L13.9,42h-1.3l-1.2-3.5v4.9H10V36.7z"/>
		<path class="st0" d="M22.3,43.4C22.1,43,22,42.5,21.9,42h-2.7c-0.1,0.5-0.3,1-0.4,1.4h-1.5c0.7-2.2,1.5-4.5,2.5-6.7h1.6
			c1,2.2,1.8,4.5,2.5,6.7H22.3z M19.5,40.9h2c-0.3-0.9-0.6-1.7-1-2.6C20.1,39.1,19.8,40,19.5,40.9z"/>
		<path class="st0" d="M25.7,41.3c0.1,0.7,0.2,1.1,1.5,1.1c0.7,0,1.2-0.1,1.2-0.8c0-0.4-0.2-0.6-0.8-0.8L26,40.4
			c-0.8-0.2-1.5-0.6-1.5-1.8c0-1,0.4-2,2.5-2c2,0,2.6,0.9,2.6,2.1h-1.4c-0.1-0.6-0.1-0.9-1.3-0.9c-0.7,0-1.1,0.1-1.1,0.7
			c0,0.5,0.3,0.6,0.7,0.7l1.5,0.4c1,0.3,1.8,0.6,1.8,2c0,1.9-1.6,2.1-2.6,2.1c-2.2,0-2.8-0.9-2.9-2.3H25.7z"/>
		<path class="st0" d="M32.2,37.9h-2v-1.2h5.4v1.2h-2v5.5h-1.4V37.9z"/>
		<path class="st0" d="M36.4,36.7h5v1.2h-3.6v1.5h3.3v1.2h-3.3v1.8h3.7v1.2h-5.1V36.7z"/>
		<path class="st0" d="M42.7,36.7h2.9c1.4,0,2.6,0,2.6,2c0,1.3-0.5,1.8-1.3,2l1.8,2.7h-1.7l-1.6-2.6H44v2.6h-1.4V36.7z M44,37.9v1.8
			h1.2c1.1,0,1.5-0.1,1.5-1c0-0.7-0.2-0.8-1.4-0.8H44z"/>
		<path class="st0" d="M49.3,37.3c0-0.5,0.1-0.7,0.7-0.7c0.6,0,0.7,0.2,0.7,0.8c0,1.5-0.3,1.9-1.2,1.9v-0.6c0.4,0,0.5-0.1,0.5-0.8
			C49.4,38,49.3,37.8,49.3,37.3z"/>
		<path class="st0" d="M53.1,41.3c0.1,0.7,0.2,1.1,1.5,1.1c0.7,0,1.2-0.1,1.2-0.8c0-0.4-0.2-0.6-0.8-0.8l-1.6-0.4
			c-0.8-0.2-1.5-0.6-1.5-1.8c0-1,0.4-2,2.5-2c2,0,2.6,0.9,2.6,2.1h-1.4c-0.1-0.6-0.1-0.9-1.3-0.9c-0.7,0-1.1,0.1-1.1,0.7
			c0,0.5,0.3,0.6,0.7,0.7l1.5,0.4c1,0.3,1.8,0.6,1.8,2c0,1.9-1.6,2.1-2.6,2.1c-2.2,0-2.8-0.9-2.9-2.3H53.1z"/>
		<path class="st0" d="M60.9,36.7h2.5c1.4,0,2.6,0.1,2.6,2.1c0,1.9-1.1,2.2-2.5,2.2h-1.3v2.5h-1.4V36.7z M62.3,37.9v2h0.9
			c1.1,0,1.5-0.1,1.5-1.1c0-0.8-0.2-0.9-1.4-0.9H62.3z"/>
		<path class="st0" d="M67.1,36.7h2.9c1.4,0,2.6,0,2.6,2c0,1.3-0.5,1.8-1.3,2l1.8,2.7h-1.7l-1.6-2.6h-1.2v2.6h-1.4V36.7z M68.5,37.9
			v1.8h1.2c1.1,0,1.5-0.1,1.5-1c0-0.7-0.2-0.8-1.4-0.8H68.5z"/>
		<path class="st0" d="M76.7,36.6c1.6,0,3.3,0.5,3.3,3.5c0,2.9-1.6,3.5-3.2,3.5c-1.7,0-3.3-0.6-3.3-3.5C73.4,37,75.1,36.6,76.7,36.6
			z M76.7,42.4c0.9,0,1.8-0.2,1.8-2.4c0-1.7-0.5-2.3-1.9-2.3c-1.2,0-1.8,0.5-1.8,2.4C74.8,42.1,75.5,42.4,76.7,42.4z"/>
		<path class="st0" d="M87.2,40.6c0,2.2-1.2,3-3.1,3c-1.7,0-3.3-0.6-3.3-3.5c0-3,1.8-3.5,3.3-3.5c1.8,0,2.9,0.7,3,2.2h-1.4
			c-0.1-0.7-0.4-1.1-1.6-1.1c-1.3,0-1.9,0.5-1.9,2.3c0,1.9,0.7,2.3,1.9,2.3c1.4,0,1.8-0.4,1.8-1.4h-1.6v-1.2h2.9V40.6z"/>
		<path class="st0" d="M88.3,36.7h2.9c1.4,0,2.6,0,2.6,2c0,1.3-0.5,1.8-1.3,2l1.8,2.7h-1.7l-1.6-2.6h-1.2v2.6h-1.4V36.7z M89.7,37.9
			v1.8h1.2c1.1,0,1.5-0.1,1.5-1c0-0.7-0.2-0.8-1.4-0.8H89.7z"/>
		<path class="st0" d="M99.5,43.4c-0.1-0.5-0.3-0.9-0.4-1.4h-2.7c-0.1,0.5-0.3,1-0.4,1.4h-1.5c0.7-2.2,1.5-4.5,2.5-6.7h1.6
			c1,2.2,1.8,4.5,2.5,6.7H99.5z M96.7,40.9h2c-0.3-0.9-0.6-1.7-1-2.6C97.4,39.1,97,40,96.7,40.9z"/>
		<path class="st0" d="M101.8,36.7h2l1.2,3.6l1.2-3.6h2v6.7h-1.4v-4.9l-1.2,3.5h-1.3l-1.2-3.5v4.9h-1.4V36.7z"/>
	</g>
	<g>
		<g>
			<g>
				<path class="st0" d="M37,24.9c0.2,2.5,0.6,3.8,5.3,3.8c2.5,0,4.3-0.4,4.3-2.8c0-1.5-0.7-2.3-2.7-2.8l-5.8-1.6
					c-2.9-0.8-5.4-2.2-5.4-6.5c0-3.4,1.6-7,8.9-7c7,0,9.2,3.2,9.3,7.5H46c-0.2-2-0.3-3.3-4.6-3.3c-2.5,0-3.7,0.5-3.7,2.4
					c0,1.7,1,2.2,2.4,2.6l5.3,1.4c3.4,0.9,6.2,2.2,6.2,7c0,6.7-5.7,7.3-9.3,7.3c-7.7,0-9.9-3-10.2-8H37z"/>
				<path class="st0" d="M55.4,8.6h10.3c4.9,0,9.2,0.1,9.2,7.1c0,4.6-1.9,6.4-4.6,7l6.2,9.6h-6L64.7,23h-4.4v9.3h-4.9V8.6z
					 M60.3,12.7v6.3h4.4c3.9,0,5.3-0.4,5.3-3.4c0-2.4-0.8-2.9-5-2.9H60.3z"/>
				<path class="st0" d="M79,8.6h4.9v23.7H79V8.6z"/>
				<path class="st0" d="M108.5,24.5c-0.3,4.6-2.9,8.3-10.2,8.3c-7.2,0-10.8-3.5-10.8-12.3c0-8.5,3.4-12.5,10.8-12.5
					c5.8,0,9.4,2.5,10.2,7.9h-4.9c-0.6-2.1-1.3-3.7-5.3-3.7c-4,0-5.8,2.4-5.8,8.8c0,4.9,1.3,7.7,5.9,7.7c3.3,0,4.8-1,5.2-4.2H108.5z
					"/>
			</g>
		</g>
		<path class="st1" d="M24,10c0.9-1.3,1.3-3,1.1-4.6c-0.1-0.6-0.6-1-1.2-1c-0.6,0.1-1,0.6-1,1.2c0.1,1.2-0.2,2.4-0.9,3.4
			c-3.2-1.3-6.5-1.6-8.9-0.7c-1.5,0.5-2.6,1.5-3.2,2.7c-0.5,1-0.6,2.2-0.3,3.5l0.1,0.3c-2.8,5.9-2,12.2,1.7,15.1
			c-0.3,0.9,0,1.9,0.7,2.2c0.7,0.3,1.6,0,2.2-0.9c1.5,0.3,3,0.2,4.6-0.4c0.6-0.2,1.2-0.5,1.8-0.9c2.6-1.5,4.8-4,6.3-7.1l0.2-0.1
			c1.1-0.6,2-1.4,2.5-2.4C31.2,17.1,28.8,12.7,24,10z M27.7,19.5c-0.2,0.4-0.5,0.7-0.8,1c-0.7-0.7-2.4-2.1-3.5-2.9c0,0,0,0,0,0.1
			l-0.8,1.6c0.2,0.2,0.3,0.4,0.4,0.6c0,0.1,0,0.1,0,0.2c0.8,0.6,1.5,1.1,2.1,1.7c0,0,0,0.1-0.1,0.1c-1.3,2.7-3.3,5-5.5,6.2
			c-2.1,1.2-4.2,1.4-5.9,0.6c-3.7-1.7-4.5-7.7-1.9-13.2c0,0,0-0.1,0.1-0.1c0.9,0.1,1.8,0.3,2.7,0.5c0.2-0.1,0.5-0.1,0.7-0.1l0.8-1.6
			c0,0,0,0,0-0.1c-1.5-0.5-3-0.8-4.4-0.9c0-0.5,0.1-0.9,0.3-1.3c0.4-0.9,1.3-1.4,2-1.6c2.1-0.7,5.2-0.4,8,1
			C26.2,13.4,28.8,17.1,27.7,19.5z"/>
	</g>
	<g>
		<path class="st2" d="M17.8,19.9c-0.2-0.1-0.4,0-0.5,0.2L16.9,21c-0.3,0-0.5,0.2-0.7,0.5c-0.2,0.4,0,0.9,0.4,1.1
			c0.4,0.2,0.9,0,1.1-0.4c0.1-0.3,0.1-0.6-0.1-0.8l0.4-0.8C18.1,20.3,18,20,17.8,19.9z"/>
		<path class="st2" d="M21,12.9c-1.6-0.7-3.6,0-4.3,1.6l-1,2.2c-0.6-0.3-1.3,0-1.6,0.6l-2,4.4c-0.3,0.6,0,1.3,0.6,1.6l5.9,2.7
			c0.6,0.3,1.3,0,1.6-0.6l2-4.4c0.3-0.6,0-1.3-0.6-1.6l1-2.2C23.4,15.6,22.6,13.7,21,12.9z M21.4,20.7l-2,4.4
			c-0.1,0.2-0.3,0.3-0.5,0.2L13,22.6c-0.2-0.1-0.3-0.3-0.2-0.5l2-4.4c0.1-0.2,0.3-0.3,0.5-0.2l5.9,2.7
			C21.5,20.3,21.5,20.5,21.4,20.7z M21.9,16.9l-1,2.2l-4.4-2l1-2.2c0.6-1.2,2-1.7,3.2-1.2C21.9,14.2,22.4,15.7,21.9,16.9z"/>
	</g>
</g>
</svg>
