<?xml version="1.0" encoding="utf-8"?>
<!-- Generator: Adobe Illustrator 21.0.0, SVG Export Plug-In . SVG Version: 6.00 Build 0)  -->
<svg version="1.1" id="Layer_1" xmlns="http://www.w3.org/2000/svg" xmlns:xlink="http://www.w3.org/1999/xlink" x="0px" y="0px"
	 viewBox="0 0 100 50" style="enable-background:new 0 0 100 50;" xml:space="preserve">
<style type="text/css">
	.st0{fill:#1A1A1A;}
	.st1{stroke:#000000;stroke-width:0.25;stroke-miterlimit:10;}
	.st2{fill:#EF6C00;}
</style>
<g>
	<g>
		<path class="st0" d="M51.6,24.7c0,5.8-3.1,8.8-9.3,8.8c-6.1,0-9.3-2.9-9.3-8.8V12.5h5.4v12.4c0,3,1.3,4.4,3.8,4.4
			c2.6,0,3.9-1.4,3.9-4.4V12.5h5.4V24.7z"/>
		<path class="st0" d="M72.9,15.9l-3,3.5c-1.4-2.1-3.1-3-5.8-3c-2.2,0-3.4,0.9-3.4,2.1c0,1.1,1,1.7,4.1,2.3c5.7,1,7.9,2.8,7.9,6.4
			c0,4.1-3.8,6.4-8.8,6.4c-4.9,0-7.5-1.3-9.5-3.5l2.8-3.8c1.7,2.4,3.7,3.1,6.4,3.1c2.3,0,3.5-0.7,3.5-1.9c0-0.9-1-1.5-4.1-2.1
			c-5.8-1.1-8-2.9-8-6.4c0-3.9,3.2-6.8,8.9-6.8C67.9,12.1,70.5,13.2,72.9,15.9z"/>
		<path class="st0" d="M95.6,22.8c0,6.7-3.8,10.7-10.2,10.7s-10.2-4-10.2-10.7s3.9-10.7,10.2-10.7S95.6,16.1,95.6,22.8z M80.8,22.8
			c0,4.2,1.6,6.4,4.7,6.4c3,0,4.6-2.2,4.6-6.4s-1.6-6.4-4.6-6.4C82.4,16.4,80.8,18.6,80.8,22.8z"/>
	</g>
	<g>
		<path class="st1" d="M34.3,41.2c0,0.7-0.4,1.1-1,1.1c-0.2,0-0.4-0.1-0.5-0.2l0-0.1c0.1,0.1,0.3,0.2,0.5,0.2c0.5,0,0.8-0.4,0.8-1
			v-4.1h0.1V41.2z M34.4,36.3c0,0.1-0.1,0.2-0.2,0.2c-0.1,0-0.2-0.1-0.2-0.2s0.1-0.2,0.2-0.2C34.4,36.1,34.4,36.2,34.4,36.3z"/>
		<path class="st1" d="M38.4,37.2v3.6h-0.1v-1c-0.2,0.6-0.7,1-1.5,1c-0.8,0-1.3-0.5-1.3-1.3v-2.4h0.1v2.4c0,0.8,0.4,1.2,1.2,1.2
			c1,0,1.5-0.9,1.5-1.4v-2.2H38.4z"/>
		<path class="st1" d="M39.3,40l0.1-0.1c0.1,0.5,0.7,0.8,1.4,0.8c0.8,0,1.3-0.3,1.3-0.9c0-0.4-0.3-0.7-1.2-0.8c-1-0.2-1.4-0.4-1.4-1
			c0-0.6,0.6-1,1.3-1c0.7,0,1.2,0.3,1.3,0.9L42,38.1c-0.1-0.6-0.6-0.9-1.2-0.9c-0.7,0-1.2,0.4-1.2,0.9c0,0.5,0.3,0.7,1.3,0.9
			c1,0.2,1.3,0.4,1.3,0.9c0,0.6-0.5,1-1.4,1C40,40.9,39.4,40.6,39.3,40z"/>
		<path class="st1" d="M44.9,40.6c-0.1,0.2-0.4,0.3-0.7,0.3c-0.6,0-0.9-0.3-0.9-1v-2.6h-0.7v-0.1h0.7v-0.9l0.1,0v1h1.4v0.1h-1.4v2.6
			c0,0.6,0.2,0.9,0.8,0.9C44.4,40.8,44.6,40.7,44.9,40.6L44.9,40.6z"/>
		<path class="st1" d="M50.3,38.1l-0.1,0.1c-0.2-0.6-0.6-0.9-1.3-0.9c-1,0-1.5,0.7-1.5,1.8c0,1.1,0.5,1.8,1.5,1.8
			c0.7,0,1.3-0.4,1.4-1l0.1,0c-0.1,0.7-0.7,1.1-1.5,1.1c-1,0-1.6-0.7-1.6-1.9c0-1.2,0.6-1.9,1.7-1.9C49.6,37.1,50.1,37.5,50.3,38.1z
			"/>
		<path class="st1" d="M53.1,37.3L53.1,37.3c-0.2,0-0.3-0.1-0.5-0.1c-0.7,0-1.2,0.7-1.2,1.5v2.1h-0.1v-3.6h0.1v0.9
			c0.2-0.6,0.6-1,1.2-1C52.8,37.1,53,37.2,53.1,37.3z"/>
		<path class="st1" d="M56.6,37.2v3.6h-0.1v-1c-0.2,0.6-0.7,1-1.5,1c-0.8,0-1.3-0.5-1.3-1.3v-2.4h0.1v2.4c0,0.8,0.4,1.2,1.2,1.2
			c1,0,1.5-0.9,1.5-1.4v-2.2H56.6z"/>
		<path class="st1" d="M60.8,38.4v2.4h-0.1v-2.4c0-0.8-0.5-1.2-1.3-1.2c-0.8,0-1.5,0.7-1.5,1.4v2.2h-0.1v-3.6h0.1v1
			c0.2-0.6,0.7-1,1.5-1C60.3,37.1,60.8,37.6,60.8,38.4z"/>
		<path class="st1" d="M64.8,38.1l-0.1,0.1c-0.2-0.6-0.6-0.9-1.3-0.9c-1,0-1.5,0.7-1.5,1.8c0,1.1,0.5,1.8,1.5,1.8
			c0.7,0,1.3-0.4,1.4-1l0.1,0c-0.1,0.7-0.7,1.1-1.5,1.1c-1,0-1.6-0.7-1.6-1.9c0-1.2,0.6-1.9,1.7-1.9C64.1,37.1,64.6,37.5,64.8,38.1z
			"/>
		<path class="st1" d="M68.7,38.4v2.4h-0.1v-2.4c0-0.8-0.5-1.2-1.3-1.2c-0.8,0-1.5,0.7-1.5,1.4v2.2h-0.1v-5.3h0.1v2.6
			c0.2-0.6,0.7-1,1.5-1C68.2,37.1,68.7,37.6,68.7,38.4z"/>
		<path class="st1" d="M71.8,36.3c0-0.1,0.1-0.2,0.2-0.2s0.2,0.1,0.2,0.2s-0.1,0.2-0.2,0.2S71.8,36.4,71.8,36.3z M72.1,40.8h-0.1
			v-3.6h0.1V40.8z"/>
		<path class="st1" d="M75,40.6c-0.1,0.2-0.4,0.3-0.7,0.3c-0.6,0-0.9-0.3-0.9-1v-2.6h-0.7v-0.1h0.7v-0.9l0.1,0v1H75v0.1h-1.4v2.6
			c0,0.6,0.2,0.9,0.8,0.9C74.6,40.8,74.8,40.7,75,40.6L75,40.6z"/>
	</g>
	<g>
		<path class="st2" d="M24.7,19.4c0.7-1,1.7-1.7,2.9-2c0.6-0.1,1-0.7,0.8-1.3c-0.1-0.6-0.7-1-1.3-0.8c-1.6,0.4-3,1.3-4,2.6
			c-4.2-3.6-9.3-4.5-11.9-1.9c-0.8,0.8-1.3,1.9-1.5,3.2l0,0.3c-2.4,2.5-4.1,5.5-4.6,8.4c-0.1,0.7-0.2,1.4-0.2,2
			c0,1.7,0.4,3.2,1.2,4.5c-0.6,0.8-0.7,1.8-0.1,2.4c0.6,0.6,1.6,0.5,2.4-0.1c4,2.5,10.3,1.1,15-3.6l0.3,0c1.3-0.1,2.4-0.7,3.2-1.5
			c1-1,1.5-2.4,1.5-4C28.5,25,27.1,22,24.7,19.4z M14.4,31.3c-1.2,0.2-2.2,1.3-2.2,2.6v1.8c-1.3-0.1-2.5-0.6-3.4-1.5v-3.1
			c0-1.4,1.1-2.6,2.5-2.6h3.1V31.3z M13,35.8v-1.9c0-0.9,0.5-1.6,1.3-1.8v3.6C13.9,35.7,13.5,35.8,13,35.8z M22,31.5
			c-2.1,2.1-4.5,3.4-6.8,4v-4.9l2.4-2.8h-2.4h-0.8h-3c-1.8,0-3.3,1.6-3.3,3.4v2c-0.8-1.3-1-3-0.7-4.9c0.5-2.6,1.9-5.2,4.1-7.4
			c0,0,0.1-0.1,0.1-0.1c2.1,1,4.2,2.6,6.1,4.5c1.9,1.9,3.5,4.1,4.5,6.1C22.1,31.4,22.1,31.5,22,31.5z M15.2,29.4v-0.8h0.6L15.2,29.4
			z M25.4,30.1c-0.3,0.3-0.7,0.5-1.1,0.7c-1.1-2.4-2.9-4.9-5.1-7c-2.2-2.2-4.7-4-7-5.1c0.1-0.4,0.4-0.8,0.7-1.1
			c1.9-1.9,6.4-0.6,9.8,2.8c2.3,2.3,3.7,5.1,3.7,7.3C26.3,28.4,26.1,29.4,25.4,30.1z"/>
		<circle class="st2" cx="12.8" cy="29.8" r="0.6"/>
	</g>
</g>
</svg>
