<?xml version="1.0" encoding="utf-8"?>
<!-- Generator: Adobe Illustrator 21.0.0, SVG Export Plug-In . SVG Version: 6.00 Build 0)  -->
<svg version="1.1" id="Layer_1" xmlns="http://www.w3.org/2000/svg" xmlns:xlink="http://www.w3.org/1999/xlink" x="0px" y="0px"
	 viewBox="0 0 150 150" style="enable-background:new 0 0 150 150;" xml:space="preserve">
<style type="text/css">
	.st0{fill:#063551;}
</style>
<g>
	<g>
		<path class="st0" d="M75.3,88c-2.5,0-4.6-2-5.2-4.8c-3.9-1-7.6-3.2-10.8-6.4c-1.3-1.3-2.5-2.8-3.6-4.4c-4.7-6.7-7.4-15.6-7.5-25.1
			L48,47c-2.3-2.9-3.6-6.2-3.6-9.6c0-10.2,10.9-18.5,26-20c-0.3-4.3,0.7-8.6,2.9-12.1c0.6-0.9,1.5-1.6,2.5-1.8
			c1-0.2,2.1-0.1,3.1,0.5c1.9,1.2,2.5,3.7,1.3,5.6c-1.4,2.3-2,5.1-1.7,7.7c9.4,0.6,17.7,3.8,22.7,8.9c3.3,3.3,5,7.2,5,11.3
			c0,3.3-1.2,6.6-3.6,9.6l-0.2,0.3c-0.3,17.6-9.4,32.4-21.9,35.8C80,86,77.9,88,75.3,88C75.4,88,75.3,88,75.3,88z M76.8,5.5
			c-0.1,0-0.3,0-0.4,0c-0.5,0.1-0.9,0.4-1.2,0.8c-2.2,3.5-3,7.7-2.5,11.8l0.2,1.1l-1.1,0.1c-14.6,1.1-25.1,8.7-25.1,18
			c0,2.8,1.1,5.7,3.1,8.2l0.7,0.8v0.4c0.1,9.1,2.6,17.8,7.1,24.2c1,1.5,2.2,2.9,3.4,4.1c3.1,3.1,6.6,5.1,10.4,6l0.7,0.2l0.1,0.8
			c0.3,2.1,1.6,3.7,3.2,3.7c0,0,0,0,0,0c1.6,0,3-1.6,3.2-3.7l0.1-0.8l0.7-0.2c12-2.8,20.8-17.2,20.9-34.3l0-0.4l0.7-0.9
			c2-2.5,3.1-5.4,3.1-8.2c0-3.5-1.5-6.9-4.4-9.8c-4.9-4.9-12.9-7.9-22.2-8.3l-0.8,0l-0.2-0.8c-0.7-3.5,0-7.1,1.8-10.1
			c0.5-0.9,0.3-2.1-0.6-2.6C77.5,5.7,77.1,5.5,76.8,5.5z M75.4,77.9c-5.5,0-10.8-3.2-14.8-8.9c-4.2-6-6.4-13.9-6.4-22.4l0-1.2
			l0.7-0.2c6-2.1,13.1-3.2,20.5-3.2c7.4,0,14.5,1.1,20.5,3.2l0.7,0.3l0,1.2C96.6,63.9,87.1,77.9,75.4,77.9z M56.3,46.9
			c0.1,7.9,2.2,15.3,6.1,20.8c3.6,5.2,8.2,8,13,8c10.4,0,19-12.9,19.1-28.9c-5.6-1.8-12.2-2.8-19.1-2.8
			C68.5,44.1,61.9,45.1,56.3,46.9z M99,42.2l-0.9-0.3c-13-4.7-32.4-4.7-45.4,0l-0.9,0.3l-0.4-0.8c-0.7-1.3-1-2.6-1-3.9
			c0-3.9,2.7-7.5,7.7-10.3c4.7-2.6,10.9-4.1,17.3-4.1c0,0,0,0,0,0c8.9,0,17.2,2.8,21.7,7.3c1.5,1.5,3.3,4,3.3,7.1
			c0,1.3-0.3,2.6-1,3.9L99,42.2z M75.4,36.1c8.1,0,15.9,1.2,22.5,3.5c0.2-0.7,0.4-1.4,0.4-2.1c0-2.4-1.5-4.3-2.7-5.5
			c-4.1-4.1-11.8-6.7-20.2-6.7c0,0,0,0,0,0c-6,0-11.9,1.4-16.3,3.8c-4.2,2.3-6.6,5.4-6.6,8.4c0,0.7,0.1,1.4,0.4,2.1
			C59.5,37.3,67.3,36.1,75.4,36.1z"/>
	</g>
	<g>
		<path class="st0" d="M75.3,114.7c-28.1,0-50.1-7.9-50.1-18c0-8,13.6-14.7,34.7-17.1l0.2,2.1c-19.3,2.2-32.8,8.3-32.8,15
			c0,8.6,21.9,15.8,47.9,15.8s47.9-7.2,47.9-15.8c0-6.6-13.5-12.8-32.8-15l0.2-2.1c21.1,2.4,34.7,9.1,34.7,17.1
			C125.4,106.8,103.4,114.7,75.3,114.7z"/>
		<path class="st0" d="M75.3,104.6c-15.3,0-31.5-3.3-31.5-9.5c0-5.2,11.3-7.6,16.1-8.4l0.3,2.1C50.5,90.4,46,93.1,46,95.1
			c0,3.1,11.2,7.4,29.3,7.4c18.2,0,29.3-4.3,29.3-7.4c0-1.9-4.4-4.7-14.2-6.2l0.3-2.1c4.8,0.8,16,3.2,16,8.4
			C106.8,101.2,90.6,104.6,75.3,104.6z"/>
	</g>
	<g>
		<path class="st0" d="M27.7,133.8l-1.6,0.7c-0.4-1.3-1.3-2.1-2.8-2.1c-2.1,0-3.3,1.5-3.3,3.9c0,2.5,1.2,3.9,3.3,3.9
			c1.6,0,2.6-0.8,2.9-2.1l1.5,0.5c-0.7,1.9-2.2,3.1-4.4,3.1c-3.1,0-5-2-5-5.4s1.9-5.4,5-5.4C25.5,131,26.9,132.1,27.7,133.8z"/>
		<path class="st0" d="M40.1,136.4c0,3.4-1.9,5.4-5,5.4s-5-2-5-5.4s1.9-5.4,5-5.4S40.1,133,40.1,136.4z M31.8,136.4
			c0,2.5,1.3,4,3.4,4c2.1,0,3.4-1.5,3.4-4c0-2.5-1.3-4-3.4-4C33,132.4,31.8,133.9,31.8,136.4z"/>
		<path class="st0" d="M59.4,134.9v6.6h-1.7v-6.5c0-1.9-1.1-2.7-2.4-2.7c-1.6,0-3.1,1.2-3.1,3.4v5.7h-1.7v-6.5
			c0-1.9-1.1-2.7-2.4-2.7c-1.4,0-3.1,1-3.1,3.6v5.5h-1.7v-10.4h1.5l0.1,1.6c0.7-1.3,2-1.8,3.3-1.8c1.4,0,2.9,0.6,3.6,2
			c0.6-1.4,2.3-2,3.6-2C57.4,131,59.4,132.2,59.4,134.9z"/>
		<path class="st0" d="M79.1,134.9v6.6h-1.7v-6.5c0-1.9-1.1-2.7-2.4-2.7c-1.6,0-3.1,1.2-3.1,3.4v5.7h-1.7v-6.5
			c0-1.9-1.1-2.7-2.4-2.7s-3.1,1-3.1,3.6v5.5h-1.7v-10.4h1.5l0.1,1.6c0.7-1.3,2-1.8,3.3-1.8c1.4,0,2.9,0.6,3.6,2
			c0.6-1.4,2.3-2,3.6-2C77.2,131,79.1,132.2,79.1,134.9z"/>
		<path class="st0" d="M91.9,131.2v10.4h-1.5l-0.1-1.6c-0.7,1.2-2.1,1.8-3.7,1.8c-2.1,0-3.8-1.1-3.8-3.8v-6.8h1.7v6.3
			c0,2.1,1,2.8,2.4,2.8c1.8,0,3.3-1,3.3-3.5v-5.6L91.9,131.2C91.9,131.2,91.9,131.2,91.9,131.2z"/>
		<path class="st0" d="M104.8,134.9v6.6h-1.7v-6.1c0-2.3-1.1-3.1-2.5-3.1c-1.5,0-3.2,1-3.2,3.6v5.5h-1.7v-10.4h1.4l0.1,1.6
			c0.7-1.3,2-1.8,3.5-1.8C103,131,104.8,132.3,104.8,134.9z"/>
		<path class="st0" d="M108.2,128c0-0.7,0.5-1.2,1.2-1.2c0.7,0,1.2,0.5,1.2,1.2c0,0.7-0.5,1.2-1.2,1.2
			C108.7,129.2,108.2,128.7,108.2,128z M110.2,141.6h-1.7v-10.4h1.7V141.6z"/>
		<path class="st0" d="M120.4,140.9c-0.6,0.6-1.5,0.9-2.7,0.9c-1.5,0-2.9-0.8-2.9-2.8v-6.4h-2.1v-1.4h2.1v-2.5l1.7-0.5v2.9h3.8v1.4
			h-3.8v6.1c0,1,0.6,1.5,1.6,1.5c0.7,0,1.3-0.3,1.8-0.8L120.4,140.9z"/>
		<path class="st0" d="M126.7,143.3c-0.8,2-1.7,2.7-3.3,2.7c-1,0-1.7-0.3-2.3-0.9l0.6-1.4c0.5,0.7,1.1,0.8,1.7,0.8
			c0.7,0,1.4-0.3,1.9-1.7l0.5-1.3l-4.3-10.3h1.9l2.6,6.8l0.6,1.8l0.7-2.1l2.4-6.5h1.8L126.7,143.3z"/>
	</g>
</g>
</svg>
