<?xml version="1.0" encoding="utf-8"?>
<!-- Generator: Adobe Illustrator 21.0.0, SVG Export Plug-In . SVG Version: 6.00 Build 0)  -->
<svg version="1.1" baseProfile="tiny" id="Layer_1" xmlns="http://www.w3.org/2000/svg" xmlns:xlink="http://www.w3.org/1999/xlink"
	 x="0px" y="0px" viewBox="0 0 28.35 28.35" overflow="scroll" xml:space="preserve">
<g>
	<g>
		<path fill="#063551" d="M14.229,15.962c-0.387,0-0.715-0.31-0.813-0.752c-0.611-0.16-1.174-0.494-1.674-0.994
			c-0.203-0.204-0.394-0.433-0.567-0.684c-0.73-1.048-1.142-2.43-1.164-3.896L9.978,9.595C9.616,9.14,9.425,8.626,9.425,8.109
			c0-1.586,1.689-2.878,4.041-3.114c-0.054-0.667,0.103-1.33,0.45-1.885c0.089-0.142,0.228-0.241,0.391-0.279
			c0.163-0.036,0.332-0.01,0.474,0.079c0.292,0.181,0.382,0.568,0.201,0.864c-0.221,0.353-0.313,0.785-0.261,1.203
			c1.462,0.094,2.745,0.594,3.533,1.382c0.513,0.513,0.784,1.119,0.784,1.751c0,0.517-0.19,1.03-0.552,1.485L18.45,9.639
			c-0.04,2.729-1.458,5.04-3.403,5.562c-0.094,0.441-0.429,0.762-0.815,0.762C14.23,15.962,14.229,15.962,14.229,15.962z
			 M14.449,3.148c-0.022,0-0.044,0.002-0.066,0.007c-0.077,0.018-0.142,0.064-0.184,0.131c-0.336,0.537-0.473,1.19-0.384,1.837
			l0.024,0.175l-0.177,0.014C11.4,5.488,9.759,6.664,9.759,8.109c0,0.441,0.166,0.883,0.48,1.277l0.105,0.132v0.058
			c0.01,1.421,0.403,2.758,1.104,3.767c0.162,0.234,0.339,0.448,0.529,0.637c0.484,0.484,1.03,0.798,1.621,0.931l0.115,0.025
			l0.014,0.117c0.041,0.328,0.256,0.575,0.502,0.575c0,0,0,0,0.001,0c0.25,0,0.466-0.25,0.502-0.581l0.013-0.117l0.115-0.027
			c1.866-0.433,3.235-2.673,3.255-5.326l0.001-0.058l0.107-0.133c0.313-0.394,0.479-0.835,0.479-1.276
			c0-0.542-0.237-1.066-0.687-1.515c-0.754-0.754-2.011-1.226-3.448-1.292l-0.131-0.006l-0.025-0.128
			c-0.108-0.547-0.007-1.105,0.285-1.57c0.085-0.138,0.043-0.32-0.094-0.404C14.557,3.164,14.503,3.148,14.449,3.148z
			 M14.232,14.394c-0.861,0-1.678-0.493-2.301-1.388c-0.646-0.928-1.001-2.166-1-3.486l0.007-0.184L11.045,9.3
			c0.931-0.321,2.033-0.491,3.187-0.491c1.153,0.001,2.254,0.17,3.186,0.49l0.113,0.039l0.001,0.182
			C17.532,12.207,16.052,14.394,14.232,14.394z M11.265,9.578c0.009,1.23,0.342,2.378,0.94,3.237
			c0.558,0.803,1.278,1.245,2.027,1.245c1.623,0,2.946-2.006,2.966-4.483c-0.874-0.283-1.896-0.433-2.966-0.434
			C13.16,9.143,12.137,9.293,11.265,9.578z M17.897,8.846l-0.14-0.051c-2.019-0.738-5.032-0.738-7.053-0.001l-0.139,0.051
			l-0.067-0.132c-0.101-0.199-0.153-0.402-0.153-0.605c0-0.604,0.422-1.172,1.189-1.598c0.735-0.409,1.69-0.633,2.691-0.633
			c0.002,0,0.003,0,0.005,0c1.379,0,2.671,0.435,3.372,1.135c0.234,0.234,0.514,0.615,0.514,1.098c0,0.202-0.051,0.405-0.152,0.604
			L17.897,8.846z M14.231,7.888c1.26,0,2.464,0.187,3.494,0.541c0.038-0.107,0.058-0.214,0.058-0.319
			c0-0.369-0.227-0.672-0.416-0.862c-0.64-0.64-1.841-1.038-3.135-1.038c-0.001,0-0.003,0-0.004,0c-0.932,0-1.853,0.215-2.529,0.591
			c-0.649,0.36-1.019,0.836-1.019,1.307c0,0.105,0.02,0.213,0.059,0.32C11.768,8.075,12.971,7.888,14.231,7.888z"/>
	</g>
	<g>
		<path fill="#063551" d="M14.227,20.107c-4.361,0-7.777-1.226-7.777-2.791c0-1.246,2.115-2.29,5.388-2.66l0.037,0.332
			c-2.998,0.339-5.091,1.296-5.091,2.328c0,1.332,3.408,2.457,7.443,2.457s7.443-1.125,7.443-2.457c0-1.032-2.093-1.989-5.09-2.328
			l0.037-0.332c3.272,0.37,5.387,1.414,5.387,2.66C22.004,18.882,18.588,20.107,14.227,20.107z"/>
		<path fill="#063551" d="M14.227,18.533c-2.371,0-4.891-0.519-4.891-1.479c0-0.812,1.75-1.18,2.501-1.301l0.053,0.33
			c-1.525,0.245-2.22,0.675-2.22,0.971c0,0.479,1.733,1.146,4.557,1.146c2.823,0,4.556-0.667,4.556-1.146
			c0-0.294-0.689-0.724-2.204-0.969l0.053-0.33c0.747,0.121,2.485,0.491,2.485,1.299C19.117,18.015,16.598,18.533,14.227,18.533z"/>
	</g>
	<g>
		<path fill="#063551" d="M6.826,23.068l-0.245,0.116c-0.067-0.206-0.206-0.319-0.428-0.319c-0.322,0-0.515,0.229-0.515,0.612
			s0.193,0.611,0.515,0.611c0.251,0,0.403-0.119,0.451-0.331l0.238,0.083c-0.109,0.297-0.341,0.474-0.683,0.474
			c-0.486,0-0.779-0.315-0.779-0.837s0.293-0.837,0.779-0.837C6.491,22.641,6.706,22.805,6.826,23.068z"/>
		<path fill="#063551" d="M8.757,23.478c0,0.521-0.293,0.837-0.779,0.837S7.199,24,7.199,23.478s0.293-0.837,0.779-0.837
			S8.757,22.956,8.757,23.478z M7.456,23.478c0,0.383,0.197,0.614,0.521,0.614c0.325,0,0.522-0.231,0.522-0.614
			c0-0.384-0.197-0.615-0.522-0.615C7.653,22.862,7.456,23.094,7.456,23.478z"/>
		<path fill="#063551" d="M11.744,23.252v1.03h-0.258v-1.005c0-0.293-0.167-0.412-0.38-0.412c-0.251,0-0.477,0.19-0.477,0.535v0.882
			h-0.257v-1.005c0-0.293-0.167-0.412-0.38-0.412s-0.477,0.158-0.477,0.558v0.859H9.258v-1.609h0.226L9.5,22.924
			c0.116-0.196,0.315-0.283,0.515-0.283c0.225,0,0.447,0.1,0.554,0.315c0.1-0.22,0.357-0.315,0.56-0.315
			C11.438,22.641,11.744,22.827,11.744,23.252z"/>
		<path fill="#063551" d="M14.816,23.252v1.03h-0.258v-1.005c0-0.293-0.167-0.412-0.38-0.412c-0.251,0-0.477,0.19-0.477,0.535v0.882
			h-0.257v-1.005c0-0.293-0.167-0.412-0.38-0.412s-0.477,0.158-0.477,0.558v0.859H12.33v-1.609h0.226l0.016,0.251
			c0.116-0.196,0.315-0.283,0.515-0.283c0.225,0,0.447,0.1,0.554,0.315c0.1-0.22,0.357-0.315,0.56-0.315
			C14.51,22.641,14.816,22.827,14.816,23.252z"/>
		<path fill="#063551" d="M16.796,22.673v1.609H16.57l-0.016-0.245c-0.112,0.193-0.319,0.277-0.576,0.277
			c-0.319,0-0.593-0.164-0.593-0.589v-1.053h0.258v0.984c0,0.332,0.148,0.432,0.38,0.432c0.273,0,0.515-0.161,0.515-0.541v-0.875
			h0.258V22.673z"/>
		<path fill="#063551" d="M18.809,23.252v1.03h-0.258v-0.94c0-0.357-0.174-0.477-0.396-0.477c-0.234,0-0.499,0.148-0.499,0.561
			v0.856h-0.257v-1.609h0.225l0.017,0.251c0.112-0.203,0.318-0.283,0.541-0.283C18.525,22.641,18.809,22.837,18.809,23.252z"/>
		<path fill="#063551" d="M19.329,22.17c0-0.115,0.077-0.193,0.192-0.193c0.116,0,0.193,0.078,0.193,0.193
			c0,0.116-0.077,0.193-0.193,0.193C19.406,22.363,19.329,22.286,19.329,22.17z M19.65,24.282h-0.257v-1.609h0.257V24.282z"/>
		<path fill="#063551" d="M21.235,24.17c-0.1,0.09-0.238,0.145-0.415,0.145c-0.238,0-0.444-0.119-0.447-0.432v-0.988h-0.322v-0.222
			h0.322v-0.387l0.258-0.071v0.458h0.596v0.222h-0.596v0.943c0,0.158,0.1,0.235,0.241,0.235c0.116,0,0.199-0.045,0.273-0.119
			L21.235,24.17z"/>
		<path fill="#063551" d="M22.213,24.553c-0.126,0.315-0.271,0.422-0.509,0.422c-0.161,0-0.264-0.039-0.354-0.136l0.091-0.219
			c0.074,0.104,0.17,0.129,0.261,0.129c0.112,0,0.212-0.048,0.293-0.261l0.084-0.209l-0.673-1.606h0.293l0.402,1.049l0.1,0.287
			l0.116-0.319l0.376-1.017h0.277L22.213,24.553z"/>
	</g>
</g>
</svg>
