<svg id="Layer_1" data-name="Layer 1" xmlns="http://www.w3.org/2000/svg" viewBox="0 0 28.35 28.35"><title>Extra</title><path d="M13.29,4.85C9.78,5.12,7.13,7,7.13,9.35a3.35,3.35,0,0,0,.79,2.1l.1.13a10.56,10.56,0,0,0,1.72,5.86,7.53,7.53,0,0,0,.84,1,5.23,5.23,0,0,0,2.58,1.48,1.14,1.14,0,0,0,1,1.1,1.15,1.15,0,0,0,1-1.11c2.89-.67,5.11-4.14,5.14-8.33l.1-.13a3.35,3.35,0,0,0,.79-2.1A3.51,3.51,0,0,0,20.1,6.87a8.26,8.26,0,0,0-5.4-2,3.06,3.06,0,0,1,.4-2.21.7.7,0,0,0-.23-1,.71.71,0,0,0-1,.22,4.47,4.47,0,0,0-.62,3ZM9.42,11.49V11.4a15,15,0,0,1,4.76-.74,15.23,15.23,0,0,1,4.75.73v.1c0,3.94-2.13,7.15-4.75,7.15a4.1,4.1,0,0,1-3.29-2,9.08,9.08,0,0,1-1.47-5.15ZM8.53,9.35c0-1.7,2.59-3.14,5.64-3.14a7.24,7.24,0,0,1,4.94,1.65,2.18,2.18,0,0,1,.71,1.49,1.79,1.79,0,0,1-.2.8,16.31,16.31,0,0,0-5.45-.88,16.29,16.29,0,0,0-5.44.88,1.79,1.79,0,0,1-.2-.8Zm0,0" style="fill:none;stroke:#043551;stroke-miterlimit:10;stroke-width:0.6232807636260986px;fill-rule:evenodd"/><polygon points="15.76 5.75 10.92 13.33 13.87 13.33 12.39 18.81 17.87 11.23 14.92 11.23 15.76 5.75" style="fill:#fff;stroke:#043551;stroke-linecap:round;stroke-linejoin:round;stroke-width:0.6655169371988447px"/><path d="M5,24.41l-.3.14a.53.53,0,0,0-.54-.39c-.4,0-.64.28-.64.76s.24.76.64.76a.52.52,0,0,0,.57-.41l.29.1a.84.84,0,0,1-.85.59,1,1,0,0,1,0-2.08A.83.83,0,0,1,5,24.41Z" style="fill:#043551"/><path d="M7.42,24.92a.92.92,0,0,1-1,1,1,1,0,0,1,0-2.08A.92.92,0,0,1,7.42,24.92Zm-1.62,0c0,.48.24.76.65.76s.65-.28.65-.76-.25-.77-.65-.77S5.8,24.44,5.8,24.92Z" style="fill:#043551"/><path d="M11.14,24.64v1.28h-.32V24.67a.44.44,0,0,0-.47-.51.6.6,0,0,0-.59.66v1.1H9.43V24.67c0-.37-.2-.51-.47-.51a.61.61,0,0,0-.59.69v1.07H8.05v-2h.28l0,.31A.7.7,0,0,1,9,23.88a.74.74,0,0,1,.69.39.75.75,0,0,1,.7-.39A.72.72,0,0,1,11.14,24.64Z" style="fill:#043551"/><path d="M15,24.64v1.28h-.32V24.67a.44.44,0,0,0-.47-.51.61.61,0,0,0-.6.66v1.1h-.32V24.67c0-.37-.2-.51-.47-.51a.61.61,0,0,0-.59.69v1.07h-.32v-2h.28l0,.31a.7.7,0,0,1,.64-.35.74.74,0,0,1,.69.39.74.74,0,0,1,.7-.39A.72.72,0,0,1,15,24.64Z" style="fill:#043551"/><path d="M17.44,23.92v2h-.28l0-.3a.77.77,0,0,1-.72.34.67.67,0,0,1-.74-.73V23.92H16v1.22c0,.42.18.54.47.54a.61.61,0,0,0,.64-.67V23.92Z" style="fill:#043551"/><path d="M20,24.64v1.28h-.32V24.75c0-.45-.22-.59-.49-.59a.61.61,0,0,0-.63.69v1.07h-.32v-2h.28l0,.31a.73.73,0,0,1,.68-.35A.71.71,0,0,1,20,24.64Z" style="fill:#043551"/><path d="M20.6,23.29a.24.24,0,1,1,.24.24A.23.23,0,0,1,20.6,23.29Zm.4,2.63h-.32v-2H21Z" style="fill:#043551"/><path d="M23,25.78a.78.78,0,0,1-.52.18.5.5,0,0,1-.56-.54V24.19h-.4v-.27h.4v-.49l.32-.09v.58H23v.27h-.75v1.18a.27.27,0,0,0,.3.29.42.42,0,0,0,.34-.15Z" style="fill:#043551"/><path d="M24.19,26.26c-.15.39-.33.52-.63.52a.53.53,0,0,1-.44-.16l.11-.28a.37.37,0,0,0,.33.16c.14,0,.26-.06.36-.32l.11-.26-.84-2h.36l.5,1.3.13.36.14-.4.47-1.26h.35Z" style="fill:#043551"/></svg>