<svg id="Layer_1" data-name="Layer 1" xmlns="http://www.w3.org/2000/svg" viewBox="0 0 28.35 28.35"><defs><style>.cls-1{fill:#063551;}</style></defs><title>Artboard 1</title><path class="cls-1" d="M11.36,23H9.87a.63.63,0,0,0,.65.63.54.54,0,0,0,.56-.29l.27.14a.85.85,0,0,1-.83.43.92.92,0,0,1-1-1,.9.9,0,0,1,.94-1,.86.86,0,0,1,.89.93A1.58,1.58,0,0,1,11.36,23ZM9.87,22.7h1.2c0-.37-.25-.59-.58-.59A.6.6,0,0,0,9.87,22.7Z"/><path class="cls-1" d="M13.14,23.85l-.55-.77-.56.77h-.37l.76-1-.71-1h.4l.52.73.52-.73h.37l-.72,1,.73,1Z"/><path class="cls-1" d="M15.24,23.71a.74.74,0,0,1-.51.18.5.5,0,0,1-.55-.53V22.14h-.4v-.27h.4v-.48l.32-.09v.56h.73v.27h-.73v1.16a.27.27,0,0,0,.3.29.45.45,0,0,0,.34-.15Z"/><path class="cls-1" d="M16.84,21.87l-.06.31a.54.54,0,0,0-.25-.05.58.58,0,0,0-.52.65v1.07h-.32v-2h.26l0,.33a.64.64,0,0,1,.63-.37A.5.5,0,0,1,16.84,21.87Z"/><path class="cls-1" d="M19,23.6l0,.25a.73.73,0,0,1-.24,0,.31.31,0,0,1-.36-.29.78.78,0,0,1-.64.29c-.37,0-.67-.17-.67-.53s.26-.53.77-.62l.53-.09v-.11a.42.42,0,0,0-.46-.44.58.58,0,0,0-.57.38l-.23-.17a.81.81,0,0,1,.8-.48c.45,0,.78.21.78.67v1c0,.1,0,.14.15.14Zm-.63-.42v-.27L18,23c-.35.06-.53.18-.53.37s.13.25.36.25S18.41,23.45,18.41,23.19Z"/><path class="cls-1" d="M18.58,7.42a6.72,6.72,0,0,0-4.31-1.69,2.25,2.25,0,0,1,.32-1.47.77.77,0,0,0-1.3-.81,3.77,3.77,0,0,0-.55,2.3C9.88,6,7.82,7.62,7.82,9.55a2.92,2.92,0,0,0,.67,1.81l0,0A8.58,8.58,0,0,0,10,16.17a5.91,5.91,0,0,0,.69.83,4.61,4.61,0,0,0,1.47,1l-.08.29a.32.32,0,0,0,.17.37.32.32,0,0,0,.14,0,.32.32,0,0,0,.26-.13l.14-.2a1,1,0,0,0,.94.77,1.09,1.09,0,0,0,1-.93c2.37-.64,4.1-3.46,4.15-6.78l0-.05a2.91,2.91,0,0,0,.67-1.81A3,3,0,0,0,18.58,7.42Zm-4.9,1.86a13.3,13.3,0,0,0-4.26.66,1.16,1.16,0,0,1-.07-.39A2,2,0,0,1,10.59,8a6.56,6.56,0,0,1,3.09-.72h0A5.59,5.59,0,0,1,17.5,8.5,1.54,1.54,0,0,1,18,9.55a1.16,1.16,0,0,1-.07.39,12.49,12.49,0,0,0-2.83-.58l.17-1.11A.32.32,0,0,0,14.7,8l-.8,1.25Zm3.2,3a.32.32,0,0,0-.28-.17H14.68l.2-1.27a11.19,11.19,0,0,1,2.43.46c0,2.93-1.54,5.31-3.43,5.45l3-4.14A.32.32,0,0,0,16.88,12.33ZM14.42,9.65,14,12.42a.32.32,0,0,0,.31.37H16l-2.88,4,.7-2.59a.32.32,0,0,0-.31-.4H11.77Zm-3.49,4.29a.32.32,0,0,0,.27.49h1.88l-.55,2.06a3.68,3.68,0,0,1-1.31-1.19,7,7,0,0,1-1.15-3.95,11.29,11.29,0,0,1,2.84-.49Zm7.62-2.83-.13.16v.07c0,3.24-1.69,6-4,6.5l-.14,0,0,.14a.72.72,0,0,1-.61.71h0a.72.72,0,0,1-.61-.7v-.1l.52-.72h.11c2.22,0,4-2.67,4-5.95v-.22l-.14,0a11.45,11.45,0,0,0-2.63-.52l.11-.7a11.71,11.71,0,0,1,2.94.61l.17.06.08-.16a1.61,1.61,0,0,0,.18-.74,1.94,1.94,0,0,0-.63-1.34,6,6,0,0,0-4.11-1.39h0a6.87,6.87,0,0,0-3.28.77A2.37,2.37,0,0,0,8.94,9.55a1.61,1.61,0,0,0,.19.74l.08.16.17-.06a12.88,12.88,0,0,1,4.24-.66l-.44.7A11.82,11.82,0,0,0,9.79,11l-.13,0v.22a7.47,7.47,0,0,0,1.22,4.25,4,4,0,0,0,1.54,1.36l-.19.7a4.2,4.2,0,0,1-1.29-.87,5.55,5.55,0,0,1-.65-.78,8.19,8.19,0,0,1-1.35-4.59v-.07l-.13-.16a2.52,2.52,0,0,1-.59-1.56c0-1.76,2-3.2,4.76-3.41l.21,0,0-.21a3.36,3.36,0,0,1,.47-2.24.36.36,0,0,1,.61.38A2.64,2.64,0,0,0,13.9,6l0,.16h.16A6.41,6.41,0,0,1,18.3,7.7a2.61,2.61,0,0,1,.84,1.85A2.52,2.52,0,0,1,18.55,11.11Z"/></svg>