<?xml version="1.0" encoding="utf-8"?>
<!-- Generator: Adobe Illustrator 21.0.0, SVG Export Plug-In . SVG Version: 6.00 Build 0)  -->
<svg version="1.1" id="Layer_1" xmlns="http://www.w3.org/2000/svg" xmlns:xlink="http://www.w3.org/1999/xlink" x="0px" y="0px"
	 viewBox="0 0 150 150" style="enable-background:new 0 0 150 150;" xml:space="preserve">
<style type="text/css">
	.st0{fill:#063551;}
</style>
<title>Artboard 1</title>
<path class="st0" d="M59.3,136.2h-9.7c0,2.3,1.8,4.1,4.1,4.1c0,0,0.1,0,0.1,0c1.5,0.2,3-0.5,3.7-1.9l1.8,0.9c-1.1,1.9-3.2,3-5.4,2.8
	c-3.3,0.3-6.2-2.1-6.5-5.4c0-0.4,0-0.7,0-1.1c-0.4-3.2,2-6.1,5.2-6.5c0.3,0,0.6,0,1,0c3.1-0.1,5.7,2.3,5.8,5.4c0,0.2,0,0.5,0,0.7
	C59.3,135.5,59.3,135.9,59.3,136.2z M49.6,134.2h7.8c0-2.4-1.6-3.9-3.8-3.9C51.5,130.3,49.7,132,49.6,134.2
	C49.6,134.2,49.6,134.2,49.6,134.2z"/>
<path class="st0" d="M70.9,141.8l-3.6-5l-3.7,5h-2.4l5-6.5l-4.6-6.5h2.6l3.4,4.8l3.4-4.8h2.4l-4.7,6.5l4.8,6.5H70.9z"/>
<path class="st0" d="M84.7,140.8c-0.9,0.8-2.1,1.2-3.3,1.2c-1.8,0.2-3.4-1.1-3.6-2.9c0-0.2,0-0.4,0-0.5v-8h-2.6v-1.8h2.6v-3.1
	l2.1-0.6v3.7h4.8v1.8h-4.8v7.6c-0.1,1,0.6,1.8,1.6,1.9c0.1,0,0.2,0,0.3,0c0.8,0,1.7-0.3,2.2-1L84.7,140.8z"/>
<path class="st0" d="M95.1,128.8l-0.4,2c-0.5-0.2-1.1-0.3-1.6-0.3c-2.1,0.2-3.6,2.1-3.4,4.1c0,0,0,0.1,0,0.1v7h-2.1v-13.1h1.7v2.2
	c0.7-1.6,2.4-2.6,4.1-2.4C94,128.4,94.6,128.5,95.1,128.8z"/>
<path class="st0" d="M109.2,140.1v1.6c-0.5,0.1-1,0.1-1.6,0c-1.1,0.2-2.1-0.6-2.3-1.7c0-0.1,0-0.2,0-0.2c-1,1.3-2.6,2-4.2,1.9
	c-2.4,0-4.4-1.1-4.4-3.5c0-2.4,1.7-3.5,5-4.1l3.5-0.6v-0.7c0.1-1.5-1.1-2.8-2.6-2.9c-0.1,0-0.3,0-0.4,0c-1.6-0.1-3.2,0.9-3.7,2.5
	l-1.5-1.1c0.9-2,3-3.3,5.2-3.1c2.9,0,5.1,1.4,5.1,4.4v6.5c0,0.7,0,0.9,1,0.9L109.2,140.1z M105.1,137.4v-1.8l-2.4,0.6
	c-2.3,0.4-3.5,1.2-3.5,2.4c0,1.2,0.8,1.6,2.4,1.6c1.5,0,3.8-1.1,3.8-2.8L105.1,137.4z"/>
<path class="st0" d="M106.5,34.4c-7.8-6.9-17.8-10.8-28.2-11c-0.4-3.3,0.3-6.7,2.1-9.6c1.2-2.5,0.2-5.5-2.3-6.7
	c-2.1-1-4.7-0.4-6.2,1.4c-2.8,4.5-4,9.8-3.6,15c-18.7,1.6-32.1,12.2-32.1,24.8c0.1,4.3,1.6,8.5,4.4,11.8l0,0
	c0.1,11.2,3.5,22.2,9.9,31.4c1.3,1.9,2.8,3.8,4.5,5.4c2.7,2.8,6,5,9.6,6.5l-0.5,1.9c-0.3,1,0.2,2,1.1,2.4c0.3,0.1,0.6,0.1,0.9,0
	c0.7,0,1.3-0.3,1.7-0.8l0.9-1.3c0.7,2.9,3.2,4.9,6.1,5c3.3-0.2,6.1-2.8,6.5-6.1c15.5-4.2,26.8-22.6,27.1-44.3V60
	c2.8-3.3,4.3-7.5,4.4-11.8C112.7,42.9,110.4,38,106.5,34.4z M74.5,46.6c-9.5-0.1-18.9,1.4-27.8,4.3c-0.3-0.8-0.5-1.7-0.5-2.5
	c0.7-4.6,3.8-8.4,8.1-10.1c6.2-3.2,13.2-4.8,20.2-4.7l0,0c9-0.5,17.9,2.3,25,8c1.9,1.8,3.1,4.2,3.3,6.9c0,0.9-0.2,1.7-0.5,2.5
	c-6-2-12.2-3.2-18.5-3.8l1.1-7.3c0.2-1.1-0.6-2.2-1.7-2.4c-0.8-0.1-1.6,0.2-2,0.8l-5.2,8.2L74.5,46.6z M95.4,66.2
	c-0.4-0.7-1.1-1.1-1.8-1.1H81l1.3-8.3c5.4,0.4,10.7,1.4,15.9,3c0,19.1-10.1,34.7-22.4,35.6l19.6-27c0.3-0.6,0.3-1.3,0-1.8L95.4,66.2
	z M79.3,49l-2.7,18.1c-0.2,1.1,0.6,2.2,1.7,2.4c0.1,0,0.2,0,0.3,0h11L70.8,95.6l4.6-16.9c0.3-1.1-0.4-2.3-1.5-2.5
	c-0.2,0-0.3-0.1-0.5-0.1H62L79.3,49z M56.5,77c-0.6,1-0.3,2.3,0.7,2.9c0.3,0.2,0.7,0.3,1.1,0.3h12.3L67,93.7
	c-3.4-1.9-6.4-4.5-8.6-7.8c-5-7.7-7.7-16.6-7.5-25.8c6-1.9,12.3-2.9,18.6-3.2L56.5,77z M106.3,58.5l-0.8,1V60
	c0,21.2-11,39.2-26.1,42.5h-0.9v0.9c0,2.3-1.7,4.3-4,4.6l0,0c-2.3-0.3-3.9-2.3-4-4.6v-0.7l3.4-4.7h0.7c14.5,0,26.1-17.4,26.1-38.9
	v-1.4h-0.9c-5.6-1.8-11.3-2.9-17.2-3.4l0.7-4.6c6.5,0.5,13,1.8,19.2,4l1.1,0.4l0.5-1c0.8-1.5,1.2-3.2,1.2-4.8
	c-0.2-3.3-1.6-6.5-4.1-8.8c-7.5-6.3-17.1-9.5-26.9-9.1l0,0c-7.5-0.1-14.8,1.6-21.4,5c-5.3,2.2-8.9,7.1-9.4,12.8
	c0,1.7,0.4,3.3,1.2,4.8l0.5,1l1.1-0.4c8.9-3,18.3-4.4,27.7-4.3l-2.9,4.6c-7.5,0.2-15,1.4-22.1,3.7h-0.8v1.4
	c-0.2,9.8,2.6,19.5,8,27.8c2.5,3.8,6,6.9,10.1,8.9l-1.2,4.6c-3.1-1.4-6-3.3-8.4-5.7c-1.6-1.6-3-3.3-4.2-5.1
	c-5.9-8.9-8.9-19.3-8.8-30v-0.5l-0.8-1c-2.4-2.9-3.8-6.5-3.9-10.2c0-11.5,13.1-20.9,31.1-22.3h1.4v-1.4c-0.7-5.1,0.4-10.3,3.1-14.6
	c0.8-1.1,2.2-1.3,3.3-0.6c1,0.7,1.3,2,0.7,3c-2.5,3.8-3.4,8.5-2.4,12.9v1h1c10.1-0.1,20,3.5,27.7,10.1c3.4,3.1,5.4,7.5,5.5,12.1
	C110.1,52.1,108.7,55.7,106.3,58.5z"/>
</svg>
