<?xml version="1.0" encoding="utf-8"?>
<!-- Generator: Adobe Illustrator 21.0.0, SVG Export Plug-In . SVG Version: 6.00 Build 0)  -->
<svg version="1.1" id="Layer_1" xmlns="http://www.w3.org/2000/svg" xmlns:xlink="http://www.w3.org/1999/xlink" x="0px" y="0px"
	 viewBox="0 0 150 150" style="enable-background:new 0 0 150 150;" xml:space="preserve">
<style type="text/css">
	.st0{fill:#063551;}
</style>
<g>
	<g>
		<path class="st0" d="M20.5,127.9v1.8h4v1.6h-4v10.2h-1.9v-10.2h-2.4v-1.6h2.4v-2c0-2.1,1.3-3.6,3.9-3.6c0.8,0,1.6,0.2,2,0.5
			l-0.5,1.6c-0.4-0.2-0.8-0.4-1.4-0.4C21.3,125.8,20.5,126.4,20.5,127.9z M29.4,126c0,0.9-0.6,1.4-1.4,1.4c-0.9,0-1.4-0.6-1.4-1.4
			c0-0.9,0.6-1.4,1.4-1.4C28.8,124.5,29.4,125.1,29.4,126z M27,129.7h1.9v11.9H27V129.7z"/>
		<path class="st0" d="M43.8,134v7.6h-1.9v-6.9c0-2.6-1.3-3.5-2.9-3.5c-1.7,0-3.7,1.1-3.7,4.1v6.3h-1.9v-11.9H35l0.1,1.9
			c0.8-1.5,2.4-2.1,4-2.1C41.7,129.4,43.8,130.9,43.8,134z"/>
		<path class="st0" d="M58.7,140.1l-0.1,1.5c-0.3,0.1-0.8,0.2-1.4,0.2c-1.2,0-1.9-0.4-2.1-1.8c-0.8,1.1-2.3,1.8-3.8,1.8
			c-2.2,0-4-1-4-3.2c0-1.8,1.6-3.2,4.6-3.7l3.2-0.5v-0.7c0-1.6-1-2.6-2.8-2.6c-1.6,0-2.8,0.8-3.4,2.3l-1.4-1
			c0.6-1.8,2.5-2.9,4.8-2.9c2.7,0,4.7,1.3,4.7,4v5.9c0,0.6,0.2,0.9,0.9,0.9C58.1,140.2,58.5,140.1,58.7,140.1z M55,137.6v-1.6
			l-2.7,0.5c-2.1,0.4-3.2,1.1-3.2,2.2c0,1,0.8,1.5,2.2,1.5C53.2,140.1,55,139.1,55,137.6z"/>
		<path class="st0" d="M63.3,138.4c0,1.2,0.3,1.6,1.3,1.6c0.6,0,1-0.1,1.7-0.3l-0.3,1.8c-0.5,0.2-1.1,0.3-1.8,0.3
			c-1.9,0-2.9-1-2.9-3.2v-14.4h1.9L63.3,138.4L63.3,138.4z"/>
		<path class="st0" d="M86.1,136.3h-9c0.2,2.4,1.7,3.8,3.9,3.8c1.7,0,2.9-0.6,3.4-1.8l1.6,0.8c-0.9,1.6-2.4,2.6-4.9,2.6
			c-3.6,0-5.7-2.3-5.7-6.2c0-3.8,2-6.2,5.6-6.2c3.4,0,5.3,2.5,5.3,5.6C86.2,135.6,86.2,136,86.1,136.3z M77.2,134.6h7.2
			c-0.3-2.2-1.5-3.5-3.5-3.5C78.8,131.1,77.5,132.4,77.2,134.6z"/>
		<path class="st0" d="M96.7,141.6l-3.3-4.6l-3.4,4.6h-2.2l4.6-6l-4.3-5.9h2.4l3.1,4.4l3.1-4.4H99l-4.3,5.8l4.4,6.1
			C99.1,141.6,96.7,141.6,96.7,141.6z"/>
		<path class="st0" d="M112.5,140.1l-0.1,1.5c-0.3,0.1-0.8,0.2-1.4,0.2c-1.2,0-1.9-0.4-2.1-1.8c-0.8,1.1-2.3,1.8-3.8,1.8
			c-2.2,0-4-1-4-3.2c0-1.8,1.6-3.2,4.6-3.7l3.2-0.5v-0.7c0-1.6-1-2.6-2.8-2.6c-1.6,0-2.8,0.8-3.4,2.3l-1.4-1
			c0.6-1.8,2.5-2.9,4.8-2.9c2.7,0,4.7,1.3,4.7,4v5.9c0,0.6,0.2,0.9,0.9,0.9C111.8,140.2,112.2,140.1,112.5,140.1z M108.7,137.6v-1.6
			l-2.7,0.5c-2.1,0.4-3.2,1.1-3.2,2.2c0,1,0.8,1.5,2.2,1.5C107,140.1,108.7,139.1,108.7,137.6z"/>
		<path class="st0" d="M133.6,134v7.6h-1.9v-7.4c0-2.2-1.2-3-2.8-3c-1.9,0-3.5,1.4-3.5,3.9v6.5h-1.9v-7.4c0-2.2-1.2-3-2.8-3
			c-1.6,0-3.5,1.2-3.5,4.1v6.3h-1.9v-11.9h1.7l0.1,1.9c0.9-1.4,2.3-2.1,3.8-2.1c1.7,0,3.3,0.7,4.1,2.3c0.7-1.6,2.6-2.3,4.1-2.3
			C131.3,129.4,133.6,130.8,133.6,134z"/>
	</g>
	<path class="st0" d="M75.6,116.7v-2.2c29.2,0,52.8-23.6,52.8-52.8c0-29.2-23.6-52.8-52.8-52.8V6.7c30.4,0,55,24.6,55,55
		S106,116.7,75.6,116.7z"/>
	<path class="st0" d="M75.6,116.7c-30.4,0-55-24.7-55-55.1c0-11.4,3.6-22.5,10.2-31.9l9.9-9.9l1.6,1.6l-9.6,9.8
		C15.8,55,21.4,87.9,45.2,104.8c8.9,6.3,19.6,9.7,30.6,9.7v2.3L75.6,116.7z"/>
	<polygon class="st0" points="43.6,39.1 41.4,39.1 41.4,21.1 23.4,21.1 23.4,18.9 43.6,18.9 	"/>
	<path class="st0" d="M75.6,102.8c-2.8-0.2-5-2.3-5.4-5.1c-4.3-1.2-8.2-3.5-11.3-6.7c-1.4-1.4-2.7-3-3.8-4.6
		c-5.1-7.8-7.9-16.9-7.8-26.2l0,0c-2.5-2.8-3.9-6.5-4-10.2c0-10.7,11.4-19.3,27.2-21c-0.3-4.4,0.7-8.8,3.1-12.6
		c1.2-2,3.8-2.6,5.8-1.4c0,0,0.1,0.1,0.1,0.1c2,1.2,2.6,3.8,1.4,5.8c0,0-0.1,0.1-0.1,0.1c-1.5,2.4-2.1,5.3-1.7,8.1
		c8.8,0.1,17.3,3.4,23.9,9.3c3.3,3.1,5.2,7.4,5.3,12c-0.2,3.5-1.5,6.9-3.8,9.5l0,0c0,18.4-9.8,33.9-22.9,37.5
		c-0.4,2.8-2.7,4.9-5.5,5.1L75.6,102.8z M77.1,16.4c-0.7,0-1.3,0.4-1.7,1c-2.3,3.7-3.2,8.1-2.6,12.4V31h-1.2
		c-15.1,1.3-26.1,9.4-26.1,19c0.1,3.1,1.3,6,3.2,8.4l0.7,0.9v0.4c-0.1,9,2.5,17.8,7.4,25.3c1.1,1.5,2.3,3,3.6,4.3
		c3,3,6.8,5.1,10.9,6h0.8V96c0,1.9,1.4,3.6,3.4,3.9l0,0c1.9-0.3,3.3-1.9,3.4-3.9v-0.8h0.8c12.6-2.9,21.8-18,21.9-35.9v-0.4l0.7-0.9
		c2-2.4,3.2-5.5,3.2-8.6c-0.1-3.9-1.8-7.5-4.6-10.2c-6.4-5.6-14.7-8.7-23.2-8.7h-0.9v-0.8c-0.7-3.6-0.1-7.4,1.9-10.6
		c0.6-0.9,0.3-2.1-0.6-2.7C77.8,16.3,77.4,16.3,77.1,16.4z M75.7,92.1c-6.4-0.3-12.2-3.8-15.5-9.2c-4.5-7-6.9-15.1-6.7-23.5
		c0,0,0-0.4,0-0.5v-0.6h0.7c6.9-2.3,14.2-3.4,21.4-3.3c7.3-0.1,14.5,1,21.4,3.3h0.8v1.2c0.1,18-9.9,32.7-22.1,32.7V92.1z M55.7,59.7
		C55.6,67.4,57.8,75,62,81.5c2.9,4.9,8,8,13.6,8.4c10.9,0,19.8-13.5,20-29.9c-6.5-2-13.2-3-20-2.9c-6.8-0.1-13.5,0.8-20,2.8V59.7z
		 M100.3,54.8l-1-0.4c-15.4-4.9-32-4.9-47.5,0l-1,0.4L50.6,54c-0.7-1.3-1-2.7-1-4.1c0.5-4.8,3.6-8.9,8-10.8c5.5-2.9,11.7-4.3,18-4.3
		l0,0c8.3-0.4,16.5,2.3,22.9,7.6c2.1,1.9,3.3,4.5,3.5,7.4c0,1.4-0.4,2.8-1,4.1L100.3,54.8z M75.6,48.4c8-0.1,15.9,1.2,23.5,3.7
		c0.3-0.7,0.4-1.4,0.4-2.2c-0.1-2.3-1.1-4.4-2.8-6c-5.9-4.9-13.4-7.4-21.1-7l0,0c-5.9-0.1-11.7,1.3-17,4c-3.8,1.5-6.5,5-6.9,9
		c0,0.7,0.1,1.5,0.4,2.2C59.7,49.6,67.6,48.4,75.6,48.4z"/>
</g>
</svg>
