<?xml version="1.0" encoding="utf-8"?>
<!-- Generator: Adobe Illustrator 21.0.0, SVG Export Plug-In . SVG Version: 6.00 Build 0)  -->
<svg version="1.1" baseProfile="tiny" id="Layer_1" xmlns="http://www.w3.org/2000/svg" xmlns:xlink="http://www.w3.org/1999/xlink"
	 x="0px" y="0px" viewBox="0 0 28.35 28.35" overflow="scroll" xml:space="preserve">
<g>
	<g>
		<path fill="#063551" d="M5.485,23.296c0,0.19,0.048,0.25,0.201,0.25c0.101,0,0.164-0.012,0.272-0.053L5.909,23.78
			c-0.078,0.033-0.179,0.052-0.275,0.052c-0.302,0-0.447-0.16-0.447-0.499v-2.256h0.298C5.485,21.077,5.485,23.296,5.485,23.296z"/>
		<path fill="#063551" d="M8.017,23.561l-0.019,0.234c-0.052,0.019-0.13,0.037-0.223,0.037c-0.183,0-0.302-0.066-0.335-0.275
			c-0.119,0.175-0.361,0.275-0.6,0.275c-0.35,0-0.633-0.164-0.633-0.499c0-0.279,0.246-0.499,0.726-0.581l0.496-0.081v-0.104
			c0-0.246-0.157-0.41-0.436-0.41c-0.246,0-0.432,0.119-0.532,0.354l-0.22-0.16c0.097-0.275,0.391-0.454,0.752-0.454
			c0.425,0,0.734,0.201,0.734,0.633v0.916c0,0.089,0.037,0.134,0.141,0.134C7.917,23.579,7.973,23.571,8.017,23.561z M7.429,23.17
			v-0.258L7.012,22.99c-0.328,0.061-0.496,0.168-0.496,0.343c0,0.156,0.127,0.238,0.339,0.238
			C7.153,23.571,7.429,23.415,7.429,23.17z"/>
		<path fill="#063551" d="M10.215,22.864c0,0.606-0.331,0.968-0.849,0.968c-0.294,0-0.529-0.148-0.637-0.361L8.71,23.795H8.451
			v-2.718h0.298v1.146c0.116-0.193,0.339-0.327,0.618-0.327C9.884,21.896,10.215,22.257,10.215,22.864z M9.917,22.864
			c0-0.432-0.219-0.708-0.584-0.708c-0.354,0-0.584,0.265-0.584,0.686v0.045c0,0.421,0.231,0.685,0.584,0.685
			C9.698,23.571,9.917,23.296,9.917,22.864z"/>
		<path fill="#063551" d="M12.484,22.864c0,0.603-0.339,0.968-0.901,0.968s-0.901-0.365-0.901-0.968
			c0-0.604,0.339-0.968,0.901-0.968S12.484,22.261,12.484,22.864z M10.98,22.864c0,0.443,0.227,0.711,0.603,0.711
			s0.603-0.268,0.603-0.711s-0.227-0.711-0.603-0.711S10.98,22.421,10.98,22.864z"/>
		<path fill="#063551" d="M14.146,21.934l-0.06,0.29c-0.056-0.029-0.138-0.048-0.234-0.048c-0.224,0-0.492,0.197-0.492,0.614v1.005
			h-0.298v-1.861h0.242l0.041,0.305c0.104-0.227,0.305-0.342,0.596-0.342C14.005,21.896,14.091,21.903,14.146,21.934z"/>
		<path fill="#063551" d="M16.206,23.561l-0.019,0.234c-0.052,0.019-0.13,0.037-0.224,0.037c-0.182,0-0.301-0.066-0.335-0.275
			c-0.119,0.175-0.361,0.275-0.6,0.275c-0.35,0-0.632-0.164-0.632-0.499c0-0.279,0.246-0.499,0.726-0.581l0.495-0.081v-0.104
			c0-0.246-0.156-0.41-0.436-0.41c-0.246,0-0.432,0.119-0.533,0.354l-0.22-0.16c0.097-0.275,0.391-0.454,0.752-0.454
			c0.424,0,0.733,0.201,0.733,0.633v0.916c0,0.089,0.037,0.134,0.142,0.134C16.105,23.579,16.161,23.571,16.206,23.561z
			 M15.618,23.17v-0.258l-0.417,0.078c-0.328,0.061-0.495,0.168-0.495,0.343c0,0.156,0.126,0.238,0.339,0.238
			C15.343,23.571,15.618,23.415,15.618,23.17z"/>
		<path fill="#063551" d="M17.704,23.665c-0.115,0.104-0.275,0.167-0.48,0.167c-0.275,0-0.514-0.138-0.518-0.499V22.19h-0.372
			v-0.257h0.372v-0.447l0.298-0.082v0.529h0.689v0.257h-0.689v1.091c0,0.183,0.116,0.271,0.279,0.271
			c0.135,0,0.231-0.052,0.316-0.138L17.704,23.665z"/>
		<path fill="#063551" d="M19.813,22.864c0,0.603-0.339,0.968-0.901,0.968s-0.901-0.365-0.901-0.968
			c0-0.604,0.339-0.968,0.901-0.968S19.813,22.261,19.813,22.864z M18.308,22.864c0,0.443,0.228,0.711,0.604,0.711
			s0.604-0.268,0.604-0.711s-0.228-0.711-0.604-0.711S18.308,22.421,18.308,22.864z"/>
		<path fill="#063551" d="M21.475,21.934l-0.06,0.29c-0.056-0.029-0.138-0.048-0.234-0.048c-0.224,0-0.491,0.197-0.491,0.614v1.005
			h-0.298v-1.861h0.241l0.041,0.305c0.104-0.227,0.306-0.342,0.596-0.342C21.333,21.896,21.419,21.903,21.475,21.934z"/>
		<path fill="#063551" d="M22.618,24.107c-0.146,0.365-0.313,0.488-0.588,0.488c-0.187,0-0.306-0.045-0.41-0.156l0.104-0.254
			c0.086,0.119,0.197,0.149,0.302,0.149c0.13,0,0.245-0.056,0.339-0.302l0.097-0.242l-0.778-1.857h0.339l0.466,1.214l0.115,0.331
			l0.134-0.369l0.436-1.176h0.32L22.618,24.107z"/>
	</g>
	<g>
		<path fill="#063551" d="M13.677,19.131c-0.473,0-0.873-0.378-0.992-0.918c-0.745-0.193-1.431-0.601-2.042-1.212
			c-0.247-0.245-0.479-0.526-0.692-0.834c-0.89-1.278-1.393-2.963-1.418-4.75l-0.041-0.05c-0.441-0.556-0.675-1.182-0.675-1.813
			c0-1.934,2.06-3.51,4.928-3.798c-0.066-0.813,0.126-1.622,0.549-2.299c0.225-0.357,0.697-0.469,1.055-0.244
			c0.357,0.221,0.467,0.694,0.245,1.054c-0.27,0.431-0.383,0.957-0.319,1.467c1.784,0.114,3.347,0.724,4.308,1.685
			c0.627,0.627,0.957,1.365,0.957,2.135c-0.001,0.631-0.233,1.257-0.674,1.811l-0.043,0.054c-0.049,3.328-1.778,6.146-4.151,6.784
			C14.557,18.741,14.149,19.131,13.677,19.131C13.679,19.131,13.678,19.131,13.677,19.131z M13.945,3.503
			c-0.12,0-0.237,0.06-0.306,0.169c-0.41,0.656-0.576,1.452-0.467,2.24l0.029,0.214l-0.215,0.017
			c-2.759,0.213-4.762,1.648-4.762,3.41c0,0.537,0.203,1.076,0.585,1.558l0.129,0.16v0.071c0.012,1.732,0.491,3.364,1.347,4.593
			c0.199,0.288,0.416,0.549,0.645,0.777c0.592,0.592,1.257,0.974,1.977,1.136l0.14,0.031l0.018,0.143
			c0.049,0.4,0.312,0.702,0.612,0.702c0,0,0,0,0.001,0c0.305,0,0.568-0.305,0.613-0.709l0.016-0.144l0.141-0.032
			c2.276-0.528,3.946-3.26,3.97-6.496v-0.071l0.132-0.163c0.381-0.48,0.584-1.019,0.585-1.557c0-0.66-0.29-1.298-0.838-1.847
			c-0.92-0.92-2.453-1.494-4.205-1.576l-0.16-0.007l-0.031-0.156C13.77,5.3,13.893,4.619,14.249,4.051
			c0.104-0.168,0.052-0.39-0.115-0.494C14.076,3.521,14.01,3.503,13.945,3.503z M13.681,17.219c-1.051,0-2.048-0.601-2.807-1.692
			c-0.788-1.132-1.221-2.642-1.219-4.252l0.007-0.223l0.131-0.045c1.135-0.391,2.479-0.598,3.888-0.599
			c1.404,0.001,2.748,0.208,3.886,0.597l0.138,0.047l0.001,0.222C17.705,14.552,15.9,17.219,13.681,17.219z M10.062,11.345
			c0.011,1.501,0.417,2.901,1.146,3.949c0.681,0.979,1.56,1.519,2.473,1.519c1.979,0,3.593-2.447,3.617-5.469
			c-1.066-0.345-2.314-0.528-3.617-0.529C12.373,10.815,11.125,10.998,10.062,11.345z M18.15,10.452l-0.17-0.062
			c-2.464-0.901-6.139-0.899-8.602-0.001l-0.169,0.062l-0.082-0.16C9.003,10.048,8.941,9.8,8.941,9.552
			c0-0.737,0.515-1.43,1.451-1.949c0.896-0.498,2.063-0.772,3.283-0.772c0.002,0,0.003,0,0.005,0c1.682,0,3.257,0.531,4.111,1.385
			c0.286,0.286,0.627,0.75,0.627,1.339c0,0.247-0.062,0.495-0.185,0.736L18.15,10.452z M13.679,9.284
			c1.537,0,3.004,0.228,4.261,0.659c0.046-0.13,0.07-0.26,0.07-0.389c0-0.45-0.276-0.82-0.508-1.051
			c-0.781-0.781-2.246-1.266-3.824-1.266c-0.001,0-0.003,0-0.004,0c-1.136,0-2.261,0.263-3.085,0.721
			C9.8,8.397,9.348,8.978,9.348,9.552c0,0.129,0.024,0.26,0.071,0.391C10.674,9.512,12.142,9.285,13.679,9.284z"/>
	</g>
	<g>
		<g>
			<path fill="#063551" d="M14.251,16.098h-1.136v-0.699l-0.285-0.095l-0.477,0.476l-0.767-0.767l0.477-0.477l-0.096-0.285h-0.699
				v-1.135h0.699l0.096-0.285l-0.477-0.477l0.767-0.767l0.477,0.477l0.285-0.095v-0.7h1.136v0.7l0.285,0.095l0.477-0.477
				l0.767,0.767l-0.477,0.477l0.095,0.285h0.699v1.135h-0.699l-0.095,0.285l0.477,0.477l-0.767,0.767l-0.477-0.476l-0.285,0.095
				C14.251,15.399,14.251,16.098,14.251,16.098z M13.364,15.85h0.638v-0.631l0.601-0.2l0.41,0.409l0.415-0.415l-0.41-0.409
				l0.2-0.602h0.631v-0.637h-0.631l-0.2-0.602l0.41-0.409l-0.415-0.415l-0.41,0.409l-0.601-0.2v-0.63h-0.638v0.63l-0.601,0.2
				l-0.41-0.409l-0.415,0.415l0.41,0.409l-0.2,0.602h-0.63v0.637h0.63l0.2,0.602l-0.41,0.409l0.415,0.415l0.41-0.409l0.601,0.2
				V15.85z"/>
			<path fill="#063551" d="M13.683,14.251c-0.313,0-0.568-0.254-0.568-0.567s0.255-0.568,0.568-0.568s0.568,0.255,0.568,0.568
				S13.996,14.251,13.683,14.251z M13.683,13.365c-0.176,0-0.319,0.143-0.319,0.319s0.143,0.318,0.319,0.318
				s0.319-0.143,0.319-0.318S13.859,13.365,13.683,13.365z"/>
		</g>
	</g>
</g>
</svg>
