<?xml version="1.0" encoding="utf-8"?>
<!-- Generator: Adobe Illustrator 21.0.0, SVG Export Plug-In . SVG Version: 6.00 Build 0)  -->
<svg version="1.1" id="Layer_1" xmlns="http://www.w3.org/2000/svg" xmlns:xlink="http://www.w3.org/1999/xlink" x="0px" y="0px"
	 viewBox="0 0 150 150" style="enable-background:new 0 0 150 150;" xml:space="preserve">
<style type="text/css">
	.st0{fill:#063551;}
</style>
<g>
	<g>
		<path class="st0" d="M16.3,137.4c0,1.3,0.3,1.7,1.3,1.7c0.7,0,1.1-0.1,1.8-0.4l-0.3,1.9c-0.5,0.2-1.2,0.3-1.8,0.3
			c-2,0-3-1.1-3-3.3v-15h2C16.3,122.7,16.3,137.4,16.3,137.4z"/>
		<path class="st0" d="M33.2,139.2l-0.1,1.6c-0.3,0.1-0.9,0.2-1.5,0.2c-1.2,0-2-0.4-2.2-1.8c-0.8,1.2-2.4,1.8-4,1.8
			c-2.3,0-4.2-1.1-4.2-3.3c0-1.9,1.6-3.3,4.8-3.9l3.3-0.5v-0.7c0-1.6-1-2.7-2.9-2.7c-1.6,0-2.9,0.8-3.5,2.4l-1.5-1.1
			c0.6-1.8,2.6-3,5-3c2.8,0,4.9,1.3,4.9,4.2v6.1c0,0.6,0.2,0.9,0.9,0.9C32.5,139.3,32.9,139.3,33.2,139.2z M29.3,136.6v-1.7
			l-2.8,0.5c-2.2,0.4-3.3,1.1-3.3,2.3c0,1,0.8,1.6,2.3,1.6C27.4,139.3,29.3,138.2,29.3,136.6z"/>
		<path class="st0" d="M47.8,134.6c0,4-2.2,6.4-5.6,6.4c-2,0-3.5-1-4.2-2.4l-0.1,2.2H36v-18.1h2v7.6c0.8-1.3,2.3-2.2,4.1-2.2
			C45.6,128.1,47.8,130.5,47.8,134.6z M45.8,134.6c0-2.9-1.5-4.7-3.9-4.7c-2.4,0-3.9,1.8-3.9,4.6v0.3c0,2.8,1.5,4.6,3.9,4.6
			C44.3,139.3,45.8,137.4,45.8,134.6z"/>
		<path class="st0" d="M62.8,134.6c0,4-2.3,6.4-6,6.4c-3.7,0-6-2.4-6-6.4c0-4,2.3-6.4,6-6.4C60.6,128.1,62.8,130.6,62.8,134.6z
			 M52.8,134.6c0,2.9,1.5,4.7,4,4.7s4-1.8,4-4.7s-1.5-4.7-4-4.7S52.8,131.6,52.8,134.6z"/>
		<path class="st0" d="M73.9,128.4l-0.4,1.9c-0.4-0.2-0.9-0.3-1.6-0.3c-1.5,0-3.3,1.3-3.3,4.1v6.7h-2v-12.4h1.6l0.3,2
			c0.7-1.5,2-2.3,4-2.3C72.9,128.1,73.5,128.2,73.9,128.4z"/>
		<path class="st0" d="M87.6,139.2l-0.1,1.6c-0.3,0.1-0.9,0.2-1.5,0.2c-1.2,0-2-0.4-2.2-1.8c-0.8,1.2-2.4,1.8-4,1.8
			c-2.3,0-4.2-1.1-4.2-3.3c0-1.9,1.6-3.3,4.8-3.9l3.3-0.5v-0.7c0-1.6-1-2.7-2.9-2.7c-1.6,0-2.9,0.8-3.5,2.4l-1.5-1.1
			c0.6-1.8,2.6-3,5-3c2.8,0,4.9,1.3,4.9,4.2v6.1c0,0.6,0.2,0.9,0.9,0.9C86.9,139.3,87.3,139.3,87.6,139.2z M83.7,136.6v-1.7
			l-2.8,0.5c-2.2,0.4-3.3,1.1-3.3,2.3c0,1,0.8,1.6,2.3,1.6C81.8,139.3,83.7,138.2,83.7,136.6z"/>
		<path class="st0" d="M97.5,139.9c-0.8,0.7-1.8,1.1-3.2,1.1c-1.8,0-3.4-0.9-3.4-3.3v-7.6h-2.5v-1.7h2.5v-3l2-0.5v3.5h4.6v1.7h-4.6
			v7.2c0,1.2,0.8,1.8,1.9,1.8c0.9,0,1.5-0.3,2.1-0.9L97.5,139.9z"/>
		<path class="st0" d="M111.5,134.6c0,4-2.3,6.4-6,6.4s-6-2.4-6-6.4c0-4,2.3-6.4,6-6.4S111.5,130.6,111.5,134.6z M101.5,134.6
			c0,2.9,1.5,4.7,4,4.7s4-1.8,4-4.7s-1.5-4.7-4-4.7S101.5,131.6,101.5,134.6z"/>
		<path class="st0" d="M122.6,128.4l-0.4,1.9c-0.4-0.2-0.9-0.3-1.6-0.3c-1.5,0-3.3,1.3-3.3,4.1v6.7h-2v-12.4h1.6l0.3,2
			c0.7-1.5,2-2.3,4-2.3C121.6,128.1,122.2,128.2,122.6,128.4z"/>
		<path class="st0" d="M130.2,142.8c-1,2.4-2.1,3.2-3.9,3.2c-1.2,0-2-0.3-2.7-1l0.7-1.7c0.6,0.8,1.3,1,2,1c0.9,0,1.6-0.4,2.3-2
			l0.6-1.6l-5.2-12.3h2.3l3.1,8.1l0.8,2.2l0.9-2.5l2.9-7.8h2.1L130.2,142.8z"/>
	</g>
	<g>
		<path class="st0" d="M70.8,109.8c-3.1,0-5.8-2.5-6.6-6.1c-4.9-1.3-9.5-4-13.6-8.1C49,94,47.4,92.1,46,90.1
			c-5.9-8.5-9.3-19.7-9.4-31.6l-0.3-0.3c-2.9-3.7-4.5-7.9-4.5-12c0-12.8,13.7-23.3,32.7-25.2c-0.4-5.4,0.8-10.8,3.6-15.3
			c1.5-2.4,4.6-3.1,7-1.6c2.4,1.5,3.1,4.6,1.6,7c-1.8,2.9-2.5,6.4-2.1,9.7C86.6,21.5,97,25.6,103.3,32c4.2,4.2,6.4,9.1,6.4,14.2
			c0,4.2-1.5,8.4-4.5,12l-0.3,0.4c-0.3,22.1-11.8,40.8-27.6,45.1C76.6,107.2,73.9,109.8,70.8,109.8
			C70.8,109.8,70.8,109.8,70.8,109.8z M72.5,6c-0.8,0-1.6,0.4-2,1.1c-2.7,4.4-3.8,9.6-3.1,14.9l0.2,1.4l-1.4,0.1
			c-18.3,1.4-31.6,10.9-31.6,22.7c0,3.6,1.3,7.1,3.9,10.4l0.9,1.1V58c0.1,11.5,3.3,22.3,8.9,30.5c1.3,1.9,2.8,3.6,4.3,5.2
			c3.9,3.9,8.4,6.5,13.1,7.5l0.9,0.2l0.1,0.9c0.3,2.7,2.1,4.7,4.1,4.7c0,0,0,0,0,0c2,0,3.8-2,4.1-4.7l0.1-1l0.9-0.2
			C91,97.7,102.1,79.5,102.3,58v-0.5l0.9-1.1c2.5-3.2,3.9-6.8,3.9-10.3c0-4.4-1.9-8.6-5.6-12.3c-6.1-6.1-16.3-9.9-27.9-10.5l-1.1,0
			l-0.2-1c-0.9-4.4-0.1-8.9,2.3-12.7c0.7-1.1,0.3-2.6-0.8-3.3C73.4,6.1,73,6,72.5,6z M70.8,97.1c-7,0-13.6-4-18.6-11.2
			C46.9,78.3,44,68.3,44,57.6l0-1.5l0.9-0.3c7.5-2.6,16.5-4,25.8-4c9.3,0,18.3,1.4,25.8,4l0.9,0.3l0,1.5
			C97.5,79.4,85.5,97.1,70.8,97.1z M46.7,58.1c0.1,10,2.8,19.3,7.6,26.2c4.5,6.5,10.4,10.1,16.4,10.1c13.1,0,23.9-16.3,24-36.3
			c-7.1-2.3-15.4-3.5-24-3.5C62.1,54.5,53.8,55.8,46.7,58.1z M100.5,52.1l-1.1-0.4c-16.4-6-40.8-6-57.1,0l-1.1,0.4l-0.5-1.1
			c-0.8-1.6-1.2-3.3-1.2-4.9c0-4.9,3.4-9.5,9.6-12.9c6-3.3,13.7-5.1,21.8-5.1c0,0,0,0,0,0c11.2,0,21.6,3.5,27.3,9.2
			c1.9,1.9,4.2,5,4.2,8.9c0,1.6-0.4,3.3-1.2,4.9L100.5,52.1z M70.8,44.4c10.2,0,20,1.5,28.3,4.4c0.3-0.9,0.5-1.7,0.5-2.6
			c0-3-1.8-5.4-3.4-7C91,34,81.2,30.8,70.8,30.8c0,0,0,0,0,0c-7.5,0-15,1.7-20.5,4.8C45,38.5,42,42.3,42,46.1c0,0.9,0.2,1.7,0.5,2.6
			C50.8,45.9,60.6,44.4,70.8,44.4z"/>
	</g>
	<g>
		<g>
			<path class="st0" d="M74.6,89.6H67V85l-1.9-0.6L62,87.5l-5.1-5.1l3.2-3.2l-0.6-1.9h-4.6v-7.5h4.6l0.6-1.9l-3.2-3.2l5.1-5.1
				l3.2,3.2l1.9-0.6v-4.7h7.5v4.7l1.9,0.6l3.2-3.2l5.1,5.1l-3.2,3.2l0.6,1.9h4.6v7.5h-4.6l-0.6,1.9l3.2,3.2l-5.1,5.1l-3.2-3.2
				L74.6,85C74.6,85,74.6,89.6,74.6,89.6z M68.7,88h4.2v-4.2l4-1.3l2.7,2.7l2.8-2.8l-2.7-2.7l1.3-4h4.2v-4.2H81l-1.3-4l2.7-2.7
				L79.6,62l-2.7,2.7l-4-1.3v-4.2h-4.2v4.2l-4,1.3L62,62l-2.8,2.8l2.7,2.7l-1.3,4h-4.2v4.2h4.2l1.3,4l-2.7,2.7l2.8,2.8l2.7-2.7
				l4,1.3V88z"/>
			<path class="st0" d="M70.8,77.4c-2.1,0-3.8-1.7-3.8-3.8s1.7-3.8,3.8-3.8s3.8,1.7,3.8,3.8S72.9,77.4,70.8,77.4z M70.8,71.5
				c-1.2,0-2.1,0.9-2.1,2.1s0.9,2.1,2.1,2.1c1.2,0,2.1-0.9,2.1-2.1C72.9,72.4,72,71.5,70.8,71.5z"/>
		</g>
	</g>
</g>
</svg>
