<?xml version="1.0" encoding="utf-8"?>
<!-- Generator: Adobe Illustrator 21.0.0, SVG Export Plug-In . SVG Version: 6.00 Build 0)  -->
<svg version="1.1" id="Layer_1" xmlns="http://www.w3.org/2000/svg" xmlns:xlink="http://www.w3.org/1999/xlink" x="0px" y="0px"
	 viewBox="0 0 150 150" style="enable-background:new 0 0 150 150;" xml:space="preserve">
<style type="text/css">
	.st0{fill:#063551;}
</style>
<title>Artboard 1</title>
<g>
	<path class="st0" d="M37.4,137.4c0,1.2,0,1.6,1.3,1.6c0.6,0,1.2-0.1,1.8-0.3v1.8c-0.6,0.2-1.2,0.3-1.8,0.3c-1.9,0-2.9-1-2.9-3.2
		v-14.3h1.9L37.4,137.4z"/>
</g>
<g>
	<path class="st0" d="M52.9,135.4H44c0,2.1,1.7,3.8,3.8,3.8c0,0,0,0,0.1,0c1.4,0.2,2.7-0.5,3.3-1.8l1.6,0.8c-1,1.8-2.9,2.8-4.9,2.6
		c-3,0.2-5.6-2.1-5.7-5.1c0-0.3,0-0.6,0-1c-0.4-3,1.7-5.7,4.6-6.1c0.3,0,0.6-0.1,1,0c2.8-0.1,5.2,2.2,5.3,5c0,0.2,0,0.4,0,0.5
		C52.9,134.6,52.9,135,52.9,135.4z M44,133.7h7.1c0-2.1-1.5-3.5-3.4-3.5C45.7,130.1,44,131.7,44,133.7C44,133.7,44,133.7,44,133.7z"
		/>
</g>
<g>
	<path class="st0" d="M66.5,131.7l-1.8,0.8c-0.3-1.4-1.7-2.4-3.1-2.3c-2.3,0-3.8,1.7-3.8,4.5s1.4,4.5,3.8,4.5c1.6,0.2,3-0.9,3.3-2.4
		l1.8,0.6c-0.7,2.1-2.7,3.6-5,3.4c-3.4-0.3-5.9-3.4-5.5-6.8c0.3-2.9,2.6-5.2,5.5-5.5C63.8,128.4,65.7,129.7,66.5,131.7z"/>
</g>
<g>
	<path class="st0" d="M77,139.7c-0.9,0.7-1.9,1.1-3.1,1c-1.6,0.1-3.1-1.1-3.2-2.7c0-0.2,0-0.3,0-0.5v-7.2h-2.3v-1.6h2.3v-2.9
		l1.9-0.5v3.4H77v1.6h-4.4v6.9c0,0.9,0.7,1.7,1.6,1.7c0.1,0,0.1,0,0.2,0c0.8,0,1.5-0.3,2-0.8L77,139.7z"/>
</g>
<g>
	<path class="st0" d="M89.9,128.8v11.8h-1.6v-1.8c-0.9,1.4-2.6,2.2-4.2,2c-2.2,0.2-4.1-1.4-4.3-3.5c0-0.2,0-0.5,0-0.8v-7.7h1.9v7.2
		c0,2.4,1.1,3.2,2.8,3.2c2,0.1,3.7-1.4,3.8-3.3c0-0.2,0-0.4,0-0.6v-6.5L89.9,128.8z"/>
</g>
<g>
	<path class="st0" d="M101.1,128.8l-0.4,1.8c-0.6-0.2-1.2-0.3-1.8-0.2c-1.9,0.2-3.3,1.8-3.1,3.7c0,0.1,0,0.1,0,0.2v6.5H94v-12h1.6
		v1.9c0.7-1.4,2.2-2.3,3.8-2.1C99.9,128.4,100.5,128.5,101.1,128.8z"/>
</g>
<g>
	<path class="st0" d="M113.5,135.4h-8.9c0,2.1,1.7,3.8,3.8,3.8c0,0,0,0,0.1,0c1.4,0.2,2.7-0.5,3.3-1.8l1.6,0.8
		c-1,1.8-2.9,2.8-4.9,2.6c-3,0.2-5.6-2.1-5.7-5.1c0-0.3,0-0.6,0-1c-0.4-3,1.7-5.7,4.6-6.1c0.3,0,0.6-0.1,1,0c2.8-0.1,5.2,2.2,5.3,5
		c0,0.2,0,0.4,0,0.5C113.5,134.6,113.5,135,113.5,135.4z M104.6,133.7h7.4c0-2.1-1.4-3.5-3.4-3.5c-2-0.2-3.7,1.3-3.9,3.2
		C104.6,133.5,104.6,133.6,104.6,133.7L104.6,133.7z"/>
</g>
<g>
	<path class="st0" d="M119.1,108.1l-7.7-15.7V9.8h15.4l-0.1,83.1L119.1,108.1z M113.8,92.1l5.3,10.7l5.3-10.7v-80h-10.7L113.8,92.1
		L113.8,92.1z"/>
	<polygon class="st0" points="107.3,33.8 104.9,33.8 104.9,16.3 112.6,16.3 112.6,18.7 107.3,18.7 	"/>
	<path class="st0" d="M92.6,106.6H23.5V9.8h48.9l20.2,20.2L92.6,106.6L92.6,106.6z M25.9,104.3h64.4V31L71.4,12.2H25.9V104.3z"/>
	<polygon class="st0" points="91.4,31.7 70.7,31.7 70.7,11 73.1,11 73.1,29.4 91.4,29.4 	"/>
</g>
<g>
	<path class="st0" d="M57.6,96.6c-2.2,0-4.1-1.7-4.7-4.2c-3.4-0.9-6.5-2.8-9.3-5.5c-1.1-1.1-2.2-2.4-3.2-3.8
		c-4.1-5.9-6.4-13.6-6.5-21.7l-0.1-0.2c-2-2.6-3.1-5.5-3.1-8.4c0-8.9,9.4-16.1,22.5-17.5c-0.3-3.7,0.6-7.3,2.6-10.4
		c1.1-1.8,3.4-2.3,5.2-1.2c1.7,1.1,2.3,3.4,1.2,5.1c-1.2,1.9-1.7,4.1-1.4,6.3c8.1,0.6,15.2,3.4,19.6,7.7c2.9,2.9,4.4,6.3,4.4,9.9
		c0,2.9-1.1,5.8-3.1,8.4l-0.1,0.2c-0.3,15.2-8.1,28-19,31.1C61.8,94.8,59.8,96.6,57.6,96.6C57.6,96.6,57.6,96.6,57.6,96.6z
		 M58.8,25.3c-0.5,0-0.9,0.2-1.2,0.7c-1.8,2.9-2.6,6.5-2.1,10.1l0.2,1.2l-1.2,0.1C42,38.3,33,44.8,33,52.7c0,2.4,0.9,4.8,2.6,7
		l0.6,0.8v0.4c0.1,7.9,2.2,15.2,6.1,20.8c0.9,1.3,1.9,2.5,2.9,3.5c2.7,2.7,5.7,4.4,8.9,5.1l0.8,0.2l0.1,0.8c0.2,1.7,1.3,3,2.5,3
		c0,0,0,0,0,0c1.3,0,2.4-1.3,2.6-3l0.1-0.8l0.8-0.2C71.3,87.8,78.9,75.5,79,60.8v-0.4l0.6-0.8c1.7-2.1,2.6-4.5,2.6-6.9
		c0-2.9-1.3-5.8-3.8-8.2c-4.2-4.2-11.1-6.7-19-7.1l-0.9,0l-0.2-0.9c-0.6-3.1,0-6.3,1.6-8.9c0.4-0.6,0.2-1.5-0.4-1.9
		C59.3,25.4,59.1,25.3,58.8,25.3z M57.6,87.9c-4.9,0-9.5-2.8-13-7.8C41,74.9,39,67.9,39,60.5l0.1-1.2l0.7-0.3
		c5.2-1.8,11.4-2.7,17.8-2.7c6.4,0,12.6,0.9,17.8,2.7l0.8,0.3l0,1.2C76.2,75.6,67.9,87.9,57.6,87.9z M41.4,61
		c0.1,6.7,1.9,13,5.2,17.7c3.1,4.4,7,6.8,11.1,6.8c8.9,0,16.1-10.9,16.2-24.5C64.3,58,50.9,57.9,41.4,61z M78.1,57.1l-1-0.4
		c-11.2-4.1-27.9-4.1-39.1,0l-1,0.4l-0.5-0.9c-0.6-1.1-0.9-2.3-0.9-3.5c0-3.5,2.4-6.7,6.7-9.1C46.6,41.3,52,40,57.6,40c0,0,0,0,0,0
		c7.7,0,15,2.4,18.9,6.4c1.3,1.3,2.9,3.5,2.9,6.3c0,1.2-0.3,2.3-0.9,3.5L78.1,57.1z M57.6,51.2c6.9,0,13.6,1,19.3,2.9
		c0.2-0.5,0.2-1,0.2-1.5c0-2-1.2-3.6-2.2-4.6c-3.5-3.5-10.1-5.7-17.3-5.7c0,0,0,0,0,0c-5.1,0-10.2,1.2-14,3.3
		c-3.5,1.9-5.5,4.5-5.5,7c0,0.5,0.1,1,0.2,1.5C44,52.2,50.7,51.2,57.6,51.2z"/>
</g>
</svg>
