<svg id="Layer_1" data-name="Layer 1" xmlns="http://www.w3.org/2000/svg" viewBox="0 0 28.35 28.35"><defs><style>.cls-1{isolation:isolate;}.cls-2{fill:#063551;}</style></defs><title>Artboard 1</title><g class="cls-1"><path class="cls-2" d="M8.52,24.08c0,.18,0,.24.2.24A.65.65,0,0,0,9,24.27l0,.28a.7.7,0,0,1-.27.05c-.29,0-.44-.16-.44-.49v-2.2h.29Z"/></g><g class="cls-1"><path class="cls-2" d="M10.9,23.77H9.53a.58.58,0,0,0,.59.58.49.49,0,0,0,.51-.27l.24.13a.78.78,0,0,1-.76.4.84.84,0,0,1-.88-.94.83.83,0,0,1,.86-.94.79.79,0,0,1,.81.85A1.43,1.43,0,0,1,10.9,23.77Zm-1.37-.26h1.1c0-.33-.23-.54-.53-.54A.55.55,0,0,0,9.53,23.51Z"/></g><g class="cls-1"><path class="cls-2" d="M13,23.2l-.28.13a.47.47,0,0,0-.48-.36c-.36,0-.58.26-.58.69s.22.69.58.69a.47.47,0,0,0,.51-.37l.27.09a.77.77,0,0,1-.77.53.95.95,0,0,1,0-1.89A.77.77,0,0,1,13,23.2Z"/></g><g class="cls-1"><path class="cls-2" d="M14.62,24.44a.68.68,0,0,1-.47.16.46.46,0,0,1-.5-.49V23h-.36v-.25h.36v-.44l.29-.08v.52h.67V23h-.67v1.06a.25.25,0,0,0,.27.26.41.41,0,0,0,.31-.13Z"/></g><g class="cls-1"><path class="cls-2" d="M16.6,22.75v1.82h-.25l0-.28a.7.7,0,0,1-.65.31.61.61,0,0,1-.67-.66V22.75h.29v1.11c0,.37.17.49.43.49a.55.55,0,0,0,.58-.61v-1Z"/></g><g class="cls-1"><path class="cls-2" d="M18.33,22.75l-.06.28A.5.5,0,0,0,18,23a.53.53,0,0,0-.48.6v1h-.29V22.75h.24l0,.3a.58.58,0,0,1,.58-.33A.46.46,0,0,1,18.33,22.75Z"/></g><g class="cls-1"><path class="cls-2" d="M20.23,23.77H18.86a.58.58,0,0,0,.59.58.49.49,0,0,0,.51-.27l.24.13a.78.78,0,0,1-.75.4.84.84,0,0,1-.88-.94.83.83,0,0,1,.86-.94.79.79,0,0,1,.81.85A1.52,1.52,0,0,1,20.23,23.77Zm-1.37-.26H20c0-.33-.22-.54-.53-.54A.55.55,0,0,0,18.87,23.51Z"/></g><path class="cls-2" d="M14.18,20.76v-.37a8.82,8.82,0,0,0,0-17.64V2.37a9.19,9.19,0,0,1,0,18.39Z"/><path class="cls-2" d="M14.18,20.76A9.2,9.2,0,0,1,6.69,6.23L8.34,4.57l.27.27L7,6.47a8.82,8.82,0,0,0,7.2,13.92v.38Z"/><polygon class="cls-2" points="8.84 7.79 8.47 7.79 8.47 4.78 5.46 4.78 5.46 4.41 8.84 4.41 8.84 7.79"/><path class="cls-2" d="M14.18,18.43a1,1,0,0,1-.91-.85,4.15,4.15,0,0,1-1.88-1.12,5.61,5.61,0,0,1-.64-.77,7.91,7.91,0,0,1-1.31-4.38l0,0A2.68,2.68,0,0,1,8.78,9.6c0-1.78,1.9-3.23,4.54-3.5A3.47,3.47,0,0,1,13.83,4a.71.71,0,0,1,1-.22.71.71,0,0,1,.22,1,2.08,2.08,0,0,0-.29,1.35,6.2,6.2,0,0,1,4,1.55,2.78,2.78,0,0,1,.88,2A2.68,2.68,0,0,1,19,11.27l0,0c0,3.07-1.64,5.67-3.83,6.26a1,1,0,0,1-.92.85ZM14.43,4a.33.33,0,0,0-.28.16,3.11,3.11,0,0,0-.43,2.07l0,.2h-.2C11,6.65,9.16,8,9.16,9.6A2.31,2.31,0,0,0,9.7,11l.12.15v.06a7.57,7.57,0,0,0,1.24,4.23,5.12,5.12,0,0,0,.6.72,3.74,3.74,0,0,0,1.82,1l.13,0,0,.13a.66.66,0,0,0,.56.65h0a.66.66,0,0,0,.56-.65l0-.13.13,0c2.1-.49,3.64-3,3.66-6v-.06l.12-.15a2.31,2.31,0,0,0,.54-1.44,2.41,2.41,0,0,0-.77-1.7,5.91,5.91,0,0,0-3.88-1.45h-.15l0-.14a2.43,2.43,0,0,1,.32-1.77.33.33,0,0,0-.1-.45A.35.35,0,0,0,14.43,4Zm-.24,12.64A3.22,3.22,0,0,1,11.6,15.1a6.9,6.9,0,0,1-1.12-3.92s0-.06,0-.08V11l.12,0a11.18,11.18,0,0,1,3.58-.55,11.24,11.24,0,0,1,3.58.55l.13,0v.2C17.9,14.21,16.23,16.66,14.19,16.66Zm-3.34-5.41a6.5,6.5,0,0,0,1.06,3.64,2.86,2.86,0,0,0,2.28,1.4c1.82,0,3.31-2.26,3.34-5a11,11,0,0,0-3.34-.49A10.9,10.9,0,0,0,10.85,11.25Zm7.46-.82-.16-.06a13,13,0,0,0-7.93,0l-.16.06L10,10.28a1.49,1.49,0,0,1-.17-.68,2.19,2.19,0,0,1,1.34-1.8,6.34,6.34,0,0,1,3-.71h0A5.53,5.53,0,0,1,18,8.36a1.79,1.79,0,0,1,.58,1.23,1.5,1.5,0,0,1-.17.68ZM14.18,9.35a12.21,12.21,0,0,1,3.93.61,1,1,0,0,0,.07-.36,1.43,1.43,0,0,0-.47-1,5.15,5.15,0,0,0-3.52-1.17h0a6,6,0,0,0-2.84.66A1.87,1.87,0,0,0,10.19,9.6a1.07,1.07,0,0,0,.06.36A12.23,12.23,0,0,1,14.18,9.35Z"/></svg>