<?xml version="1.0" encoding="utf-8"?>
<!-- Generator: Adobe Illustrator 21.0.0, SVG Export Plug-In . SVG Version: 6.00 Build 0)  -->
<svg version="1.1" id="Layer_1" xmlns="http://www.w3.org/2000/svg" xmlns:xlink="http://www.w3.org/1999/xlink" x="0px" y="0px"
	 viewBox="0 0 150 150" style="enable-background:new 0 0 150 150;" xml:space="preserve">
<style type="text/css">
	.st0{fill:#063551;}
</style>
<g>
	<g>
		<path class="st0" d="M42.1,132.8v8.5H40V133c0-2.4-1.4-3.4-3.1-3.4c-2.1,0-3.9,1.6-3.9,4.4v7.2h-2.1V133c0-2.4-1.4-3.4-3.1-3.4
			c-1.7,0-3.9,1.3-3.9,4.6v7.1h-2.1V128h1.8l0.1,2.1c1-1.6,2.6-2.3,4.2-2.3c1.9,0,3.7,0.8,4.5,2.6c0.8-1.8,2.9-2.6,4.6-2.6
			C39.6,127.7,42.1,129.3,42.1,132.8z"/>
		<path class="st0" d="M46.4,123.9c0-1,0.6-1.6,1.6-1.6c1,0,1.6,0.6,1.6,1.6c0,0.9-0.6,1.6-1.6,1.6C47,125.5,46.4,124.8,46.4,123.9z
			 M49,141.2h-2.1V128H49V141.2z"/>
		<path class="st0" d="M65.7,121.9v19.3h-1.8l-0.1-2.3c-0.8,1.5-2.4,2.6-4.5,2.6c-3.7,0-6-2.6-6-6.9s2.4-6.9,6-6.9
			c2,0,3.6,1,4.4,2.3v-8.1H65.7z M63.6,134.8v-0.3c0-3-1.6-4.9-4.2-4.9c-2.6,0-4.2,2-4.2,5c0,3.1,1.6,5,4.2,5
			C61.9,139.6,63.6,137.8,63.6,134.8z"/>
		<path class="st0" d="M78.7,140.3c-0.8,0.7-2,1.2-3.4,1.2c-2,0-3.6-1-3.7-3.5v-8.1H69V128h2.6v-3.2l2.1-0.6v3.7h4.9v1.8h-4.9v7.7
			c0,1.3,0.8,1.9,2,1.9c1,0,1.6-0.4,2.2-1L78.7,140.3z"/>
		<path class="st0" d="M93,135.4H83c0.3,2.7,1.9,4.2,4.3,4.2c1.9,0,3.3-0.7,3.7-2l1.8,0.9c-1,1.8-2.6,2.9-5.5,2.9
			c-4,0-6.4-2.6-6.4-6.9c0-4.3,2.3-6.9,6.2-6.9c3.8,0,5.9,2.8,5.9,6.2C93.1,134.5,93,135,93,135.4z M83,133.5h8
			c-0.3-2.4-1.6-3.9-3.9-3.9C84.8,129.6,83.3,131,83,133.5z"/>
		<path class="st0" d="M104.8,128l-0.4,2.1c-0.4-0.2-1-0.3-1.7-0.3c-1.6,0-3.5,1.4-3.5,4.4v7.1h-2.1V128h1.7l0.3,2.2
			c0.7-1.6,2.2-2.4,4.2-2.4C103.8,127.7,104.4,127.8,104.8,128z"/>
		<path class="st0" d="M128.3,132.8v8.5h-2.1V133c0-2.4-1.4-3.4-3.1-3.4c-2.1,0-3.9,1.6-3.9,4.4v7.2h-2.1V133c0-2.4-1.4-3.4-3.1-3.4
			c-1.7,0-3.9,1.3-3.9,4.6v7.1h-2.1V128h1.8l0.1,2.1c1-1.6,2.6-2.3,4.2-2.3c1.8,0,3.7,0.8,4.5,2.6c0.8-1.8,2.9-2.6,4.6-2.6
			C125.8,127.7,128.3,129.3,128.3,132.8z"/>
	</g>
</g>
<g>
	<path class="st0" d="M75,7.9c13.3,0,26.7,5.1,36.8,15.3l-1.5,1.5C100.7,14.9,87.9,10,75.2,10"/>
	<path class="st0" d="M111.8,23.1c20.3,20.4,20.3,53.4-0.1,73.7c-7.7,7.6-17.5,12.7-28.1,14.5l-13.3,0v-2.2l13-0.1
		c27.2-4.6,45.5-30.5,40.9-57.7c-1.7-10.2-6.6-19.6-13.9-27l1.5-1.5L111.8,23.1z"/>
	<polygon class="st0" points="81.3,96.5 82.7,98 70.7,110.1 82.7,122.1 81.3,123.6 67.7,110.1 	"/>
	<path class="st0" d="M75,98.8c-2.6-0.2-4.8-2.2-5.2-4.8c-4.1-1.1-7.7-3.3-10.7-6.3c-1.3-1.3-2.6-2.8-3.6-4.4
		c-4.9-7.4-7.4-16-7.4-24.8l0,0c-2.3-2.7-3.7-6.1-3.7-9.7c0-10.1,10.8-18.3,25.7-19.8c-0.3-4.2,0.7-8.3,2.9-11.9
		c1.2-1.9,3.6-2.5,5.5-1.3c0,0,0.1,0.1,0.1,0.1c1.9,1.2,2.5,3.6,1.3,5.5c0,0-0.1,0.1-0.1,0.1c-1.4,2.3-2,5-1.6,7.7
		c8.4,0.1,16.4,3.3,22.7,8.8c3.1,2.9,4.9,7,5,11.3c-0.2,3.3-1.5,6.5-3.6,9l0,0c0,17.4-9.3,32.1-21.7,35.5c-0.4,2.6-2.6,4.6-5.2,4.8
		L75,98.8z M76.4,17c-0.7,0-1.3,0.3-1.6,0.9c-2.2,3.5-3,7.7-2.4,11.7v1.1h-1.1c-14.3,1.2-24.7,8.9-24.7,18c0.1,2.9,1.2,5.7,3.1,7.9
		l0.7,0.9v0.3c-0.1,8.5,2.4,16.9,7,24c1,1.5,2.1,2.8,3.4,4.1c2.8,2.8,6.4,4.8,10.3,5.7h0.7v0.7c0,1.8,1.4,3.4,3.2,3.7l0,0
		c1.8-0.3,3.2-1.8,3.2-3.7v-0.7h0.7c11.9-2.8,20.6-17,20.7-34v-0.3l0.7-0.9c1.9-2.3,3-5.2,3.1-8.2c-0.1-3.7-1.7-7.1-4.4-9.6
		c-6.1-5.3-13.9-8.2-22-8.2h-0.9v-0.8c-0.7-3.5-0.1-7,1.8-10c0.5-0.9,0.3-2-0.6-2.6C77.1,17,76.7,17,76.4,17z M75,88.7
		c-6-0.3-11.5-3.6-14.7-8.7c-4.3-6.6-6.5-14.3-6.3-22.2c0,0,0-0.3,0-0.5v-0.6h0.7c6.5-2.1,13.4-3.2,20.3-3.1
		c6.9-0.1,13.7,1,20.3,3.1H96v1.1c0.1,17.1-9.4,30.9-21,30.9L75,88.7z M56.1,58c-0.1,7.3,2,14.5,6,20.6c2.7,4.6,7.6,7.6,12.9,7.9
		c10.3,0,18.8-12.8,18.9-28.3c-6.1-1.9-12.5-2.8-18.9-2.8c-6.4-0.1-12.8,0.8-18.9,2.7V58z M98.4,53.4L97.5,53
		c-14.6-4.7-30.3-4.7-44.9,0l-0.9,0.3l-0.3-0.7c-0.6-1.2-1-2.5-1-3.9c0.5-4.5,3.4-8.5,7.6-10.2c5.3-2.7,11.1-4.1,17-4l0,0
		c7.9-0.4,15.6,2.2,21.7,7.2c2,1.8,3.2,4.3,3.3,7c0,1.3-0.3,2.7-1,3.9L98.4,53.4z M75,47.4c7.6-0.1,15.1,1.1,22.3,3.5
		c0.3-0.6,0.4-1.3,0.4-2c-0.1-2.2-1.1-4.2-2.7-5.7c-5.6-4.6-12.7-7-19.9-6.6l0,0c-5.6-0.1-11.1,1.2-16.1,3.7
		c-3.6,1.4-6.1,4.7-6.6,8.6c0,0.7,0.1,1.4,0.3,2C59.9,48.5,67.4,47.3,75,47.4z"/>
</g>
</svg>
