<?xml version="1.0" encoding="utf-8"?>
<!-- Generator: Adobe Illustrator 21.0.0, SVG Export Plug-In . SVG Version: 6.00 Build 0)  -->
<svg version="1.1" baseProfile="tiny" id="Layer_1" xmlns="http://www.w3.org/2000/svg" xmlns:xlink="http://www.w3.org/1999/xlink"
	 x="0px" y="0px" viewBox="0 0 28.35 28.35" overflow="scroll" xml:space="preserve">
<g>
	<g>
		<path fill="#063551" d="M13.742,16.784c-0.372,0-0.686-0.298-0.78-0.725c-0.588-0.153-1.13-0.475-1.611-0.956
			c-0.196-0.196-0.38-0.417-0.546-0.658c-0.703-1.01-1.099-2.34-1.119-3.75l-0.032-0.04c-0.35-0.437-0.534-0.932-0.534-1.43
			c0-1.526,1.626-2.77,3.89-2.997c-0.052-0.641,0.099-1.279,0.433-1.814c0.086-0.137,0.22-0.232,0.377-0.269
			c0.158-0.036,0.32-0.009,0.456,0.076c0.137,0.084,0.232,0.218,0.269,0.376c0.036,0.157,0.009,0.318-0.076,0.456
			c-0.212,0.339-0.302,0.754-0.251,1.158c1.408,0.09,2.642,0.572,3.4,1.33c0.494,0.494,0.756,1.076,0.756,1.686
			c0,0.498-0.185,0.992-0.532,1.429l-0.033,0.042c-0.038,2.627-1.403,4.852-3.276,5.355c-0.091,0.425-0.413,0.732-0.785,0.732
			C13.745,16.784,13.744,16.784,13.742,16.784z M13.957,4.45c-0.021,0-0.043,0.002-0.064,0.007
			c-0.074,0.017-0.137,0.062-0.177,0.126c-0.323,0.518-0.454,1.146-0.369,1.768L13.37,6.52L13.2,6.534
			c-2.178,0.169-3.758,1.301-3.758,2.691c0,0.425,0.16,0.85,0.462,1.229l0.102,0.126v0.056c0.01,1.367,0.387,2.654,1.063,3.625
			c0.156,0.225,0.327,0.432,0.51,0.614c0.466,0.466,0.991,0.767,1.56,0.895l0.11,0.025l0.014,0.112
			c0.039,0.315,0.246,0.553,0.481,0.553c0,0,0.001,0,0.002,0c0.241,0,0.449-0.239,0.484-0.558l0.013-0.113l0.111-0.025
			c1.797-0.418,3.114-2.574,3.133-5.127l0.001-0.056l0.102-0.128c0.303-0.38,0.462-0.805,0.462-1.229
			c0-0.522-0.229-1.026-0.66-1.458c-0.727-0.726-1.936-1.179-3.319-1.244l-0.126-0.006l-0.024-0.124
			c-0.102-0.52-0.002-1.071,0.274-1.512c0.04-0.064,0.052-0.14,0.035-0.214c-0.017-0.073-0.061-0.135-0.125-0.175
			C14.06,4.465,14.009,4.45,13.957,4.45z M13.748,15.275c-0.83,0-1.616-0.475-2.215-1.336c-0.622-0.893-0.963-2.084-0.962-3.355
			l0.007-0.177l0.103-0.035c0.896-0.309,1.958-0.472,3.068-0.472c1.109,0.001,2.169,0.164,3.067,0.471l0.109,0.037l0.001,0.175
			C16.925,13.17,15.499,15.275,13.748,15.275z M10.891,10.639c0.009,1.185,0.329,2.29,0.905,3.116
			c0.537,0.773,1.23,1.198,1.952,1.198c1.562,0,2.835-1.931,2.855-4.315c-0.842-0.273-1.826-0.417-2.855-0.418
			C12.716,10.221,11.731,10.365,10.891,10.639z M17.276,9.935l-0.135-0.049c-0.986-0.361-2.16-0.552-3.395-0.552
			c-1.218,0-2.424,0.196-3.395,0.55l-0.133,0.049l-0.065-0.126c-0.098-0.191-0.147-0.387-0.147-0.583
			c0-0.582,0.407-1.128,1.145-1.539c0.708-0.393,1.628-0.609,2.592-0.609c0.001,0,0.002,0,0.003,0c1.327,0,2.57,0.419,3.245,1.093
			c0.226,0.226,0.495,0.592,0.495,1.058c0,0.194-0.049,0.39-0.146,0.581L17.276,9.935z M13.747,9.013
			c1.213,0,2.373,0.18,3.363,0.521c0.037-0.103,0.055-0.206,0.055-0.307c0-0.355-0.217-0.647-0.399-0.83
			c-0.617-0.616-1.773-0.999-3.018-0.999c-0.001,0-0.002,0-0.003,0c-0.897,0-1.785,0.208-2.436,0.569
			c-0.623,0.346-0.979,0.804-0.979,1.257c0,0.102,0.019,0.205,0.056,0.308C11.374,9.192,12.532,9.013,13.747,9.013z"/>
	</g>
	<g>
		<path fill="#063551" d="M9.074,22.873v1.313H8.746v-1.28c0-0.374-0.213-0.525-0.484-0.525c-0.32,0-0.607,0.242-0.607,0.681v1.125
			h-0.33v-1.28c0-0.374-0.213-0.525-0.484-0.525c-0.271,0-0.607,0.201-0.607,0.71v1.096H5.905v-2.053h0.287l0.021,0.32
			c0.148-0.25,0.402-0.361,0.657-0.361c0.288,0,0.571,0.128,0.706,0.402c0.127-0.279,0.456-0.402,0.714-0.402
			C8.684,22.093,9.074,22.331,9.074,22.873z"/>
		<path fill="#063551" d="M9.74,21.494c0-0.148,0.098-0.246,0.246-0.246s0.246,0.098,0.246,0.246c0,0.147-0.098,0.246-0.246,0.246
			S9.74,21.642,9.74,21.494z M10.15,24.187H9.822v-2.053h0.328V24.187z"/>
		<path fill="#063551" d="M12.738,21.19v2.996h-0.287l-0.021-0.357c-0.119,0.234-0.378,0.398-0.702,0.398
			c-0.57,0-0.936-0.398-0.936-1.067s0.365-1.067,0.936-1.067c0.308,0,0.554,0.148,0.682,0.361V21.19H12.738z M12.41,23.185v-0.049
			c0-0.464-0.255-0.755-0.645-0.755c-0.402,0-0.645,0.304-0.645,0.779c0,0.477,0.242,0.78,0.645,0.78
			C12.155,23.94,12.41,23.648,12.41,23.185z"/>
		<path fill="#063551" d="M14.76,24.043c-0.127,0.115-0.304,0.185-0.529,0.185c-0.304,0-0.566-0.151-0.571-0.55v-1.261h-0.41v-0.283
			h0.41v-0.492l0.329-0.09v0.582h0.759v0.283h-0.759v1.203c0,0.201,0.127,0.3,0.308,0.3c0.148,0,0.254-0.058,0.349-0.152
			L14.76,24.043z"/>
		<path fill="#063551" d="M16.971,23.283h-1.548c0.041,0.415,0.292,0.657,0.669,0.657c0.3,0,0.505-0.106,0.579-0.304l0.275,0.144
			c-0.156,0.279-0.411,0.447-0.854,0.447c-0.619,0-0.993-0.402-0.993-1.067s0.35-1.067,0.969-1.067c0.596,0,0.92,0.432,0.92,0.961
			C16.987,23.148,16.979,23.226,16.971,23.283z M15.428,22.992h1.243c-0.045-0.378-0.254-0.611-0.604-0.611
			C15.702,22.381,15.477,22.606,15.428,22.992z"/>
		<path fill="#063551" d="M18.809,22.134l-0.066,0.32c-0.062-0.032-0.151-0.053-0.258-0.053c-0.246,0-0.542,0.217-0.542,0.677v1.108
			h-0.328v-2.053h0.267l0.045,0.337c0.115-0.25,0.337-0.378,0.657-0.378C18.652,22.093,18.747,22.102,18.809,22.134z"/>
		<path fill="#063551" d="M22.46,22.873v1.313h-0.329v-1.28c0-0.374-0.213-0.525-0.484-0.525c-0.319,0-0.607,0.242-0.607,0.681
			v1.125h-0.328v-1.28c0-0.374-0.213-0.525-0.484-0.525s-0.607,0.201-0.607,0.71v1.096h-0.328v-2.053h0.287l0.021,0.32
			c0.148-0.25,0.402-0.361,0.657-0.361c0.287,0,0.57,0.128,0.706,0.402c0.127-0.279,0.455-0.402,0.714-0.402
			C22.069,22.093,22.46,22.331,22.46,22.873z"/>
	</g>
	<g>
		<polygon fill="#063551" points="20.609,18.637 6.398,18.637 6.398,3.269 18.234,3.269 18.234,3.59 6.72,3.59 6.72,18.314 
			20.287,18.314 20.287,9.354 20.609,9.354 		"/>
		<g>
			<path fill="#063551" d="M18.992,10.804l-0.314-1.621l0.004-0.019l1.152-6.043c0.032-0.169,0.127-0.298,0.273-0.375
				c0.126-0.065,0.282-0.084,0.433-0.055c0.154,0.029,0.29,0.104,0.383,0.21c0.108,0.125,0.148,0.28,0.116,0.449l-1.167,6.079
				L18.992,10.804z M18.883,9.183l0.211,1.089l0.598-0.935l1.15-6.024c0.021-0.107-0.004-0.202-0.071-0.279
				c-0.062-0.071-0.159-0.124-0.268-0.145c-0.111-0.021-0.22-0.007-0.303,0.036c-0.092,0.047-0.148,0.126-0.169,0.234L18.883,9.183z
				"/>
			<polygon fill="#063551" points="20.777,4.186 19.771,3.994 19.808,3.796 20.814,3.988 			"/>
		</g>
	</g>
</g>
</svg>
